<?xml version="1.0" encoding="UTF-8" standalone="no"?>
<!-- Created with Inkscape (http://www.inkscape.org/) -->

<svg
   xmlns:dc="http://purl.org/dc/elements/1.1/"
   xmlns:cc="http://creativecommons.org/ns#"
   xmlns:rdf="http://www.w3.org/1999/02/22-rdf-syntax-ns#"
   xmlns:svg="http://www.w3.org/2000/svg"
   xmlns="http://www.w3.org/2000/svg"
   xmlns:sodipodi="http://sodipodi.sourceforge.net/DTD/sodipodi-0.dtd"
   xmlns:inkscape="http://www.inkscape.org/namespaces/inkscape"
   width="52.502254mm"
   height="19.966928mm"
   viewBox="0 0 52.502254 19.966928"
   version="1.1"
   id="svg8"
   sodipodi:docname="back_plane_1A1.svg"
   inkscape:version="0.92.3 (2405546, 2018-03-11)">
  <defs
     id="defs2" />
  <sodipodi:namedview
     id="base"
     pagecolor="#ffffff"
     bordercolor="#666666"
     borderopacity="1.0"
     inkscape:pageopacity="0.0"
     inkscape:pageshadow="2"
     inkscape:zoom="5.6"
     inkscape:cx="91.452884"
     inkscape:cy="-39.280048"
     inkscape:document-units="mm"
     inkscape:current-layer="layer1"
     showgrid="false"
     inkscape:window-width="3840"
     inkscape:window-height="2040"
     inkscape:window-x="0"
     inkscape:window-y="0"
     inkscape:window-maximized="1" />
  <metadata
     id="metadata5">
    <rdf:RDF>
      <cc:Work
         rdf:about="">
        <dc:format>image/svg+xml</dc:format>
        <dc:type
           rdf:resource="http://purl.org/dc/dcmitype/StillImage" />
        <dc:title></dc:title>
      </cc:Work>
    </rdf:RDF>
  </metadata>
  <g
     inkscape:label="Livello 1"
     inkscape:groupmode="layer"
     id="layer1"
     transform="translate(-54.688999,-91.044971)">
    <path
       style="fill:#000000;stroke-width:0.08466666"
       d="m 102.67637,110.80805 c -0.31756,-0.2943 -0.31355,-0.79458 0.009,-1.09746 0.12806,-0.12033 0.97377,-0.71411 1.87937,-1.31951 1.77314,-1.18538 1.97612,-1.26344 2.40605,-0.92526 0.17853,0.14044 0.22254,0.24611 0.22039,0.52917 -0.001,0.19453 -0.0491,0.41408 -0.10584,0.4879 -0.0567,0.0738 -0.71274,0.54708 -1.4578,1.0517 -0.74507,0.50462 -1.53992,1.0443 -1.76634,1.19929 -0.50415,0.3451 -0.86773,0.36787 -1.18463,0.0742 z m -2.879613,-3.69318 c -0.17994,-0.14154 -0.22309,-0.24674 -0.22309,-0.5439 0,-0.36189 0.0176,-0.38462 0.995293,-1.28502 2.21788,-2.04254 2.2726,-2.08501 2.69821,-2.09389 0.47527,-0.01 0.70917,0.22478 0.70917,0.71162 0,0.35893 -0.0717,0.45772 -0.80682,1.112 -0.28077,0.24988 -0.83484,0.74749 -1.23127,1.10579 -1.12053,1.01276 -1.34025,1.16887 -1.64514,1.16887 -0.1503,0 -0.373663,-0.079 -0.496353,-0.17547 z m -42.745784,-6.00278 c -0.116711,-0.0918 -0.489378,-0.61568 -0.828149,-1.164161 -0.33877,-0.54849 -0.819917,-1.32523 -1.069216,-1.72609 -0.527172,-0.84767 -0.595293,-1.26722 -0.257312,-1.58474 0.260912,-0.24511 0.708557,-0.24206 1.001217,0.007 0.183608,0.15614 1.681493,2.44417 1.681493,2.56849 0,0.0204 0.136527,0.24282 0.303394,0.49414 0.389671,0.586881 0.456774,1.022151 0.206523,1.339611 -0.228349,0.28968 -0.714255,0.32053 -1.03795,0.0659 z m 35.501124,-0.079 c -0.19562,-0.27473 -0.22437,-0.60364 -0.077,-0.8815 0.31923,-0.602071 2.15268,-3.426521 2.30349,-3.548551 0.58214,-0.47104 1.46328,0.17646 1.1581,0.85103 -0.1733,0.38306 -2.05118,3.344841 -2.27752,3.592091 -0.1684,0.18396 -0.28858,0.23283 -0.57253,0.23283 -0.30006,0 -0.38831,-0.0406 -0.5345,-0.2459 z M 61.156172,98.913099 c -0.104775,-0.0874 -0.1905,-0.1786 -0.1905,-0.20266 0,-0.0241 -0.13335,-0.33244 -0.296333,-0.68529 -0.162983,-0.35285 -0.296333,-0.65765 -0.296333,-0.67733 0,-0.0351 -0.33561,-0.77515 -0.808942,-1.78383 -0.432912,-0.92254 -0.267803,-1.56633 0.40171,-1.56633 0.504534,0 0.695685,0.18313 1.042952,0.99922 0.172358,0.40504 0.421007,0.96504 0.552554,1.24444 0.499577,1.06109 0.843726,1.95088 0.843726,2.18145 0,0.5536 -0.797603,0.86676 -1.248834,0.49033 z m 27.430218,0.10789 c -0.135943,-0.0547 -0.358052,-0.47809 -0.358052,-0.68253 0,-0.13261 0.601491,-1.56192 1.320048,-3.13681 0.112173,-0.24586 0.203952,-0.48266 0.203952,-0.52622 0,-0.0436 0.118247,-0.21389 0.26277,-0.37849 0.22622,-0.25765 0.314721,-0.29928 0.636245,-0.29928 0.330494,0 0.392784,0.0317 0.541244,0.27516 0.27027,0.44328 0.25814,0.49723 -0.457059,2.03236 -0.168227,0.36109 -0.305867,0.67316 -0.305867,0.69349 0,0.0203 -0.1524,0.36532 -0.338667,0.76665 -0.186266,0.40133 -0.338666,0.75841 -0.338666,0.79351 0,0.0351 -0.10686,0.16619 -0.237467,0.29132 -0.228673,0.21908 -0.626601,0.2923 -0.928481,0.17084 z m -22.625384,-1.5339 c -0.333516,-0.0519 -0.587022,-0.35171 -0.727908,-0.86085 -0.07147,-0.25827 -0.161109,-0.56483 -0.199198,-0.68125 -0.03809,-0.11642 -0.111682,-0.36407 -0.163536,-0.55033 -0.05185,-0.18627 -0.230785,-0.80965 -0.397627,-1.38528 -0.311466,-1.07463 -0.319604,-1.29356 -0.0592,-1.59267 0.446825,-0.51323 1.178705,-0.20991 1.378986,0.5715 0.13697,0.5344 0.232706,0.87537 0.624957,2.22583 0.407783,1.40393 0.446927,1.65208 0.30302,1.92097 -0.115833,0.21644 -0.496684,0.39299 -0.75949,0.35208 z m 18.27852,-0.0625 c -0.346545,-0.185 -0.462987,-0.56047 -0.336781,-1.08596 0.05759,-0.23977 0.136093,-0.53119 0.17446,-0.64761 0.03837,-0.11642 0.134258,-0.44027 0.213093,-0.71967 0.621679,-2.20331 0.709097,-2.46091 0.890954,-2.62549 0.221792,-0.20072 0.784183,-0.20814 0.999602,-0.0132 0.307287,0.27809 0.295266,0.61818 -0.06653,1.88207 -0.18577,0.64897 -0.373918,1.29424 -0.418105,1.43394 -0.04419,0.1397 -0.158783,0.52311 -0.254655,0.85202 -0.246865,0.84692 -0.69746,1.19324 -1.202041,0.92388 z M 70.29641,96.448979 c -0.257035,-0.10316 -0.432347,-0.54596 -0.529711,-1.33793 -0.0438,-0.35624 -0.137245,-1.04776 -0.207669,-1.53671 -0.07042,-0.48895 -0.152205,-1.14488 -0.181738,-1.45762 -0.05295,-0.56071 -0.04987,-0.57219 0.221296,-0.8255 0.324094,-0.30274 0.572102,-0.32411 0.886989,-0.0764 0.288308,0.22679 0.3592,0.41487 0.465726,1.23559 0.04699,0.36206 0.162427,1.17265 0.256517,1.8013 0.234595,1.56741 0.227905,1.77728 -0.06561,2.05849 -0.244039,0.2338 -0.503143,0.27633 -0.845796,0.13881 z m 9.204646,-0.15889 c -0.26557,-0.26557 -0.267861,-0.27506 -0.212114,-0.87828 0.031,-0.33539 0.108676,-0.9527 0.172624,-1.3718 0.06395,-0.4191 0.160317,-1.1049 0.214152,-1.524 0.126947,-0.98826 0.27192,-1.28515 0.688497,-1.40996 0.269675,-0.0808 0.356242,-0.0732 0.540398,0.0475 0.437819,0.28687 0.446897,0.61902 0.08468,3.09815 -0.07144,0.48895 -0.153197,1.08505 -0.181687,1.32466 -0.06582,0.5536 -0.308376,0.86567 -0.724506,0.93214 -0.27299,0.0436 -0.348318,0.0153 -0.582043,-0.21838 z"
       id="path847"
       inkscape:connector-curvature="0" />
  </g>
</svg>
