<?xml version="1.0" encoding="UTF-8" standalone="no"?>
<!-- Created with Inkscape (http://www.inkscape.org/) -->

<svg
   xmlns:dc="http://purl.org/dc/elements/1.1/"
   xmlns:cc="http://creativecommons.org/ns#"
   xmlns:rdf="http://www.w3.org/1999/02/22-rdf-syntax-ns#"
   xmlns:svg="http://www.w3.org/2000/svg"
   xmlns="http://www.w3.org/2000/svg"
   xmlns:sodipodi="http://sodipodi.sourceforge.net/DTD/sodipodi-0.dtd"
   xmlns:inkscape="http://www.inkscape.org/namespaces/inkscape"
   width="13.887218mm"
   height="6.0759602mm"
   viewBox="0 0 13.887217 6.07596"
   version="1.1"
   id="svg8"
   sodipodi:docname="back_plane_1A2.svg"
   inkscape:version="0.92.3 (2405546, 2018-03-11)">
  <defs
     id="defs2" />
  <sodipodi:namedview
     id="base"
     pagecolor="#ffffff"
     bordercolor="#666666"
     borderopacity="1.0"
     inkscape:pageopacity="0.0"
     inkscape:pageshadow="2"
     inkscape:zoom="5.6"
     inkscape:cx="15.492819"
     inkscape:cy="-34.850442"
     inkscape:document-units="mm"
     inkscape:current-layer="layer1"
     showgrid="false"
     inkscape:window-width="3840"
     inkscape:window-height="2040"
     inkscape:window-x="0"
     inkscape:window-y="0"
     inkscape:window-maximized="1" />
  <metadata
     id="metadata5">
    <rdf:RDF>
      <cc:Work
         rdf:about="">
        <dc:format>image/svg+xml</dc:format>
        <dc:type
           rdf:resource="http://purl.org/dc/dcmitype/StillImage" />
        <dc:title></dc:title>
      </cc:Work>
    </rdf:RDF>
  </metadata>
  <g
     inkscape:label="Livello 1"
     inkscape:groupmode="layer"
     id="layer1"
     transform="translate(-74.68973,-108.08227)">
    <path
       style="fill:#000000;stroke-width:0.01953846"
       d="m 87.851896,114.12895 c -0.0062,-0.0161 -0.007,-0.0404 -0.0018,-0.054 0.0098,-0.0255 0.59221,-0.42415 0.654561,-0.448 0.04449,-0.017 0.08452,0.0281 0.06881,0.0776 -0.01446,0.0455 -0.618704,0.45368 -0.671695,0.45368 -0.02125,0 -0.0437,-0.0132 -0.04989,-0.0293 z m -8.719145,-0.58785 c -0.0335,-0.0165 -0.07086,-0.0518 -0.08304,-0.0786 -0.0152,-0.0333 -0.02214,-0.27189 -0.02214,-0.76081 0,-0.68619 0.0014,-0.71367 0.03908,-0.75132 0.02149,-0.0215 0.06106,-0.0391 0.08792,-0.0391 0.02687,0 0.06643,0.0176 0.08792,0.0391 0.03752,0.0375 0.03908,0.0651 0.03908,0.69362 v 0.65454 h 0.299818 c 0.27332,0 0.302891,0.003 0.334596,0.0384 0.04524,0.05 0.04437,0.13209 -0.0019,0.17604 -0.05327,0.0506 -0.689121,0.0735 -0.781384,0.0281 z m 1.531446,0.0126 c -0.0915,-0.0294 -0.187169,-0.0982 -0.227229,-0.16334 -0.131852,-0.21452 -0.154722,-0.86964 -0.04097,-1.17367 0.100693,-0.26912 0.383619,-0.38015 0.593261,-0.23281 0.176033,0.12372 0.227514,0.2706 0.241217,0.68821 0.01684,0.51339 -0.05264,0.74822 -0.252254,0.85252 -0.06664,0.0348 -0.244806,0.0513 -0.314024,0.0291 z m 0.223804,-0.28935 c 0.06583,-0.0754 0.08365,-0.18466 0.08365,-0.51289 0,-0.2604 -0.0068,-0.34182 -0.03526,-0.42346 -0.03904,-0.1119 -0.05831,-0.13402 -0.133058,-0.15278 -0.07825,-0.0196 -0.14717,0.0536 -0.183034,0.19446 -0.04064,0.15964 -0.04055,0.63105 1.57e-4,0.7681 0.01639,0.0552 0.04339,0.11392 0.06001,0.13054 0.04155,0.0416 0.169925,0.0391 0.207542,-0.004 z m 0.74366,0.2878 c -0.08742,-0.0352 -0.07918,-0.0898 0.120628,-0.79883 0.104757,-0.37177 0.202311,-0.70449 0.216786,-0.73939 0.05026,-0.12118 0.204133,-0.13349 0.258209,-0.0207 0.0277,0.0578 0.356293,1.40352 0.356293,1.45918 0,0.0575 -0.06672,0.10359 -0.139826,0.0966 -0.05736,-0.005 -0.06883,-0.0164 -0.09403,-0.0893 l -0.02871,-0.083 h -0.246625 -0.246625 l -0.02368,0.079 c -0.01628,0.0543 -0.03902,0.0849 -0.07275,0.0977 -0.02699,0.0103 -0.0507,0.0181 -0.05268,0.0174 -0.002,-6.8e-4 -0.02313,-0.009 -0.04699,-0.0187 z m 0.55638,-0.72253 c -0.04304,-0.17194 -0.08451,-0.31262 -0.09217,-0.31262 -0.0077,0 -0.05167,0.12969 -0.09782,0.28819 -0.04614,0.15851 -0.08809,0.29918 -0.0932,0.31262 -0.007,0.0185 0.03584,0.0244 0.176068,0.0244 h 0.185371 z m 0.786305,0.73015 c -0.07652,-0.0306 -0.07815,-0.0487 -0.07815,-0.86089 v -0.78757 l 0.210039,1.1e-4 c 0.115521,6e-5 0.245038,0.01 0.287816,0.0217 0.273538,0.0759 0.441382,0.36599 0.445287,0.76949 0.0029,0.29768 -0.06422,0.51749 -0.209954,0.68774 -0.106008,0.12385 -0.214644,0.16719 -0.438048,0.17477 -0.103223,0.004 -0.200867,0.001 -0.216986,-0.005 z m 0.458173,-0.34394 c 0.08727,-0.10114 0.13052,-0.23422 0.142293,-0.43781 0.01304,-0.22548 -0.03754,-0.41611 -0.138941,-0.52362 -0.06009,-0.0637 -0.07484,-0.0695 -0.17564,-0.0695 h -0.110039 v 0.55926 0.55927 l 0.111365,-0.009 c 0.09786,-0.008 0.118595,-0.0176 0.170962,-0.0783 z m 3.765108,0.0779 c -0.02491,-0.0249 -0.03101,-0.11227 -0.0079,-0.1126 0.0081,-1.2e-4 0.04982,-0.0332 0.09281,-0.0735 0.109546,-0.10269 0.42292,-0.38159 0.464038,-0.41299 0.02738,-0.0209 0.04003,-0.0213 0.0635,-0.002 0.05627,0.0467 0.02804,0.0946 -0.151259,0.25677 -0.09931,0.0898 -0.218716,0.19847 -0.265344,0.24146 -0.112571,0.10377 -0.166484,0.13202 -0.195885,0.10262 z m -10.878515,-0.68458 c -0.02281,-0.0131 -0.192058,-0.20342 -0.376116,-0.42303 -0.314223,-0.37493 -0.33465,-0.40421 -0.33465,-0.47968 0,-0.10176 0.02612,-0.12726 0.130394,-0.12726 0.09068,0 0.07475,-0.0163 0.571742,0.58472 0.05842,0.0706 0.111595,0.13283 0.118172,0.13821 0.04091,0.0334 0.098,0.14098 0.098,0.18463 0,0.0593 -0.07898,0.14785 -0.130997,0.14683 -0.01929,-3.8e-4 -0.05374,-0.0114 -0.07654,-0.0244 z m 10.050042,-0.006 c -0.04581,-0.0249 -0.05373,-0.0416 -0.05373,-0.11345 0,-0.0784 0.0138,-0.10062 0.196651,-0.31688 0.515458,-0.60963 0.499907,-0.59404 0.59264,-0.59404 0.0707,0 0.08718,0.008 0.106342,0.0498 0.05292,0.11615 0.05816,0.10759 -0.402344,0.65678 -0.300446,0.3583 -0.328096,0.37829 -0.439558,0.31783 z m -9.131119,-0.70689 c -0.04299,-0.0295 -0.418305,-0.64556 -0.418305,-0.68662 0,-0.0502 0.04269,-0.0716 0.09007,-0.045 0.01861,0.0104 0.0609,0.0638 0.09399,0.11855 0.03309,0.0548 0.120119,0.19652 0.193398,0.31494 0.08411,0.13594 0.130935,0.23142 0.127,0.259 -0.0065,0.0453 -0.04906,0.0646 -0.08616,0.0392 z m 8.267481,-0.0214 c -0.01115,-0.0351 0.0058,-0.0784 0.07008,-0.17881 0.0172,-0.0269 0.0908,-0.14556 0.16357,-0.26377 0.156594,-0.25438 0.179895,-0.2833 0.228207,-0.2833 0.05343,0 0.0653,0.0532 0.02764,0.12389 -0.06556,0.12307 -0.337565,0.55685 -0.378689,0.60392 -0.03904,0.0447 -0.09633,0.0437 -0.110804,-0.002 z m 2.179999,-0.0431 c -0.07708,-0.017 -0.149782,-0.0674 -0.206346,-0.14323 -0.0318,-0.0426 -0.04006,-0.082 -0.03922,-0.18699 0.0015,-0.18791 0.08094,-0.34445 0.260951,-0.51426 0.276468,-0.2608 0.564956,-0.2819 0.721206,-0.0527 0.04061,0.0596 0.04525,0.0847 0.03771,0.20469 -0.01123,0.17864 -0.07908,0.31222 -0.240579,0.47372 -0.174983,0.17499 -0.3699,0.25489 -0.533725,0.21881 z m 0.212523,-0.23406 c 0.17689,-0.0905 0.340568,-0.30347 0.363866,-0.47345 0.01524,-0.11117 -0.01083,-0.1511 -0.09865,-0.1511 -0.203131,0 -0.484833,0.28226 -0.52955,0.53059 -0.01042,0.0579 -0.0048,0.0795 0.02932,0.11362 0.04764,0.0476 0.114381,0.0421 0.235019,-0.0197 z m -12.678024,-0.0808 c -0.153703,-0.059 -0.345869,-0.25546 -0.442741,-0.45255 -0.159539,-0.3246 -0.09528,-0.57969 0.146025,-0.57969 0.283029,0 0.653818,0.41902 0.678788,0.76709 0.01051,0.14653 -0.03385,0.23501 -0.140079,0.27939 -0.08671,0.0362 -0.114907,0.0346 -0.241993,-0.0142 z m 0.193102,-0.16297 c 0.03602,-0.0434 0.01273,-0.17015 -0.05744,-0.31269 -0.106758,-0.21686 -0.376653,-0.42881 -0.471439,-0.37023 -0.03875,0.0239 -0.0078,0.21184 0.05346,0.32482 0.07477,0.13783 0.223313,0.2967 0.324013,0.34655 0.0987,0.0489 0.119154,0.0504 0.151406,0.0115 z m 11.802267,0.0888 c -0.01352,-0.008 -0.02141,-0.0316 -0.01754,-0.0517 0.0083,-0.0433 0.07356,-0.0611 0.09524,-0.026 0.03117,0.0504 -0.02727,0.10887 -0.0777,0.0777 z m -9.023239,-0.0642 c -0.01753,-0.0218 -0.06565,-0.12317 -0.155399,-0.32727 -0.01654,-0.0376 -0.05974,-0.13202 -0.09601,-0.2098 -0.06665,-0.14296 -0.08226,-0.22718 -0.04622,-0.24946 0.03696,-0.0228 0.08772,0.009 0.115534,0.0731 0.01527,0.035 0.05167,0.11649 0.08089,0.18096 0.237809,0.52473 0.228454,0.49775 0.183903,0.53032 -0.04483,0.0328 -0.05782,0.0331 -0.0827,0.002 z m 6.368725,9.8e-4 c -0.03861,-0.0386 -0.03749,-0.0426 0.09878,-0.34778 0.02159,-0.0484 0.06446,-0.14508 0.09526,-0.21493 0.0879,-0.19934 0.103988,-0.22469 0.142597,-0.22469 0.01991,0 0.04535,0.0145 0.05653,0.0322 0.02056,0.0326 0.02023,0.0335 -0.138334,0.38785 -0.182343,0.40748 -0.195585,0.42656 -0.254831,0.36732 z m 2.430027,-0.0854 c -0.01689,-0.0169 -0.0307,-0.0456 -0.0307,-0.0639 0,-0.0381 0.702587,-0.85085 0.751823,-0.86974 0.0565,-0.0217 0.11086,0.0225 0.104126,0.0846 -0.0078,0.0717 -0.704552,0.87965 -0.758579,0.87965 -0.01978,0 -0.04978,-0.0138 -0.06667,-0.0307 z m -7.795291,-0.3161 c -0.0057,-0.0188 -0.02324,-0.0825 -0.03887,-0.14166 -0.01563,-0.0591 -0.05548,-0.1973 -0.08856,-0.30711 -0.06753,-0.22417 -0.07659,-0.33257 -0.02932,-0.35071 0.04912,-0.0189 0.07623,0.0293 0.133924,0.23775 0.02974,0.10746 0.06132,0.21296 0.07019,0.23446 0.0089,0.0215 0.02053,0.0611 0.02593,0.0879 0.0054,0.0269 0.02026,0.086 0.03304,0.13143 0.01278,0.0454 0.0181,0.096 0.01181,0.11235 -0.01592,0.0415 -0.105142,0.0381 -0.118155,-0.004 z m 4.31321,0.005 c -0.0063,-0.0163 -0.0025,-0.0537 0.0084,-0.083 0.01087,-0.0294 0.03455,-0.10614 0.05263,-0.17061 0.01808,-0.0645 0.03995,-0.13922 0.04859,-0.16608 0.0086,-0.0269 0.02643,-0.0884 0.03954,-0.13677 0.04435,-0.16366 0.08154,-0.254 0.104438,-0.2537 0.05381,7e-4 0.07633,0.035 0.06568,0.10003 -0.0175,0.10679 -0.03495,0.18041 -0.05264,0.22205 -0.0091,0.0215 -0.02071,0.0611 -0.02573,0.0879 -0.01098,0.0587 -0.0884,0.32412 -0.112547,0.38589 -0.02007,0.0513 -0.110261,0.0614 -0.128328,0.0143 z m -3.231107,-0.22459 c -0.01168,-0.0218 -0.02906,-0.10316 -0.03861,-0.18073 -0.0096,-0.0776 -0.0317,-0.24564 -0.04921,-0.37349 -0.02625,-0.19158 -0.02731,-0.23533 -0.006,-0.24882 0.07759,-0.0492 0.103203,-0.007 0.133519,0.2175 0.02602,0.19312 0.04581,0.33412 0.0695,0.49537 0.01051,0.0715 0.0073,0.0991 -0.01326,0.11205 -0.04343,0.0275 -0.0731,0.0207 -0.09591,-0.0219 z m 1.03663,-0.003 c -0.03818,-0.041 -0.03984,-0.0662 -0.03984,-0.60663 v -0.56386 l 0.0517,-0.0479 c 0.07987,-0.074 0.165044,-0.057 0.218648,0.0436 0.0157,0.0295 0.02273,0.20949 0.02273,0.58216 v 0.53948 l -0.04796,0.048 c -0.06101,0.061 -0.151153,0.0633 -0.205281,0.005 z m 1.154443,0.0251 c -0.02242,-0.0142 -0.02301,-0.0473 -0.0036,-0.19997 0.01281,-0.10062 0.03159,-0.24889 0.04174,-0.32949 0.03524,-0.27984 0.04257,-0.30284 0.09651,-0.30284 0.04685,0 0.04846,0.004 0.04691,0.127 -0.0015,0.11658 -0.01287,0.21497 -0.06542,0.56481 -0.02125,0.14148 -0.05333,0.18028 -0.116157,0.14049 z m -1.615603,-1.49487 c -0.03292,-0.0143 -0.09179,-0.0634 -0.130824,-0.10897 -0.269332,-0.31466 -0.147411,-0.9729 0.199449,-1.07682 0.163199,-0.0489 0.327119,0.0471 0.412567,0.24152 0.0604,0.13744 0.07559,0.43024 0.03039,0.58573 -0.08407,0.28919 -0.308941,0.44679 -0.51158,0.35854 z m 0.194767,-0.19708 c 0.178708,-0.16562 0.178022,-0.68746 -0.0011,-0.8048 -0.04154,-0.0272 -0.05056,-0.0271 -0.09452,0.002 -0.145051,0.095 -0.208283,0.4715 -0.11621,0.69187 0.03361,0.0804 0.101265,0.16002 0.13605,0.16002 0.01268,0 0.04676,-0.022 0.07574,-0.0488 z m 0.550335,0.19398 c -0.036,-0.036 -0.03796,-0.056 -0.01048,-0.10735 0.0177,-0.0331 0.04222,-0.0378 0.196354,-0.0378 0.186881,0 0.273025,-0.0268 0.310379,-0.0966 0.03298,-0.0616 0.02388,-0.18749 -0.01721,-0.23824 -0.03288,-0.0406 -0.05881,-0.0474 -0.217536,-0.057 -0.165884,-0.01 -0.183885,-0.0151 -0.226444,-0.0646 -0.04282,-0.0498 -0.04623,-0.0703 -0.04623,-0.27824 0,-0.21229 0.0026,-0.22709 0.04796,-0.27245 0.04594,-0.0459 0.05852,-0.048 0.298939,-0.048 0.264493,0 0.297872,0.01 0.297872,0.0894 0,0.0701 -0.04123,0.0847 -0.255128,0.0906 l -0.204025,0.006 -0.0059,0.12383 c -0.0077,0.1632 0.0074,0.17902 0.171441,0.17902 0.104509,0 0.145049,0.009 0.19758,0.0445 0.215386,0.14515 0.205375,0.4998 -0.01811,0.64152 -0.08311,0.0527 -0.102029,0.0564 -0.288866,0.0564 -0.155706,0 -0.206725,-0.007 -0.230636,-0.0307 z m -0.19893,-0.0167 c -0.01778,-0.0463 0.0074,-0.0931 0.04605,-0.0857 0.02163,0.004 0.03425,0.0244 0.03425,0.0549 0,0.0557 -0.06167,0.0793 -0.0803,0.0307 z"
       id="path886"
       inkscape:connector-curvature="0" />
  </g>
</svg>
