<?xml version="1.0" encoding="UTF-8" standalone="no"?>
<!-- Created with Inkscape (http://www.inkscape.org/) -->

<svg
   xmlns:dc="http://purl.org/dc/elements/1.1/"
   xmlns:cc="http://creativecommons.org/ns#"
   xmlns:rdf="http://www.w3.org/1999/02/22-rdf-syntax-ns#"
   xmlns:svg="http://www.w3.org/2000/svg"
   xmlns="http://www.w3.org/2000/svg"
   xmlns:sodipodi="http://sodipodi.sourceforge.net/DTD/sodipodi-0.dtd"
   xmlns:inkscape="http://www.inkscape.org/namespaces/inkscape"
   width="49.342266mm"
   height="48.673443mm"
   viewBox="0 0 49.342266 48.673443"
   version="1.1"
   id="svg8"
   inkscape:version="0.92.3 (2405546, 2018-03-11)"
   sodipodi:docname="Waltham A-13A-gonio.svg">
  <defs
     id="defs2" />
  <sodipodi:namedview
     id="base"
     pagecolor="#ffffff"
     bordercolor="#666666"
     borderopacity="1.0"
     inkscape:pageopacity="0.0"
     inkscape:pageshadow="2"
     inkscape:zoom="1.979899"
     inkscape:cx="166.18664"
     inkscape:cy="-32.821481"
     inkscape:document-units="mm"
     inkscape:current-layer="layer1"
     showgrid="false"
     inkscape:window-width="2560"
     inkscape:window-height="1380"
     inkscape:window-x="3840"
     inkscape:window-y="0"
     inkscape:window-maximized="1" />
  <metadata
     id="metadata5">
    <rdf:RDF>
      <cc:Work
         rdf:about="">
        <dc:format>image/svg+xml</dc:format>
        <dc:type
           rdf:resource="http://purl.org/dc/dcmitype/StillImage" />
        <dc:title></dc:title>
      </cc:Work>
    </rdf:RDF>
  </metadata>
  <g
     inkscape:label="Livello 1"
     inkscape:groupmode="layer"
     id="layer1"
     transform="translate(-18.333579,-37.7033)">
    <path
       style="fill:#000000;stroke-width:0.04819734"
       d="m 42.118069,86.315365 c -0.20997,-0.0915 -0.45698,-0.39072 -0.45698,-0.5536 0,-0.15845 0.13117,-0.29498 0.28339,-0.29498 0.0615,0 0.17506,0.0742 0.26659,0.17409 0.18419,0.20105 0.34407,0.19426 0.39706,-0.0169 0.0254,-0.10132 0.005,-0.14695 -0.10833,-0.23647 -0.28277,-0.22432 -0.30852,-0.25913 -0.30683,-0.41477 9.4e-4,-0.0862 0.0327,-0.21086 0.0706,-0.27714 0.10322,-0.18055 0.0926,-0.19278 -0.16758,-0.19278 -0.20371,0 -0.25197,-0.0185 -0.32012,-0.12247 -0.0645,-0.0985 -0.0696,-0.14588 -0.0258,-0.24196 0.0741,-0.16271 0.2363,-0.21407 0.67328,-0.21323 0.42593,8.2e-4 0.58516,0.0637 0.64904,0.25623 0.0373,0.11251 0.0195,0.18564 -0.10173,0.41688 l -0.147,0.28044 0.10029,0.0892 c 0.13414,0.11927 0.27711,0.43962 0.27842,0.62382 0.002,0.24597 -0.19374,0.55445 -0.4308,0.67981 -0.23505,0.1243 -0.4376,0.13788 -0.65348,0.0438 z m 1.57727,-0.0109 c -0.47502,-0.24118 -0.61922,-1.30531 -0.26507,-1.95601 0.29975,-0.55074 0.81049,-0.54544 1.12267,0.0117 0.10819,0.19307 0.12049,0.26915 0.12049,0.74519 0,0.48199 -0.0122,0.55493 -0.13377,0.80257 -0.20333,0.41404 -0.51843,0.56206 -0.84432,0.3966 z m 0.35398,-0.71565 c 0.0867,-0.20757 0.0872,-0.72401 9.1e-4,-0.91729 l -0.0646,-0.1446 -0.0778,0.1792 c -0.11992,0.27608 -0.0875,1.04984 0.0439,1.04984 0.0153,0 0.0592,-0.0752 0.0976,-0.16715 z m 9.27676,-1.66313 c -0.0523,-0.0523 -0.10935,-0.15166 -0.12668,-0.22071 -0.0496,-0.19769 0.0187,-0.62121 0.15525,-0.96227 0.13855,-0.3461 0.12766,-0.52747 -0.0348,-0.57902 -0.1495,-0.0474 -0.21193,0.049 -0.21193,0.32748 0,0.21181 -0.0165,0.25663 -0.11251,0.30505 -0.26168,0.132 -0.45553,-0.0773 -0.45553,-0.49179 0,-0.28451 0.0774,-0.43587 0.31248,-0.61141 0.33127,-0.24733 0.87395,-0.0964 1.08443,0.30163 0.14295,0.27033 0.14013,0.49137 -0.0114,0.89397 -0.0673,0.17884 -0.11184,0.33572 -0.0989,0.34862 0.0129,0.0129 0.0976,-0.0224 0.18832,-0.0784 0.0907,-0.056 0.21859,-0.10189 0.28425,-0.10189 0.16167,0 0.2899,0.15171 0.27048,0.32 -0.0132,0.11438 -0.0839,0.17565 -0.44944,0.38922 -0.46734,0.27309 -0.64482,0.30876 -0.79403,0.15955 z m -10.98795,-0.43075 c -0.0536,-0.1001 -0.0718,-1.53122 -0.0212,-1.66311 0.0252,-0.0658 0.15406,-0.0762 0.94091,-0.0762 h 0.91166 l -0.0131,0.9037 -0.0131,0.9037 -0.87733,0.0131 c -0.82872,0.0124 -0.88012,0.008 -0.9278,-0.0812 z m -1.46902,-0.0593 c -0.18376,-0.0236 -0.34551,-0.0542 -0.35944,-0.0682 -0.0307,-0.0307 0.12961,-1.65365 0.1697,-1.71851 0.0392,-0.0635 0.8454,0.005 0.923,0.0787 0.0502,0.0475 0.0465,0.20697 -0.0194,0.85046 -0.0446,0.43561 -0.10219,0.81913 -0.12792,0.85226 -0.0518,0.0668 -0.10245,0.0672 -0.58597,0.005 z m 4.09991,-0.0276 c -0.0466,-0.1587 -0.1882,-1.65538 -0.15937,-1.68421 0.0526,-0.0526 0.90443,-0.12774 0.94632,-0.0835 0.0369,0.039 0.19494,1.33631 0.19476,1.59851 -9e-5,0.13869 -0.11067,0.18064 -0.58671,0.22259 -0.32971,0.0291 -0.37249,0.0233 -0.395,-0.0534 z m 9.70536,-0.2065 c -0.19434,-0.19434 -0.0919,-0.37986 0.352,-0.63743 0.25127,-0.14581 0.28607,-0.25755 0.12546,-0.40289 -0.0994,-0.09 -0.10436,-0.0894 -0.33741,0.0407 -0.3291,0.18374 -0.53623,0.17629 -0.68461,-0.0246 -0.19789,-0.26794 -0.41939,-0.69356 -0.41939,-0.80589 0,-0.14717 0.20722,-0.32739 0.63659,-0.55363 0.35772,-0.18849 0.3635,-0.18973 0.49199,-0.10554 0.10805,0.0708 0.12753,0.11477 0.11524,0.26022 -0.0132,0.1566 -0.0438,0.19196 -0.29033,0.3357 -0.25882,0.15091 -0.27232,0.16775 -0.2223,0.27753 l 0.0532,0.11687 0.18423,-0.094 c 0.58324,-0.29755 1.23893,0.21286 1.12672,0.87706 -0.0428,0.25307 -0.20454,0.43339 -0.57445,0.64025 -0.35469,0.19835 -0.42474,0.20786 -0.55699,0.0756 z m -7.46362,-0.0654 c -0.0649,-0.0803 -0.38123,-1.61005 -0.34506,-1.66858 0.0399,-0.0645 0.84208,-0.2399 0.90875,-0.1987 0.0721,0.0445 0.41003,1.646 0.35829,1.69775 -0.0232,0.0232 -0.23006,0.0832 -0.45978,0.13338 -0.30997,0.0677 -0.42916,0.0771 -0.4622,0.0361 z m -16.03259,-0.16508 c -0.31578,-0.16774 -0.33832,-0.19061 -0.35216,-0.35706 -0.0123,-0.14768 0.007,-0.19199 0.11262,-0.26132 0.12414,-0.0813 0.13538,-0.0795 0.43743,0.0694 0.36228,0.17865 0.40959,0.18408 0.52195,0.0599 0.11291,-0.12476 0.0611,-0.2669 -0.12538,-0.34415 -0.26013,-0.10775 -0.42577,-0.27934 -0.42577,-0.44107 0,-0.22265 0.37233,-0.88796 0.53454,-0.95514 0.16201,-0.0671 0.21628,-0.051 0.69919,0.20756 0.36083,0.1932 0.38166,0.2133 0.39567,0.38176 0.0123,0.14768 -0.007,0.19199 -0.11262,0.26132 -0.12422,0.0814 -0.13535,0.0796 -0.44378,-0.0725 -0.24836,-0.12247 -0.32502,-0.14239 -0.35657,-0.0926 -0.0721,0.11376 -0.0444,0.17276 0.12972,0.27547 0.37883,0.22351 0.45716,0.79845 0.15559,1.14192 -0.32328,0.3682 -0.64915,0.40342 -1.17043,0.12653 z m 7.49647,0.10558 c -0.17132,-0.038 -0.33072,-0.0884 -0.3542,-0.11187 -0.0482,-0.0482 0.26868,-1.62669 0.34106,-1.69906 0.041,-0.041 0.16981,-0.0206 0.81867,0.12929 0.14356,0.0332 0.13902,0.1199 -0.053,1.01126 l -0.15578,0.72296 -0.1426,0.008 c -0.0784,0.005 -0.28278,-0.0228 -0.45411,-0.0609 z m -2.11853,-0.577 c -0.19665,-0.0627 -0.37239,-0.13797 -0.39054,-0.16733 -0.0378,-0.0611 0.41631,-1.53438 0.50045,-1.62361 0.0435,-0.0461 0.13893,-0.0325 0.44075,0.063 0.21189,0.067 0.41229,0.1484 0.44533,0.1809 0.0888,0.0873 -0.44254,1.67272 -0.55828,1.66582 -0.0441,-0.003 -0.24106,-0.056 -0.43771,-0.11873 z m 12.80039,0.0874 c -0.012,-0.0199 -0.13271,-0.38226 -0.26821,-0.8053 -0.19596,-0.61178 -0.23398,-0.78064 -0.18583,-0.82533 0.0777,-0.0721 0.64865,-0.26111 0.78885,-0.26111 0.0953,0 0.13415,0.0811 0.35212,0.73505 0.13474,0.40428 0.24499,0.78206 0.24499,0.8395 0,0.0874 -0.0608,0.12469 -0.37369,0.22889 -0.3872,0.12895 -0.52087,0.15009 -0.55823,0.0883 z m -19.34865,-0.23406 c -0.20206,-0.10309 -0.32738,-0.2804 -0.39889,-0.56441 -0.0487,-0.19336 -0.0453,-0.24282 0.024,-0.34861 0.10773,-0.16442 0.20944,-0.19668 0.3577,-0.11346 0.0846,0.0475 0.13917,0.1363 0.17529,0.28519 0.0408,0.16813 0.0767,0.21975 0.16144,0.23199 0.24554,0.0355 0.32725,-0.22611 0.14686,-0.47011 -0.14055,-0.19011 -0.0895,-0.40645 0.12928,-0.54814 0.09,-0.0583 0.164,-0.12186 0.16433,-0.1412 3.4e-4,-0.0193 -0.0834,-0.078 -0.186,-0.13037 -0.20681,-0.1055 -0.26798,-0.24216 -0.18747,-0.41884 0.0937,-0.20561 0.24691,-0.19652 0.70416,0.0418 0.64221,0.33468 0.69175,0.54679 0.20237,0.86643 -0.16718,0.10918 -0.23305,0.18053 -0.21278,0.23044 0.0162,0.0398 0.04,0.1715 0.053,0.29274 0.0289,0.27059 -0.10469,0.56294 -0.33097,0.72407 -0.20117,0.14324 -0.58537,0.17317 -0.8023,0.0625 z m 21.49852,-0.49309 c -0.0655,-0.0407 -0.68778,-1.43945 -0.68778,-1.54589 0,-0.0938 0.81136,-0.46533 0.87568,-0.40102 0.0805,0.0805 0.70284,1.52865 0.68119,1.58506 -0.0123,0.0319 -0.0802,0.0791 -0.15096,0.10488 -0.0708,0.0257 -0.24974,0.10129 -0.39771,0.16787 -0.14796,0.0666 -0.29215,0.10667 -0.32042,0.0891 z m -17.05762,-0.1758 c -0.18932,-0.089 -0.35632,-0.18141 -0.37112,-0.20536 -0.0296,-0.0479 0.59141,-1.47407 0.68086,-1.56352 0.0778,-0.0778 0.87823,0.27685 0.87725,0.38865 -3.9e-4,0.043 -0.14714,0.40345 -0.32614,0.80107 -0.25173,0.5592 -0.3471,0.72501 -0.42104,0.73198 -0.0526,0.005 -0.25048,-0.0638 -0.43981,-0.15282 z m 6.84191,-1.07835 c -0.49175,-0.16992 -0.86845,-0.51736 -1.08288,-0.99876 -0.14959,-0.33584 -0.167,-0.99468 -0.0396,-1.50097 0.11823,-0.47005 0.44878,-1.14692 0.75973,-1.55572 0.30424,-0.39997 1.11127,-1.17991 1.32767,-1.28311 0.4754,-0.2267 0.94912,0.29387 0.67841,0.7455 -0.0422,0.0704 -0.17379,0.20384 -0.29248,0.29662 -0.11869,0.0928 -0.35986,0.32034 -0.53593,0.50568 l -0.32013,0.33699 0.26318,0.037 c 0.59022,0.0829 1.13267,0.48321 1.40581,1.03745 0.13009,0.26398 0.14906,0.35304 0.14906,0.69967 0,0.42613 -0.0856,0.69484 -0.33754,1.05973 -0.39402,0.57062 -1.29744,0.85417 -1.97524,0.61996 z m 0.82006,-1.03657 c 0.0865,-0.0362 0.21826,-0.13814 0.29272,-0.22663 0.1217,-0.14463 0.13334,-0.18914 0.11517,-0.44038 -0.0241,-0.33305 -0.1859,-0.53975 -0.48572,-0.62048 -0.24657,-0.0664 -0.43884,-0.0191 -0.63979,0.15732 -0.36933,0.32428 -0.29595,0.90492 0.13934,1.10256 0.24042,0.10916 0.36847,0.11527 0.57828,0.0276 z m -9.39023,0.83989 c -0.27768,-0.14235 -0.43038,-0.38937 -0.43013,-0.6958 2.4e-4,-0.29476 0.10454,-0.4929 0.34683,-0.65892 0.23097,-0.15826 0.66119,-0.16697 0.86297,-0.0175 0.47519,0.3521 0.47857,0.98618 0.007,1.33535 -0.1909,0.14138 -0.55004,0.1582 -0.7868,0.0368 z m 20.38508,0.0283 c -0.19978,-0.0907 -0.39671,-0.3356 -0.43533,-0.54146 -0.0694,-0.36991 0.0538,-0.66285 0.36986,-0.87975 0.13712,-0.0941 0.21015,-0.1095 0.44204,-0.0933 0.30957,0.0217 0.47465,0.11731 0.65428,0.3791 0.0941,0.13712 0.1095,0.21015 0.0933,0.44204 -0.0205,0.29361 -0.10971,0.45929 -0.3395,0.63086 -0.16156,0.12062 -0.58259,0.15415 -0.78462,0.0625 z m 1.8158,-1.38422 c -0.27155,-0.373 -0.48701,-0.70758 -0.47881,-0.7435 0.0168,-0.0735 0.65875,-0.55441 0.74002,-0.55441 0.0576,0 1.03411,1.31902 1.03411,1.39685 0,0.0524 -0.69094,0.57924 -0.75971,0.57924 -0.023,0 -0.26406,-0.30518 -0.53561,-0.67818 z m -24.33609,0.38263 c -0.19083,-0.1379 -0.34656,-0.27422 -0.34607,-0.30292 0.002,-0.10919 0.97004,-1.37759 1.05029,-1.37595 0.10935,0.002 0.73213,0.46552 0.73213,0.54462 0,0.096 -0.93336,1.35494 -1.01636,1.37092 -0.0402,0.008 -0.22917,-0.0988 -0.41999,-0.23667 z m 3.31128,-0.62529 c -0.10404,-0.11138 -0.13983,-0.19706 -0.13983,-0.33476 0,-0.11818 0.24387,-0.85011 0.67476,-2.02524 0.37112,-1.0121 0.67477,-1.8483 0.67477,-1.85822 0,-0.01 -0.38163,-0.0181 -0.84807,-0.0181 -0.95524,0 -1.06249,-0.0296 -1.20661,-0.33335 -0.0709,-0.14936 -0.0724,-0.19092 -0.0128,-0.35924 0.037,-0.10468 0.12863,-0.23568 0.20358,-0.29109 0.12994,-0.0961 0.19366,-0.10075 1.37362,-0.10039 1.37638,4.3e-4 1.45644,0.0163 1.65186,0.3273 0.16928,0.26943 0.11328,0.48325 -0.72208,2.75696 -0.87328,2.37696 -0.87804,2.38576 -1.28845,2.38576 -0.18496,0 -0.24364,-0.0243 -0.36072,-0.14969 z m -5.0301,-0.77159 c -0.17327,-0.16209 -0.31504,-0.32571 -0.31504,-0.36359 0,-0.0913 1.06493,-1.26959 1.14744,-1.26959 0.10872,0 0.68768,0.54668 0.6732,0.63567 -0.015,0.0924 -1.08002,1.29222 -1.14699,1.29222 -0.024,0 -0.18533,-0.13262 -0.35861,-0.29471 z m 27.74786,-0.31512 c -0.29822,-0.33414 -0.54222,-0.63504 -0.54222,-0.66865 0,-0.0572 0.63059,-0.64941 0.6915,-0.64941 0.0647,0 1.14,1.23083 1.14,1.30487 0,0.0921 -0.58303,0.62362 -0.68217,0.62188 -0.0357,-6.4e-4 -0.30889,-0.27454 -0.60711,-0.60869 z m -8.23678,0.37239 c -0.20141,-0.12281 -0.28685,-0.37257 -0.20857,-0.60974 0.10157,-0.30778 0.25163,-0.35734 1.08321,-0.35775 0.63181,-3.4e-4 0.74241,-0.0122 0.87726,-0.0944 0.42294,-0.25789 0.41575,-1.00813 -0.0114,-1.18659 -0.11139,-0.0465 -0.3537,-0.0686 -0.75591,-0.0687 -0.66545,-1.9e-4 -0.82274,-0.055 -1.0019,-0.34881 -0.0877,-0.14378 -0.0958,-0.24432 -0.0959,-1.18763 -1.5e-4,-0.96243 0.006,-1.04137 0.10087,-1.19406 0.18786,-0.30396 0.28748,-0.32807 1.42681,-0.3453 1.15596,-0.0175 1.29408,0.0118 1.43255,0.30359 0.0977,0.20578 0.096,0.33785 -0.006,0.51095 -0.14442,0.24448 -0.308,0.28535 -1.14204,0.28535 h -0.75182 v 0.45788 0.45787 l 0.46992,4e-5 c 0.41672,3e-5 0.50266,0.0156 0.75911,0.13733 0.34766,0.16504 0.65841,0.48747 0.83496,0.86633 0.10793,0.23159 0.12755,0.34004 0.12799,0.70731 4.8e-4,0.38765 -0.0157,0.46811 -0.15224,0.75673 -0.18378,0.38853 -0.50709,0.72553 -0.84863,0.88454 -0.23662,0.11017 -0.30183,0.117 -1.11882,0.11728 -0.77081,2.4e-4 -0.88446,-0.01 -1.01922,-0.0922 z m 9.80057,-1.8609 c -0.33654,-0.30582 -0.6117,-0.58235 -0.61147,-0.61452 2.4e-4,-0.0322 0.13863,-0.21031 0.30754,-0.39587 l 0.30713,-0.33738 0.11346,0.0964 c 0.35555,0.30207 1.13288,1.01587 1.16658,1.07123 0.0436,0.0716 -0.51014,0.73617 -0.61344,0.73617 -0.0318,0 -0.33326,-0.25021 -0.6698,-0.55603 z m -30.92375,0.18757 c -0.1614,-0.17614 -0.29345,-0.33572 -0.29345,-0.35462 0,-0.0593 1.24272,-1.15662 1.30983,-1.15659 0.0821,3e-5 0.61806,0.59773 0.61806,0.68927 0,0.0881 -1.17035,1.1422 -1.26816,1.1422 -0.04,0 -0.20488,-0.14412 -0.36628,-0.32026 z m 35.49307,-0.54466 c -0.23359,-0.0956 -0.41747,-0.46383 -0.50674,-1.01478 -0.0677,-0.4177 -0.10626,-0.48197 -0.28926,-0.48197 -0.18987,0 -0.21848,0.12493 -0.0725,0.31637 0.14256,0.18691 0.15384,0.31444 0.0371,0.41887 -0.18173,0.16249 -0.38142,0.11018 -0.55859,-0.14632 -0.18371,-0.26599 -0.20656,-0.51745 -0.0707,-0.77815 0.13774,-0.2643 0.35899,-0.38914 0.68965,-0.38914 0.44809,0 0.74553,0.31511 0.8189,0.86755 0.0529,0.39849 0.0803,0.41672 0.25468,0.16937 0.121,-0.17166 0.1825,-0.21757 0.29147,-0.21757 0.15062,0 0.29765,0.12798 0.29765,0.25908 0,0.1247 -0.4243,0.83501 -0.5648,0.94553 -0.1329,0.10454 -0.17885,0.11173 -0.32685,0.0512 z m -3.15002,-1.26433 c -0.38062,-0.27409 -0.68167,-0.52442 -0.68167,-0.56682 0,-0.0884 0.4306,-0.71195 0.51506,-0.74583 0.0714,-0.0286 1.38295,0.91632 1.40447,1.01189 0.0155,0.0688 -0.35054,0.62096 -0.48645,0.73376 -0.057,0.0473 -0.19454,-0.032 -0.75141,-0.433 z m -33.71652,0.11902 c -0.13011,-0.18004 -0.24581,-0.36266 -0.25712,-0.40583 -0.0146,-0.0556 0.1737,-0.22056 0.64624,-0.56614 0.36674,-0.26822 0.69907,-0.48207 0.73851,-0.47524 0.0394,0.007 0.18615,0.17224 0.32603,0.36757 0.20056,0.28009 0.24262,0.36926 0.19896,0.42186 -0.0831,0.10012 -1.25428,0.9438 -1.34089,0.96593 -0.0489,0.0125 -0.15795,-0.0953 -0.31173,-0.30815 z m -3.27563,-0.40325 c -0.0761,-0.0599 -0.16892,-0.18205 -0.20624,-0.27136 -0.14941,-0.3576 0.16574,-0.8324 0.76419,-1.15132 0.32568,-0.17355 0.38065,-0.18739 0.74592,-0.18784 0.36847,-4.3e-4 0.40379,0.009 0.53832,0.13734 0.29186,0.27937 0.23677,0.63974 -0.15635,1.02279 -0.36006,0.35083 -0.73387,0.52188 -1.18598,0.54271 -0.31701,0.0146 -0.37851,0.003 -0.49986,-0.0923 z m 0.86449,-0.56948 c 0.20723,-0.0941 0.55112,-0.3712 0.55112,-0.44405 0,-0.0742 -0.25578,-0.0453 -0.47343,0.0535 -0.27037,0.1227 -0.47812,0.27209 -0.54051,0.38866 -0.0445,0.0832 -0.0331,0.0929 0.10854,0.092 0.0871,-5.8e-4 0.24651,-0.0411 0.35428,-0.0901 z m 39.58578,0.46222 c -0.33556,-0.14126 -0.50067,-0.25756 -0.75054,-0.52863 -0.34678,-0.37622 -0.3901,-0.78177 -0.10877,-1.01849 0.20352,-0.17125 0.43265,-0.20218 0.7808,-0.10538 0.38415,0.1068 0.65137,0.2686 0.92271,0.55869 0.25328,0.27076 0.31772,0.40806 0.31772,0.67688 0,0.13986 -0.0359,0.22906 -0.13824,0.34361 -0.12391,0.13868 -0.17012,0.15639 -0.44582,0.17091 -0.24058,0.0127 -0.36648,-0.009 -0.57786,-0.0976 z m 0.53763,-0.55964 c -0.0863,-0.16127 -0.43971,-0.43022 -0.66715,-0.50771 -0.26937,-0.0918 -0.29908,-0.0926 -0.29908,-0.008 0,0.17091 0.64677,0.60453 0.9054,0.60702 0.0936,9e-4 0.10274,-0.0128 0.0608,-0.0911 z m -35.72951,-0.26274 c -0.35446,-0.14927 -0.57682,-0.31973 -0.78493,-0.60171 -0.43694,-0.59205 -0.41175,-1.4781 0.0576,-2.02645 l 0.17465,-0.20404 -0.13889,-0.27411 c -0.12422,-0.24516 -0.13884,-0.32245 -0.13843,-0.73198 3.3e-4,-0.35377 0.0209,-0.49623 0.0904,-0.62656 0.18032,-0.33839 0.41373,-0.57157 0.72599,-0.7253 0.26598,-0.13094 0.35891,-0.15153 0.67835,-0.15027 0.44056,0.002 0.76746,0.13718 1.07624,0.44596 0.31918,0.31918 0.41685,0.57276 0.41685,1.08228 0,0.38014 -0.0167,0.46805 -0.13104,0.68837 l -0.13104,0.25257 0.17451,0.22739 c 0.28165,0.36698 0.37111,0.612 0.37338,1.02264 0.003,0.50394 -0.1105,0.80285 -0.43851,1.15714 -0.38272,0.41338 -0.68229,0.54721 -1.26751,0.56624 -0.39876,0.013 -0.49624,-5.4e-4 -0.73757,-0.10217 z m 0.95974,-1.12164 c 0.33854,-0.16064 0.40697,-0.55323 0.14253,-0.81767 -0.1414,-0.1414 -0.19593,-0.16385 -0.39763,-0.16369 -0.31619,2.4e-4 -0.52491,0.13164 -0.59832,0.37667 -0.071,0.23701 0.003,0.41423 0.23915,0.57324 0.19329,0.13013 0.38559,0.13997 0.61427,0.0315 z m 0.0209,-2.37556 c 0.30413,-0.30413 0.11156,-0.77486 -0.31699,-0.77486 -0.15587,0 -0.23359,0.0299 -0.33081,0.12706 -0.28244,0.28245 -0.0701,0.78868 0.33081,0.78868 0.13038,0 0.21269,-0.0366 0.31699,-0.14088 z m -7.011,3.18331 c -0.1113,-0.123 -0.0959,-0.28626 0.0383,-0.40576 l 0.11597,-0.10329 -0.11563,-0.22819 c -0.1202,-0.23719 -0.10956,-0.38748 0.036,-0.50827 0.0751,-0.0623 1.41724,-0.35099 1.63201,-0.35099 0.0993,0 0.16597,0.0375 0.22396,0.12604 0.0739,0.11284 0.0752,0.13936 0.0117,0.25304 -0.0668,0.11968 -0.21669,0.18857 -0.58318,0.26796 -0.12285,0.0266 -0.12618,0.0346 -0.064,0.15443 0.0879,0.16944 0.0322,0.30475 -0.1842,0.44768 -0.097,0.0641 -0.17644,0.15361 -0.17644,0.19894 0,0.1466 -0.14132,0.20868 -0.50467,0.22169 -0.28707,0.0103 -0.36638,-0.003 -0.42976,-0.0733 z m 3.38872,-0.16378 c -0.0894,-0.0603 -0.21386,-0.18499 -0.27648,-0.27714 -0.0952,-0.14009 -0.11067,-0.21305 -0.0944,-0.44532 0.0238,-0.34079 0.13133,-0.50163 0.43799,-0.65541 0.30766,-0.15427 0.59289,-0.11491 0.8499,0.11728 0.31895,0.28815 0.36212,0.75955 0.10008,1.09269 -0.22257,0.28295 -0.72361,0.36566 -1.01707,0.1679 z m 35.28045,0 c -0.28187,-0.18995 -0.39321,-0.40357 -0.37159,-0.71292 0.0236,-0.33756 0.16937,-0.55347 0.4607,-0.68234 0.74505,-0.32957 1.43491,0.58287 0.92795,1.22736 -0.22257,0.28295 -0.7236,0.36566 -1.01706,0.1679 z m -4.65266,-0.27503 c -0.20704,-0.0837 -0.30789,-0.28109 -0.30789,-0.60278 v -0.29964 l -0.39763,-0.0309 c -0.21869,-0.017 -0.50272,-0.0311 -0.63117,-0.0312 -0.36447,-4.5e-4 -0.65811,-0.27033 -0.65811,-0.60486 0,-0.0701 0.25258,-0.90063 0.56129,-1.84573 0.49067,-1.50218 0.58102,-1.73808 0.71814,-1.8752 0.12721,-0.12721 0.19511,-0.15685 0.35928,-0.15685 0.26851,0 0.53065,0.24229 0.52927,0.4892 -4.9e-4,0.0888 -0.20411,0.78501 -0.45248,1.54713 l -0.45157,1.38568 h 0.20494 0.20494 l 0.0307,-0.22362 c 0.0169,-0.12299 0.0306,-0.34204 0.0306,-0.48679 0,-0.23504 0.0175,-0.2807 0.16387,-0.42705 0.13434,-0.13434 0.20035,-0.16387 0.3663,-0.16387 0.16595,0 0.23196,0.0295 0.3663,0.16387 l 0.16387,0.16387 v 0.48556 0.48555 l 0.14166,0.0733 c 0.20043,0.10365 0.29211,0.25672 0.29211,0.48771 0,0.22046 -0.13258,0.43315 -0.3127,0.50163 -0.0922,0.0351 -0.11095,0.0867 -0.13355,0.36831 -0.024,0.29918 -0.0412,0.34123 -0.19899,0.48579 -0.1784,0.16349 -0.36999,0.19959 -0.58918,0.11103 z m 5.93596,-1.73163 c -0.39637,-0.18042 -0.72849,-0.3515 -0.73805,-0.38018 -0.0208,-0.0624 0.26244,-0.72994 0.34804,-0.82028 0.0492,-0.052 0.20042,-9.3e-4 0.8384,0.28301 0.44502,0.19806 0.77834,0.37401 0.77834,0.41087 0,0.0355 -0.0744,0.23343 -0.16523,0.43994 -0.11236,0.25533 -0.19334,0.37856 -0.25304,0.38508 -0.0483,0.005 -0.4121,-0.13802 -0.80846,-0.31844 z m -38.1766,-0.12632 c -0.11134,-0.24986 -0.16576,-0.42831 -0.13878,-0.45501 0.0715,-0.0708 1.44327,-0.67623 1.53217,-0.67623 0.0835,0 0.41602,0.65249 0.41602,0.81625 0,0.0585 -0.20549,0.17159 -0.73501,0.40434 -0.40425,0.17769 -0.77016,0.32277 -0.81312,0.3224 -0.0513,-4.3e-4 -0.1409,-0.14157 -0.26128,-0.41175 z m 39.01775,-1.85435 c -0.38437,-0.12876 -0.72883,-0.25265 -0.76547,-0.2753 -0.055,-0.034 -0.0423,-0.11574 0.0722,-0.46732 0.0763,-0.23438 0.16397,-0.43581 0.19476,-0.44762 0.093,-0.0357 1.60989,0.46682 1.63914,0.54304 0.0147,0.0384 -0.0353,0.24856 -0.11108,0.46702 -0.10742,0.30951 -0.15914,0.3991 -0.23425,0.40575 -0.053,0.005 -0.41088,-0.0968 -0.79526,-0.22557 z m -39.69165,0.13269 c -0.20473,-0.55492 -0.26045,-0.78295 -0.20417,-0.83549 0.10157,-0.0948 1.58327,-0.56514 1.63075,-0.51765 0.0569,0.0568 0.28557,0.73074 0.28557,0.84139 0,0.0686 -0.15426,0.13492 -0.76464,0.32894 -0.81366,0.25863 -0.9125,0.27771 -0.94751,0.18281 z m 40.34232,-2.19173 c -0.42414,-0.0908 -0.79824,-0.19131 -0.83133,-0.22338 -0.0481,-0.0466 -0.044,-0.13561 0.0199,-0.44223 0.044,-0.21116 0.10534,-0.41195 0.1362,-0.44619 0.0455,-0.0505 0.20317,-0.0306 0.8359,0.1058 0.42889,0.0924 0.80135,0.18137 0.82768,0.19764 0.0658,0.0406 0.0606,0.13127 -0.0322,0.56283 -0.044,0.20485 -0.10367,0.38103 -0.13255,0.39153 -0.0289,0.0105 -0.39953,-0.0552 -0.82366,-0.146 z m -40.9295,0.071 c -0.0709,-0.0931 -0.21926,-0.86277 -0.17442,-0.90474 0.061,-0.0571 1.63887,-0.37574 1.69331,-0.34196 0.0705,0.0438 0.22505,0.86948 0.17252,0.922 -0.0321,0.0321 -1.52617,0.38495 -1.63013,0.38495 -0.008,0 -0.0361,-0.0271 -0.0613,-0.0602 z m 41.19458,-2.20654 c -0.41088,-0.0473 -0.75528,-0.088 -0.76533,-0.0905 -0.0233,-0.006 0.0393,-0.7719 0.0723,-0.88403 0.018,-0.0614 0.0752,-0.0843 0.20974,-0.0843 0.30772,0 1.51517,0.14502 1.55718,0.18702 0.038,0.038 -0.0415,0.84985 -0.0911,0.93003 -0.0305,0.0494 -0.0669,0.0473 -0.98279,-0.0582 z m -41.61259,-0.0346 c -0.0508,-0.17289 -0.0879,-0.86785 -0.0476,-0.89258 0.0879,-0.054 1.66192,-0.19358 1.704,-0.15111 0.0238,0.024 0.0661,0.2272 0.0942,0.45161 0.0397,0.31765 0.0376,0.42055 -0.009,0.46465 -0.0331,0.0312 -0.39638,0.0917 -0.80726,0.13455 -0.91898,0.0958 -0.90375,0.0959 -0.93405,-0.007 z m 3.00177,-0.0653 c -0.10253,-0.10976 -0.13938,-0.19654 -0.13813,-0.32533 0.002,-0.2412 0.069,-0.34276 0.43764,-0.66681 0.34484,-0.30313 0.62371,-0.60527 0.709,-0.76816 0.051,-0.0974 0.041,-0.10369 -0.19788,-0.12422 -0.54035,-0.0464 -1.11274,-0.47917 -1.37556,-1.03991 -0.11013,-0.23496 -0.12917,-0.33955 -0.12914,-0.70937 2e-5,-0.36788 0.0193,-0.47492 0.12701,-0.70464 0.24909,-0.53137 0.68521,-0.86513 1.24635,-0.95384 0.32065,-0.0507 0.79696,0.0409 1.0781,0.20734 0.43155,0.25547 0.78382,0.74789 0.89731,1.2543 0.13047,0.58217 -0.28482,1.9757 -0.82103,2.75506 -0.16859,0.24504 -0.81637,0.90001 -1.07704,1.08899 -0.2713,0.1967 -0.56523,0.19149 -0.75663,-0.0134 z m 1.28237,-3.01065 c 0.24617,-0.11681 0.31753,-0.22393 0.32325,-0.48523 0.01,-0.4448 -0.2639,-0.73986 -0.68644,-0.7402 -0.26073,-2e-4 -0.41787,0.0978 -0.50984,0.31785 -0.14702,0.35188 -0.0388,0.72701 0.25439,0.8817 0.22447,0.11843 0.40747,0.12609 0.61864,0.0259 z m 31.6142,3.01878 c -0.29014,-0.0695 -0.61439,-0.27078 -0.84832,-0.52674 -0.45237,-0.49497 -0.54721,-0.8787 -0.28621,-1.1581 0.13141,-0.14067 0.23301,-0.1739 0.46264,-0.15131 0.16091,0.0158 0.29834,0.13146 0.47808,0.40225 0.18689,0.28157 0.3278,0.37053 0.58692,0.37053 0.37638,0 0.59781,-0.24641 0.59781,-0.66524 0,-0.32528 -0.14262,-0.52166 -0.53194,-0.73248 -0.2496,-0.13517 -0.33361,-0.2118 -0.42269,-0.38558 -0.14856,-0.28983 -0.11719,-0.46352 0.18371,-1.0173 0.13241,-0.2437 0.24075,-0.46263 0.24075,-0.48652 0,-0.0241 -0.26892,-0.0384 -0.60322,-0.0321 -0.69473,0.013 -0.81409,-0.0348 -0.93412,-0.37414 -0.0599,-0.16932 -0.0581,-0.20968 0.0158,-0.36544 0.14162,-0.29844 0.26455,-0.32715 1.40107,-0.32715 1.17656,0 1.27877,0.0269 1.43355,0.37676 0.13188,0.29815 0.0988,0.42795 -0.2917,1.14506 l -0.33602,0.61701 0.17857,0.12935 c 0.39173,0.28376 0.70488,0.83541 0.75693,1.3334 0.0577,0.55214 -0.24804,1.21891 -0.71356,1.55613 -0.36505,0.26444 -0.95564,0.39034 -1.36802,0.29162 z m 7.29909,-1.35823 c -0.0997,-0.0996 -0.10129,-0.12569 -0.069,-1.09649 0.0182,-0.54693 0.0428,-1.02908 0.0548,-1.07145 0.063,-0.22328 0.47448,-0.19349 0.53272,0.0386 0.0157,0.0625 0.0201,0.54515 0.01,1.07247 -0.0168,0.85474 -0.0287,0.96961 -0.10946,1.05885 -0.1163,0.12852 -0.28904,0.1277 -0.41871,-0.002 z m 1.09759,0.0139 c -0.10535,-0.11641 -0.10138,-0.31115 0.008,-0.41047 0.0648,-0.0587 0.17987,-0.0798 0.43481,-0.0798 0.3258,0 0.35008,-0.007 0.40327,-0.12423 0.0935,-0.20516 0.004,-0.2817 -0.35993,-0.30954 -0.48121,-0.0368 -0.51809,-0.0882 -0.51809,-0.72296 0,-0.67095 0.0194,-0.6921 0.65692,-0.71561 0.35299,-0.013 0.47995,1.5e-4 0.56975,0.059 0.15816,0.10364 0.19593,0.25001 0.10164,0.39392 -0.0699,0.1067 -0.10996,0.11813 -0.41368,0.11813 h -0.33626 v 0.1446 c 0,0.13563 0.0115,0.14459 0.18566,0.14459 0.35499,0 0.68196,0.32306 0.71587,0.70732 0.0257,0.29098 -0.12812,0.61598 -0.36644,0.77436 -0.13857,0.0921 -0.22828,0.10883 -0.58295,0.10883 -0.34488,0 -0.43332,-0.0156 -0.49894,-0.0881 z m -47.08441,-0.0926 c -0.0415,-0.0464 -0.0828,-0.13857 -0.0918,-0.20484 -0.0149,-0.10943 -0.0423,-0.1228 -0.29815,-0.14554 -0.28605,-0.0254 -0.41715,-0.11462 -0.41715,-0.28381 0,-0.0405 0.11386,-0.41871 0.25303,-0.8406 0.18467,-0.55981 0.2817,-0.78597 0.35912,-0.837 0.13176,-0.0868 0.28141,-0.0442 0.38161,0.10872 0.0756,0.11541 0.0589,0.2156 -0.11429,0.68485 -0.0146,0.0396 0.0265,0.0603 0.12005,0.0603 0.19159,0 0.30181,0.13388 0.30181,0.36661 0,0.13069 0.0302,0.2162 0.0964,0.27287 0.053,0.0454 0.0964,0.13718 0.0964,0.20397 0,0.0668 -0.0434,0.15858 -0.0964,0.20398 -0.053,0.0454 -0.0964,0.13193 -0.0964,0.19231 0,0.24616 -0.33648,0.39474 -0.49421,0.21823 z m 0.81882,4.8e-4 c -0.1088,-0.12023 -0.10669,-0.31409 0.005,-0.41473 0.0648,-0.0587 0.17987,-0.0798 0.43481,-0.0798 0.3258,0 0.35008,-0.007 0.40328,-0.12424 0.0938,-0.20586 0.005,-0.28173 -0.36362,-0.30954 -0.48223,-0.0364 -0.53851,-0.11197 -0.53851,-0.72296 0,-0.43439 0.0103,-0.48958 0.10971,-0.58908 0.0958,-0.0958 0.16794,-0.11191 0.56761,-0.12652 0.35632,-0.013 0.48354,4e-5 0.57345,0.059 0.15817,0.10363 0.19594,0.25001 0.10164,0.39391 -0.0699,0.1067 -0.10996,0.11814 -0.41367,0.11814 h -0.33627 v 0.14459 c 0,0.1335 0.0131,0.14459 0.17108,0.14459 0.70658,0 0.99671,0.99367 0.41891,1.4347 -0.15346,0.11714 -0.22107,0.13352 -0.61093,0.14803 -0.38331,0.0143 -0.44888,0.005 -0.522,-0.0761 z m 1.81792,-0.26609 c -0.0133,-0.0346 -0.0182,-0.45263 -0.011,-0.92889 l 0.0132,-0.86594 h 0.89165 0.89165 v 0.91575 0.91575 l -0.88069,0.0131 c -0.68981,0.0103 -0.88593,-5.1e-4 -0.90486,-0.0498 z m 41.16053,0 c -0.0133,-0.0346 -0.0182,-0.45263 -0.011,-0.92889 l 0.0132,-0.86594 h 0.89165 0.89165 v 0.91575 0.91575 l -0.8807,0.0131 c -0.6898,0.0103 -0.88593,-5.1e-4 -0.90485,-0.0498 z m -20.03579,-0.47326 c -0.11227,-0.0654 -0.22894,-0.298 -0.22894,-0.45644 0,-0.19586 0.28358,-0.45545 0.49755,-0.45545 0.20177,0 0.44048,0.17936 0.48737,0.36619 0.0434,0.17282 -0.0505,0.42982 -0.1904,0.52152 -0.1307,0.0856 -0.43756,0.0987 -0.56558,0.0242 z m 19.97089,-2.01142 c -0.0238,-0.0447 -0.0588,-0.26964 -0.0778,-0.49983 l -0.0346,-0.41852 0.16207,-0.0261 c 0.45887,-0.074 1.56285,-0.16519 1.5962,-0.13184 0.0583,0.0583 0.14131,0.88479 0.0937,0.93242 -0.0228,0.0228 -0.34339,0.0731 -0.71236,0.11178 -0.36897,0.0387 -0.74131,0.08 -0.82742,0.0919 -0.11321,0.0156 -0.16854,-9.4e-4 -0.19976,-0.0597 z m -40.24992,-0.0587 c -0.41089,-0.0473 -0.75529,-0.088 -0.76534,-0.0905 -0.0233,-0.006 0.0393,-0.7719 0.0723,-0.88403 0.018,-0.0614 0.0752,-0.0843 0.20974,-0.0843 0.30772,0 1.51517,0.14502 1.55718,0.18702 0.038,0.038 -0.0415,0.84985 -0.0911,0.93002 -0.0305,0.0494 -0.0669,0.0473 -0.98279,-0.0582 z m 39.97597,-1.9806 c -0.0184,-0.0298 -0.0729,-0.23044 -0.12109,-0.44582 -0.0681,-0.30451 -0.0747,-0.40389 -0.0296,-0.44679 0.0604,-0.0575 1.40037,-0.3545 1.59917,-0.3545 0.098,0 0.12124,0.0349 0.16873,0.25304 0.0742,0.34071 0.11734,0.71091 0.0829,0.71091 -0.0154,0 -0.37755,0.0759 -0.80474,0.16869 -0.88012,0.19114 -0.85034,0.18734 -0.89537,0.11447 z m -39.64854,-0.15563 c -0.38985,-0.0837 -0.73008,-0.17381 -0.75608,-0.20014 -0.0309,-0.0313 -0.0234,-0.16464 0.0218,-0.38527 0.11128,-0.54356 0.11521,-0.55428 0.20292,-0.55422 0.1238,1e-4 1.60461,0.32423 1.63921,0.35883 0.0348,0.0348 -0.0613,0.63081 -0.13151,0.8155 -0.0603,0.15866 -0.0794,0.15798 -0.97635,-0.0347 z m 3.9291,-0.91916 c -0.32058,-0.14336 -0.31874,-0.12626 -0.28158,-2.6262 0.0184,-1.23495 0.0538,-2.32561 0.0788,-2.42368 0.0593,-0.23279 0.25931,-0.37595 0.5252,-0.37595 0.16722,0 0.2317,0.0295 0.37258,0.17036 l 0.17037,0.17036 -0.0354,2.32385 c -0.0266,1.7442 -0.0513,2.36199 -0.0989,2.47674 -0.11497,0.27707 -0.4533,0.40873 -0.73109,0.28452 z m 3.50029,0.005 c -0.55986,-0.15636 -0.97902,-0.73954 -1.17804,-1.639 -0.10624,-0.48016 -0.079,-1.72549 0.0476,-2.17721 0.19095,-0.6812 0.6471,-1.33685 1.06086,-1.52482 0.45065,-0.20473 1.06266,-0.0463 1.39276,0.3606 0.61795,0.76168 0.82544,2.23924 0.48352,3.44321 -0.31806,1.11997 -1.05515,1.74711 -1.80672,1.53722 z m 0.42288,-1.15331 c 0.5624,-0.61383 0.60766,-2.52256 0.0743,-3.13128 -0.11001,-0.12555 -0.22487,-0.0349 -0.39514,0.31184 -0.3506,0.71398 -0.39161,1.83566 -0.0926,2.53325 0.0953,0.22233 0.21834,0.39463 0.28181,0.39463 0.0178,0 0.077,-0.0488 0.13168,-0.10844 z m 23.59405,1.07963 c -0.20407,-0.0588 -0.44025,-0.2908 -0.49212,-0.48342 -0.0612,-0.22729 -0.0245,-0.43719 0.1317,-0.75285 0.29192,-0.58998 0.64196,-0.97005 1.50545,-1.63461 0.43219,-0.33262 0.57785,-0.54623 0.57794,-0.84756 10e-5,-0.37069 -0.27227,-0.67476 -0.60447,-0.67476 -0.19557,0 -0.42708,0.26333 -0.5237,0.59571 -0.0486,0.16731 -0.13452,0.33045 -0.21164,0.40205 -0.11169,0.1037 -0.16298,0.11732 -0.36791,0.0977 -0.19049,-0.0182 -0.2652,-0.0531 -0.37353,-0.17431 -0.1622,-0.18154 -0.16959,-0.31836 -0.0399,-0.73837 0.11924,-0.38605 0.41273,-0.80205 0.70016,-0.99244 0.80288,-0.5318 1.91681,-0.17599 2.35051,0.7508 0.12691,0.2712 0.14826,0.37154 0.14522,0.68241 -0.007,0.69575 -0.28829,1.21431 -0.91732,1.68989 -0.2279,0.17231 -0.56792,0.46383 -0.75562,0.64783 l -0.34125,0.33455 0.14459,0.0333 c 0.0795,0.0183 0.42279,0.0359 0.76281,0.039 0.61582,0.006 0.61878,0.006 0.75911,0.14658 0.11526,0.11526 0.14089,0.1816 0.14089,0.36465 0,0.5166 -0.10278,0.55608 -1.43148,0.55001 -0.57788,-0.003 -1.09964,-0.0189 -1.15948,-0.0362 z m 7.56503,-1.2543 c -0.0789,-0.23524 -0.12963,-0.44983 -0.11275,-0.47687 0.0169,-0.027 0.38517,-0.16252 0.81843,-0.30106 0.66258,-0.21188 0.79754,-0.2414 0.84949,-0.18584 0.0618,0.0661 0.26657,0.69735 0.26657,0.82172 0,0.0637 -1.42109,0.56975 -1.59985,0.56975 -0.0558,0 -0.11987,-0.12351 -0.22189,-0.4277 z m -38.53148,0.1307 c -0.63015,-0.2138 -0.71091,-0.25337 -0.71091,-0.34832 0,-0.13872 0.18864,-0.71072 0.25968,-0.7874 0.0428,-0.0462 0.22641,-0.005 0.84283,0.19097 0.44806,0.14218 0.79945,0.27975 0.81446,0.31887 0.0145,0.0378 -0.0327,0.25013 -0.10482,0.47174 -0.16067,0.49338 -0.11867,0.48751 -1.10124,0.15414 z m 37.79587,-2.04685 c -0.13847,-0.30114 -0.17736,-0.43272 -0.14089,-0.47666 0.0554,-0.0668 1.44615,-0.69789 1.53794,-0.69789 0.0745,0 0.39815,0.71012 0.37943,0.8326 -0.0108,0.0706 -0.20052,0.17704 -0.7591,0.42599 -0.40959,0.18256 -0.76302,0.33192 -0.78541,0.33192 -0.0224,0 -0.12677,-0.18718 -0.23197,-0.41596 z m -36.96376,0.0526 c -0.38399,-0.17237 -0.72443,-0.34006 -0.75653,-0.37263 -0.0458,-0.0465 -0.0218,-0.14235 0.11143,-0.4448 0.0934,-0.21207 0.18869,-0.40505 0.21177,-0.42884 0.0426,-0.0439 1.45979,0.55543 1.5803,0.66824 0.0517,0.0484 0.0282,0.13503 -0.12943,0.47622 -0.10596,0.22936 -0.22117,0.41661 -0.25602,0.41611 -0.0349,-5e-4 -0.37754,-0.14193 -0.76152,-0.3143 z m -1.05004,-1.14519 c -0.18445,-0.0832 -0.19034,-0.2615 -0.0189,-0.57103 0.17248,-0.31137 0.18433,-0.38788 0.0767,-0.49549 -0.13885,-0.13885 -0.24675,-0.0894 -0.40375,0.18499 -0.10568,0.1847 -0.19327,0.27611 -0.30037,0.31345 -0.13631,0.0475 -0.1872,0.0331 -0.51707,-0.14626 -0.20124,-0.10943 -0.40384,-0.23215 -0.45023,-0.27272 -0.1509,-0.13194 -0.10567,-0.38372 0.14478,-0.80587 0.20513,-0.34577 0.24525,-0.38716 0.38854,-0.40091 0.0879,-0.008 0.19091,0.0105 0.22894,0.0421 0.10427,0.0865 0.0805,0.3355 -0.0526,0.55165 -0.14246,0.23129 -0.14771,0.29466 -0.0297,0.35784 0.0743,0.0398 0.10917,0.0183 0.20484,-0.12652 0.22932,-0.34711 0.62849,-0.44174 1.01137,-0.23975 0.44781,0.23624 0.54848,0.70183 0.26238,1.21343 -0.22485,0.40205 -0.34177,0.48682 -0.54503,0.39514 z m 2.0238,-0.45126 c -0.4355,-0.21465 -0.53519,-0.87113 -0.18816,-1.23909 0.30591,-0.32436 0.80407,-0.32924 1.12231,-0.011 0.37355,0.37355 0.28325,1.02175 -0.17537,1.25891 -0.1809,0.0935 -0.56003,0.0891 -0.75878,-0.009 z m 35.26918,-0.009 c -0.46297,-0.24635 -0.51433,-1.01023 -0.0883,-1.31358 0.44375,-0.31597 1.01872,-0.15067 1.21927,0.35055 0.13807,0.34507 -0.002,0.76098 -0.32245,0.95626 -0.20365,0.12416 -0.58193,0.12733 -0.8085,0.007 z m 1.75154,-0.98997 c -0.30019,-0.13674 -0.40801,-0.44537 -0.26696,-0.76424 0.13536,-0.30599 0.40561,-0.55278 0.82175,-0.75041 0.44142,-0.20963 0.89695,-0.24277 1.13506,-0.0826 0.51837,0.34877 0.16449,1.12238 -0.68828,1.50461 -0.32557,0.14593 -0.79019,0.18889 -1.00157,0.0926 z m 0.67192,-0.5871 c 0.22055,-0.0752 0.66192,-0.41649 0.66192,-0.51191 0,-0.0696 -0.31335,-0.004 -0.55203,0.11508 -0.19863,0.0994 -0.50831,0.36378 -0.50831,0.43401 0,0.0603 0.15459,0.0459 0.39842,-0.0372 z m -30.32333,0.5275 c -0.23518,-0.16473 -0.23893,-0.21501 -0.19375,-2.59636 0.0231,-1.21939 0.0535,-2.28377 0.0675,-2.36528 0.014,-0.0815 0.0911,-0.21115 0.17144,-0.28809 0.25422,-0.24355 0.67899,-0.15605 0.85358,0.17585 0.0615,0.11687 0.0514,2.23322 -0.0195,4.09046 l -0.0284,0.74539 -0.15831,0.15831 c -0.13073,0.13073 -0.19507,0.15831 -0.3693,0.15831 -0.11705,0 -0.26094,-0.035 -0.32319,-0.0786 z m 2.66051,-0.0893 -0.16785,-0.16786 0.0295,-2.06127 c 0.0353,-2.46625 0.0506,-2.71623 0.17601,-2.87569 0.21058,-0.26772 0.64958,-0.26236 0.86835,0.0106 l 0.10343,0.12905 -0.0327,2.35658 c -0.035,2.51623 -0.0365,2.53104 -0.27946,2.70122 -0.0591,0.0414 -0.20233,0.0752 -0.31837,0.0752 -0.17667,0 -0.23829,-0.0273 -0.37884,-0.16786 z m -11.78063,-0.0876 c -0.33556,-0.14129 -0.50066,-0.25758 -0.75053,-0.52866 -0.34679,-0.37621 -0.3901,-0.78177 -0.10878,-1.01848 0.20353,-0.17126 0.43266,-0.20218 0.78081,-0.10539 0.9409,0.2616 1.52794,1.10269 1.10219,1.57918 -0.12391,0.13868 -0.17012,0.15639 -0.44583,0.17091 -0.24058,0.0127 -0.36647,-0.009 -0.57786,-0.0976 z m 0.58356,-0.50957 c 0,-0.0729 -0.43277,-0.4445 -0.59333,-0.50947 -0.45849,-0.18552 -0.54923,-0.10767 -0.22058,0.18924 0.29311,0.26481 0.81391,0.46972 0.81391,0.32023 z m 25.58134,0.2076 c -0.28023,-0.15205 -0.28618,-0.19954 -0.25526,-2.03627 0.0155,-0.91947 0.0408,-1.98315 0.0563,-2.36372 0.027,-0.663101 0.0335,-0.697957 0.15699,-0.836142 0.26809,-0.300044 0.74157,-0.207817 0.8964,0.174607 0.0787,0.194425 0.004,4.602145 -0.0814,4.817345 -0.10975,0.27576 -0.49217,0.39656 -0.77301,0.24418 z m 9.52408,-0.48528 c -0.21317,-0.28826 -0.26257,-0.38643 -0.22472,-0.44659 0.0906,-0.144 1.33526,-1.0107 1.39969,-0.97464 0.093,0.0521 0.54533,0.69584 0.52717,0.75033 -0.0182,0.0544 -1.09926,0.86216 -1.29727,0.96921 l -0.13163,0.0712 z m -32.82283,-0.13644 c -0.34608,-0.25089 -0.65686,-0.48945 -0.69063,-0.53013 -0.0517,-0.0623 -0.0186,-0.13083 0.21071,-0.43549 0.14966,-0.19883 0.2987,-0.36112 0.3312,-0.36064 0.0855,10e-4 1.38453,0.95897 1.38453,1.02071 0,0.0782 -0.49852,0.76002 -0.55632,0.76093 -0.0276,4.3e-4 -0.33341,-0.20449 -0.67949,-0.45538 z m 34.89477,-0.39103 c -0.16314,-0.24898 -0.0768,-0.33212 0.91501,-0.88053 0.80974,-0.44776 0.91933,-0.49568 1.02422,-0.4479 0.17424,0.0794 0.24457,0.26396 0.15333,0.4024 -0.0935,0.14193 -1.72699,1.05026 -1.88867,1.05026 -0.0785,0 -0.15176,-0.0447 -0.20389,-0.12423 z m -21.92675,-0.20763 c -0.27246,-0.16614 -0.27201,-0.16078 -0.22312,-2.69647 0.0492,-2.551218 0.039,-2.475326 0.35537,-2.638947 0.29466,-0.152372 0.6705,0.0162 0.75336,0.337895 0.0585,0.227086 -0.0295,4.602462 -0.0959,4.768772 -0.0674,0.16877 -0.3015,0.31927 -0.49666,0.31927 -0.0795,0 -0.21138,-0.0407 -0.29302,-0.0905 z m 2.38886,0.002 c -0.80239,-0.42639 -0.27804,-1.63822 1.18679,-2.74281 0.50366,-0.3798 0.63125,-0.53459 0.67363,-0.81722 0.0267,-0.17789 0.0143,-0.262754 -0.0573,-0.393494 -0.30878,-0.563507 -0.88446,-0.455126 -1.06684,0.200854 -0.043,0.15466 -0.13268,0.33411 -0.20123,0.40265 -0.10962,0.10963 -0.15335,0.1212 -0.38533,0.10196 -0.21275,-0.0176 -0.28363,-0.0472 -0.37916,-0.15829 -0.34739,-0.403869 0.20433,-1.554885 0.89371,-1.864469 0.34722,-0.155928 0.91368,-0.148061 1.2644,0.01756 0.81795,0.386252 1.18828,1.228417 0.92308,2.099169 -0.15573,0.51133 -0.32241,0.72562 -0.96385,1.23917 -0.31866,0.25513 -0.66975,0.56645 -0.78019,0.6918 l -0.20081,0.22793 0.78008,0.0241 0.78007,0.0241 0.14049,0.1574 c 0.15404,0.17258 0.18383,0.3936 0.0829,0.6151 -0.11026,0.242 -0.22754,0.26374 -1.42285,0.26374 -0.97766,0 -1.11826,-0.01 -1.26757,-0.0892 z m 16.45784,-0.57665 c -0.091,-0.0654 -0.60016,-0.64184 -0.60016,-0.67953 0,-0.0625 1.23996,-1.16089 1.30983,-1.16032 0.0783,6.4e-4 0.61806,0.60785 0.61806,0.69527 0,0.053 -1.07841,1.05844 -1.23133,1.14798 -0.0278,0.0163 -0.0711,0.0147 -0.0964,-0.003 z m -30.54276,-0.56577 c -0.33798,-0.30601 -0.61452,-0.57952 -0.61452,-0.60779 0,-0.0614 0.57195,-0.71497 0.6257,-0.71497 0.0477,0 1.2726,1.09755 1.29442,1.15986 0.0209,0.0598 -0.56238,0.71992 -0.6358,0.71956 -0.0304,-1.4e-4 -0.33182,-0.25064 -0.6698,-0.55666 z m 28.82533,-1.16559 c -0.3629,-0.33086 -0.38019,-0.35278 -0.33758,-0.42789 0.0939,-0.16545 1.08732,-1.2234 1.14884,-1.2234 0.0897,0 0.69152,0.53323 0.69156,0.6127 3e-5,0.0626 -1.02279,1.21806 -1.13261,1.27952 -0.0437,0.0245 -0.16742,-0.056 -0.37021,-0.24093 z m -27.33846,-0.39282 c -0.30749,-0.34168 -0.55907,-0.64309 -0.55907,-0.6698 0,-0.0571 0.6434,-0.636868 0.70671,-0.636868 0.0439,0 1.06432,1.111468 1.14482,1.246988 0.0341,0.0573 -0.0319,0.14342 -0.28919,0.37718 -0.18332,0.16659 -0.35826,0.30307 -0.38875,0.30331 -0.0305,2.4e-4 -0.30703,-0.27914 -0.61452,-0.62081 z m 25.72032,-0.92915 c -0.20331,-0.14508 -0.34922,-0.284095 -0.34922,-0.332725 0,-0.126046 0.93268,-1.371245 1.02198,-1.364415 0.12961,0.0099 0.71312,0.454914 0.71312,0.543846 0,0.08847 -0.90613,1.359954 -0.98825,1.386714 -0.0266,0.009 -0.20555,-0.0964 -0.39763,-0.23342 z m -24.07436,-0.453623 c -0.25846,-0.357981 -0.46993,-0.682114 -0.46993,-0.720295 0,-0.08312 0.6168,-0.549069 0.72999,-0.551454 0.0837,-0.0018 1.07058,1.320825 1.04399,1.399087 -0.0249,0.07329 -0.68208,0.527255 -0.76051,0.525335 -0.0405,-9.9e-4 -0.28508,-0.29469 -0.54354,-0.652673 z m 2.06043,-0.573083 c -0.39229,-0.141899 -0.61144,-0.55 -0.50587,-0.94205 0.18722,-0.695291 1.17846,-0.789987 1.47131,-0.140558 0.28943,0.641847 -0.31382,1.31831 -0.96544,1.082608 z m 20.38128,0.02052 c -0.0829,-0.0252 -0.218,-0.11456 -0.30015,-0.198585 -0.50437,-0.515886 -0.1675,-1.341624 0.54733,-1.341624 0.41474,0 0.73657,0.283864 0.78236,0.690057 0.0628,0.557457 -0.4901,1.014049 -1.02954,0.850152 z m -22.74813,-0.938548 c -0.19869,-0.198684 -0.1326,-0.3186 0.33363,-0.605356 0.19457,-0.119671 0.2296,-0.163203 0.21689,-0.269494 -0.0264,-0.220896 -0.15226,-0.250932 -0.42022,-0.100302 -0.27242,0.153134 -0.49767,0.169624 -0.62178,0.04552 -0.15253,-0.152532 -0.44318,-0.718863 -0.44318,-0.863534 0,-0.195183 0.0656,-0.26121 0.51658,-0.520179 0.43778,-0.251374 0.59936,-0.262071 0.69772,-0.04619 0.0821,0.180132 -0.0103,0.326018 -0.31775,0.501936 -0.24128,0.138047 -0.26164,0.162079 -0.20887,0.246571 0.0709,0.113579 0.0952,0.114932 0.28664,0.01595 0.19904,-0.10293 0.55633,-0.06792 0.75571,0.07405 0.32148,0.228913 0.43129,0.700856 0.24709,1.061923 -0.0737,0.144386 -0.17646,0.231692 -0.45176,0.383658 -0.19602,0.108205 -0.38182,0.196736 -0.4129,0.196736 -0.0311,0 -0.11109,-0.05458 -0.1778,-0.121296 z m 4.2533,-0.13174 c -0.0368,-0.08615 -0.18887,-0.430962 -0.33803,-0.766244 -0.14915,-0.335281 -0.27119,-0.630698 -0.27119,-0.656482 0,-0.06053 0.79138,-0.414082 0.86897,-0.388219 0.0775,0.02584 0.73003,1.490385 0.69948,1.569977 -0.0251,0.06537 -0.71591,0.39761 -0.82676,0.39761 -0.0361,0 -0.0957,-0.07049 -0.13247,-0.156642 z m 16.51947,-0.0068 c -0.18856,-0.08902 -0.35609,-0.183289 -0.37228,-0.209487 -0.0316,-0.0512 0.5668,-1.440176 0.66649,-1.546877 0.0495,-0.05303 0.13228,-0.03277 0.47602,0.116521 0.27261,0.118398 0.41583,0.207003 0.41538,0.256974 -3.8e-4,0.04195 -0.14714,0.401601 -0.32613,0.799229 -0.24933,0.55386 -0.34781,0.725595 -0.42104,0.734227 -0.0526,0.0062 -0.24987,-0.06157 -0.43844,-0.150587 z m -19.41726,-0.62663 c -0.20304,-0.203039 -0.14369,-0.339822 0.24358,-0.561395 0.30155,-0.172528 0.34642,-0.241035 0.26906,-0.41081 -0.0677,-0.148477 -0.17378,-0.148015 -0.41705,0.0018 -0.21717,0.133764 -0.43852,0.15448 -0.57969,0.05425 -0.0523,-0.03712 -0.19082,-0.249033 -0.30784,-0.470909 -0.20258,-0.384091 -0.20948,-0.410289 -0.14412,-0.547019 0.0484,-0.10132 0.19268,-0.212565 0.48983,-0.377788 0.47334,-0.263183 0.6114,-0.270178 0.70845,-0.03589 0.0808,0.195145 0.0136,0.299469 -0.31125,0.48279 -0.23672,0.133592 -0.26148,0.161779 -0.21629,0.246207 0.0618,0.115565 0.1048,0.118105 0.29899,0.01768 0.20118,-0.104035 0.55631,-0.06794 0.76024,0.07728 0.18206,0.129633 0.33536,0.435434 0.33687,0.67198 0.002,0.303117 -0.15834,0.541876 -0.49204,0.732975 -0.43909,0.251456 -0.4956,0.261968 -0.63874,0.118831 z m 4.8753,-0.01723 c -0.0796,-0.133117 -0.51417,-1.62121 -0.48199,-1.650518 0.0721,-0.06569 0.83181,-0.297273 0.87916,-0.268008 0.0748,0.04625 0.55382,1.54564 0.52105,1.63105 -0.018,0.04685 -0.19096,0.127189 -0.43247,0.200853 -0.44679,0.136282 -0.45516,0.137774 -0.48575,0.08662 z m 12.60398,-0.09244 c -0.19411,-0.06752 -0.36424,-0.152239 -0.37807,-0.188263 -0.0253,-0.06596 0.44517,-1.551054 0.51591,-1.628512 0.0209,-0.02286 0.22964,0.02221 0.46391,0.10017 0.32545,0.108297 0.42854,0.163593 0.43696,0.234359 0.006,0.05094 -0.10239,0.428796 -0.24099,0.839679 -0.20769,0.615724 -0.26894,0.748664 -0.34839,0.756194 -0.053,0.005 -0.25522,-0.04611 -0.44933,-0.113627 z m -6.14579,-0.151847 c -0.10806,-0.119408 -1.09236,-2.36723 -1.09236,-2.494604 0,-0.05602 0.0397,-0.137754 0.0881,-0.181625 0.0763,-0.06906 0.22836,-0.07977 1.13264,-0.07977 0.98023,0 1.05043,0.0059 1.14089,0.09639 0.053,0.05302 0.0964,0.125939 0.0964,0.162048 0,0.108667 -0.92126,2.409882 -1.00118,2.500855 -0.096,0.109232 -0.26406,0.10771 -0.36453,-0.0033 z m 10.13762,-0.299151 c -0.35029,-0.213117 -0.41358,-0.304429 -0.34183,-0.493156 0.0797,-0.209671 0.25971,-0.221292 0.59264,-0.03826 0.31549,0.173444 0.49092,0.171124 0.54753,-0.0072 0.0356,-0.112294 -0.0229,-0.175451 -0.36301,-0.3918 -0.10073,-0.06407 -0.18425,-0.165992 -0.21021,-0.256515 -0.0374,-0.130392 -0.0161,-0.197025 0.16182,-0.505199 0.27267,-0.472417 0.3224,-0.523687 0.50795,-0.523687 0.16079,0 0.80973,0.332972 0.92456,0.474397 0.10495,0.129249 0.073,0.334365 -0.0662,0.425614 -0.12306,0.08063 -0.13453,0.0787 -0.42363,-0.07118 -0.16343,-0.08474 -0.31179,-0.154063 -0.32969,-0.154063 -0.0179,0 -0.0559,0.04359 -0.0844,0.09687 -0.0448,0.08378 -0.0292,0.110252 0.11601,0.195902 0.489,0.288518 0.45513,1.046378 -0.0597,1.335724 -0.30239,0.16995 -0.59158,0.143944 -0.97182,-0.0874 z m -14.62155,-0.08313 c -0.0594,-0.206427 -0.31962,-1.471631 -0.31962,-1.553793 0,-0.0502 0.0163,-0.101109 0.0362,-0.113126 0.0737,-0.04454 0.87749,-0.194803 0.90341,-0.168882 0.0418,0.0418 0.36747,1.589893 0.35169,1.67177 -0.009,0.04847 -0.14265,0.101113 -0.3996,0.157794 -0.49074,0.108256 -0.54253,0.10882 -0.57203,0.0062 z m 8.62099,0.0039 c -0.18556,-0.03985 -0.35433,-0.08861 -0.37504,-0.108355 -0.0424,-0.04041 0.28289,-1.64211 0.34636,-1.705587 0.0515,-0.05152 0.85543,0.105196 0.91638,0.178642 0.0291,0.03504 -0.0182,0.347374 -0.13219,0.873107 -0.20407,0.941233 -0.15452,0.89125 -0.75551,0.762193 z m -2.00019,-0.323129 c -0.37517,-0.04971 -0.41104,-0.06386 -0.42576,-0.167925 -0.0193,-0.136525 0.12921,-1.546462 0.16984,-1.612202 0.033,-0.05332 0.88534,-0.0012 0.94454,0.05777 0.0486,0.04844 -0.1108,1.648211 -0.17224,1.728317 -0.0254,0.03314 -0.0598,0.05757 -0.0765,0.05429 -0.0166,-0.0033 -0.2146,-0.03039 -0.43993,-0.06025 z m -4.58131,-0.01092 c -0.001,-0.02385 -0.0421,-0.40123 -0.0905,-0.838621 -0.0653,-0.590604 -0.0739,-0.8096 -0.0336,-0.850996 0.0637,-0.06532 0.82575,-0.15748 0.90372,-0.10929 0.0843,0.0521 0.24139,1.644801 0.16955,1.719171 -0.0684,0.07081 -0.94537,0.144481 -0.94918,0.07974 z m 1.46622,-2.385184 c -0.20258,-0.05872 -0.48626,-0.381067 -0.52714,-0.599 -0.0882,-0.470316 0.12926,-0.999033 0.60934,-1.481287 0.34527,-0.346835 0.49139,-0.401017 0.63965,-0.237191 0.13229,0.14618 0.0962,0.301196 -0.12207,0.523541 -0.11101,0.113109 -0.19234,0.211529 -0.18074,0.218712 0.0116,0.0072 0.10718,0.05644 0.21239,0.109455 0.10521,0.05302 0.23929,0.167893 0.29794,0.255281 l 0.10665,0.158887 0.0304,-0.231183 c 0.0779,-0.591972 0.28641,-0.978189 0.58067,-1.075305 0.2242,-0.07399 0.39526,-0.02778 0.58971,0.15933 0.20188,0.194252 0.29992,0.522757 0.29992,1.005015 0,0.463656 -0.12398,0.823207 -0.36407,1.055883 -0.14631,0.141793 -0.20328,0.165523 -0.38784,0.161537 -0.17701,-0.0038 -0.24683,-0.03423 -0.38414,-0.167323 -0.0923,-0.08946 -0.19237,-0.244599 -0.22237,-0.344758 -0.0662,-0.22108 -0.11381,-0.231308 -0.15347,-0.033 -0.04,0.199952 -0.30439,0.455347 -0.53876,0.520416 -0.21949,0.06094 -0.27883,0.06106 -0.48607,9.88e-4 z m 0.41603,-0.622317 c 0.053,-0.05302 0.0964,-0.118084 0.0964,-0.144592 0,-0.05678 -0.176,-0.240987 -0.23026,-0.240987 -0.0812,0 -0.25171,0.154383 -0.25171,0.227875 0,0.09759 0.13819,0.254099 0.22436,0.254099 0.0357,0 0.1082,-0.04338 0.16122,-0.09639 z m 1.52316,-0.274457 c 0.0425,-0.226764 0.001,-0.77496 -0.0634,-0.839486 -0.15804,-0.158041 -0.28569,0.707879 -0.15487,1.050559 0.0498,0.130342 0.0545,0.132032 0.11988,0.04296 0.0374,-0.051 0.0817,-0.165311 0.0983,-0.254034 z"
       id="path826"
       inkscape:connector-curvature="0" />
  </g>
</svg>
