<?xml version="1.0" encoding="UTF-8" standalone="no"?>
<!-- Created with Inkscape (http://www.inkscape.org/) -->

<svg
   xmlns:dc="http://purl.org/dc/elements/1.1/"
   xmlns:cc="http://creativecommons.org/ns#"
   xmlns:rdf="http://www.w3.org/1999/02/22-rdf-syntax-ns#"
   xmlns:svg="http://www.w3.org/2000/svg"
   xmlns="http://www.w3.org/2000/svg"
   xmlns:sodipodi="http://sodipodi.sourceforge.net/DTD/sodipodi-0.dtd"
   xmlns:inkscape="http://www.inkscape.org/namespaces/inkscape"
   width="71.721176mm"
   height="21.096466mm"
   viewBox="0 0 71.721176 21.096466"
   version="1.1"
   id="svg8"
   inkscape:version="0.92.3 (2405546, 2018-03-11)"
   sodipodi:docname="back_plate_A.svg">
  <defs
     id="defs2" />
  <sodipodi:namedview
     id="base"
     pagecolor="#ffffff"
     bordercolor="#666666"
     borderopacity="1.0"
     inkscape:pageopacity="0.0"
     inkscape:pageshadow="2"
     inkscape:zoom="0.98994949"
     inkscape:cx="198.30409"
     inkscape:cy="4.1673015"
     inkscape:document-units="mm"
     inkscape:current-layer="layer1"
     showgrid="false"
     inkscape:window-width="2560"
     inkscape:window-height="1380"
     inkscape:window-x="3840"
     inkscape:window-y="0"
     inkscape:window-maximized="1" />
  <metadata
     id="metadata5">
    <rdf:RDF>
      <cc:Work
         rdf:about="">
        <dc:format>image/svg+xml</dc:format>
        <dc:type
           rdf:resource="http://purl.org/dc/dcmitype/StillImage" />
        <dc:title></dc:title>
      </cc:Work>
    </rdf:RDF>
  </metadata>
  <g
     inkscape:label="Livello 1"
     inkscape:groupmode="layer"
     id="layer1"
     transform="translate(-41.624694,-80.259816)">
    <path
       style="fill:#000000;stroke-width:0.09731801"
       d="m 77.310244,101.30998 c -0.0381,-0.0381 -0.0693,-0.80653 -0.0693,-1.70753 v -1.63819 h 0.34291 0.34291 l -0.0266,1.67874 -0.0266,1.67873 -0.24694,0.0288 c -0.13582,0.0158 -0.27814,-0.002 -0.31628,-0.0405 z m -10.16047,-1.18415 c -0.0866,-0.0551 -0.025,-0.47366 0.24329,-1.65274 0.35503,-1.56009 0.36246,-1.57897 0.62121,-1.57915 0.14403,-1e-4 0.28632,0.0394 0.3162,0.0877 0.0299,0.0483 -0.10868,0.79283 -0.30792,1.65441 -0.32169,1.39112 -0.38433,1.56634 -0.5595,1.56501 -0.10849,-7.7e-4 -0.24947,-0.0347 -0.31328,-0.0752 z m 19.8874,-1.47666 c -0.19912,-0.86366 -0.33953,-1.60671 -0.31202,-1.65123 0.10244,-0.16573 0.53372,-0.17852 0.58332,-0.0173 0.10305,0.33498 0.71865,3.07579 0.69594,3.0985 -0.0132,0.0132 -0.15483,0.0502 -0.31464,0.0822 l -0.29056,0.0581 z m -11.64532,0.28522 c 0,-0.61469 0.0321,-0.79391 0.15017,-0.83923 0.0826,-0.0317 0.16456,-0.0413 0.18215,-0.0213 0.0176,0.02 0.0101,0.39764 -0.0167,0.83922 -0.0359,0.5917 -0.0838,0.80287 -0.18215,0.80287 -0.102,0 -0.13347,-0.18426 -0.13347,-0.78159 z m 3.95179,0.62766 c -0.0325,-0.0847 -0.0591,-0.45691 -0.0591,-0.82721 0,-0.53358 0.0303,-0.67326 0.14598,-0.67326 0.10911,0 0.14624,0.11672 0.14704,0.46226 5.9e-4,0.25424 0.0282,0.62648 0.0614,0.8272 0.0477,0.28845 0.0292,0.36494 -0.088,0.36494 -0.0816,0 -0.17488,-0.0693 -0.20737,-0.15393 z m -5.89815,-0.41639 c 0,-0.72875 0.11616,-1.27872 0.27008,-1.27872 0.11941,0 0.13502,0.0939 0.0849,0.51092 -0.0337,0.28101 -0.0618,0.65325 -0.0622,0.8272 -5.9e-4,0.21589 -0.0472,0.31629 -0.14682,0.31629 -0.10455,0 -0.14598,-0.10662 -0.14598,-0.37569 z m 7.84511,0.0108 c -0.11096,-0.73948 -0.10492,-1.22572 0.0157,-1.26593 0.15381,-0.0513 0.18856,0.0707 0.26368,0.92531 0.0514,0.58453 0.0374,0.70556 -0.0813,0.70556 -0.091,0 -0.1633,-0.13323 -0.19807,-0.36494 z m -9.85264,0 c 0.0271,-0.0937 0.0789,-0.46591 0.11521,-0.82721 0.0492,-0.48993 0.10308,-0.65689 0.21202,-0.65689 0.12336,0 0.13517,0.11731 0.076,0.75421 -0.0784,0.84331 -0.0977,0.90019 -0.30565,0.90019 -0.0937,0 -0.12897,-0.0616 -0.0975,-0.1703 z m 11.75116,-0.56356 c -0.1369,-0.92045 -0.1369,-0.92054 0.026,-0.92054 0.137,0 0.19359,0.20743 0.31193,1.14348 0.053,0.41894 0.0382,0.51092 -0.0821,0.51092 -0.10808,0 -0.17541,-0.19312 -0.25583,-0.73386 z m -13.73365,0.41758 c 1e-5,-0.0134 0.0657,-0.36758 0.14597,-0.78711 0.0803,-0.41952 0.14596,-0.78082 0.14596,-0.80287 0,-0.0221 0.0657,-0.0401 0.14598,-0.0401 0.17386,0 0.17395,0.002 0.0432,0.73634 -0.14452,0.81229 -0.1839,0.91807 -0.34174,0.91807 -0.0767,0 -0.13941,-0.011 -0.1394,-0.0243 z m 15.67096,-0.68123 c -0.0692,-0.38805 -0.14824,-0.76474 -0.17577,-0.83707 -0.0334,-0.0878 0.0111,-0.11975 0.13392,-0.0961 0.14208,0.0274 0.21076,0.17921 0.30161,0.66677 0.15373,0.82499 0.15318,0.97195 -0.004,0.97195 -0.0854,0 -0.17374,-0.24331 -0.2561,-0.70556 z m -19.46296,-0.34061 c 0.002,-0.0937 0.0829,-0.45496 0.18013,-0.80287 0.12387,-0.44337 0.22897,-0.6428 0.3514,-0.66677 0.11441,-0.0224 0.15759,0.0112 0.12515,0.0973 -0.0272,0.0723 -0.13091,0.44902 -0.23039,0.83707 -0.10603,0.41364 -0.23235,0.70556 -0.30529,0.70556 -0.0684,0 -0.12288,-0.0766 -0.121,-0.17031 z m 23.30934,-0.36179 c -0.26512,-0.91199 -0.28952,-1.12231 -0.13022,-1.12231 0.14834,0 0.60177,1.41571 0.50407,1.5738 -0.11502,0.18609 -0.22825,0.0493 -0.37385,-0.45149 z m -25.20241,-0.1361 c -0.0689,-0.11153 0.42366,-1.57012 0.53025,-1.57012 0.18838,0 0.17413,0.20678 -0.0628,0.9115 -0.23542,0.70019 -0.34571,0.85558 -0.46744,0.65862 z m 13.52197,-0.0728 c -0.1717,-0.17169 -0.20157,-0.92494 -0.0481,-1.21178 0.0554,-0.10353 0.18525,-0.18824 0.28853,-0.18824 0.23984,0 0.38928,0.28019 0.38928,0.72989 0,0.61396 -0.33231,0.96758 -0.62975,0.67013 z m 0.41702,-0.61793 c 0.0332,-0.45465 -0.10157,-0.70136 -0.2836,-0.51933 -0.11843,0.11843 -0.14544,0.73271 -0.0397,0.90374 0.13362,0.21619 0.2934,0.0262 0.32334,-0.38441 z m 13.04147,0.003 c -0.20972,-0.63971 -0.22933,-0.78141 -0.11429,-0.82556 0.0764,-0.0293 0.15866,6.8e-4 0.18281,0.0667 0.21995,0.60095 0.4353,1.29376 0.4353,1.40038 0,0.0719 -0.0564,0.13074 -0.12532,0.13074 -0.0704,0 -0.23624,-0.33832 -0.3785,-0.77227 z m -33.07415,-0.0434 c -0.13202,-0.0686 -0.2261,-0.18686 -0.20906,-0.26278 0.017,-0.0759 0.33267,-0.76416 0.70141,-1.52944 l 0.67043,-1.39143 0.29042,0.15018 0.29043,0.15019 -0.70974,1.46196 c -0.39036,0.80408 -0.72866,1.48088 -0.7518,1.50401 -0.0231,0.0231 -0.15007,-0.0141 -0.28209,-0.0827 z m 4.18794,0.0693 c 0,-0.23036 0.55351,-1.49197 0.65458,-1.49197 0.17924,0 0.15553,0.158 -0.13471,0.89779 -0.14227,0.36261 -0.31744,0.6593 -0.38927,0.6593 -0.0718,0 -0.1306,-0.0293 -0.1306,-0.0651 z m 30.99932,-0.0265 c -0.0708,-0.11453 -0.53879,-1.35334 -0.53879,-1.42618 0,-0.0295 0.0711,-0.0394 0.15807,-0.0221 0.21515,0.0428 0.77405,1.53989 0.57489,1.53989 -0.0757,0 -0.16304,-0.0412 -0.19417,-0.0916 z m 3.89906,-0.60961 c -0.178,-0.39045 -0.50478,-1.0701 -0.72619,-1.51034 l -0.40258,-0.80045 0.28971,-0.14981 0.28971,-0.14981 0.30815,0.60964 c 0.16949,0.3353 0.49642,1.01488 0.72651,1.51018 l 0.41836,0.90052 -0.29003,0.14998 -0.29002,0.14998 z m -28.479,0.2538 c -0.1929,-0.50735 0.24521,-1.39221 0.61839,-1.24901 0.34304,0.13164 0.32149,0.90651 -0.0359,1.2901 -0.26232,0.28157 -0.46528,0.26725 -0.58251,-0.0411 z m 0.53635,-0.22898 c 0.16311,-0.31541 0.19635,-0.7423 0.0642,-0.824 -0.21134,-0.13061 -0.56388,0.63573 -0.44044,0.95741 0.0883,0.23016 0.2107,0.18677 0.37627,-0.13341 z m 17.1423,-0.14648 c -0.18105,-0.72077 -0.19068,-0.83153 -0.0723,-0.83153 0.047,0 0.1565,0.2827 0.2433,0.62823 0.18105,0.72078 0.19068,0.83154 0.0723,0.83154 -0.047,0 -0.1565,-0.28271 -0.2433,-0.62824 z m -18.45359,0.38061 c 0,-0.0291 0.0717,-0.34664 0.15938,-0.70555 0.19131,-0.7833 0.38325,-1.05697 0.28705,-0.40928 -0.10001,0.67329 -0.24943,1.16782 -0.35286,1.16782 -0.0515,0 -0.0936,-0.0238 -0.0936,-0.053 z m 19.2181,-0.18001 c -0.32395,-0.49441 -0.26387,-1.32409 0.0959,-1.32409 0.25116,0 0.53889,0.49026 0.53889,0.91818 0,0.62884 -0.3444,0.84907 -0.63477,0.40591 z m 0.44014,-0.34013 c 0,-0.46039 -0.32921,-0.95516 -0.44227,-0.66467 -0.12823,0.32947 0.11592,1.04316 0.35687,1.04316 0.047,0 0.0854,-0.17032 0.0854,-0.37849 z m -27.03133,0.19979 c -0.0942,-0.0595 -0.0498,-0.25265 0.18987,-0.82691 0.17201,-0.41211 0.35869,-0.7328 0.41484,-0.71264 0.15305,0.0549 0.0933,0.34461 -0.20933,1.01419 -0.19243,0.42582 -0.30859,0.58017 -0.39538,0.52536 z m 34.36248,-0.47905 c -0.41423,-0.93256 -0.42504,-0.9745 -0.26692,-1.03517 0.0901,-0.0346 0.17467,0.0258 0.22711,0.16202 0.046,0.11941 0.19402,0.46571 0.32899,0.76955 0.20518,0.4619 0.22193,0.56143 0.1022,0.60738 -0.10212,0.0392 -0.21438,-0.10532 -0.39138,-0.50378 z m -37.96219,-1.26029 c -0.0852,-0.0312 -0.0149,-0.23961 0.23417,-0.69339 0.42966,-0.78295 0.47275,-0.83553 0.61339,-0.74861 0.075,0.0463 -0.003,0.27501 -0.24372,0.71654 -0.40781,0.74741 -0.43964,0.78566 -0.60384,0.72546 z m 41.39388,-0.62041 c -0.27065,-0.50109 -0.34315,-0.71864 -0.2654,-0.79639 0.12903,-0.12903 0.0933,-0.172 0.53317,0.64076 0.32499,0.60047 0.37584,0.84504 0.17569,0.84504 -0.0391,0 -0.23866,-0.31023 -0.44346,-0.68941 z m -2.88008,-0.22059 c 0,-0.12582 0.0494,-0.37047 0.10976,-0.54365 0.0897,-0.25744 0.0826,-0.34208 -0.0393,-0.46397 -0.19151,-0.19151 -0.3624,-0.0849 -0.3624,0.22604 0,0.13742 -0.0423,0.21712 -0.0973,0.18315 -0.17414,-0.10762 -0.10622,-0.52363 0.10385,-0.63606 0.15745,-0.0843 0.25504,-0.0724 0.44911,0.0548 0.25589,0.16766 0.26609,0.32455 0.0662,1.01734 l -0.0697,0.24144 0.26897,-0.17623 c 0.34403,-0.22542 0.47381,-0.11049 0.15331,0.13576 -0.3397,0.26101 -0.58245,0.24491 -0.58245,-0.0386 z m -35.22824,-0.0135 c -0.2784,-0.33546 0.22001,-1.31486 0.66914,-1.31486 0.42759,0 0.3183,0.89136 -0.15494,1.26361 -0.29817,0.23454 -0.3572,0.24042 -0.5142,0.0513 z m 0.70813,-0.78528 c 0.0145,-0.19872 -0.0237,-0.28629 -0.12492,-0.28629 -0.20249,0 -0.53735,0.65236 -0.45073,0.87808 0.0644,0.16785 0.0857,0.16358 0.31195,-0.0627 0.13355,-0.13355 0.25221,-0.37165 0.2637,-0.52911 z m -5.72363,0.6338 c -0.0774,-0.12531 0.72384,-1.47448 0.85061,-1.43223 0.15902,0.053 0.1117,0.20346 -0.27558,0.87623 -0.38187,0.66337 -0.46124,0.74012 -0.57503,0.556 z m 44.80553,-0.58857 c -0.30133,-0.50722 -0.3773,-0.71088 -0.29564,-0.79254 0.0605,-0.0605 0.12523,-0.0909 0.14394,-0.0677 0.0337,0.0418 0.749036,1.24956 0.811446,1.3701 0.0179,0.0345 -0.032,0.0875 -0.11085,0.1178 -0.10008,0.0384 -0.265766,-0.15105 -0.548896,-0.62762 z m -40.59379,0.44002 c -0.14719,-0.0799 -0.26762,-0.18657 -0.26762,-0.23715 0,-0.1219 0.37401,-0.35047 0.69482,-0.42465 0.28626,-0.0662 0.43723,-0.33041 0.27912,-0.48852 -0.0724,-0.0724 -0.1569,-0.0692 -0.28465,0.0106 -0.21821,0.13628 -0.34181,0.0493 -0.18994,-0.13373 0.18677,-0.22505 0.56307,-0.15749 0.69138,0.12413 0.10432,0.22895 0.0888,0.27818 -0.15349,0.48659 -0.14825,0.12752 -0.35211,0.23186 -0.45302,0.23186 -0.26944,0 -0.32775,0.16879 -0.10036,0.29049 0.19024,0.10181 0.27432,0.29752 0.12438,0.28952 -0.0402,-0.002 -0.19342,-0.0692 -0.34062,-0.14909 z m 36.88353,-0.14677 c -0.37432,-0.21802 -0.62976,-1.18133 -0.34061,-1.28453 0.42449,-0.15151 1.14172,0.89401 0.85242,1.24259 -0.14123,0.17017 -0.2731,0.18098 -0.51181,0.0419 z m 0.34135,-0.37016 c -0.0322,-0.28743 -0.30959,-0.69254 -0.47419,-0.69254 -0.20413,0 -0.1626,0.42499 0.0705,0.72132 0.23398,0.29746 0.43861,0.28287 0.40369,-0.0288 z m -43.0924,-0.40724 c -0.10175,-0.16464 0.82567,-1.49769 0.95322,-1.37014 0.0757,0.0757 -0.0229,0.29845 -0.34962,0.78977 -0.25029,0.37639 -0.47402,0.68434 -0.4972,0.68434 -0.0232,0 -0.0711,-0.0468 -0.1064,-0.10397 z m 48.100796,-0.5651 c -0.3256,-0.48965 -0.41598,-0.69799 -0.33704,-0.77693 0.0789,-0.0789 0.23219,0.0791 0.57149,0.58931 0.42378,0.63724 0.49749,0.85669 0.28774,0.85669 -0.0425,0 -0.2775,-0.30108 -0.52219,-0.66907 z m -52.212336,-0.4565 c -0.11825,-0.0828 -0.215,-0.19465 -0.215,-0.24849 0,-0.15701 1.95961,-2.51866 2.0899,-2.51866 0.065,0 0.18946,0.0787 0.2765,0.17487 0.14856,0.16416 0.0983,0.24907 -0.82124,1.38678 -0.53871,0.66655 -1.01001,1.24436 -1.04732,1.284 -0.0373,0.0397 -0.16459,0.004 -0.28284,-0.0785 z m 55.694196,-1.16469 c -0.53525,-0.66935 -0.98575,-1.25384 -1.00111,-1.29887 -0.0154,-0.045 0.082,-0.15388 0.21636,-0.24191 l 0.24427,-0.16006 1.00013,1.22747 c 0.55006,0.6751 1.01564,1.26933 1.03461,1.32049 0.0375,0.10122 -0.26653,0.3654 -0.42376,0.36817 -0.0535,9.8e-4 -0.53525,-0.54593 -1.0705,-1.21529 z m -53.226736,1.03519 c -0.0406,-0.0657 0.56101,-0.99448 0.8848,-1.36602 0.0202,-0.0232 0.0855,0.007 0.14517,0.0662 0.0797,0.0797 -0.016,0.2779 -0.36101,0.74772 -0.46733,0.63647 -0.5663,0.71815 -0.66896,0.55206 z m 51.377696,-0.47119 c -0.54915,-0.77739 -0.54934,-0.77778 -0.39606,-0.83659 0.14598,-0.056 1.1597,1.23152 1.05335,1.33787 -0.13549,0.13549 -0.29156,0.0165 -0.65729,-0.50128 z M 48.461494,88.70706 c -0.0851,-0.0851 0.02,-0.26243 0.43145,-0.72816 0.50209,-0.56835 0.71642,-0.68913 0.70517,-0.39738 -0.002,0.0637 -0.2339,0.36837 -0.51432,0.67695 -0.38566,0.4244 -0.53723,0.53366 -0.6223,0.44859 z m 54.422696,0.0122 c -0.0331,-0.0535 0.0247,-0.0973 0.12831,-0.0973 0.10366,0 0.24298,-0.0657 0.30962,-0.14598 0.16103,-0.19403 -0.0554,-0.47159 -0.31483,-0.40375 -0.12806,0.0335 -0.20914,-0.0225 -0.27201,-0.18787 -0.0994,-0.26148 -0.19326,-0.29242 -0.36526,-0.12042 -0.0633,0.0633 -0.14399,0.0863 -0.17922,0.0511 -0.0774,-0.0774 0.35153,-0.4504 0.52308,-0.45496 0.0669,-0.002 0.12165,0.0854 0.12165,0.1938 0,0.12197 0.0951,0.23321 0.24963,0.29196 0.35614,0.1354 0.36304,0.12593 0.13405,-0.1838 -0.459,-0.62082 0.0763,-1.08376 0.62213,-0.53798 0.496,0.496 0.47245,1.06469 -0.041,0.98934 -0.24814,-0.0364 -0.2905,-0.0148 -0.25293,0.1288 0.0952,0.36415 -0.47815,0.77659 -0.66325,0.47709 z m 1.11915,-0.95897 c 0,-0.22466 -0.42507,-0.69544 -0.62792,-0.69544 -0.22454,0 -0.18251,0.23912 0.10132,0.57644 0.28271,0.33598 0.5266,0.39109 0.5266,0.119 z m 1.91124,0.46173 c -0.56983,-0.62968 -0.66032,-0.80418 -0.38933,-0.7507 0.25829,0.051 1.15738,1.13785 1.0391,1.25613 -0.0698,0.0698 -0.27061,-0.0864 -0.64977,-0.50543 z M 51.744004,88.5738 c -0.0664,-0.08 -0.0979,-0.23252 -0.0701,-0.33892 0.044,-0.16829 0.0249,-0.17972 -0.1468,-0.0878 -0.29344,0.15705 -0.65936,-0.0373 -0.65936,-0.35023 0,-0.13495 0.0438,-0.24538 0.0973,-0.24538 0.0535,0 0.0973,0.0829 0.0973,0.18423 0,0.195 0.24484,0.34296 0.40437,0.24437 0.0522,-0.0322 0.0812,-0.18926 0.0644,-0.34892 -0.0236,-0.22486 0.0226,-0.31866 0.20465,-0.41612 l 0.23509,-0.12582 -0.21097,-0.1129 c -0.21374,-0.1144 -0.28752,-0.3007 -0.11907,-0.3007 0.0505,0 0.21457,0.10552 0.3645,0.2345 l 0.27262,0.23449 -0.26719,0.12174 c -0.19751,0.09 -0.26719,0.19184 -0.26719,0.39059 v 0.26884 l 0.29132,-0.29132 c 0.38564,-0.38564 0.71846,-0.35286 0.76009,0.0748 0.0229,0.23547 -0.0453,0.38322 -0.30345,0.6569 -0.35947,0.38115 -0.5578,0.43624 -0.74753,0.20763 z m 0.72447,-0.46086 c 0.14675,-0.20951 0.20687,-0.5615 0.0959,-0.5615 -0.28562,0 -0.80048,0.67255 -0.6729,0.87899 0.0785,0.12704 0.38296,-0.0405 0.57699,-0.31749 z m -5.4385,-0.74591 c -0.0796,-0.12884 0.18186,-0.5126 0.66663,-0.97835 0.27453,-0.26375 0.37463,-0.31019 0.46781,-0.21702 0.0932,0.0932 -0.008,0.2454 -0.47431,0.71139 -0.36908,0.36907 -0.61825,0.55175 -0.66013,0.48398 z m 60.246086,-0.53532 c -0.37775,-0.43026 -0.50568,-0.63806 -0.41439,-0.67309 0.16913,-0.0649 1.27579,1.04379 1.18634,1.18852 -0.11532,0.18659 -0.21268,0.12158 -0.77195,-0.51543 z M 45.577474,85.92685 c -0.0851,-0.0851 1.00685,-1.19763 1.17551,-1.19763 0.2682,0 0.0999,0.29773 -0.43489,0.76911 -0.58181,0.51287 -0.62898,0.54016 -0.74062,0.42852 z m 63.060536,-0.47849 c -0.4152,-0.39128 -0.54258,-0.56816 -0.46501,-0.64573 0.0776,-0.0776 0.26088,0.0377 0.66917,0.4208 0.30928,0.29019 0.57648,0.58237 0.59379,0.64928 0.0674,0.26041 -0.25094,0.0911 -0.79795,-0.42435 z M 44.290804,84.42442 c -0.0637,-0.10308 0.31674,-0.4888 0.94996,-0.96314 0.18719,-0.14021 0.28068,-0.16318 0.33124,-0.0814 0.043,0.0696 -0.15319,0.31505 -0.50409,0.63053 -0.61565,0.55353 -0.67223,0.58367 -0.77711,0.41398 z m 65.674736,-0.39371 c -0.47083,-0.39339 -0.58041,-0.53332 -0.49667,-0.63422 0.0859,-0.10353 0.22513,-0.0257 0.69488,0.38833 0.55757,0.49146 0.67238,0.66183 0.48752,0.72345 -0.0449,0.015 -0.35347,-0.19994 -0.68573,-0.47756 z m -68.184766,-0.12359 -0.15608,-0.2382 1.30257,-1.01966 1.30257,-1.01966 0.22137,0.23563 c 0.12175,0.1296 0.20295,0.25372 0.18043,0.27583 -0.16519,0.1622 -2.5843,2.003 -2.633,2.00355 -0.034,3.9e-4 -0.13202,-0.10648 -0.21786,-0.23749 z m 69.937616,-0.76521 c -0.70651,-0.54539 -1.28625,-1.01961 -1.28831,-1.05382 -0.002,-0.0342 0.0778,-0.16298 0.17757,-0.28613 l 0.18132,-0.22393 1.27845,0.99978 c 0.70315,0.54988 1.27845,1.05504 1.27845,1.12258 0,0.0675 -0.0771,0.19263 -0.17146,0.27797 -0.15956,0.14441 -0.26055,0.0864 -1.45602,-0.83645 z m -66.665426,-1.1027 c -0.37778,-0.15872 0.13766,-0.92289 0.72129,-1.06938 0.35737,-0.0897 0.59074,0.16819 0.44389,0.4905 -0.17687,0.38817 -0.83768,0.71648 -1.16518,0.57888 z m 0.66616,-0.3546 c 0.3868,-0.26066 0.49305,-0.55616 0.19997,-0.55616 -0.23591,0 -0.79314,0.4505 -0.79314,0.64122 0,0.1997 0.21673,0.16862 0.59317,-0.0851 z m 63.371256,-0.0669 c -0.17277,-0.26424 -0.27665,-0.5036 -0.23085,-0.5319 0.0458,-0.0283 0.19873,0.12298 0.33983,0.3362 0.1411,0.21323 0.29972,0.38768 0.35249,0.38768 0.12482,0 0.12387,-0.16588 -0.001,-0.24329 -0.20121,-0.12436 -0.0888,-0.24497 0.1703,-0.1828 0.32193,0.0772 0.2776,0.0384 0.36409,0.31916 0.0576,0.18698 0.042,0.22218 -0.0781,0.1761 -0.0825,-0.0317 -0.20244,0.005 -0.26644,0.0826 -0.1908,0.22991 -0.3193,0.16195 -0.64993,-0.34374 z M 44.542044,81.3354 c 0,-0.054 0.0433,-0.1249 0.0962,-0.15761 0.0593,-0.0366 0.0386,-0.14748 -0.054,-0.28868 -0.17393,-0.26545 -0.16507,-0.27339 0.53495,-0.48028 0.62155,-0.1837 0.59058,-0.1802 0.59058,-0.0667 0,0.0492 -0.21931,0.16234 -0.48735,0.25137 -0.49655,0.16492 -0.59109,0.3932 -0.11493,0.27748 l 0.26166,-0.0636 -0.1936,0.23353 c -0.10648,0.12845 -0.19406,0.23905 -0.19463,0.24578 -0.006,0.074 -0.43897,0.12199 -0.43897,0.0487 z m 65.151426,-0.23911 c -0.35405,-0.35404 -0.43916,-0.71352 -0.19144,-0.80858 0.41564,-0.1595 1.15014,0.398 1.09934,0.83442 -0.0473,0.406 -0.48862,0.39344 -0.9079,-0.0258 z m 0.73286,-0.0211 c 0,-0.20285 -0.47077,-0.62792 -0.69543,-0.62792 -0.2721,0 -0.21699,0.24389 0.11899,0.5266 0.33732,0.28383 0.57644,0.32586 0.57644,0.10132 z"
       id="path826"
       inkscape:connector-curvature="0" />
  </g>
</svg>
