<?xml version="1.0" encoding="UTF-8" standalone="no"?>
<!-- Created with Inkscape (http://www.inkscape.org/) -->

<svg
   xmlns:dc="http://purl.org/dc/elements/1.1/"
   xmlns:cc="http://creativecommons.org/ns#"
   xmlns:rdf="http://www.w3.org/1999/02/22-rdf-syntax-ns#"
   xmlns:svg="http://www.w3.org/2000/svg"
   xmlns="http://www.w3.org/2000/svg"
   xmlns:sodipodi="http://sodipodi.sourceforge.net/DTD/sodipodi-0.dtd"
   xmlns:inkscape="http://www.inkscape.org/namespaces/inkscape"
   width="79.033012mm"
   height="78.973518mm"
   viewBox="0 0 79.033013 78.973518"
   version="1.1"
   id="svg8"
   inkscape:version="0.92.3 (2405546, 2018-03-11)"
   sodipodi:docname="frontal_plate_A.svg">
  <defs
     id="defs2" />
  <sodipodi:namedview
     id="base"
     pagecolor="#ffffff"
     bordercolor="#666666"
     borderopacity="1.0"
     inkscape:pageopacity="0.0"
     inkscape:pageshadow="2"
     inkscape:zoom="1.4"
     inkscape:cx="-80.687024"
     inkscape:cy="200.98444"
     inkscape:document-units="mm"
     inkscape:current-layer="layer1"
     showgrid="false"
     inkscape:window-width="2560"
     inkscape:window-height="1380"
     inkscape:window-x="3840"
     inkscape:window-y="0"
     inkscape:window-maximized="1" />
  <metadata
     id="metadata5">
    <rdf:RDF>
      <cc:Work
         rdf:about="">
        <dc:format>image/svg+xml</dc:format>
        <dc:type
           rdf:resource="http://purl.org/dc/dcmitype/StillImage" />
        <dc:title></dc:title>
      </cc:Work>
    </rdf:RDF>
  </metadata>
  <g
     inkscape:label="Livello 1"
     inkscape:groupmode="layer"
     id="layer1"
     transform="translate(-121.67284,-70.00541)">
    <path
       style="fill:#000000;stroke-width:0.09731801"
       d="m 160.69737,146.25403 v -2.72491 h 0.48659 0.48659 v 2.72491 2.7249 h -0.48659 -0.48659 z m -3.24585,2.55342 c -0.029,-0.0469 -0.0105,-0.54209 0.0412,-1.10039 0.1427,-1.54252 0.16758,-1.64767 0.38989,-1.64767 0.1063,0 0.21356,0.0547 0.23835,0.12165 0.0248,0.0669 -0.009,0.69096 -0.076,1.38678 -0.11269,1.17704 -0.13572,1.26721 -0.3309,1.29503 -0.11538,0.0164 -0.2335,-0.008 -0.2625,-0.0554 z m 6.81484,-0.29078 c -0.0311,-0.20072 -0.0865,-0.80899 -0.12292,-1.35171 -0.0645,-0.96022 -0.0605,-0.98861 0.14885,-1.05506 0.11833,-0.0375 0.22929,-0.0533 0.24659,-0.0351 0.0343,0.0363 0.24584,2.2771 0.24584,2.60456 0,0.14792 -0.062,0.20222 -0.23085,0.20222 -0.19182,0 -0.24044,-0.0617 -0.28751,-0.36494 z m -10.13796,-0.10916 c -0.24054,-0.0537 -0.28667,-0.10768 -0.26197,-0.30647 0.0403,-0.32413 0.67919,-4.0003 0.80851,-4.65205 l 0.10279,-0.51805 0.40522,0.0658 c 0.22287,0.0362 0.43576,0.0941 0.47309,0.12879 0.0373,0.0346 -0.1406,1.24538 -0.39541,2.69055 -0.50761,2.87899 -0.44866,2.74408 -1.13223,2.59142 z m 13.38123,0.0432 c 0,-0.0323 -0.19707,-1.17649 -0.43793,-2.54263 -0.24087,-1.36614 -0.43794,-2.564 -0.43794,-2.66191 0,-0.1358 0.0981,-0.19127 0.41361,-0.23388 0.22748,-0.0307 0.44195,-0.0255 0.47661,0.0115 0.11346,0.12132 0.97142,5.20303 0.89111,5.27806 -0.10073,0.0941 -0.90546,0.22638 -0.90546,0.14884 z m -16.72912,-0.82626 c -0.12866,-0.0815 -0.005,-0.67069 0.53373,-2.54867 0.0313,-0.10897 0.12025,-0.142 0.29339,-0.1089 0.28405,0.0543 0.29724,-0.0717 -0.17302,1.65208 -0.29041,1.0645 -0.36932,1.18579 -0.6541,1.00549 z m 19.96135,-1.15147 c -0.17536,-0.68244 -0.31746,-1.29554 -0.31577,-1.36245 0.003,-0.11193 0.48967,-0.18383 0.48967,-0.0723 0,0.0271 0.14927,0.6152 0.33171,1.3068 0.34267,1.29901 0.33897,1.36878 -0.0726,1.36878 -0.0647,0 -0.25228,-0.53735 -0.43305,-1.24081 z m -23.25635,0.12214 -0.31722,-0.13786 0.14455,-0.36925 c 0.0795,-0.20308 0.49148,-1.32456 0.9155,-2.49217 0.42402,-1.16761 0.79903,-2.15101 0.83336,-2.18534 0.11467,-0.11467 0.88396,0.22089 0.85138,0.37135 -0.0259,0.11959 -1.52252,4.27759 -1.72354,4.78845 -0.0801,0.20367 -0.27658,0.21059 -0.70403,0.0248 z m 25.77462,-2.38552 c -0.50368,-1.39193 -0.89782,-2.54528 -0.87587,-2.56299 0.022,-0.0177 0.22736,-0.10519 0.45644,-0.19439 0.32185,-0.12532 0.42642,-0.13444 0.46014,-0.0402 0.024,0.0671 0.43872,1.21033 0.92161,2.54049 0.48289,1.33016 0.87798,2.43817 0.87798,2.46224 0,0.0616 -0.64884,0.32583 -0.79975,0.3257 -0.0748,-6e-5 -0.4917,-1.01414 -1.04055,-2.5309 z m -28.92924,1.06752 c -0.14533,-0.0848 -0.10167,-0.22438 0.40245,-1.28651 0.5498,-1.15838 0.69185,-1.32954 0.96001,-1.15669 0.1005,0.0648 9e-5,0.35449 -0.45531,1.31367 -0.32133,0.67681 -0.62021,1.22923 -0.66418,1.2276 -0.044,-0.002 -0.1533,-0.0458 -0.24297,-0.0981 z m 32.85847,-0.65318 c -0.73147,-1.57666 -0.77042,-1.68857 -0.62061,-1.7834 0.0756,-0.0478 0.18419,-0.0877 0.24134,-0.0885 0.0571,-7.8e-4 0.35591,0.55234 0.6639,1.22924 0.43613,0.95853 0.53153,1.24878 0.43134,1.3123 -0.26507,0.16807 -0.37502,0.0652 -0.71597,-0.66966 z m -35.83395,-0.91139 c -0.17395,-0.1114 -0.31628,-0.23499 -0.31628,-0.27463 0,-0.0728 2.56445,-4.54938 2.66205,-4.64698 0.0406,-0.0406 0.58692,0.23639 0.82925,0.42039 0.0682,0.0518 -2.66349,4.70589 -2.76142,4.70483 -0.0535,-5.8e-4 -0.23964,-0.0922 -0.4136,-0.20361 z m 38.58213,-0.69436 c -1.48704,-2.54137 -2.1122,-3.64961 -2.1122,-3.74436 0,-0.0576 0.1601,-0.19927 0.35579,-0.31473 0.29082,-0.17159 0.37711,-0.18667 0.47255,-0.0826 0.0642,0.07 0.69403,1.13096 1.39959,2.35763 0.96548,1.67857 1.25183,2.25123 1.15753,2.31487 -0.19335,0.13046 -0.64528,0.36938 -0.69871,0.36938 -0.0263,0 -0.28484,-0.40508 -0.57455,-0.90019 z m -19.83067,-0.47457 c -0.0795,-0.14856 -0.0816,-0.27093 -0.007,-0.43376 0.0935,-0.2052 0.17564,-0.22954 0.86155,-0.25532 l 0.75819,-0.0285 v -0.34062 c 0,-0.33687 -0.005,-0.34118 -0.48659,-0.39296 -0.65425,-0.0704 -0.87185,-0.20946 -1.05879,-0.67666 -0.19386,-0.4845 -0.19876,-0.78466 -0.0198,-1.21291 0.21938,-0.52505 0.49987,-0.65005 1.38436,-0.61696 l 0.76476,0.0286 v 0.34062 0.34061 l -0.65584,0.0288 c -0.72565,0.0318 -0.91264,0.18467 -0.79573,0.65048 0.0548,0.21836 0.11145,0.24529 0.51595,0.24529 0.25425,0 0.5499,0.0669 0.67123,0.15188 0.47947,0.33584 0.64137,1.09151 0.37199,1.73623 -0.21818,0.52217 -0.47808,0.64216 -1.39096,0.64216 -0.71843,0 -0.81368,-0.0216 -0.91288,-0.20695 z m -21.62234,-0.67981 c -0.0937,-0.0528 -0.17031,-0.13764 -0.17031,-0.18841 0,-0.0709 1.32836,-2.01413 1.52315,-2.22824 0.0216,-0.0238 0.12166,0.0419 0.22227,0.14598 0.17969,0.1859 0.17014,0.20721 -0.54226,1.2105 -0.8746,1.23173 -0.82288,1.17864 -1.03285,1.06017 z m 44.2737,-0.97339 c -0.60897,-0.87401 -0.73147,-1.1083 -0.63822,-1.22065 0.0635,-0.0765 0.1735,-0.12622 0.24453,-0.11054 0.071,0.0157 0.4577,0.50639 0.85928,1.09047 0.56387,0.82011 0.70556,1.09161 0.62212,1.19214 -0.0594,0.0716 -0.1589,0.13018 -0.22107,0.13018 -0.0622,0 -0.45216,-0.48672 -0.86664,-1.0816 z m -47.05499,-1.14845 -0.32401,-0.27863 1.72782,-2.05447 c 0.9503,-1.12996 1.7749,-2.05309 1.83244,-2.0514 0.18156,0.005 0.66032,0.48449 0.61142,0.61192 -0.0791,0.20618 -3.30004,4.0062 -3.41536,4.02942 -0.0596,0.012 -0.2541,-0.10358 -0.43231,-0.25684 z m 48.68843,-1.77679 -1.72873,-2.06049 0.36423,-0.33379 c 0.20033,-0.18359 0.39792,-0.29646 0.43908,-0.25082 0.10478,0.11616 3.13448,3.74647 3.31024,3.96645 0.13141,0.16448 0.11488,0.20428 -0.19096,0.4596 -0.18416,0.15374 -0.36415,0.27953 -0.39998,0.27953 -0.0358,0 -0.84307,-0.92722 -1.79388,-2.06048 z m -39.13774,0.69625 c -0.4429,-0.29189 -0.68136,-0.94683 -0.5294,-1.45402 0.19732,-0.65862 0.73934,-0.97915 1.91038,-1.12973 0.48251,-0.062 0.4847,-0.0639 0.26171,-0.22262 -0.65339,-0.46503 -0.73036,-0.55964 -0.66549,-0.81811 0.0998,-0.3976 0.38347,-0.41752 0.99154,-0.0696 1.10772,0.63377 1.35194,1.0263 0.91214,1.4661 -0.28777,0.28777 -0.7415,0.45694 -1.56455,0.58334 -0.82403,0.12655 -0.95719,0.20688 -0.95719,0.57745 0,0.36414 0.2583,0.44925 0.59899,0.19737 0.44931,-0.33219 0.86078,-0.21098 0.86078,0.25357 0,0.31253 -0.58604,0.72991 -1.09544,0.78015 -0.30592,0.0302 -0.49347,-0.0123 -0.72347,-0.16388 z m 30.43146,-0.14293 c -0.20758,-0.25011 -0.0336,-0.57396 0.47191,-0.87866 0.4727,-0.2849 0.47827,-0.29388 0.34376,-0.55399 l -0.13672,-0.26439 -0.34433,0.20316 c -0.8487,0.50074 -1.99008,-0.18086 -1.99008,-1.18842 0,-0.54534 0.26436,-0.9292 0.90117,-1.30855 0.63908,-0.3807 0.98353,-0.39672 1.0933,-0.0508 0.087,0.2742 -0.0412,0.45049 -0.5876,0.80804 -0.54985,0.35979 -0.61732,0.52661 -0.34646,0.8566 l 0.19271,0.2348 0.49389,-0.27397 c 0.72938,-0.40459 0.9399,-0.34316 1.43909,0.41994 0.40074,0.61262 0.49873,0.98191 0.3308,1.24672 -0.13167,0.20761 -1.30963,0.89417 -1.53429,0.89423 -0.11388,3e-5 -0.2611,-0.0651 -0.32715,-0.14466 z m -42.47974,-1.11973 c -0.18269,-0.20188 -0.1785,-0.20829 0.7331,-1.1237 0.50426,-0.50637 0.96708,-0.92067 1.02849,-0.92067 0.0614,0 0.16859,0.0686 0.23817,0.15243 0.10905,0.1314 -0.008,0.28652 -0.84475,1.1237 l -0.97127,0.97127 z m 54.64257,-0.73145 c -0.76576,-0.76896 -0.9041,-0.95306 -0.81833,-1.08904 0.0568,-0.09 0.1445,-0.1774 0.19496,-0.19422 0.0505,-0.0168 0.52563,0.40495 1.05594,0.93726 0.82904,0.83216 0.94655,0.98912 0.83825,1.11962 -0.0693,0.0835 -0.17621,0.15177 -0.23762,0.15177 -0.0614,0 -0.52635,-0.41643 -1.0332,-0.92539 z m -44.7098,0.67515 c -0.0841,-0.0841 -0.15004,-0.24834 -0.14649,-0.36495 0.004,-0.1166 0.43278,-0.86891 0.95388,-1.67178 0.9679,-1.49128 1.18437,-1.69073 1.52664,-1.40667 0.26414,0.21922 0.14035,0.54863 -0.69646,1.8533 -1.1484,1.79048 -1.29492,1.93275 -1.63757,1.5901 z m 35.25418,-0.35799 c -0.12842,-0.10335 -1.47408,-2.29415 -1.82317,-2.9682 -0.20368,-0.3933 0.19155,-0.81328 0.57316,-0.60905 0.17852,0.0955 1.8364,2.79652 1.92538,3.13679 0.0497,0.19001 -0.22299,0.5621 -0.41191,0.5621 -0.0618,0 -0.18032,-0.0547 -0.26346,-0.12164 z m -47.49887,-2.06282 c -0.1472,-0.18447 -0.26763,-0.35668 -0.26763,-0.38268 0,-0.0638 4.06107,-3.46658 4.13719,-3.46658 0.0744,0 0.58273,0.59739 0.58273,0.68484 0,0.0674 -4.05282,3.49511 -4.13601,3.49809 -0.0268,9.7e-4 -0.16909,-0.14919 -0.31628,-0.33367 z m 58.17075,-1.35578 c -1.12252,-0.94049 -2.05407,-1.74938 -2.07012,-1.79752 -0.0328,-0.0983 0.44318,-0.69596 0.55422,-0.69596 0.0583,0 3.66181,2.96217 4.06787,3.34392 0.0912,0.0858 0.0467,0.19565 -0.19654,0.48521 l -0.31448,0.37434 z m -60.28104,-1.41105 c -0.057,-0.10656 -0.1037,-0.21205 -0.1037,-0.23442 0,-0.0224 0.48356,-0.37943 1.07457,-0.79348 0.87967,-0.61627 1.10031,-0.73146 1.21648,-0.63505 0.0781,0.0648 0.1419,0.16715 0.14189,0.22751 0,0.0922 -0.84106,0.7162 -1.95893,1.45337 -0.2594,0.17107 -0.26942,0.17058 -0.37031,-0.0179 z m 63.32346,-0.59297 c -1.02822,-0.74728 -1.04312,-0.76364 -0.87586,-0.96191 0.16938,-0.20076 0.17485,-0.19833 1.192,0.52978 0.56201,0.40231 1.06158,0.7711 1.11016,0.81954 0.1027,0.1024 -0.10343,0.39233 -0.27055,0.38054 -0.0603,-0.004 -0.58044,-0.34983 -1.15575,-0.76795 z m 0.63587,-3.24841 -2.35651,-1.36734 0.22281,-0.39413 c 0.12797,-0.22637 0.28184,-0.38041 0.36149,-0.36191 0.27554,0.064 4.56664,2.59151 4.56615,2.6895 -2.9e-4,0.0553 -0.0988,0.25817 -0.21896,0.45087 l -0.21847,0.35036 z m -65.81916,0.95146 c -0.13572,-0.21961 -0.18085,-0.3818 -0.12246,-0.44019 0.11744,-0.11744 4.62552,-2.72897 4.64932,-2.69335 0.01,0.0146 0.12026,0.19685 0.24561,0.40508 0.22308,0.37058 0.22395,0.38151 0.0412,0.51549 -0.34268,0.25128 -4.40221,2.5607 -4.50122,2.5607 -0.0537,0 -0.19427,-0.15648 -0.31248,-0.34773 z m 6.58498,-1.50366 c -1.16651,-0.35344 -1.18644,-1.9858 -0.0296,-2.42412 0.40188,-0.15227 0.7346,-0.12838 1.41566,0.10161 0.33454,0.11298 0.63159,0.18207 0.66011,0.15355 0.0285,-0.0285 -0.0615,-0.21872 -0.20008,-0.42264 -0.30441,-0.44798 -0.31711,-0.65819 -0.051,-0.84456 0.32645,-0.22866 0.54473,-0.0854 1.01196,0.66427 0.48877,0.7842 0.54247,1.09563 0.23664,1.37237 -0.28645,0.25921 -1.21785,0.23283 -1.97085,-0.0558 -0.46305,-0.17749 -0.61487,-0.19803 -0.80926,-0.10946 -0.18401,0.0838 -0.23219,0.17065 -0.20856,0.37583 0.0283,0.24614 0.0648,0.26715 0.47022,0.27133 0.55717,0.006 0.67965,0.0843 0.67965,0.43572 0,0.41281 -0.61763,0.65985 -1.20487,0.48192 z m 53.48475,-0.452 c -0.45019,-0.22187 -0.79832,-0.85371 -0.79998,-1.4519 -7.8e-4,-0.26292 -0.0277,-0.57628 -0.0598,-0.69636 -0.0545,-0.20316 -0.0817,-0.18795 -0.39241,0.21897 -0.39411,0.51615 -0.74645,0.58935 -0.92721,0.19262 -0.0999,-0.2193 -0.0627,-0.31599 0.35867,-0.93274 0.58628,-0.85806 0.80174,-1.01549 1.16394,-0.85046 0.37289,0.1699 0.63946,0.76266 0.73102,1.62554 0.0926,0.87302 0.15574,1.05713 0.38757,1.13071 0.45684,0.14499 0.6179,-0.20008 0.32863,-0.70411 -0.18537,-0.32299 -0.13419,-0.54663 0.16129,-0.70476 0.1756,-0.094 0.25036,-0.0632 0.53307,0.21952 0.432,0.432 0.52767,0.91559 0.27677,1.39907 -0.3324,0.64051 -1.09759,0.88112 -1.76152,0.5539 z m -61.6229,-1.10365 c -0.0533,-0.0995 -0.0968,-0.20598 -0.0968,-0.2366 0,-0.0747 2.23313,-1.12494 2.39204,-1.12494 0.11282,0 0.3005,0.36675 0.2201,0.43012 -0.0183,0.0144 -0.5699,0.27057 -1.22585,0.56926 -1.11397,0.50726 -1.19902,0.53115 -1.28946,0.36216 z m 70.09378,-0.35139 c -0.60215,-0.29136 -1.09415,-0.58309 -1.09333,-0.6483 0.005,-0.40264 0.16265,-0.38153 1.37217,0.18382 0.66289,0.30985 1.22021,0.57329 1.23848,0.58542 0.10097,0.067 -0.1207,0.42465 -0.25874,0.4174 -0.0901,-0.005 -0.65642,-0.24698 -1.25858,-0.53834 z m -63.90665,-0.57917 c -0.18523,-0.18524 -0.19809,-0.46698 -0.0278,-0.60834 0.0688,-0.0571 0.43014,-0.19077 0.80288,-0.29696 0.37274,-0.1062 0.60261,-0.19619 0.51082,-0.19999 -0.214,-0.009 -0.39675,-0.34809 -0.31917,-0.5925 0.033,-0.10392 0.18868,-0.26499 0.346,-0.35792 0.15732,-0.0929 0.28603,-0.24174 0.28603,-0.3307 0,-0.23144 0.22483,-0.38625 0.54814,-0.37741 0.15348,0.004 0.39975,-0.0218 0.54725,-0.0577 0.50361,-0.12266 0.78484,0.4696 0.36321,0.76492 -0.1944,0.13616 -0.19398,0.1404 0.0583,0.59179 0.23924,0.42804 0.24502,0.46852 0.0987,0.69175 -0.0872,0.13306 -0.31562,0.27915 -0.52056,0.33291 -1.05395,0.27646 -2.3586,0.59307 -2.44389,0.59307 -0.0534,0 -0.16588,-0.0688 -0.24999,-0.15293 z m 2.06415,-1.20952 c 0.11588,0 0.1288,-0.0287 0.0489,-0.10859 -0.0799,-0.0799 -0.16859,-0.0639 -0.33574,0.0606 -0.16129,0.12015 -0.17547,0.15163 -0.0489,0.10859 0.0981,-0.0334 0.24913,-0.0606 0.33574,-0.0606 z m 54.42201,0.0435 c -1.20562,-0.86938 -1.41549,-1.05908 -1.44113,-1.30259 -0.0222,-0.21042 0.0244,-0.31415 0.17791,-0.3963 0.11436,-0.0612 0.2657,-0.0891 0.33631,-0.062 0.16955,0.0651 2.47078,1.69033 2.75162,1.94336 0.36832,0.33185 0.23609,0.85054 -0.2141,0.83985 -0.10973,-0.003 -0.8345,-0.46265 -1.61061,-1.02231 z m -63.98172,-0.97132 c -0.083,-0.19857 -0.15085,-0.4116 -0.15085,-0.47341 0,-0.10124 4.7614,-1.90754 5.02827,-1.90754 0.0612,0 0.17733,0.19383 0.25805,0.43073 0.13434,0.39426 0.13305,0.43616 -0.0152,0.49488 -0.0891,0.0353 -1.16919,0.42917 -2.40026,0.87529 -1.23107,0.44612 -2.31276,0.84037 -2.40375,0.87611 -0.12605,0.0495 -0.20134,-0.021 -0.31628,-0.29606 z m 71.49341,-0.57831 c -1.35486,-0.49862 -2.4871,-0.93028 -2.51607,-0.95925 -0.10423,-0.10423 0.23345,-0.89245 0.36903,-0.8614 0.22505,0.0515 4.67886,1.67615 4.85815,1.7721 0.15722,0.0841 0.15783,0.11797 0.01,0.53035 -0.0871,0.24225 -0.18064,0.43693 -0.20782,0.43262 -0.0272,-0.004 -1.15796,-0.41581 -2.51282,-0.91442 z m 2.22039,-2.91397 c -0.85082,-0.23623 -1.12695,-0.35263 -1.15261,-0.48586 -0.0667,-0.34652 0.1406,-0.34692 1.3966,-0.003 0.69193,0.18966 1.27438,0.36115 1.29432,0.3811 0.0943,0.0943 -0.111,0.43891 -0.25569,0.42913 -0.0901,-0.006 -0.66724,-0.15086 -1.28262,-0.32172 z m -74.7915,0.0335 c -0.0353,-0.11108 -0.0491,-0.21434 -0.0309,-0.22945 0.0378,-0.0313 2.41458,-0.65805 2.56348,-0.676 0.0535,-0.006 0.11049,0.10158 0.12659,0.24008 0.0285,0.24484 -0.004,0.26035 -1.16782,0.55988 -0.65839,0.16943 -1.24887,0.30792 -1.31217,0.30776 -0.0633,-2e-4 -0.14394,-0.0912 -0.17919,-0.20227 z m -0.67259,-2.93189 c -0.0219,-0.0695 -0.0667,-0.28824 -0.0995,-0.48618 -0.0574,-0.34615 -0.0475,-0.36214 0.26005,-0.41908 2.79574,-0.51759 5.00508,-0.88265 5.05954,-0.83601 0.0377,0.0323 0.0815,0.25252 0.0973,0.48941 l 0.0288,0.43071 -2.33564,0.41494 c -1.28459,0.22821 -2.47853,0.44139 -2.65318,0.47372 -0.21718,0.0402 -0.33014,0.0189 -0.35736,-0.0675 z m 74.9488,-0.36697 c -1.43404,-0.25572 -2.62892,-0.48652 -2.65529,-0.51289 -0.0462,-0.0462 0.10173,-0.83325 0.16913,-0.89999 0.0511,-0.0506 5.21533,0.86663 5.28754,0.93908 0.0779,0.0782 -0.0452,0.96161 -0.1321,0.94826 -0.0341,-0.005 -1.23524,-0.21874 -2.66928,-0.47446 z m 1.63416,-3.26569 c -0.64229,-0.0671 -1.17269,-0.1267 -1.17865,-0.13251 -0.006,-0.006 0.0105,-0.12214 0.0366,-0.25853 0.0466,-0.24378 0.0583,-0.24695 0.69206,-0.18671 2.20252,0.20936 2.00403,0.16466 2.03791,0.45902 0.0356,0.30967 0.15509,0.30074 -1.58789,0.11873 z m -77.12452,-0.18503 c 0,-0.13749 0.011,-0.25463 0.0243,-0.26031 0.0134,-0.006 0.61554,-0.0632 1.33813,-0.12774 1.34283,-0.12002 1.4918,-0.0956 1.43405,0.23539 -0.0263,0.15044 -0.27463,0.19226 -1.99363,0.33567 l -0.80288,0.067 z m 6.19174,-2.05223 c -0.3427,-0.3427 -0.0734,-0.57811 0.83727,-0.73189 0.56944,-0.0962 0.66456,-0.13553 0.48665,-0.20146 -0.32114,-0.11901 -0.38607,-0.37692 -0.1442,-0.57277 0.19686,-0.15941 0.18642,-0.16685 -0.38238,-0.27263 -0.6726,-0.12508 -0.87936,-0.25986 -0.83841,-0.5465 0.0215,-0.15021 0.11106,-0.21107 0.34381,-0.23354 0.33739,-0.0326 3.27007,0.52577 3.55361,0.67655 0.26568,0.14129 0.201,0.37192 -0.14598,0.52055 l -0.31628,0.13549 0.31628,0.11263 c 0.38356,0.1366 0.42811,0.44517 0.0832,0.57631 -0.1282,0.0487 -0.88363,0.20202 -1.67874,0.34062 -0.7951,0.13861 -1.56066,0.27511 -1.70123,0.30334 -0.16288,0.0327 -0.3129,-0.006 -0.4136,-0.1067 z m 61.99848,-0.36308 c -0.20747,-0.34541 -0.0808,-1.89282 0.16995,-2.07599 0.14508,-0.10597 0.56344,-0.13799 1.80306,-0.13799 2.03038,0 1.99409,-0.0193 2.08074,1.10785 0.079,1.02837 -0.0144,1.3251 -0.41745,1.3251 -0.37829,0 -0.49242,-0.22166 -0.49242,-0.95637 0,-0.61695 -0.0631,-0.69804 -0.54321,-0.69804 -0.20886,0 -0.23533,0.0429 -0.23533,0.38131 0,0.52167 -0.0806,0.68919 -0.33156,0.68919 -0.31909,0 -0.44699,-0.18657 -0.44699,-0.65203 v -0.41847 h -0.38927 -0.38927 v 0.67428 c 0,0.48322 -0.0433,0.7176 -0.15293,0.8272 -0.21776,0.21776 -0.50208,0.18911 -0.65532,-0.066 z m -68.28754,-0.99751 v -0.53833 l 2.70058,0.0259 2.70057,0.0259 v 0.4866 0.48659 l -2.70057,0.0259 -2.70058,0.0259 z m 73.4941,-0.0243 0.0297,-0.46226 h 2.7249 2.72491 l 0.0297,0.46226 0.0297,0.46226 h -2.78423 -2.78422 z m -72.1803,-3.0911 c -0.6423,-0.068 -1.17877,-0.12836 -1.19215,-0.13417 -0.084,-0.0364 -0.002,-0.41403 0.0973,-0.451 0.0669,-0.0248 0.69096,0.009 1.38678,0.076 1.2523,0.11988 1.26514,0.12358 1.26514,0.36441 0,0.30089 -0.0435,0.30494 -1.55709,0.14472 z m 74.78889,-0.0688 c 0,-0.26691 -0.0773,-0.25016 1.97069,-0.42695 l 0.75421,-0.0651 v 0.24455 c 0,0.29687 -0.11237,0.32591 -1.63396,0.42219 l -1.09094,0.069 z m -72.98851,-2.71316 c -1.41841,-0.25822 -2.59372,-0.47117 -2.61181,-0.47323 -0.0539,-0.006 0.0962,-0.82527 0.16455,-0.89768 0.0679,-0.072 5.21977,0.81179 5.32078,0.9128 0.0888,0.0888 -0.0859,0.88716 -0.19885,0.90905 -0.0527,0.0102 -1.25626,-0.19272 -2.67467,-0.45094 z m 69.93866,0.32591 c -0.0245,-0.0401 -0.0599,-0.24706 -0.0787,-0.45982 l -0.0343,-0.38682 2.57893,-0.45876 c 1.41841,-0.25231 2.6287,-0.46143 2.68952,-0.4647 0.10747,-0.006 0.28943,0.84293 0.19991,0.93245 -0.0532,0.0532 -4.89256,0.91064 -5.13981,0.91064 -0.0941,0 -0.1911,-0.0328 -0.21556,-0.073 z m -70.52257,-4.090371 c -0.66906,-0.18952 -1.22568,-0.35039 -1.23694,-0.3575 -0.0815,-0.0515 0.11998,-0.44236 0.22805,-0.44236 0.11226,0 2.0264,0.49702 2.44258,0.63424 0.13346,0.044 0.0239,0.461851 -0.12919,0.492541 -0.0484,0.01 -0.63544,-0.1374 -1.3045,-0.326921 z m 72.46948,0.303071 c -0.0357,-0.0357 -0.0649,-0.13837 -0.0649,-0.228201 0,-0.12773 0.28103,-0.23671 1.28946,-0.50004 1.29443,-0.33801 1.43046,-0.33602 1.43396,0.0209 0.001,0.11364 -0.30469,0.23101 -1.20448,0.46226 -1.29756,0.333481 -1.35582,0.343301 -1.45406,0.245071 z m -70.27982,-2.760861 c -1.2846,-0.47462 -2.37776,-0.8791 -2.42926,-0.89885 -0.10093,-0.0387 0.0916,-0.80657 0.22258,-0.88749 0.0831,-0.0514 4.87889,1.66596 5.02091,1.79793 0.14798,0.1375 -0.11777,0.86918 -0.3122,0.85957 -0.0915,-0.005 -1.21743,-0.39654 -2.50203,-0.87116 z m 66.7194,0.47814 c -0.0661,-0.22068 -0.084,-0.4348 -0.0397,-0.47581 0.10428,-0.0966 4.99753,-1.88107 5.03054,-1.83452 0.0138,0.0194 0.0963,0.22361 0.18346,0.45372 0.15524,0.41 0.15415,0.42023 -0.0546,0.5095 -0.50222,0.21476 -4.79244,1.74835 -4.89102,1.74835 -0.0596,0 -0.16253,-0.18056 -0.22865,-0.40124 z m -59.64438,-1.07799 c -0.31298,-0.31298 -0.0251,-0.75908 0.48992,-0.75908 0.47937,0 0.62624,-0.47298 0.22791,-0.73398 -0.21442,-0.14049 -0.26267,-0.1407 -0.53041,-0.002 -0.162,0.0838 -0.38041,0.15232 -0.48536,0.15232 -0.18446,0 -0.69471,-0.50583 -0.69471,-0.68869 0,-0.19476 -0.18928,-0.0728 -0.38927,0.25076 -0.30667,0.49621 -0.87586,0.43407 -0.87586,-0.0956 0,-0.2331 0.74698,-1.40065 0.98995,-1.54733 0.26707,-0.16123 0.64194,0.083 0.88019,0.57335 0.21506,0.44267 0.21514,0.44271 0.62851,0.38072 0.51805,-0.0777 1.17495,0.21311 1.42052,0.62883 0.35008,0.59263 0.14679,1.464 -0.4196,1.79858 -0.31429,0.18565 -1.07264,0.21153 -1.24179,0.0424 z m 53.18075,-1.54857 c -0.47771,-0.25203 -0.79634,-0.90567 -0.69773,-1.43132 0.10053,-0.53588 0.74608,-1.12784 1.45452,-1.33379 0.74915,-0.21778 2.00148,-0.16383 2.29161,0.0987 0.23869,0.21601 0.24734,0.37359 0.0323,0.58862 -0.13342,0.13342 -0.27011,0.15145 -0.7427,0.098 -0.53698,-0.0607 -0.57304,-0.0526 -0.49468,0.11106 0.0465,0.0971 0.0851,0.42492 0.0858,0.72843 0.001,0.62275 -0.22635,0.96866 -0.79846,1.21243 -0.42093,0.17936 -0.68606,0.16244 -1.13069,-0.0721 z m 1.05831,-0.96829 c 0.12776,-0.20671 -0.0524,-0.57414 -0.31359,-0.6397 -0.51561,-0.12941 -0.78075,0.64953 -0.28491,0.83701 0.20879,0.0789 0.4838,-0.0117 0.5985,-0.19731 z m -52.61928,0.16734 c -1.01875,-0.37811 -1.81713,-1.10934 -2.02609,-1.85569 -0.0997,-0.35625 -0.0939,-0.46763 0.0382,-0.72293 0.20058,-0.38788 0.42387,-0.50221 0.98088,-0.50221 1.14189,0 2.67662,1.30492 2.67662,2.27582 0,0.13826 -0.12044,0.38616 -0.26763,0.55088 -0.31872,0.35668 -0.86085,0.45495 -1.40194,0.25413 z m 0.69639,-0.97227 c 0,-0.20065 -0.6647,-0.81806 -1.11584,-1.03645 -0.79484,-0.38478 -0.98054,-0.15163 -0.36751,0.46141 0.57486,0.57485 1.48335,0.92704 1.48335,0.57504 z m -9.3182,0.12088 c -0.65568,-0.31651 -1.19215,-0.6108 -1.19215,-0.65397 0,-0.0432 0.0547,-0.14851 0.12165,-0.23408 0.10858,-0.13887 0.2539,-0.0912 1.35298,0.44366 1.17216,0.57045 1.2264,0.60977 1.12862,0.81821 -0.0565,0.12043 -0.12888,0.21507 -0.16084,0.21031 -0.032,-0.005 -0.59458,-0.26762 -1.25026,-0.58413 z m 67.96751,0.37807 c -0.0309,-0.11809 -0.0469,-0.21896 -0.0357,-0.22416 0.0112,-0.005 0.56234,-0.2608 1.22463,-0.56802 0.6623,-0.30722 1.21473,-0.54575 1.22763,-0.53006 0.0129,0.0157 0.0719,0.12171 0.13101,0.23561 0.10147,0.19535 0.0398,0.23806 -1.0896,0.75421 -0.65845,0.30093 -1.24323,0.54714 -1.29951,0.54714 -0.0563,0 -0.1276,-0.0966 -0.15848,-0.21472 z m -65.38432,-2.39533 c -1.26887,-0.73223 -2.30759,-1.37513 -2.30827,-1.42865 -6.8e-4,-0.0535 0.0978,-0.25837 0.21891,-0.4552 l 0.22013,-0.35788 2.28277,1.31461 c 1.25552,0.72303 2.31934,1.34982 2.36404,1.39286 0.065,0.0626 -0.36301,0.89718 -0.44743,0.87239 -0.0127,-0.004 -1.06128,-0.60589 -2.33015,-1.33813 z m 61.73774,1.21601 c -0.0501,-0.0629 -0.16231,-0.25473 -0.24941,-0.42626 l -0.15835,-0.31186 0.65711,-0.38188 c 1.33908,-0.77821 3.72961,-2.15412 3.91477,-2.25321 0.16685,-0.0893 0.21758,-0.0508 0.3972,0.30126 0.171,0.33519 0.18387,0.42434 0.0759,0.52576 -0.0715,0.0672 -1.12364,0.69329 -2.33809,1.39136 -1.6001,0.91975 -2.23316,1.23773 -2.29914,1.15483 z m 0.46407,-4.356062 c -0.0598,-0.111633 -0.0941,-0.214351 -0.0764,-0.228261 0.0177,-0.01391 0.51018,-0.359894 1.09437,-0.768852 0.81992,-0.573979 1.09181,-0.718958 1.19215,-0.635684 0.0715,0.05933 0.12998,0.164916 0.12998,0.234629 0,0.107073 -2.03601,1.60114 -2.18192,1.60114 -0.0272,0 -0.0984,-0.09134 -0.15817,-0.202972 z m -61.50052,-0.63699 c -0.56201,-0.402402 -1.00729,-0.782965 -0.98951,-0.845697 0.10624,-0.374839 0.23713,-0.331364 1.3315,0.442265 0.9646,0.681885 1.09713,0.808176 1.01304,0.965301 -0.0532,0.09943 -0.14994,0.178299 -0.21497,0.175273 -0.065,-0.003 -0.57805,-0.33474 -1.14006,-0.737142 z m 2.89521,-1.550176 c -1.11064,-0.936611 -2.01817,-1.73449 -2.01673,-1.773063 0.001,-0.03857 0.12786,-0.221178 0.28093,-0.405789 l 0.27831,-0.335657 2.01628,1.692489 c 1.10895,0.930868 2.03926,1.752373 2.06734,1.825566 0.0459,0.119609 -0.41785,0.709699 -0.552,0.702375 -0.0301,-0.0016 -0.96349,-0.76931 -2.07413,-1.705921 z m 54.57913,1.408788 c -0.14267,-0.169558 -0.24328,-0.356665 -0.22357,-0.415792 0.0197,-0.05913 0.94627,-0.873058 2.05902,-1.808734 l 2.02318,-1.701228 0.28064,0.314091 c 0.15435,0.17275 0.28064,0.356247 0.28064,0.40777 0,0.08725 -3.90535,3.421259 -4.08077,3.483769 -0.0439,0.01563 -0.19646,-0.110319 -0.33914,-0.279876 z m -43.06927,-2.241437 c -0.52883,-0.210997 -0.75208,-0.659474 -0.46913,-0.942424 0.14522,-0.145217 0.49059,-0.151711 0.63044,-0.01185 0.0577,0.05771 0.23069,0.09055 0.38441,0.07299 0.59395,-0.06787 0.31357,-0.859141 -0.30443,-0.859141 -0.43293,0 -0.63257,-0.256433 -0.63257,-0.812514 v -0.456576 l -0.4034,0.205798 c -0.32756,0.16711 -0.44768,0.185623 -0.63895,0.09847 -0.1803,-0.08215 -0.22835,-0.169909 -0.20484,-0.374127 0.0258,-0.223877 0.15598,-0.332809 0.80926,-0.677065 0.4282,-0.225645 0.81338,-0.411766 0.85596,-0.413601 0.0426,-0.0018 0.18792,0.107175 0.323,0.242249 0.22148,0.221479 0.23932,0.295688 0.18182,0.755959 l -0.0638,0.510372 0.34233,0.12379 c 0.18829,0.06809 0.47672,0.276842 0.64096,0.463903 0.55082,0.627349 0.34038,1.663714 -0.41015,2.019863 -0.3824,0.181462 -0.68232,0.196994 -1.04095,0.05391 z m 30.93367,-1.33971 c -0.33644,-0.336446 -0.37782,-0.430235 -0.37782,-0.856399 0,-0.522131 0.11886,-0.712139 0.44548,-0.712139 0.27661,0 0.40701,0.167684 0.44676,0.574485 0.038,0.38915 0.29005,0.595935 0.5367,0.440352 0.32749,-0.206576 0.36945,-0.392983 0.18204,-0.80859 -0.16266,-0.360727 -0.16489,-0.414169 -0.0261,-0.626006 0.0835,-0.127384 0.28653,-0.287432 0.45125,-0.355662 0.16472,-0.06823 0.29895,-0.151586 0.29829,-0.185236 -6.9e-4,-0.03365 -0.15394,-0.160119 -0.34062,-0.281042 -0.35441,-0.229578 -0.44769,-0.557452 -0.22262,-0.782516 0.1999,-0.199903 0.45644,-0.131177 1.0807,0.289517 0.72087,0.4858 0.75814,0.532415 0.72557,0.907495 -0.0208,0.239922 -0.1117,0.338522 -0.50987,0.553249 l -0.48452,0.261296 -0.002,0.565907 c -0.003,0.888554 -0.49823,1.393111 -1.36666,1.393111 -0.40307,0 -0.50451,-0.04582 -0.83652,-0.377822 z m -28.60375,0.06154 c -0.36346,-0.183282 -0.43422,-0.264815 -0.43422,-0.500313 0,-0.394021 0.24038,-0.523882 0.67729,-0.365893 0.44543,0.16107 0.73382,0.07138 0.73382,-0.228229 0,-0.305378 -0.2447,-0.535642 -0.56921,-0.535642 -0.48036,0 -0.69593,-0.243484 -0.69593,-0.78604 v -0.48305 l -0.3948,0.201415 c -0.22542,0.114998 -0.47585,0.175695 -0.58369,0.141469 -0.24524,-0.07784 -0.34871,-0.487392 -0.17586,-0.696097 0.14125,-0.170553 1.41,-0.810647 1.6068,-0.810647 0.0645,0 0.21254,0.120431 0.32891,0.267624 0.17906,0.226496 0.20245,0.346143 0.15219,0.778544 -0.0401,0.344569 -0.0243,0.51092 0.0484,0.51092 0.0593,0 0.26191,0.07313 0.45027,0.162517 0.98664,0.468191 0.93975,2.001125 -0.0736,2.406591 -0.50177,0.200771 -0.55295,0.19775 -1.07037,-0.06317 z m -12.44149,-1.390466 c -0.48805,-0.510512 -0.88737,-0.964978 -0.88737,-1.009923 0,-0.04494 0.0683,-0.138402 0.15177,-0.20768 0.1305,-0.108302 0.28702,0.0088 1.11638,0.835022 0.90727,0.903865 0.9552,0.971382 0.80633,1.135885 -0.0871,0.0962 -0.19011,0.1749 -0.22901,0.1749 -0.0389,0 -0.47005,-0.417692 -0.9581,-0.928204 z m 3.04713,-1.129133 -1.72848,-2.057336 0.33243,-0.275678 c 0.18284,-0.151622 0.37622,-0.274054 0.42975,-0.27207 0.0835,0.0031 0.95608,1.021129 3.00695,3.508304 l 0.47669,0.5781 -0.27593,0.288008 c -0.15176,0.158405 -0.32925,0.288009 -0.39443,0.288009 -0.0652,0 -0.89632,-0.925802 -1.84698,-2.057337 z m 45.87333,1.776768 -0.31401,-0.280567 0.48278,-0.582509 c 0.26553,-0.32038 1.0302,-1.242635 1.69926,-2.049457 0.66906,-0.806822 1.26192,-1.469472 1.31747,-1.472556 0.0555,-0.0031 0.24968,0.118521 0.43141,0.270233 l 0.33041,0.275839 -1.72745,2.059793 c -0.9501,1.132886 -1.7676,2.059793 -1.81666,2.059793 -0.0491,0 -0.2305,-0.126255 -0.40321,-0.280569 z m 4.13791,0.100312 c -0.0985,-0.157685 0.008,-0.300152 0.84855,-1.137772 0.95489,-0.951303 0.96244,-0.956327 1.16359,-0.774282 l 0.20247,0.183235 -0.95095,0.954537 c -0.52303,0.524997 -0.99599,0.954539 -1.05102,0.954539 -0.055,0 -0.15072,-0.08112 -0.21264,-0.180257 z M 159.9286,80.235577 c -0.0773,-0.09313 -0.10328,-0.711183 -0.0849,-2.019348 l 0.0265,-1.885148 0.31651,-0.03051 c 0.31018,-0.0299 0.32528,-0.01251 0.75422,0.868799 l 0.4377,0.899311 v -0.788859 c 0,-0.587387 0.0391,-0.827916 0.15293,-0.941787 0.19411,-0.194111 0.3759,-0.194111 0.57001,0 0.21781,0.217812 0.22887,3.750248 0.0123,3.929982 -0.32917,0.273187 -0.5662,0.08257 -1.0231,-0.822757 l -0.44202,-0.875862 -0.0288,0.773933 c -0.0158,0.425662 -0.0759,0.830748 -0.13357,0.900191 -0.13705,0.165146 -0.41743,0.161153 -0.55776,-0.0079 z m -17.5711,-2.261641 c -0.73168,-1.264187 -1.31081,-2.34939 -1.28695,-2.41156 0.0491,-0.127988 0.72009,-0.511703 0.77552,-0.443502 0.0198,0.02441 0.55259,0.942149 1.18387,2.03941 0.63129,1.09726 1.23221,2.135329 1.33538,2.30682 l 0.18759,0.311801 -0.39251,0.247777 c -0.21587,0.136278 -0.41051,0.247778 -0.43253,0.247778 -0.022,0 -0.63868,-1.034336 -1.37037,-2.298524 z m 35.80845,2.069568 c -0.2141,-0.124165 -0.38187,-0.266102 -0.37281,-0.315413 0.0141,-0.07661 2.53101,-4.48748 2.62915,-4.607511 0.0192,-0.02348 0.23463,0.05435 0.47875,0.172953 l 0.44385,0.215638 -0.19422,0.329166 c -0.10681,0.181041 -0.72713,1.252782 -1.37848,2.381644 -0.65135,1.128864 -1.19162,2.051759 -1.20062,2.050878 -0.009,-8.76e-4 -0.19152,-0.10319 -0.40562,-0.227355 z m 4.11168,-0.560485 c -0.0937,-0.05285 -0.1703,-0.14136 -0.1703,-0.196686 0,-0.122654 1.46479,-2.226623 1.54715,-2.222273 0.0322,0.0017 0.13553,0.06149 0.22956,0.132859 0.15756,0.119587 0.11263,0.21283 -0.57299,1.189051 -0.91431,1.301831 -0.82969,1.212 -1.03342,1.097049 z m -43.20367,-1.098321 c -0.56165,-0.826118 -0.72089,-1.129015 -0.63743,-1.212477 0.0612,-0.06119 0.16498,-0.111255 0.23064,-0.111255 0.094,0 1.13389,1.372753 1.53297,2.023611 0.0854,0.139285 -0.0945,0.411653 -0.26776,0.405341 -0.0603,-0.0022 -0.44664,-0.499548 -0.85842,-1.10522 z m 9.85795,-0.95879 c -0.11431,-0.303454 -0.92432,-2.532659 -1.38106,-3.800774 l -0.37874,-1.051542 0.33651,-0.140604 c 0.18509,-0.07733 0.39779,-0.140605 0.47267,-0.140605 0.0896,0 0.44106,0.84114 1.02689,2.45728 0.48991,1.351504 0.88987,2.505089 0.88881,2.563523 -0.002,0.08851 -0.60169,0.331688 -0.8185,0.331688 -0.0353,0 -0.10122,-0.09853 -0.14658,-0.218966 z m 23.7599,0.0987 c -0.17396,-0.05639 -0.31628,-0.157449 -0.31628,-0.224578 0,-0.117793 1.69935,-4.844182 1.80062,-5.008029 0.0377,-0.06097 0.70442,0.123192 0.90373,0.249625 0.0155,0.0098 -0.38353,1.151102 -0.88664,2.536211 -0.56792,1.563502 -0.96602,2.52424 -1.04995,2.533838 -0.0744,0.0085 -0.27752,-0.03068 -0.45148,-0.08707 z m -27.86405,-2.473016 c -0.31948,-0.676956 -0.56908,-1.240335 -0.55467,-1.251951 0.0144,-0.01162 0.11831,-0.06896 0.2309,-0.127416 0.19221,-0.0998 0.24085,-0.02934 0.79698,1.154365 0.5535,1.178152 0.58033,1.267045 0.40992,1.358245 -0.10028,0.05367 -0.20932,0.09759 -0.2423,0.09759 -0.033,0 -0.32136,-0.553873 -0.64083,-1.23083 z m 31.75859,1.109182 c -0.0663,-0.08485 0.0764,-0.482264 0.47174,-1.313793 0.31171,-0.65568 0.60349,-1.192146 0.64839,-1.192146 0.0449,0 0.15142,0.05474 0.23669,0.121648 0.13831,0.108526 0.0938,0.250241 -0.41283,1.313793 -0.5502,1.155061 -0.72402,1.352175 -0.94399,1.070498 z M 154.71206,75.86964 c -0.19181,-0.79498 -0.89686,-5.097489 -0.84371,-5.148659 0.0709,-0.06827 0.88988,-0.218524 0.89688,-0.164547 0.002,0.01809 0.2164,1.215298 0.47568,2.66047 0.25928,1.445173 0.44349,2.654832 0.40934,2.688132 -0.0341,0.0333 -0.24727,0.08841 -0.47362,0.122468 -0.37142,0.05589 -0.41671,0.0405 -0.46457,-0.157864 z m 12.23305,0.123189 c -0.17667,-0.04241 -0.33438,-0.09314 -0.35046,-0.112728 -0.0402,-0.04897 0.88704,-5.246625 0.94661,-5.3062 0.0664,-0.06637 0.94215,0.07178 0.93897,0.148114 -0.001,0.03407 -0.21239,1.244321 -0.46882,2.689454 -0.50053,2.820823 -0.46158,2.726539 -1.0663,2.58136 z m -6.29903,-0.606677 c -0.0271,-0.07066 -0.0376,-1.310232 -0.0233,-2.754607 l 0.026,-2.626135 h 0.48659 0.48659 v 2.724904 2.724904 l -0.46326,0.0297 c -0.31636,0.02028 -0.47888,-0.01103 -0.51255,-0.09877 z m -9.57338,-2.597908 c -0.17859,-0.690725 -0.29507,-1.303828 -0.25884,-1.362452 0.0362,-0.05862 0.14457,-0.106589 0.24075,-0.106589 0.14238,0 0.23815,0.2397 0.51524,1.289464 0.34316,1.300069 0.34103,1.430306 -0.0234,1.43395 -0.10964,0.0011 -0.23481,-0.330347 -0.47373,-1.254373 z m 19.43065,1.200295 c -0.0489,-0.04892 0.5755,-2.568831 0.65762,-2.653893 0.0705,-0.07306 0.4361,0.102516 0.43739,0.210081 7.8e-4,0.0633 -0.14157,0.651505 -0.31628,1.307125 -0.27749,1.041284 -0.3433,1.192049 -0.52041,1.192145 -0.11151,6.1e-5 -0.22775,-0.0249 -0.25832,-0.05546 z m -12.76409,-1.10097 c -0.0187,-0.03297 -0.0625,-0.432178 -0.0975,-0.88714 -0.0349,-0.454962 -0.0898,-1.060554 -0.1219,-1.345761 l -0.0584,-0.518557 0.27979,0.03197 c 0.27775,0.03173 0.28027,0.038 0.34499,0.859171 0.0359,0.454962 0.087,1.052704 0.11361,1.328315 0.0455,0.470881 0.0341,0.503852 -0.18918,0.546527 -0.13066,0.02498 -0.25284,0.01844 -0.27149,-0.01452 z m 6.52743,0.01698 c -0.14401,-0.03674 -0.16768,-0.112412 -0.12567,-0.401707 0.0285,-0.196039 0.0778,-0.684884 0.10954,-1.086321 0.0913,-1.153846 0.12616,-1.265134 0.39592,-1.265134 0.27429,0 0.27253,-0.02788 0.10407,1.646707 -0.0615,0.611302 -0.1556,1.120519 -0.20912,1.131593 -0.0535,0.01107 -0.17716,-1.95e-4 -0.27474,-0.02514 z"
       id="path907"
       inkscape:connector-curvature="0" />
  </g>
</svg>
