<?xml version="1.0" encoding="UTF-8" standalone="no"?>
<!-- Created with Inkscape (http://www.inkscape.org/) -->

<svg
   xmlns:dc="http://purl.org/dc/elements/1.1/"
   xmlns:cc="http://creativecommons.org/ns#"
   xmlns:rdf="http://www.w3.org/1999/02/22-rdf-syntax-ns#"
   xmlns:svg="http://www.w3.org/2000/svg"
   xmlns="http://www.w3.org/2000/svg"
   xmlns:sodipodi="http://sodipodi.sourceforge.net/DTD/sodipodi-0.dtd"
   xmlns:inkscape="http://www.inkscape.org/namespaces/inkscape"
   width="48.311802mm"
   height="87.965294mm"
   viewBox="0 0 48.311802 87.965293"
   version="1.1"
   id="svg8"
   inkscape:version="0.92.3 (2405546, 2018-03-11)"
   sodipodi:docname="frontal_border_plate_A.svg">
  <defs
     id="defs2" />
  <sodipodi:namedview
     id="base"
     pagecolor="#ffffff"
     bordercolor="#666666"
     borderopacity="1.0"
     inkscape:pageopacity="0.0"
     inkscape:pageshadow="2"
     inkscape:zoom="3.959798"
     inkscape:cx="74.992657"
     inkscape:cy="169.68488"
     inkscape:document-units="mm"
     inkscape:current-layer="layer1"
     showgrid="false"
     inkscape:window-width="3840"
     inkscape:window-height="2040"
     inkscape:window-x="0"
     inkscape:window-y="0"
     inkscape:window-maximized="1" />
  <metadata
     id="metadata5">
    <rdf:RDF>
      <cc:Work
         rdf:about="">
        <dc:format>image/svg+xml</dc:format>
        <dc:type
           rdf:resource="http://purl.org/dc/dcmitype/StillImage" />
        <dc:title></dc:title>
      </cc:Work>
    </rdf:RDF>
  </metadata>
  <g
     inkscape:label="Livello 1"
     inkscape:groupmode="layer"
     id="layer1"
     transform="translate(-128.92164,-66.077819)">
    <path
       style="fill:#000000;stroke-width:0.09745982"
       d="m 149.86412,153.78696 c -0.18936,-0.48696 -0.50419,-1.64981 -0.50419,-1.86224 0,-0.13897 0.0609,-0.20878 0.18225,-0.20878 0.13489,0 0.21478,0.12032 0.30741,0.46294 0.18769,0.69426 0.2203,0.7043 0.39571,0.12182 0.0989,-0.32845 0.22292,-0.54823 0.32024,-0.56754 0.25286,-0.0502 0.22628,0.16591 -0.24067,1.95634 -0.11235,0.43081 -0.3145,0.47357 -0.46075,0.0975 z m 2.3675,0.0487 c -0.0607,-0.16069 0.38931,-2.00863 0.52121,-2.14054 0.22117,-0.22116 0.38271,0.0379 0.64824,1.03974 0.2033,0.76702 0.24671,1.06708 0.16602,1.14776 -0.0807,0.0807 -0.15644,0.0665 -0.28977,-0.0541 -0.22225,-0.20113 -0.41142,-0.20696 -0.65822,-0.0203 -0.23453,0.17739 -0.32837,0.18404 -0.38748,0.0275 z m 0.83029,-0.68222 c -7.8e-4,-0.067 -0.0386,-0.18032 -0.0839,-0.25182 -0.0657,-0.1037 -0.095,-0.0971 -0.14469,0.0323 -0.0968,0.25216 -0.0748,0.34131 0.0839,0.34131 0.0804,0 0.14552,-0.0548 0.1447,-0.12183 z m 2.06003,0.67948 c -0.0679,-0.0679 -0.10934,-0.52663 -0.10934,-1.21063 v -1.1013 h 0.42543 c 0.56631,0 0.93901,0.28554 0.93901,0.7194 0,0.17347 -0.0602,0.39768 -0.13369,0.49824 -0.11356,0.15529 -0.11264,0.2332 0.006,0.5173 0.0769,0.18396 0.11647,0.39514 0.088,0.46929 -0.0945,0.24614 -0.33356,0.13951 -0.44512,-0.19851 -0.0605,-0.18332 -0.17354,-0.38604 -0.2512,-0.4505 -0.11976,-0.0994 -0.14121,-0.0503 -0.14121,0.32289 0,0.45515 -0.16605,0.64573 -0.37796,0.43382 z m 0.81653,-1.58098 c 0,-0.12794 -0.0754,-0.20562 -0.21929,-0.22606 -0.17988,-0.0256 -0.21928,0.0151 -0.21928,0.22606 0,0.21099 0.0394,0.25161 0.21928,0.22606 0.14393,-0.0204 0.21929,-0.0981 0.21929,-0.22606 z m 9.81294,-0.4142 c -0.0473,-0.0938 -0.21336,-0.5357 -0.36891,-0.982 -0.27966,-0.8024 -0.28066,-0.81301 -0.0898,-0.95305 0.32206,-0.23627 0.91668,-0.38094 1.04369,-0.25393 0.14417,0.14417 -0.0214,0.34753 -0.41607,0.511 -0.40752,0.1688 -0.34273,0.43536 0.10582,0.43536 0.42727,0 0.52546,0.28322 0.15648,0.45133 -0.19919,0.0908 -0.22829,0.1466 -0.15135,0.29037 0.0773,0.14443 0.14207,0.1602 0.34348,0.0836 0.13652,-0.0519 0.35822,-0.0944 0.49267,-0.0944 0.35614,0 0.26068,0.30048 -0.16096,0.50667 -0.44758,0.21888 -0.84608,0.22096 -0.95509,0.005 z m -27.18205,-0.19492 c 0.0273,-0.14741 0.16878,-0.55006 0.31444,-0.89477 0.24837,-0.58778 0.25431,-0.63446 0.0954,-0.75063 -0.24286,-0.17759 -0.11232,-0.46302 0.17838,-0.39006 0.56539,0.1419 0.95566,0.36578 0.92183,0.5288 -0.0231,0.11136 -0.11848,0.161 -0.28772,0.14975 -0.23148,-0.0154 -0.28034,0.0535 -0.57052,0.80404 -0.24914,0.64443 -0.35864,0.82088 -0.5094,0.82088 -0.15654,0 -0.18287,-0.0495 -0.14244,-0.26801 z m 29.07004,-0.53603 c -0.0257,-0.12061 -0.0991,-0.62914 -0.16316,-1.13006 -0.0967,-0.75593 -0.0939,-0.92471 0.016,-0.99266 0.19623,-0.12128 0.30956,-0.0244 0.96518,0.82472 0.63872,0.82727 0.70796,1.09718 0.26953,1.05072 -0.32235,-0.0342 -0.65476,0.13023 -0.65476,0.3238 0,0.23662 -0.38047,0.16935 -0.43282,-0.0765 z m 0.59661,-0.63656 c 0.0838,-0.0533 0.0645,-0.13897 -0.0709,-0.31525 l -0.186,-0.24207 -0.002,0.31674 c -0.002,0.32154 0.0523,0.37211 0.25909,0.24058 z m -31.70471,0.618 c -0.36692,-0.15967 -0.44132,-0.26173 -0.3264,-0.44769 0.0735,-0.11892 0.13536,-0.12067 0.40778,-0.0115 0.48392,0.19389 0.6102,0.18357 0.64386,-0.0526 0.0222,-0.15592 -0.0502,-0.25536 -0.26796,-0.36798 -0.24463,-0.1265 -0.29842,-0.21437 -0.29842,-0.48749 0,-0.20994 0.0854,-0.43243 0.23082,-0.60153 0.21993,-0.25568 0.24929,-0.26282 0.62193,-0.15117 0.462,0.13842 0.63378,0.30855 0.51143,0.50652 -0.0737,0.11927 -0.13977,0.12082 -0.44502,0.0104 -0.30028,-0.10858 -0.37208,-0.10812 -0.4424,0.003 -0.13249,0.2091 -0.10605,0.26377 0.20545,0.42486 0.24605,0.12724 0.29238,0.20914 0.29238,0.51685 0,0.71806 -0.42679,0.96601 -1.13345,0.65848 z m -1.76598,-0.73964 c -0.32223,-0.14318 -0.4142,-0.23633 -0.4142,-0.41952 0,-0.26834 0.64392,-1.73527 0.80557,-1.83517 0.12151,-0.0751 0.83063,0.17523 1.03779,0.36636 0.11002,0.1015 0.11363,0.1563 0.0179,0.27164 -0.10344,0.12464 -0.17134,0.12633 -0.49448,0.0123 -0.20601,-0.0727 -0.40046,-0.10626 -0.43211,-0.0746 -0.12201,0.12201 -0.0487,0.37351 0.14387,0.4938 0.28529,0.17816 0.18021,0.35967 -0.20822,0.35967 -0.4521,0 -0.49262,0.25778 -0.0698,0.44385 0.20207,0.0889 0.33171,0.22181 0.35136,0.36019 0.0388,0.27296 -0.15878,0.27871 -0.73773,0.0215 z m 34.82795,0.0436 c -0.0889,-0.23165 -0.0915,-0.22875 0.38371,-0.43244 0.39579,-0.16965 0.43168,-0.21072 0.33768,-0.38637 -0.12185,-0.22767 -0.14201,-0.23218 -0.40619,-0.0908 -0.519,0.27776 -1.10512,-0.39511 -0.85988,-0.98716 0.11779,-0.28439 0.5452,-0.52351 0.83521,-0.46729 0.31556,0.0612 0.25033,0.2649 -0.15025,0.46926 -0.3454,0.17622 -0.38464,0.2282 -0.29649,0.3929 0.085,0.15891 0.17006,0.18043 0.5221,0.13218 0.37645,-0.0516 0.44259,-0.0296 0.63122,0.21024 0.37948,0.48242 0.2609,0.86744 -0.34747,1.12822 -0.52479,0.22495 -0.5744,0.22734 -0.64964,0.0313 z m -36.50913,-0.92485 c 0,-0.1869 -0.0118,-0.19005 -0.15941,-0.0425 -0.2917,0.29169 -0.35932,0.0221 -0.1869,-0.7451 0.28764,-1.27982 0.34645,-1.44705 0.50893,-1.44705 0.12609,0 0.1459,0.0817 0.10588,0.4368 -0.0322,0.28525 -0.0145,0.41534 0.0508,0.37495 0.055,-0.034 0.15037,0.007 0.21184,0.091 0.0973,0.13308 0.13638,0.11613 0.30196,-0.13102 0.1777,-0.26523 0.5313,-0.39498 0.5313,-0.19495 0,0.0492 -0.24847,0.48779 -0.55216,0.9746 -0.53789,0.86224 -0.81228,1.09303 -0.81228,0.68323 z m 38.77859,-0.1636 c -0.40689,-1.11571 -0.53775,-1.34023 -0.79902,-1.37091 -0.41977,-0.0493 -0.30884,-0.29782 0.24811,-0.55586 0.45873,-0.21253 0.5257,-0.22139 0.65785,-0.087 0.13133,0.13354 0.1272,0.16438 -0.0384,0.28717 -0.1803,0.13368 -0.17656,0.16077 0.13261,0.96048 0.17498,0.45261 0.28878,0.87045 0.25288,0.92854 -0.11947,0.1933 -0.35504,0.10904 -0.45403,-0.1624 z m 4.52342,-74.62985 c 0.0635,-0.391192 -0.0367,-0.439575 -0.25232,-0.121824 -0.11075,0.163235 -0.17778,0.191421 -0.26222,0.110269 -0.0856,-0.08226 -0.0211,-0.260007 0.26278,-0.724179 0.20692,-0.338341 0.4216,-0.630293 0.47707,-0.648784 0.14285,-0.04761 0.62198,0.41831 0.62198,0.60484 0,0.08552 -0.1,0.252081 -0.22217,0.370128 -0.12219,0.118047 -0.27475,0.335237 -0.33902,0.482645 -0.17054,0.391144 -0.35384,0.344314 -0.2861,-0.07309 z m 0.45745,-0.773926 c 0,-0.07724 -0.0439,-0.167543 -0.0975,-0.200672 -0.0536,-0.03313 -0.0975,-0.0393 -0.0975,-0.01372 0,0.02558 -0.0266,0.115883 -0.0592,0.200671 -0.0388,0.101162 -0.005,0.154161 0.0975,0.154161 0.0861,0 0.15662,-0.0632 0.15662,-0.140438 z m -1.98168,0.172924 c -0.13756,-0.137558 -0.0558,-0.700113 0.1375,-0.945827 0.28964,-0.36822 0.53494,-0.480571 0.77212,-0.353637 0.32024,0.171387 0.22649,0.650456 -0.22409,1.145153 -0.19155,0.210308 -0.54906,0.290783 -0.68553,0.154311 z m 0.61614,-0.566738 c 0.22634,-0.366216 0.18692,-0.635006 -0.0627,-0.427812 -0.19484,0.161701 -0.43025,0.63042 -0.35461,0.706058 0.11848,0.118476 0.20977,0.05761 0.41734,-0.278246 z m -46.28097,-0.380677 c -0.18137,-0.341497 -0.30292,-0.664343 -0.2701,-0.717436 0.0328,-0.05309 0.19849,-0.15404 0.36818,-0.224327 0.28395,-0.117613 0.32293,-0.11 0.48939,0.09557 0.23221,0.286763 0.23032,0.559074 -0.005,0.705969 -0.14693,0.09176 -0.1673,0.164578 -0.0975,0.34828 0.11932,0.313834 0.11115,0.41465 -0.0335,0.413674 -0.067,-4.88e-4 -0.27022,-0.280229 -0.45159,-0.621727 z m 0.47596,-0.498239 c 0,-0.08122 -0.0866,-0.146189 -0.19492,-0.146189 -0.19416,0 -0.25351,0.103847 -0.12995,0.227406 0.1187,0.118699 0.32487,0.06716 0.32487,-0.08122 z m 44.02434,0.670965 c -0.033,-0.03299 0.0906,-0.283622 0.2747,-0.556958 0.21978,-0.326357 0.30171,-0.529941 0.23866,-0.592997 -0.13529,-0.135285 -0.11945,-0.349511 0.0258,-0.348934 0.20311,7.8e-4 0.69436,0.446357 0.62172,0.563887 -0.0372,0.06014 -0.12099,0.08984 -0.18627,0.06601 -0.0653,-0.02383 -0.26158,0.17544 -0.4362,0.442826 -0.307,0.470084 -0.41166,0.552926 -0.53841,0.426171 z m -42.99287,-0.476472 c -0.5192,-0.560222 -0.53058,-1.315281 -0.0198,-1.315281 0.27186,0 0.48808,0.223329 0.69447,0.717305 0.14868,0.355836 0.12367,0.744593 -0.0479,0.744593 -0.0456,0 -0.15063,0.02598 -0.23339,0.05774 -0.0913,0.03504 -0.24595,-0.04529 -0.39336,-0.204356 z m 0.43043,-0.286518 c 0,-0.131018 -0.10826,-0.361267 -0.24057,-0.511664 l -0.24057,-0.273449 -0.003,0.254871 c -0.003,0.217168 0.31487,0.768457 0.44256,0.768457 0.0229,0 0.0417,-0.107197 0.0417,-0.238215 z m 41.7128,0.192914 c 0,-0.163899 -0.35009,-0.38061 -0.48258,-0.298725 -0.0488,0.03015 -0.1186,0.0065 -0.15513,-0.05264 -0.0623,-0.100759 0.98741,-1.162573 1.14937,-1.162656 0.1314,-6.6e-5 0.077,0.437756 -0.13077,1.053097 -0.18947,0.561048 -0.38089,0.792692 -0.38089,0.460922 z m 0.0975,-0.59394 c 0,-0.08357 -0.0446,-0.124394 -0.0991,-0.09073 -0.0545,0.03367 -0.0738,0.102042 -0.043,0.151942 0.0835,0.13518 0.14203,0.109974 0.14203,-0.06122 z m -40.93313,0.216316 c 0,-0.0718 0.10965,-0.180502 0.24365,-0.241561 0.13401,-0.06106 0.24365,-0.153222 0.24365,-0.204811 0,-0.163904 -0.18427,-0.215315 -0.38559,-0.107575 -0.15553,0.08324 -0.23437,0.06453 -0.39185,-0.09295 -0.10844,-0.108435 -0.19716,-0.28238 -0.19716,-0.386547 0,-0.195005 0.33704,-0.492825 0.55772,-0.492825 0.20088,0 0.1427,0.264887 -0.0704,0.320618 -0.1072,0.02804 -0.19492,0.122851 -0.19492,0.210702 0,0.128694 0.064,0.147719 0.32951,0.09791 0.27346,-0.0513 0.35636,-0.02349 0.4873,0.163459 0.2163,0.308807 0.19782,0.532655 -0.0588,0.712408 -0.26585,0.186204 -0.56308,0.197378 -0.56308,0.02117 z M 171.113,71.876794 c -0.25098,-0.250987 -0.0148,-1.138816 0.35569,-1.337101 0.25287,-0.135331 0.26432,-0.134104 0.44627,0.04785 0.19454,0.19454 0.19894,0.529067 0.007,0.529067 -0.0804,0 -0.14619,-0.06579 -0.14619,-0.14619 0,-0.284593 -0.27359,-0.141072 -0.41801,0.219285 -0.17019,0.424658 -0.13161,0.55187 0.12563,0.414204 0.23025,-0.123227 0.35995,0.0448 0.19137,0.247919 -0.14293,0.172218 -0.40292,0.183775 -0.56172,0.02497 z m -37.86864,-0.804059 c -0.25332,-0.567259 -0.27961,-0.991681 -0.047,-0.759093 0.15647,0.156473 0.65347,1.270827 0.59352,1.330776 -0.14927,0.149273 -0.29053,0.0015 -0.5465,-0.571683 z m 36.56055,0.282143 c -0.0963,-0.09628 0.52755,-1.407789 0.66962,-1.407789 0.19647,0 0.15106,0.278923 -0.14201,0.872156 -0.25126,0.508623 -0.4018,0.661447 -0.52761,0.535633 z m -35.05296,-0.360026 c -0.0449,-0.120606 -0.1403,-0.383655 -0.21201,-0.584552 -0.0789,-0.220974 -0.18604,-0.355724 -0.27131,-0.341109 -0.0775,0.01329 -0.16032,-0.03129 -0.184,-0.09905 -0.0616,-0.176385 0.6467,-0.461427 0.79016,-0.317966 0.0793,0.07927 0.0725,0.130253 -0.0254,0.190762 -0.11091,0.06854 -0.0999,0.182536 0.065,0.670794 0.10925,0.32352 0.1734,0.613461 0.14255,0.644314 -0.11199,0.111988 -0.22507,0.05148 -0.305,-0.16319 z m 33.57976,-0.195643 c -0.15662,-0.114527 -0.1509,-0.16397 0.0874,-0.755314 0.32258,-0.800535 0.3673,-0.844294 0.66406,-0.649848 0.31588,0.206976 0.39333,0.478245 0.25564,0.89545 -0.17892,0.542126 -0.64213,0.776569 -1.00708,0.509712 z m 0.81256,-0.851733 c 0,-0.101053 -0.0446,-0.211315 -0.0992,-0.245026 -0.11632,-0.07189 -0.49951,0.728093 -0.41458,0.865516 0.0799,0.129279 0.51375,-0.394711 0.51375,-0.62049 z m -33.08961,0.657537 c -0.31656,-0.864362 -0.41193,-1.246335 -0.32465,-1.300275 0.055,-0.03399 0.13903,-0.02276 0.18674,0.02495 0.0877,0.08766 0.48103,1.162978 0.48103,1.314948 0,0.129648 -0.29354,0.09575 -0.34312,-0.03962 z m 31.48898,-0.188742 c -0.0219,-0.0704 -0.0718,-0.259573 -0.11076,-0.420382 l -0.0709,-0.292379 -0.0635,0.243649 c -0.0674,0.258743 -0.35952,0.345212 -0.32921,0.09746 0.04,-0.326928 0.47774,-1.263762 0.59124,-1.265313 0.0746,-0.001 0.12183,0.130643 0.12183,0.339445 0,0.405693 0.11837,0.440452 0.2814,0.08263 0.085,-0.186652 0.14731,-0.228937 0.22407,-0.152173 0.0768,0.07676 0.0303,0.285234 -0.16737,0.750229 -0.28561,0.672023 -0.40963,0.832446 -0.47684,0.61683 z M 137.30517,70.25497 c -0.12905,-0.08403 -0.32298,-0.456484 -0.42756,-0.821142 -0.10688,-0.372663 0.0404,-0.656186 0.34079,-0.656186 0.31525,0 0.58082,0.434947 0.5873,0.961868 0.004,0.345104 -0.0334,0.440416 -0.19838,0.502729 -0.11199,0.04229 -0.24796,0.04802 -0.30215,0.01273 z m 0.26212,-0.45884 c 0,-0.08307 -0.0755,-0.291386 -0.16776,-0.462934 -0.14624,-0.271882 -0.17182,-0.286074 -0.19935,-0.110597 -0.0397,0.252872 0.13431,0.72456 0.26724,0.72456 0.0549,0 0.0999,-0.06796 0.0999,-0.151029 z m 0.67684,-0.624274 c -0.23986,-0.704531 -0.21478,-0.919718 0.0779,-0.668334 0.3522,0.302527 0.41513,0.300132 0.35242,-0.01341 -0.0441,-0.220331 -0.0234,-0.297224 0.0797,-0.297224 0.0861,0 0.22087,0.25364 0.35329,0.664768 0.25429,0.789555 0.25494,0.797129 0.0679,0.797129 -0.0804,0 -0.14619,-0.03331 -0.14619,-0.07402 0,-0.04071 -0.0866,-0.128065 -0.19232,-0.194125 -0.17865,-0.111566 -0.18818,-0.09937 -0.13401,0.171476 0.0436,0.217923 0.0222,0.291585 -0.0848,0.291585 -0.09,0 -0.22875,-0.251459 -0.37391,-0.677844 z m 27.64208,0.591456 c -0.0627,-0.101379 0.47795,-1.33234 0.62506,-1.423259 0.229,-0.14153 0.19004,0.261214 -0.0837,0.864861 -0.27625,0.609271 -0.41897,0.756473 -0.54139,0.558398 z m -21.32945,-1.611994 c -0.19948,-0.199479 -0.1725,-1.198125 0.0359,-1.330061 0.2152,-0.13622 0.47901,-0.105424 0.47901,0.05592 0,0.08122 -0.0866,0.14619 -0.19492,0.14619 -0.2916,0 -0.23496,0.26667 0.0926,0.436066 0.35693,0.184578 0.39468,0.184817 0.39468,0.0025 0,-0.0804 0.0705,-0.14619 0.15675,-0.14619 0.11891,0 0.14186,0.05935 0.0951,0.24579 -0.0432,0.17228 -0.0172,0.262842 0.0869,0.302807 0.23488,0.09013 0.17409,0.203742 -0.14379,0.26875 -0.16081,0.03289 -0.41688,0.08566 -0.56904,0.117277 -0.18597,0.03864 -0.32798,0.0062 -0.4332,-0.09905 z m 0.6124,-0.235171 c 0,-0.045 -0.10964,-0.131772 -0.24365,-0.19283 -0.2152,-0.09805 -0.24365,-0.0885 -0.24365,0.08182 0,0.140712 0.0658,0.19283 0.24365,0.19283 0.13401,0 0.24365,-0.03682 0.24365,-0.08182 z m 3.35689,-0.238421 c -0.0291,-0.07572 -0.0397,-0.440318 -0.0237,-0.81022 0.03,-0.691498 0.19987,-0.924598 0.25505,-0.349932 0.0397,0.413188 0.33403,0.394447 0.40684,-0.0259 0.0944,-0.54479 0.2444,-0.248303 0.2444,0.482964 0,0.420306 -0.0414,0.732236 -0.0975,0.733979 -0.0536,0.0017 -0.11134,-0.107976 -0.1283,-0.24365 -0.0426,-0.340507 -0.40773,-0.348372 -0.40773,-0.0088 0,0.273893 -0.17076,0.425751 -0.24912,0.221544 z m 1.6207,-0.06246 c -0.36815,-0.368157 -0.18846,-1.469041 0.23979,-1.469041 0.44879,0 0.59179,1.255088 0.17442,1.53091 -0.19069,0.126015 -0.23258,0.119758 -0.41421,-0.06187 z m 0.36498,-0.652155 c -0.0171,-0.208074 -0.0749,-0.378317 -0.12847,-0.378317 -0.1253,0 -0.18021,0.387225 -0.10014,0.706228 0.0935,0.372654 0.26579,0.125573 0.22861,-0.327911 z m 0.76137,0.523186 c -0.10098,-0.376799 -0.0671,-1.227606 0.0518,-1.301097 0.0644,-0.03977 0.19236,0.02771 0.29647,0.156285 l 0.18323,0.226273 0.14762,-0.210767 c 0.256,-0.36549 0.3315,-0.234076 0.3315,0.577034 0,0.586881 -0.0311,0.777464 -0.12183,0.747273 -0.067,-0.02229 -0.14953,-0.168479 -0.18339,-0.324866 -0.0339,-0.156386 -0.0668,-0.224148 -0.0731,-0.150581 -0.009,0.10777 -0.0399,0.110186 -0.15772,0.01243 -0.12464,-0.103441 -0.14619,-0.07646 -0.14619,0.182986 0,0.358746 -0.23851,0.420498 -0.32841,0.08503 z m 1.7903,-0.560394 c 0,-0.628074 0.0284,-0.779678 0.14619,-0.779678 0.11777,0 0.14619,0.151604 0.14619,0.779678 0,0.628074 -0.0284,0.779679 -0.14619,0.779679 -0.11776,0 -0.14619,-0.151605 -0.14619,-0.779679 z m 1.13704,0.714705 c -0.0357,-0.03574 -0.065,-0.38659 -0.065,-0.779678 0,-0.803678 0.14397,-0.941851 0.41466,-0.397961 l 0.15763,0.316744 0.006,-0.310992 c 0.007,-0.35948 0.12962,-0.477389 0.29222,-0.281466 0.14899,0.179517 0.0975,1.440074 -0.061,1.49241 -0.0639,0.02109 -0.19532,-0.106984 -0.29214,-0.284612 l -0.17604,-0.32296 -0.0308,0.316744 c -0.0297,0.305742 -0.10982,0.387786 -0.24583,0.251771 z m 1.55007,-0.08818 c -0.23314,-0.233144 -0.20784,-1.131584 0.0381,-1.354191 0.2189,-0.198101 0.43159,-0.150073 0.58228,0.131484 0.1225,0.228899 -0.0412,0.392974 -0.2168,0.21734 -0.0597,-0.05965 -0.14354,-0.10846 -0.18642,-0.10846 -0.10814,0 -0.0985,0.852947 0.0104,0.920251 0.0486,0.03004 0.0644,-0.03701 0.0351,-0.148999 -0.0445,-0.170051 -0.0148,-0.198136 0.17965,-0.170374 0.18254,0.02605 0.2271,0.08492 0.20611,0.272315 -0.0437,0.390013 -0.37584,0.513269 -0.64848,0.240634 z"
       id="path838"
       inkscape:connector-curvature="0" />
  </g>
</svg>
