<?xml version="1.0" encoding="UTF-8" standalone="no"?>
<svg
   xmlns:dc="http://purl.org/dc/elements/1.1/"
   xmlns:cc="http://creativecommons.org/ns#"
   xmlns:rdf="http://www.w3.org/1999/02/22-rdf-syntax-ns#"
   xmlns:svg="http://www.w3.org/2000/svg"
   xmlns="http://www.w3.org/2000/svg"
   viewBox="0 0 327.67999 327.67999"
   height="327.67999"
   width="327.67999"
   id="svg6226"
   version="1.1">
  <metadata
     id="metadata6232">
    <rdf:RDF>
      <cc:Work
         rdf:about="">
        <dc:format>image/svg+xml</dc:format>
        <dc:type
           rdf:resource="http://purl.org/dc/dcmitype/StillImage" />
        <dc:title></dc:title>
      </cc:Work>
    </rdf:RDF>
  </metadata>
  <defs
     id="defs6230" />
  <path
     id="path6781"
     d="m 163.78492,327.27663 c -0.47989,-0.35091 -0.53986,-0.91866 -0.46116,-4.36579 0.0768,-3.36403 0.17503,-4.01566 0.65047,-4.315 0.40783,-0.25677 0.71216,-0.25677 1.11999,0 0.47544,0.29934 0.57367,0.95097 0.65047,4.315 0.0787,3.44713 0.0187,4.01488 -0.46116,4.36579 -0.3034,0.22186 -0.64058,0.40336 -0.74931,0.40336 -0.10872,0 -0.4459,-0.1815 -0.7493,-0.40336 z m -5.58302,-3.17277 c 0.0877,-2.83376 0.12917,-2.98909 0.82465,-3.08774 0.72366,-0.10266 0.73123,-0.0686 0.64,2.88 -0.0877,2.83376 -0.12917,2.98909 -0.82465,3.08774 -0.72366,0.10266 -0.73123,0.0686 -0.64,-2.88 z m 11.34566,2.72279 c -0.11734,-0.11732 -0.21334,-1.49533 -0.21334,-3.06224 0,-2.77143 0.0196,-2.84615 0.72,-2.74669 0.67954,0.0965 0.72518,0.26864 0.81201,3.06227 0.0843,2.71136 0.0417,2.96 -0.50666,2.96 -0.32927,0 -0.69468,-0.096 -0.81201,-0.21334 z m -17.15489,-1.78666 c 0.0324,-2.95603 0.37956,-4.22704 1.18586,-4.34227 0.67098,-0.0958 0.71547,0.0141 0.71217,1.76 -0.002,1.02425 -0.0928,2.40227 -0.20187,3.06227 -0.16416,0.99318 -0.32901,1.2 -0.95647,1.2 -0.70358,0 -0.75681,-0.1209 -0.73969,-1.68 z m 22.58695,0.48 c -0.10909,-0.66 -0.19994,-2.03802 -0.20187,-3.06227 -0.003,-1.74589 0.0412,-1.85584 0.71217,-1.76 0.8063,0.11523 1.15342,1.38624 1.18586,4.34227 0.0171,1.5591 -0.0361,1.68 -0.73969,1.68 -0.62746,0 -0.79231,-0.20682 -0.95647,-1.2 z m -27.99719,0.45808 c -0.4194,-0.50534 0.0233,-5.2176 0.5386,-5.7329 0.1816,-0.1816 0.57074,-0.23785 0.86476,-0.12502 0.46629,0.17894 0.50538,0.54205 0.30605,2.8425 -0.27397,3.1616 -0.80729,4.1024 -1.70941,3.01542 z m 33.94644,0.0218 c -0.17805,-0.22 -0.42656,-1.58682 -0.55226,-3.03734 -0.19933,-2.30045 -0.16024,-2.66356 0.30605,-2.8425 0.29402,-0.11283 0.68316,-0.0566 0.86476,0.12502 0.5153,0.5153 0.958,5.22756 0.5386,5.7329 -0.43778,0.52749 -0.7433,0.53328 -1.15715,0.0218 z m -39.61402,-0.59136 c -0.28066,-0.45411 0.13887,-4.73501 0.53692,-5.4788 0.36609,-0.68404 1.19378,-0.74902 1.43789,-0.11289 0.26294,0.68523 -0.52662,5.42756 -0.9487,5.69815 -0.51212,0.32829 -0.77422,0.30112 -1.02611,-0.10646 z m 45.41264,0.10614 c -0.42205,-0.2702 -1.21166,-5.01257 -0.9487,-5.69783 0.25203,-0.65678 1.07636,-0.56263 1.46716,0.16759 0.44352,0.82871 0.58297,5.51668 0.16827,5.65687 -0.176,0.0595 -0.48503,0.003 -0.68673,-0.12663 z m -51.31928,-0.88204 c -0.57863,-0.69719 0.54412,-7.41085 1.37896,-8.24568 0.65661,-0.65661 1.1405,-0.60394 1.63363,0.17784 0.37298,0.5913 -0.60942,7.4495 -1.16818,8.1551 -0.43282,0.54656 -1.35458,0.50294 -1.84441,-0.0873 z m 56.40762,0.0873 c -0.55876,-0.7056 -1.54116,-7.5638 -1.16818,-8.1551 0.49313,-0.78178 0.97702,-0.83445 1.63363,-0.17784 0.83484,0.83483 1.95759,7.54849 1.37896,8.24568 -0.48983,0.5902 -1.41159,0.63382 -1.84441,0.0873 z m -61.83021,-2.08 c 0.0159,-1.22778 0.84652,-4.58592 1.22887,-4.96827 0.1742,-0.17419 0.56042,-0.2232 0.85827,-0.10889 0.57621,0.22111 0.5466,0.83659 -0.21002,4.36455 -0.29524,1.37667 -0.44641,1.59261 -1.11503,1.59261 -0.63323,0 -0.77142,-0.15955 -0.76209,-0.88 z m 67.16625,-0.96 c -0.62474,-2.96475 -0.57527,-4.08 0.18096,-4.08 0.74651,0 1.32738,1.4775 1.64571,4.18602 0.19995,1.70121 0.18828,1.73398 -0.61757,1.73398 -0.74164,0 -0.85901,-0.17859 -1.2091,-1.84 z m -72.5544,0.36438 c -0.39465,-0.70521 0.80584,-5.46102 1.43992,-5.70434 1.17885,-0.45237 1.31275,0.42965 0.53516,3.52524 -0.55533,2.21075 -1.42215,3.1671 -1.97508,2.1791 z m 78.91289,0.12663 c -0.52389,-0.40131 -1.53614,-3.69499 -1.53614,-4.99816 0,-0.77288 0.39716,-1.08579 1.05684,-0.83265 0.69942,0.26839 1.85846,5.08937 1.38066,5.74281 -0.30225,0.41334 -0.45726,0.42851 -0.90136,0.0882 z m -84.51857,-1.65639 c -0.10114,-0.26358 0.13752,-1.60319 0.53037,-2.97692 0.57352,-2.00553 0.84592,-2.5168 1.38243,-2.59462 1.02019,-0.14798 1.08343,0.5787 0.29012,3.33393 -0.572,1.98657 -0.86385,2.5436 -1.37274,2.61992 -0.35546,0.0533 -0.72904,-0.11875 -0.83018,-0.38231 z m 89.55073,0.0454 c -0.80001,-2.43128 -1.37001,-4.87166 -1.2257,-5.24772 0.0984,-0.25637 0.47954,-0.4225 0.84704,-0.3692 0.53651,0.0778 0.80891,0.58909 1.38243,2.59462 0.39285,1.37373 0.63443,2.70572 0.53686,2.96 -0.21755,0.56694 -1.35939,0.61312 -1.54063,0.0623 z m -94.83905,-1.6205 c -0.25712,-0.30981 -0.16106,-1.03904 0.36455,-2.76747 0.74602,-2.45324 1.49414,-3.35193 2.20148,-2.6446 0.31052,0.31053 0.24016,0.91202 -0.33559,2.86901 -0.83674,2.84406 -1.42448,3.51418 -2.23044,2.54306 z m 100.54358,0.17576 c -0.49932,-0.31971 -1.82299,-4.76645 -1.59539,-5.35956 0.10036,-0.26155 0.46873,-0.47554 0.8186,-0.47554 0.51521,0 0.79215,0.49393 1.45706,2.59875 0.62878,1.99042 0.73522,2.70204 0.45474,3.04 -0.41369,0.49847 -0.6101,0.53245 -1.13501,0.19635 z m -106.31213,-2.05361 c -0.24732,-0.66788 0.40668,-2.92434 2.04922,-7.07038 0.34067,-0.85989 1.37317,-1.31671 1.93054,-0.85413 0.70262,0.58312 0.53014,1.7688 -0.76562,5.26302 -1.07626,2.90232 -1.26818,3.20944 -2.06311,3.30149 -0.67449,0.0781 -0.93972,-0.0694 -1.15103,-0.64 z m 110.96134,-0.18149 c -2.3042,-5.92669 -2.56023,-7.06436 -1.74249,-7.74302 0.55737,-0.46258 1.58987,-0.006 1.93054,0.85413 2.45247,6.19042 2.65002,7.76889 0.9723,7.76889 -0.59634,0 -0.91101,-0.23864 -1.16035,-0.88 z m -55.96203,-1.36 c -0.71876,-0.71875 -0.84928,-1.6 -0.23698,-1.6 0.22166,0 0.58289,0.288 0.80271,0.64 0.44388,0.71076 1.65745,0.84882 2.25026,0.256 0.67447,-0.67446 0.41995,-1.54618 -0.61632,-2.11088 -2.7738,-1.51155 -3.50629,-2.91851 -2.19967,-4.22512 1.21161,-1.21161 4.15999,-0.57006 4.15999,0.9052 0,0.54413 -0.85877,0.46014 -1.07572,-0.1052 -0.23204,-0.60469 -1.91887,-0.63307 -2.41061,-0.0406 -0.561,0.67596 -0.15458,1.23398 1.66098,2.28056 1.48,0.85315 1.67629,1.09153 1.76359,2.14177 0.0713,0.85754 -0.0824,1.36236 -0.56,1.84 -0.86679,0.86679 -2.68033,0.87613 -3.53823,0.0182 z m -59.85663,-0.33028 c -0.39891,-0.24654 -0.38626,-0.49929 0.0924,-1.8471 1.14441,-3.22213 1.51922,-3.90262 2.1496,-3.90262 1.04948,0 1.07432,0.60024 0.128,3.09283 -0.93566,2.46448 -1.55605,3.15996 -2.37003,2.65689 z m 121.85308,-0.0917 c -0.63394,-0.51453 -2.23278,-4.67755 -2.01471,-5.24585 0.0965,-0.25138 0.48119,-0.41096 0.85494,-0.35461 0.50778,0.0765 0.90832,0.66861 1.58468,2.34244 0.49783,1.232 0.91268,2.4766 0.92189,2.76576 0.0219,0.68773 -0.75576,0.97197 -1.3468,0.49226 z M 97.867563,313.06666 c -0.42355,-0.42356 -0.15195,-1.58527 0.84791,-3.62667 1.01286,-2.06794 1.950367,-2.78327 2.334797,-1.78146 0.10676,0.27821 -0.21164,1.46053 -0.70756,2.62739 -1.115227,2.62405 -1.829447,3.42644 -2.475147,2.78074 z m 132.210397,-0.20865 c -0.7181,-0.7181 -2.27314,-4.64347 -2.05978,-5.19948 0.38368,-0.99984 1.32226,-0.28594 2.34211,1.78146 1.01952,2.06674 1.22563,3.5219 0.53108,3.74961 -0.19958,0.0654 -0.56561,-0.0838 -0.81341,-0.33159 z M 92.534233,310.09426 c 0,-0.36864 0.5105,-1.68396 1.13444,-2.92294 0.82136,-1.631 1.28399,-2.2239 1.67633,-2.14834 0.88264,0.16998 0.80196,0.99781 -0.32481,3.33259 -0.78342,1.62331 -1.2513,2.23138 -1.77491,2.30668 -0.54096,0.0778 -0.71105,-0.0581 -0.71105,-0.56799 z m 142.506827,0.22573 c -0.77018,-1.05675 -2.09502,-4.40075 -1.92207,-4.85145 0.40484,-1.05501 1.18906,-0.46512 2.29121,1.72346 1.27622,2.53424 1.4236,3.52799 0.5232,3.52799 -0.33044,0 -0.732,-0.18 -0.89234,-0.4 z M 87.519493,307.65272 c -0.21358,-0.55657 1.5681,-4.30501 2.37067,-4.9876 0.54251,-0.4614 1.36789,-0.0907 1.34669,0.60483 -0.0277,0.91005 -2.35836,4.7166 -2.95859,4.8322 -0.30028,0.0578 -0.64173,-0.14442 -0.75877,-0.44943 z m 152.634207,0.121 c -0.17691,-0.22755 -0.7984,-1.29463 -1.38109,-2.37128 -1.08802,-2.01036 -1.12492,-3.14308 -0.096,-2.94491 0.68893,0.13267 3.00526,4.04864 2.89792,4.89919 -0.0949,0.75203 -0.96244,1.00663 -1.42088,0.417 z M 82.452243,305.39229 c -0.69311,-0.69311 -0.57863,-1.03318 1.58595,-4.71111 1.65821,-2.81754 1.917,-3.10852 2.68554,-3.0196 1.41692,0.16395 1.26153,1.37052 -0.59311,4.60525 -1.51395,2.64055 -2.32187,3.65316 -2.91469,3.65316 -0.12979,0 -0.47345,-0.23746 -0.76369,-0.5277 z m 162.661837,0.1277 c -0.27636,-0.22 -1.24774,-1.67772 -2.15862,-3.23937 -1.88107,-3.22498 -2.04347,-4.45326 -0.61074,-4.61904 0.76854,-0.0889 1.02733,0.20206 2.68554,3.0196 2.16458,3.67793 2.27906,4.018 1.58595,4.71111 -0.63296,0.63296 -0.84481,0.65097 -1.50213,0.1277 z M 77.615563,301.93461 c -0.17782,-0.46339 1.81515,-4.00436 2.63826,-4.68748 0.54768,-0.45452 1.40041,-0.14357 1.40041,0.51066 0,0.27384 -0.58891,1.43036 -1.30868,2.57004 -1.3032,2.06347 -2.32415,2.66437 -2.72999,1.60678 z m 171.109357,-1.64115 c -1.41069,-2.24991 -1.5593,-3.17347 -0.51065,-3.17347 0.42337,0 1.08168,0.68505 1.99882,2.08 1.46456,2.22756 1.59075,2.98317 0.52379,3.13624 -0.52339,0.0751 -0.96555,-0.37384 -2.01196,-2.04277 z M 73.009923,299.03479 c -0.33534,-0.40405 -0.15416,-0.85893 1.08337,-2.72 1.43457,-2.1574 2.38899,-2.77552 2.93113,-1.89832 0.21396,0.34619 -1.48385,3.39031 -2.50266,4.48718 -0.69036,0.74328 -0.98277,0.76864 -1.51184,0.13114 z m 181.309787,-0.50287 c -1.25721,-1.4941 -2.50083,-3.75114 -2.2714,-4.12236 0.53785,-0.87026 1.49602,-0.24654 2.92686,1.90523 1.23752,1.86107 1.4187,2.31595 1.08336,2.72 -0.56732,0.68359 -0.79617,0.6174 -1.73882,-0.50287 z M 68.614233,296.08619 c -0.72832,-0.25406 -0.41726,-1.21443 1.04367,-3.22217 0.93348,-1.28288 1.66855,-1.98403 2.08,-1.98403 1.01597,0 0.77663,1.13827 -0.67425,3.20664 -1.34088,1.91156 -1.74828,2.24413 -2.44942,1.99956 z m 190.682007,-0.36418 c -1.09471,-1.09471 -2.60202,-3.51593 -2.60202,-4.17968 0,-0.44773 0.20618,-0.66234 0.63633,-0.66234 0.71144,0 3.52367,3.59926 3.52367,4.50979 0,0.80696 -0.89286,0.99735 -1.55798,0.33223 z M 86.454233,292.14145 c 0,-1.37463 0.29995,-1.77178 3.16043,-4.1846 1.11053,-0.93675 1.18383,-1.18255 0.59339,-1.99002 -0.46493,-0.63583 -1.15444,-0.72324 -2.91493,-0.36954 -1.70147,0.34184 -1.44455,-0.47891 0.3288,-1.05038 3.0442,-0.98099 5.25464,2.15806 2.89663,4.11353 -2.6293,2.18044 -3.10432,2.67205 -3.10432,3.2127 0,0.53435 0.25169,0.60685 2.10667,0.60685 1.54258,0 2.07123,0.10711 1.97432,0.4 -0.0867,0.26219 -0.97794,0.4322 -2.58667,0.49346 l -2.45432,0.0935 z m 11.2,-2.35479 c 0,-2.93505 -0.0918,-3.70667 -0.44082,-3.70667 -0.24245,0 -0.62008,0.216 -0.83918,0.48 -0.48334,0.58239 -1.28,0.63219 -1.27999,0.08 10e-6,-0.58468 2.09455,-2.16 2.87192,-2.16 0.64669,0 0.66353,0.12764 0.5771,4.37377 -0.0641,3.14918 -0.20102,4.41098 -0.48903,4.50667 -0.30463,0.10121 -0.4,-0.75089 -0.4,-3.57377 z m 134.079987,0 c 0,-2.93505 -0.0918,-3.70667 -0.44082,-3.70667 -0.24244,0 -0.62008,0.216 -0.83918,0.48 -0.48334,0.58239 -1.28,0.63219 -1.27999,0.08 2e-5,-0.58468 2.09455,-2.16 2.87193,-2.16 0.64668,0 0.66353,0.12764 0.57709,4.37377 -0.0641,3.14918 -0.20102,4.41098 -0.48903,4.50667 -0.30462,0.10121 -0.4,-0.75089 -0.4,-3.57377 z m 6.08,3.21547 c 0,-0.27303 0.51077,-0.50638 1.35673,-0.61985 3.26447,-0.43785 3.35173,-3.61481 0.10933,-3.98028 l -1.53503,-0.17302 0.19097,-1.15449 c 0.10503,-0.63498 0.19254,-1.4785 0.19448,-1.8745 0.003,-0.67776 0.13494,-0.72 2.24352,-0.72 1.77778,0 2.24,0.0991 2.24,0.48 0,0.36849 -0.40889,0.48 -1.76,0.48 -1.72715,0 -1.76,0.0172 -1.76,0.92439 0,0.80328 0.1469,0.95194 1.12127,1.13473 3.07591,0.57705 3.26182,4.50192 0.26717,5.64048 -1.18668,0.45118 -2.66844,0.37484 -2.66844,-0.13746 z M 63.841673,292.2984 c -0.25145,-0.65525 0.3041,-1.6563 1.96952,-3.54892 1.18904,-1.35126 1.41987,-1.48708 1.87929,-1.1058 0.28807,0.23907 0.52375,0.53957 0.52375,0.66777 0,0.12821 -0.72483,1.19057 -1.61072,2.36082 -1.60242,2.11674 -2.3946,2.58316 -2.76184,1.62613 z m 198.623277,-1.62613 c -0.8859,-1.17025 -1.61073,-2.23261 -1.61073,-2.36082 0,-0.1282 0.23569,-0.4287 0.52375,-0.66777 0.45942,-0.38128 0.69025,-0.24546 1.8793,1.1058 1.66542,1.89262 2.22096,2.89367 1.96952,3.54892 -0.36725,0.95703 -1.15943,0.49061 -2.76184,-1.62613 z M 59.334233,289.38806 c -0.97491,-0.39338 -0.35114,-1.81686 2.02172,-4.61367 1.7645,-2.07975 2.62365,-2.8544 3.16577,-2.8544 0.70199,0 1.13251,0.53108 1.13251,1.39704 0,0.41112 -3.85653,5.21404 -4.72375,5.88296 -0.53969,0.41629 -0.9197,0.46106 -1.59625,0.18807 z m 208.803737,-0.18807 c -0.86722,-0.66892 -4.72375,-5.47184 -4.72375,-5.88296 0,-0.86596 0.43052,-1.39704 1.13252,-1.39704 0.99447,0 5.58748,5.34325 5.58748,6.50016 0,1.09907 -1.0504,1.50942 -1.99625,0.77984 z M 54.976313,284.95425 c -0.25322,-0.65987 3.00307,-4.47426 3.81961,-4.47426 1.19027,0 0.86543,1.2145 -0.83518,3.12254 -1.62837,1.82699 -2.62826,2.27987 -2.98443,1.35172 z m 216.131397,-1.35172 c -1.70061,-1.90804 -2.02545,-3.12254 -0.83518,-3.12254 0.81654,0 4.07283,3.81439 3.81961,4.47426 -0.35616,0.92815 -1.35606,0.47527 -2.98443,-1.35172 z M 50.934233,280.86998 c 0,-0.46709 0.68545,-1.40831 1.90307,-2.61324 1.62413,-1.60717 1.97592,-1.82276 2.4,-1.4708 0.27331,0.22683 0.49693,0.54948 0.49693,0.71699 0,0.16752 -0.81392,1.15788 -1.80871,2.20082 -1.91612,2.00885 -2.99129,2.42803 -2.99129,1.16623 z m 224.208697,-1.16623 c -0.99479,-1.04294 -1.80871,-2.0333 -1.80871,-2.20082 0,-0.16751 0.23005,-0.4955 0.51122,-0.72885 0.44392,-0.36842 0.78125,-0.14618 2.56245,1.68827 1.3986,1.44041 1.98865,2.27561 1.85454,2.62509 -0.36167,0.94251 -1.29597,0.52809 -3.1195,-1.38369 z M 46.774233,276.8487 c 0,-0.59109 3.52165,-4.20871 4.09707,-4.20871 0.16751,0 0.49016,0.22362 0.71698,0.49693 0.35197,0.42409 0.13638,0.77587 -1.4708,2.4 -1.94545,1.96597 -3.34325,2.51442 -3.34325,1.31178 z m 232.176737,-1.31178 c -1.60717,-1.62413 -1.82276,-1.97591 -1.4708,-2.4 0.22683,-0.27331 0.54948,-0.49693 0.71699,-0.49693 0.57541,0 4.09706,3.61762 4.09706,4.20871 0,1.20264 -1.39779,0.65419 -3.34325,-1.31178 z M 43.334233,273.37008 c -0.84909,-0.30445 -0.32713,-1.38384 1.42388,-2.94449 1.89294,-1.68715 2.84844,-2.01069 3.20373,-1.0848 0.1494,0.38933 -0.27912,0.97904 -1.53004,2.10552 -1.98006,1.7831 -2.5327,2.12632 -3.09757,1.92377 z m 239.834247,-1.47962 c -2.05551,-1.74587 -2.54967,-2.85085 -1.35172,-3.02257 0.80699,-0.11568 4.31746,2.94434 4.31746,3.76346 0,1.19819 -0.96724,0.95656 -2.96574,-0.74089 z M 38.936283,268.80645 c -0.11059,-0.34845 -0.0767,-0.85589 0.0754,-1.12764 0.39079,-0.6983 5.58761,-4.95882 6.04858,-4.95882 0.86293,0 1.39394,0.43143 1.39394,1.13252 0,0.54212 -0.77465,1.40126 -2.8544,3.16576 -2.99788,2.54346 -4.26913,3.0309 -4.66355,1.78818 z m 246.477937,-1.80549 c -2.02431,-1.74026 -2.8,-2.61285 -2.8,-3.1498 0,-0.69991 0.53144,-1.13117 1.39394,-1.13117 0.46097,0 5.65779,4.26052 6.04858,4.95882 0.47767,0.85355 -0.0351,1.76287 -0.98408,1.74521 -0.59367,-0.011 -1.72203,-0.75838 -3.65844,-2.42306 z M 35.668663,264.10449 c -0.21272,-0.55434 0.71684,-1.48651 3.20037,-3.20934 1.12498,-0.7804 1.25353,-0.80398 1.73861,-0.31889 0.48509,0.48508 0.4785,0.57388 -0.0891,1.20104 -0.97752,1.08014 -3.54126,2.86269 -4.11725,2.86269 -0.28995,0 -0.61964,-0.24097 -0.73267,-0.5355 z m 254.576617,-0.885 c -2.212,-1.73652 -2.40287,-2.02483 -1.76372,-2.66398 0.45742,-0.45742 0.61329,-0.42661 1.71786,0.33964 2.48353,1.72283 3.4131,2.655 3.20038,3.20934 -0.33531,0.87379 -1.23604,0.62109 -3.15452,-0.885 z M 32.255733,259.67273 c -0.2192,-0.57122 0.42483,-1.27225 2.44688,-2.66346 3.20275,-2.20355 3.96567,-0.59091 0.8076,1.70705 -2.08169,1.51473 -2.94309,1.76788 -3.25448,0.95641 z m 261.302517,-0.95641 c -3.15808,-2.29796 -2.39515,-3.9106 0.80759,-1.70705 2.02205,1.39121 2.66609,2.09224 2.44689,2.66346 -0.31139,0.81147 -1.1728,0.55832 -3.25448,-0.95641 z m -264.338267,-3.4612 c -0.58235,-0.7017 -0.1947,-1.23159 1.88068,-2.5708 2.25367,-1.45424 2.99354,-1.60285 3.13242,-0.62916 0.0771,0.54035 -0.33128,0.98748 -1.83348,2.0076 -2.41939,1.64298 -2.71396,1.75344 -3.17962,1.19236 z m 267.691177,-1.03505 c -1.72337,-1.15612 -2.15546,-1.6056 -2.07643,-2.16 0.13956,-0.979 0.87582,-0.8323 3.13306,0.62425 2.06459,1.33224 2.46255,1.86969 1.89277,2.55623 -0.50884,0.61312 -0.52006,0.60924 -2.9494,-1.02048 z M 26.187573,250.66666 c -0.62547,-0.62547 -0.0531,-1.43047 1.88912,-2.65712 2.2076,-1.39423 3.17754,-1.54364 3.17754,-0.4895 0,0.42384 -0.68348,1.07913 -2.08,1.99418 -2.07504,1.35966 -2.58332,1.55579 -2.98666,1.15244 z m 273.706647,-1.1478 c -1.39495,-0.91714 -2.08,-1.57545 -2.08,-1.99882 0,-1.05607 0.97111,-0.90399 3.19462,0.50029 1.6596,1.04813 2.09848,1.48558 2.02247,2.01587 -0.15391,1.07359 -0.90595,0.94957 -3.13709,-0.51734 z M 22.981943,245.92198 c -0.29024,-0.29023 -0.52771,-0.63389 -0.52771,-0.76368 0,-0.59283 1.01261,-1.40075 3.65316,-2.9147 3.23474,-1.85463 4.44131,-2.01003 4.60525,-0.59311 0.0889,0.76854 -0.20206,1.02733 -3.0196,2.68554 -3.67792,2.16458 -4.01799,2.27906 -4.7111,1.58595 z m 278.573647,-1.47507 c -2.99418,-1.76223 -3.28952,-2.02011 -3.2,-2.79416 0.16456,-1.42278 1.37002,-1.26553 4.60547,0.60079 3.32513,1.91806 3.65316,2.16255 3.65316,2.72278 0,0.52346 -0.87991,1.42562 -1.38286,1.41783 -0.20742,-0.003 -1.86152,-0.87947 -3.67577,-1.94724 z M 20.320433,240.45518 c -0.24764,-0.64534 0.23666,-1.08034 2.65135,-2.38145 2.01082,-1.08349 3.14275,-1.11859 2.94492,-0.0913 -0.11717,0.60841 -3.94428,2.96154 -4.83251,2.9713 -0.31352,0.003 -0.65721,-0.2209 -0.76376,-0.49855 z m 13.6538,-0.79373 c 0,-1.37463 0.29996,-1.77178 3.16043,-4.1846 1.11054,-0.93675 1.18383,-1.18255 0.59339,-1.99002 -0.46492,-0.63583 -1.15443,-0.72324 -2.91492,-0.36954 -1.70148,0.34185 -1.44456,-0.47891 0.3288,-1.05038 3.04419,-0.98099 5.25463,2.15806 2.89662,4.11353 -2.62929,2.18044 -3.10432,2.67205 -3.10432,3.2127 0,0.53435 0.2517,0.60685 2.10667,0.60685 1.54258,0 2.07123,0.10711 1.97432,0.4 -0.0867,0.26219 -0.97794,0.4322 -2.58667,0.49346 l -2.45432,0.0935 z m 11.78173,0.27797 c -0.0996,-1.03743 -0.13661,-1.06144 -1.78173,-1.15615 -1.41282,-0.0813 -1.68,-0.19493 -1.68,-0.7142 0,-1.08812 2.47799,-6.06908 3.01933,-6.06908 0.27537,0 0.50067,0.0694 0.50067,0.1542 0,0.0848 -0.56669,1.38081 -1.25932,2.88 l -1.25933,2.7258 h 1.25933 c 1.19348,0 1.25932,-0.0516 1.25932,-0.98666 0,-1.21574 0.75313,-1.11859 0.89978,0.11605 0.0585,0.49207 0.3567,0.92158 0.72,1.03689 0.80224,0.25462 0.80258,0.79372 6.4e-4,0.79372 -0.46169,0 -0.64529,0.25893 -0.72,1.01536 -0.13759,1.39325 -0.83021,1.5407 -0.95855,0.20407 z m 238.458257,-2.63276 c 0,-2.93505 -0.0918,-3.70667 -0.44082,-3.70667 -0.24245,0 -0.62008,0.216 -0.83918,0.48 -0.48334,0.5824 -1.28,0.63219 -1.27999,0.08 1e-5,-0.58468 2.09455,-2.16 2.87192,-2.16 0.64669,0 0.66353,0.12764 0.5771,4.37378 -0.0641,3.14918 -0.20102,4.41097 -0.48903,4.50666 -0.30463,0.10121 -0.4,-0.75089 -0.4,-3.57377 z m 6.08,2.35479 c 0,-1.37463 0.29995,-1.77178 3.16043,-4.1846 1.11053,-0.93675 1.18383,-1.18255 0.59339,-1.99002 -0.46493,-0.63583 -1.15444,-0.72324 -2.91493,-0.36954 -1.70147,0.34185 -1.44455,-0.47891 0.3288,-1.05038 3.0442,-0.98099 5.25464,2.15806 2.89663,4.11353 -2.62929,2.18044 -3.10432,2.67205 -3.10432,3.2127 0,0.53435 0.25169,0.60685 2.10667,0.60685 1.54258,0 2.07123,0.10711 1.97432,0.4 -0.0867,0.26219 -0.97794,0.4322 -2.58667,0.49346 l -2.45432,0.0935 z m 15.04,0.0718 c -1.43721,-0.83259 -2.08,-1.39784 -2.08,-1.82911 0,-1.00865 1.10643,-0.86291 3.36,0.4426 1.43721,0.83258 2.08,1.39784 2.08,1.8291 0,1.00866 -1.10643,0.86291 -3.36,-0.44259 z M 17.711983,235.12894 c 0.0753,-0.52361 0.68336,-0.99149 2.30667,-1.77491 2.33478,-1.12677 3.16261,-1.20745 3.33259,-0.3248 0.0756,0.39233 -0.51734,0.85497 -2.14833,1.67632 -2.67357,1.34639 -3.64053,1.46367 -3.49093,0.42339 z m 290.081627,-0.43949 c -1.56773,-0.80454 -2.1513,-1.27127 -2.07633,-1.66059 0.16991,-0.88227 0.99801,-0.80147 3.33252,0.32517 1.62331,0.78342 2.23138,1.2513 2.30668,1.77491 0.1497,1.04094 -0.94003,0.90652 -3.56287,-0.43949 z M 15.272085,230.42887 c -0.09896,-0.16012 -0.09792,-0.50483 0.0023,-0.76604 0.244028,-0.63592 4.781258,-2.59216 5.432538,-2.34224 1.01022,0.38766 0.30174,1.32212 -1.7727,2.33816 -2.11656,1.03667 -3.33859,1.29366 -3.662155,0.77012 z m 294.862135,-0.76281 c -1.51751,-0.74859 -2.08,-1.19796 -2.08,-1.66168 0,-0.99274 0.82351,-0.92334 3.49614,0.29461 1.89166,0.86206 2.44815,1.26053 2.36592,1.6941 -0.17173,0.90534 -1.52021,0.78874 -3.78206,-0.32703 z M 13.070453,225.1511 c -0.282387,-0.73589 0.45812,-1.33128 2.78917,-2.24258 2.39057,-0.93457 3.17669,-0.89075 3.01706,0.16816 -0.0765,0.50778 -0.66862,0.90832 -2.34245,1.58468 -2.552105,1.03126 -3.219753,1.12566 -3.46378,0.48974 z m 299.383767,-0.55211 c -1.74296,-0.73668 -2.32,-1.13459 -2.32,-1.59982 0,-0.99 0.71985,-1.01122 3.07461,-0.0906 2.33105,0.9113 3.07156,1.50669 2.78918,2.24258 -0.25098,0.65403 -0.94645,0.54568 -3.54379,-0.55211 z M 11.312754,220.4393 c -0.570622,-0.21131 -0.718098,-0.47654 -0.64,-1.15103 0.09204,-0.79493 0.399167,-0.98685 3.301484,-2.06311 3.494225,-1.29576 4.679895,-1.46824 5.263025,-0.76562 0.46257,0.55737 0.006,1.58987 -0.85414,1.93054 -4.146035,1.64254 -6.402493,2.29654 -7.070369,2.04922 z m 303.612866,-0.47731 c -1.13927,-0.42051 -2.69393,-0.99592 -3.45481,-1.27868 -1.44683,-0.5377 -2.15862,-1.56596 -1.58055,-2.28332 0.51778,-0.64255 1.79273,-0.43994 5.20396,0.827 3.03083,1.12565 3.2,1.23689 3.2,2.10409 0,1.36978 -0.90669,1.5396 -3.3686,0.63091 z M 9.379985,214.61512 c -0.685927,-0.8265 -0.03663,-1.4046 2.385002,-2.1235 2.446299,-0.72623 3.329251,-0.69993 3.329251,0.0991 0,0.6812 -0.609762,1.05387 -2.72,1.6624 -1.056,0.30452 -2.07693,0.61269 -2.268732,0.68481 -0.191803,0.0721 -0.518287,-0.0732 -0.725521,-0.32286 z m 307.474235,-0.27701 c -2.28347,-0.70483 -2.88,-1.06675 -2.88,-1.74734 0,-0.82121 0.99568,-0.85226 3.37735,-0.10533 2.38137,0.74683 3.01274,1.31534 2.34899,2.11511 -0.43309,0.52184 -0.25106,0.53863 -2.84634,-0.26244 z M 7.780093,209.30833 c -0.235855,-0.14576 -0.378658,-0.52036 -0.317341,-0.83244 0.07944,-0.40432 0.836674,-0.77658 2.634476,-1.29512 2.750519,-0.79332 3.482412,-0.73134 3.333929,0.28234 -0.07312,0.49916 -0.53881,0.79248 -1.896274,1.19437 -2.90949,0.8614 -3.303586,0.92971 -3.75479,0.65085 z m 310.354127,-0.46095 c -1.9129,-0.56212 -2.41967,-0.8413 -2.49692,-1.37559 -0.14786,-1.02269 0.57761,-1.08601 3.33393,-0.29102 1.79781,0.51854 2.55502,0.8908 2.63448,1.29512 0.0973,0.4951 -0.44759,1.14997 -0.91149,1.09552 -0.088,-0.0103 -1.24,-0.33614 -2.56,-0.72403 z M 6.329866,203.77675 c -0.988026,-0.55293 -0.03166,-1.41975 2.179089,-1.97508 3.095596,-0.77759 3.977609,-0.64369 3.525242,0.53516 -0.243319,0.63408 -4.999132,1.83457 -5.704331,1.43992 z m 313.346974,-0.33642 c -2.30773,-0.58307 -3.09554,-1.13986 -2.64477,-1.86921 0.2599,-0.42054 1.17303,-0.36085 3.52743,0.23055 1.29571,0.32548 2.19453,0.74166 2.38982,1.10657 0.55661,1.03999 -0.55008,1.21994 -3.27248,0.53209 z M 4.854238,197.62651 c 0,-0.66862 0.215922,-0.81979 1.5926,-1.11503 3.52797,-0.75662 4.143452,-0.78623 4.364566,-0.21002 0.299005,0.77919 -0.180634,1.11647 -2.31139,1.62536 -2.893564,0.69107 -3.645776,0.6291 -3.645776,-0.30031 z m 315.639202,0.30122 c -1.97186,-0.4825 -2.35922,-0.69869 -2.35922,-1.31666 0,-0.77878 0.79649,-0.85171 3.40672,-0.3119 2.48752,0.51443 3.07702,0.87028 2.76944,1.67181 -0.1991,0.51882 -1.58406,0.50313 -3.81694,-0.0433 z M 3.638238,192.89599 c -0.498766,-0.49876 -0.490883,-1.37299 0.016,-1.77439 0.705593,-0.55876 7.563803,-1.54116 8.155105,-1.16818 0.726279,0.45812 0.806143,0.85314 0.309743,1.532 -0.293733,0.40171 -1.399794,0.76161 -3.604314,1.17283 -3.809278,0.71054 -4.376099,0.73818 -4.876534,0.23774 z M 320.39686,192.6517 c -2.90582,-0.55668 -4.05808,-1.1854 -3.76791,-2.0559 0.30069,-0.90207 1.22407,-0.96744 4.89957,-0.34686 3.9794,0.6719 4.82061,1.14703 4.09178,2.31105 -0.47341,0.7561 -1.64778,0.77672 -5.22344,0.0917 z M 2.816915,186.94905 c -0.529341,-0.85649 0.22162,-1.29776 2.841476,-1.66964 1.473211,-0.20913 2.830953,-0.28605 3.017205,-0.17094 0.52836,0.32655 0.398524,1.07696 -0.246017,1.42191 -0.893581,0.47823 -5.369507,0.8121 -5.612664,0.41867 z m 319.317305,-0.0403 c -1.53246,-0.25281 -2.08,-0.5552 -2.08,-1.14873 0,-0.78013 0.62008,-0.86893 3.35584,-0.48058 2.58208,0.36652 3.37002,0.81446 2.8663,1.62946 -0.19996,0.32359 -2.18022,0.32352 -4.14214,-1.5e-4 z M 2.268817,181.24936 c -0.746222,-0.89914 0.267176,-1.3626 3.215019,-1.47034 2.369163,-0.0866 2.723881,-0.0288 2.823284,0.46004 0.145768,0.71684 -0.760194,1.05274 -3.505792,1.29984 -1.68042,0.15123 -2.217684,0.0898 -2.532511,-0.28954 z m 321.048543,0.194 c -2.18295,-0.24794 -2.82331,-0.62016 -2.50298,-1.45493 0.17872,-0.46574 0.54474,-0.50577 2.8425,-0.31082 2.8735,0.24379 3.83891,0.73296 3.13068,1.58632 -0.22643,0.27284 -0.64608,0.47636 -0.93251,0.45228 -0.28646,-0.0241 -1.42841,-0.14687 -2.53769,-0.27285 z M 1.654238,175.24186 c 0,-0.62746 0.20682,-0.79231 1.2,-0.95647 0.66,-0.10909 2.038015,-0.19994 3.062256,-0.20187 1.745905,-0.003 1.855867,0.0412 1.76,0.71217 -0.115202,0.8063 -1.38624,1.15342 -4.342256,1.18586 -1.559114,0.0171 -1.68,-0.0361 -1.68,-0.73969 z m 320.959982,0.47601 c -0.84291,-0.14892 -1.14531,-0.37601 -1.22227,-0.91788 -0.096,-0.67622 0.0109,-0.71978 1.76,-0.71647 1.02425,0.002 2.40227,0.0928 3.06227,0.20187 0.99318,0.16416 1.2,0.32901 1.2,0.95647 0,0.7145 -0.10592,0.75571 -1.84,0.71601 -1.012,-0.0232 -2.344,-0.13117 -2.96,-0.24 z M 1.390366,169.53232 c 0.09865,-0.69548 0.25399,-0.73697 3.087743,-0.82465 2.948564,-0.0912 2.982642,-0.0837 2.88,0.64 -0.09865,0.69548 -0.25399,0.73697 -3.087743,0.82465 -2.948564,0.0912 -2.982642,0.0837 -2.88,-0.64 z m 320.477194,0.49434 c -0.11734,-0.11733 -0.21334,-0.48274 -0.21334,-0.81201 0,-0.54838 0.24864,-0.59094 2.96,-0.50666 2.79363,0.0868 2.96576,0.13247 3.06227,0.812 0.0995,0.70041 0.0246,0.72 -2.74669,0.72 -1.56691,0 -2.94492,-0.096 -3.06224,-0.21333 z M 15.602283,168.87999 c -0.11363,-0.396 -0.29703,-2.28753 -0.407551,-4.20341 -0.168069,-2.91336 -0.127276,-3.45906 0.249271,-3.33465 0.31764,0.10494 0.50054,0.91408 0.62107,2.74758 0.094,1.42936 0.25089,2.67888 0.34873,2.77672 0.0978,0.0978 0.35342,-0.40797 0.56795,-1.12402 0.49721,-1.65953 1.27218,-1.58281 1.79603,0.17778 0.35243,1.18448 0.39519,1.2203 0.57301,0.48 0.10569,-0.44 0.24417,-1.69696 0.30774,-2.79326 0.11835,-2.04128 0.36318,-2.67297 0.83149,-2.1454 0.26473,0.29823 -0.0601,5.95583 -0.42558,7.41194 -0.27031,1.07701 -1.20881,0.80978 -1.62136,-0.46166 -0.49894,-1.53772 -0.70667,-1.56014 -1.13732,-0.12277 -0.44087,1.47148 -1.35941,1.79024 -1.70348,0.59115 z m 293.396267,0.31455 c -0.0915,-0.23852 -0.12545,-2.08087 -0.0754,-4.09411 l 0.091,-3.66043 2.48,-0.0935 c 2.02864,-0.0765 2.48,-0.006 2.48,0.38473 0,0.36308 -0.48142,0.50112 -2,0.57345 l -2,0.0953 v 1.12 1.11999 l 1.68,0.0967 c 1.17787,0.0678 1.68,0.23019 1.68,0.54327 0,0.31309 -0.50213,0.47547 -1.68,0.54328 l -1.68,0.0967 v 1.28 1.28 l 2.02139,0.0958 c 1.39702,0.0662 1.98217,0.21449 1.89441,0.48 -0.19085,0.57734 -4.67437,0.7045 -4.89147,0.13872 z M 1.019289,164.48943 c -0.250092,-0.4673 -0.250092,-0.83157 0,-1.29887 0.32518,-0.60761 0.607136,-0.64368 4.377003,-0.56 3.428649,0.0761 4.082008,0.17293 4.382052,0.64944 0.256826,0.40786 0.256826,0.71213 0,1.11999 -0.300044,0.47651 -0.953403,0.57334 -4.382052,0.64944 -3.769867,0.0837 -4.051823,0.0476 -4.377003,-0.56 z m 318.458931,0.24656 c -0.2112,-0.2112 -0.384,-0.6144 -0.384,-0.896 0,-1.09041 0.69504,-1.27999 4.69274,-1.27999 3.59724,0 3.95334,0.0534 4.26726,0.64 0.24336,0.45471 0.24336,0.82528 0,1.27999 -0.31392,0.5866 -0.67002,0.64 -4.26726,0.64 -2.62592,0 -4.05182,-0.12707 -4.30874,-0.384 z M 1.547571,158.82666 c -0.117333,-0.11733 -0.213333,-0.48274 -0.213333,-0.81201 0,-0.54838 0.248654,-0.59094 2.96,-0.50666 2.793646,0.0868 2.965746,0.13247 3.062256,0.81201 0.09947,0.7004 0.02474,0.72 -2.746667,0.72 -1.566907,0 -2.944923,-0.096 -3.062256,-0.21334 z m 320.162779,-0.49434 c 0.0987,-0.69548 0.25398,-0.73697 3.08774,-0.82465 2.94858,-0.0912 2.98266,-0.0837 2.88,0.64 -0.0987,0.69548 -0.25398,0.73697 -3.08774,0.82465 -2.94858,0.0912 -2.98266,0.0837 -2.88,-0.64 z M 2.534238,153.3708 c -0.682409,-0.10338 -0.88,-0.30817 -0.88,-0.91206 0,-0.72845 0.108509,-0.77755 1.68,-0.7603 2.956016,0.0324 4.227054,0.37956 4.342256,1.18586 0.09784,0.6848 0.008,0.71362 -2.08,0.66775 -1.200241,-0.0264 -2.578256,-0.10794 -3.062256,-0.18125 z m 318.907442,-0.27232 c -0.3256,-0.84852 0.32076,-1.11469 3.20044,-1.31792 l 2.7721,-0.19562 v 0.80566 c 0,0.68239 -0.18362,0.836 -1.2,1.004 -2.31731,0.38303 -4.56544,0.24355 -4.77254,-0.29612 z M 4.159733,147.92582 c -1.741269,-0.13843 -2.551685,-0.81678 -1.833636,-1.53483 0.368976,-0.36897 0.939417,-0.40276 2.964823,-0.17562 2.635166,0.29552 3.293682,0.61486 2.975851,1.44312 -0.195481,0.50941 -0.671919,0.54042 -4.107038,0.26733 z m 316.654647,-0.23426 c -0.33105,-0.86269 0.30122,-1.17767 2.96317,-1.47619 2.05715,-0.23071 2.59293,-0.19625 2.98086,0.19168 0.82624,0.82624 -0.18851,1.34819 -3.10153,1.59533 -2.29776,0.19495 -2.66378,0.15492 -2.8425,-0.31082 z M 4.959016,142.33457 c -1.304489,-0.20068 -2.04153,-0.47666 -2.17049,-0.81273 -0.350368,-0.91304 0.329667,-1.12978 2.814245,-0.89696 2.605289,0.24413 3.634793,0.73157 3.313503,1.56884 -0.225064,0.58651 -0.903461,0.61066 -3.957258,0.14085 z m 315.193174,-0.14085 c -0.3213,-0.83727 0.70821,-1.32471 3.31349,-1.56884 2.47612,-0.23203 3.16448,-0.0157 2.81856,0.88575 -0.12992,0.33853 -0.956,0.61144 -2.58356,0.85351 -3.11107,0.46271 -3.30919,0.4532 -3.54849,-0.17042 z M 127.92227,138.8 c -0.11362,-0.396 -0.29702,-2.28754 -0.40755,-4.20342 -0.16807,-2.91336 -0.12727,-3.45906 0.24928,-3.33465 0.31764,0.10494 0.50054,0.91408 0.62106,2.74758 0.094,1.42936 0.25089,2.67888 0.34873,2.77672 0.0978,0.0978 0.35342,-0.40797 0.56796,-1.12402 0.4972,-1.65953 1.27218,-1.58281 1.79602,0.17779 0.35243,1.18447 0.3952,1.22029 0.57302,0.48 0.10568,-0.44 0.24416,-1.69697 0.30773,-2.79327 0.11835,-2.04127 0.36318,-2.67297 0.83149,-2.1454 0.26473,0.29823 -0.0601,5.95583 -0.42558,7.41194 -0.27031,1.07701 -1.20881,0.80978 -1.62136,-0.46166 -0.49894,-1.53772 -0.70667,-1.56014 -1.13732,-0.12277 -0.44086,1.47148 -1.35941,1.79024 -1.70348,0.59116 z m 8.98529,0.50666 c -0.40203,-0.40202 -0.21295,-0.70221 0.50667,-0.80441 0.68256,-0.0969 0.72474,-0.26326 0.8113,-3.19852 0.0888,-3.01282 0.0716,-3.09906 -0.64,-3.2 -1.41709,-0.20101 -0.54967,-0.74373 1.1887,-0.74373 1.6925,0 2.49119,0.52972 1.12137,0.74373 -0.62656,0.0979 -0.65883,0.27824 -0.57268,3.2 0.0866,2.93526 0.12875,3.10158 0.81131,3.19852 0.396,0.0562 0.72,0.30824 0.72,0.56 0,0.34468 -0.46108,0.45775 -1.86667,0.45775 -1.02667,0 -1.96267,-0.096 -2.08,-0.21334 z m 7.78667,-3.94666 c 0,-3.93989 0.0337,-4.16 0.63688,-4.16 0.48381,0 1.01828,0.74992 2.22365,3.12 l 1.58676,3.12 0.0163,-3.12 c 0.0134,-2.55273 0.10363,-3.12 0.49635,-3.12 0.40205,0 0.48,0.67555 0.48,4.16 0,3.969 -0.0298,4.16 -0.65048,4.16 -0.50628,0 -0.98511,-0.69165 -2.16,-3.12 l -1.50951,-3.12 -0.0916,3.12 c -0.0729,2.48398 -0.18708,3.12 -0.56,3.12 -0.3872,0 -0.46841,-0.7213 -0.46841,-4.16 z m 9.16685,3.19426 c -0.26354,-1.3177 -0.26104,-5.6792 0.004,-6.66862 0.50262,-1.87761 4.2925,0.44675 4.75589,2.91682 0.41553,2.21496 -1.08708,4.22365 -3.44587,4.60643 -1.04277,0.16922 -1.11899,0.11963 -1.31384,-0.85463 z m 2.90059,-1.03426 c 0.36245,-0.396 0.7539,-1.03343 0.86989,-1.41652 0.31707,-1.04723 -0.5866,-2.86842 -1.71213,-3.45045 l -0.9852,-0.50947 v 3.04822 c 0,2.73787 0.0595,3.04822 0.58422,3.04822 0.32131,0 0.88076,-0.324 1.24322,-0.72 z m 14.63801,1.21454 c -0.73463,-0.73463 -0.78546,-1.00381 -0.78546,-4.16 0,-2.78626 0.0837,-3.37454 0.48,-3.37454 0.39444,0 0.48,0.56634 0.48,3.17714 0,2.46164 0.11325,3.29039 0.50286,3.68 0.58029,0.58029 1.5102,0.64683 2.39818,0.1716 0.55142,-0.29511 0.61896,-0.69671 0.61896,-3.68 0,-2.76333 0.0839,-3.34874 0.48,-3.34874 0.39711,0 0.48,0.59824 0.48,3.46422 0,3.20735 -0.0549,3.5158 -0.74062,4.16 -1.04505,0.98177 -2.88462,0.93962 -3.91392,-0.0897 z m 7.85454,-3.37454 c 0,-3.93989 0.0337,-4.16 0.63689,-4.16 0.48381,0 1.01828,0.74992 2.22365,3.12 l 1.58675,3.12 0.0164,-3.12 c 0.0134,-2.55273 0.10362,-3.12 0.49635,-3.12 0.40205,0 0.48,0.67555 0.48,4.16 0,3.969 -0.0299,4.16 -0.65048,4.16 -0.50628,0 -0.98511,-0.69165 -2.16,-3.12 l -1.50952,-3.12 -0.0916,3.12 c -0.0729,2.48398 -0.18708,3.12 -0.56,3.12 -0.3872,0 -0.46842,-0.7213 -0.46842,-4.16 z m 9.49334,3.94666 c -0.40203,-0.40202 -0.21295,-0.70221 0.50666,-0.80441 0.68256,-0.0969 0.72475,-0.26326 0.81131,-3.19852 0.0888,-3.01282 0.0716,-3.09906 -0.64,-3.2 -1.41709,-0.20101 -0.54967,-0.74373 1.18869,-0.74373 1.69251,0 2.4912,0.52972 1.12138,0.74373 -0.62656,0.0979 -0.65883,0.27824 -0.57268,3.2 0.0866,2.93526 0.12874,3.10158 0.8113,3.19852 0.396,0.0562 0.72,0.30824 0.72,0.56 0,0.34468 -0.46107,0.45775 -1.86666,0.45775 -1.02667,0 -1.96267,-0.096 -2.08,-0.21334 z M 198.77422,135.84 v -3.68 h -1.12 c -0.79481,0 -1.12,-0.14299 -1.12,-0.49246 0,-0.41193 0.44512,-0.47734 2.72194,-0.4 2.75799,0.0937 3.87948,0.64958 1.67806,0.83177 l -1.2,0.0993 v 3.66068 c 0,3.04061 -0.0813,3.66069 -0.48,3.66069 -0.39884,0 -0.48,-0.62223 -0.48,-3.68 z M 6.774237,137.32563 c -3.070948,-0.59345 -3.519999,-0.8008 -3.519999,-1.62534 0,-1.28981 0.769951,-1.44383 4.256442,-0.85145 4.189734,0.71186 4.319416,0.75338 4.726103,1.51328 0.496764,0.92822 -0.164833,1.56546 -1.581728,1.52351 -0.63845,-0.0189 -2.384818,-0.27091 -3.880818,-0.56 z m 310.096963,0.13482 c -0.27749,-0.33435 -0.28826,-0.63356 -0.0395,-1.09833 0.40669,-0.7599 0.53637,-0.80142 4.7261,-1.51328 3.47331,-0.59014 4.25645,-0.43722 4.25645,0.83116 0,0.88095 -0.5839,1.13952 -3.8584,1.70853 -3.74359,0.65053 -4.59443,0.66256 -5.08462,0.0719 z M 8.854237,131.68197 c -0.176,-0.0668 -1.148,-0.28477 -2.16,-0.48439 -1.667829,-0.329 -1.839999,-0.43981 -1.839999,-1.18433 0,-0.80585 0.03277,-0.81752 1.733988,-0.61757 2.70851,0.31833 4.186012,0.8992 4.186012,1.64571 0,0.45139 -0.23453,0.6567 -0.800001,0.70031 -0.44,0.0339 -0.944,0.007 -1.12,-0.0597 z m 309.387453,-0.34348 c -0.28501,-0.74271 0.26388,-1.11947 2.34388,-1.60885 2.37163,-0.55798 3.51617,-0.56432 3.72481,-0.0206 0.30317,0.79006 -0.26653,1.14831 -2.60995,1.64127 -2.90446,0.61097 -3.22018,0.60989 -3.45874,-0.0118 z M 8.374237,125.8736 c -2.02438,-0.53859 -2.882751,-1.32619 -2.082832,-1.9111 0.653428,-0.4778 5.4744,0.68124 5.742792,1.38066 0.443377,1.15542 -0.692217,1.32 -3.65996,0.53044 z m 308.657833,0.23527 c -0.45108,-0.72985 0.33811,-1.27892 2.68548,-1.86843 2.74326,-0.68893 3.7919,-0.51524 3.22982,0.53496 -0.19302,0.36071 -1.09901,0.77917 -2.38787,1.10292 -2.3544,0.5914 -3.26753,0.65109 -3.52743,0.23055 z M 9.974237,120.49734 c -1.873638,-0.55862 -2.421256,-0.85814 -2.496919,-1.36572 -0.150115,-1.00703 0.648168,-1.07908 3.35711,-0.30299 1.829217,0.52405 2.525921,0.87246 2.609185,1.30482 0.06248,0.32442 -0.08057,0.71291 -0.31789,0.8633 -0.51681,0.32752 -0.22036,0.3745 -3.151486,-0.49941 z m 305.968503,0.49941 c -0.23732,-0.15039 -0.38037,-0.53888 -0.3179,-0.8633 0.0833,-0.43236 0.77997,-0.78077 2.60919,-1.30482 2.70624,-0.77532 3.50752,-0.70392 3.35712,0.29911 -0.0763,0.50894 -0.64099,0.80471 -2.65693,1.39166 -1.408,0.40996 -2.56,0.74659 -2.56,0.74808 0,0.002 -0.19417,-0.12033 -0.43148,-0.27073 z M 11.512238,115.14259 c -2.204652,-0.68673 -2.846895,-1.33084 -2.085834,-2.0919 0.367576,-0.36758 0.847694,-0.30553 3.071378,0.39693 2.327466,0.73525 2.624045,0.91446 2.536075,1.53249 -0.133273,0.93632 -0.920683,0.97264 -3.521619,0.16248 z m 302.568182,0.19259 c -0.29361,-0.76514 0.46848,-1.28987 2.93047,-2.01773 1.83269,-0.54182 2.31165,-0.58628 2.65176,-0.24616 0.75949,0.75948 0.0681,1.39654 -2.26688,2.08858 -2.75004,0.81508 -3.06349,0.83166 -3.31535,0.17531 z M 13.974238,110.43543 c -2.861078,-1.08508 -3.210749,-1.30399 -3.301484,-2.06689 -0.176463,-1.4837 0.932812,-1.5648 4.373307,-0.31971 1.645502,0.59549 3.248562,1.22011 3.562352,1.38805 1.36061,0.72818 0.95363,2.25611 -0.59336,2.22764 -0.46245,-0.009 -2.28082,-0.5616 -4.040815,-1.22909 z m 295.940992,0.89758 c -0.46336,-0.46336 -0.15878,-1.51958 0.54714,-1.89737 0.31251,-0.16726 1.91452,-0.79132 3.56003,-1.38681 3.45864,-1.25165 4.54804,-1.16623 4.37331,0.34289 -0.0921,0.79493 -0.39917,0.98685 -3.30149,2.06311 -3.35481,1.24407 -4.60168,1.45549 -5.17899,0.87818 z M 15.628813,104.68492 c -2.240128,-0.91169 -2.839616,-1.42309 -2.550732,-2.17591 0.236274,-0.61572 0.923716,-0.51396 3.456152,0.51161 1.88022,0.76144 2.24,1.02789 2.24,1.65888 0,1.03862 -0.6042,1.03966 -3.14542,0.005 z m 294.718737,0.70174 c -0.11733,-0.11733 -0.21333,-0.46389 -0.21333,-0.77014 0,-0.3903 0.71101,-0.8528 2.37775,-1.54666 2.65315,-1.10451 3.23513,-1.19482 3.48604,-0.54097 0.28131,0.7331 -0.45599,1.33047 -2.74716,2.22576 -2.31876,0.90607 -2.57373,0.96157 -2.9033,0.63201 z M 17.594303,99.463063 c -2.04233,-0.932349 -2.716297,-1.574309 -2.322218,-2.211939 0.323558,-0.52354 1.545598,-0.26655 3.662148,0.77011 1.52708,0.74795 2.08,1.18889 2.08,1.658769 0,0.955467 -0.98919,0.892717 -3.41993,-0.21694 z m 290.421517,0.552257 c -0.28365,-0.739196 0.10753,-1.087746 2.37432,-2.115556 2.29995,-1.04285 3.35525,-1.10656 3.52561,-0.21286 0.0826,0.43328 -0.46771,0.8293 -2.33446,1.679999 -2.69567,1.228457 -3.30067,1.338477 -3.56547,0.648417 z M 34.054233,98.028074 c -0.22,-0.0888 -0.4,-0.36265 -0.4,-0.60862 0,-0.34554 0.32545,-0.4026 1.43156,-0.25099 3.32688,0.456 4.37715,-2.854933 1.13174,-3.567743 -1.21605,-0.26709 -1.21689,-0.75803 -0.003,-1.92072 0.528,-0.50586 0.96,-1.0368 0.96,-1.17987 0,-0.14307 -0.792,-0.26013 -1.76,-0.26013 -1.35111,0 -1.76,-0.11152 -1.76,-0.48 0,-0.38667 0.49778,-0.48 2.56,-0.48 2.96726,0 3.22417,0.3486 1.64815,2.23642 l -0.91186,1.09225 0.99186,0.666 c 1.62267,1.08958 1.55679,3.614013 -0.1169,4.479513 -0.90046,0.46564 -2.93063,0.61309 -3.77125,0.27389 z m 8.91587,-0.61516 c -0.56479,-0.71801 -0.67587,-1.296683 -0.67587,-3.521013 0,-1.46398 0.16268,-3.01883 0.36151,-3.45522 0.76829,-1.68621 3.63949,-1.86522 4.67081,-0.29122 0.38168,0.58251 0.53584,1.55624 0.54916,3.46867 0.0239,3.431103 -0.57596,4.416253 -2.77781,4.561933 -1.25364,0.0829 -1.54424,-0.0213 -2.1278,-0.76315 z m 3.53702,-0.85291 c 0.2178,-0.396603 0.38957,-1.785283 0.38241,-3.091643 -0.0114,-2.07112 -0.10507,-2.44618 -0.7396,-2.96 -0.93186,-0.75457 -1.46162,-0.74244 -2.2557,0.0516 -0.52274,0.52274 -0.64,1.06667 -0.64,2.9688 0,2.75875 0.5098,3.751203 1.92689,3.751203 0.63457,0 1.05638,-0.22903 1.326,-0.72 z m 239.830257,1.01677 c -0.7091,-0.55778 -0.84316,-0.91645 -0.84316,-2.255893 0,-0.87596 0.22415,-2.02612 0.4981,-2.55589 0.68518,-1.32499 2.6804,-3.48499 3.21914,-3.48499 0.66177,0 0.55431,0.27796 -0.69866,1.80704 l -1.14143,1.39296 h 0.96358 c 2.4909,0 3.74392,3.36845 1.85684,4.991653 -1.11623,0.96014 -2.7121,1.00366 -3.85441,0.10512 z m 2.83518,-0.50042 c 0.75813,-0.29092 1.16544,-1.559543 0.80506,-2.507423 -0.66868,-1.75874 -3.5234,-1.13035 -3.5234,0.77558 0,1.534733 1.21493,2.308763 2.71834,1.731843 z M 19.894233,94.297101 c -1.50548,-0.74818 -2.10824,-1.23027 -2.18225,-1.7454 -0.14957,-1.04097 0.81675,-0.92396 3.49093,0.42274 1.6375,0.82463 2.2243,1.28342 2.14874,1.68 -0.16483,0.86503 -1.21648,0.75634 -3.45742,-0.35734 z m 285.973327,0.84956 c -0.56754,-0.56753 -0.0262,-1.15287 2.01867,-2.18264 2.65436,-1.33671 3.61954,-1.45139 3.47025,-0.41232 -0.0741,0.51602 -0.67416,0.9942 -2.18226,1.73914 -2.0968,1.03575 -2.91498,1.24751 -3.30666,0.85582 z M 22.454233,89.333251 c -1.43721,-0.83258 -2.08,-1.39784 -2.08,-1.8291 0,-1.02125 1.12335,-0.87657 3.36,0.43277 1.43029,0.83729 2.08,1.41215 2.08,1.84036 0,1.00712 -1.10771,0.86073 -3.36,-0.44403 z m 280.761587,0.76207 c -0.26827,-0.69911 0.0158,-0.97813 2.29163,-2.25084 2.22023,-1.24163 3.18677,-1.34352 3.18677,-0.33595 0,0.42654 -0.6485,0.99343 -2.08,1.81824 -2.2518,1.29747 -3.12008,1.49383 -3.3984,0.76855 z M 25.843953,85.294291 c -2.95842,-1.77855 -3.52191,-2.33746 -3.20066,-3.17461 0.42884,-1.11756 1.40267,-0.90517 4.70065,1.02521 2.93227,1.71633 3.27029,2.00829 3.27029,2.82465 0,1.53943 -1.42101,1.33828 -4.77028,-0.67525 z m 272.663607,1.53237 c -0.11734,-0.11733 -0.21334,-0.54093 -0.21334,-0.94133 0,-0.58167 0.62301,-1.09466 3.0996,-2.55221 1.70478,-1.00332 3.33931,-1.8869 3.6323,-1.96351 0.66442,-0.17375 1.65358,0.77404 1.52183,1.45818 -0.054,0.28056 -1.46522,1.33329 -3.13599,2.33939 -2.78728,1.67846 -4.35498,2.20891 -4.9044,1.65948 z M 28.054233,79.669571 c -1.41138,-0.92124 -1.92,-1.44496 -1.92,-1.97701 0,-1.13239 0.79025,-1.01058 3.04,0.46857 1.40298,0.92242 2.08,1.57444 2.08,2.0032 0,1.0356 -1.12091,0.86228 -3.2,-0.49476 z m 269.714147,0.80635 c -0.25569,-0.66631 0.21812,-1.15502 2.4634,-2.54088 1.99169,-1.22934 2.86244,-1.29437 2.86244,-0.21377 0,0.41644 -0.68337,1.05294 -2.07216,1.93004 -2.22264,1.40373 -2.95977,1.59055 -3.25368,0.82461 z M 31.554183,75.261881 c -2.55238,-1.654363 -2.96697,-2.172002 -2.28544,-2.853528 0.47936,-0.479366 0.69523,-0.402685 2.79267,0.992019 1.78234,1.185179 2.25153,1.658149 2.17299,2.190519 -0.15585,1.05642 -0.63314,0.99783 -2.68022,-0.32901 z m 263.443327,1.01473 c -0.65894,-0.65893 -0.0752,-1.48998 2.0297,-2.889647 2.00008,-1.329968 2.30673,-1.444393 2.73176,-1.019363 0.70345,0.703456 0.33669,1.255274 -1.7105,2.57357 -2.13762,1.37652 -2.74432,1.64208 -3.05096,1.33544 z M 34.324773,70.408523 c -1.92339,-1.391085 -2.28838,-1.82969 -2.04669,-2.459507 0.28865,-0.752212 1.19493,-0.467703 3.23213,1.014652 1.28288,0.933482 1.98402,1.668547 1.98402,2.08 0,1.012909 -1.23219,0.765984 -3.16946,-0.635145 z m 257.249447,0.635145 c 0,-0.411453 0.70115,-1.146518 1.98403,-2.08 2.08168,-1.514732 2.94309,-1.767878 3.25448,-0.956412 0.2192,0.571222 -0.42484,1.272255 -2.44689,2.663465 -1.7088,1.175686 -2.79162,1.320346 -2.79162,0.372947 z M 37.701953,65.909272 c -2.11673,-1.602413 -2.58316,-2.394592 -1.62613,-2.761837 0.65526,-0.251447 1.6563,0.304099 3.54893,1.969517 1.35126,1.189046 1.48708,1.419875 1.10579,1.879296 -0.23907,0.288064 -0.53956,0.52375 -0.66777,0.52375 -0.1282,0 -1.19057,-0.724829 -2.36082,-1.610726 z m 250.667287,1.124723 c -0.48935,-0.589626 0.0266,-1.245565 2.28213,-2.901264 1.69683,-1.245591 2.84285,-1.432423 2.84285,-0.463459 0,0.401104 -0.77148,1.213302 -2.12772,2.24 -1.17025,0.885897 -2.23261,1.610726 -2.36082,1.610726 -0.1282,0 -0.4146,-0.218701 -0.63644,-0.486003 z M 41.983463,62.72764 c -1.48238,-1.227799 -2.81966,-2.454704 -2.97175,-2.726458 -0.46008,-0.822128 0.0356,-1.761184 0.92969,-1.761184 1.16906,0 6.51283,4.584528 6.51283,5.587485 0,0.701091 -0.53101,1.132515 -1.39394,1.132515 -0.20988,0 -1.59445,-1.00456 -3.07683,-2.232358 z m 241.030757,2.020428 c -0.22,-0.08877 -0.4,-0.499628 -0.4,-0.913014 0,-1.031181 5.33829,-5.595056 6.54444,-5.595056 0.9477,0 1.35263,0.697933 0.93658,1.614269 -0.38318,0.843949 -5.58597,5.11192 -6.19325,5.080467 -0.26827,-0.01389 -0.66777,-0.09789 -0.88777,-0.186666 z M 44.771693,57.266507 c -1.82699,-1.628371 -2.27987,-2.628265 -1.35172,-2.984432 0.65988,-0.253216 4.47426,3.003072 4.47426,3.819613 0,1.190269 -1.2145,0.865427 -3.12254,-0.835181 z m 236.364127,1.148816 c -0.24677,-0.643082 -0.0237,-0.927139 2.14555,-2.732429 1.90487,-1.585251 2.85285,-1.796009 2.85285,-0.634256 0,0.722093 -3.43596,3.83136 -4.23392,3.83136 -0.32239,0 -0.6664,-0.209104 -0.76448,-0.464675 z M 48.670483,53.231288 c -1.91179,-1.823533 -2.32621,-2.757827 -1.3837,-3.119501 0.34948,-0.134109 1.18469,0.455939 2.6251,1.854544 1.83444,1.781203 2.05669,2.118525 1.68826,2.562448 -0.23335,0.281171 -0.56133,0.511219 -0.72884,0.511219 -0.16752,0 -1.15789,-0.81392 -2.20082,-1.80871 z m 228.797827,1.297491 c -0.36842,-0.443923 -0.14618,-0.781245 1.68827,-2.562448 2.10284,-2.041814 3.13764,-2.404861 3.13764,-1.100806 0,0.566733 -3.54084,4.174473 -4.09706,4.174473 -0.16751,0 -0.4955,-0.230048 -0.72885,-0.511219 z M 52.764223,49.350718 c -1.88781,-1.907711 -2.40401,-3.270719 -1.2387,-3.270719 0.57611,0 4.20871,3.514812 4.20871,4.072243 0,0.314176 -0.66795,1.047756 -0.95401,1.047756 -0.10231,0 -1.00951,-0.832176 -2.016,-1.84928 z m 220.953997,1.46528 c -0.2112,-0.2112 -0.384,-0.509891 -0.384,-0.663756 0,-0.538311 3.62265,-4.072243 4.17448,-4.072243 1.27971,0 0.93776,1.023475 -1.02478,3.06726 -1.08413,1.129008 -2.06352,2.052739 -2.17642,2.052739 -0.1129,0 -0.37808,-0.1728 -0.58928,-0.384 z M 57.464133,46.329583 c -2.64741,-2.852176 -3.16822,-4.089584 -1.72126,-4.089584 0.81694,0 3.87927,3.510457 3.76347,4.314192 -0.14536,1.008873 -0.98278,0.916774 -2.04221,-0.224608 z m 212.254487,0.828144 c -0.51864,-0.518637 -0.1308,-1.374989 1.4012,-3.09385 0.89408,-1.003133 1.88667,-1.823878 2.20576,-1.823878 1.19815,0 0.95657,0.967228 -0.74068,2.965491 -1.62779,1.916486 -2.38577,2.432752 -2.86628,1.952237 z M 86.534233,45.868069 c -0.22,-0.08877 -0.4,-0.36265 -0.4,-0.608614 0,-0.345546 0.32544,-0.402605 1.43155,-0.250996 3.32689,0.456 4.37716,-2.854924 1.13174,-3.567737 -1.21604,-0.267088 -1.21688,-0.758026 -0.003,-1.920723 0.528,-0.505856 0.96,-1.036797 0.96,-1.179869 0,-0.143072 -0.792,-0.260131 -1.76,-0.260131 -1.35111,0 -1.76,-0.111514 -1.76,-0.48 0,-0.386666 0.49778,-0.48 2.56,-0.48 2.96726,0 3.22417,0.348608 1.64815,2.236425 l -0.91185,1.09225 0.99185,0.666 c 1.62267,1.089574 1.55679,3.614006 -0.11689,4.479504 -0.90047,0.465648 -2.93063,0.613091 -3.77126,0.273891 z m 8.64,0 c -0.22,-0.08877 -0.4,-0.36265 -0.4,-0.608614 0,-0.345546 0.32544,-0.402605 1.43155,-0.250996 3.32689,0.456 4.377157,-2.854924 1.13174,-3.567737 -1.21604,-0.267088 -1.21688,-0.758026 -0.003,-1.920723 0.528,-0.505856 0.96,-1.036797 0.96,-1.179869 0,-0.143072 -0.792,-0.260131 -1.76,-0.260131 -1.35111,0 -1.76,-0.111514 -1.76,-0.48 0,-0.386666 0.49778,-0.48 2.56,-0.48 2.967257,0 3.224167,0.348608 1.64815,2.236425 l -0.91185,1.09225 0.99185,0.666 c 1.622667,1.089574 1.556787,3.614006 -0.11689,4.479504 -0.90047,0.465648 -2.93063,0.613091 -3.77126,0.273891 z m 138.559987,0 c -0.22,-0.08877 -0.4,-0.36265 -0.4,-0.608614 0,-0.345546 0.32545,-0.402605 1.43155,-0.250996 3.32689,0.456 4.37716,-2.854924 1.13175,-3.567737 -1.21605,-0.267088 -1.21689,-0.758026 -0.003,-1.920723 0.528,-0.505856 0.96,-1.036797 0.96,-1.179869 0,-0.143072 -0.792,-0.260131 -1.76,-0.260131 -1.35111,0 -1.76,-0.111514 -1.76,-0.48 0,-0.386666 0.49778,-0.48 2.56,-0.48 2.96726,0 3.22417,0.348608 1.64815,2.236425 l -0.91185,1.09225 0.99185,0.666 c 1.62267,1.089574 1.55679,3.614006 -0.1169,4.479504 -0.90046,0.465648 -2.93062,0.613091 -3.77125,0.273891 z M 61.355953,42.905602 c -2.54346,-2.997888 -3.0309,-4.26913 -1.78818,-4.663555 0.34845,-0.110592 0.85589,-0.07665 1.12765,0.07543 0.69829,0.390788 4.95881,5.587607 4.95881,6.048576 0,0.862928 -0.43142,1.393943 -1.13251,1.393943 -0.54212,0 -1.40127,-0.774647 -3.16577,-2.854397 z m 202.194037,2.071785 c -0.21968,-0.875264 -0.14554,-0.998604 2.57834,-4.289699 2.37834,-2.8736 4.00589,-3.459958 4.00589,-1.443203 0,1.196909 -4.58402,6.515514 -5.61562,6.515514 -0.55221,0 -0.82814,-0.222944 -0.96861,-0.782612 z M 66.244053,39.439999 c -2.35607,-2.559927 -3.02102,-4.06392 -1.97432,-4.465578 0.55316,-0.212265 1.48658,0.71696 3.19712,3.18273 0.6829,0.984419 0.75927,1.282953 0.42975,1.68 -0.5469,0.658963 -0.71849,0.617725 -1.65255,-0.397152 z M 261.1947,39.864674 c -0.45343,-0.546346 -0.40044,-0.657827 1.49472,-3.144675 1.50242,-1.971498 2.6448,-2.448406 2.6448,-1.104125 0,0.719843 -2.69584,4.384493 -3.39197,4.610944 -0.19359,0.06297 -0.52998,-0.09999 -0.74755,-0.362144 z M 69.657903,34.815973 c -1.51473,-2.081686 -1.76788,-2.943091 -0.95641,-3.25448 0.57122,-0.219198 1.27225,0.424831 2.66346,2.446887 2.20355,3.202742 0.59091,3.965667 -1.70705,0.807593 z m 187.036317,1.321683 c 0,-0.663747 1.50731,-3.084963 2.60202,-4.179674 0.66512,-0.665123 1.55798,-0.474727 1.55798,0.332228 0,0.910531 -2.81223,4.509789 -3.52367,4.509789 -0.43015,0 -0.63633,-0.214608 -0.63633,-0.662343 z M 74.094613,31.367177 c -1.34188,-2.017987 -1.45781,-2.326894 -1.03278,-2.751923 0.7085,-0.708497 1.25576,-0.335508 2.62807,1.791176 1.45841,2.260113 1.60357,2.99347 0.62029,3.133579 -0.56252,0.08015 -1.00789,-0.356618 -2.21558,-2.172832 z m 177.949427,1.896342 c -0.21396,-0.346192 1.48385,-3.390313 2.50265,-4.487185 0.69036,-0.743272 0.98277,-0.768635 1.51184,-0.131139 0.33534,0.404053 0.15416,0.858934 -1.08336,2.72 -1.43458,2.157402 -2.389,2.775521 -2.93113,1.898324 z M 80.012203,30.171847 c -1.14994,-1.362405 -2.57077,-3.972691 -2.40192,-4.412704 0.10113,-0.263529 0.46347,-0.479144 0.80522,-0.479144 0.73002,0 3.33721,3.892306 3.17419,4.738785 -0.14436,0.749656 -1.00357,0.833024 -1.57749,0.153063 z m 167.626417,0.345881 c -0.44064,-0.44064 -0.20603,-1.1225 1.09508,-3.182656 1.03163,-1.633477 1.46721,-2.068061 1.99673,-1.992156 1.0732,0.153842 0.94968,0.905782 -0.51468,3.133025 -1.28281,1.951109 -2.05558,2.563344 -2.57713,2.041787 z M 84.038193,26.998809 c -2.16458,-3.677927 -2.27906,-4.017996 -1.58595,-4.711105 1.10705,-1.107053 1.34287,-0.906141 3.66844,3.125455 1.86527,3.233621 2.02336,4.44091 0.60305,4.605248 -0.76854,0.08893 -1.02733,-0.202058 -2.68554,-3.019598 z m 157.509367,2.867857 c -0.54943,-0.549429 -0.019,-2.117124 1.65948,-4.904412 1.0061,-1.670759 2.05883,-3.081952 2.33939,-3.135983 0.68414,-0.131754 1.63193,0.857412 1.45818,1.521835 -0.0766,0.292983 -0.9602,1.927516 -1.96351,3.632295 -1.45755,2.476589 -1.97054,3.099598 -2.55221,3.099598 -0.4004,0 -0.824,-0.096 -0.94133,-0.213333 z M 89.753713,24.893724 c -0.17691,-0.227549 -0.7984,-1.294622 -1.3811,-2.371274 -1.0886,-2.011438 -1.12486,-3.143066 -0.0944,-2.944608 0.68031,0.131015 2.97894,4.034104 2.88508,4.898888 -0.0815,0.751 -0.95015,1.007963 -1.40962,0.416994 z M 237.92273,24.781199 c -0.20184,-0.525999 1.39552,-3.916386 2.31094,-4.904958 0.52151,-0.563179 1.42253,-0.2359 1.41429,0.513715 -0.01,0.888227 -2.36289,4.715337 -2.9713,4.832507 -0.2994,0.05766 -0.63867,-0.140909 -0.75393,-0.441264 z m -75.9485,-5.9012 c 0,-3.939887 0.0337,-4.159999 0.63688,-4.159999 0.48381,0 1.01828,0.749922 2.22365,3.119999 l 1.58675,3.12 0.0164,-3.12 c 0.0134,-2.55273 0.10363,-3.119999 0.49635,-3.119999 0.40206,0 0.48,0.675555 0.48,4.159999 0,3.96901 -0.0298,4.16 -0.65048,4.16 -0.50628,0 -0.98511,-0.691642 -2.16,-3.12 l -1.50951,-3.12 -0.0916,3.12 c -0.0729,2.483983 -0.18708,3.12 -0.56,3.12 -0.3872,0 -0.46841,-0.721294 -0.46841,-4.16 z m -68.305557,1.628672 c -1.35055,-2.681833 -1.4643,-3.640033 -0.41444,-3.490928 0.5269,0.07483 0.9949,0.660117 1.74499,2.182256 1.10595,2.244306 1.21195,3.293072 0.34945,3.457414 -0.39657,0.07556 -0.85537,-0.511237 -1.68,-2.148742 z m 139.450317,1.702778 c -0.10733,-0.279702 0.21563,-1.395702 0.7177,-2.48 1.15802,-2.500954 1.36266,-2.77145 2.09671,-2.77145 0.9004,0 0.75302,0.993746 -0.5232,3.527989 -1.10215,2.188585 -1.88637,2.778473 -2.29121,1.723461 z M 99.667583,20.093724 c -0.66986,-0.845442 -2.06851,-4.370971 -1.95922,-4.938497 0.0623,-0.323333 0.36667,-0.636689 0.67645,-0.696346 0.42942,-0.0827 0.83103,0.479165 1.690417,2.36498 0.61995,1.360396 1.08319,2.7019 1.02942,2.981119 -0.12508,0.649454 -1.01035,0.827328 -1.437067,0.288744 z m 128.343127,-0.09172 c -0.11321,-0.295044 0.28038,-1.602852 0.89795,-2.98365 0.82573,-1.846189 1.25467,-2.458358 1.72255,-2.458358 0.98024,0 0.88127,1.344325 -0.27092,3.679999 -1.02693,2.081758 -1.95873,2.780537 -2.34958,1.762009 z M 110.89874,18.549925 c -0.37152,-0.141004 -0.78,-0.52042 -0.90773,-0.843148 -2.49937,-6.314834 -2.68909,-7.9348313 -0.90506,-7.7282603 0.79493,0.09204 0.98685,0.3991663 2.06311,3.3014833 0.65266,1.76 1.19532,3.578367 1.20591,4.040817 0.0243,1.059802 -0.57333,1.564197 -1.45623,1.229108 z m 106.14247,-0.09094 c -0.57731,-0.577309 -0.36589,-1.824177 0.87818,-5.178984 1.07626,-2.902317 1.26818,-3.209441 2.06311,-3.3014833 1.50912,-0.17474 1.59454,0.9146663 0.34289,4.3733063 -0.59549,1.645503 -1.21955,3.247516 -1.38681,3.560028 -0.37779,0.705921 -1.43401,1.010495 -1.89737,0.547133 z m -113.27712,-2.59674 c -1.10451,-2.653145 -1.19482,-3.235123 -0.54097,-3.48603 0.73589,-0.282387 1.33128,0.45812 2.24258,2.789169 0.9208,2.355348 0.89937,3.074615 -0.0916,3.074615 -0.46912,0 -0.86129,-0.579159 -1.61004,-2.377754 z m 119.14327,1.943139 c -0.21164,-0.551532 1.40302,-4.719951 2.02332,-5.223406 0.56715,-0.46032 1.36354,-0.206545 1.36354,0.434504 0,0.257405 -0.44543,1.537998 -0.98986,2.845763 -0.74875,1.798595 -1.14092,2.377754 -1.61004,2.377754 -0.3411,0 -0.69523,-0.195577 -0.78696,-0.434615 z M 115.00786,14 c -0.17861,-0.22 -0.62459,-1.406503 -0.99108,-2.636673 -0.546,-1.8326913 -0.59138,-2.3116444 -0.25126,-2.6517584 0.22829,-0.228297 0.63332,-0.33134 0.90005,-0.228984 0.58586,0.224813 2.04196,4.6842284 1.7651,5.4057204 -0.23448,0.611039 -0.97052,0.66882 -1.42281,0.111695 z m 97.64681,-0.0677 c -0.27272,-0.710668 1.16836,-5.2272064 1.73751,-5.4456074 0.27262,-0.104615 0.68246,-0.0034 0.91075,0.224877 0.34012,0.340114 0.29474,0.8190671 -0.25126,2.6517584 -0.36649,1.23017 -0.81247,2.416673 -0.99108,2.636673 -0.43938,0.541224 -1.18606,0.505268 -1.40592,-0.0677 z M 120.20262,12.4 c -0.6183,-1.632217 -1.36079,-4.8438194 -1.21044,-5.2356494 0.10093,-0.263004 0.47433,-0.434576 0.82979,-0.38127 0.50889,0.07631 0.80074,0.633322 1.37274,2.6199101 0.39954,1.3876453 0.65097,2.7196443 0.55874,2.9599993 -0.21007,0.547446 -1.34719,0.574582 -1.55083,0.03701 z m 87.11887,-0.02009 c -0.0958,-0.24966 0.15271,-1.589274 0.55225,-2.9769193 0.572,-1.9865871 0.86385,-2.5435961 1.37274,-2.6199091 1.00291,-0.1504 1.0744,0.650568 0.29981,3.3592194 -0.57352,2.005531 -0.84592,2.516797 -1.38243,2.594618 -0.3675,0.05331 -0.74656,-0.107349 -0.84237,-0.357009 z m -70.53432,-1.086969 c -0.83484,-0.834836 -1.95759,-7.5484851 -1.37896,-8.2456871 0.48989,-0.590285 1.40744,-0.633406 1.85666,-0.08725 0.55581,0.675741 1.52808,7.5651231 1.15182,8.1616281 -0.48905,0.775303 -0.9745,0.826339 -1.62952,0.171313 z M 190.83822,11.456 c -0.51094,-0.510948 -0.48497,-1.398083 0.14747,-5.0375891 0.56901,-3.274498 0.82758,-3.858411 1.70853,-3.858411 1.27785,0 1.40638,0.758908 0.77227,4.5601947 -0.68866,4.1282914 -1.49899,5.4650794 -2.62827,4.3358054 z m -64.91647,-0.182775 c -0.58024,-0.369158 -1.67405,-5.0126031 -1.32689,-5.6329381 0.59546,-1.064024 1.45035,-0.02635 2.04044,2.4766987 0.67362,2.8573254 0.44011,3.8902124 -0.71355,3.1562394 z m 76.15316,-0.272409 c -0.33556,-0.874457 0.84028,-5.2081151 1.51042,-5.5667621 1.06508,-0.570012 1.24841,0.470692 0.55782,3.1664737 -0.5723,2.2340044 -0.94298,2.9013244 -1.61897,2.9145714 -0.13752,0.0027 -0.3397,-0.228732 -0.44927,-0.514283 z M 131.07823,9.8941197 c -0.32337,-0.523225 -1.07966,-3.8595038 -1.09261,-4.8198838 -0.0118,-0.877718 0.57863,-1.340666 1.21125,-0.949684 0.44467,0.274821 1.46182,5.0095257 1.2146,5.6537828 -0.20792,0.5418303 -1.02602,0.6128783 -1.33324,0.115785 z m 65.58782,-0.09213 c -0.25385,-0.6615471 0.75164,-5.3969098 1.20553,-5.6774328 0.20053,-0.123936 0.5749,-0.14464 0.83193,-0.04601 0.94306,0.361886 -0.22737,5.8960658 -1.29025,6.1007371 -0.30854,0.05941 -0.64478,-0.110371 -0.74721,-0.3772943 z M 163.63823,8.8960046 c -0.25693,-0.256921 -0.384,-1.682831 -0.384,-4.3087407 0,-3.59723497 0.0534,-3.95332297 0.64,-4.26725897 0.45471,-0.24335699 0.82528,-0.24335699 1.27999,0 0.5866,0.313936 0.64,0.670024 0.64,4.26725897 0,3.9977017 -0.18958,4.6927407 -1.28,4.6927407 -0.28159,0 -0.68479,-0.1728 -0.89599,-0.384 z m -21.79439,-1.160658 c -0.47823,-0.893581 -0.8121,-5.3695067 -0.41867,-5.6126637 0.85649,-0.529341 1.29776,0.221619 1.66964,2.841476 0.20913,1.47321 0.28605,2.8309527 0.17094,3.0172047 -0.32655,0.528359 -1.07696,0.398523 -1.42191,-0.246017 z m 43.95886,0.246017 c -0.11511,-0.186252 -0.0382,-1.5439947 0.17094,-3.0172047 0.37188,-2.619857 0.81315,-3.370817 1.66964,-2.841476 0.39343,0.243157 0.0596,4.7190827 -0.41867,5.6126637 -0.34495,0.64454 -1.09536,0.774376 -1.42191,0.246017 z m -38.50102,-0.998075 c -0.15092,-0.408806 -0.36078,-1.7030927 -0.46636,-2.8761937 -0.15123,-1.680419 -0.0898,-2.217683 0.28954,-2.532511 0.89914,-0.74622197 1.3626,0.267177 1.47034,3.215019 0.0866,2.3691637 0.0288,2.7238807 -0.46004,2.8232837 -0.35483,0.07215 -0.65932,-0.157857 -0.83348,-0.629598 z m 33.06982,0.372312 c -0.11027,-0.178423 -0.10038,-1.4720497 0.022,-2.8747287 0.23656,-2.711949 0.71637,-3.59822997 1.56617,-2.892959 0.36067,0.299326 0.42222,0.866375 0.27348,2.519182 -0.10558,1.173101 -0.31146,2.4569097 -0.45751,2.8529097 -0.27471,0.744817 -1.0528,0.964037 -1.40412,0.395596 z m -27.51354,-0.629558 c -0.10672,-0.172676 -0.28061,-1.5406757 -0.38642,-3.0399997 l -0.19237,-2.72604297 h 0.80566 c 0.68239,0 0.836,0.18360597 1.004,1.19999997 0.10909,0.66 0.19994,2.028 0.20187,3.04 0.003,1.6092267 -0.0744,1.8399997 -0.61759,1.8399997 -0.34161,0 -0.70843,-0.141281 -0.81515,-0.313957 z m 22.14066,0.111686 c -0.27626,-0.276257 -0.28754,-3.0531027 -0.019,-4.6777287 0.16416,-0.99318 0.32901,-1.19999997 0.95647,-1.19999997 0.70358,0 0.75681,0.12088597 0.73969,1.67999997 -0.0278,2.534043 -0.40258,4.2198757 -0.96203,4.3276167 -0.2699,0.05198 -0.59171,-0.0065 -0.71513,-0.129888 z M 158.34756,6.5066669 c -0.11733,-0.117334 -0.21333,-1.495349 -0.21333,-3.062257 0,-2.77140297 0.0196,-2.84613997 0.72,-2.74666597 0.67953,0.09651 0.72517,0.26861 0.812,3.06225597 0.0843,2.711346 0.0417,2.9599997 -0.50666,2.9599997 -0.32927,0 -0.69468,-0.096 -0.81201,-0.2133327 z m 11.05434,-2.722796 c 0.0877,-2.83375197 0.12917,-2.98909697 0.82465,-3.08774197 0.72366,-0.102642 0.73123,-0.06856 0.64,2.87999997 -0.0877,2.833752 -0.12917,2.9890967 -0.82465,3.0877417 -0.72366,0.102643 -0.73123,0.06856 -0.64,-2.8799997 z"
     style="fill:#000000;stroke-width:0.31999999" />
</svg>
