<?xml version="1.0" encoding="UTF-8" standalone="no"?>
<!-- Created with Inkscape (http://www.inkscape.org/) -->

<svg
   xmlns:dc="http://purl.org/dc/elements/1.1/"
   xmlns:cc="http://creativecommons.org/ns#"
   xmlns:rdf="http://www.w3.org/1999/02/22-rdf-syntax-ns#"
   xmlns:svg="http://www.w3.org/2000/svg"
   xmlns="http://www.w3.org/2000/svg"
   xmlns:sodipodi="http://sodipodi.sourceforge.net/DTD/sodipodi-0.dtd"
   xmlns:inkscape="http://www.inkscape.org/namespaces/inkscape"
   width="10.511986mm"
   height="9.9729633mm"
   viewBox="0 0 10.511986 9.9729633"
   version="1.1"
   id="svg8"
   inkscape:version="0.92.3 (2405546, 2018-03-11)"
   sodipodi:docname="knob_001_A_plate_A.svg">
  <defs
     id="defs2" />
  <sodipodi:namedview
     id="base"
     pagecolor="#ffffff"
     bordercolor="#666666"
     borderopacity="1.0"
     inkscape:pageopacity="0.0"
     inkscape:pageshadow="2"
     inkscape:zoom="2.8"
     inkscape:cx="-52.530275"
     inkscape:cy="-21.822857"
     inkscape:document-units="mm"
     inkscape:current-layer="layer1"
     showgrid="false"
     inkscape:window-width="2560"
     inkscape:window-height="1380"
     inkscape:window-x="3840"
     inkscape:window-y="0"
     inkscape:window-maximized="1" />
  <metadata
     id="metadata5">
    <rdf:RDF>
      <cc:Work
         rdf:about="">
        <dc:format>image/svg+xml</dc:format>
        <dc:type
           rdf:resource="http://purl.org/dc/dcmitype/StillImage" />
        <dc:title></dc:title>
      </cc:Work>
    </rdf:RDF>
  </metadata>
  <g
     inkscape:label="Livello 1"
     inkscape:groupmode="layer"
     id="layer1"
     transform="translate(-144.54589,-83.824397)">
    <path
       style="fill:#000000;stroke-width:0.04626594"
       d="m 152.50088,93.435137 c -0.48617,-0.48904 -0.46868,-0.57015 0.0821,-0.38067 0.14792,0.0509 0.28052,0.0925 0.29466,0.0925 0.0142,0 -0.0767,-0.10397 -0.20185,-0.23104 -0.17623,-0.17892 -0.21512,-0.24349 -0.17238,-0.28622 0.0427,-0.0427 0.14143,0.0276 0.4375,0.312 0.54096,0.51955 0.53784,0.60011 -0.0159,0.41177 l -0.34028,-0.11574 0.21889,0.22223 c 0.12039,0.12223 0.21889,0.24755 0.21889,0.27848 0,0.13972 -0.1923,0.0279 -0.52158,-0.30334 z m -6.58149,0.0337 c -0.0164,-0.0266 -0.0109,-0.0734 0.0122,-0.1041 0.0231,-0.0307 0.1745,-0.22236 0.33638,-0.42593 0.16188,-0.20357 0.3,-0.37791 0.30694,-0.38741 0.007,-0.01 0.0471,-0.004 0.0892,0.0121 0.0592,0.0227 0.0646,0.0439 0.0238,0.0931 -0.0411,0.0495 -0.0258,0.0958 0.0691,0.20856 0.067,0.0797 0.15615,0.13927 0.19799,0.13241 0.0421,-0.007 0.0761,0.0183 0.0761,0.0563 0,0.0434 -0.17093,0.14037 -0.46266,0.26253 -0.48836,0.20451 -0.60052,0.23085 -0.64897,0.15245 z m 0.63741,-0.3311 c 0.14515,-0.0525 0.15273,-0.077 0.0623,-0.20069 -0.0632,-0.0864 -0.0676,-0.0857 -0.16271,0.0258 -0.0538,0.0631 -0.12063,0.15429 -0.14861,0.20268 -0.044,0.076 -0.0391,0.0832 0.0355,0.0531 0.0475,-0.0192 0.1436,-0.0556 0.21358,-0.0809 z m 6.96302,-0.18719 c -0.19636,-0.0657 -0.1651,-0.18067 0.0446,-0.16411 0.26326,0.0208 0.25463,-0.10522 -0.0265,-0.3863 -0.27091,-0.27091 -0.40701,-0.28824 -0.38813,-0.0494 0.009,0.12014 -0.005,0.14857 -0.0779,0.14857 -0.19076,0 -0.17639,-0.38168 0.0177,-0.47011 0.16934,-0.0772 0.32348,-0.0138 0.57273,0.23546 0.2593,0.2593 0.32255,0.4254 0.22101,0.58037 -0.0843,0.12865 -0.19695,0.16135 -0.36365,0.10555 z m -8.12746,-0.14444 c -0.11985,-0.19392 -0.12152,-0.33706 -0.006,-0.51235 0.22112,-0.33544 0.696,-0.45448 0.90659,-0.22726 0.0624,0.0673 0.11345,0.14773 0.11345,0.17866 0,0.0569 -0.80997,0.71678 -0.87987,0.71678 -0.0208,0 -0.0812,-0.0701 -0.1342,-0.15583 z m 0.48301,-0.31105 c 0.16485,-0.12956 0.29973,-0.25374 0.29973,-0.27597 0,-0.0984 -0.18329,-0.13819 -0.33817,-0.0735 -0.25436,0.10628 -0.44602,0.43309 -0.32497,0.55414 0.0459,0.0459 0.0408,0.0488 0.36341,-0.2047 z m 8.38326,-0.16302 c -0.0156,-0.0156 10e-4,-0.0738 0.0377,-0.12934 0.0624,-0.0953 0.0481,-0.11875 -0.25687,-0.42142 -0.30904,-0.30666 -0.38915,-0.43865 -0.26625,-0.43865 0.0312,0 0.20465,0.14691 0.38543,0.32648 0.28731,0.28539 0.33619,0.31742 0.38844,0.25446 0.0329,-0.0396 0.0884,-0.072 0.12351,-0.072 0.11914,0 0.0643,0.16573 -0.11172,0.33761 -0.17103,0.16701 -0.24222,0.20089 -0.30022,0.14288 z m -9.59692,-0.44752 c -0.1306,-0.17134 -0.14035,-0.20312 -0.0807,-0.26293 0.0597,-0.0598 0.085,-0.0473 0.20976,0.1041 0.1585,0.1923 0.2059,0.20617 0.32771,0.0959 0.0813,-0.0736 0.081,-0.0814 -0.009,-0.22767 -0.1234,-0.19967 -0.0293,-0.27379 0.12296,-0.0968 0.0582,0.0677 0.11867,0.12308 0.13431,0.12308 0.0156,0 0.0967,-0.0521 0.18008,-0.11566 0.16735,-0.12765 0.25858,-0.14733 0.25858,-0.0558 0,0.0922 -0.75883,0.63437 -0.88502,0.63238 -0.0734,-0.001 -0.15885,-0.0662 -0.25825,-0.19663 z m 9.40897,-3.83291 c -0.10296,-0.0598 -0.23696,-0.36117 -0.1839,-0.41352 0.037,-0.0364 1.04754,-0.41902 1.0559,-0.39973 0.14139,0.32634 0.14889,0.42724 0.043,0.57838 -0.1631,0.23286 -0.68711,0.36736 -0.91503,0.23487 z m 0.68826,-0.27288 c 0.10889,-0.10229 0.14649,-0.22843 0.0861,-0.28882 -0.0306,-0.0306 -0.66292,0.18292 -0.73104,0.24689 -0.0249,0.0233 -0.0161,0.0706 0.0213,0.11574 0.0931,0.11219 0.47357,0.0672 0.62362,-0.0738 z m -9.50457,-0.83778 c -0.23154,-0.18164 -0.42098,-0.34748 -0.42098,-0.36851 0,-0.021 0.0646,-0.11184 0.14359,-0.20179 0.26101,-0.29727 0.64293,-0.19121 0.64293,0.17854 0,0.075 -0.0357,0.17592 -0.0794,0.22419 -0.076,0.084 -0.0717,0.0943 0.10019,0.23856 0.16033,0.1346 0.19573,0.25928 0.0736,0.25928 -0.0214,0 -0.22839,-0.14862 -0.45993,-0.33027 z m 0.17901,-0.41229 c 0.002,-0.0748 -0.084,-0.18275 -0.14478,-0.18275 -0.0194,0 -0.0788,0.0468 -0.13216,0.10405 l -0.0969,0.10406 0.1269,0.10119 c 0.11766,0.0938 0.13122,0.0955 0.1862,0.0232 0.0326,-0.0429 0.06,-0.11029 0.0608,-0.14973 z m 8.24951,0.68473 c -0.14627,-0.18844 -0.25823,-0.4554 -0.21085,-0.50278 0.0933,-0.0934 0.91279,-0.54246 0.94897,-0.5201 0.098,0.0606 5.6e-4,0.15856 -0.35756,0.35958 -0.2163,0.12141 -0.39327,0.24239 -0.39327,0.26885 0,0.0265 0.0431,0.11784 0.0958,0.20308 0.0891,0.14412 0.0889,0.2492 -3.3e-4,0.2492 -0.0208,0 -0.0581,-0.026 -0.0828,-0.0578 z m -7.41526,-0.81555 c 0,-0.0478 0.0324,-0.11373 0.0719,-0.14656 0.14306,-0.11874 0.17273,-0.23036 0.0865,-0.32562 -0.0953,-0.10535 -0.18498,-0.11429 -0.22041,-0.022 -0.0141,0.0367 -0.0775,0.10072 -0.14096,0.1423 -0.10679,0.07 -0.12728,0.0699 -0.27581,-5.6e-4 -0.2121,-0.10064 -0.30214,-0.30453 -0.19919,-0.45106 0.14328,-0.20396 0.203,-0.26631 0.25507,-0.26631 0.0822,0 0.0622,0.12979 -0.0418,0.27043 -0.1745,0.23602 0.0577,0.44918 0.23867,0.21911 0.13064,-0.16608 0.33152,-0.15981 0.50716,0.0158 0.0744,0.0744 0.13524,0.16428 0.13524,0.19978 0,0.0909 -0.28505,0.4515 -0.3569,0.4515 -0.0327,0 -0.0595,-0.0391 -0.0595,-0.0869 z m 6.76513,-0.0777 c -0.16514,-0.11567 -0.13818,-0.34005 0.0661,-0.55044 0.3483,-0.35863 0.64391,-0.44684 0.7835,-0.2338 0.0471,0.0718 0.0647,0.15874 0.0467,0.23045 -0.0506,0.20166 -0.53994,0.62519 -0.72284,0.62564 -0.0389,9e-5 -0.11694,-0.0322 -0.17349,-0.0718 z m 0.49362,-0.32553 c 0.26161,-0.23521 0.30925,-0.38897 0.12052,-0.38897 -0.076,0 -0.19768,0.0789 -0.35407,0.22964 -0.20196,0.19466 -0.22926,0.24046 -0.17924,0.30072 0.0916,0.11033 0.15821,0.0875 0.41279,-0.14139 z m -1.08241,-0.25045 c -0.0175,-0.0283 0.0255,-0.13404 0.0954,-0.23501 0.12359,-0.17833 0.1247,-0.18549 0.0391,-0.25027 -0.13365,-0.10116 -0.18703,-0.0845 -0.29631,0.0923 -0.0965,0.15615 -0.1988,0.20572 -0.25083,0.12155 -0.033,-0.0535 0.58197,-0.93016 0.65292,-0.93075 0.11307,-9.4e-4 0.11111,0.10087 -0.005,0.25292 -0.0658,0.0863 -0.11963,0.17553 -0.11963,0.19838 0,0.0456 0.22198,0.1771 0.24624,0.14591 0.008,-0.0106 0.0618,-0.087 0.11889,-0.16971 0.11224,-0.16253 0.23829,-0.20005 0.23314,-0.0694 -0.004,0.0913 -0.54837,0.85085 -0.62969,0.87796 -0.029,0.01 -0.0669,-0.006 -0.0844,-0.0339 z m -4.07145,-0.84079 c -0.0147,-0.0591 -0.0207,-0.32599 -0.0133,-0.59318 l 0.0135,-0.48579 0.24006,0.002 c 0.29124,0.002 0.4308,0.10552 0.4308,0.31891 0,0.21562 -0.11033,0.34215 -0.31299,0.35894 -0.17058,0.0141 -0.1731,0.0173 -0.19593,0.24206 -0.0248,0.24363 -0.11807,0.33412 -0.16215,0.15724 z m 0.47736,-0.74193 c 0.0117,-0.10126 -0.008,-0.13126 -0.10147,-0.15472 -0.15738,-0.0395 -0.21374,0.005 -0.21374,0.17034 0,0.12894 0.0109,0.13795 0.15036,0.1245 0.12476,-0.012 0.15283,-0.0359 0.16485,-0.14012 z m 0.54938,0.81286 c -0.0397,-0.0397 -0.0407,-0.55987 -0.002,-0.88387 0.0396,-0.32949 0.15509,-0.33811 0.15509,-0.0116 v 0.23133 h 0.16193 0.16193 v -0.23133 c 0,-0.20049 0.0123,-0.23133 0.0925,-0.23133 0.0871,0 0.0925,0.0306 0.0918,0.52049 -3.7e-4,0.28627 -0.0189,0.54918 -0.0411,0.58425 -0.0735,0.11613 -0.14326,0.004 -0.14326,-0.23135 v -0.23153 l -0.15037,0.0145 c -0.14362,0.0138 -0.1514,0.0247 -0.17349,0.24224 -0.0217,0.21379 -0.0803,0.30108 -0.15326,0.22817 z m 1.24918,0 c -0.0175,-0.0175 -0.0318,-0.26842 -0.0318,-0.55761 0,-0.43472 0.0126,-0.53062 0.0725,-0.55362 0.13869,-0.0532 0.16056,0.0495 0.12466,0.58503 -0.0323,0.48098 -0.0749,0.61667 -0.16536,0.5262 z"
       id="path939"
       inkscape:connector-curvature="0" />
  </g>
</svg>
