<?xml version="1.0" encoding="UTF-8" standalone="no"?>
<svg
   xmlns:dc="http://purl.org/dc/elements/1.1/"
   xmlns:cc="http://creativecommons.org/ns#"
   xmlns:rdf="http://www.w3.org/1999/02/22-rdf-syntax-ns#"
   xmlns:svg="http://www.w3.org/2000/svg"
   xmlns="http://www.w3.org/2000/svg"
   id="svg8"
   version="1.1"
   viewBox="0 0 210 297"
   height="297mm"
   width="210mm">
  <defs
     id="defs2" />
  <metadata
     id="metadata5">
    <rdf:RDF>
      <cc:Work
         rdf:about="">
        <dc:format>image/svg+xml</dc:format>
        <dc:type
           rdf:resource="http://purl.org/dc/dcmitype/StillImage" />
        <dc:title></dc:title>
      </cc:Work>
    </rdf:RDF>
  </metadata>
  <g
     id="layer1">
    <path
       id="path877"
       d="m 137.56867,147.84859 c -0.10537,-0.4505 -0.10481,-0.60332 0.003,-0.78561 0.11581,-0.19604 0.46378,-0.36103 0.68554,-0.32504 0.24694,0.0401 0.45092,0.2053 0.51642,0.41831 0.0313,0.10166 0.0646,0.2101 0.0741,0.24097 0.0125,0.0408 0.10206,0.0365 0.32716,-0.0155 0.35705,-0.0825 0.5166,-0.0586 0.55357,0.0828 0.0542,0.20709 -0.0993,0.2794 -1.09444,0.51583 -0.52602,0.12497 -0.96199,0.22722 -0.96882,0.22722 -0.007,0 -0.0502,-0.16154 -0.0964,-0.35897 z m 0.78809,-0.27913 c 0.0742,-0.0418 -0.008,-0.33331 -0.10381,-0.37024 -0.11481,-0.0441 -0.32144,0.0545 -0.32068,0.15302 3.7e-4,0.0483 0.0138,0.13698 0.0299,0.197 0.0247,0.0921 0.0536,0.10455 0.185,0.0798 0.0857,-0.0161 0.17996,-0.0429 0.20956,-0.0596 z m 4.25225,0.34584 c 0.0164,-0.0518 0.2613,-0.65896 0.54413,-1.34922 l 0.51424,-1.25501 0.31329,-0.0248 0.3133,-0.0248 0.0152,-0.21042 0.0152,-0.21043 h 0.51081 c 0.79303,0 1.1484,0.17072 1.39206,0.66874 0.12104,0.24739 0.13171,0.31324 0.11191,0.6905 -0.0186,0.35356 -0.0442,0.45309 -0.1684,0.654 -0.0895,0.14474 -0.24074,0.29528 -0.38865,0.38681 -0.22106,0.1368 -0.28627,0.15131 -0.74886,0.16659 -0.76316,0.0252 -0.71456,0.0995 -0.71456,-1.09291 0,-0.59405 -0.0181,-0.97936 -0.0446,-0.95137 -0.0245,0.0259 -0.28345,0.6319 -0.57538,1.34674 l -0.53079,1.29971 h -0.29442 c -0.26687,0 -0.29163,-0.009 -0.26453,-0.0942 z m 2.74382,-1.0759 c 0.24915,-0.17451 0.38034,-0.74767 0.24993,-1.09187 -0.0868,-0.229 -0.2435,-0.36219 -0.42619,-0.36219 h -0.16467 v 0.76744 c 0,0.76561 2.5e-4,0.76745 0.11277,0.76745 0.062,0 0.16469,-0.0364 0.22816,-0.0808 z m 4.02253,1.08293 c -0.0257,-0.0479 -0.035,-0.14821 -0.0207,-0.2228 0.0143,-0.0746 0.0146,-0.13564 7.1e-4,-0.13564 -0.021,0 -1.08323,-0.23468 -1.45789,-0.3221 -0.24987,-0.0583 -0.24351,-0.42059 0.007,-0.42059 0.0642,0 0.41116,0.0668 0.77101,0.14854 0.35986,0.0817 0.68129,0.14854 0.71431,0.14854 0.033,0 0.0919,-0.0724 0.13085,-0.16092 0.0913,-0.20742 0.32079,-0.25473 0.38561,-0.0795 0.0454,0.12275 -0.11283,0.96075 -0.20201,1.06976 -0.0743,0.0908 -0.27535,0.0754 -0.32924,-0.0253 z m -8.25532,-0.63163 c -0.12662,-0.19323 -0.57249,-2.19361 -0.51351,-2.30381 0.0679,-0.12686 0.22894,-0.1654 0.39817,-0.0953 0.14934,0.0618 0.15801,0.0819 0.29494,0.68331 0.0562,0.2466 0.0638,0.2563 0.11723,0.14854 0.0822,-0.16587 0.41221,-0.19089 0.52611,-0.0399 0.0789,0.10458 0.0832,0.0987 0.1699,-0.23163 0.12318,-0.46917 0.18886,-0.56172 0.39863,-0.56172 0.12346,0 0.19162,0.0314 0.2451,0.11307 0.0681,0.10398 0.0519,0.19852 -0.20129,1.17592 -0.15146,0.58458 -0.31123,1.10291 -0.35506,1.15185 -0.13561,0.15146 -0.31756,0.089 -0.43851,-0.15061 l -0.10611,-0.21017 -0.0339,0.1359 c -0.0776,0.31095 -0.35259,0.41209 -0.50169,0.18453 z m -2.90945,-1.50749 c -0.43831,-0.0823 -0.75343,-0.16565 -0.77907,-0.20613 -0.10848,-0.17125 -0.008,-0.34028 0.20262,-0.34028 0.0706,0 0.41544,0.0551 0.76634,0.12254 0.46998,0.0903 0.65522,0.10824 0.70346,0.0682 0.071,-0.059 0.0859,-0.23178 0.0276,-0.32008 -0.02,-0.0303 -0.36442,-0.1164 -0.76536,-0.19137 -0.40275,-0.0753 -0.75421,-0.16671 -0.78535,-0.20424 -0.0711,-0.0857 -0.0212,-0.29644 0.0793,-0.33501 0.0418,-0.016 0.4249,0.0362 0.85138,0.11613 0.69673,0.13054 0.79024,0.16011 0.92154,0.29141 0.26867,0.26868 0.22555,0.82369 -0.079,1.01648 -0.19832,0.12555 -0.39687,0.12248 -1.14346,-0.0177 z m 9.70324,0.0331 c -0.0899,-0.0657 -0.22329,-0.57145 -0.2265,-0.8587 -0.003,-0.30244 0.0915,-0.35109 1.00966,-0.51751 0.61623,-0.11171 0.86683,-0.13884 0.94658,-0.1025 0.0853,0.0388 0.13241,0.14629 0.22042,0.5025 0.12836,0.51948 0.0979,0.69379 -0.12142,0.69379 -0.1561,0 -0.242,-0.13684 -0.32145,-0.51208 -0.0551,-0.26036 -0.0719,-0.28641 -0.16808,-0.26062 -0.0588,0.0158 -0.14283,0.029 -0.18684,0.0293 -0.065,5.5e-4 -0.0789,0.0541 -0.0743,0.28537 l 0.006,0.2847 -0.15855,0.0153 c -0.15064,0.0146 -0.16202,0.003 -0.228,-0.22281 -0.0382,-0.13098 -0.0949,-0.23592 -0.12614,-0.23319 -0.0312,0.003 -0.11534,0.008 -0.187,0.0124 -0.14281,0.008 -0.13933,-0.0466 -0.0377,0.59271 0.0454,0.28538 -0.14066,0.44178 -0.34648,0.29128 z m -8.18877,-1.59731 c -0.15097,-0.10575 -0.1406,-0.16295 0.093,-0.51275 0.21539,-0.32255 0.21319,-0.38269 -0.0185,-0.50668 -0.0815,-0.0436 -0.13096,-0.0134 -0.32889,0.20075 -0.27046,0.29266 -0.40047,0.31718 -0.74586,0.14069 -0.46425,-0.23722 -0.53716,-0.58675 -0.2182,-1.04615 0.15318,-0.22061 0.21985,-0.27726 0.32685,-0.27773 0.0861,-3.7e-4 0.15433,0.0366 0.18976,0.10283 0.0467,0.0873 0.0267,0.14655 -0.1285,0.38032 -0.20253,0.30503 -0.19346,0.39411 0.0489,0.48043 0.10942,0.039 0.14441,0.0318 0.18316,-0.0374 0.20911,-0.37365 0.55474,-0.47787 0.90449,-0.27273 0.45488,0.2668 0.50386,0.54832 0.17919,1.02993 -0.2885,0.42794 -0.30947,0.4417 -0.48536,0.31851 z m 7.52791,-0.25713 c -0.11618,-0.10379 -0.37174,-0.43884 -0.45319,-0.59416 -0.0855,-0.16303 0.01,-0.32021 0.18153,-0.30004 0.0921,0.0108 0.19474,0.0997 0.34676,0.30004 0.11879,0.15659 0.23544,0.2847 0.25923,0.2847 0.0238,0 0.10501,-0.0531 0.1805,-0.11805 l 0.13724,-0.11805 -0.12953,-0.19141 c -0.18631,-0.2753 -0.20707,-0.38581 -0.11064,-0.58901 0.16671,-0.35132 0.59726,-0.54969 0.91101,-0.41973 0.0906,0.0375 0.22753,0.17905 0.34856,0.3603 0.18072,0.27063 0.1929,0.30819 0.1306,0.40252 -0.12779,0.19348 -0.25554,0.15717 -0.47644,-0.13541 -0.21749,-0.28806 -0.30871,-0.3125 -0.47609,-0.12755 -0.0803,0.0887 -0.0779,0.10315 0.0463,0.28242 0.16358,0.23606 0.17042,0.48243 0.0195,0.70351 -0.2133,0.31249 -0.70138,0.45107 -0.91537,0.25992 z m -6.46625,-1.21306 c -0.0664,-0.0885 -0.30387,-0.45616 -0.52776,-0.81701 -0.42801,-0.68981 -0.47219,-0.85711 -0.24534,-0.92911 0.12907,-0.041 0.21376,0.0309 0.42424,0.35991 l 0.16912,0.26438 0.14769,-0.0872 c 0.0812,-0.048 0.14768,-0.10692 0.14768,-0.13099 0,-0.0241 -0.08,-0.17344 -0.17789,-0.33195 -0.12115,-0.19629 -0.16772,-0.32024 -0.146,-0.38865 0.0361,-0.11372 0.17152,-0.1724 0.29157,-0.12633 0.0669,0.0257 0.80939,1.15327 1.01744,1.54519 0.10899,0.2053 -0.0353,0.39809 -0.24747,0.33074 -0.0496,-0.0157 -0.17074,-0.16132 -0.26928,-0.32353 l -0.17916,-0.29492 -0.15698,0.10832 c -0.0863,0.0596 -0.161,0.11026 -0.1659,0.11264 -0.005,0.002 0.0675,0.12554 0.16091,0.27368 0.23936,0.37962 0.21959,0.59578 -0.0545,0.59578 -0.0372,0 -0.122,-0.0724 -0.18837,-0.16091 z m 4.34401,-0.55207 c -0.14228,-0.14228 -0.16834,-0.20334 -0.16834,-0.39437 0,-0.40913 0.30504,-1.12953 0.58081,-1.37166 0.20694,-0.1817 0.5235,-0.20072 0.72341,-0.0435 0.28714,0.22587 0.26353,0.71715 -0.0678,1.41147 -0.19591,0.4105 -0.38189,0.56638 -0.67573,0.56638 -0.18869,0 -0.25048,-0.0265 -0.39231,-0.16834 z m 0.77201,-0.80403 c 0.16106,-0.42542 0.18229,-0.63815 0.0681,-0.68197 -0.12197,-0.0468 -0.27594,0.1474 -0.43858,0.55321 -0.13404,0.33445 -0.16171,0.63251 -0.0623,0.67164 0.0998,0.0393 0.31428,-0.22971 0.43284,-0.54288 z m -2.38859,0.57231 c -0.077,-0.0448 -0.0866,-0.14149 -0.0866,-0.86497 v -0.8145 h -0.12704 c -0.19005,0 -0.31858,-0.0881 -0.31858,-0.21849 0,-0.17818 0.0847,-0.21172 0.61028,-0.24154 0.43389,-0.0246 0.49667,-0.0174 0.58061,0.0665 0.13669,0.13669 0.0609,0.3116 -0.14912,0.34401 l -0.16039,0.0248 0.007,0.79895 c 0.006,0.67548 -0.005,0.81131 -0.0729,0.87885 -0.0915,0.0915 -0.16039,0.098 -0.28324,0.0264 z"
       style="fill:#000000;stroke-width:0.04951267" />
  </g>
</svg>
