<?xml version="1.0" encoding="UTF-8" standalone="no"?>
<svg
   xmlns:dc="http://purl.org/dc/elements/1.1/"
   xmlns:cc="http://creativecommons.org/ns#"
   xmlns:rdf="http://www.w3.org/1999/02/22-rdf-syntax-ns#"
   xmlns:svg="http://www.w3.org/2000/svg"
   xmlns="http://www.w3.org/2000/svg"
   id="svg8"
   version="1.1"
   viewBox="0 0 210 297"
   height="297mm"
   width="210mm">
  <defs
     id="defs2" />
  <metadata
     id="metadata5">
    <rdf:RDF>
      <cc:Work
         rdf:about="">
        <dc:format>image/svg+xml</dc:format>
        <dc:type
           rdf:resource="http://purl.org/dc/dcmitype/StillImage" />
        <dc:title></dc:title>
      </cc:Work>
    </rdf:RDF>
  </metadata>
  <g
     id="layer1">
    <path
       id="path826"
       d="m 127.8098,149.98194 c -0.10478,-0.44448 -0.0778,-0.65108 0.10812,-0.82846 0.25149,-0.23992 0.50454,-0.28841 0.79233,-0.15185 0.16273,0.0772 0.25422,0.21601 0.37509,0.56902 0.0258,0.0753 0.0554,0.0757 0.37729,0.005 0.39962,-0.0877 0.51742,-0.0441 0.49117,0.18174 -0.0143,0.12304 -0.0523,0.13771 -0.93269,0.35985 -0.50477,0.12737 -0.96392,0.23341 -1.02032,0.23565 -0.0876,0.003 -0.11541,-0.0505 -0.19099,-0.37106 z m 0.67835,-0.17328 c 0.16976,-0.0471 0.18352,-0.0637 0.15439,-0.18576 -0.0443,-0.18543 -0.11114,-0.25803 -0.2377,-0.25803 -0.19354,0 -0.2838,0.19137 -0.19698,0.41762 0.0355,0.0926 0.0396,0.093 0.28029,0.0262 z m 4.35288,0.38536 c 0,-0.0105 0.24377,-0.61998 0.54171,-1.35433 l 0.5417,-1.33517 0.27685,-0.0149 c 0.15227,-0.008 0.27685,0.003 0.27685,0.0251 0,0.022 -0.24008,0.63143 -0.53351,1.35433 l -0.53351,1.31435 -0.28504,0.0149 c -0.15678,0.008 -0.28505,0.006 -0.28505,-0.004 z m 6.88316,-0.0478 c -0.0446,-0.0341 -0.0879,-0.14001 -0.0963,-0.23534 l -0.0152,-0.17334 -0.75516,-0.17393 c -0.41535,-0.0957 -0.78,-0.19926 -0.81036,-0.23022 -0.0926,-0.0945 -0.0354,-0.28908 0.0903,-0.30692 0.0618,-0.009 0.42573,0.0546 0.8088,0.14071 0.38307,0.0862 0.72879,0.14427 0.76826,0.12913 0.0395,-0.0152 0.0718,-0.0702 0.0718,-0.12224 0,-0.2307 0.35766,-0.28325 0.38958,-0.0572 0.0253,0.17906 -0.14296,0.93692 -0.22656,1.02052 -0.0869,0.0869 -0.12136,0.0882 -0.22518,0.009 z m -4.998,-0.54458 c -0.13891,-0.0735 -0.18725,-0.25472 -0.097,-0.36352 0.0452,-0.0545 0.18952,-0.0717 0.60238,-0.0717 0.6542,0 0.7348,-0.0327 0.7348,-0.29765 0,-0.25092 -0.0862,-0.29766 -0.54898,-0.29766 -0.57878,0 -0.84008,-0.24418 -0.84008,-0.78504 0,-0.1964 0.0275,-0.28183 0.12993,-0.40356 0.22101,-0.26265 0.34749,-0.29968 1.02351,-0.29968 0.64317,0 0.73172,0.027 0.73172,0.22324 0,0.19011 -0.0931,0.22324 -0.62723,0.22324 -0.46888,0 -0.51413,0.009 -0.58539,0.11026 -0.10394,0.1484 -0.0972,0.26665 0.022,0.38584 0.0797,0.0797 0.16537,0.0992 0.43486,0.0992 0.23249,0 0.38876,0.0284 0.5085,0.0924 0.48946,0.26172 0.48931,1.03184 -2.5e-4,1.31777 -0.13828,0.0808 -0.28,0.10214 -0.76719,0.11574 -0.42786,0.0119 -0.63281,-0.002 -0.72161,-0.0489 z m -3.37495,-0.0908 c -0.03,-0.0561 -0.1649,-0.58198 -0.29968,-1.16856 -0.26914,-1.17127 -0.26854,-1.25947 0.009,-1.25947 0.27078,0 0.32228,0.0643 0.41832,0.52193 l 0.0895,0.42641 0.11767,-0.1269 c 0.14408,-0.15539 0.32438,-0.16282 0.45847,-0.0189 0.0553,0.0594 0.1095,0.0985 0.12036,0.0868 0.0109,-0.0117 0.0667,-0.18863 0.12407,-0.39327 0.0574,-0.20463 0.1423,-0.39997 0.18871,-0.43408 0.12385,-0.091 0.28569,-0.0757 0.38743,0.0367 0.0865,0.0956 0.0806,0.13336 -0.1877,1.19427 -0.15238,0.60255 -0.30348,1.12738 -0.33578,1.16631 -0.0323,0.0389 -0.12477,0.0708 -0.20548,0.0708 -0.12514,0 -0.15823,-0.0292 -0.2247,-0.19844 -0.0916,-0.23323 -0.13866,-0.24902 -0.18553,-0.0623 -0.0492,0.19587 -0.11846,0.26073 -0.27857,0.26073 -0.0915,0 -0.16017,-0.0358 -0.19562,-0.10205 z m -2.82622,-1.55681 c -0.7964,-0.1527 -0.83276,-0.16435 -0.86896,-0.2784 -0.0449,-0.14159 0.059,-0.24593 0.24251,-0.24352 0.0853,0.001 0.42738,0.0529 0.76009,0.11515 0.37505,0.0701 0.63427,0.0967 0.68213,0.0699 0.0924,-0.0517 0.10265,-0.3038 0.0152,-0.37248 -0.0341,-0.0268 -0.37294,-0.10682 -0.75295,-0.17788 -0.38002,-0.0711 -0.72276,-0.16101 -0.76164,-0.1999 -0.0838,-0.0838 -0.0426,-0.25744 0.0716,-0.30124 0.0433,-0.0166 0.41637,0.0308 0.82906,0.10531 0.67463,0.12186 0.76709,0.15089 0.91646,0.28778 0.31035,0.28442 0.25673,0.79755 -0.1065,1.01902 -0.19358,0.11803 -0.3003,0.11556 -1.02698,-0.0238 z m 9.62976,0.004 c -0.0309,-0.0373 -0.0928,-0.24995 -0.13744,-0.47266 -0.0907,-0.45245 -0.0561,-0.61965 0.14369,-0.69394 0.0617,-0.023 0.45215,-0.10446 0.86761,-0.18113 0.97242,-0.17946 0.95966,-0.18432 1.10162,0.42034 0.11812,0.50315 0.091,0.64787 -0.12127,0.64787 -0.14499,0 -0.24747,-0.14573 -0.29589,-0.42077 -0.0559,-0.31752 -0.0983,-0.3661 -0.28497,-0.32688 -0.16097,0.0338 -0.16252,0.0368 -0.14707,0.28822 0.013,0.21234 -6.1e-4,0.26274 -0.0832,0.30695 -0.1536,0.0822 -0.25321,0.0112 -0.31655,-0.22559 -0.0539,-0.20137 -0.0702,-0.21725 -0.223,-0.21725 -0.21073,0 -0.23871,0.0756 -0.16556,0.44743 0.0419,0.21292 0.0431,0.32247 0.004,0.3949 -0.0615,0.115 -0.2583,0.13369 -0.34227,0.0325 z m -8.21072,-1.62665 c -0.0837,-0.11953 -0.0686,-0.16406 0.18006,-0.52836 0.16118,-0.23619 0.15499,-0.31051 -0.0363,-0.43585 -0.12913,-0.0846 -0.12953,-0.0844 -0.36534,0.17074 -0.18232,0.19728 -0.26927,0.25519 -0.38189,0.25435 -0.23154,-0.002 -0.55518,-0.17471 -0.66552,-0.3557 -0.1543,-0.25307 -0.12939,-0.44938 0.0999,-0.78695 0.19905,-0.29311 0.31449,-0.35563 0.43472,-0.2354 0.0962,0.0962 0.0695,0.23049 -0.0923,0.46578 -0.17172,0.24959 -0.16169,0.38954 0.0343,0.47885 0.11114,0.0506 0.14071,0.035 0.33507,-0.17666 0.18911,-0.20597 0.23676,-0.23219 0.42197,-0.23219 0.25275,0 0.4462,0.0935 0.61964,0.29968 0.19334,0.22978 0.17376,0.43447 -0.0772,0.80685 -0.2854,0.42351 -0.37058,0.46968 -0.50704,0.27486 z m 7.62168,-0.17421 c -0.10331,-0.0416 -0.50791,-0.64133 -0.50791,-0.75285 0,-0.11392 0.15351,-0.22116 0.25686,-0.17945 0.0361,0.0146 0.16004,0.15906 0.27547,0.3211 0.21909,0.30757 0.27576,0.3265 0.47226,0.15773 0.11582,-0.0995 0.10975,-0.15764 -0.0372,-0.35684 -0.30698,-0.41608 0.0391,-0.99219 0.59611,-0.99219 0.24418,0 0.33048,0.0554 0.53939,0.34617 0.18782,0.26144 0.21889,0.388 0.11962,0.48727 -0.11494,0.11494 -0.23874,0.0589 -0.41649,-0.18851 -0.19415,-0.27025 -0.33888,-0.31732 -0.48367,-0.15733 -0.10627,0.11743 -0.10485,0.12911 0.0419,0.34511 0.21289,0.3133 0.13367,0.64353 -0.21049,0.8774 -0.17582,0.11946 -0.47309,0.16199 -0.64586,0.0924 z m -6.47243,-1.19478 c -0.083,-0.0943 -0.79487,-1.23545 -0.91185,-1.46165 -0.0922,-0.17827 -0.0188,-0.33669 0.15588,-0.33669 0.0955,0 0.16266,0.0649 0.30817,0.29766 0.10233,0.16371 0.20365,0.29765 0.22516,0.29765 0.0755,0 0.28365,-0.16087 0.28365,-0.21923 0,-0.0324 -0.067,-0.1646 -0.14883,-0.29368 -0.17223,-0.27157 -0.19037,-0.45355 -0.0526,-0.5273 0.14698,-0.0787 0.28717,0.0792 0.76879,0.86585 0.42751,0.69825 0.48519,0.85623 0.35276,0.96614 -0.11986,0.0995 -0.25664,0.0127 -0.42955,-0.27264 -0.17556,-0.28967 -0.24981,-0.32055 -0.43261,-0.17993 l -0.11564,0.089 0.17752,0.29441 c 0.18971,0.31462 0.21269,0.41329 0.11825,0.50773 -0.085,0.085 -0.21041,0.0735 -0.29913,-0.0273 z m 4.29092,-0.63429 c -0.16946,-0.16945 -0.17446,-0.18501 -0.14753,-0.45889 0.032,-0.32503 0.22271,-0.83572 0.4167,-1.11565 0.38672,-0.55804 1.05717,-0.38431 1.05717,0.27395 0,0.39299 -0.33635,1.18372 -0.58756,1.38132 -0.0776,0.061 -0.19902,0.0947 -0.34187,0.0947 -0.18744,0 -0.24849,-0.027 -0.39691,-0.1754 z m 0.57657,-0.34961 c 0.13151,-0.16719 0.30821,-0.63476 0.34026,-0.90038 0.0198,-0.16451 0.008,-0.21672 -0.0561,-0.24119 -0.1156,-0.0444 -0.21603,0.0563 -0.37971,0.38053 -0.19786,0.39196 -0.27652,0.71838 -0.19638,0.81494 0.0895,0.10779 0.17749,0.0915 0.29189,-0.0539 z m -2.17719,0.12928 c -0.0596,-0.0376 -0.0793,-0.21278 -0.0992,-0.8798 l -0.0248,-0.83287 -0.18584,-0.0154 c -0.14968,-0.0124 -0.19178,-0.0391 -0.21638,-0.13707 -0.0588,-0.23438 0.0394,-0.27373 0.64523,-0.25838 0.53251,0.0135 0.55128,0.0177 0.56695,0.12831 0.0211,0.1486 -0.0648,0.248 -0.23068,0.26718 l -0.1328,0.0153 -0.0137,0.81501 c -0.0154,0.91898 -0.0617,1.05354 -0.30879,0.89766 z"
       style="fill:#000000;stroke-width:0.04960937" />
  </g>
</svg>
