# Created by FreeCAD <http://www.freecadweb.org>
v 9.000000 3.941747 -53.855942
v 9.000000 -0.000000 -54.000000
v 8.000000 -0.000000 -54.000000
v 8.000000 3.941747 -53.855942
v 9.000000 7.862463 -53.424541
v 8.000000 7.862463 -53.424541
v 9.000000 11.741229 -52.708096
v 8.000000 11.741229 -52.708096
v 9.000000 15.557351 -51.710434
v 8.000000 15.557351 -51.710434
v 9.000000 19.290468 -50.436871
v 8.000000 19.290468 -50.436871
v 9.000000 22.920662 -48.894203
v 8.000000 22.920662 -48.894203
v 9.000000 26.428564 -47.090668
v 8.000000 26.428564 -47.090668
v 9.000000 29.795458 -45.035881
v 8.000000 29.795458 -45.035881
v 9.000000 33.003380 -42.740810
v 8.000000 33.003380 -42.740810
v 9.000000 36.035217 -40.217697
v 8.000000 36.035217 -40.217697
v 9.000000 38.874786 -37.480007
v 8.000000 38.874786 -37.480007
v 9.000000 41.506947 -34.542343
v 8.000000 41.506947 -34.542343
v 9.000000 43.917645 -31.420382
v 8.000000 43.917645 -31.420382
v 9.000000 46.094028 -28.130779
v 8.000000 46.094028 -28.130779
v 9.000000 48.024475 -24.691086
v 8.000000 48.024475 -24.691086
v 9.000000 49.698692 -21.119656
v 8.000000 49.698692 -21.119656
v 9.000000 51.107746 -17.435541
v 8.000000 51.107746 -17.435541
v 9.000000 52.244118 -13.658402
v 8.000000 52.244118 -13.658402
v 9.000000 53.101746 -9.808390
v 8.000000 53.101746 -9.808390
v 9.000000 53.676052 -5.906045
v 8.000000 53.676052 -5.906045
v 9.000000 53.963974 -1.972189
v 8.000000 53.963974 -1.972189
v 9.000000 53.963974 1.972189
v 8.000000 53.963974 1.972189
v 9.000000 53.676052 5.906045
v 8.000000 53.676052 5.906045
v 9.000000 53.101746 9.808390
v 8.000000 53.101746 9.808390
v 9.000000 52.244118 13.658402
v 8.000000 52.244118 13.658402
v 9.000000 51.107746 17.435541
v 8.000000 51.107746 17.435541
v 9.000000 49.698692 21.119656
v 8.000000 49.698692 21.119656
v 9.000000 48.024475 24.691086
v 8.000000 48.024475 24.691086
v 9.000000 46.094028 28.130779
v 8.000000 46.094028 28.130779
v 9.000000 43.917645 31.420382
v 8.000000 43.917645 31.420382
v 9.000000 41.506947 34.542343
v 8.000000 41.506947 34.542343
v 9.000000 38.874786 37.480007
v 8.000000 38.874786 37.480007
v 9.000000 36.035217 40.217697
v 8.000000 36.035217 40.217697
v 9.000000 33.003380 42.740810
v 8.000000 33.003380 42.740810
v 9.000000 29.795458 45.035881
v 8.000000 29.795458 45.035881
v 9.000000 26.428564 47.090668
v 8.000000 26.428564 47.090668
v 9.000000 22.920662 48.894203
v 8.000000 22.920662 48.894203
v 9.000000 19.290468 50.436871
v 8.000000 19.290468 50.436871
v 9.000000 15.557351 51.710434
v 8.000000 15.557351 51.710434
v 9.000000 11.741229 52.708096
v 8.000000 11.741229 52.708096
v 9.000000 7.862463 53.424541
v 8.000000 7.862463 53.424541
v 9.000000 3.941747 53.855942
v 8.000000 3.941747 53.855942
v 9.000000 0.000000 54.000000
v 8.000000 0.000000 54.000000
v 9.000000 -3.941747 53.855942
v 8.000000 -3.941747 53.855942
v 9.000000 -7.862463 53.424541
v 8.000000 -7.862463 53.424541
v 9.000000 -11.741229 52.708096
v 8.000000 -11.741229 52.708096
v 9.000000 -15.557351 51.710434
v 8.000000 -15.557351 51.710434
v 9.000000 -19.290468 50.436871
v 8.000000 -19.290468 50.436871
v 9.000000 -22.920662 48.894203
v 8.000000 -22.920662 48.894203
v 9.000000 -26.428564 47.090668
v 8.000000 -26.428564 47.090668
v 9.000000 -29.795458 45.035881
v 8.000000 -29.795458 45.035881
v 9.000000 -33.003380 42.740810
v 8.000000 -33.003380 42.740810
v 9.000000 -36.035217 40.217697
v 8.000000 -36.035217 40.217697
v 9.000000 -38.874786 37.480007
v 8.000000 -38.874786 37.480007
v 9.000000 -41.506947 34.542343
v 8.000000 -41.506947 34.542343
v 9.000000 -43.917645 31.420382
v 8.000000 -43.917645 31.420382
v 9.000000 -46.094028 28.130779
v 8.000000 -46.094028 28.130779
v 9.000000 -48.024475 24.691086
v 8.000000 -48.024475 24.691086
v 9.000000 -49.698692 21.119656
v 8.000000 -49.698692 21.119656
v 9.000000 -51.107746 17.435541
v 8.000000 -51.107746 17.435541
v 9.000000 -52.244118 13.658402
v 8.000000 -52.244118 13.658402
v 9.000000 -53.101746 9.808390
v 8.000000 -53.101746 9.808390
v 9.000000 -53.676052 5.906045
v 8.000000 -53.676052 5.906045
v 9.000000 -53.963974 1.972189
v 8.000000 -53.963974 1.972189
v 9.000000 -53.963974 -1.972189
v 8.000000 -53.963974 -1.972189
v 9.000000 -53.676052 -5.906045
v 8.000000 -53.676052 -5.906045
v 9.000000 -53.101746 -9.808390
v 8.000000 -53.101746 -9.808390
v 9.000000 -52.244118 -13.658402
v 8.000000 -52.244118 -13.658402
v 9.000000 -51.107746 -17.435541
v 8.000000 -51.107746 -17.435541
v 9.000000 -49.698692 -21.119656
v 8.000000 -49.698692 -21.119656
v 9.000000 -48.024475 -24.691086
v 8.000000 -48.024475 -24.691086
v 9.000000 -46.094028 -28.130779
v 8.000000 -46.094028 -28.130779
v 9.000000 -43.917645 -31.420382
v 8.000000 -43.917645 -31.420382
v 9.000000 -41.506947 -34.542343
v 8.000000 -41.506947 -34.542343
v 9.000000 -38.874786 -37.480007
v 8.000000 -38.874786 -37.480007
v 9.000000 -36.035217 -40.217697
v 8.000000 -36.035217 -40.217697
v 9.000000 -33.003380 -42.740810
v 8.000000 -33.003380 -42.740810
v 9.000000 -29.795458 -45.035881
v 8.000000 -29.795458 -45.035881
v 9.000000 -26.428564 -47.090668
v 8.000000 -26.428564 -47.090668
v 9.000000 -22.920662 -48.894203
v 8.000000 -22.920662 -48.894203
v 9.000000 -19.290468 -50.436871
v 8.000000 -19.290468 -50.436871
v 9.000000 -15.557351 -51.710434
v 8.000000 -15.557351 -51.710434
v 9.000000 -11.741229 -52.708096
v 8.000000 -11.741229 -52.708096
v 9.000000 -7.862463 -53.424541
v 8.000000 -7.862463 -53.424541
v 9.000000 -3.941747 -53.855942
v 8.000000 -3.941747 -53.855942
vn 0.000000 0.036522 -0.999333
vn 0.000000 0.036522 -0.999333
vn 0.000000 0.109371 -0.994001
vn 0.000000 0.109371 -0.994001
vn 0.000000 0.181637 -0.983366
vn 0.000000 0.181637 -0.983366
vn 0.000000 0.252933 -0.967484
vn 0.000000 0.252933 -0.967484
vn 0.000000 0.322881 -0.946440
vn 0.000000 0.322881 -0.946440
vn 0.000000 0.391105 -0.920346
vn 0.000000 0.391105 -0.920346
vn 0.000000 0.457242 -0.889342
vn 0.000000 0.457242 -0.889342
vn 0.000000 0.520941 -0.853593
vn 0.000000 0.520941 -0.853593
vn 0.000000 0.581859 -0.813290
vn 0.000000 0.581859 -0.813290
vn 0.000000 0.639673 -0.768647
vn 0.000000 0.639673 -0.768647
vn 0.000000 0.694074 -0.719903
vn 0.000000 0.694074 -0.719903
vn 0.000000 0.744772 -0.667319
vn 0.000000 0.744772 -0.667319
vn 0.000000 0.791497 -0.611173
vn 0.000000 0.791497 -0.611173
vn 0.000000 0.833997 -0.551768
vn 0.000000 0.833997 -0.551768
vn 0.000000 0.872050 -0.489417
vn 0.000000 0.872050 -0.489417
vn 0.000000 0.905448 -0.424457
vn 0.000000 0.905448 -0.424457
vn 0.000000 0.934016 -0.357231
vn 0.000000 0.934016 -0.357231
vn 0.000000 0.957601 -0.288099
vn 0.000000 0.957601 -0.288099
vn 0.000000 0.976076 -0.217430
vn 0.000000 0.976076 -0.217430
vn 0.000000 0.989343 -0.145601
vn 0.000000 0.989343 -0.145601
vn 0.000000 0.997332 -0.072995
vn 0.000000 0.997332 -0.072995
vn 0.000000 1.000000 0.000000
vn 0.000000 1.000000 0.000000
vn 0.000000 0.997332 0.072995
vn 0.000000 0.997332 0.072995
vn 0.000000 0.989343 0.145601
vn 0.000000 0.989343 0.145601
vn 0.000000 0.976076 0.217430
vn 0.000000 0.976076 0.217430
vn 0.000000 0.957601 0.288099
vn 0.000000 0.957601 0.288099
vn 0.000000 0.934016 0.357231
vn 0.000000 0.934016 0.357231
vn 0.000000 0.905448 0.424457
vn 0.000000 0.905448 0.424457
vn 0.000000 0.872050 0.489417
vn 0.000000 0.872050 0.489417
vn 0.000000 0.833997 0.551768
vn 0.000000 0.833997 0.551768
vn 0.000000 0.791497 0.611173
vn 0.000000 0.791497 0.611173
vn 0.000000 0.744772 0.667319
vn 0.000000 0.744772 0.667319
vn 0.000000 0.694074 0.719903
vn 0.000000 0.694074 0.719903
vn 0.000000 0.639673 0.768647
vn 0.000000 0.639673 0.768647
vn 0.000000 0.581859 0.813290
vn 0.000000 0.581859 0.813290
vn 0.000000 0.520941 0.853593
vn 0.000000 0.520941 0.853593
vn 0.000000 0.457242 0.889342
vn 0.000000 0.457242 0.889342
vn 0.000000 0.391105 0.920346
vn 0.000000 0.391105 0.920346
vn 0.000000 0.322881 0.946440
vn 0.000000 0.322881 0.946440
vn 0.000000 0.252933 0.967484
vn 0.000000 0.252933 0.967484
vn 0.000000 0.181637 0.983366
vn 0.000000 0.181637 0.983366
vn 0.000000 0.109371 0.994001
vn 0.000000 0.109371 0.994001
vn 0.000000 0.036522 0.999333
vn 0.000000 0.036522 0.999333
vn 0.000000 -0.036522 0.999333
vn 0.000000 -0.036522 0.999333
vn 0.000000 -0.109371 0.994001
vn 0.000000 -0.109371 0.994001
vn 0.000000 -0.181637 0.983366
vn 0.000000 -0.181637 0.983366
vn 0.000000 -0.252933 0.967484
vn 0.000000 -0.252933 0.967484
vn 0.000000 -0.322881 0.946440
vn 0.000000 -0.322881 0.946440
vn 0.000000 -0.391105 0.920346
vn 0.000000 -0.391105 0.920346
vn 0.000000 -0.457242 0.889342
vn 0.000000 -0.457242 0.889342
vn 0.000000 -0.520941 0.853593
vn 0.000000 -0.520941 0.853593
vn 0.000000 -0.581859 0.813290
vn 0.000000 -0.581859 0.813290
vn 0.000000 -0.639673 0.768647
vn 0.000000 -0.639673 0.768647
vn 0.000000 -0.694074 0.719903
vn 0.000000 -0.694074 0.719903
vn 0.000000 -0.744772 0.667319
vn 0.000000 -0.744772 0.667319
vn 0.000000 -0.791497 0.611173
vn 0.000000 -0.791497 0.611173
vn 0.000000 -0.833997 0.551768
vn 0.000000 -0.833997 0.551768
vn 0.000000 -0.872050 0.489417
vn 0.000000 -0.872050 0.489417
vn 0.000000 -0.905448 0.424457
vn 0.000000 -0.905448 0.424457
vn 0.000000 -0.934016 0.357231
vn 0.000000 -0.934016 0.357231
vn 0.000000 -0.957601 0.288099
vn 0.000000 -0.957601 0.288099
vn 0.000000 -0.976076 0.217430
vn 0.000000 -0.976076 0.217430
vn 0.000000 -0.989343 0.145601
vn 0.000000 -0.989343 0.145601
vn 0.000000 -0.997332 0.072995
vn 0.000000 -0.997332 0.072995
vn 0.000000 -1.000000 0.000000
vn 0.000000 -1.000000 0.000000
vn 0.000000 -0.997332 -0.072995
vn -0.000000 -0.997332 -0.072995
vn 0.000000 -0.989343 -0.145601
vn -0.000000 -0.989343 -0.145601
vn 0.000000 -0.976076 -0.217430
vn -0.000000 -0.976076 -0.217430
vn 0.000000 -0.957601 -0.288099
vn -0.000000 -0.957601 -0.288099
vn -0.000000 -0.934016 -0.357231
vn 0.000000 -0.934016 -0.357231
vn 0.000000 -0.905448 -0.424457
vn -0.000000 -0.905448 -0.424457
vn -0.000000 -0.872050 -0.489417
vn 0.000000 -0.872050 -0.489417
vn -0.000000 -0.833997 -0.551768
vn 0.000000 -0.833997 -0.551768
vn -0.000000 -0.791497 -0.611173
vn 0.000000 -0.791497 -0.611173
vn -0.000000 -0.744772 -0.667319
vn 0.000000 -0.744772 -0.667319
vn -0.000000 -0.694074 -0.719903
vn 0.000000 -0.694074 -0.719903
vn -0.000000 -0.639673 -0.768647
vn 0.000000 -0.639673 -0.768647
vn -0.000000 -0.581859 -0.813290
vn 0.000000 -0.581859 -0.813290
vn -0.000000 -0.520941 -0.853593
vn 0.000000 -0.520941 -0.853593
vn -0.000000 -0.457242 -0.889342
vn 0.000000 -0.457242 -0.889342
vn -0.000000 -0.391105 -0.920346
vn 0.000000 -0.391105 -0.920346
vn 0.000000 -0.322881 -0.946440
vn -0.000000 -0.322881 -0.946440
vn 0.000000 -0.252933 -0.967484
vn -0.000000 -0.252933 -0.967484
vn 0.000000 -0.181637 -0.983366
vn -0.000000 -0.181637 -0.983366
vn 0.000000 -0.109371 -0.994001
vn -0.000000 -0.109371 -0.994001
vn 0.000000 -0.036522 -0.999333
vn -0.000000 -0.036522 -0.999333
vn 1.000000 0.000000 0.000000
vn 1.000000 0.000000 0.000000
vn 1.000000 0.000000 0.000000
vn 1.000000 0.000000 0.000000
vn 1.000000 0.000000 0.000000
vn 1.000000 0.000000 0.000000
vn 1.000000 0.000000 0.000000
vn 1.000000 0.000000 0.000000
vn 1.000000 0.000000 0.000000
vn 1.000000 0.000000 0.000000
vn 1.000000 0.000000 0.000000
vn 1.000000 0.000000 -0.000000
vn 1.000000 0.000000 0.000000
vn 1.000000 0.000000 0.000000
vn 1.000000 0.000000 -0.000000
vn 1.000000 0.000000 0.000000
vn 1.000000 0.000000 0.000000
vn 1.000000 0.000000 -0.000000
vn 1.000000 0.000000 0.000000
vn 1.000000 0.000000 0.000000
vn 1.000000 0.000000 0.000000
vn 1.000000 0.000000 0.000000
vn 1.000000 0.000000 0.000000
vn 1.000000 0.000000 0.000000
vn 1.000000 0.000000 0.000000
vn 1.000000 0.000000 0.000000
vn 1.000000 0.000000 0.000000
vn 1.000000 0.000000 0.000000
vn 1.000000 0.000000 0.000000
vn 1.000000 0.000000 0.000000
vn 1.000000 0.000000 0.000000
vn 1.000000 0.000000 0.000000
vn 1.000000 0.000000 -0.000000
vn 1.000000 0.000000 0.000000
vn 1.000000 0.000000 0.000000
vn 1.000000 0.000000 0.000000
vn 1.000000 0.000000 0.000000
vn 1.000000 0.000000 0.000000
vn 1.000000 0.000000 0.000000
vn 1.000000 0.000000 0.000000
vn 1.000000 0.000000 0.000000
vn 1.000000 0.000000 0.000000
vn 1.000000 0.000000 0.000000
vn 1.000000 0.000000 0.000000
vn 1.000000 0.000000 0.000000
vn 1.000000 0.000000 0.000000
vn 1.000000 0.000000 0.000000
vn 1.000000 0.000000 0.000000
vn 1.000000 0.000000 0.000000
vn 1.000000 0.000000 0.000000
vn 1.000000 0.000000 0.000000
vn 1.000000 0.000000 0.000000
vn 1.000000 0.000000 0.000000
vn 1.000000 0.000000 0.000000
vn 1.000000 0.000000 0.000000
vn 1.000000 0.000000 -0.000000
vn 1.000000 0.000000 0.000000
vn 1.000000 0.000000 0.000000
vn 1.000000 0.000000 0.000000
vn 1.000000 0.000000 0.000000
vn 1.000000 0.000000 -0.000000
vn 1.000000 0.000000 0.000000
vn 1.000000 0.000000 -0.000000
vn 1.000000 0.000000 -0.000000
vn 1.000000 0.000000 0.000000
vn 1.000000 0.000000 -0.000000
vn 1.000000 0.000000 0.000000
vn 1.000000 0.000000 -0.000000
vn 1.000000 0.000000 -0.000000
vn 1.000000 0.000000 0.000000
vn 1.000000 0.000000 0.000000
vn 1.000000 0.000000 0.000000
vn 1.000000 0.000000 0.000000
vn 1.000000 0.000000 0.000000
vn 1.000000 0.000000 0.000000
vn 1.000000 0.000000 -0.000000
vn 1.000000 0.000000 -0.000000
vn 1.000000 0.000000 0.000000
vn 1.000000 0.000000 0.000000
vn 1.000000 0.000000 -0.000000
vn 1.000000 0.000000 0.000000
vn 1.000000 0.000000 0.000000
vn 1.000000 0.000000 0.000000
vn 1.000000 0.000000 0.000000
vn -1.000000 -0.000000 -0.000000
vn -1.000000 -0.000000 -0.000000
vn -1.000000 0.000000 0.000000
vn -1.000000 -0.000000 -0.000000
vn -1.000000 0.000000 0.000000
vn -1.000000 0.000000 0.000000
vn -1.000000 -0.000000 0.000000
vn -1.000000 -0.000000 -0.000000
vn -1.000000 0.000000 0.000000
vn -1.000000 0.000000 0.000000
vn -1.000000 0.000000 -0.000000
vn -1.000000 0.000000 -0.000000
vn -1.000000 0.000000 0.000000
vn -1.000000 0.000000 0.000000
vn -1.000000 0.000000 0.000000
vn -1.000000 -0.000000 0.000000
vn -1.000000 0.000000 0.000000
vn -1.000000 0.000000 0.000000
vn -1.000000 0.000000 0.000000
vn -1.000000 0.000000 0.000000
vn -1.000000 -0.000000 0.000000
vn -1.000000 -0.000000 0.000000
vn -1.000000 -0.000000 0.000000
vn -1.000000 0.000000 0.000000
vn -1.000000 -0.000000 0.000000
vn -1.000000 -0.000000 0.000000
vn -1.000000 -0.000000 -0.000000
vn -1.000000 -0.000000 -0.000000
vn -1.000000 -0.000000 0.000000
vn -1.000000 -0.000000 -0.000000
vn -1.000000 -0.000000 -0.000000
vn -1.000000 0.000000 -0.000000
vn -1.000000 0.000000 0.000000
vn -1.000000 0.000000 -0.000000
vn -1.000000 -0.000000 0.000000
vn -1.000000 0.000000 -0.000000
vn -1.000000 0.000000 -0.000000
vn -1.000000 0.000000 0.000000
vn -1.000000 0.000000 0.000000
vn -1.000000 0.000000 0.000000
vn -1.000000 0.000000 0.000000
vn -1.000000 0.000000 -0.000000
vn -1.000000 -0.000000 -0.000000
vn -1.000000 0.000000 0.000000
vn -1.000000 -0.000000 -0.000000
vn -1.000000 0.000000 0.000000
vn -1.000000 0.000000 0.000000
vn -1.000000 0.000000 -0.000000
vn -1.000000 -0.000000 0.000000
vn -1.000000 -0.000000 0.000000
vn -1.000000 -0.000000 -0.000000
vn -1.000000 0.000000 0.000000
vn -1.000000 0.000000 0.000000
vn -1.000000 -0.000000 0.000000
vn -1.000000 0.000000 0.000000
vn -1.000000 0.000000 0.000000
vn -1.000000 0.000000 0.000000
vn -1.000000 0.000000 0.000000
vn -1.000000 0.000000 0.000000
vn -1.000000 -0.000000 0.000000
vn -1.000000 0.000000 0.000000
vn -1.000000 -0.000000 0.000000
vn -1.000000 0.000000 0.000000
vn -1.000000 0.000000 0.000000
vn -1.000000 -0.000000 -0.000000
vn -1.000000 0.000000 0.000000
vn -1.000000 0.000000 0.000000
vn -1.000000 0.000000 0.000000
vn -1.000000 0.000000 0.000000
vn -1.000000 0.000000 0.000000
vn -1.000000 0.000000 0.000000
vn -1.000000 0.000000 -0.000000
vn -1.000000 0.000000 -0.000000
vn -1.000000 0.000000 0.000000
vn -1.000000 0.000000 0.000000
vn -1.000000 0.000000 -0.000000
vn -1.000000 0.000000 0.000000
vn -1.000000 0.000000 0.000000
vn -1.000000 -0.000000 -0.000000
vn -1.000000 0.000000 0.000000
vn -1.000000 -0.000000 -0.000000
vn -1.000000 0.000000 0.000000
vn -1.000000 0.000000 0.000000
vn -1.000000 0.000000 0.000000
f 1//1 2//1 3//1
f 1//2 3//2 4//2
f 5//3 1//3 4//3
f 5//4 4//4 6//4
f 7//5 6//5 8//5
f 7//6 5//6 6//6
f 9//7 8//7 10//7
f 9//8 7//8 8//8
f 11//9 10//9 12//9
f 11//10 9//10 10//10
f 13//11 12//11 14//11
f 13//12 11//12 12//12
f 15//13 13//13 14//13
f 15//14 14//14 16//14
f 17//15 15//15 16//15
f 17//16 16//16 18//16
f 19//17 17//17 18//17
f 19//18 18//18 20//18
f 21//19 19//19 20//19
f 21//20 20//20 22//20
f 23//21 21//21 22//21
f 23//22 22//22 24//22
f 25//23 23//23 24//23
f 25//24 24//24 26//24
f 27//25 25//25 26//25
f 27//26 26//26 28//26
f 29//27 28//27 30//27
f 29//28 27//28 28//28
f 31//29 30//29 32//29
f 31//30 29//30 30//30
f 33//31 32//31 34//31
f 33//32 31//32 32//32
f 35//33 34//33 36//33
f 35//34 33//34 34//34
f 37//35 36//35 38//35
f 37//36 35//36 36//36
f 39//37 38//37 40//37
f 39//38 37//38 38//38
f 41//39 40//39 42//39
f 41//40 39//40 40//40
f 43//41 42//41 44//41
f 43//42 41//42 42//42
f 45//43 44//43 46//43
f 45//44 43//44 44//44
f 47//45 46//45 48//45
f 47//46 45//46 46//46
f 49//47 48//47 50//47
f 49//48 47//48 48//48
f 51//49 50//49 52//49
f 51//50 49//50 50//50
f 53//51 52//51 54//51
f 53//52 51//52 52//52
f 55//53 54//53 56//53
f 55//54 53//54 54//54
f 57//55 56//55 58//55
f 57//56 55//56 56//56
f 59//57 58//57 60//57
f 59//58 57//58 58//58
f 61//59 60//59 62//59
f 61//60 59//60 60//60
f 63//61 62//61 64//61
f 63//62 61//62 62//62
f 65//63 63//63 64//63
f 65//64 64//64 66//64
f 67//65 65//65 66//65
f 67//66 66//66 68//66
f 69//67 67//67 68//67
f 69//68 68//68 70//68
f 71//69 69//69 70//69
f 71//70 70//70 72//70
f 73//71 71//71 72//71
f 73//72 72//72 74//72
f 75//73 74//73 76//73
f 75//74 73//74 74//74
f 77//75 76//75 78//75
f 77//76 75//76 76//76
f 79//77 78//77 80//77
f 79//78 77//78 78//78
f 81//79 80//79 82//79
f 81//80 79//80 80//80
f 83//81 82//81 84//81
f 83//82 81//82 82//82
f 85//83 84//83 86//83
f 85//84 83//84 84//84
f 87//85 86//85 88//85
f 87//86 85//86 86//86
f 89//87 88//87 90//87
f 89//88 87//88 88//88
f 91//89 90//89 92//89
f 91//90 89//90 90//90
f 93//91 92//91 94//91
f 93//92 91//92 92//92
f 95//93 94//93 96//93
f 95//94 93//94 94//94
f 97//95 96//95 98//95
f 97//96 95//96 96//96
f 99//97 98//97 100//97
f 99//98 97//98 98//98
f 101//99 100//99 102//99
f 101//100 99//100 100//100
f 103//101 102//101 104//101
f 103//102 101//102 102//102
f 105//103 104//103 106//103
f 105//104 103//104 104//104
f 107//105 106//105 108//105
f 107//106 105//106 106//106
f 109//107 108//107 110//107
f 109//108 107//108 108//108
f 111//109 110//109 112//109
f 111//110 109//110 110//110
f 113//111 112//111 114//111
f 113//112 111//112 112//112
f 115//113 113//113 114//113
f 115//114 114//114 116//114
f 117//115 115//115 116//115
f 117//116 116//116 118//116
f 119//117 117//117 118//117
f 119//118 118//118 120//118
f 121//119 119//119 120//119
f 121//120 120//120 122//120
f 123//121 121//121 122//121
f 123//122 122//122 124//122
f 125//123 123//123 124//123
f 125//124 124//124 126//124
f 127//125 125//125 126//125
f 127//126 126//126 128//126
f 129//127 127//127 128//127
f 129//128 128//128 130//128
f 131//129 129//129 130//129
f 131//130 130//130 132//130
f 133//131 131//131 132//131
f 133//132 132//132 134//132
f 135//133 133//133 134//133
f 135//134 134//134 136//134
f 137//135 135//135 136//135
f 137//136 136//136 138//136
f 139//137 137//137 138//137
f 139//138 138//138 140//138
f 141//139 140//139 142//139
f 141//140 139//140 140//140
f 143//141 141//141 142//141
f 143//142 142//142 144//142
f 145//143 144//143 146//143
f 145//144 143//144 144//144
f 147//145 146//145 148//145
f 147//146 145//146 146//146
f 149//147 148//147 150//147
f 149//148 147//148 148//148
f 151//149 150//149 152//149
f 151//150 149//150 150//150
f 153//151 152//151 154//151
f 153//152 151//152 152//152
f 155//153 154//153 156//153
f 155//154 153//154 154//154
f 157//155 156//155 158//155
f 157//156 155//156 156//156
f 159//157 158//157 160//157
f 159//158 157//158 158//158
f 161//159 160//159 162//159
f 161//160 159//160 160//160
f 163//161 162//161 164//161
f 163//162 161//162 162//162
f 165//163 163//163 164//163
f 165//164 164//164 166//164
f 167//165 165//165 166//165
f 167//166 166//166 168//166
f 169//167 167//167 168//167
f 169//168 168//168 170//168
f 171//169 169//169 170//169
f 171//170 170//170 172//170
f 2//171 171//171 172//171
f 2//172 172//172 3//172
f 77//173 79//173 81//173
f 77//174 81//174 83//174
f 111//175 107//175 109//175
f 45//176 47//176 49//176
f 1//177 165//177 169//177
f 115//178 111//178 113//178
f 1//179 69//179 85//179
f 73//180 75//180 77//180
f 1//181 169//181 171//181
f 1//182 171//182 2//182
f 101//183 103//183 105//183
f 1//184 85//184 165//184
f 145//185 97//185 111//185
f 145//186 91//186 97//186
f 145//187 111//187 133//187
f 41//188 43//188 45//188
f 145//189 133//189 139//189
f 5//190 69//190 1//190
f 145//191 139//191 141//191
f 145//192 141//192 143//192
f 5//193 61//193 69//193
f 5//194 53//194 57//194
f 5//195 57//195 61//195
f 119//196 115//196 117//196
f 7//197 49//197 53//197
f 7//198 45//198 49//198
f 69//199 77//199 83//199
f 69//200 71//200 73//200
f 7//201 41//201 45//201
f 69//202 83//202 85//202
f 69//203 73//203 77//203
f 97//204 101//204 105//204
f 7//205 53//205 5//205
f 97//206 99//206 101//206
f 37//207 39//207 41//207
f 97//208 105//208 107//208
f 97//209 107//209 111//209
f 149//210 145//210 147//210
f 121//211 115//211 119//211
f 121//212 111//212 115//212
f 153//213 149//213 151//213
f 93//214 95//214 97//214
f 63//215 65//215 67//215
f 125//216 111//216 121//216
f 63//217 67//217 69//217
f 125//218 121//218 123//218
f 15//219 11//219 13//219
f 91//220 93//220 97//220
f 29//221 31//221 33//221
f 29//222 33//222 35//222
f 61//223 63//223 69//223
f 17//224 7//224 9//224
f 17//225 9//225 11//225
f 17//226 37//226 41//226
f 157//227 145//227 149//227
f 17//228 41//228 7//228
f 157//229 149//229 153//229
f 17//230 11//230 15//230
f 157//231 153//231 155//231
f 27//232 35//232 37//232
f 27//233 37//233 17//233
f 27//234 29//234 35//234
f 19//235 27//235 17//235
f 25//236 27//236 19//236
f 57//237 59//237 61//237
f 21//238 25//238 19//238
f 131//239 127//239 129//239
f 23//240 25//240 21//240
f 161//241 91//241 145//241
f 161//242 145//242 157//242
f 161//243 157//243 159//243
f 85//244 87//244 89//244
f 85//245 89//245 91//245
f 163//246 85//246 91//246
f 133//247 111//247 125//247
f 133//248 127//248 131//248
f 163//249 91//249 161//249
f 133//250 125//250 127//250
f 53//251 55//251 57//251
f 165//252 85//252 163//252
f 49//253 51//253 53//253
f 137//254 133//254 135//254
f 169//255 165//255 167//255
f 139//256 133//256 137//256
f 80//257 78//257 82//257
f 82//258 78//258 84//258
f 108//259 112//259 110//259
f 48//260 46//260 50//260
f 166//261 4//261 170//261
f 112//262 116//262 114//262
f 70//263 4//263 86//263
f 76//264 74//264 78//264
f 170//265 4//265 172//265
f 172//266 4//266 3//266
f 104//267 102//267 106//267
f 86//268 4//268 166//268
f 98//269 146//269 112//269
f 92//270 146//270 98//270
f 112//271 146//271 134//271
f 44//272 42//272 46//272
f 134//273 146//273 140//273
f 70//274 6//274 4//274
f 140//275 146//275 142//275
f 142//276 146//276 144//276
f 62//277 6//277 70//277
f 54//278 6//278 58//278
f 58//279 6//279 62//279
f 116//280 120//280 118//280
f 50//281 8//281 54//281
f 46//282 8//282 50//282
f 78//283 70//283 84//283
f 72//284 70//284 74//284
f 42//285 8//285 46//285
f 84//286 70//286 86//286
f 74//287 70//287 78//287
f 102//288 98//288 106//288
f 54//289 8//289 6//289
f 100//290 98//290 102//290
f 40//291 38//291 42//291
f 106//292 98//292 108//292
f 108//293 98//293 112//293
f 146//294 150//294 148//294
f 116//295 122//295 120//295
f 112//296 122//296 116//296
f 150//297 154//297 152//297
f 96//298 94//298 98//298
f 66//299 64//299 68//299
f 112//300 126//300 122//300
f 68//301 64//301 70//301
f 122//302 126//302 124//302
f 12//303 16//303 14//303
f 94//304 92//304 98//304
f 32//305 30//305 34//305
f 34//306 30//306 36//306
f 64//307 62//307 70//307
f 8//308 18//308 10//308
f 10//309 18//309 12//309
f 38//310 18//310 42//310
f 146//311 158//311 150//311
f 42//312 18//312 8//312
f 150//313 158//313 154//313
f 12//314 18//314 16//314
f 154//315 158//315 156//315
f 36//316 28//316 38//316
f 38//317 28//317 18//317
f 30//318 28//318 36//318
f 28//319 20//319 18//319
f 28//320 26//320 20//320
f 60//321 58//321 62//321
f 26//322 22//322 20//322
f 128//323 132//323 130//323
f 26//324 24//324 22//324
f 92//325 162//325 146//325
f 146//326 162//326 158//326
f 158//327 162//327 160//327
f 88//328 86//328 90//328
f 90//329 86//329 92//329
f 86//330 164//330 92//330
f 112//331 134//331 126//331
f 128//332 134//332 132//332
f 92//333 164//333 162//333
f 126//334 134//334 128//334
f 56//335 54//335 58//335
f 86//336 166//336 164//336
f 52//337 50//337 54//337
f 134//338 138//338 136//338
f 166//339 170//339 168//339
f 134//340 140//340 138//340
