# Created by FreeCAD <http://www.freecadweb.org>
v -5.960183 0.000000 5.509026
v -8.940274 0.000000 5.088539
v -8.940274 -1.317011 4.915151
v 0.000000 -1.643501 6.133629
v 0.000000 0.000000 6.350000
v -2.980091 0.000000 5.929513
v -8.940274 1.317011 4.915151
v 0.000000 1.643501 6.133629
v -5.960183 -2.754513 4.770957
v -8.940274 -2.544270 4.406804
v -8.940274 -3.598140 3.598140
v -5.960183 -4.770957 2.754513
v -8.940274 -4.406804 2.544270
v -8.940274 -4.915151 1.317011
v -2.980091 -2.964756 5.135109
v 0.000000 -3.175000 5.499261
v 0.000000 -4.490128 4.490128
v -5.960183 -5.509026 0.000000
v -8.940274 -5.088539 0.000000
v -8.940274 -4.915151 -1.317011
v -2.980091 -5.135109 2.964756
v 0.000000 -5.499261 3.175000
v 0.000000 -6.133629 1.643501
v -5.960183 -4.770957 -2.754513
v -8.940274 -4.406804 -2.544270
v -8.940274 -3.598140 -3.598140
v -2.980091 -5.929513 0.000000
v 0.000000 -6.350000 0.000000
v 0.000000 -6.133629 -1.643501
v -5.960183 -2.754513 -4.770957
v -8.940274 -2.544270 -4.406804
v -8.940274 -1.317011 -4.915151
v -2.980091 -5.135109 -2.964756
v 0.000000 -5.499261 -3.175000
v 0.000000 -4.490128 -4.490128
v -5.960183 -0.000000 -5.509026
v -8.940274 -0.000000 -5.088539
v -8.940274 1.317011 -4.915151
v -2.980091 -2.964756 -5.135109
v 0.000000 -3.175000 -5.499261
v 0.000000 -1.643501 -6.133629
v -5.960183 2.754513 -4.770957
v -8.940274 2.544270 -4.406804
v -8.940274 3.598140 -3.598140
v -2.980091 -0.000000 -5.929513
v 0.000000 -0.000000 -6.350000
v 0.000000 1.643501 -6.133629
v -5.960183 4.770957 -2.754513
v -8.940274 4.406804 -2.544270
v -8.940274 4.915151 -1.317011
v -2.980091 2.964756 -5.135109
v 0.000000 3.175000 -5.499261
v 0.000000 4.490128 -4.490128
v -5.960183 5.509026 -0.000000
v -8.940274 5.088539 -0.000000
v -8.940274 4.915151 1.317011
v -2.980091 5.135109 -2.964756
v 0.000000 5.499261 -3.175000
v 0.000000 6.133629 -1.643501
v -5.960183 4.770957 2.754513
v -8.940274 4.406804 2.544270
v -8.940274 3.598140 3.598140
v -2.980091 5.929513 -0.000000
v 0.000000 6.350000 -0.000000
v 0.000000 6.133629 1.643501
v -5.960183 2.754513 4.770957
v -8.940274 2.544270 4.406804
v -2.980091 5.135109 2.964756
v 0.000000 5.499261 3.175000
v 0.000000 4.490128 4.490128
v -2.980091 2.964756 5.135109
v 0.000000 3.175000 5.499261
v 16.684887 0.000000 4.917720
v 33.520000 -0.338311 1.262596
v 33.520000 0.000000 1.307135
v 33.520000 0.338311 1.262596
v 16.684887 -2.458860 4.258871
v 33.520000 -0.653567 1.132012
v 33.520000 -0.924284 0.924284
v 16.684887 -4.258871 2.458860
v 33.520000 -1.132012 0.653567
v 33.520000 -1.262596 0.338311
v 16.684887 -4.917720 0.000000
v 33.520000 -1.307135 0.000000
v 33.520000 -1.262596 -0.338311
v 16.684887 -4.258871 -2.458860
v 33.520000 -1.132012 -0.653567
v 33.520000 -0.924284 -0.924284
v 16.684887 -2.458860 -4.258871
v 33.520000 -0.653567 -1.132012
v 33.520000 -0.338311 -1.262596
v 16.684887 -0.000000 -4.917720
v 33.520000 -0.000000 -1.307135
v 33.520000 0.338311 -1.262596
v 16.684887 2.458860 -4.258871
v 33.520000 0.653567 -1.132012
v 33.520000 0.924284 -0.924284
v 16.684887 4.258871 -2.458860
v 33.520000 1.132012 -0.653567
v 33.520000 1.262596 -0.338311
v 16.684887 4.917720 -0.000000
v 33.520000 1.307135 -0.000000
v 33.520000 1.262596 0.338311
v 16.684887 4.258871 2.458860
v 33.520000 1.132012 0.653567
v 33.520000 0.924284 0.924284
v 16.684887 2.458860 4.258871
v 33.520000 0.653567 1.132012
vn -0.138543 -0.129268 0.981884
vn -0.138543 -0.129267 0.981884
vn -0.138543 0.129268 0.981884
vn -0.138543 0.129267 0.981884
vn -0.138543 -0.378993 0.914970
vn -0.138543 -0.602891 0.785703
vn -0.077872 -0.258033 0.962993
vn -0.138543 -0.785703 0.602891
vn -0.138543 -0.914970 0.378993
vn -0.077872 -0.704960 0.704960
vn -0.138543 -0.378993 0.914970
vn -0.138543 -0.602891 0.785703
vn -0.135042 -0.256448 0.957078
vn -0.204482 -0.253350 0.945516
vn -0.135042 -0.256448 0.957078
vn -0.138543 -0.981884 0.129268
vn -0.138543 -0.981884 -0.129268
vn -0.077872 -0.962993 0.258033
vn -0.138543 -0.785703 0.602891
vn -0.138543 -0.914970 0.378993
vn -0.135042 -0.700630 0.700630
vn -0.204482 -0.692166 0.692166
vn -0.135042 -0.700630 0.700630
vn -0.077872 -0.962993 -0.258033
vn -0.138543 -0.914970 -0.378993
vn -0.138543 -0.785703 -0.602891
vn -0.135042 -0.957078 0.256448
vn -0.138543 -0.981884 0.129267
vn -0.138543 -0.981884 -0.129267
vn -0.135042 -0.957078 0.256448
vn -0.204482 -0.945516 0.253350
vn -0.135042 -0.957078 -0.256448
vn -0.138543 -0.602891 -0.785703
vn -0.138543 -0.378993 -0.914970
vn -0.077872 -0.704960 -0.704960
vn -0.138543 -0.914970 -0.378993
vn -0.138543 -0.785703 -0.602891
vn -0.135042 -0.957078 -0.256448
vn -0.204482 -0.945516 -0.253350
vn -0.138543 -0.129268 -0.981884
vn -0.138543 0.129268 -0.981884
vn -0.077872 -0.258033 -0.962993
vn -0.135042 -0.700630 -0.700630
vn -0.138543 -0.602891 -0.785703
vn -0.138543 -0.378993 -0.914970
vn -0.204482 -0.692166 -0.692166
vn -0.135042 -0.700630 -0.700630
vn -0.138543 0.378993 -0.914970
vn -0.138543 0.602891 -0.785703
vn -0.077872 0.258033 -0.962993
vn -0.135042 -0.256448 -0.957078
vn -0.135042 -0.256448 -0.957078
vn -0.204482 -0.253350 -0.945516
vn -0.138543 -0.129267 -0.981884
vn -0.138543 0.129267 -0.981884
vn -0.138543 0.785703 -0.602891
vn -0.138543 0.914970 -0.378993
vn -0.077872 0.704960 -0.704960
vn -0.138543 0.378993 -0.914970
vn -0.138543 0.602891 -0.785703
vn -0.135042 0.256448 -0.957078
vn -0.204482 0.253350 -0.945516
vn -0.135042 0.256448 -0.957078
vn -0.138543 0.981884 -0.129268
vn -0.138543 0.981884 0.129268
vn -0.077872 0.962993 -0.258033
vn -0.135042 0.700630 -0.700630
vn -0.204482 0.692166 -0.692166
vn -0.138543 0.785703 -0.602891
vn -0.138543 0.914970 -0.378993
vn -0.135042 0.700630 -0.700630
vn -0.077872 0.962993 0.258033
vn -0.138543 0.914970 0.378993
vn -0.138543 0.785703 0.602891
vn -0.204482 0.945516 -0.253350
vn -0.135042 0.957078 -0.256448
vn -0.138543 0.981884 -0.129267
vn -0.138543 0.981884 0.129267
vn -0.135042 0.957078 -0.256448
vn -0.077872 0.258033 0.962993
vn -0.138543 0.602891 0.785703
vn -0.138543 0.378993 0.914970
vn -0.077872 0.704960 0.704960
vn -0.135042 0.700630 0.700630
vn -0.135042 0.957078 0.256448
vn -0.138543 0.914970 0.378993
vn -0.135042 0.957078 0.256448
vn -0.138543 0.785703 0.602891
vn -0.204482 0.945516 0.253350
vn -0.135042 0.700630 0.700630
vn -0.135042 0.256448 0.957078
vn -0.135042 0.256448 0.957078
vn -0.138543 0.602891 0.785703
vn -0.138543 0.378993 0.914970
vn -0.204482 0.253350 0.945516
vn -0.204482 0.692166 0.692166
vn 0.084802 -0.130056 0.987874
vn 0.207983 -0.127672 0.969764
vn 0.084802 0.130056 0.987874
vn 0.207983 0.127672 0.969764
vn 0.084802 -0.381305 0.920552
vn 0.084802 -0.606569 0.790496
vn 0.200367 -0.253570 0.946338
vn 0.207983 -0.374315 0.903677
vn 0.207983 -0.595450 0.776004
vn 0.095448 -0.257637 0.961516
vn 0.084802 -0.790496 0.606569
vn 0.084802 -0.920552 0.381305
vn 0.207983 -0.776004 0.595450
vn 0.207983 -0.903677 0.374315
vn 0.095448 -0.703878 0.703878
vn 0.200367 -0.692767 0.692767
vn 0.084802 -0.987874 0.130056
vn 0.084802 -0.987874 -0.130056
vn 0.095448 -0.961516 0.257637
vn 0.207983 -0.969764 0.127672
vn 0.207983 -0.969764 -0.127672
vn 0.200367 -0.946338 0.253570
vn 0.084802 -0.920552 -0.381305
vn 0.084802 -0.790496 -0.606569
vn 0.200367 -0.946338 -0.253570
vn 0.207983 -0.903677 -0.374315
vn 0.207983 -0.776004 -0.595450
vn 0.095448 -0.961516 -0.257637
vn 0.084802 -0.606569 -0.790496
vn 0.084802 -0.381305 -0.920552
vn 0.207983 -0.595450 -0.776004
vn 0.207983 -0.374315 -0.903677
vn 0.095448 -0.703878 -0.703878
vn 0.200367 -0.692767 -0.692767
vn 0.084802 -0.130056 -0.987874
vn 0.084802 0.130056 -0.987874
vn 0.207983 -0.127672 -0.969764
vn 0.207983 0.127672 -0.969764
vn 0.200367 -0.253570 -0.946338
vn 0.095448 -0.257637 -0.961516
vn 0.084802 0.381305 -0.920552
vn 0.084802 0.606569 -0.790496
vn 0.095448 0.257637 -0.961516
vn 0.207983 0.374315 -0.903677
vn 0.207983 0.595450 -0.776004
vn 0.200367 0.253570 -0.946338
vn 0.084802 0.790496 -0.606569
vn 0.084802 0.920552 -0.381305
vn 0.095448 0.703878 -0.703878
vn 0.207983 0.776004 -0.595450
vn 0.207983 0.903677 -0.374315
vn 0.200367 0.692767 -0.692767
vn 0.095448 0.961516 -0.257637
vn 0.084802 0.987874 -0.130056
vn 0.084802 0.987874 0.130056
vn 0.200367 0.946338 -0.253570
vn 0.207983 0.969764 -0.127672
vn 0.207983 0.969764 0.127672
vn 0.084802 0.920552 0.381305
vn 0.084802 0.790496 0.606569
vn 0.200367 0.946338 0.253570
vn 0.207983 0.903677 0.374315
vn 0.207983 0.776004 0.595450
vn 0.095448 0.961516 0.257637
vn 0.095448 0.703878 0.703878
vn 0.084802 0.606569 0.790496
vn 0.084802 0.381305 0.920552
vn 0.200367 0.692767 0.692767
vn 0.207983 0.595450 0.776004
vn 0.207983 0.374315 0.903677
vn 0.200367 0.253570 0.946338
vn 0.095448 0.257637 0.961516
vn 1.000000 0.000000 0.000000
vn 1.000000 -0.000000 0.000000
vn 1.000000 0.000000 0.000000
vn 1.000000 0.000000 0.000000
vn 1.000000 -0.000000 0.000000
vn 1.000000 -0.000000 0.000000
vn 1.000000 -0.000000 0.000000
vn 1.000000 -0.000000 0.000000
vn 1.000000 0.000000 0.000000
vn 1.000000 0.000000 0.000000
vn 1.000000 0.000000 0.000000
vn 1.000000 0.000000 0.000000
vn 1.000000 0.000000 0.000000
vn 1.000000 0.000000 0.000000
vn 1.000000 0.000000 0.000000
vn 1.000000 0.000000 0.000000
vn 1.000000 -0.000000 0.000000
vn 1.000000 0.000000 0.000000
vn 1.000000 -0.000000 -0.000000
vn 1.000000 0.000000 0.000000
vn 1.000000 -0.000000 -0.000000
vn 1.000000 0.000000 0.000000
vn -1.000000 0.000000 0.000000
vn -1.000000 0.000000 0.000000
vn -1.000000 0.000000 0.000000
vn -1.000000 -0.000000 0.000000
vn -1.000000 -0.000000 0.000000
vn -1.000000 0.000000 0.000000
vn -1.000000 0.000000 0.000000
vn -1.000000 0.000000 0.000000
vn -1.000000 0.000000 0.000000
vn -1.000000 0.000000 0.000000
vn -1.000000 0.000000 0.000000
vn -1.000000 0.000000 0.000000
vn -1.000000 0.000000 0.000000
vn -1.000000 0.000000 0.000000
vn -1.000000 -0.000000 0.000000
vn -1.000000 0.000000 0.000000
vn -1.000000 0.000000 0.000000
vn -1.000000 0.000000 0.000000
vn -1.000000 -0.000000 0.000000
vn -1.000000 0.000000 0.000000
vn -1.000000 0.000000 -0.000000
vn -1.000000 0.000000 0.000000
f 1//1 2//1 3//1
f 4//2 5//2 6//2
f 1//3 7//3 2//3
f 5//4 8//4 6//4
f 9//5 3//5 10//5
f 9//6 10//6 11//6
f 9//7 1//7 3//7
f 12//8 11//8 13//8
f 12//9 13//9 14//9
f 12//10 9//10 11//10
f 15//11 16//11 4//11
f 15//12 17//12 16//12
f 15//13 6//13 1//13
f 15//14 4//14 6//14
f 15//15 1//15 9//15
f 18//16 14//16 19//16
f 18//17 19//17 20//17
f 18//18 12//18 14//18
f 21//19 22//19 17//19
f 21//20 23//20 22//20
f 21//21 9//21 12//21
f 21//22 17//22 15//22
f 21//23 15//23 9//23
f 24//24 18//24 20//24
f 24//25 20//25 25//25
f 24//26 25//26 26//26
f 27//27 12//27 18//27
f 27//28 28//28 23//28
f 27//29 29//29 28//29
f 27//30 21//30 12//30
f 27//31 23//31 21//31
f 27//32 18//32 24//32
f 30//33 26//33 31//33
f 30//34 31//34 32//34
f 30//35 24//35 26//35
f 33//36 34//36 29//36
f 33//37 35//37 34//37
f 33//38 27//38 24//38
f 33//39 29//39 27//39
f 36//40 32//40 37//40
f 36//41 37//41 38//41
f 36//42 30//42 32//42
f 39//43 33//43 24//43
f 39//44 40//44 35//44
f 39//45 41//45 40//45
f 39//46 35//46 33//46
f 39//47 24//47 30//47
f 42//48 38//48 43//48
f 42//49 43//49 44//49
f 42//50 36//50 38//50
f 45//51 39//51 30//51
f 45//52 30//52 36//52
f 45//53 41//53 39//53
f 45//54 46//54 41//54
f 45//55 47//55 46//55
f 48//56 44//56 49//56
f 48//57 49//57 50//57
f 48//58 42//58 44//58
f 51//59 52//59 47//59
f 51//60 53//60 52//60
f 51//61 36//61 42//61
f 51//62 47//62 45//62
f 51//63 45//63 36//63
f 54//64 50//64 55//64
f 54//65 55//65 56//65
f 54//66 48//66 50//66
f 57//67 51//67 42//67
f 57//68 53//68 51//68
f 57//69 58//69 53//69
f 57//70 59//70 58//70
f 57//71 42//71 48//71
f 60//72 54//72 56//72
f 60//73 56//73 61//73
f 60//74 61//74 62//74
f 63//75 59//75 57//75
f 63//76 48//76 54//76
f 63//77 64//77 59//77
f 63//78 65//78 64//78
f 63//79 57//79 48//79
f 66//80 7//80 1//80
f 66//81 62//81 67//81
f 66//82 67//82 7//82
f 66//83 60//83 62//83
f 68//84 60//84 66//84
f 68//85 54//85 60//85
f 68//86 69//86 65//86
f 68//87 63//87 54//87
f 68//88 70//88 69//88
f 68//89 65//89 63//89
f 71//90 68//90 66//90
f 71//91 1//91 6//91
f 71//92 66//92 1//92
f 71//93 72//93 70//93
f 71//94 8//94 72//94
f 71//95 6//95 8//95
f 71//96 70//96 68//96
f 73//97 5//97 4//97
f 74//98 75//98 73//98
f 73//99 8//99 5//99
f 75//100 76//100 73//100
f 77//101 4//101 16//101
f 77//102 16//102 17//102
f 77//103 74//103 73//103
f 77//104 78//104 74//104
f 77//105 79//105 78//105
f 77//106 73//106 4//106
f 80//107 17//107 22//107
f 80//108 22//108 23//108
f 80//109 81//109 79//109
f 80//110 82//110 81//110
f 80//111 77//111 17//111
f 80//112 79//112 77//112
f 83//113 23//113 28//113
f 83//114 28//114 29//114
f 83//115 80//115 23//115
f 83//116 84//116 82//116
f 83//117 85//117 84//117
f 83//118 82//118 80//118
f 86//119 29//119 34//119
f 86//120 34//120 35//120
f 86//121 85//121 83//121
f 86//122 87//122 85//122
f 86//123 88//123 87//123
f 86//124 83//124 29//124
f 89//125 35//125 40//125
f 89//126 40//126 41//126
f 89//127 90//127 88//127
f 89//128 91//128 90//128
f 89//129 86//129 35//129
f 89//130 88//130 86//130
f 92//131 41//131 46//131
f 92//132 46//132 47//132
f 92//133 93//133 91//133
f 92//134 94//134 93//134
f 92//135 91//135 89//135
f 92//136 89//136 41//136
f 95//137 47//137 52//137
f 95//138 52//138 53//138
f 95//139 92//139 47//139
f 95//140 96//140 94//140
f 95//141 97//141 96//141
f 95//142 94//142 92//142
f 98//143 53//143 58//143
f 98//144 58//144 59//144
f 98//145 95//145 53//145
f 98//146 99//146 97//146
f 98//147 100//147 99//147
f 98//148 97//148 95//148
f 101//149 98//149 59//149
f 101//150 59//150 64//150
f 101//151 64//151 65//151
f 101//152 100//152 98//152
f 101//153 102//153 100//153
f 101//154 103//154 102//154
f 104//155 65//155 69//155
f 104//156 69//156 70//156
f 104//157 103//157 101//157
f 104//158 105//158 103//158
f 104//159 106//159 105//159
f 104//160 101//160 65//160
f 107//161 104//161 70//161
f 107//162 70//162 72//162
f 107//163 72//163 8//163
f 107//164 106//164 104//164
f 107//165 108//165 106//165
f 107//166 76//166 108//166
f 107//167 73//167 76//167
f 107//168 8//168 73//168
f 99//169 96//169 97//169
f 79//170 81//170 78//170
f 99//171 94//171 96//171
f 99//172 93//172 94//172
f 74//173 91//173 75//173
f 78//174 91//174 74//174
f 82//175 91//175 81//175
f 84//176 91//176 82//176
f 100//177 91//177 99//177
f 102//178 91//178 100//178
f 103//179 91//179 102//179
f 105//180 91//180 103//180
f 106//181 91//181 105//181
f 108//182 91//182 106//182
f 76//183 91//183 108//183
f 75//184 91//184 76//184
f 81//185 91//185 78//185
f 99//186 91//186 93//186
f 85//187 87//187 84//187
f 91//188 88//188 90//188
f 87//189 88//189 84//189
f 84//190 88//190 91//190
f 43//191 49//191 44//191
f 37//192 32//192 38//192
f 38//193 32//193 43//193
f 49//194 32//194 50//194
f 43//195 32//195 49//195
f 55//196 61//196 56//196
f 50//197 62//197 55//197
f 55//198 62//198 61//198
f 26//199 25//199 31//199
f 31//200 25//200 32//200
f 67//201 3//201 7//201
f 7//202 3//202 2//202
f 19//203 14//203 20//203
f 20//204 14//204 25//204
f 62//205 14//205 67//205
f 32//206 14//206 50//206
f 50//207 14//207 62//207
f 25//208 14//208 32//208
f 67//209 14//209 3//209
f 3//210 11//210 10//210
f 13//211 11//211 14//211
f 14//212 11//212 3//212
