<?xml version="1.0" encoding="UTF-8" standalone="no"?>
<!-- Created with Inkscape (http://www.inkscape.org/) -->

<svg
   xmlns:dc="http://purl.org/dc/elements/1.1/"
   xmlns:cc="http://creativecommons.org/ns#"
   xmlns:rdf="http://www.w3.org/1999/02/22-rdf-syntax-ns#"
   xmlns:svg="http://www.w3.org/2000/svg"
   xmlns="http://www.w3.org/2000/svg"
   xmlns:sodipodi="http://sodipodi.sourceforge.net/DTD/sodipodi-0.dtd"
   xmlns:inkscape="http://www.inkscape.org/namespaces/inkscape"
   width="48.104073mm"
   height="48.104103mm"
   viewBox="0 0 48.104073 48.104103"
   version="1.1"
   id="svg8"
   inkscape:version="0.92.3 (2405546, 2018-03-11)"
   sodipodi:docname="back_plane_A.svg">
  <defs
     id="defs2" />
  <sodipodi:namedview
     id="base"
     pagecolor="#ffffff"
     bordercolor="#666666"
     borderopacity="1.0"
     inkscape:pageopacity="0.0"
     inkscape:pageshadow="2"
     inkscape:zoom="1.4"
     inkscape:cx="330.15273"
     inkscape:cy="45.716815"
     inkscape:document-units="mm"
     inkscape:current-layer="layer1"
     showgrid="false"
     inkscape:window-width="3840"
     inkscape:window-height="2040"
     inkscape:window-x="0"
     inkscape:window-y="0"
     inkscape:window-maximized="1" />
  <metadata
     id="metadata5">
    <rdf:RDF>
      <cc:Work
         rdf:about="">
        <dc:format>image/svg+xml</dc:format>
        <dc:type
           rdf:resource="http://purl.org/dc/dcmitype/StillImage" />
        <dc:title></dc:title>
      </cc:Work>
    </rdf:RDF>
  </metadata>
  <g
     inkscape:label="Livello 1"
     inkscape:groupmode="layer"
     id="layer1"
     transform="translate(-47.395385,-59.212298)">
    <path
       style="fill:#000000;stroke-width:0.04695009"
       d="m 67.638708,107.17195 c -0.0669,-0.0795 -0.12141,-0.19037 -0.12123,-0.24649 1.8e-4,-0.0561 0.12615,-0.89295 0.27995,-1.85962 0.30416,-1.91164 0.31418,-1.94365 0.60857,-1.94365 0.20809,0 0.33187,0.13296 0.33187,0.35647 0,0.17407 -0.49102,3.39124 -0.54434,3.56655 -0.0325,0.10675 -0.24461,0.27119 -0.34988,0.27119 -0.0459,0 -0.13809,-0.065 -0.20494,-0.14445 z m 11.06463,-0.88633 c -0.0926,-0.0994 -1.19018,-3.43193 -1.18746,-3.60554 0.004,-0.24867 0.38068,-0.38987 0.57385,-0.21505 0.0768,0.0695 1.11499,3.13432 1.1917,3.51791 0.0624,0.3118 -0.36239,0.5342 -0.57809,0.30268 z m -21.37094,-3.41234 c -0.11101,-0.14112 -0.11989,-0.21525 -0.0432,-0.36062 0.15086,-0.28603 2.14146,-2.961374 2.23521,-3.004094 0.23439,-0.10679 0.53076,0.14356 0.4652,0.39297 -0.0318,0.120914 -2.09978,2.991374 -2.20172,3.056054 -0.13133,0.0834 -0.35635,0.0417 -0.45547,-0.0843 z m 10.5228,-1.71673 c -0.031,-0.031 -0.0563,-0.0945 -0.0563,-0.14107 0,-0.0466 0.20163,-0.63745 0.44806,-1.313014 0.24643,-0.67555 0.43724,-1.25646 0.42403,-1.29091 -0.0183,-0.0477 -0.16761,-0.0626 -0.62647,-0.0626 -0.63235,0 -0.71512,-0.0245 -0.71512,-0.21128 0,-0.19446 0.073,-0.21127 0.91764,-0.21127 0.72021,0 0.81314,0.009 0.88266,0.0859 0.0427,0.0472 0.0777,0.14089 0.0777,0.20815 0,0.16532 -1.00781,2.900764 -1.08727,2.951134 -0.0896,0.0568 -0.19931,0.0506 -0.26489,-0.015 z m 2.31464,0.0113 c -0.15549,-0.0647 -0.33915,-0.29069 -0.47858,-0.58878 -0.125,-0.26723 -0.1317,-0.31547 -0.13037,-0.939004 10e-4,-0.57051 0.0154,-0.69238 0.10738,-0.92291 0.20517,-0.51417 0.48239,-0.79077 0.79255,-0.79077 0.33612,0 0.59653,0.24635 0.77646,0.73455 0.14829,0.40236 0.14571,1.27538 -0.005,1.702964 -0.23668,0.67135 -0.64278,0.97866 -1.06241,0.80395 z m 0.49018,-0.59588 c 0.34517,-0.43882 0.33189,-1.757364 -0.0213,-2.110514 -0.14587,-0.14587 -0.19249,-0.14194 -0.35288,0.0298 -0.21516,0.23033 -0.30399,0.56051 -0.30276,1.12536 10e-4,0.574414 0.0709,0.853834 0.25968,1.042664 0.15368,0.15368 0.24225,0.13515 0.41722,-0.0873 z m 4.47487,-0.0682 c -0.37702,-0.18662 -0.57521,-0.522434 -0.57521,-0.974594 0,-0.61717 0.37102,-1.32892 0.99286,-1.90465 0.36979,-0.34236 0.52156,-0.38953 0.61234,-0.19031 0.0507,0.11117 0.0284,0.14405 -0.37661,0.55707 -0.23674,0.24141 -0.43044,0.47051 -0.43044,0.50911 0,0.0506 0.0723,0.0777 0.2585,0.0969 0.86542,0.0893 1.26763,1.03078 0.71115,1.664594 -0.29347,0.33423 -0.79894,0.43677 -1.19259,0.24192 z m 0.87236,-0.535674 c 0.14633,-0.15968 0.15781,-0.19352 0.13747,-0.40524 -0.0149,-0.15545 -0.058,-0.26915 -0.13177,-0.34764 -0.45757,-0.48706 -1.26274,0.0513 -0.95802,0.64056 0.19084,0.369054 0.66572,0.425054 0.95232,0.11232 z m 1.36003,0.517564 c -0.23917,-0.16251 -0.44527,-0.598534 -0.5136,-1.086514 -0.0973,-0.69468 0.0895,-1.4584 0.45002,-1.83995 0.16137,-0.1708 0.23097,-0.20965 0.41216,-0.23007 0.27771,-0.0313 0.50442,0.0988 0.67281,0.38614 0.39353,0.67151 0.35542,1.91286 -0.077,2.509874 -0.27606,0.38108 -0.62519,0.47739 -0.94434,0.26052 z m 0.63568,-0.580774 c 0.13707,-0.23328 0.21766,-0.60962 0.21827,-1.01921 6.7e-4,-0.45498 -0.0979,-0.81647 -0.27754,-1.01748 -0.13178,-0.14749 -0.13311,-0.14782 -0.26025,-0.0645 -0.2233,0.14631 -0.37044,0.54896 -0.39242,1.07386 -0.0439,1.04786 0.35861,1.628674 0.71194,1.02734 z m 10.28962,0.651904 c -0.0516,-0.0219 -0.68019,-0.628864 -1.39677,-1.348774 -1.41323,-1.41982 -1.42869,-1.44174 -1.18762,-1.68281 0.242,-0.242 0.26166,-0.228 1.70011,1.2111 0.86419,0.86457 1.33638,1.370884 1.35629,1.454274 0.0245,0.10272 0.003,0.15592 -0.11148,0.26996 -0.14793,0.14794 -0.20363,0.16281 -0.36053,0.0962 z m -27.76492,-2.424914 c -0.2786,-0.13883 -0.4594,-0.37085 -0.52845,-0.67815 -0.0565,-0.25152 0.048,-0.63606 0.21574,-0.79362 0.14334,-0.13466 0.14893,-0.23147 0.0251,-0.43454 -0.11852,-0.19439 -0.1241,-0.56405 -0.0118,-0.78421 0.0452,-0.0885 0.16328,-0.22587 0.26252,-0.30517 0.16165,-0.1292 0.21369,-0.14419 0.50035,-0.14419 0.28666,0 0.3387,0.015 0.50036,0.14419 0.34826,0.27832 0.44238,0.70872 0.24418,1.11666 l -0.10057,0.207 0.14172,0.1816 c 0.35243,0.45164 0.31654,1.01286 -0.0865,1.35267 -0.35032,0.29537 -0.75107,0.34285 -1.16263,0.13776 z m 0.84265,-0.53054 c 0.23171,-0.23171 0.18017,-0.58774 -0.10654,-0.73601 -0.29921,-0.15473 -0.70019,0.0118 -0.76762,0.31884 -0.0684,0.31146 0.16115,0.54908 0.53377,0.55253 0.16336,0.002 0.23003,-0.025 0.34039,-0.13536 z m -0.21716,-1.38466 c 0.37876,-0.15826 0.34913,-0.70749 -0.0435,-0.80603 -0.27748,-0.0696 -0.54112,0.12107 -0.54112,0.39144 0,0.21524 0.0729,0.33548 0.25019,0.41259 0.18452,0.0803 0.14761,0.08 0.33442,0.002 z m 1.68262,1.94611 c -0.31714,-0.19337 -0.52169,-0.65566 -0.5629,-1.27214 -0.0825,-1.23449 0.54151,-2.19563 1.20332,-1.85339 0.34954,0.18076 0.56644,0.66562 0.60199,1.34572 0.0655,1.2538 -0.58252,2.18216 -1.24241,1.77981 z m 0.49902,-0.46708 c 0.2565,-0.27458 0.39602,-1.0441 0.28591,-1.57691 -0.10689,-0.51722 -0.31219,-0.7903 -0.51326,-0.68269 -0.13703,0.0733 -0.32274,0.50072 -0.38545,0.88702 -0.11002,0.6778 0.13174,1.49669 0.44519,1.50792 0.0219,7.9e-4 0.0973,-0.0601 0.16761,-0.13534 z m 17.64599,-1.20682 c -0.0494,-0.10847 -0.0432,-0.13327 0.0532,-0.21128 0.0909,-0.0736 0.18904,-0.0884 0.58648,-0.0884 0.52421,0 0.63146,-0.04 0.75672,-0.28222 0.11682,-0.22591 0.0907,-0.49147 -0.0656,-0.66634 -0.13206,-0.14781 -0.14834,-0.15256 -0.60556,-0.17681 -0.67467,-0.0358 -0.66723,-0.026 -0.66723,-0.87388 0,-0.66799 3.7e-4,-0.6704 0.1237,-0.7674 0.11157,-0.0878 0.18724,-0.0973 0.77133,-0.0973 0.68079,0 0.79517,0.0329 0.79517,0.22871 0,0.16331 -0.099,0.19382 -0.63148,0.19456 -0.28534,3.7e-4 -0.54612,0.018 -0.57951,0.0392 -0.0437,0.0277 -0.0568,0.14921 -0.0469,0.43357 l 0.0138,0.39506 0.2817,0.0116 c 0.44979,0.0185 0.57836,0.0542 0.75497,0.20926 0.23698,0.20807 0.34836,0.45257 0.34836,0.76471 0,0.30226 -0.0923,0.55438 -0.27245,0.74401 -0.22462,0.23647 -0.33161,0.26578 -0.9704,0.26578 h -0.59022 z m 2.74961,0.0318 c -0.32768,-0.1998 -0.53279,-0.75871 -0.53598,-1.46048 -0.002,-0.52882 0.0586,-0.81401 0.25396,-1.18761 0.18888,-0.36116 0.40172,-0.52381 0.68547,-0.52381 0.34998,0 0.62802,0.28908 0.79028,0.82163 0.11896,0.39046 0.10267,1.20074 -0.032,1.59241 -0.12669,0.36842 -0.33758,0.6843 -0.51975,0.77851 -0.18741,0.0969 -0.46375,0.088 -0.64198,-0.0206 z m 0.52707,-0.45602 c 0.36968,-0.39889 0.40905,-1.70803 0.0645,-2.14602 -0.21982,-0.27946 -0.4833,-0.0579 -0.63445,0.53347 -0.10693,0.41835 -0.0731,1.05761 0.0739,1.39796 0.15665,0.36266 0.30097,0.4251 0.49606,0.21459 z m -34.100095,-1.58863 c -0.133246,-0.0961 -0.147127,-0.39488 -0.02347,-0.50526 0.179539,-0.16027 3.237675,-1.67836 3.380995,-1.67836 0.10092,0 0.17485,0.0377 0.24249,0.1237 0.12503,0.15895 0.12291,0.26432 -0.008,0.41447 -0.13087,0.14974 -3.094203,1.6641 -3.321717,1.69751 -0.109192,0.016 -0.199768,-0.001 -0.269963,-0.0521 z m 19.832505,-0.28997 c -0.0172,-0.0172 -0.0313,-0.0806 -0.0313,-0.14085 0,-0.0856 0.0257,-0.10955 0.11737,-0.10955 0.0991,0 0.11738,0.0219 0.11738,0.14085 0,0.10528 -0.0217,0.14085 -0.0861,0.14085 -0.0473,0 -0.10016,-0.0141 -0.11738,-0.0313 z m 2.6918,-0.10955 c 0,-0.1069 0.0214,-0.14085 0.0889,-0.14085 0.0996,0 0.15689,0.10447 0.1159,0.21128 -0.0149,0.0387 -0.067,0.0704 -0.1159,0.0704 -0.0674,0 -0.0889,-0.0339 -0.0889,-0.14085 z m -4.59035,-0.19582 c -0.0882,-0.0882 -0.0819,-2.214 0.007,-2.2876 0.10777,-0.0894 0.19188,-0.0166 0.39661,0.34318 0.10778,0.18943 0.22565,0.36906 0.26194,0.39918 0.0746,0.0619 0.13847,-0.0142 0.3967,-0.47259 0.15755,-0.27969 0.23164,-0.33899 0.33999,-0.27214 0.0529,0.0326 0.069,0.24606 0.0804,1.06596 0.0143,1.03516 -0.0145,1.27898 -0.15112,1.27898 -0.12149,0 -0.14433,-0.10464 -0.16826,-0.77089 -0.0148,-0.41168 -0.0425,-0.65981 -0.0748,-0.67051 -0.0282,-0.009 -0.11928,0.11043 -0.20229,0.26618 -0.083,0.15574 -0.16761,0.28317 -0.188,0.28317 -0.0204,0 -0.073,-0.0792 -0.11682,-0.17606 -0.10961,-0.24196 -0.24895,-0.41716 -0.29516,-0.37112 -0.0211,0.0211 -0.049,0.34799 -0.0619,0.72651 -0.0193,0.56608 -0.0362,0.69063 -0.0949,0.70184 -0.0393,0.007 -0.0974,-0.0123 -0.12911,-0.0441 z m 2.76095,-0.0358 c -0.052,-0.0972 -0.0701,-2.09917 -0.0201,-2.22938 0.0422,-0.11006 0.73305,-0.1043 0.95652,0.008 0.44412,0.22314 0.50346,0.77925 0.12125,1.13634 -0.0992,0.0926 -0.1852,0.11911 -0.43874,0.13495 -0.17347,0.0108 -0.33092,0.0435 -0.34989,0.0726 -0.019,0.0291 -0.0348,0.24601 -0.0352,0.48211 -5.9e-4,0.34767 -0.0148,0.43468 -0.075,0.45776 -0.1034,0.0397 -0.10448,0.0392 -0.15884,-0.0623 z m 0.91601,-1.33903 c 0.0796,-0.0796 0.11524,-0.16744 0.11524,-0.28384 0,-0.25351 -0.16705,-0.39907 -0.45798,-0.39907 -0.12512,0 -0.25284,0.0253 -0.28383,0.0563 -0.0582,0.0582 -0.0782,0.53637 -0.0278,0.66754 0.0211,0.0551 0.0943,0.0743 0.28383,0.0743 0.2085,0 0.27648,-0.0211 0.37058,-0.11524 z m 1.81633,1.39061 c -0.046,-0.0292 -0.0567,-0.29848 -0.0469,-1.18477 l 0.0126,-1.14698 0.38796,-0.0136 c 0.62049,-0.0218 0.90317,0.1872 0.90317,0.66784 0,0.24588 -0.0483,0.36452 -0.22622,0.55521 l -0.12084,0.12956 0.10919,0.293 c 0.17901,0.48036 0.21592,0.63889 0.16145,0.69337 -0.0979,0.0979 -0.19779,-0.0154 -0.32455,-0.3682 -0.21532,-0.59935 -0.23477,-0.62663 -0.43499,-0.60999 l -0.17347,0.0144 -0.0235,0.44603 c -0.028,0.53197 -0.0671,0.62364 -0.22387,0.52417 z m 0.83354,-1.32196 c 0.13013,-0.0696 0.201,-0.32602 0.13916,-0.50341 -0.062,-0.1778 -0.23918,-0.2595 -0.51935,-0.23943 l -0.20601,0.0147 -0.014,0.32399 c -0.008,0.1782 -0.003,0.3525 0.0103,0.38734 0.029,0.0756 0.45732,0.0878 0.58998,0.0168 z m -18.75253,-0.40279 c -0.0406,-0.0406 -0.0738,-0.0993 -0.0738,-0.13037 0,-0.0311 0.1495,-0.20392 0.33223,-0.38399 0.31994,-0.31527 0.54063,-0.63611 0.47956,-0.69718 -0.0161,-0.0161 -0.105,-0.0298 -0.19753,-0.0303 -0.48115,-0.003 -0.98986,-0.51681 -0.98986,-0.99988 0,-0.85476 0.994,-1.2854 1.61234,-0.69854 0.35206,0.33415 0.40607,0.79501 0.17371,1.48242 -0.20527,0.60725 -0.46628,0.99441 -0.90699,1.3453 -0.25801,0.20543 -0.32046,0.22179 -0.42968,0.11256 z m 0.80362,-1.76155 c 0.22932,-0.11101 0.27408,-0.2138 0.23686,-0.54397 -0.0333,-0.29518 -0.18808,-0.4437 -0.49303,-0.473 -0.20611,-0.0198 -0.24933,-0.007 -0.38439,0.11365 -0.11797,0.1054 -0.15685,0.18311 -0.17298,0.34572 -0.0252,0.25379 0.0463,0.40427 0.26068,0.54873 0.19641,0.13236 0.29452,0.13393 0.55286,0.009 z m 1.57923,1.75966 c -0.42192,-0.20808 -0.69309,-1.07117 -0.58368,-1.85777 0.0694,-0.49875 0.21801,-0.86597 0.44986,-1.11135 0.16884,-0.17871 0.22706,-0.20986 0.42701,-0.2285 0.32068,-0.0299 0.51175,0.1054 0.71309,0.50493 0.62041,1.23114 -0.0939,3.14263 -1.00628,2.69269 z m 0.6186,-0.74875 c 0.13411,-0.26557 0.14085,-0.30698 0.14085,-0.86579 0,-0.51825 -0.0131,-0.61591 -0.11223,-0.83523 -0.13809,-0.30562 -0.24629,-0.37589 -0.41179,-0.26745 -0.21501,0.14088 -0.35818,0.5461 -0.38197,1.0811 -0.0255,0.57306 0.0638,0.94721 0.27676,1.16021 0.1272,0.1272 0.14751,0.13325 0.24316,0.0724 0.0574,-0.0365 0.16775,-0.19187 0.24522,-0.34527 z m 33.79039,-0.86168 c -0.93713,-0.30605 -1.74526,-0.59392 -1.79584,-0.63969 -0.20183,-0.18265 -0.0548,-0.58512 0.21376,-0.58512 0.2033,0 3.46461,1.08147 3.5794,1.18695 0.15078,0.13856 0.14229,0.37371 -0.0181,0.49985 -0.068,0.0535 -0.15783,0.0967 -0.19954,0.0959 -0.0417,-7.7e-4 -0.84257,-0.25182 -1.77971,-0.55788 z m -27.1453,-0.23577 c -0.052,-0.0972 -0.0701,-2.09917 -0.0201,-2.22938 0.0423,-0.11014 0.7338,-0.10437 0.95412,0.008 0.44295,0.22587 0.50342,0.78153 0.12365,1.13634 -0.0992,0.0926 -0.1852,0.11911 -0.43875,0.13496 -0.17347,0.0108 -0.33092,0.0435 -0.34989,0.0726 -0.019,0.0291 -0.0348,0.24602 -0.0352,0.48211 -5.8e-4,0.34768 -0.0148,0.43468 -0.075,0.45777 -0.10339,0.0397 -0.10448,0.0392 -0.15883,-0.0623 z m 0.91601,-1.33903 c 0.0796,-0.0796 0.11524,-0.16743 0.11524,-0.28383 0,-0.26327 -0.16533,-0.39908 -0.48582,-0.39908 -0.29493,0 -0.31233,0.0222 -0.31233,0.39908 0,0.37683 0.0174,0.39907 0.31233,0.39907 0.2085,0 0.27648,-0.0211 0.37058,-0.11524 z m 1.116,1.38337 c -0.0564,-0.0232 -0.12602,-0.0859 -0.15467,-0.13949 -0.0735,-0.1374 -0.009,-1.9913 0.0729,-2.10376 0.0502,-0.0687 0.14086,-0.0813 0.58585,-0.0813 0.44698,0 0.53423,0.0122 0.5779,0.0809 0.0918,0.14437 -0.0357,0.19897 -0.52385,0.22422 l -0.45551,0.0236 v 0.35213 0.35213 l 0.30518,0.0235 c 0.26605,0.0205 0.30517,0.0355 0.30517,0.11738 0,0.082 -0.0358,0.0956 -0.2817,0.10741 -0.33691,0.0162 -0.39907,0.077 -0.39907,0.3907 0,0.36742 0.004,0.37046 0.46555,0.37046 0.43988,0 0.59021,0.0575 0.56016,0.21438 -0.0157,0.0817 -0.0641,0.0917 -0.48634,0.10036 -0.25792,0.005 -0.51511,-0.009 -0.57152,-0.0326 z m 1.67618,-0.046 c -0.0317,-0.0592 -0.0449,-0.48515 -0.0369,-1.18549 l 0.0126,-1.09306 0.32865,-0.0145 c 0.43116,-0.0189 0.60099,0.0164 0.77245,0.16063 0.29098,0.24485 0.30207,0.67331 0.026,1.00376 l -0.16071,0.19234 0.14427,0.38524 c 0.19716,0.52648 0.1968,0.52452 0.11096,0.59576 -0.11031,0.0915 -0.17204,0.008 -0.35327,-0.47965 -0.0838,-0.22548 -0.1801,-0.43292 -0.21389,-0.46096 -0.0338,-0.028 -0.13149,-0.0443 -0.2171,-0.036 l -0.15565,0.0149 -0.0136,0.44348 c -0.0126,0.41029 -0.0552,0.56594 -0.1548,0.56594 -0.0217,0 -0.0618,-0.0416 -0.089,-0.0924 z m 0.91688,-1.33741 c 0.0796,-0.0796 0.11524,-0.16743 0.11524,-0.28383 0,-0.26327 -0.16533,-0.39908 -0.48582,-0.39908 -0.29493,0 -0.31233,0.0222 -0.31233,0.39908 0,0.37683 0.0174,0.39907 0.31233,0.39907 0.2085,0 0.27648,-0.0211 0.37058,-0.11524 z m 1.35503,1.35856 c -0.0799,-0.0408 -0.19608,-0.16293 -0.25823,-0.27141 -0.10344,-0.18057 -0.11299,-0.2488 -0.11299,-0.80758 0,-0.55715 0.0102,-0.63082 0.11738,-0.84511 0.16075,-0.3215 0.39895,-0.44474 0.6726,-0.34798 0.22541,0.0797 0.36571,0.25449 0.37611,0.46857 0.0115,0.23584 -0.13052,0.24412 -0.22699,0.0132 -0.0885,-0.21184 -0.1396,-0.24954 -0.3394,-0.25049 -0.20268,-9.6e-4 -0.27947,0.1255 -0.34142,0.5623 -0.0872,0.61454 0.0269,1.18009 0.25544,1.26699 0.16825,0.064 0.30886,-0.003 0.39689,-0.18965 0.0829,-0.17552 0.21131,-0.23263 0.25677,-0.11416 0.0371,0.0967 -0.07,0.35028 -0.19477,0.46142 -0.13389,0.11922 -0.42275,0.14509 -0.60139,0.0539 z m 1.5595,-0.0265 -0.12822,-0.10086 0.0143,-1.00245 c 0.0174,-1.21853 -0.0112,-1.16239 0.60423,-1.18638 0.50934,-0.0199 0.65422,0.009 0.65422,0.13196 0,0.13677 -0.0782,0.16303 -0.5634,0.18915 l -0.44602,0.024 v 0.35213 0.35213 l 0.30517,0.0235 c 0.26605,0.0205 0.30518,0.0355 0.30518,0.11738 0,0.0819 -0.0391,0.0969 -0.30518,0.11737 l -0.30517,0.0235 -0.0136,0.3594 -0.0136,0.35941 0.46914,0.0162 c 0.50305,0.0174 0.63115,0.069 0.53803,0.21703 -0.0416,0.0661 -0.13648,0.0833 -0.51883,0.0942 -0.41914,0.0119 -0.48132,0.003 -0.59617,-0.0876 z m 1.7537,-0.0227 c -0.0493,-0.12954 -0.0631,-1.94633 -0.0162,-2.12143 0.0169,-0.0632 0.0647,-0.10564 0.1188,-0.10564 0.0699,0 0.16734,0.15701 0.42882,0.69126 0.18607,0.3802 0.36473,0.69887 0.39701,0.70817 0.0449,0.0129 0.0587,-0.13217 0.0587,-0.617 0,-0.69386 0.016,-0.78243 0.14085,-0.78243 0.0461,0 0.0967,0.0334 0.11235,0.0743 0.0157,0.0409 0.0285,0.53331 0.0285,1.09436 0,0.78163 -0.0148,1.04032 -0.0633,1.10666 -0.0359,0.0491 -0.0874,0.0717 -0.11896,0.0522 -0.0306,-0.0189 -0.21398,-0.35051 -0.40748,-0.73688 -0.19351,-0.38636 -0.37238,-0.68977 -0.39749,-0.67425 -0.026,0.0161 -0.0457,0.30601 -0.0457,0.67336 0,0.43918 -0.018,0.66313 -0.0563,0.70148 -0.0847,0.0847 -0.12901,0.0689 -0.17958,-0.0641 z m 2.3816,0.0908 c -0.0181,-0.0181 -0.0329,-0.49421 -0.0329,-1.058 v -1.02508 h -0.17883 c -0.0983,0 -0.21904,-0.0294 -0.26819,-0.0653 -0.0759,-0.0555 -0.0799,-0.0767 -0.0267,-0.14085 0.0508,-0.0612 0.16285,-0.0755 0.59109,-0.0755 0.42824,0 0.54031,0.0143 0.59109,0.0755 0.0532,0.0642 0.0492,0.0853 -0.0267,0.14085 -0.0492,0.0359 -0.14937,0.0653 -0.22271,0.0653 -0.0733,0 -0.14379,0.0272 -0.15656,0.0605 -0.0128,0.0333 -0.0385,0.5031 -0.0572,1.04408 -0.0288,0.83299 -0.0451,0.98575 -0.10672,0.99753 -0.04,0.008 -0.0875,-8.9e-4 -0.10564,-0.019 z m 8.91373,-0.68502 c -0.0402,-0.0574 -0.0731,-0.19246 -0.0731,-0.30016 0,-0.23894 -0.0285,-0.2528 -0.52029,-0.2528 -0.30916,0 -0.38758,-0.0158 -0.46566,-0.0939 -0.0516,-0.0516 -0.0939,-0.11694 -0.0939,-0.14511 0,-0.0806 0.66209,-2.11716 0.73508,-2.26108 0.10617,-0.20935 0.39172,-0.15213 0.39172,0.0785 0,0.0522 -0.13042,0.48802 -0.28983,0.96847 -0.16244,0.48961 -0.27659,0.90806 -0.2597,0.95206 0.0225,0.0587 0.0885,0.0785 0.26133,0.0785 0.27065,0 0.2882,-0.0258 0.2882,-0.42304 0,-0.28856 0.0724,-0.42206 0.22871,-0.42206 0.14988,0 0.19384,0.10351 0.19384,0.45642 0,0.32197 0.008,0.34716 0.1185,0.39774 0.0652,0.0297 0.13167,0.10647 0.14777,0.17061 0.0233,0.0929 -8.4e-4,0.14138 -0.11892,0.23844 -0.11552,0.0949 -0.1481,0.15834 -0.14777,0.28743 5e-4,0.19669 -0.1107,0.37431 -0.23433,0.37431 -0.0487,0 -0.12147,-0.0469 -0.16166,-0.10434 z m 1.63859,0.0169 c -0.38511,-0.23485 -0.60402,-0.77369 -0.60347,-1.48537 7.8e-4,-0.99327 0.39491,-1.71249 0.93891,-1.71336 0.28474,-4.7e-4 0.48287,0.15345 0.66443,0.51614 0.44987,0.89867 0.17377,2.4289 -0.48814,2.70546 -0.20824,0.087 -0.3413,0.0811 -0.51173,-0.0229 z m 0.52818,-0.56432 c 0.15489,-0.2306 0.2084,-0.44331 0.23577,-0.93713 0.0283,-0.51078 -0.0686,-0.96233 -0.248,-1.15593 -0.1361,-0.14686 -0.21063,-0.14969 -0.33915,-0.0129 -0.40401,0.43005 -0.46272,1.70463 -0.0998,2.16605 0.13632,0.1733 0.30991,0.15018 0.45115,-0.0601 z m -35.0802,-3.07409 c -0.0829,-0.0606 -0.0856,-0.13744 -0.0562,-1.57944 0.0207,-1.01309 0.0485,-1.5369 0.0839,-1.57955 0.0701,-0.0845 0.25016,-0.0814 0.32228,0.006 0.0872,0.10508 0.0499,3.03117 -0.0401,3.13951 -0.0782,0.0942 -0.19303,0.0994 -0.30991,0.0139 z m 2.01344,-0.0251 c -0.34384,-0.20966 -0.53608,-0.65592 -0.57109,-1.32568 -0.09,-1.72232 1.13386,-2.58026 1.6837,-1.18026 0.0895,0.22792 0.10678,0.36344 0.10928,0.85757 0.002,0.49409 -0.0139,0.63581 -0.10403,0.8964 -0.24122,0.69773 -0.70034,1.00658 -1.11786,0.75197 z m 0.61405,-0.68183 c 0.17131,-0.35174 0.24059,-0.87513 0.17135,-1.29445 -0.1331,-0.80595 -0.48372,-1.01929 -0.7487,-0.45555 -0.28328,0.60266 -0.23714,1.61254 0.0897,1.96239 0.11498,0.12309 0.14071,0.13152 0.24977,0.0818 0.0725,-0.033 0.16856,-0.15184 0.2379,-0.29422 z m 1.52155,0.66328 c -0.19936,-0.13414 -0.44707,-0.61072 -0.51769,-0.99599 -0.10594,-0.57796 0.036,-1.38326 0.31918,-1.81121 0.31727,-0.47943 0.8298,-0.49872 1.16538,-0.0439 0.22064,0.29906 0.28227,0.578 0.2802,1.26819 -0.002,0.5441 -0.0168,0.67143 -0.10738,0.89943 -0.27891,0.70228 -0.71924,0.96633 -1.13969,0.68344 z m 0.58918,-0.53823 c 0.18512,-0.28043 0.27657,-0.72087 0.24616,-1.18549 -0.0325,-0.49683 -0.096,-0.71583 -0.26108,-0.90056 -0.16685,-0.18674 -0.29186,-0.15177 -0.45547,0.12741 -0.39189,0.6687 -0.2423,2.1347 0.21782,2.1347 0.1056,0 0.16256,-0.0397 0.25257,-0.17606 z m 4.63881,-1.59218 c -0.0826,-0.0333 -0.073,-0.14116 0.0156,-0.17516 0.0408,-0.0157 0.18546,-0.0285 0.32137,-0.0285 0.29026,0 0.41817,-0.10295 0.41817,-0.33657 0,-0.2065 -0.15458,-0.32073 -0.43402,-0.32073 -0.12108,0 -0.24551,-0.0254 -0.2765,-0.0563 -0.0753,-0.0753 -0.0753,-0.75105 0,-0.82632 0.0653,-0.0654 0.68446,-0.0764 0.78304,-0.0139 0.11251,0.0713 0.008,0.14538 -0.20526,0.14538 -0.113,0 -0.25965,0.0206 -0.32588,0.0458 -0.1042,0.0396 -0.12044,0.0738 -0.12044,0.2532 0,0.2291 0.0412,0.26441 0.30828,0.26441 0.11016,0 0.20733,0.0425 0.31307,0.137 0.13562,0.12117 0.15333,0.16497 0.15333,0.37921 0,0.21973 -0.0163,0.25712 -0.17537,0.40292 -0.15886,0.14558 -0.20087,0.16037 -0.44603,0.15701 -0.14886,-0.002 -0.29706,-0.0144 -0.32934,-0.0274 z m -14.759693,-0.204 c -0.04183,-0.0244 -0.111351,-0.0983 -0.154496,-0.16416 -0.0734,-0.11202 -0.0733,-0.12845 0.0016,-0.25531 0.04405,-0.0746 0.130414,-0.15852 0.191918,-0.18654 0.158405,-0.0722 3.628817,-0.0703 3.787607,0.002 0.238214,0.10854 0.259384,0.48089 0.03419,0.6014 -0.119458,0.0639 -3.751702,0.0663 -3.860867,0.003 z m 38.434283,-1.09482 c -0.25437,-0.0995 -0.34675,-0.17122 -0.49121,-0.38119 -0.15217,-0.22117 -0.17715,-0.34835 -0.0863,-0.43921 0.11691,-0.11691 0.26373,-0.0623 0.41211,0.15341 0.19342,0.28112 0.42607,0.35898 0.68898,0.23059 0.23555,-0.11503 0.36365,-0.36321 0.31682,-0.61379 -0.036,-0.1928 -0.22488,-0.40675 -0.47612,-0.53939 -0.24575,-0.12975 -0.2487,-0.27815 -0.0144,-0.72537 0.11061,-0.21115 0.18681,-0.40704 0.16933,-0.43532 -0.0193,-0.0313 -0.20247,-0.0514 -0.46776,-0.0514 -0.36274,0 -0.44903,-0.0144 -0.51368,-0.0859 -0.097,-0.10719 -0.0979,-0.1689 -0.004,-0.26291 0.0602,-0.0602 0.19766,-0.0738 0.74785,-0.0738 0.94036,0 0.98746,0.0652 0.59861,0.8282 l -0.22301,0.43762 0.2223,0.21314 c 0.12227,0.11723 0.25544,0.27724 0.29595,0.35557 0.39528,0.76439 -0.39278,1.69602 -1.17555,1.38972 z m 2.18317,-0.0221 c -0.20409,-0.11157 -0.38992,-0.37615 -0.50134,-0.7138 -0.13105,-0.39714 -0.11926,-1.23848 0.0231,-1.65174 0.19266,-0.5591 0.46881,-0.83662 0.83248,-0.83662 0.50134,0 0.86642,0.64441 0.86642,1.52934 0,0.50773 -0.0642,0.82694 -0.23783,1.1818 -0.24061,0.49186 -0.62765,0.68522 -0.98287,0.49102 z m 0.39742,-0.41449 c 0.11174,-0.0429 0.28946,-0.42281 0.35601,-0.7611 0.10813,-0.54958 -0.0192,-1.28351 -0.26237,-1.51193 -0.16566,-0.15562 -0.32176,-0.0717 -0.4704,0.25301 -0.18006,0.39329 -0.23686,0.92042 -0.14679,1.36211 0.11398,0.55892 0.27014,0.75516 0.52355,0.65791 z m -21.07013,0.13987 c -0.0178,-0.0178 -0.0323,-0.0803 -0.0323,-0.13906 0,-0.13597 -0.0482,-0.16396 -0.34514,-0.20019 -0.21507,-0.0263 -0.24279,-0.0425 -0.2513,-0.14688 -0.016,-0.19585 0.37211,-1.24156 0.46733,-1.25926 0.11666,-0.0217 0.1055,0.0799 -0.0664,0.60431 -0.16493,0.50317 -0.15646,0.6223 0.0426,0.5994 0.11563,-0.0133 0.13187,-0.0373 0.15285,-0.22615 0.0309,-0.27777 0.153,-0.29283 0.19042,-0.0235 0.0143,0.10329 0.0557,0.23416 0.0918,0.29081 0.0572,0.0897 0.0559,0.114 -0.0101,0.1878 -0.0417,0.0466 -0.083,0.13596 -0.0918,0.19849 -0.0163,0.11582 -0.0898,0.17249 -0.14807,0.11421 z m -9.99685,-0.23098 c -0.30164,-0.16367 -0.35416,-0.58929 -0.12844,-1.04098 0.14508,-0.29034 0.50279,-0.66963 0.63152,-0.66963 0.12486,0 0.0779,0.10761 -0.14621,0.33516 -0.22695,0.23041 -0.25068,0.36909 -0.0632,0.36909 0.15827,0 0.3678,0.13211 0.44437,0.28017 0.25044,0.4843 -0.25939,0.98592 -0.73808,0.72619 z m 0.52526,-0.2341 c 0.0929,-0.091 0.0862,-0.37984 -0.0111,-0.47714 -0.11959,-0.11958 -0.40166,-0.10332 -0.50909,0.0293 -0.20979,0.25908 0.007,0.60779 0.3347,0.53906 0.0646,-0.0135 0.14801,-0.0546 0.18545,-0.0913 z m 4.44307,-0.40449 c -0.0108,-0.0344 -0.0319,-0.11901 -0.0469,-0.18796 -0.0254,-0.11665 -0.0494,-0.12752 -0.34431,-0.15628 -1.20945,-0.11792 -2.12841,-0.4255 -3.23668,-1.08333 -0.14943,-0.0887 -0.14987,-0.0887 -0.26758,0.0219 -0.0683,0.0641 -0.14852,0.099 -0.19066,0.0828 -0.0655,-0.0251 -0.0652,-0.0437 0.002,-0.18555 l 0.0752,-0.15763 -0.60749,-0.6068 c -0.69355,-0.69278 -1.03239,-1.17163 -1.42295,-2.01091 l -0.25303,-0.54375 -0.18434,0.0114 c -0.24272,0.0151 -0.26471,-0.0691 -0.051,-0.19515 0.11654,-0.0688 0.16204,-0.1239 0.14306,-0.17337 -0.0153,-0.0399 -0.0738,-0.28765 -0.13002,-0.55054 -0.14613,-0.68354 -0.14613,-1.9157 0,-2.59924 0.0562,-0.26289 0.11471,-0.51063 0.13002,-0.55053 0.019,-0.0495 -0.0265,-0.10462 -0.14306,-0.17338 -0.21436,-0.12648 -0.19171,-0.21025 0.0527,-0.19496 l 0.18604,0.0116 0.15832,-0.36376 c 0.43878,-1.00818 0.97309,-1.74219 1.82868,-2.51218 l 0.30046,-0.2704 -0.0764,-0.16022 c -0.0617,-0.12941 -0.0648,-0.16983 -0.0161,-0.21025 0.0447,-0.0371 0.0886,-0.0199 0.17,0.0668 0.13695,0.14578 0.17024,0.14544 0.39006,-0.004 0.31867,-0.21654 1.07858,-0.57086 1.53605,-0.7162 0.48762,-0.15492 1.05024,-0.26703 1.58307,-0.31545 l 0.3406,-0.031 0.0293,-0.18301 c 0.0219,-0.13713 0.0513,-0.18301 0.11717,-0.18301 0.0644,0 0.0881,0.0345 0.0886,0.12911 3.7e-4,0.071 0.0162,0.15318 0.0352,0.18259 0.019,0.0294 0.25647,0.0773 0.52777,0.10639 1.07469,0.11526 1.95186,0.42279 3.03723,1.06481 l 0.1501,0.0888 0.14195,-0.13599 c 0.12773,-0.12238 0.14518,-0.12758 0.17422,-0.0519 0.0178,0.0463 0.008,0.12327 -0.0221,0.17114 -0.0299,0.0479 -0.0544,0.11016 -0.0544,0.13842 0,0.0282 0.22277,0.26406 0.49505,0.52402 0.27227,0.25995 0.63168,0.65439 0.79869,0.87653 0.28119,0.37401 0.78032,1.27898 0.9031,1.6374 0.0494,0.14414 0.0648,0.15288 0.24918,0.14085 0.25906,-0.0169 0.29544,0.0821 0.0655,0.17814 -0.15475,0.0647 -0.16952,0.0856 -0.14057,0.19887 0.28792,1.1269 0.31754,2.13584 0.0944,3.21553 -0.11861,0.57391 -0.12129,0.56047 0.14306,0.71695 0.14492,0.0858 0.0359,0.17223 -0.17275,0.13698 -0.17506,-0.0296 -0.18644,-0.0239 -0.23589,0.11796 -0.10729,0.30779 -0.46924,1.00144 -0.72926,1.39759 -0.17087,0.26034 -0.48892,0.63049 -0.86992,1.01242 -0.57265,0.57406 -0.65994,0.6938 -0.55362,0.75951 0.0658,0.0407 0.0588,0.21127 -0.009,0.21127 -0.0306,0 -0.10587,-0.0472 -0.16724,-0.10482 -0.11096,-0.10424 -0.11242,-0.10433 -0.26125,-0.016 -1.10812,0.65773 -1.88464,0.91565 -3.29533,1.09451 -0.27602,0.035 -0.28218,0.039 -0.30518,0.19631 -0.0239,0.16379 -0.12497,0.24994 -0.16038,0.13675 z m -0.0846,-0.80205 c 0.0265,-0.0323 0.0555,-0.11151 0.0644,-0.17607 0.0225,-0.16272 0.15049,-0.14961 0.1801,0.0185 0.0132,0.0747 0.0589,0.15787 0.10176,0.18482 0.11559,0.0728 1.12122,-0.0806 1.67285,-0.25515 0.53472,-0.16919 1.32614,-0.54404 1.55739,-0.73766 0.16034,-0.13424 0.16139,-0.13754 0.0822,-0.25845 -0.0441,-0.0674 -0.0802,-0.14434 -0.0802,-0.17107 0,-0.0835 0.15336,-0.0532 0.26584,0.0524 l 0.10756,0.10105 0.19162,-0.13279 c 0.31104,-0.21555 0.91117,-0.88267 1.24461,-1.38353 0.33522,-0.50354 0.70329,-1.27717 0.66058,-1.38846 -0.0145,-0.0378 -0.0798,-0.0891 -0.14497,-0.11387 -0.19246,-0.0732 -0.14833,-0.1807 0.081,-0.19729 0.18406,-0.0133 0.20394,-0.0279 0.25627,-0.18824 0.21047,-0.64475 0.24986,-1.95424 0.0844,-2.80753 -0.1007,-0.51949 -0.15188,-0.59847 -0.3712,-0.57287 -0.21858,0.0255 -0.23285,-0.096 -0.024,-0.204 0.12358,-0.0639 0.1406,-0.0937 0.11483,-0.20074 -0.0521,-0.21657 -0.43084,-0.95457 -0.69091,-1.34642 -0.26664,-0.40174 -1.24712,-1.43198 -1.36283,-1.43198 -0.0383,0 -0.10787,0.0423 -0.1546,0.0939 -0.0893,0.0987 -0.25823,0.12832 -0.25823,0.0453 0,-0.0267 0.0345,-0.10122 0.0766,-0.16553 0.0716,-0.10928 0.0709,-0.12322 -0.0105,-0.21321 -0.11476,-0.12681 -0.5869,-0.38861 -1.06602,-0.59111 -0.51683,-0.21844 -1.12473,-0.37672 -1.70665,-0.44436 -0.53336,-0.062 -0.60961,-0.0396 -0.63583,0.18646 -0.0182,0.15682 -0.17885,0.20713 -0.17885,0.056 0,-0.1834 -0.0869,-0.28207 -0.24814,-0.28177 -0.2748,5e-4 -1.03656,0.13391 -1.46554,0.25666 -0.41624,0.11911 -1.43761,0.59358 -1.66672,0.77427 -0.11594,0.0914 -0.11637,0.0944 -0.035,0.23908 0.1269,0.22576 -0.004,0.32847 -0.17627,0.13821 -0.0467,-0.0516 -0.11231,-0.0939 -0.14571,-0.0939 -0.10499,0 -0.9034,0.79686 -1.21956,1.2172 -0.2927,0.38915 -0.78791,1.30375 -0.8453,1.5612 -0.0237,0.10615 -0.005,0.13739 0.11706,0.20074 0.19787,0.10233 0.1936,0.22332 -0.008,0.21231 -0.0839,-0.005 -0.17673,-0.006 -0.20622,-0.004 -0.0606,0.005 -0.18256,0.47549 -0.25094,0.96724 -0.0952,0.68451 -0.0475,1.5821 0.1215,2.28881 l 0.0758,0.31692 h 0.20622 c 0.24288,0 0.28122,0.099 0.0771,0.19902 -0.10006,0.0491 -0.12697,0.093 -0.11958,0.19539 0.0129,0.17893 0.3759,0.90906 0.67281,1.3533 0.27817,0.4162 0.93107,1.12788 1.21564,1.32509 l 0.1935,0.1341 0.10756,-0.10105 c 0.19161,-0.18 0.32668,-0.0967 0.18755,0.11565 -0.0816,0.12458 -0.0811,0.12636 0.0752,0.25682 0.43269,0.36123 1.62484,0.82458 2.44798,0.95145 0.56609,0.0873 0.77133,0.0919 0.8314,0.0188 z m 28.95444,-0.17667 c -0.047,-0.052 -0.0855,-0.15879 -0.0855,-0.23736 0,-0.29439 0.032,-0.30442 1.94365,-0.60857 0.96667,-0.1538 1.8035,-0.27978 1.85962,-0.27996 0.12295,-3.7e-4 0.39093,0.21454 0.39093,0.31353 0,0.0998 -0.17456,0.33314 -0.27118,0.36253 -0.17531,0.0533 -3.39248,0.54433 -3.56655,0.54433 -0.12619,0 -0.21274,-0.0302 -0.27095,-0.0945 z m -36.85742,-2.12427 c -0.0141,-0.0368 0.0831,-0.3664 0.21595,-0.73249 0.13288,-0.36609 0.22995,-0.69597 0.21571,-0.73308 -0.0185,-0.0482 -0.12366,-0.0714 -0.36855,-0.0813 -0.26714,-0.0108 -0.34267,-0.0294 -0.34267,-0.0843 0,-0.10359 0.90796,-0.10342 0.9733,1.8e-4 0.0317,0.0503 -0.041,0.29896 -0.25311,0.86549 -0.2804,0.74884 -0.38037,0.92251 -0.44063,0.76547 z m 15.68951,-0.64882 c -0.16562,-0.13028 -0.24081,-0.27335 -0.17712,-0.33703 0.0339,-0.0339 0.10056,-0.004 0.21726,0.0989 0.0926,0.0813 0.21085,0.14783 0.26277,0.14783 0.11259,0 0.32488,-0.19954 0.32488,-0.30538 0,-0.13293 -0.13054,-0.33215 -0.25471,-0.38873 -0.14817,-0.0675 -0.15416,-0.18343 -0.0228,-0.44093 0.11818,-0.23166 0.0814,-0.27168 -0.25069,-0.27275 -0.19147,-6.1e-4 -0.22301,-0.014 -0.22301,-0.0946 0,-0.0866 0.0313,-0.0939 0.40055,-0.0939 0.48748,0 0.51307,0.0336 0.32498,0.42714 l -0.13283,0.27791 0.16142,0.16654 c 0.14041,0.14487 0.16141,0.19722 0.16141,0.40253 0,0.20721 -0.0187,0.2527 -0.15333,0.37299 -0.18996,0.16973 -0.45255,0.18595 -0.63879,0.0395 z m 12.2458,-2.27131 c -0.14654,-0.14655 -0.14528,-0.27554 0.006,-0.57849 0.11336,-0.22747 0.26352,-0.38192 1.08715,-1.11821 0.19798,-0.17698 0.21669,-0.21306 0.2369,-0.45673 0.0209,-0.25254 0.0144,-0.27208 -0.14342,-0.42992 -0.30289,-0.30289 -0.60486,-0.20741 -0.82863,0.262 -0.12539,0.26306 -0.2345,0.3304 -0.36279,0.22392 -0.11062,-0.0918 -0.0551,-0.43368 0.10771,-0.6639 0.2281,-0.32242 0.35133,-0.38646 0.74372,-0.38646 0.31477,0 0.35981,0.0125 0.52474,0.14531 0.26895,0.21662 0.39001,0.45925 0.39093,0.78352 0.001,0.4078 -0.14803,0.66143 -0.62183,1.05717 -0.46991,0.39249 -0.70225,0.64905 -0.68229,0.7534 0.0124,0.065 0.0908,0.0795 0.48381,0.0893 0.25792,0.006 0.51397,0.022 0.56898,0.0347 0.128,0.0295 0.16723,0.1781 0.0799,0.30275 -0.0635,0.0906 -0.11377,0.0969 -0.77162,0.0969 -0.68456,0 -0.70686,-0.003 -0.81896,-0.11524 z m 2.71957,0.0478 c -0.65083,-0.28326 -0.84606,-1.89699 -0.33304,-2.75287 0.19327,-0.32243 0.40311,-0.46619 0.68048,-0.46619 0.18528,0 0.23426,0.0239 0.40865,0.19953 0.31925,0.32153 0.41936,0.64209 0.42153,1.34982 0.002,0.66549 -0.0763,0.99148 -0.32522,1.35264 -0.23748,0.34461 -0.53491,0.45525 -0.8524,0.31707 z m 0.44977,-0.5047 c 0.38404,-0.41222 0.42365,-1.7249 0.0649,-2.15124 -0.14795,-0.17583 -0.22635,-0.17666 -0.3875,-0.004 -0.19119,0.20466 -0.30989,0.65222 -0.30627,1.15471 0.006,0.84971 0.31363,1.33903 0.62885,1.00068 z m -31.29272,-2.3177 c -0.2915,-0.14387 -0.37948,-0.47273 -0.2029,-0.75844 0.0828,-0.13394 0.0908,-0.18144 0.0469,-0.27771 -0.0861,-0.18903 -0.062,-0.37538 0.0686,-0.53066 0.10082,-0.11982 0.15577,-0.14446 0.32225,-0.14446 0.36094,0 0.54267,0.30894 0.40097,0.68164 -0.0383,0.10061 -0.0293,0.14721 0.0469,0.24414 0.11478,0.14591 0.12564,0.46394 0.0209,0.6134 -0.0897,0.12811 -0.30722,0.2453 -0.45258,0.24386 -0.0594,-5.9e-4 -0.17243,-0.0329 -0.25123,-0.0718 z m 0.48339,-0.26534 c 0.0824,-0.0684 0.0736,-0.29779 -0.0148,-0.3862 -0.11222,-0.11221 -0.37565,-0.0948 -0.46349,0.0306 -0.1009,0.14406 -0.0921,0.20953 0.0466,0.34831 0.0935,0.0935 0.14741,0.11279 0.24622,0.088 0.0696,-0.0175 0.15302,-0.0538 0.18544,-0.0807 z m -0.0739,-0.81938 c 0.1667,-0.15086 0.0615,-0.43875 -0.16029,-0.43875 -0.12556,0 -0.27031,0.12961 -0.27031,0.24203 0,0.10804 0.16144,0.27443 0.26627,0.27443 0.0432,0 0.1171,-0.035 0.16433,-0.0777 z m 15.43493,1.03584 c -0.0972,-0.11713 0.10739,-0.45329 0.43032,-0.70699 0.32281,-0.25362 0.40865,-0.41895 0.31688,-0.61041 -0.0895,-0.18664 -0.28796,-0.2485 -0.41891,-0.13054 -0.0554,0.0499 -0.11889,0.13827 -0.14111,0.19637 -0.0513,0.13411 -0.18357,0.13933 -0.18357,0.007 0,-0.36396 0.47669,-0.59711 0.76199,-0.3727 0.30402,0.23915 0.28577,0.61113 -0.0446,0.90989 -0.36502,0.33004 -0.48665,0.46459 -0.46887,0.51869 0.009,0.0286 0.15256,0.0625 0.31816,0.0754 0.23814,0.0186 0.30434,0.0406 0.31668,0.10563 0.0139,0.0733 -0.0298,0.0822 -0.40464,0.0822 -0.32712,0 -0.43399,-0.0166 -0.4823,-0.0748 z m 17.58428,-0.88558 c -0.13538,-0.13538 -0.14808,-0.30489 -0.0331,-0.44132 0.12844,-0.15236 2.92394,-2.16508 3.05163,-2.19712 0.25793,-0.0647 0.5,0.34001 0.33087,0.55323 -0.0545,0.0687 -1.49664,1.12915 -2.59042,1.90481 -0.23447,0.16628 -0.46653,0.29565 -0.53033,0.29565 -0.0624,0 -0.16529,-0.0519 -0.22867,-0.11525 z m -10.34097,-1.58435 c -0.041,-0.041 -0.0563,-0.39702 -0.0563,-1.30771 0,-1.57252 0.0224,-1.81938 0.17127,-1.88721 0.0889,-0.0405 0.12936,-0.0329 0.21069,0.0395 0.10019,0.0892 0.1005,0.0962 0.0695,1.58861 -0.0203,0.9746 -0.0492,1.52071 -0.0827,1.56109 -0.0643,0.0774 -0.23746,0.0806 -0.31235,0.006 z m 1.97796,-0.0348 c -0.32358,-0.1973 -0.5319,-0.76788 -0.5319,-1.45688 0,-1.18123 0.55493,-1.95553 1.18344,-1.65127 0.40574,0.19641 0.62282,0.72354 0.62149,1.50908 -0.001,0.7762 -0.25274,1.42408 -0.62792,1.61809 -0.1903,0.0984 -0.46585,0.0903 -0.64511,-0.019 z m 0.50574,-0.43005 c 0.34416,-0.34417 0.44725,-1.40522 0.19237,-1.98009 -0.11888,-0.26812 -0.21632,-0.34366 -0.37232,-0.2886 -0.39212,0.1384 -0.57269,1.38205 -0.29446,2.02812 0.14958,0.34734 0.29427,0.42071 0.47441,0.24057 z m -22.71123,-1.05068 c -0.0182,-0.0475 0.0496,-0.15669 0.19187,-0.3088 0.12105,-0.12941 0.21171,-0.26044 0.20146,-0.29117 -0.0102,-0.0307 -0.0804,-0.0686 -0.15597,-0.0842 -0.21339,-0.0439 -0.3413,-0.12899 -0.41855,-0.27838 -0.18762,-0.36282 0.03,-0.74893 0.42336,-0.7511 0.22226,-0.001 0.36924,0.0893 0.47402,0.2919 0.14654,0.28338 -0.0111,0.84532 -0.33887,1.20815 -0.22437,0.24836 -0.33906,0.31326 -0.37732,0.21355 z m 0.42556,-0.92362 c 0.29232,-0.13319 0.16409,-0.60322 -0.16456,-0.60322 -0.29663,0 -0.42384,0.32828 -0.21006,0.54206 0.12856,0.12856 0.20081,0.14036 0.37462,0.0612 z m 9.5212,-0.34922 c 0.009,-0.62562 0.0288,-0.88542 0.0683,-0.89855 0.11209,-0.0373 0.13624,0.16908 0.11107,0.9492 -0.023,0.71436 -0.0344,0.79928 -0.10894,0.81353 -0.0776,0.0148 -0.0823,-0.0433 -0.0704,-0.86418 z m 3.9559,0.78152 c -0.17128,-0.0695 -0.39667,-0.34472 -0.4929,-0.60191 -0.30292,-0.80964 -0.17063,-1.86882 0.29808,-2.38653 0.1748,-0.19307 0.22509,-0.22108 0.43144,-0.24032 0.32302,-0.0301 0.5134,0.10426 0.71499,0.50473 0.60118,1.19427 -0.0596,3.0859 -0.95161,2.72403 z m 0.55964,-0.77129 c 0.1153,-0.22834 0.13986,-0.34192 0.15875,-0.73433 0.0409,-0.84857 -0.21708,-1.45286 -0.53207,-1.24648 -0.2361,0.1547 -0.39549,0.64807 -0.39635,1.22682 -6.8e-4,0.46636 0.1031,0.83538 0.28653,1.01881 0.12644,0.12644 0.14676,0.13245 0.24238,0.0717 0.0574,-0.0365 0.16574,-0.18791 0.24076,-0.33647 z m -9.36189,-0.77327 c -0.17262,-0.17261 -0.25085,-0.47069 -0.22374,-0.85252 0.0477,-0.67153 0.45069,-1.02045 0.75749,-0.65584 0.30577,0.36339 0.28073,1.16516 -0.0471,1.50732 -0.16335,0.1705 -0.31689,0.17083 -0.48667,10e-4 z m 0.41844,-0.24702 c 0.12262,-0.20163 0.16058,-0.51443 0.0986,-0.81279 -0.13595,-0.65486 -0.536,-0.41234 -0.53556,0.32467 3.3e-4,0.55823 0.23491,0.8203 0.43692,0.48812 z m 17.87475,-0.74975 c -0.0857,-0.0674 -0.1237,-0.14165 -0.1237,-0.24151 0,-0.15701 1.5318,-3.23076 1.68901,-3.38922 0.19698,-0.19854 0.56459,-0.0414 0.56459,0.24137 0,0.16722 -1.587,3.28473 -1.72897,3.3964 -0.14714,0.11574 -0.24706,0.11399 -0.40093,-0.007 z m -9.16798,-2.16323 c -0.0551,-0.0273 -0.12382,-0.10125 -0.15259,-0.16439 -0.0717,-0.15729 -0.0729,-3.62895 -0.001,-3.786 0.028,-0.0615 0.11197,-0.14786 0.18654,-0.19191 0.12718,-0.0751 0.14307,-0.0752 0.25613,-10e-4 0.0663,0.0435 0.14082,0.11686 0.16559,0.16315 0.0266,0.0497 0.0451,0.84369 0.0451,1.93658 0,1.69592 -0.007,1.86062 -0.0822,1.94952 -0.10088,0.11922 -0.28327,0.16039 -0.41719,0.0942 z"
       id="path826"
       inkscape:connector-curvature="0" />
  </g>
</svg>
