  0
SECTION
  2
HEADER
  9
$ACADVER
  1
AC1009
  9
$EXTMIN
 10
0.0
 20
0.0
 30
0.0
  9
$EXTMAX
 10
1000.0
 20
1000.0
 30
0.0
  9
$FILLMODE
 70
 0
  9
$SPLFRAME
 70
 1
  0
ENDSEC
  0
SECTION
  2
TABLES
  0
TABLE
  2
LAYER
 70
1
  0
LAYER
  2
0
 70
     0
 62
     7
  6
CONTINUOUS
  0
ENDTAB
  0
ENDSEC
  0
SECTION
  2
ENTITIES
  0
POLYLINE
  8
0
 62
     0
 66
     1
 10
0
 20
0
 30
0.0
 70
     1
 40
0
 41
0
  0
VERTEX
  8
0
 10
1.60362
 20
7.57101
 30
0.0
 40
0
 41
0
  0
VERTEX
  8
0
 10
1.60488
 20
7.57101
 30
0.0
 40
0
 41
0
  0
VERTEX
  8
0
 10
1.60775
 20
7.57101
 30
0.0
 40
0
 41
0
  0
VERTEX
  8
0
 10
1.60872
 20
7.57101
 30
0.0
 40
0
 41
0
  0
VERTEX
  8
0
 10
1.60872
 20
7.57101
 30
0.0
 40
0
 41
0
  0
VERTEX
  8
0
 10
1.61253
 20
7.57101
 30
0.0
 40
0
 41
0
  0
VERTEX
  8
0
 10
1.61382
 20
7.57101
 30
0.0
 40
0
 41
0
  0
VERTEX
  8
0
 10
1.6211
 20
7.57101
 30
0.0
 40
0
 41
0
  0
VERTEX
  8
0
 10
1.6429
 20
7.56629
 30
0.0
 40
0
 41
0
  0
VERTEX
  8
0
 10
1.66553
 20
7.55518
 30
0.0
 40
0
 41
0
  0
VERTEX
  8
0
 10
1.66971
 20
7.55197
 30
0.0
 40
0
 41
0
  0
VERTEX
  8
0
 10
1.67589
 20
7.54801
 30
0.0
 40
0
 41
0
  0
VERTEX
  8
0
 10
1.70188
 20
7.52274
 30
0.0
 40
0
 41
0
  0
VERTEX
  8
0
 10
1.72092
 20
7.49197
 30
0.0
 40
0
 41
0
  0
VERTEX
  8
0
 10
1.72364
 20
7.48529
 30
0.0
 40
0
 41
0
  0
VERTEX
  8
0
 10
1.72835
 20
7.47342
 30
0.0
 40
0
 41
0
  0
VERTEX
  8
0
 10
1.74251
 20
7.40696
 30
0.0
 40
0
 41
0
  0
VERTEX
  8
0
 10
1.74713
 20
7.34
 30
0.0
 40
0
 41
0
  0
VERTEX
  8
0
 10
1.74713
 20
7.31765
 30
0.0
 40
0
 41
0
  0
VERTEX
  8
0
 10
1.74729
 20
7.30469
 30
0.0
 40
0
 41
0
  0
VERTEX
  8
0
 10
1.74528
 20
7.24268
 30
0.0
 40
0
 41
0
  0
VERTEX
  8
0
 10
1.73725
 20
7.18544
 30
0.0
 40
0
 41
0
  0
VERTEX
  8
0
 10
1.73443
 20
7.17481
 30
0.0
 40
0
 41
0
  0
VERTEX
  8
0
 10
1.73296
 20
7.16547
 30
0.0
 40
0
 41
0
  0
VERTEX
  8
0
 10
1.71838
 20
7.12511
 30
0.0
 40
0
 41
0
  0
VERTEX
  8
0
 10
1.69553
 20
7.09435
 30
0.0
 40
0
 41
0
  0
VERTEX
  8
0
 10
1.69
 20
7.08974
 30
0.0
 40
0
 41
0
  0
VERTEX
  8
0
 10
1.68408
 20
7.08485
 30
0.0
 40
0
 41
0
  0
VERTEX
  8
0
 10
1.65235
 20
7.06901
 30
0.0
 40
0
 41
0
  0
VERTEX
  8
0
 10
1.62343
 20
7.06304
 30
0.0
 40
0
 41
0
  0
VERTEX
  8
0
 10
1.61382
 20
7.06304
 30
0.0
 40
0
 41
0
  0
VERTEX
  8
0
 10
1.61253
 20
7.06304
 30
0.0
 40
0
 41
0
  0
VERTEX
  8
0
 10
1.60965
 20
7.06304
 30
0.0
 40
0
 41
0
  0
VERTEX
  8
0
 10
1.60872
 20
7.06304
 30
0.0
 40
0
 41
0
  0
VERTEX
  8
0
 10
1.60742
 20
7.06304
 30
0.0
 40
0
 41
0
  0
VERTEX
  8
0
 10
1.60454
 20
7.06304
 30
0.0
 40
0
 41
0
  0
VERTEX
  8
0
 10
1.60362
 20
7.06304
 30
0.0
 40
0
 41
0
  0
VERTEX
  8
0
 10
1.59397
 20
7.06304
 30
0.0
 40
0
 41
0
  0
VERTEX
  8
0
 10
1.56506
 20
7.06901
 30
0.0
 40
0
 41
0
  0
VERTEX
  8
0
 10
1.53331
 20
7.08485
 30
0.0
 40
0
 41
0
  0
VERTEX
  8
0
 10
1.52746
 20
7.08974
 30
0.0
 40
0
 41
0
  0
VERTEX
  8
0
 10
1.52186
 20
7.09435
 30
0.0
 40
0
 41
0
  0
VERTEX
  8
0
 10
1.49892
 20
7.12511
 30
0.0
 40
0
 41
0
  0
VERTEX
  8
0
 10
1.48394
 20
7.16547
 30
0.0
 40
0
 41
0
  0
VERTEX
  8
0
 10
1.48236
 20
7.17481
 30
0.0
 40
0
 41
0
  0
VERTEX
  8
0
 10
1.47949
 20
7.18544
 30
0.0
 40
0
 41
0
  0
VERTEX
  8
0
 10
1.47168
 20
7.24268
 30
0.0
 40
0
 41
0
  0
VERTEX
  8
0
 10
1.46967
 20
7.29893
 30
0.0
 40
0
 41
0
  0
VERTEX
  8
0
 10
1.46967
 20
7.31765
 30
0.0
 40
0
 41
0
  0
VERTEX
  8
0
 10
1.46983
 20
7.33322
 30
0.0
 40
0
 41
0
  0
VERTEX
  8
0
 10
1.4745
 20
7.40696
 30
0.0
 40
0
 41
0
  0
VERTEX
  8
0
 10
1.48839
 20
7.47342
 30
0.0
 40
0
 41
0
  0
VERTEX
  8
0
 10
1.49317
 20
7.48529
 30
0.0
 40
0
 41
0
  0
VERTEX
  8
0
 10
1.49631
 20
7.49311
 30
0.0
 40
0
 41
0
  0
VERTEX
  8
0
 10
1.51942
 20
7.52778
 30
0.0
 40
0
 41
0
  0
VERTEX
  8
0
 10
1.55106
 20
7.55453
 30
0.0
 40
0
 41
0
  0
VERTEX
  8
0
 10
1.55854
 20
7.55832
 30
0.0
 40
0
 41
0
  0
VERTEX
  8
0
 10
1.56201
 20
7.56039
 30
0.0
 40
0
 41
0
  0
VERTEX
  8
0
 10
1.59321
 20
7.57101
 30
0.0
 40
0
 41
0
  0
VERTEX
  8
0
 10
1.60362
 20
7.57101
 30
0.0
 40
0
 41
0
  0
SEQEND
 8
0
  0
POLYLINE
  8
0
 62
     0
 66
     1
 10
0
 20
0
 30
0.0
 70
     1
 40
0
 41
0
  0
VERTEX
  8
0
 10
1.60872
 20
7.50119
 30
0.0
 40
0
 41
0
  0
VERTEX
  8
0
 10
1.60157
 20
7.50103
 30
0.0
 40
0
 41
0
  0
VERTEX
  8
0
 10
1.57721
 20
7.49121
 30
0.0
 40
0
 41
0
  0
VERTEX
  8
0
 10
1.56136
 20
7.46674
 30
0.0
 40
0
 41
0
  0
VERTEX
  8
0
 10
1.55854
 20
7.45925
 30
0.0
 40
0
 41
0
  0
VERTEX
  8
0
 10
1.55533
 20
7.45133
 30
0.0
 40
0
 41
0
  0
VERTEX
  8
0
 10
1.54449
 20
7.39817
 30
0.0
 40
0
 41
0
  0
VERTEX
  8
0
 10
1.53965
 20
7.33165
 30
0.0
 40
0
 41
0
  0
VERTEX
  8
0
 10
1.5395
 20
7.31706
 30
0.0
 40
0
 41
0
  0
VERTEX
  8
0
 10
1.5395
 20
7.30094
 30
0.0
 40
0
 41
0
  0
VERTEX
  8
0
 10
1.54156
 20
7.25256
 30
0.0
 40
0
 41
0
  0
VERTEX
  8
0
 10
1.54676
 20
7.20676
 30
0.0
 40
0
 41
0
  0
VERTEX
  8
0
 10
1.54839
 20
7.19894
 30
0.0
 40
0
 41
0
  0
VERTEX
  8
0
 10
1.54872
 20
7.19835
 30
0.0
 40
0
 41
0
  0
VERTEX
  8
0
 10
1.55078
 20
7.19129
 30
0.0
 40
0
 41
0
  0
VERTEX
  8
0
 10
1.55094
 20
7.19065
 30
0.0
 40
0
 41
0
  0
VERTEX
  8
0
 10
1.55122
 20
7.18924
 30
0.0
 40
0
 41
0
  0
VERTEX
  8
0
 10
1.55556
 20
7.17594
 30
0.0
 40
0
 41
0
  0
VERTEX
  8
0
 10
1.55604
 20
7.17481
 30
0.0
 40
0
 41
0
  0
VERTEX
  8
0
 10
1.55789
 20
7.16997
 30
0.0
 40
0
 41
0
  0
VERTEX
  8
0
 10
1.56461
 20
7.15588
 30
0.0
 40
0
 41
0
  0
VERTEX
  8
0
 10
1.57471
 20
7.14318
 30
0.0
 40
0
 41
0
  0
VERTEX
  8
0
 10
1.58871
 20
7.13579
 30
0.0
 40
0
 41
0
  0
VERTEX
  8
0
 10
1.60368
 20
7.13308
 30
0.0
 40
0
 41
0
  0
VERTEX
  8
0
 10
1.60872
 20
7.13286
 30
0.0
 40
0
 41
0
  0
VERTEX
  8
0
 10
1.61367
 20
7.13308
 30
0.0
 40
0
 41
0
  0
VERTEX
  8
0
 10
1.62842
 20
7.13579
 30
0.0
 40
0
 41
0
  0
VERTEX
  8
0
 10
1.64242
 20
7.14318
 30
0.0
 40
0
 41
0
  0
VERTEX
  8
0
 10
1.65272
 20
7.15588
 30
0.0
 40
0
 41
0
  0
VERTEX
  8
0
 10
1.65956
 20
7.16997
 30
0.0
 40
0
 41
0
  0
VERTEX
  8
0
 10
1.6614
 20
7.17481
 30
0.0
 40
0
 41
0
  0
VERTEX
  8
0
 10
1.66189
 20
7.17594
 30
0.0
 40
0
 41
0
  0
VERTEX
  8
0
 10
1.66601
 20
7.18924
 30
0.0
 40
0
 41
0
  0
VERTEX
  8
0
 10
1.6665
 20
7.19065
 30
0.0
 40
0
 41
0
  0
VERTEX
  8
0
 10
1.6665
 20
7.19276
 30
0.0
 40
0
 41
0
  0
VERTEX
  8
0
 10
1.66824
 20
7.19835
 30
0.0
 40
0
 41
0
  0
VERTEX
  8
0
 10
1.6684
 20
7.19894
 30
0.0
 40
0
 41
0
  0
VERTEX
  8
0
 10
1.67014
 20
7.20676
 30
0.0
 40
0
 41
0
  0
VERTEX
  8
0
 10
1.67567
 20
7.25256
 30
0.0
 40
0
 41
0
  0
VERTEX
  8
0
 10
1.67746
 20
7.30567
 30
0.0
 40
0
 41
0
  0
VERTEX
  8
0
 10
1.67731
 20
7.31706
 30
0.0
 40
0
 41
0
  0
VERTEX
  8
0
 10
1.67731
 20
7.33735
 30
0.0
 40
0
 41
0
  0
VERTEX
  8
0
 10
1.67285
 20
7.39817
 30
0.0
 40
0
 41
0
  0
VERTEX
  8
0
 10
1.66206
 20
7.45133
 30
0.0
 40
0
 41
0
  0
VERTEX
  8
0
 10
1.6589
 20
7.45925
 30
0.0
 40
0
 41
0
  0
VERTEX
  8
0
 10
1.65588
 20
7.46674
 30
0.0
 40
0
 41
0
  0
VERTEX
  8
0
 10
1.63976
 20
7.49121
 30
0.0
 40
0
 41
0
  0
VERTEX
  8
0
 10
1.61567
 20
7.50103
 30
0.0
 40
0
 41
0
  0
VERTEX
  8
0
 10
1.60872
 20
7.50119
 30
0.0
 40
0
 41
0
  0
SEQEND
 8
0
  0
POLYLINE
  8
0
 62
     0
 66
     1
 10
0
 20
0
 30
0.0
 70
     1
 40
3.51108
 41
3.51108
  0
VERTEX
  8
0
 10
1.60362
 20
7.57101
 30
0.0
 40
0.048765
 41
0.048765
  0
VERTEX
  8
0
 10
1.60488
 20
7.57101
 30
0.0
 40
0.048765
 41
0.048765
  0
VERTEX
  8
0
 10
1.60775
 20
7.57101
 30
0.0
 40
0.048765
 41
0.048765
  0
VERTEX
  8
0
 10
1.60872
 20
7.57101
 30
0.0
 40
0.048765
 41
0.048765
  0
VERTEX
  8
0
 10
1.60872
 20
7.57101
 30
0.0
 40
0.048765
 41
0.048765
  0
VERTEX
  8
0
 10
1.61253
 20
7.57101
 30
0.0
 40
0.048765
 41
0.048765
  0
VERTEX
  8
0
 10
1.61382
 20
7.57101
 30
0.0
 40
0.048765
 41
0.048765
  0
VERTEX
  8
0
 10
1.6211
 20
7.57101
 30
0.0
 40
0.048765
 41
0.048765
  0
VERTEX
  8
0
 10
1.6429
 20
7.56629
 30
0.0
 40
0.048765
 41
0.048765
  0
VERTEX
  8
0
 10
1.66553
 20
7.55518
 30
0.0
 40
0.048765
 41
0.048765
  0
VERTEX
  8
0
 10
1.66971
 20
7.55197
 30
0.0
 40
0.048765
 41
0.048765
  0
VERTEX
  8
0
 10
1.67589
 20
7.54801
 30
0.0
 40
0.048765
 41
0.048765
  0
VERTEX
  8
0
 10
1.70188
 20
7.52274
 30
0.0
 40
0.048765
 41
0.048765
  0
VERTEX
  8
0
 10
1.72092
 20
7.49197
 30
0.0
 40
0.048765
 41
0.048765
  0
VERTEX
  8
0
 10
1.72364
 20
7.48529
 30
0.0
 40
0.048765
 41
0.048765
  0
VERTEX
  8
0
 10
1.72835
 20
7.47342
 30
0.0
 40
0.048765
 41
0.048765
  0
VERTEX
  8
0
 10
1.74251
 20
7.40696
 30
0.0
 40
0.048765
 41
0.048765
  0
VERTEX
  8
0
 10
1.74713
 20
7.34
 30
0.0
 40
0.048765
 41
0.048765
  0
VERTEX
  8
0
 10
1.74713
 20
7.31765
 30
0.0
 40
0.048765
 41
0.048765
  0
VERTEX
  8
0
 10
1.74729
 20
7.30469
 30
0.0
 40
0.048765
 41
0.048765
  0
VERTEX
  8
0
 10
1.74528
 20
7.24268
 30
0.0
 40
0.048765
 41
0.048765
  0
VERTEX
  8
0
 10
1.73725
 20
7.18544
 30
0.0
 40
0.048765
 41
0.048765
  0
VERTEX
  8
0
 10
1.73443
 20
7.17481
 30
0.0
 40
0.048765
 41
0.048765
  0
VERTEX
  8
0
 10
1.73296
 20
7.16547
 30
0.0
 40
0.048765
 41
0.048765
  0
VERTEX
  8
0
 10
1.71838
 20
7.12511
 30
0.0
 40
0.048765
 41
0.048765
  0
VERTEX
  8
0
 10
1.69553
 20
7.09435
 30
0.0
 40
0.048765
 41
0.048765
  0
VERTEX
  8
0
 10
1.69
 20
7.08974
 30
0.0
 40
0.048765
 41
0.048765
  0
VERTEX
  8
0
 10
1.68408
 20
7.08485
 30
0.0
 40
0.048765
 41
0.048765
  0
VERTEX
  8
0
 10
1.65235
 20
7.06901
 30
0.0
 40
0.048765
 41
0.048765
  0
VERTEX
  8
0
 10
1.62343
 20
7.06304
 30
0.0
 40
0.048765
 41
0.048765
  0
VERTEX
  8
0
 10
1.61382
 20
7.06304
 30
0.0
 40
0.048765
 41
0.048765
  0
VERTEX
  8
0
 10
1.61253
 20
7.06304
 30
0.0
 40
0.048765
 41
0.048765
  0
VERTEX
  8
0
 10
1.60965
 20
7.06304
 30
0.0
 40
0.048765
 41
0.048765
  0
VERTEX
  8
0
 10
1.60872
 20
7.06304
 30
0.0
 40
0.048765
 41
0.048765
  0
VERTEX
  8
0
 10
1.60742
 20
7.06304
 30
0.0
 40
0.048765
 41
0.048765
  0
VERTEX
  8
0
 10
1.60454
 20
7.06304
 30
0.0
 40
0.048765
 41
0.048765
  0
VERTEX
  8
0
 10
1.60362
 20
7.06304
 30
0.0
 40
0.048765
 41
0.048765
  0
VERTEX
  8
0
 10
1.59397
 20
7.06304
 30
0.0
 40
0.048765
 41
0.048765
  0
VERTEX
  8
0
 10
1.56506
 20
7.06901
 30
0.0
 40
0.048765
 41
0.048765
  0
VERTEX
  8
0
 10
1.53331
 20
7.08485
 30
0.0
 40
0.048765
 41
0.048765
  0
VERTEX
  8
0
 10
1.52746
 20
7.08974
 30
0.0
 40
0.048765
 41
0.048765
  0
VERTEX
  8
0
 10
1.52186
 20
7.09435
 30
0.0
 40
0.048765
 41
0.048765
  0
VERTEX
  8
0
 10
1.49892
 20
7.12511
 30
0.0
 40
0.048765
 41
0.048765
  0
VERTEX
  8
0
 10
1.48394
 20
7.16547
 30
0.0
 40
0.048765
 41
0.048765
  0
VERTEX
  8
0
 10
1.48236
 20
7.17481
 30
0.0
 40
0.048765
 41
0.048765
  0
VERTEX
  8
0
 10
1.47949
 20
7.18544
 30
0.0
 40
0.048765
 41
0.048765
  0
VERTEX
  8
0
 10
1.47168
 20
7.24268
 30
0.0
 40
0.048765
 41
0.048765
  0
VERTEX
  8
0
 10
1.46967
 20
7.29893
 30
0.0
 40
0.048765
 41
0.048765
  0
VERTEX
  8
0
 10
1.46967
 20
7.31765
 30
0.0
 40
0.048765
 41
0.048765
  0
VERTEX
  8
0
 10
1.46983
 20
7.33322
 30
0.0
 40
0.048765
 41
0.048765
  0
VERTEX
  8
0
 10
1.4745
 20
7.40696
 30
0.0
 40
0.048765
 41
0.048765
  0
VERTEX
  8
0
 10
1.48839
 20
7.47342
 30
0.0
 40
0.048765
 41
0.048765
  0
VERTEX
  8
0
 10
1.49317
 20
7.48529
 30
0.0
 40
0.048765
 41
0.048765
  0
VERTEX
  8
0
 10
1.49631
 20
7.49311
 30
0.0
 40
0.048765
 41
0.048765
  0
VERTEX
  8
0
 10
1.51942
 20
7.52778
 30
0.0
 40
0.048765
 41
0.048765
  0
VERTEX
  8
0
 10
1.55106
 20
7.55453
 30
0.0
 40
0.048765
 41
0.048765
  0
VERTEX
  8
0
 10
1.55854
 20
7.55832
 30
0.0
 40
0.048765
 41
0.048765
  0
VERTEX
  8
0
 10
1.56201
 20
7.56039
 30
0.0
 40
0.048765
 41
0.048765
  0
VERTEX
  8
0
 10
1.59321
 20
7.57101
 30
0.0
 40
0.048765
 41
0.048765
  0
VERTEX
  8
0
 10
1.60362
 20
7.57101
 30
0.0
 40
0.048765
 41
0.048765
  0
SEQEND
 8
0
  0
POLYLINE
  8
0
 62
     0
 66
     1
 10
0
 20
0
 30
0.0
 70
     1
 40
3.51108
 41
3.51108
  0
VERTEX
  8
0
 10
1.60872
 20
7.50119
 30
0.0
 40
0.048765
 41
0.048765
  0
VERTEX
  8
0
 10
1.60157
 20
7.50103
 30
0.0
 40
0.048765
 41
0.048765
  0
VERTEX
  8
0
 10
1.57721
 20
7.49121
 30
0.0
 40
0.048765
 41
0.048765
  0
VERTEX
  8
0
 10
1.56136
 20
7.46674
 30
0.0
 40
0.048765
 41
0.048765
  0
VERTEX
  8
0
 10
1.55854
 20
7.45925
 30
0.0
 40
0.048765
 41
0.048765
  0
VERTEX
  8
0
 10
1.55533
 20
7.45133
 30
0.0
 40
0.048765
 41
0.048765
  0
VERTEX
  8
0
 10
1.54449
 20
7.39817
 30
0.0
 40
0.048765
 41
0.048765
  0
VERTEX
  8
0
 10
1.53965
 20
7.33165
 30
0.0
 40
0.048765
 41
0.048765
  0
VERTEX
  8
0
 10
1.5395
 20
7.31706
 30
0.0
 40
0.048765
 41
0.048765
  0
VERTEX
  8
0
 10
1.5395
 20
7.30094
 30
0.0
 40
0.048765
 41
0.048765
  0
VERTEX
  8
0
 10
1.54156
 20
7.25256
 30
0.0
 40
0.048765
 41
0.048765
  0
VERTEX
  8
0
 10
1.54676
 20
7.20676
 30
0.0
 40
0.048765
 41
0.048765
  0
VERTEX
  8
0
 10
1.54839
 20
7.19894
 30
0.0
 40
0.048765
 41
0.048765
  0
VERTEX
  8
0
 10
1.54872
 20
7.19835
 30
0.0
 40
0.048765
 41
0.048765
  0
VERTEX
  8
0
 10
1.55078
 20
7.19129
 30
0.0
 40
0.048765
 41
0.048765
  0
VERTEX
  8
0
 10
1.55094
 20
7.19065
 30
0.0
 40
0.048765
 41
0.048765
  0
VERTEX
  8
0
 10
1.55122
 20
7.18924
 30
0.0
 40
0.048765
 41
0.048765
  0
VERTEX
  8
0
 10
1.55556
 20
7.17594
 30
0.0
 40
0.048765
 41
0.048765
  0
VERTEX
  8
0
 10
1.55604
 20
7.17481
 30
0.0
 40
0.048765
 41
0.048765
  0
VERTEX
  8
0
 10
1.55789
 20
7.16997
 30
0.0
 40
0.048765
 41
0.048765
  0
VERTEX
  8
0
 10
1.56461
 20
7.15588
 30
0.0
 40
0.048765
 41
0.048765
  0
VERTEX
  8
0
 10
1.57471
 20
7.14318
 30
0.0
 40
0.048765
 41
0.048765
  0
VERTEX
  8
0
 10
1.58871
 20
7.13579
 30
0.0
 40
0.048765
 41
0.048765
  0
VERTEX
  8
0
 10
1.60368
 20
7.13308
 30
0.0
 40
0.048765
 41
0.048765
  0
VERTEX
  8
0
 10
1.60872
 20
7.13286
 30
0.0
 40
0.048765
 41
0.048765
  0
VERTEX
  8
0
 10
1.61367
 20
7.13308
 30
0.0
 40
0.048765
 41
0.048765
  0
VERTEX
  8
0
 10
1.62842
 20
7.13579
 30
0.0
 40
0.048765
 41
0.048765
  0
VERTEX
  8
0
 10
1.64242
 20
7.14318
 30
0.0
 40
0.048765
 41
0.048765
  0
VERTEX
  8
0
 10
1.65272
 20
7.15588
 30
0.0
 40
0.048765
 41
0.048765
  0
VERTEX
  8
0
 10
1.65956
 20
7.16997
 30
0.0
 40
0.048765
 41
0.048765
  0
VERTEX
  8
0
 10
1.6614
 20
7.17481
 30
0.0
 40
0.048765
 41
0.048765
  0
VERTEX
  8
0
 10
1.66189
 20
7.17594
 30
0.0
 40
0.048765
 41
0.048765
  0
VERTEX
  8
0
 10
1.66601
 20
7.18924
 30
0.0
 40
0.048765
 41
0.048765
  0
VERTEX
  8
0
 10
1.6665
 20
7.19065
 30
0.0
 40
0.048765
 41
0.048765
  0
VERTEX
  8
0
 10
1.6665
 20
7.19276
 30
0.0
 40
0.048765
 41
0.048765
  0
VERTEX
  8
0
 10
1.66824
 20
7.19835
 30
0.0
 40
0.048765
 41
0.048765
  0
VERTEX
  8
0
 10
1.6684
 20
7.19894
 30
0.0
 40
0.048765
 41
0.048765
  0
VERTEX
  8
0
 10
1.67014
 20
7.20676
 30
0.0
 40
0.048765
 41
0.048765
  0
VERTEX
  8
0
 10
1.67567
 20
7.25256
 30
0.0
 40
0.048765
 41
0.048765
  0
VERTEX
  8
0
 10
1.67746
 20
7.30567
 30
0.0
 40
0.048765
 41
0.048765
  0
VERTEX
  8
0
 10
1.67731
 20
7.31706
 30
0.0
 40
0.048765
 41
0.048765
  0
VERTEX
  8
0
 10
1.67731
 20
7.33735
 30
0.0
 40
0.048765
 41
0.048765
  0
VERTEX
  8
0
 10
1.67285
 20
7.39817
 30
0.0
 40
0.048765
 41
0.048765
  0
VERTEX
  8
0
 10
1.66206
 20
7.45133
 30
0.0
 40
0.048765
 41
0.048765
  0
VERTEX
  8
0
 10
1.6589
 20
7.45925
 30
0.0
 40
0.048765
 41
0.048765
  0
VERTEX
  8
0
 10
1.65588
 20
7.46674
 30
0.0
 40
0.048765
 41
0.048765
  0
VERTEX
  8
0
 10
1.63976
 20
7.49121
 30
0.0
 40
0.048765
 41
0.048765
  0
VERTEX
  8
0
 10
1.61567
 20
7.50103
 30
0.0
 40
0.048765
 41
0.048765
  0
VERTEX
  8
0
 10
1.60872
 20
7.50119
 30
0.0
 40
0.048765
 41
0.048765
  0
SEQEND
 8
0
  0
POLYLINE
  8
0
 62
     0
 66
     1
 10
0
 20
0
 30
0.0
 70
     1
 40
0
 41
0
  0
VERTEX
  8
0
 10
1.94206
 20
7.56782
 30
0.0
 40
0
 41
0
  0
VERTEX
  8
0
 10
2.10906
 20
7.57101
 30
0.0
 40
0
 41
0
  0
VERTEX
  8
0
 10
2.11382
 20
7.57135
 30
0.0
 40
0
 41
0
  0
VERTEX
  8
0
 10
2.12853
 20
7.56976
 30
0.0
 40
0
 41
0
  0
VERTEX
  8
0
 10
2.14475
 20
7.56278
 30
0.0
 40
0
 41
0
  0
VERTEX
  8
0
 10
2.15603
 20
7.54958
 30
0.0
 40
0
 41
0
  0
VERTEX
  8
0
 10
2.16037
 20
7.53472
 30
0.0
 40
0
 41
0
  0
VERTEX
  8
0
 10
2.16049
 20
7.52974
 30
0.0
 40
0
 41
0
  0
VERTEX
  8
0
 10
2.16049
 20
7.52501
 30
0.0
 40
0
 41
0
  0
VERTEX
  8
0
 10
2.15647
 20
7.51069
 30
0.0
 40
0
 41
0
  0
VERTEX
  8
0
 10
2.14561
 20
7.49849
 30
0.0
 40
0
 41
0
  0
VERTEX
  8
0
 10
2.12967
 20
7.49224
 30
0.0
 40
0
 41
0
  0
VERTEX
  8
0
 10
2.11513
 20
7.49078
 30
0.0
 40
0
 41
0
  0
VERTEX
  8
0
 10
2.11035
 20
7.491
 30
0.0
 40
0
 41
0
  0
VERTEX
  8
0
 10
1.95861
 20
7.48844
 30
0.0
 40
0
 41
0
  0
VERTEX
  8
0
 10
1.95529
 20
7.48839
 30
0.0
 40
0
 41
0
  0
VERTEX
  8
0
 10
1.94558
 20
7.48438
 30
0.0
 40
0
 41
0
  0
VERTEX
  8
0
 10
1.93994
 20
7.47586
 30
0.0
 40
0
 41
0
  0
VERTEX
  8
0
 10
1.93864
 20
7.4675
 30
0.0
 40
0
 41
0
  0
VERTEX
  8
0
 10
1.93892
 20
7.46371
 30
0.0
 40
0
 41
0
  0
VERTEX
  8
0
 10
1.93892
 20
7.46371
 30
0.0
 40
0
 41
0
  0
VERTEX
  8
0
 10
1.93636
 20
7.34115
 30
0.0
 40
0
 41
0
  0
VERTEX
  8
0
 10
2.05192
 20
7.33925
 30
0.0
 40
0
 41
0
  0
VERTEX
  8
0
 10
2.05761
 20
7.33957
 30
0.0
 40
0
 41
0
  0
VERTEX
  8
0
 10
2.08171
 20
7.33203
 30
0.0
 40
0
 41
0
  0
VERTEX
  8
0
 10
2.09446
 20
7.31125
 30
0.0
 40
0
 41
0
  0
VERTEX
  8
0
 10
2.09446
 20
7.30431
 30
0.0
 40
0
 41
0
  0
VERTEX
  8
0
 10
2.09446
 20
7.30024
 30
0.0
 40
0
 41
0
  0
VERTEX
  8
0
 10
2.0911
 20
7.28797
 30
0.0
 40
0
 41
0
  0
VERTEX
  8
0
 10
2.08197
 20
7.27794
 30
0.0
 40
0
 41
0
  0
VERTEX
  8
0
 10
2.06847
 20
7.27306
 30
0.0
 40
0
 41
0
  0
VERTEX
  8
0
 10
2.05604
 20
7.27186
 30
0.0
 40
0
 41
0
  0
VERTEX
  8
0
 10
2.05192
 20
7.27197
 30
0.0
 40
0
 41
0
  0
VERTEX
  8
0
 10
1.93446
 20
7.27447
 30
0.0
 40
0
 41
0
  0
VERTEX
  8
0
 10
1.93192
 20
7.11513
 30
0.0
 40
0
 41
0
  0
VERTEX
  8
0
 10
1.93181
 20
7.11003
 30
0.0
 40
0
 41
0
  0
VERTEX
  8
0
 10
1.9305
 20
7.09457
 30
0.0
 40
0
 41
0
  0
VERTEX
  8
0
 10
1.92617
 20
7.0779
 30
0.0
 40
0
 41
0
  0
VERTEX
  8
0
 10
1.91704
 20
7.06685
 30
0.0
 40
0
 41
0
  0
VERTEX
  8
0
 10
1.90528
 20
7.06299
 30
0.0
 40
0
 41
0
  0
VERTEX
  8
0
 10
1.90142
 20
7.06304
 30
0.0
 40
0
 41
0
  0
VERTEX
  8
0
 10
1.89735
 20
7.06315
 30
0.0
 40
0
 41
0
  0
VERTEX
  8
0
 10
1.88536
 20
7.06776
 30
0.0
 40
0
 41
0
  0
VERTEX
  8
0
 10
1.87554
 20
7.07964
 30
0.0
 40
0
 41
0
  0
VERTEX
  8
0
 10
1.87067
 20
7.0969
 30
0.0
 40
0
 41
0
  0
VERTEX
  8
0
 10
1.86957
 20
7.11253
 30
0.0
 40
0
 41
0
  0
VERTEX
  8
0
 10
1.86968
 20
7.11768
 30
0.0
 40
0
 41
0
  0
VERTEX
  8
0
 10
1.87793
 20
7.50369
 30
0.0
 40
0
 41
0
  0
VERTEX
  8
0
 10
1.88238
 20
7.51389
 30
0.0
 40
0
 41
0
  0
VERTEX
  8
0
 10
1.88519
 20
7.52056
 30
0.0
 40
0
 41
0
  0
VERTEX
  8
0
 10
1.90642
 20
7.54725
 30
0.0
 40
0
 41
0
  0
VERTEX
  8
0
 10
1.9311
 20
7.56375
 30
0.0
 40
0
 41
0
  0
VERTEX
  8
0
 10
1.93571
 20
7.56532
 30
0.0
 40
0
 41
0
  0
VERTEX
  8
0
 10
1.94206
 20
7.56782
 30
0.0
 40
0
 41
0
  0
SEQEND
 8
0
  0
POLYLINE
  8
0
 62
     0
 66
     1
 10
0
 20
0
 30
0.0
 70
     1
 40
3.51108
 41
3.51108
  0
VERTEX
  8
0
 10
1.94206
 20
7.56782
 30
0.0
 40
0.048765
 41
0.048765
  0
VERTEX
  8
0
 10
2.10906
 20
7.57101
 30
0.0
 40
0.048765
 41
0.048765
  0
VERTEX
  8
0
 10
2.11382
 20
7.57135
 30
0.0
 40
0.048765
 41
0.048765
  0
VERTEX
  8
0
 10
2.12853
 20
7.56976
 30
0.0
 40
0.048765
 41
0.048765
  0
VERTEX
  8
0
 10
2.14475
 20
7.56278
 30
0.0
 40
0.048765
 41
0.048765
  0
VERTEX
  8
0
 10
2.15603
 20
7.54958
 30
0.0
 40
0.048765
 41
0.048765
  0
VERTEX
  8
0
 10
2.16037
 20
7.53472
 30
0.0
 40
0.048765
 41
0.048765
  0
VERTEX
  8
0
 10
2.16049
 20
7.52974
 30
0.0
 40
0.048765
 41
0.048765
  0
VERTEX
  8
0
 10
2.16049
 20
7.52501
 30
0.0
 40
0.048765
 41
0.048765
  0
VERTEX
  8
0
 10
2.15647
 20
7.51069
 30
0.0
 40
0.048765
 41
0.048765
  0
VERTEX
  8
0
 10
2.14561
 20
7.49849
 30
0.0
 40
0.048765
 41
0.048765
  0
VERTEX
  8
0
 10
2.12967
 20
7.49224
 30
0.0
 40
0.048765
 41
0.048765
  0
VERTEX
  8
0
 10
2.11513
 20
7.49078
 30
0.0
 40
0.048765
 41
0.048765
  0
VERTEX
  8
0
 10
2.11035
 20
7.491
 30
0.0
 40
0.048765
 41
0.048765
  0
VERTEX
  8
0
 10
1.95861
 20
7.48844
 30
0.0
 40
0.048765
 41
0.048765
  0
VERTEX
  8
0
 10
1.95529
 20
7.48839
 30
0.0
 40
0.048765
 41
0.048765
  0
VERTEX
  8
0
 10
1.94558
 20
7.48438
 30
0.0
 40
0.048765
 41
0.048765
  0
VERTEX
  8
0
 10
1.93994
 20
7.47586
 30
0.0
 40
0.048765
 41
0.048765
  0
VERTEX
  8
0
 10
1.93864
 20
7.4675
 30
0.0
 40
0.048765
 41
0.048765
  0
VERTEX
  8
0
 10
1.93892
 20
7.46371
 30
0.0
 40
0.048765
 41
0.048765
  0
VERTEX
  8
0
 10
1.93892
 20
7.46371
 30
0.0
 40
0.048765
 41
0.048765
  0
VERTEX
  8
0
 10
1.93636
 20
7.34115
 30
0.0
 40
0.048765
 41
0.048765
  0
VERTEX
  8
0
 10
2.05192
 20
7.33925
 30
0.0
 40
0.048765
 41
0.048765
  0
VERTEX
  8
0
 10
2.05761
 20
7.33957
 30
0.0
 40
0.048765
 41
0.048765
  0
VERTEX
  8
0
 10
2.08171
 20
7.33203
 30
0.0
 40
0.048765
 41
0.048765
  0
VERTEX
  8
0
 10
2.09446
 20
7.31125
 30
0.0
 40
0.048765
 41
0.048765
  0
VERTEX
  8
0
 10
2.09446
 20
7.30431
 30
0.0
 40
0.048765
 41
0.048765
  0
VERTEX
  8
0
 10
2.09446
 20
7.30024
 30
0.0
 40
0.048765
 41
0.048765
  0
VERTEX
  8
0
 10
2.0911
 20
7.28797
 30
0.0
 40
0.048765
 41
0.048765
  0
VERTEX
  8
0
 10
2.08197
 20
7.27794
 30
0.0
 40
0.048765
 41
0.048765
  0
VERTEX
  8
0
 10
2.06847
 20
7.27306
 30
0.0
 40
0.048765
 41
0.048765
  0
VERTEX
  8
0
 10
2.05604
 20
7.27186
 30
0.0
 40
0.048765
 41
0.048765
  0
VERTEX
  8
0
 10
2.05192
 20
7.27197
 30
0.0
 40
0.048765
 41
0.048765
  0
VERTEX
  8
0
 10
1.93446
 20
7.27447
 30
0.0
 40
0.048765
 41
0.048765
  0
VERTEX
  8
0
 10
1.93192
 20
7.11513
 30
0.0
 40
0.048765
 41
0.048765
  0
VERTEX
  8
0
 10
1.93181
 20
7.11003
 30
0.0
 40
0.048765
 41
0.048765
  0
VERTEX
  8
0
 10
1.9305
 20
7.09457
 30
0.0
 40
0.048765
 41
0.048765
  0
VERTEX
  8
0
 10
1.92617
 20
7.0779
 30
0.0
 40
0.048765
 41
0.048765
  0
VERTEX
  8
0
 10
1.91704
 20
7.06685
 30
0.0
 40
0.048765
 41
0.048765
  0
VERTEX
  8
0
 10
1.90528
 20
7.06299
 30
0.0
 40
0.048765
 41
0.048765
  0
VERTEX
  8
0
 10
1.90142
 20
7.06304
 30
0.0
 40
0.048765
 41
0.048765
  0
VERTEX
  8
0
 10
1.89735
 20
7.06315
 30
0.0
 40
0.048765
 41
0.048765
  0
VERTEX
  8
0
 10
1.88536
 20
7.06776
 30
0.0
 40
0.048765
 41
0.048765
  0
VERTEX
  8
0
 10
1.87554
 20
7.07964
 30
0.0
 40
0.048765
 41
0.048765
  0
VERTEX
  8
0
 10
1.87067
 20
7.0969
 30
0.0
 40
0.048765
 41
0.048765
  0
VERTEX
  8
0
 10
1.86957
 20
7.11253
 30
0.0
 40
0.048765
 41
0.048765
  0
VERTEX
  8
0
 10
1.86968
 20
7.11768
 30
0.0
 40
0.048765
 41
0.048765
  0
VERTEX
  8
0
 10
1.87793
 20
7.50369
 30
0.0
 40
0.048765
 41
0.048765
  0
VERTEX
  8
0
 10
1.88238
 20
7.51389
 30
0.0
 40
0.048765
 41
0.048765
  0
VERTEX
  8
0
 10
1.88519
 20
7.52056
 30
0.0
 40
0.048765
 41
0.048765
  0
VERTEX
  8
0
 10
1.90642
 20
7.54725
 30
0.0
 40
0.048765
 41
0.048765
  0
VERTEX
  8
0
 10
1.9311
 20
7.56375
 30
0.0
 40
0.048765
 41
0.048765
  0
VERTEX
  8
0
 10
1.93571
 20
7.56532
 30
0.0
 40
0.048765
 41
0.048765
  0
VERTEX
  8
0
 10
1.94206
 20
7.56782
 30
0.0
 40
0.048765
 41
0.048765
  0
SEQEND
 8
0
  0
POLYLINE
  8
0
 62
     0
 66
     1
 10
0
 20
0
 30
0.0
 70
     1
 40
0
 41
0
  0
VERTEX
  8
0
 10
2.34847
 20
7.56782
 30
0.0
 40
0
 41
0
  0
VERTEX
  8
0
 10
2.51546
 20
7.57101
 30
0.0
 40
0
 41
0
  0
VERTEX
  8
0
 10
2.52024
 20
7.57135
 30
0.0
 40
0
 41
0
  0
VERTEX
  8
0
 10
2.53489
 20
7.56976
 30
0.0
 40
0
 41
0
  0
VERTEX
  8
0
 10
2.55117
 20
7.56278
 30
0.0
 40
0
 41
0
  0
VERTEX
  8
0
 10
2.56239
 20
7.54958
 30
0.0
 40
0
 41
0
  0
VERTEX
  8
0
 10
2.56679
 20
7.53472
 30
0.0
 40
0
 41
0
  0
VERTEX
  8
0
 10
2.56689
 20
7.52974
 30
0.0
 40
0
 41
0
  0
VERTEX
  8
0
 10
2.56689
 20
7.52501
 30
0.0
 40
0
 41
0
  0
VERTEX
  8
0
 10
2.56287
 20
7.51069
 30
0.0
 40
0
 41
0
  0
VERTEX
  8
0
 10
2.55203
 20
7.49849
 30
0.0
 40
0
 41
0
  0
VERTEX
  8
0
 10
2.53603
 20
7.49224
 30
0.0
 40
0
 41
0
  0
VERTEX
  8
0
 10
2.52149
 20
7.49078
 30
0.0
 40
0
 41
0
  0
VERTEX
  8
0
 10
2.51671
 20
7.491
 30
0.0
 40
0
 41
0
  0
VERTEX
  8
0
 10
2.36496
 20
7.48844
 30
0.0
 40
0
 41
0
  0
VERTEX
  8
0
 10
2.36165
 20
7.48839
 30
0.0
 40
0
 41
0
  0
VERTEX
  8
0
 10
2.35194
 20
7.48438
 30
0.0
 40
0
 41
0
  0
VERTEX
  8
0
 10
2.34631
 20
7.47586
 30
0.0
 40
0
 41
0
  0
VERTEX
  8
0
 10
2.345
 20
7.4675
 30
0.0
 40
0
 41
0
  0
VERTEX
  8
0
 10
2.34526
 20
7.46371
 30
0.0
 40
0
 41
0
  0
VERTEX
  8
0
 10
2.34526
 20
7.46371
 30
0.0
 40
0
 41
0
  0
VERTEX
  8
0
 10
2.34272
 20
7.34115
 30
0.0
 40
0
 41
0
  0
VERTEX
  8
0
 10
2.45828
 20
7.33925
 30
0.0
 40
0
 41
0
  0
VERTEX
  8
0
 10
2.46397
 20
7.33957
 30
0.0
 40
0
 41
0
  0
VERTEX
  8
0
 10
2.48813
 20
7.33203
 30
0.0
 40
0
 41
0
  0
VERTEX
  8
0
 10
2.50088
 20
7.31125
 30
0.0
 40
0
 41
0
  0
VERTEX
  8
0
 10
2.50088
 20
7.30431
 30
0.0
 40
0
 41
0
  0
VERTEX
  8
0
 10
2.50088
 20
7.30024
 30
0.0
 40
0
 41
0
  0
VERTEX
  8
0
 10
2.4975
 20
7.28797
 30
0.0
 40
0
 41
0
  0
VERTEX
  8
0
 10
2.48833
 20
7.27794
 30
0.0
 40
0
 41
0
  0
VERTEX
  8
0
 10
2.47483
 20
7.27306
 30
0.0
 40
0
 41
0
  0
VERTEX
  8
0
 10
2.4624
 20
7.27186
 30
0.0
 40
0
 41
0
  0
VERTEX
  8
0
 10
2.45828
 20
7.27197
 30
0.0
 40
0
 41
0
  0
VERTEX
  8
0
 10
2.34082
 20
7.27447
 30
0.0
 40
0
 41
0
  0
VERTEX
  8
0
 10
2.33826
 20
7.11513
 30
0.0
 40
0
 41
0
  0
VERTEX
  8
0
 10
2.33817
 20
7.11003
 30
0.0
 40
0
 41
0
  0
VERTEX
  8
0
 10
2.33692
 20
7.09457
 30
0.0
 40
0
 41
0
  0
VERTEX
  8
0
 10
2.33257
 20
7.0779
 30
0.0
 40
0
 41
0
  0
VERTEX
  8
0
 10
2.32346
 20
7.06685
 30
0.0
 40
0
 41
0
  0
VERTEX
  8
0
 10
2.31168
 20
7.06299
 30
0.0
 40
0
 41
0
  0
VERTEX
  8
0
 10
2.30783
 20
7.06304
 30
0.0
 40
0
 41
0
  0
VERTEX
  8
0
 10
2.30376
 20
7.06315
 30
0.0
 40
0
 41
0
  0
VERTEX
  8
0
 10
2.29178
 20
7.06776
 30
0.0
 40
0
 41
0
  0
VERTEX
  8
0
 10
2.28196
 20
7.07964
 30
0.0
 40
0
 41
0
  0
VERTEX
  8
0
 10
2.27707
 20
7.0969
 30
0.0
 40
0
 41
0
  0
VERTEX
  8
0
 10
2.27599
 20
7.11253
 30
0.0
 40
0
 41
0
  0
VERTEX
  8
0
 10
2.2761
 20
7.11768
 30
0.0
 40
0
 41
0
  0
VERTEX
  8
0
 10
2.28435
 20
7.50369
 30
0.0
 40
0
 41
0
  0
VERTEX
  8
0
 10
2.28879
 20
7.51389
 30
0.0
 40
0
 41
0
  0
VERTEX
  8
0
 10
2.29161
 20
7.52056
 30
0.0
 40
0
 41
0
  0
VERTEX
  8
0
 10
2.31278
 20
7.54725
 30
0.0
 40
0
 41
0
  0
VERTEX
  8
0
 10
2.33751
 20
7.56375
 30
0.0
 40
0
 41
0
  0
VERTEX
  8
0
 10
2.34212
 20
7.56532
 30
0.0
 40
0
 41
0
  0
VERTEX
  8
0
 10
2.34847
 20
7.56782
 30
0.0
 40
0
 41
0
  0
SEQEND
 8
0
  0
POLYLINE
  8
0
 62
     0
 66
     1
 10
0
 20
0
 30
0.0
 70
     1
 40
3.51108
 41
3.51108
  0
VERTEX
  8
0
 10
2.34847
 20
7.56782
 30
0.0
 40
0.048765
 41
0.048765
  0
VERTEX
  8
0
 10
2.51546
 20
7.57101
 30
0.0
 40
0.048765
 41
0.048765
  0
VERTEX
  8
0
 10
2.52024
 20
7.57135
 30
0.0
 40
0.048765
 41
0.048765
  0
VERTEX
  8
0
 10
2.53489
 20
7.56976
 30
0.0
 40
0.048765
 41
0.048765
  0
VERTEX
  8
0
 10
2.55117
 20
7.56278
 30
0.0
 40
0.048765
 41
0.048765
  0
VERTEX
  8
0
 10
2.56239
 20
7.54958
 30
0.0
 40
0.048765
 41
0.048765
  0
VERTEX
  8
0
 10
2.56679
 20
7.53472
 30
0.0
 40
0.048765
 41
0.048765
  0
VERTEX
  8
0
 10
2.56689
 20
7.52974
 30
0.0
 40
0.048765
 41
0.048765
  0
VERTEX
  8
0
 10
2.56689
 20
7.52501
 30
0.0
 40
0.048765
 41
0.048765
  0
VERTEX
  8
0
 10
2.56287
 20
7.51069
 30
0.0
 40
0.048765
 41
0.048765
  0
VERTEX
  8
0
 10
2.55203
 20
7.49849
 30
0.0
 40
0.048765
 41
0.048765
  0
VERTEX
  8
0
 10
2.53603
 20
7.49224
 30
0.0
 40
0.048765
 41
0.048765
  0
VERTEX
  8
0
 10
2.52149
 20
7.49078
 30
0.0
 40
0.048765
 41
0.048765
  0
VERTEX
  8
0
 10
2.51671
 20
7.491
 30
0.0
 40
0.048765
 41
0.048765
  0
VERTEX
  8
0
 10
2.36496
 20
7.48844
 30
0.0
 40
0.048765
 41
0.048765
  0
VERTEX
  8
0
 10
2.36165
 20
7.48839
 30
0.0
 40
0.048765
 41
0.048765
  0
VERTEX
  8
0
 10
2.35194
 20
7.48438
 30
0.0
 40
0.048765
 41
0.048765
  0
VERTEX
  8
0
 10
2.34631
 20
7.47586
 30
0.0
 40
0.048765
 41
0.048765
  0
VERTEX
  8
0
 10
2.345
 20
7.4675
 30
0.0
 40
0.048765
 41
0.048765
  0
VERTEX
  8
0
 10
2.34526
 20
7.46371
 30
0.0
 40
0.048765
 41
0.048765
  0
VERTEX
  8
0
 10
2.34526
 20
7.46371
 30
0.0
 40
0.048765
 41
0.048765
  0
VERTEX
  8
0
 10
2.34272
 20
7.34115
 30
0.0
 40
0.048765
 41
0.048765
  0
VERTEX
  8
0
 10
2.45828
 20
7.33925
 30
0.0
 40
0.048765
 41
0.048765
  0
VERTEX
  8
0
 10
2.46397
 20
7.33957
 30
0.0
 40
0.048765
 41
0.048765
  0
VERTEX
  8
0
 10
2.48813
 20
7.33203
 30
0.0
 40
0.048765
 41
0.048765
  0
VERTEX
  8
0
 10
2.50088
 20
7.31125
 30
0.0
 40
0.048765
 41
0.048765
  0
VERTEX
  8
0
 10
2.50088
 20
7.30431
 30
0.0
 40
0.048765
 41
0.048765
  0
VERTEX
  8
0
 10
2.50088
 20
7.30024
 30
0.0
 40
0.048765
 41
0.048765
  0
VERTEX
  8
0
 10
2.4975
 20
7.28797
 30
0.0
 40
0.048765
 41
0.048765
  0
VERTEX
  8
0
 10
2.48833
 20
7.27794
 30
0.0
 40
0.048765
 41
0.048765
  0
VERTEX
  8
0
 10
2.47483
 20
7.27306
 30
0.0
 40
0.048765
 41
0.048765
  0
VERTEX
  8
0
 10
2.4624
 20
7.27186
 30
0.0
 40
0.048765
 41
0.048765
  0
VERTEX
  8
0
 10
2.45828
 20
7.27197
 30
0.0
 40
0.048765
 41
0.048765
  0
VERTEX
  8
0
 10
2.34082
 20
7.27447
 30
0.0
 40
0.048765
 41
0.048765
  0
VERTEX
  8
0
 10
2.33826
 20
7.11513
 30
0.0
 40
0.048765
 41
0.048765
  0
VERTEX
  8
0
 10
2.33817
 20
7.11003
 30
0.0
 40
0.048765
 41
0.048765
  0
VERTEX
  8
0
 10
2.33692
 20
7.09457
 30
0.0
 40
0.048765
 41
0.048765
  0
VERTEX
  8
0
 10
2.33257
 20
7.0779
 30
0.0
 40
0.048765
 41
0.048765
  0
VERTEX
  8
0
 10
2.32346
 20
7.06685
 30
0.0
 40
0.048765
 41
0.048765
  0
VERTEX
  8
0
 10
2.31168
 20
7.06299
 30
0.0
 40
0.048765
 41
0.048765
  0
VERTEX
  8
0
 10
2.30783
 20
7.06304
 30
0.0
 40
0.048765
 41
0.048765
  0
VERTEX
  8
0
 10
2.30376
 20
7.06315
 30
0.0
 40
0.048765
 41
0.048765
  0
VERTEX
  8
0
 10
2.29178
 20
7.06776
 30
0.0
 40
0.048765
 41
0.048765
  0
VERTEX
  8
0
 10
2.28196
 20
7.07964
 30
0.0
 40
0.048765
 41
0.048765
  0
VERTEX
  8
0
 10
2.27707
 20
7.0969
 30
0.0
 40
0.048765
 41
0.048765
  0
VERTEX
  8
0
 10
2.27599
 20
7.11253
 30
0.0
 40
0.048765
 41
0.048765
  0
VERTEX
  8
0
 10
2.2761
 20
7.11768
 30
0.0
 40
0.048765
 41
0.048765
  0
VERTEX
  8
0
 10
2.28435
 20
7.50369
 30
0.0
 40
0.048765
 41
0.048765
  0
VERTEX
  8
0
 10
2.28879
 20
7.51389
 30
0.0
 40
0.048765
 41
0.048765
  0
VERTEX
  8
0
 10
2.29161
 20
7.52056
 30
0.0
 40
0.048765
 41
0.048765
  0
VERTEX
  8
0
 10
2.31278
 20
7.54725
 30
0.0
 40
0.048765
 41
0.048765
  0
VERTEX
  8
0
 10
2.33751
 20
7.56375
 30
0.0
 40
0.048765
 41
0.048765
  0
VERTEX
  8
0
 10
2.34212
 20
7.56532
 30
0.0
 40
0.048765
 41
0.048765
  0
VERTEX
  8
0
 10
2.34847
 20
7.56782
 30
0.0
 40
0.048765
 41
0.048765
  0
SEQEND
 8
0
  0
ENDSEC
  0
EOF
