<?xml version="1.0" encoding="UTF-8" standalone="no"?>
<!-- Created with Inkscape (http://www.inkscape.org/) -->

<svg
   xmlns:dc="http://purl.org/dc/elements/1.1/"
   xmlns:cc="http://creativecommons.org/ns#"
   xmlns:rdf="http://www.w3.org/1999/02/22-rdf-syntax-ns#"
   xmlns:svg="http://www.w3.org/2000/svg"
   xmlns="http://www.w3.org/2000/svg"
   xmlns:sodipodi="http://sodipodi.sourceforge.net/DTD/sodipodi-0.dtd"
   xmlns:inkscape="http://www.inkscape.org/namespaces/inkscape"
   width="46.744347mm"
   height="12.08537mm"
   viewBox="0 0 46.744347 12.08537"
   version="1.1"
   id="svg908"
   inkscape:version="0.92.3 (2405546, 2018-03-11)"
   sodipodi:docname="back_plane_1A1.svg">
  <defs
     id="defs902" />
  <sodipodi:namedview
     id="base"
     pagecolor="#ffffff"
     bordercolor="#666666"
     borderopacity="1.0"
     inkscape:pageopacity="0.0"
     inkscape:pageshadow="2"
     inkscape:zoom="5.6"
     inkscape:cx="234.17371"
     inkscape:cy="-56.096421"
     inkscape:document-units="mm"
     inkscape:current-layer="layer1"
     showgrid="false"
     inkscape:window-width="3840"
     inkscape:window-height="2040"
     inkscape:window-x="0"
     inkscape:window-y="0"
     inkscape:window-maximized="1" />
  <metadata
     id="metadata905">
    <rdf:RDF>
      <cc:Work
         rdf:about="">
        <dc:format>image/svg+xml</dc:format>
        <dc:type
           rdf:resource="http://purl.org/dc/dcmitype/StillImage" />
        <dc:title></dc:title>
      </cc:Work>
    </rdf:RDF>
  </metadata>
  <g
     inkscape:label="Livello 1"
     inkscape:groupmode="layer"
     id="layer1"
     transform="translate(35.872466,-83.583398)">
    <path
       style="fill:#000000;stroke-width:0.04980392"
       d="m -31.717994,94.138208 -1.533491,-1.53056 -0.626376,0.62164 c -0.344507,0.3419 -0.829422,0.85696 -1.077591,1.14458 -0.562831,0.6523 -0.749773,0.74113 -0.893919,0.42476 -0.06978,-0.15314 -0.01282,-0.24172 0.617093,-0.95961 0.900623,-1.02641 2.524118,-2.53139 3.816436,-3.53784 4.555687,-3.54794 10.349101,-5.96177 15.745469,-6.560383 1.604766,-0.17801 4.348942,-0.20952 6.2254901,-0.0715 3.9021724,0.287033 7.6832204,1.347883 11.3615454,3.187723 2.061648,1.03121 4.071212,2.36461 5.771005,3.82923 1.058473,0.91203 2.5080055,2.44409 3.0293265,3.20181 0.23916,0.3476 0.198169,0.58541 -0.100907,0.58541 -0.112205,0 -0.185785,-0.0602 -0.37602,-0.30754 -0.7552595,-0.98204 -1.8455625,-2.15737 -1.9547525,-2.10718 -0.04109,0.0189 -0.73365,0.7268 -1.539027,1.57315 -0.848612,0.89179 -1.501531,1.53882 -1.552815,1.53882 -0.109203,0 -0.245021,-0.12976 -0.245021,-0.23409 0,-0.0427 0.185791,-0.27078 0.412869,-0.50693 2.256861,-2.34707 2.584077,-2.70052 2.559457,-2.76468 -0.04327,-0.11277 -1.138783,-1.03859 -1.951345,-1.64908 -1.418252,-1.06557 -2.682748,-1.8422 -4.427924,-2.71954 -0.80323999,-0.40381 -1.00274699,-0.48607 -1.05094599,-0.43333 -0.03272,0.0358 -0.446567,0.88313 -0.919657,1.88294 -0.47309,0.99982 -0.88913401,1.84877 -0.92454401,1.88656 -0.08742,0.0933 -0.306452,0.0333 -0.347208,-0.0951 -0.02258,-0.0712 0.233595,-0.66051 0.86962401,-2.00063 0.495901,-1.04486 0.884212,-1.91688 0.862911,-1.93781 -0.0841,-0.0827 -1.47378001,-0.61716 -2.44715501,-0.94125 -1.793446,-0.59712 -3.61234,-1.01986 -5.4433454,-1.26511 -1.55119,-0.20778 -4.2071421,-0.34733 -4.3502281,-0.22857 -0.06414,0.0532 -0.07467,0.35108 -0.07467,2.11277 0,1.52866 -0.01522,2.06602 -0.05976,2.11057 -0.08272,0.0827 -0.216998,0.0747 -0.310207,-0.0185 -0.06862,-0.0686 -0.07826,-0.33176 -0.07826,-2.13624 0,-1.74787 -0.01084,-2.06214 -0.07192,-2.08558 -0.110962,-0.0426 -2.060413,0.0576 -2.815193,0.1447 -2.427414,0.28005 -5.1942,0.99053 -7.55041,1.93886 -0.7065,0.28436 -1.812912,0.77956 -1.840129,0.8236 -0.01368,0.0221 0.367544,0.84958 0.84717,1.83876 0.479625,0.98918 0.872045,1.85304 0.872045,1.91968 0,0.13689 -0.148547,0.2406 -0.275071,0.19205 -0.04726,-0.0181 -0.470997,-0.82323 -0.982894,-1.86747 -0.525862,-1.07273 -0.92796,-1.83559 -0.967525,-1.83559 -0.16681,0 -1.850786,0.92099 -2.963325,1.62068 -1.341566,0.84374 -3.015872,2.09458 -4.016372,3.00057 l -0.414797,0.37561 1.498032,1.49864 c 1.22665,1.22714 1.498032,1.52307 1.498032,1.63354 0,0.12149 -0.113311,0.23802 -0.231438,0.23802 -0.02132,0 -0.728841,-0.68875 -1.572262,-1.53056 z"
       id="path1714"
       inkscape:connector-curvature="0" />
  </g>
</svg>
