<?xml version="1.0" encoding="UTF-8" standalone="no"?>
<!-- Created with Inkscape (http://www.inkscape.org/) -->

<svg
   xmlns:dc="http://purl.org/dc/elements/1.1/"
   xmlns:cc="http://creativecommons.org/ns#"
   xmlns:rdf="http://www.w3.org/1999/02/22-rdf-syntax-ns#"
   xmlns:svg="http://www.w3.org/2000/svg"
   xmlns="http://www.w3.org/2000/svg"
   xmlns:sodipodi="http://sodipodi.sourceforge.net/DTD/sodipodi-0.dtd"
   xmlns:inkscape="http://www.inkscape.org/namespaces/inkscape"
   width="46.738804mm"
   height="20.222851mm"
   viewBox="0 0 46.738804 20.222851"
   version="1.1"
   id="svg908"
   inkscape:version="0.92.3 (2405546, 2018-03-11)"
   sodipodi:docname="back_plane_1A2.svg">
  <defs
     id="defs902" />
  <sodipodi:namedview
     id="base"
     pagecolor="#ffffff"
     bordercolor="#666666"
     borderopacity="1.0"
     inkscape:pageopacity="0.0"
     inkscape:pageshadow="2"
     inkscape:zoom="5.6"
     inkscape:cx="235.26374"
     inkscape:cy="-57.559673"
     inkscape:document-units="mm"
     inkscape:current-layer="layer1"
     showgrid="false"
     inkscape:window-width="3840"
     inkscape:window-height="2040"
     inkscape:window-x="0"
     inkscape:window-y="0"
     inkscape:window-maximized="1" />
  <metadata
     id="metadata905">
    <rdf:RDF>
      <cc:Work
         rdf:about="">
        <dc:format>image/svg+xml</dc:format>
        <dc:type
           rdf:resource="http://purl.org/dc/dcmitype/StillImage" />
        <dc:title></dc:title>
      </cc:Work>
    </rdf:RDF>
  </metadata>
  <g
     inkscape:label="Livello 1"
     inkscape:groupmode="layer"
     id="layer1"
     transform="translate(36.160868,-75.058765)">
    <path
       style="fill:#000000;stroke-width:0.04980392"
       d="m -30.09154,95.176774 c -0.278815,-0.13801 -0.532402,-0.43535 -0.738415,-0.86583 -0.296786,-0.62015 -0.344181,-0.88681 -0.340807,-1.91745 0.0028,-0.85888 0.01231,-0.95168 0.139963,-1.36827 0.278484,-0.90878 0.719345,-1.4923 1.242319,-1.64433 0.848549,-0.24668 1.582644,0.47051 1.853847,1.81117 0.130017,0.64272 0.08242,1.81955 -0.09788,2.42029 -0.329265,1.09704 -0.858847,1.66828 -1.547539,1.66926 -0.204594,3e-4 -0.365884,-0.0328 -0.511488,-0.10484 z m 0.721625,-0.86171 c 0.764643,-0.6434 0.879169,-3.09309 0.18265,-3.90682 -0.09704,-0.11337 -0.21779,-0.20612 -0.268338,-0.20612 -0.261263,0 -0.620434,0.56187 -0.779994,1.22019 -0.118179,0.48759 -0.11683,1.57762 0.0025,2.01351 0.113816,0.41577 0.292426,0.76416 0.458903,0.89511 0.170081,0.13379 0.229192,0.13147 0.404288,-0.0159 z m 31.9344642,0.37324 c -0.163003,-0.163 -0.18081,-0.28928 -0.0708,-0.50202 0.106094,-0.20516 0.318529,-0.24827 1.225203,-0.24859 0.725517,-2.5e-4 0.78819,-0.008 0.945089,-0.11352 0.477727,-0.32194 0.591595,-1.05336 0.228388,-1.46703 -0.237836,-0.27088 -0.389017,-0.31228 -1.140387,-0.31228 -0.753155,0 -0.933853,-0.0577 -1.10896,-0.35426 -0.09149,-0.15494 -0.09961,-0.25811 -0.09961,-1.26655 0,-1.21735 0.01214,-1.27 0.338882,-1.46922 0.145973,-0.089 0.257454,-0.0971 1.345831,-0.0972 l 1.186675,-2e-4 0.14558,0.14558 c 0.155385,0.15538 0.181055,0.2924 0.08764,0.46779 -0.116613,0.21895 -0.172433,0.23006 -1.164748,0.23171 -0.669649,0.001 -0.966347,0.0192 -1.008529,0.0614 -0.04044,0.0404 -0.05976,0.27218 -0.05976,0.71683 0,0.55321 0.01245,0.66184 0.07878,0.68729 0.04333,0.0166 0.340284,0.0307 0.659902,0.0313 0.68053,0.001 0.86432,0.063 1.243821,0.41803 0.941031,0.88022 0.685929,2.49872 -0.485712,3.08161 -0.266842,0.13277 -0.286937,0.13496 -1.236479,0.13496 h -0.965229 z m -28.0482302,-3.69331 c -0.234075,-0.13633 -0.235736,-0.16217 -0.184298,-2.86579 0.02652,-1.39367 0.06005,-2.60581 0.07453,-2.69365 0.05781,-0.3508 0.467373,-0.47398 0.7237,-0.21766 l 0.14558,0.14559 -0.004,0.71353 c -0.01436,2.53325 -0.07913,4.653 -0.145336,4.75656 -0.123391,0.19303 -0.42078,0.27171 -0.610129,0.16142 z m 24.92964119,-0.11603 c -0.128855,-0.11068 -0.141677,-0.15432 -0.164639,-0.5603 l -0.0249,-0.44027 -0.77196099,-0.0249 c -0.492514,-0.0159 -0.812339,-0.048 -0.883504,-0.0886 -0.137532,-0.0786 -0.261986,-0.31015 -0.261986,-0.48747 0,-0.1421 1.192119,-3.80875 1.316555,-4.04938 0.194744,-0.37659 0.78663499,-0.22456 0.78423699,0.20144 -5.13e-4,0.0912 -0.238078,0.88585 -0.52792199,1.7659 -0.289843,0.88006 -0.526988,1.63645 -0.526988,1.68089 0,0.0684 0.06744,0.0808 0.440853,0.0808 h 0.44085399 l 0.03199,-0.41088 c 0.01759,-0.22599 0.03212,-0.50715 0.03228,-0.62482 3.9e-4,-0.27972 0.165531,-0.45842 0.423632,-0.45842 0.207919,0 0.420337,0.17789 0.428476,0.35882 0.0028,0.0629 0.0084,0.33807 0.01245,0.61153 l 0.0073,0.49721 0.169396,0.0803 c 0.215323,0.10213 0.303742,0.22374 0.303742,0.41778 0,0.20638 -0.1196,0.36455 -0.313507,0.41463 -0.158599,0.0409 -0.159836,0.0437 -0.191399,0.42946 -0.03578,0.43724 -0.09864,0.5907 -0.274871,0.671 -0.183575,0.0836 -0.296221,0.0674 -0.450094,-0.0647 z M -31.638853,89.472704 c -0.03665,-0.0159 -1.033977,-0.82261 -2.216275,-1.79274 -1.448179,-1.18829 -2.179364,-1.82018 -2.240748,-1.93644 -0.0771,-0.14602 -0.08221,-0.19957 -0.03321,-0.34805 0.09587,-0.2905 0.447995,-0.41072 0.698436,-0.23845 0.290759,0.19999 4.286034,3.51533 4.355077,3.6139 0.189789,0.27097 0.0093,0.66804 -0.322328,0.70907 -0.09587,0.0119 -0.204304,0.009 -0.240957,-0.007 z m 37.6896762,-1.00989 c -0.168553,-0.16855 -0.18851,-0.36072 -0.05816,-0.56003 0.0828,-0.12661 3.482226,-2.96978 3.847091,-3.21759 0.2214498,-0.1504 0.4199738,-0.11975 0.6155048,0.095 0.118778,0.13047 0.137597,0.18578 0.113571,0.33383 -0.0163,0.10044 -0.0889,0.23563 -0.16727,0.31147 -0.166848,0.16146 -3.5727748,2.97651 -3.7478878,3.09768 -0.193107,0.13363 -0.432863,0.10962 -0.602847,-0.0604 z m -25.4516702,-0.75081 c -0.374873,-0.19812 -0.424528,-0.58928 -0.145078,-1.14287 0.281779,-0.5582 0.707827,-1.01165 1.651043,-1.75723 0.263608,-0.20838 0.523519,-0.44234 0.577578,-0.51991 0.396094,-0.56839 0.208892,-1.28042 -0.403965,-1.53649 -0.45697,-0.19094 -0.871467,0.0852 -1.069433,0.71247 -0.121949,0.38639 -0.23491,0.50866 -0.46995,0.50866 -0.177615,0 -0.433322,-0.24295 -0.433322,-0.41171 0,-0.13833 0.148465,-0.59078 0.272673,-0.83098 0.134937,-0.26094 0.474655,-0.59814 0.746307,-0.74078 0.213792,-0.11225 0.313803,-0.13191 0.674353,-0.1325 0.355624,-5.9e-4 0.468711,0.0206 0.707041,0.13229 0.361915,0.16964 0.708565,0.51629 0.878209,0.8782 0.115185,0.24574 0.132865,0.34704 0.132085,0.75685 -7.81e-4,0.41149 -0.01895,0.51207 -0.139415,0.77196 -0.204982,0.44221 -0.355715,0.63695 -0.697592,0.90124 -0.716074,0.55356 -1.15312,0.94862 -1.359299,1.22869 -0.31725,0.43096 -0.309629,0.43497 0.825015,0.43497 h 0.931495 l 0.11825,0.12587 c 0.169773,0.18072 0.161361,0.44761 -0.019,0.60274 -0.13655,0.11746 -0.143505,0.11805 -1.367118,0.11586 -1.111993,-0.002 -1.247123,-0.0113 -1.40988,-0.0973 z m 11.1281172,0.0308 c -0.298263,-0.0975 -0.517493,-0.24474 -0.776337,-0.52147 -0.270293,-0.28896 -0.435103,-0.59372 -0.435103,-0.80457 0,-0.29266 0.33597,-0.48839 0.597797,-0.34827 0.05126,0.0274 0.18773,0.18464 0.303258,0.34933 0.271158,0.38657 0.483877,0.51981 0.822033,0.51492 0.739803,-0.0107 1.140094,-0.74474 0.789634,-1.44803 -0.133576,-0.26805 -0.237012,-0.35876 -0.640594,-0.56179 -0.567021,-0.28525 -0.588972,-0.56636 -0.111952,-1.43371 0.182374,-0.3316 0.331589,-0.63623 0.331589,-0.67694 0,-0.0618 -0.134533,-0.0766 -0.817896,-0.0898 -0.786515,-0.0152 -0.82282,-0.0204 -0.946274,-0.13654 -0.17688,-0.16636 -0.176862,-0.43886 4e-5,-0.60519 0.127297,-0.11968 0.138603,-0.12087 1.29246,-0.13573 0.994918,-0.0128 1.186673,-0.003 1.319818,0.0656 0.15861,0.082 0.297342,0.32813 0.297342,0.52747 0,0.0595 -0.194198,0.4794 -0.431551,0.93321 l -0.431551,0.82511 0.143053,0.10182 c 0.547819,0.38992 0.876765,0.87839 0.967529,1.43672 0.125528,0.77219 -0.300592,1.55874 -1.033547,1.90775 -0.341465,0.1626 -0.908562,0.20842 -1.239748,0.10017 z m -19.0219332,-2.85413 c -0.05786,-0.0114 -0.160435,-0.0812 -0.227945,-0.15508 -0.243189,-0.26627 -2.975582,-3.9792 -3.026073,-4.112 -0.05918,-0.15565 0.02111,-0.40475 0.170341,-0.52852 0.144328,-0.1197 0.455029,-0.0937 0.594473,0.0498 0.06595,0.0679 0.783128,1.01638 1.593725,2.10783 1.267536,1.70671 1.473814,2.00865 1.473814,2.1573 0,0.23693 -0.0773,0.36126 -0.27633,0.44442 -0.09279,0.0388 -0.175029,0.0674 -0.182756,0.0637 -0.0077,-0.004 -0.06139,-0.0161 -0.119249,-0.0275 z m 28.6639182,-0.55956 c -0.292595,-0.2926 -0.304764,-0.26945 1.354139,-2.57562 0.824846,-1.14669 1.547626,-2.1236 1.606176,-2.17093 0.182378,-0.14742 0.510498,-0.0948 0.665167,0.10663 0.03337,0.0435 0.06138,0.1652 0.06225,0.27053 0.0014,0.17259 -0.143839,0.39391 -1.471049,2.24117 -0.809949,1.12733 -1.528375,2.10011 -1.596504,2.16174 -0.181451,0.16415 -0.436286,0.15037 -0.620184,-0.0335 z m -20.1779582,-3.41632 c -0.07464,-0.0416 -0.156361,-0.11446 -0.181603,-0.16188 -0.03689,-0.0693 -0.852993,-3.36872 -1.171997,-4.73825 -0.09507,-0.40814 -0.02554,-0.6173 0.242419,-0.72926 0.153424,-0.0641 0.19804,-0.0644 0.346411,-0.002 0.09367,0.0391 0.19528,0.11782 0.225806,0.17486 0.06159,0.11507 1.247162,4.95882 1.24732,5.096 1.49e-4,0.13391 -0.257131,0.38424 -0.423235,0.41181 -0.0856,0.0142 -0.207375,-0.008 -0.285121,-0.0509 z m 11.6846472,-0.27201 c -0.136266,-0.0551 -0.318153,-0.28723 -0.318153,-0.40611 0,-0.084 0.964224,-4.25233 1.101988,-4.76394 0.110569,-0.4106 0.513564,-0.54423 0.794392,-0.2634 0.09248,0.0925 0.145581,0.19711 0.145581,0.28687 0,0.18613 -1.078446,4.78675 -1.158381,4.94162 -0.034,0.0659 -0.133934,0.14991 -0.222078,0.18676 -0.181658,0.076 -0.198231,0.0768 -0.343349,0.0182 z"
       id="path1829"
       inkscape:connector-curvature="0" />
  </g>
</svg>
