<?xml version="1.0" encoding="UTF-8" standalone="no"?>
<!-- Created with Inkscape (http://www.inkscape.org/) -->

<svg
   xmlns:dc="http://purl.org/dc/elements/1.1/"
   xmlns:cc="http://creativecommons.org/ns#"
   xmlns:rdf="http://www.w3.org/1999/02/22-rdf-syntax-ns#"
   xmlns:svg="http://www.w3.org/2000/svg"
   xmlns="http://www.w3.org/2000/svg"
   xmlns:sodipodi="http://sodipodi.sourceforge.net/DTD/sodipodi-0.dtd"
   xmlns:inkscape="http://www.inkscape.org/namespaces/inkscape"
   width="30.394886mm"
   height="9.7792149mm"
   viewBox="0 0 30.394886 9.7792149"
   version="1.1"
   id="svg908"
   inkscape:version="0.92.3 (2405546, 2018-03-11)"
   sodipodi:docname="back_plane_2A1.svg">
  <defs
     id="defs902" />
  <sodipodi:namedview
     id="base"
     pagecolor="#ffffff"
     bordercolor="#666666"
     borderopacity="1.0"
     inkscape:pageopacity="0.0"
     inkscape:pageshadow="2"
     inkscape:zoom="3.959798"
     inkscape:cx="-2.4837843"
     inkscape:cy="16.424363"
     inkscape:document-units="mm"
     inkscape:current-layer="layer1"
     showgrid="false"
     inkscape:window-width="3840"
     inkscape:window-height="2040"
     inkscape:window-x="0"
     inkscape:window-y="0"
     inkscape:window-maximized="1" />
  <metadata
     id="metadata905">
    <rdf:RDF>
      <cc:Work
         rdf:about="">
        <dc:format>image/svg+xml</dc:format>
        <dc:type
           rdf:resource="http://purl.org/dc/dcmitype/StillImage" />
        <dc:title></dc:title>
      </cc:Work>
    </rdf:RDF>
  </metadata>
  <g
     inkscape:label="Livello 1"
     inkscape:groupmode="layer"
     id="layer1"
     transform="translate(-79.485595,-129.39165)">
    <g
       aria-label="HYDR PRESS"
       transform="matrix(0.42147228,0,0,0.3882612,34.841439,-5.8421365)"
       style="font-style:normal;font-variant:normal;font-weight:normal;font-stretch:normal;font-size:13.33333302px;line-height:1.25;font-family:OCRB;-inkscape-font-specification:OCRB;font-variant-ligatures:normal;font-variant-caps:normal;font-variant-numeric:normal;font-feature-settings:normal;text-align:center;letter-spacing:0px;word-spacing:0px;writing-mode:lr-tb;text-anchor:middle;display:inline;fill:#000000;fill-opacity:1;stroke:none"
       id="flowRoot5227">
      <path
         d="m 105.9243,357.31953 c 0,0.36 0.30667,0.66667 0.66667,0.66667 0.36,0 0.66666,-0.29334 0.66666,-0.66667 v -3.6 h 3.24 v 3.6 c 0,0.36 0.30667,0.66667 0.66667,0.66667 0.36,0 0.66667,-0.29334 0.66667,-0.66667 v -8.30667 c 0,-0.37333 -0.30667,-0.66666 -0.66667,-0.66666 -0.36,0 -0.66667,0.30666 -0.66667,0.66666 v 3.37334 h -3.24 v -3.37334 c 0,-0.37333 -0.30666,-0.66666 -0.66666,-0.66666 -0.36,0 -0.66667,0.30666 -0.66667,0.66666 z"
         style="font-size:13.33333302px;letter-spacing:-2.27141857px"
         id="path1547"
         inkscape:connector-curvature="0" />
      <path
         d="m 113.22163,349.01286 c 0,0.12 0.0267,0.22667 0.08,0.32 l 2.28,4.26667 v 3.72 c 0,0.37333 0.30667,0.66667 0.66667,0.66667 0.36,0 0.66667,-0.30667 0.66667,-0.66667 v -3.72 l 2.28,-4.26667 c 0.0533,-0.0933 0.08,-0.2 0.08,-0.32 0,-0.36 -0.30667,-0.66666 -0.66667,-0.66666 -0.24,0 -0.50667,0.16 -0.58667,0.36 l -1.77333,3.32 -1.77333,-3.32 c -0.12,-0.2 -0.32,-0.36 -0.58667,-0.36 -0.36,0 -0.66667,0.29333 -0.66667,0.66666 z"
         style="font-size:13.33333302px;letter-spacing:-2.27141857px"
         id="path1549"
         inkscape:connector-curvature="0" />
      <path
         d="m 120.95896,357.17286 c 0,0.36 0.30667,0.66667 0.66667,0.66667 0.50667,0 1,0 1.49333,-0.0933 1.98667,-0.36 3.48,-1.97334 3.48,-4.30667 0,-1.17333 -0.4,-2.18667 -0.93333,-2.90667 -0.86667,-1.16 -2.04,-2.02666 -4.04,-2.02666 -0.37333,0 -0.66667,0.30666 -0.66667,0.66666 z m 1.33334,-0.69333 v -6.6 c 0.56,0.0667 1,0.24 1.38666,0.52 0.85334,0.61333 1.58667,1.62667 1.58667,3.04 0,1.92 -1.2,2.88 -2.97333,3.04 z"
         style="font-size:13.33333302px;letter-spacing:-2.27141857px"
         id="path1551"
         inkscape:connector-curvature="0" />
      <path
         d="m 128.17629,357.31953 c 0,0.37333 0.30667,0.66667 0.66667,0.66667 0.36,0 0.66667,-0.30667 0.66667,-0.66667 v -3.29333 h 1.14666 l 2.18667,3.77333 c 0.12,0.13333 0.32,0.18667 0.49333,0.18667 0.36,0 0.66667,-0.30667 0.66667,-0.66667 0,-0.12 -0.0133,-0.22667 -0.08,-0.33333 l -1.81333,-3.12 c 1.30666,-0.48 1.81333,-1.77334 1.81333,-3.25334 0,-1.30666 -1.64,-2 -2.89333,-2.10666 h -2.18667 c -0.37333,0 -0.66667,0.29333 -0.66667,0.66666 z m 1.33334,-4.62667 v -2.85333 h 1.44 c 0.42666,0.0267 0.85333,0.16 1.22666,0.37333 0.18667,0.0933 0.41334,0.22667 0.41334,0.4 0,0.65334 -0.0267,1.36 -0.52,1.77334 -0.29334,0.25333 -0.70667,0.30666 -1.09334,0.30666 z"
         style="font-size:13.33333302px;letter-spacing:-2.27141857px"
         id="path1553"
         inkscape:connector-curvature="0" />
      <path
         d="m 142.74429,357.31953 c 0,0.36 0.30667,0.66667 0.66667,0.66667 0.36,0 0.66666,-0.29334 0.66666,-0.66667 v -3.29333 h 1.62667 c 1.06667,0 2.17333,-0.25334 2.81333,-1.10667 0.33334,-0.42667 0.49334,-0.96 0.52,-1.52 v -0.14667 c 0,-1.84 -1.44,-2.74666 -3.33333,-2.74666 h -2.29333 c -0.37334,0 -0.66667,0.30666 -0.66667,0.66666 z m 1.33333,-4.62667 v -2.85333 h 1.62667 c 0.42667,0 0.86667,0 1.25333,0.16 0.44,0.21333 0.74667,0.66667 0.74667,1.26667 v 0.08 c -0.0533,1.08 -1.02667,1.34666 -2,1.34666 z"
         style="font-size:13.33333302px;letter-spacing:-2.27141857px"
         id="path1555"
         inkscape:connector-curvature="0" />
      <path
         d="m 150.26828,357.31953 c 0,0.37333 0.30667,0.66667 0.66667,0.66667 0.36,0 0.66667,-0.30667 0.66667,-0.66667 v -3.29333 h 1.14666 l 2.18667,3.77333 c 0.12,0.13333 0.32,0.18667 0.49333,0.18667 0.36,0 0.66667,-0.30667 0.66667,-0.66667 0,-0.12 -0.0133,-0.22667 -0.08,-0.33333 l -1.81333,-3.12 c 1.30666,-0.48 1.81333,-1.77334 1.81333,-3.25334 0,-1.30666 -1.64,-2 -2.89333,-2.10666 h -2.18667 c -0.37333,0 -0.66667,0.29333 -0.66667,0.66666 z m 1.33334,-4.62667 v -2.85333 h 1.44 c 0.42666,0.0267 0.85333,0.16 1.22666,0.37333 0.18667,0.0933 0.41334,0.22667 0.41334,0.4 0,0.65334 -0.0267,1.36 -0.52,1.77334 -0.29334,0.25333 -0.70667,0.30666 -1.09334,0.30666 z"
         style="font-size:13.33333302px;letter-spacing:-2.27141857px"
         id="path1557"
         inkscape:connector-curvature="0" />
      <path
         d="m 157.71228,357.17286 c 0,0.37334 0.30667,0.66667 0.66667,0.66667 h 4.56 c 0.36,0 0.66667,-0.29333 0.66667,-0.66667 0,-0.37333 -0.29334,-0.66666 -0.66667,-0.66666 h -3.89333 v -2.86667 h 3.25333 c 0.37333,0 0.66667,-0.30667 0.66667,-0.66667 0,-0.36 -0.30667,-0.66666 -0.66667,-0.66666 h -3.25333 v -2.46667 h 3.89333 c 0.36,0 0.66667,-0.29333 0.66667,-0.66667 0,-0.37333 -0.29334,-0.66666 -0.66667,-0.66666 h -4.56 c -0.37333,0 -0.66667,0.29333 -0.66667,0.66666 z"
         style="font-size:13.33333302px;letter-spacing:-2.27141857px"
         id="path1559"
         inkscape:connector-curvature="0" />
      <path
         d="m 164.91628,355.81286 c 0.16,1.30667 1.36,2.24 2.76,2.24 0.17333,0 0.34667,-0.0133 0.53333,-0.04 1.4,-0.2 2.46667,-1.22666 2.46667,-2.68 0,-2.10666 -1.92,-2.61333 -3.33333,-3.32 -0.49334,-0.28 -1.01334,-0.56 -1.01334,-1.32 0,-0.68 0.78667,-1.01333 1.48,-1.05333 0.44,0 0.81334,0.08 1.08,0.30667 0.36,0.30666 0.36,1.02666 1,1.02666 0.37334,0 0.66667,-0.30666 0.66667,-0.66666 0,-0.0533 -0.0133,-0.12 -0.0267,-0.17334 -0.30666,-1.10666 -1.28,-1.82666 -2.66666,-1.82666 h -0.08 c -1.46667,0.0267 -2.78667,0.96 -2.78667,2.38666 0,2.04 1.88,2.56 3.25333,3.25334 0.54667,0.28 1.09334,0.57333 1.09334,1.38666 0,0.38667 -0.16,0.77334 -0.45334,1.01334 -0.32,0.24 -0.76,0.36 -1.17333,0.36 -0.70667,0 -1.37333,-0.34667 -1.46667,-1.08 -0.0667,-0.30667 -0.32,-0.57334 -0.66666,-0.57334 -0.36,0 -0.66667,0.30667 -0.66667,0.66667 z"
         style="font-size:13.33333302px;letter-spacing:-2.27141857px"
         id="path1561"
         inkscape:connector-curvature="0" />
      <path
         d="m 172.28028,355.81286 c 0.16,1.30667 1.36,2.24 2.76,2.24 0.17333,0 0.34667,-0.0133 0.53333,-0.04 1.4,-0.2 2.46667,-1.22666 2.46667,-2.68 0,-2.10666 -1.92,-2.61333 -3.33333,-3.32 -0.49334,-0.28 -1.01334,-0.56 -1.01334,-1.32 0,-0.68 0.78667,-1.01333 1.48,-1.05333 0.44,0 0.81334,0.08 1.08,0.30667 0.36,0.30666 0.36,1.02666 1,1.02666 0.37334,0 0.66667,-0.30666 0.66667,-0.66666 0,-0.0533 -0.0133,-0.12 -0.0267,-0.17334 -0.30666,-1.10666 -1.28,-1.82666 -2.66666,-1.82666 h -0.08 c -1.46667,0.0267 -2.78667,0.96 -2.78667,2.38666 0,2.04 1.88,2.56 3.25333,3.25334 0.54667,0.28 1.09334,0.57333 1.09334,1.38666 0,0.38667 -0.16,0.77334 -0.45334,1.01334 -0.32,0.24 -0.76,0.36 -1.17333,0.36 -0.70667,0 -1.37333,-0.34667 -1.46667,-1.08 -0.0667,-0.30667 -0.32,-0.57334 -0.66666,-0.57334 -0.36,0 -0.66667,0.30667 -0.66667,0.66667 z"
         style="font-size:13.33333302px;letter-spacing:-2.27141857px"
         id="path1563"
         inkscape:connector-curvature="0" />
    </g>
    <g
       aria-label="
psi x 1000"
       transform="matrix(0.42147228,0,0,0.3882612,34.709169,-7.0775965)"
       style="font-style:normal;font-variant:normal;font-weight:normal;font-stretch:normal;font-size:13.33333302px;line-height:1.25;font-family:OCRB;-inkscape-font-specification:OCRB;font-variant-ligatures:normal;font-variant-caps:normal;font-variant-numeric:normal;font-feature-settings:normal;text-align:center;letter-spacing:-2.2892015px;word-spacing:0px;writing-mode:lr-tb;text-anchor:middle;display:inline;fill:#000000;fill-opacity:1;stroke:none"
       id="flowRoot5227-2">
      <path
         d="m 111.41766,376.08959 c 0,0.31636 0.25777,0.58585 0.58585,0.58585 0.32807,0 0.58585,-0.25777 0.58585,-0.58585 v -2.01531 c 0.43352,0.35151 0.9725,0.59756 1.5935,0.63271 h 0.19919 c 1.80441,0 2.7652,-1.41775 2.7652,-3.19873 0,-1.69895 -0.6913,-2.87065 -2.13248,-3.21044 -0.25778,-0.0586 -0.49212,-0.0937 -0.72646,-0.0937 -0.66786,0 -1.24199,0.24606 -1.69895,0.621 0,-0.32807 -0.26949,-0.58585 -0.58585,-0.58585 -0.31636,0 -0.58585,0.26949 -0.58585,0.58585 z m 1.1717,-3.99548 v -1.37088 c 0.29292,-0.60928 0.86705,-1.28887 1.6638,-1.34745 0.0586,0 0.10546,-0.0117 0.15232,-0.0117 1.15998,0 1.57008,1.00766 1.57008,2.1442 0,0.99594 -0.37495,1.74583 -1.23028,1.96845 -0.15232,0.0351 -0.30464,0.0586 -0.43353,0.0586 -0.90221,0 -1.40604,-0.80847 -1.72239,-1.44119 z"
         style="letter-spacing:-2.2892015px"
         id="path1530"
         inkscape:connector-curvature="0" />
      <path
         d="m 117.93558,373.38298 c 0,0.10545 0.0117,0.2109 0.0703,0.30464 0.43353,0.70301 1.18342,1.01937 2.27309,1.01937 h 0.11717 c 1.34745,-0.0352 2.53086,-0.55069 2.53086,-1.9333 0,-1.62865 -1.73411,-1.78097 -3.03469,-2.12076 -0.35151,-0.0937 -0.71473,-0.24606 -0.71473,-0.6913 0,-0.59757 0.67958,-0.64444 1.21856,-0.64444 h 0.30464 c 0.35151,0.0234 0.74989,0.0703 0.83191,0.39838 0.0586,0.24606 0.29292,0.43353 0.57413,0.43353 0.31635,0 0.58584,-0.26949 0.58584,-0.58585 0,-0.0469 -0.0117,-0.0937 -0.0234,-0.15232 -0.2109,-0.79675 -1.05453,-1.21856 -1.90986,-1.26543 h -0.36323 c -1.25371,0 -2.39026,0.50383 -2.39026,1.81613 0,1.62865 1.61694,1.82784 2.90581,2.16763 0.35151,0.0937 0.84362,0.21091 0.84362,0.64443 0,0.64444 -0.7616,0.72646 -1.35917,0.76161 -0.39837,0 -0.77332,-0.0117 -1.06624,-0.15232 -0.28121,-0.15232 -0.38666,-0.58585 -0.80847,-0.58585 -0.31636,0 -0.58585,0.25777 -0.58585,0.58585 z"
         style="font-size:11.71695328px;letter-spacing:-2.2892015px"
         id="path1532"
         inkscape:connector-curvature="0" />
      <path
         d="m 124.44178,368.96568 c 0,0.31636 0.26949,0.58585 0.58585,0.58585 h 1.52321 v 4.53446 c 0,0.31636 0.26949,0.58585 0.58584,0.58585 0.31636,0 0.58585,-0.25777 0.58585,-0.58585 v -5.12031 c 0,-0.32807 -0.25777,-0.58584 -0.58585,-0.58584 h -2.10905 c -0.32807,0 -0.58585,0.26949 -0.58585,0.58584 z m 1.61694,-2.37854 c 0,0.32808 0.26949,0.58585 0.58585,0.58585 h 0.52726 c 0.31636,0 0.58585,-0.25777 0.58585,-0.58585 v -0.53898 c 0,-0.32807 -0.26949,-0.58584 -0.58585,-0.58584 h -0.52726 c -0.31636,0 -0.58585,0.25777 -0.58585,0.58584 z"
         style="font-size:11.71695328px;letter-spacing:-2.2892015px"
         id="path1534"
         inkscape:connector-curvature="0" />
      <path
         d="m 136.39966,374.08599 c 0,0.31636 0.26949,0.58585 0.58585,0.58585 0.15232,0 0.31636,-0.0469 0.42181,-0.16404 l 1.52321,-2.16763 1.51148,2.16763 c 0.10546,0.14061 0.26949,0.16404 0.43353,0.16404 0.30464,0 0.58585,-0.26949 0.58585,-0.58585 0,-0.11717 -0.0469,-0.23434 -0.11717,-0.33979 l -1.64037,-2.34339 1.5232,-2.24965 c 0.0586,-0.0937 0.0937,-0.21091 0.0937,-0.32808 0,-0.31636 -0.26949,-0.58585 -0.58584,-0.58585 -0.15232,0 -0.31636,0.0586 -0.42181,0.16404 l -1.3826,2.05047 -1.3826,-2.05047 c -0.082,-0.11717 -0.26949,-0.16404 -0.42181,-0.16404 -0.31636,0 -0.58585,0.25778 -0.58585,0.58585 0,0.11717 0.0352,0.23434 0.0937,0.32808 l 1.51149,2.24965 -1.64037,2.34339 c -0.0703,0.10545 -0.10546,0.22262 -0.10546,0.33979 z"
         style="font-size:11.71695328px;letter-spacing:-2.2892015px"
         id="path1536"
         inkscape:connector-curvature="0" />
      <path
         d="m 148.72077,367.88773 c 0,0.31635 0.25777,0.58584 0.58585,0.58584 0.1406,0 0.28121,-0.0469 0.38666,-0.1406 l 1.51149,-1.28887 v 7.00674 c 0,0.32808 0.26949,0.58585 0.58584,0.58585 0.31636,0 0.58585,-0.26949 0.58585,-0.58585 v -7.96753 c 0,-0.31635 -0.26949,-0.58584 -0.58585,-0.58584 h -0.37494 c -0.1406,0 -0.26949,0.0469 -0.37494,0.1406 l -2.1442,1.83956 c -0.11717,0.0937 -0.17576,0.25777 -0.17576,0.4101 z"
         style="font-size:11.71695328px;letter-spacing:-2.2892015px"
         id="path1538"
         inkscape:connector-curvature="0" />
      <path
         d="m 154.53567,370.50061 c 0,2.2848 0.58585,4.17123 2.92924,4.17123 0.11717,0 0.22262,0.0117 0.33979,0.0117 0.0586,0 0.11717,-0.0117 0.17576,-0.0117 1.89814,-0.15232 2.41369,-2.17935 2.41369,-4.17123 0,-2.6949 -0.23434,-5.03829 -2.92924,-5.03829 -2.71833,0 -2.92924,2.33167 -2.92924,5.03829 z m 1.1717,0 c 0,-0.89049 0,-1.92158 0.17575,-2.64804 0.19919,-0.80847 0.58585,-1.21856 1.58179,-1.21856 0.18747,0 0.44525,0 0.5507,0.0234 1.14826,0.22262 1.20684,1.86299 1.20684,3.30418 v 0.53898 c 0,1.26543 -0.15232,2.99954 -1.49977,2.99954 h -0.25777 c -0.18747,0 -0.44524,0 -0.56241,-0.0234 -1.04281,-0.22262 -1.19513,-1.79269 -1.19513,-2.9761 z"
         style="font-size:11.71695328px;letter-spacing:-2.2892015px"
         id="path1540"
         inkscape:connector-curvature="0" />
      <path
         d="m 160.7138,370.50061 c 0,2.2848 0.58585,4.17123 2.92924,4.17123 0.11717,0 0.22262,0.0117 0.33979,0.0117 0.0586,0 0.11717,-0.0117 0.17576,-0.0117 1.89814,-0.15232 2.41369,-2.17935 2.41369,-4.17123 0,-2.6949 -0.23434,-5.03829 -2.92924,-5.03829 -2.71833,0 -2.92924,2.33167 -2.92924,5.03829 z m 1.1717,0 c 0,-0.89049 0,-1.92158 0.17575,-2.64804 0.19919,-0.80847 0.58585,-1.21856 1.58179,-1.21856 0.18747,0 0.44524,0 0.5507,0.0234 1.14826,0.22262 1.20684,1.86299 1.20684,3.30418 v 0.53898 c 0,1.26543 -0.15232,2.99954 -1.49977,2.99954 h -0.25777 c -0.18747,0 -0.44525,0 -0.56241,-0.0234 -1.04281,-0.22262 -1.19513,-1.79269 -1.19513,-2.9761 z"
         style="font-size:11.71695328px;letter-spacing:-2.2892015px"
         id="path1542"
         inkscape:connector-curvature="0" />
      <path
         d="m 166.89193,370.50061 c 0,2.2848 0.58585,4.17123 2.92924,4.17123 0.11717,0 0.22262,0.0117 0.33979,0.0117 0.0586,0 0.11717,-0.0117 0.17576,-0.0117 1.89814,-0.15232 2.41369,-2.17935 2.41369,-4.17123 0,-2.6949 -0.23434,-5.03829 -2.92924,-5.03829 -2.71833,0 -2.92924,2.33167 -2.92924,5.03829 z m 1.1717,0 c 0,-0.89049 0,-1.92158 0.17575,-2.64804 0.19919,-0.80847 0.58585,-1.21856 1.58179,-1.21856 0.18747,0 0.44524,0 0.5507,0.0234 1.14826,0.22262 1.20684,1.86299 1.20684,3.30418 v 0.53898 c 0,1.26543 -0.15232,2.99954 -1.49977,2.99954 h -0.25777 c -0.18747,0 -0.44524,0 -0.56241,-0.0234 -1.04281,-0.22262 -1.19513,-1.79269 -1.19513,-2.9761 z"
         style="font-size:11.71695328px;letter-spacing:-2.2892015px"
         id="path1544"
         inkscape:connector-curvature="0" />
    </g>
  </g>
</svg>
