<?xml version="1.0" encoding="UTF-8" standalone="no"?>
<!-- Created with Inkscape (http://www.inkscape.org/) -->

<svg
   xmlns:dc="http://purl.org/dc/elements/1.1/"
   xmlns:cc="http://creativecommons.org/ns#"
   xmlns:rdf="http://www.w3.org/1999/02/22-rdf-syntax-ns#"
   xmlns:svg="http://www.w3.org/2000/svg"
   xmlns="http://www.w3.org/2000/svg"
   xmlns:sodipodi="http://sodipodi.sourceforge.net/DTD/sodipodi-0.dtd"
   xmlns:inkscape="http://www.inkscape.org/namespaces/inkscape"
   width="36.875431mm"
   height="31.317301mm"
   viewBox="0 0 36.875431 31.317301"
   version="1.1"
   id="svg8"
   inkscape:version="0.92.3 (2405546, 2018-03-11)"
   sodipodi:docname="back_plane_2A1-02.svg">
  <defs
     id="defs2" />
  <sodipodi:namedview
     id="base"
     pagecolor="#ffffff"
     bordercolor="#666666"
     borderopacity="1.0"
     inkscape:pageopacity="0.0"
     inkscape:pageshadow="2"
     inkscape:zoom="2.8"
     inkscape:cx="80.041455"
     inkscape:cy="8.0877573"
     inkscape:document-units="mm"
     inkscape:current-layer="layer1"
     showgrid="false"
     inkscape:window-width="3840"
     inkscape:window-height="2040"
     inkscape:window-x="0"
     inkscape:window-y="0"
     inkscape:window-maximized="1" />
  <metadata
     id="metadata5">
    <rdf:RDF>
      <cc:Work
         rdf:about="">
        <dc:format>image/svg+xml</dc:format>
        <dc:type
           rdf:resource="http://purl.org/dc/dcmitype/StillImage" />
        <dc:title />
      </cc:Work>
    </rdf:RDF>
  </metadata>
  <g
     inkscape:label="Livello 1"
     inkscape:groupmode="layer"
     id="layer1"
     transform="translate(-59.35428,-89.684568)">
    <path
       style="fill:#000000;stroke-width:0.04894027"
       d="m 83.862325,120.85872 c -0.085,-0.085 -0.14306,-0.19486 -0.14306,-0.2708 0,-0.33995 0.50528,-0.99005 1.1182,-1.43869 0.30812,-0.22553 0.49683,-0.48837 0.49683,-0.69197 0,-0.35957 -0.33205,-0.64628 -0.64586,-0.55766 -0.15625,0.0441 -0.20714,0.11551 -0.4298,0.60295 -0.10443,0.22864 -0.45419,0.17779 -0.48254,-0.0701 -0.039,-0.34118 0.24349,-0.8319 0.57679,-1.00193 0.39537,-0.2017 0.96355,-0.0885 1.24779,0.24864 0.31637,0.37524 0.36057,0.81056 0.13145,1.29487 -0.11804,0.2495 -0.20708,0.34889 -0.55813,0.62302 -0.39255,0.30652 -0.76956,0.68736 -0.76956,0.77736 0,0.0221 0.23675,0.0405 0.52611,0.0409 0.63035,8.6e-4 0.76377,0.0503 0.78689,0.29187 0.0259,0.27093 -0.0494,0.29469 -0.9346,0.29469 h -0.77745 z m 2.82541,0.0536 c -0.0446,-0.0492 -0.081,-0.13205 -0.081,-0.18406 0,-0.052 0.22024,-0.69425 0.48941,-1.4272 0.26917,-0.73296 0.4894,-1.35488 0.4894,-1.38204 0,-0.0309 -0.25602,-0.0494 -0.68239,-0.0494 -0.64968,0 -0.68604,-0.005 -0.75857,-0.10877 -0.1003,-0.14319 -0.0962,-0.24944 0.0133,-0.34858 0.0765,-0.0692 0.22115,-0.081 0.99569,-0.081 1.33396,0 1.30436,-0.10379 0.55445,1.9443 -0.31292,0.85461 -0.60404,1.59262 -0.64695,1.64003 -0.10095,0.11154 -0.27077,0.11004 -0.37335,-0.003 z m 3.81587,0.0205 c -0.23012,-0.0856 -0.4956,-0.33201 -0.62215,-0.57753 -0.11652,-0.22606 -0.11724,-0.29573 -0.004,-0.39812 0.16854,-0.15253 0.32597,-0.10301 0.51675,0.16254 0.18986,0.26428 0.31991,0.32376 0.60768,0.27796 0.2552,-0.0406 0.4011,-0.22329 0.4011,-0.50219 0,-0.3129 -0.1082,-0.48749 -0.39089,-0.63074 -0.4159,-0.21075 -0.43547,-0.36 -0.12299,-0.93793 0.12113,-0.22403 0.22023,-0.41854 0.22023,-0.43225 0,-0.0137 -0.23784,-0.0249 -0.52855,-0.0249 -0.34584,0 -0.54886,-0.0203 -0.58728,-0.0587 -0.0956,-0.0956 -0.0726,-0.37088 0.0359,-0.42895 0.0535,-0.0286 0.42256,-0.0507 0.84887,-0.0507 0.66851,0 0.76341,0.0102 0.8352,0.0895 0.13984,0.15452 0.0966,0.37733 -0.16879,0.8696 l -0.24978,0.46335 0.22736,0.20013 c 0.32186,0.28331 0.43946,0.5299 0.44168,0.92615 0.001,0.27475 -0.0199,0.35707 -0.1463,0.56152 -0.27646,0.44717 -0.85297,0.66272 -1.31399,0.49129 z m -1.99642,-1.18921 c -0.20445,-0.12684 -0.3509,-0.42747 -0.32009,-0.65711 0.0883,-0.65838 0.87669,-0.8433 1.24497,-0.29201 0.19979,0.29906 0.10681,0.75152 -0.19184,0.93361 -0.1987,0.12115 -0.55077,0.1286 -0.73304,0.0155 z M 62.247744,118.5498 c -0.101668,-0.0651 -0.215133,-0.21725 -0.318111,-0.42654 -0.15644,-0.31793 -0.160026,-0.33977 -0.157958,-0.9624 0.0018,-0.5454 0.01821,-0.67771 0.113917,-0.91927 0.201724,-0.50912 0.496649,-0.75356 0.851728,-0.70593 0.468979,0.0629 0.768457,0.64824 0.768457,1.50198 0,0.66275 -0.176358,1.16632 -0.511531,1.4606 -0.215283,0.18902 -0.501051,0.20876 -0.746502,0.0516 z m 0.522413,-0.5166 c 0.356169,-0.4528 0.315507,-1.77292 -0.06146,-1.99547 -0.125377,-0.074 -0.303117,0.1428 -0.405348,0.49446 -0.119801,0.4121 -0.08043,1.14535 0.07641,1.42308 0.136369,0.24147 0.244741,0.26311 0.390402,0.0779 z m 0.834662,-3.24682 c -0.120596,-0.12059 -0.124812,-0.25189 -0.01223,-0.38108 0.118293,-0.13575 2.491291,-1.09908 2.612576,-1.06059 0.05169,0.0164 0.128193,0.082 0.170008,0.14586 0.06488,0.099 0.06649,0.13571 0.01093,0.2503 -0.0557,0.11488 -0.2417,0.20685 -1.288602,0.63716 -0.672929,0.27659 -1.262047,0.50364 -1.309152,0.50456 -0.04711,9.2e-4 -0.129692,-0.0424 -0.183526,-0.0962 z m -2.827646,-0.71241 c -0.104557,-0.0732 -0.108763,-0.10593 -0.108591,-0.84421 9.8e-5,-0.42242 0.01462,-1.08366 0.03226,-1.46942 0.03038,-0.66414 0.03817,-0.70536 0.146642,-0.77643 0.10397,-0.0681 0.126575,-0.0672 0.244602,0.0101 l 0.130046,0.0852 -0.03228,1.44981 c -0.03106,1.39477 -0.0362,1.45305 -0.135468,1.53544 -0.126009,0.1046 -0.140679,0.1051 -0.277212,0.009 z m 31.654502,-3.77776 c -0.39269,-0.0138 -0.48095,-0.0323 -0.57505,-0.12073 -0.31875,-0.29946 0.0349,-0.94774 0.88716,-1.62633 0.55022,-0.43808 0.65827,-0.62093 0.56707,-0.9596 -0.10569,-0.39252 -0.55862,-0.52812 -0.80117,-0.23986 -0.069,0.082 -0.14877,0.23576 -0.1773,0.34175 -0.0652,0.24196 -0.19847,0.32312 -0.39621,0.24121 -0.19214,-0.0796 -0.21638,-0.21924 -0.0946,-0.54481 0.12592,-0.33655 0.36556,-0.59029 0.66577,-0.70495 0.19648,-0.075 0.26638,-0.0794 0.49774,-0.0308 0.6248,0.13105 0.98726,0.6884 0.85568,1.31573 -0.0812,0.38715 -0.23284,0.59051 -0.74654,1.00127 -0.24478,0.19573 -0.51065,0.445 -0.59083,0.55394 l -0.14577,0.19807 0.59944,0.0138 c 0.67943,0.0157 0.7909,0.063 0.76507,0.32514 -0.0194,0.19725 -0.18118,0.27386 -0.55296,0.26191 -0.1615,-0.005 -0.50239,-0.0168 -0.75753,-0.0257 z m 2.51034,-0.0193 c -0.46756,-0.12944 -0.79919,-0.84797 -0.79775,-1.72849 10e-4,-0.76823 0.20387,-1.3633 0.57984,-1.70296 0.79262,-0.71608 1.67303,0.43346 1.47819,1.93004 -0.13889,1.06689 -0.64631,1.67139 -1.26028,1.50141 z m 0.36967,-0.64691 c 0.38241,-0.40706 0.45782,-1.63828 0.13553,-2.21284 -0.14146,-0.25217 -0.2994,-0.26039 -0.4588,-0.0239 -0.36802,0.54611 -0.37148,1.76286 -0.006,2.22709 0.12205,0.15515 0.19097,0.15716 0.32959,0.01 z m -35.850363,-0.0594 c -0.102015,-0.10201 -0.120804,-0.15764 -0.09888,-0.29272 0.04497,-0.27712 0.361043,-0.69119 0.787324,-1.03142 0.437943,-0.34955 0.566936,-0.51279 0.567322,-0.71795 6.41e-4,-0.34141 -0.311891,-0.59073 -0.579314,-0.46215 -0.122016,0.0587 -0.176718,0.13788 -0.312353,0.45234 -0.06928,0.16062 -0.240765,0.21803 -0.358746,0.12012 -0.175454,-0.14561 0.0056,-0.68473 0.30722,-0.91478 0.133534,-0.10185 0.239458,-0.13529 0.472157,-0.14903 0.263317,-0.0156 0.325716,-8.3e-4 0.510282,0.12041 0.281741,0.18506 0.473065,0.56397 0.438703,0.86882 -0.04357,0.38655 -0.19963,0.62186 -0.648186,0.97733 -0.36381,0.28832 -0.61255,0.54675 -0.61255,0.63642 0,0.016 0.210667,0.0292 0.46815,0.0292 0.537351,0 0.657476,0.0432 0.657476,0.23664 0,0.23276 -0.06291,0.25277 -0.795057,0.25277 -0.662678,0 -0.680374,-0.003 -0.803546,-0.12595 z m 7.371909,-2.29858 c -0.07983,-0.0962 -0.02545,-2.64706 0.05859,-2.74831 0.07154,-0.0862 0.259633,-0.0807 0.334745,0.01 0.08889,0.10711 0.04716,2.62447 -0.04536,2.73595 -0.08226,0.0991 -0.266701,0.10046 -0.347973,0.003 z m -2.76348,-1.06013 c -0.785653,-0.1505 -1.305212,-0.27303 -1.358092,-0.32028 -0.170191,-0.15205 -0.05104,-0.50181 0.170949,-0.50181 0.07032,0 2.263336,0.40458 2.517343,0.46442 0.320924,0.0756 0.350511,0.50136 0.04013,0.57743 -0.05383,0.0132 -0.670482,-0.0857 -1.370328,-0.21976 z m -2.645575,-1.67595 c -0.04978,-0.076 -0.07285,-0.19675 -0.0631,-0.33035 l 0.01537,-0.21059 -0.505349,-0.0245 c -0.456688,-0.0221 -0.51434,-0.0356 -0.598727,-0.14 -0.05136,-0.0636 -0.09338,-0.15163 -0.09338,-0.19574 0,-0.14003 0.792537,-2.47457 0.870422,-2.56397 0.08431,-0.0968 0.216578,-0.10976 0.356302,-0.035 0.154026,0.0824 0.116919,0.30158 -0.223448,1.31967 -0.174962,0.52333 -0.318112,0.96866 -0.318112,0.98962 0,0.021 0.121127,0.0381 0.269171,0.0381 h 0.269172 v -0.36705 c 0,-0.3018 0.0174,-0.38445 0.09788,-0.46493 0.130451,-0.13045 0.223662,-0.12337 0.375563,0.0285 0.117799,0.1178 0.124742,0.14974 0.101908,0.46887 -0.02047,0.28611 -0.01144,0.34705 0.05489,0.37043 0.141709,0.0499 0.250684,0.17263 0.250684,0.28226 0,0.1235 -0.141137,0.26917 -0.26079,0.26917 -0.06623,0 -0.08179,0.0498 -0.08179,0.26159 0,0.19127 -0.02406,0.28336 -0.0895,0.34258 -0.133526,0.12084 -0.334553,0.1026 -0.427175,-0.0388 z m 3.760946,-2.07936 c -1.014928,-0.49866 -1.189388,-0.60032 -1.216666,-0.70901 -0.04249,-0.1693 0.09022,-0.37087 0.244182,-0.37087 0.145464,0 2.428867,1.10001 2.512123,1.21019 0.146418,0.19378 0.01754,0.4546 -0.223727,0.4528 -0.0721,-5.4e-4 -0.66426,-0.26294 -1.315912,-0.58311 z m 3.668132,0.40102 c -0.261634,-0.0148 -0.317843,-0.035 -0.385561,-0.13837 -0.07348,-0.11214 -0.07285,-0.13782 0.0086,-0.3511 0.08809,-0.23066 0.450569,-0.63211 0.895195,-0.99143 0.170235,-0.13757 0.216911,-0.20982 0.237127,-0.36705 0.0345,-0.26831 -0.115732,-0.46494 -0.355233,-0.46494 -0.189327,0 -0.307817,0.10773 -0.391858,0.35624 -0.0461,0.13633 -0.07587,0.15764 -0.220231,0.15764 -0.146296,0 -0.168861,-0.0169 -0.182596,-0.13651 -0.02118,-0.18446 0.16241,-0.54898 0.340275,-0.67563 0.311364,-0.22171 0.75847,-0.16485 1.016748,0.12932 0.259051,0.29504 0.288218,0.64442 0.08632,1.03397 -0.0443,0.0855 -0.245393,0.2901 -0.446886,0.45475 -0.345493,0.28231 -0.515852,0.46423 -0.515852,0.55085 0,0.0209 0.185396,0.038 0.41199,0.038 0.507403,0 0.566815,0.0209 0.566815,0.19927 0,0.23858 -0.107577,0.25928 -1.064859,0.20494 z m -1.97197,-2.15547 c -1.545831,-1.108346 -1.563556,-1.122846 -1.563556,-1.278876 0,-0.17549 0.112594,-0.29781 0.274126,-0.29781 0.07706,0 0.489087,0.26499 1.14609,0.73709 0.564178,0.405396 1.059041,0.770356 1.099698,0.811016 0.169034,0.16903 0.02138,0.511 -0.218376,0.50575 -0.04112,-9e-4 -0.373207,-0.21562 -0.737982,-0.47717 z m -3.220816,-1.105346 c -0.24382,-0.0882 -0.544346,-0.36158 -0.647674,-0.5891 -0.199761,-0.43985 -0.08837,-1.20159 0.263504,-1.80203 0.313375,-0.53473 1.001328,-1.21238 1.230817,-1.21238 0.131169,0 0.27227,0.14144 0.27227,0.27293 0,0.0532 -0.165512,0.25303 -0.381926,0.46107 -0.21006,0.20194 -0.433545,0.44119 -0.496635,0.53169 l -0.114709,0.16453 0.153239,-0.0337 c 0.213901,-0.047 0.629454,0.0847 0.853687,0.27046 0.646843,0.53593 0.497672,1.55795 -0.278872,1.91064 -0.227322,0.10324 -0.607985,0.11477 -0.853701,0.0259 z m 0.813041,-0.69295 c 0.269311,-0.28525 0.205008,-0.70393 -0.135126,-0.87982 -0.438747,-0.22689 -0.929272,0.0989 -0.865438,0.57485 0.06708,0.50014 0.648876,0.67746 1.000564,0.30497 z m 9.653735,-0.14511 c -0.05226,-0.063 -0.0583,-0.36704 -0.0313,-1.57496 0.03172,-1.41893 0.03888,-1.50452 0.137404,-1.64288 0.16508,-0.23184 0.352277,-0.28172 1.057266,-0.28172 0.428621,0 0.653186,0.0195 0.706264,0.0612 0.127781,0.10045 0.148143,0.25637 0.0494,0.37831 -0.08292,0.1024 -0.138928,0.11242 -0.761142,0.13616 -0.369399,0.0141 -0.680317,0.0397 -0.690929,0.0569 -0.01061,0.0172 -0.03501,0.24527 -0.05421,0.50688 l -0.03491,0.47566 h 0.460749 c 0.506777,0 0.678288,0.0663 0.678288,0.26216 0,0.19529 -0.0874,0.22724 -0.621542,0.22724 h -0.504084 l -0.0049,0.59952 c -0.0027,0.32973 -0.02007,0.65458 -0.03864,0.72187 -0.04068,0.14744 -0.249769,0.19177 -0.347735,0.0737 z m 2.845372,0.0207 c -0.216451,-0.0867 -0.40077,-0.24938 -0.497615,-0.43922 -0.08957,-0.17558 -0.09677,-0.29149 -0.09677,-1.55847 0,-1.17909 0.01066,-1.37944 0.07691,-1.44568 0.09677,-0.0968 0.166366,-0.0969 0.303726,-7.2e-4 0.107801,0.0755 0.10877,0.0879 0.10877,1.38819 0,1.24719 0.0049,1.3183 0.100002,1.43915 0.179523,0.22822 0.558031,0.21534 0.817628,-0.0278 0.108864,-0.10198 0.110116,-0.118 0.110116,-1.40843 0,-1.2496 0.0042,-1.3091 0.09936,-1.39519 0.07872,-0.0712 0.127015,-0.0802 0.232466,-0.0431 l 0.133104,0.0468 0.01247,1.41811 c 0.01391,1.58264 0.01358,1.58447 -0.338648,1.84614 -0.294463,0.21876 -0.76566,0.2988 -1.061514,0.1803 z m 1.959797,-0.0468 c -0.276187,-0.16839 -0.288563,-0.25848 -0.245211,-1.78507 0.0391,-1.37697 0.06336,-1.54731 0.230566,-1.61926 0.04332,-0.0186 0.403325,-0.0446 0.800008,-0.0576 0.6142,-0.0202 0.739495,-0.0117 0.84422,0.0569 0.124481,0.0816 0.158872,0.23954 0.07944,0.3649 -0.0624,0.0985 -0.459431,0.15846 -0.984208,0.14868 l -0.464933,-0.009 -0.02447,0.47616 c -0.01346,0.26189 -0.01529,0.48524 -0.0041,0.49634 0.01121,0.0111 0.202345,0.0202 0.424732,0.0202 0.406783,0 0.558152,0.0581 0.558152,0.21437 0,0.17312 -0.119316,0.22337 -0.562813,0.23701 l -0.440463,0.0135 -0.01401,0.47717 -0.01401,0.47717 0.62576,7.2e-4 c 0.404033,4.9e-4 0.669114,0.0225 0.748112,0.0623 0.153025,0.077 0.188816,0.29885 0.06949,0.4307 -0.07575,0.0837 -0.157319,0.0935 -0.774477,0.0934 -0.605545,-1.5e-4 -0.709604,-0.0122 -0.851815,-0.099 z m 2.166327,-0.021 -0.120126,-0.12013 v -1.58929 c 0,-1.37955 0.01015,-1.59943 0.07691,-1.66619 0.0423,-0.0423 0.117806,-0.0769 0.167795,-0.0769 0.04999,0 0.125497,0.0346 0.167795,0.0769 0.06649,0.0665 0.07691,0.27531 0.07691,1.54162 v 1.46471 h 0.675371 c 0.46004,0 0.6941,0.0187 0.73411,0.0587 0.0931,0.0931 0.0713,0.32259 -0.0359,0.38001 -0.0537,0.0287 -0.42562,0.0507 -0.858681,0.0507 -0.745924,0 -0.76686,-0.003 -0.884142,-0.12012 z m 6.361575,-0.78134 c -0.0914,-0.0668 -0.0943,-0.13174 -0.0776,-1.69884 0.01,-0.89614 0.0363,-1.67911 0.0594,-1.73994 0.0828,-0.21769 0.46118,-0.20468 0.51701,0.0178 0.0172,0.0685 0.0207,0.8378 0.008,1.70953 -0.0213,1.44193 -0.0315,1.5938 -0.11214,1.68296 -0.10397,0.11488 -0.26092,0.12623 -0.39452,0.0285 z m 1.57247,-0.007 c -0.091,-0.091 -0.10133,-0.31956 -0.0182,-0.40271 0.0382,-0.0382 0.23707,-0.0587 0.56765,-0.0587 0.3534,0 0.55671,-0.0227 0.66529,-0.0742 0.34176,-0.16218 0.43438,-0.63194 0.18061,-0.91607 -0.14067,-0.15751 -0.14974,-0.16004 -0.62399,-0.1742 -0.76814,-0.0229 -0.79935,-0.0618 -0.79935,-0.99442 0,-0.97012 -5.2e-4,-0.96963 1.03649,-0.97173 0.83074,-0.002 0.92112,0.0246 0.92112,0.26761 0,0.23279 -0.103,0.26917 -0.76207,0.26917 h -0.60826 v 0.44047 0.44046 h 0.37607 c 0.46188,0 0.73038,0.11464 0.94179,0.40212 0.40715,0.55363 0.25758,1.33446 -0.32659,1.70493 -0.22105,0.14019 -0.24473,0.1442 -0.85053,0.1442 -0.50124,0 -0.63819,-0.0151 -0.70005,-0.0769 z m -20.100123,-2.31073 c -0.669084,-0.3476 -0.815713,-1.18025 -0.304252,-1.72773 l 0.11839,-0.12672 -0.123388,-0.21586 c -0.229931,-0.40224 -0.136768,-0.93756 0.214626,-1.23324 0.818215,-0.68848 1.996104,0.26801 1.493685,1.21293 l -0.124733,0.23459 0.119146,0.12751 c 0.411517,0.44043 0.400424,1.1604 -0.02397,1.55598 -0.351939,0.32805 -0.929982,0.40087 -1.369501,0.17254 z m 0.916935,-0.66624 c 0.173665,-0.17367 0.203909,-0.30503 0.111729,-0.48528 -0.130984,-0.25613 -0.459758,-0.35388 -0.748185,-0.22247 -0.153871,0.0701 -0.273932,0.31841 -0.239537,0.49539 0.03961,0.20382 0.276415,0.37876 0.512696,0.37876 0.158672,0 0.229206,-0.0323 0.363297,-0.1664 z m -0.113132,-1.5471 c 0.24678,-0.19412 0.212946,-0.56632 -0.06452,-0.7098 -0.444629,-0.22993 -0.845077,0.31184 -0.491697,0.66522 0.170953,0.17095 0.374792,0.18729 0.55622,0.0446 z m 7.061252,-0.12525 c -0.08915,-0.0892 -0.09599,-0.43929 -0.04428,-2.26804 0.02885,-1.02033 0.04224,-1.15575 0.122238,-1.23574 0.117924,-0.11792 0.261612,-0.11382 0.386467,0.011 0.09919,0.0992 0.100321,0.12787 0.06788,1.72515 -0.0362,1.78226 -0.04677,1.8445 -0.313202,1.8445 -0.07821,0 -0.176805,-0.0346 -0.219103,-0.0769 z m 2.190421,-0.0181 c -0.700139,-0.42691 -0.851924,-2.17337 -0.268629,-3.09087 0.20743,-0.32628 0.4173,-0.46017 0.721296,-0.46017 0.328417,0 0.548866,0.16623 0.747444,0.56362 0.205757,0.41176 0.268395,0.76417 0.238971,1.34449 -0.04038,0.79642 -0.293522,1.40229 -0.685828,1.64149 -0.205464,0.12528 -0.549078,0.12593 -0.753254,0.001 z m 0.546644,-0.57021 c 0.350867,-0.37859 0.447757,-1.58265 0.171008,-2.12512 -0.188672,-0.36983 -0.355258,-0.37301 -0.549898,-0.0105 -0.342578,0.63805 -0.295895,1.80085 0.0877,2.18444 0.106727,0.10673 0.154446,0.0987 0.291193,-0.0488 z"
       id="path858"
       inkscape:connector-curvature="0" />
  </g>
</svg>
