<?xml version="1.0" encoding="UTF-8" standalone="no"?>
<!-- Created with Inkscape (http://www.inkscape.org/) -->

<svg
   xmlns:dc="http://purl.org/dc/elements/1.1/"
   xmlns:cc="http://creativecommons.org/ns#"
   xmlns:rdf="http://www.w3.org/1999/02/22-rdf-syntax-ns#"
   xmlns:svg="http://www.w3.org/2000/svg"
   xmlns="http://www.w3.org/2000/svg"
   xmlns:sodipodi="http://sodipodi.sourceforge.net/DTD/sodipodi-0.dtd"
   xmlns:inkscape="http://www.inkscape.org/namespaces/inkscape"
   width="10.636864mm"
   height="2.8492293mm"
   viewBox="0 0 10.636864 2.8492293"
   version="1.1"
   id="svg8"
   inkscape:version="0.92.3 (2405546, 2018-03-11)"
   sodipodi:docname="back_plane_1A2-02.svg">
  <defs
     id="defs2" />
  <sodipodi:namedview
     id="base"
     pagecolor="#ffffff"
     bordercolor="#666666"
     borderopacity="1.0"
     inkscape:pageopacity="0.0"
     inkscape:pageshadow="2"
     inkscape:zoom="2.8"
     inkscape:cx="-241.46184"
     inkscape:cy="-18.985195"
     inkscape:document-units="mm"
     inkscape:current-layer="layer1-3"
     showgrid="false"
     inkscape:window-width="3840"
     inkscape:window-height="2040"
     inkscape:window-x="0"
     inkscape:window-y="0"
     inkscape:window-maximized="1" />
  <metadata
     id="metadata5">
    <rdf:RDF>
      <cc:Work
         rdf:about="">
        <dc:format>image/svg+xml</dc:format>
        <dc:type
           rdf:resource="http://purl.org/dc/dcmitype/StillImage" />
        <dc:title></dc:title>
      </cc:Work>
    </rdf:RDF>
  </metadata>
  <g
     inkscape:label="Livello 1"
     inkscape:groupmode="layer"
     id="layer1"
     transform="translate(-78.934318,-110.98959)">
    <g
       transform="translate(-19.009798,5.4971484)"
       id="layer1-3"
       inkscape:label="Livello 1">
      <path
         inkscape:connector-curvature="0"
         id="path890"
         d="m 98.029766,108.28653 c -0.07834,-0.0456 -0.08565,-0.16685 -0.08565,-1.42199 v -1.3721 l 0.55941,0.0164 c 0.472668,0.0139 0.580336,0.0321 0.694374,0.11735 0.268241,0.20055 0.336775,0.34415 0.336775,0.70566 0,0.30075 -0.01526,0.3534 -0.151466,0.52252 -0.179023,0.22228 -0.38224,0.30389 -0.766164,0.30766 l -0.281407,0.003 v 0.52855 c 0,0.62002 -0.06,0.73637 -0.305876,0.59315 z m 1.036428,-1.69111 c 0.05579,-0.0709 0.101433,-0.18908 0.101433,-0.26258 0,-0.0735 -0.04565,-0.19164 -0.101433,-0.26257 -0.09078,-0.11541 -0.13446,-0.12895 -0.415992,-0.12895 h -0.31456 v 0.39152 0.39153 h 0.31456 c 0.281532,0 0.32521,-0.0135 0.415992,-0.12895 z m 1.178126,1.661 c -0.11581,-0.0597 -0.21092,-0.16757 -0.293644,-0.33302 -0.114199,-0.22839 -0.122355,-0.29364 -0.122355,-0.9788 0,-0.68584 0.008,-0.75003 0.122355,-0.97626 0.309964,-0.6135 0.917294,-0.61472 1.223504,-0.002 0.1142,0.22833 0.12235,0.29356 0.12235,0.97874 0,0.64864 -0.0123,0.76069 -0.10553,0.96244 -0.058,0.12559 -0.16298,0.26597 -0.23318,0.31197 -0.19147,0.12545 -0.51031,0.14217 -0.7135,0.0374 z m 0.47527,-0.34772 c 0.13956,-0.0887 0.20989,-0.39931 0.20962,-0.92583 -3.9e-4,-0.75477 -0.11331,-1.09049 -0.36678,-1.09049 -0.25347,0 -0.36639,0.33572 -0.36678,1.09049 -3.4e-4,0.69261 0.10276,0.9635 0.36678,0.9635 0.0538,0 0.12455,-0.0169 0.15716,-0.0377 z m 1.36583,0.38258 c -0.0775,-0.0246 -0.196,-0.0954 -0.26325,-0.15736 -0.23319,-0.21483 -0.25647,-0.34913 -0.25647,-1.47967 0,-1.00198 0.005,-1.05456 0.0979,-1.10445 0.0695,-0.0372 0.12622,-0.0372 0.19577,0 0.093,0.0498 0.0979,0.10286 0.0986,1.06617 7.8e-4,1.10979 0.0245,1.22576 0.26335,1.28946 0.17353,0.0463 0.4399,-0.0545 0.51503,-0.1949 0.0329,-0.0615 0.0529,-0.47621 0.0529,-1.0993 0,-0.83824 0.0121,-1.01058 0.0749,-1.06263 0.0572,-0.0475 0.10331,-0.0492 0.19576,-0.007 l 0.1209,0.0551 v 1.05484 c 0,1.19779 -0.0248,1.31214 -0.32812,1.51286 -0.20983,0.13886 -0.55144,0.19538 -0.7672,0.12694 z m 1.39414,-0.019 c -0.0394,-0.0475 -0.0519,-0.45306 -0.0427,-1.38256 l 0.013,-1.3154 0.13656,-0.0157 c 0.13177,-0.0151 0.15098,0.014 0.54784,0.83199 l 0.41128,0.84766 0.003,-0.79178 c 0.002,-0.652 0.0163,-0.80537 0.0796,-0.86869 0.0423,-0.0423 0.10396,-0.0769 0.13703,-0.0769 0.16411,0 0.17759,0.10797 0.17759,1.42306 0,1.13155 -0.0103,1.31419 -0.0775,1.36994 -0.0536,0.0445 -0.10264,0.0496 -0.15906,0.0167 -0.0449,-0.0262 -0.26874,-0.42134 -0.49753,-0.87808 l -0.416,-0.83043 -0.0135,0.80401 c -0.008,0.49144 -0.0344,0.82915 -0.0672,0.86869 -0.0692,0.0834 -0.16184,0.0824 -0.23227,-0.002 z m 1.7689,0.013 c -0.046,-0.0475 -0.0612,-0.40174 -0.0612,-1.4238 v -1.36054 h 0.38115 c 0.66855,0 1.00317,0.27169 1.16886,0.94904 0.15601,0.63777 -0.0722,1.45859 -0.48078,1.72895 -0.15542,0.10285 -0.26781,0.13219 -0.57023,0.14885 -0.26701,0.0147 -0.39446,0.002 -0.43783,-0.0425 z m 0.8478,-0.48751 c 0.37182,-0.34931 0.3849,-1.45353 0.0211,-1.78275 -0.0518,-0.0469 -0.19413,-0.0965 -0.31635,-0.11024 l -0.22222,-0.0251 v 1.04056 1.04055 l 0.20057,-0.0269 c 0.11031,-0.0148 0.25291,-0.0761 0.31688,-0.13617 z m 0.9563,0.47497 c -0.0341,-0.0411 -0.0548,-0.12546 -0.046,-0.18751 0.0155,-0.10918 0.0337,-0.11325 0.56614,-0.12664 l 0.55014,-0.0138 0.0738,-0.1428 c 0.094,-0.18181 0.0937,-0.35871 -8.2e-4,-0.5416 -0.0711,-0.13751 -0.0899,-0.14439 -0.39396,-0.14439 -0.40743,0 -0.58744,-0.091 -0.70871,-0.35806 -0.17524,-0.38596 -0.10236,-0.85725 0.17167,-1.11015 0.11532,-0.10643 0.18631,-0.1246 0.54562,-0.13965 0.57572,-0.0241 0.66572,0.004 0.64655,0.2025 l -0.0152,0.15738 -0.47683,0.014 c -0.47149,0.0139 -0.47765,0.0156 -0.55058,0.15663 -0.0931,0.18009 -0.0938,0.35836 -0.002,0.53601 0.0676,0.1307 0.0935,0.14005 0.43614,0.15736 0.27668,0.014 0.39005,0.0417 0.47149,0.11542 0.18132,0.16409 0.26097,0.37303 0.26097,0.68455 0,0.31182 -0.0796,0.52032 -0.26163,0.68528 -0.0916,0.083 -0.19081,0.10022 -0.65641,0.11398 -0.44616,0.0132 -0.56009,0.002 -0.61052,-0.0585 z"
         style="fill:#000000;stroke-width:0.04894027" />
    </g>
  </g>
</svg>
