# Created by FreeCAD <http://www.freecadweb.org>
v 4.400000 -4.995884 14.143590
v 4.400000 -4.880840 10.962545
v 4.400000 -3.906818 11.346223
v 4.400000 -6.101049 13.703182
v 4.400000 -3.859292 14.495029
v 4.400000 -2.903063 11.643549
v 4.400000 -2.698423 14.755287
v 4.400000 -1.877214 11.852260
v 4.400000 -1.520580 14.922729
v 4.400000 -0.837078 11.970769
v 4.400000 -0.333172 14.996300
v 4.400000 0.209429 11.998173
v 4.400000 0.856332 14.975536
v 4.400000 1.254342 11.934262
v 4.400000 2.040449 14.860571
v 4.400000 2.289708 11.779526
v 4.400000 3.211731 14.652125
v 4.400000 3.307648 11.535140
v 4.400000 4.362810 14.351512
v 4.400000 4.300416 11.202965
v 4.400000 5.486445 13.960621
v 4.400000 5.260454 10.785528
v 4.400000 6.575567 13.481911
v 4.400000 7.424299 13.033794
v 4.400000 6.575567 13.481911
v 4.400000 5.260454 10.785528
v 4.400000 6.072405 10.350164
v 4.400000 8.242635 12.532317
v 4.400000 6.848563 9.853790
v 4.400000 9.027225 11.979532
v 4.400000 7.584352 9.299334
v 4.400000 9.774858 11.377704
v 4.400000 8.275434 8.690063
v 4.400000 10.482473 10.729295
v 4.400000 8.917738 8.029568
v 4.400000 11.147172 10.036959
vn 1.000000 0.000000 0.000000
vn 1.000000 0.000000 0.000000
vn 1.000000 0.000000 0.000000
vn 1.000000 0.000000 0.000000
vn 1.000000 0.000000 0.000000
vn 1.000000 0.000000 0.000000
vn 1.000000 0.000000 0.000000
vn 1.000000 0.000000 0.000000
vn 1.000000 0.000000 0.000000
vn 1.000000 0.000000 0.000000
vn 1.000000 0.000000 0.000000
vn 1.000000 0.000000 0.000000
vn 1.000000 0.000000 0.000000
vn 1.000000 0.000000 0.000000
vn 1.000000 0.000000 0.000000
vn 1.000000 0.000000 0.000000
vn 1.000000 0.000000 0.000000
vn 1.000000 0.000000 0.000000
vn 1.000000 0.000000 0.000000
vn 1.000000 0.000000 0.000000
vn 1.000000 0.000000 0.000000
vn 1.000000 0.000000 0.000000
vn 1.000000 0.000000 0.000000
vn 1.000000 0.000000 0.000000
vn 1.000000 0.000000 0.000000
vn 1.000000 0.000000 0.000000
vn 1.000000 0.000000 0.000000
vn 1.000000 0.000000 0.000000
vn 1.000000 0.000000 0.000000
vn 1.000000 0.000000 0.000000
vn 1.000000 0.000000 0.000000
vn 1.000000 0.000000 0.000000
g color_int_red
f 1//1 2//1 3//1
f 1//2 4//2 2//2
f 5//3 3//3 6//3
f 5//4 1//4 3//4
f 7//5 6//5 8//5
f 7//6 5//6 6//6
f 9//7 8//7 10//7
f 9//8 7//8 8//8
f 11//9 10//9 12//9
f 11//10 9//10 10//10
f 13//11 12//11 14//11
f 13//12 11//12 12//12
f 15//13 14//13 16//13
f 15//14 13//14 14//14
f 17//15 16//15 18//15
f 17//16 15//16 16//16
f 19//17 18//17 20//17
f 19//18 17//18 18//18
f 21//19 20//19 22//19
f 21//20 19//20 20//20
f 23//21 21//21 22//21
g color_int_green
f 24//22 25//22 26//22
f 24//23 26//23 27//23
f 28//24 27//24 29//24
f 28//25 24//25 27//25
f 30//26 29//26 31//26
f 30//27 28//27 29//27
f 32//28 31//28 33//28
f 32//29 30//29 31//29
f 34//30 33//30 35//30
f 34//31 32//31 33//31
f 36//32 34//32 35//32
