# Created by FreeCAD <http://www.freecadweb.org>
v 5.700100 -12.670179 20.618113
v 5.700100 -11.758317 16.792618
v 5.700100 -10.558281 17.571930
v 5.700100 -13.880549 19.823479
v 5.700100 -11.414453 21.338938
v 5.700100 -9.306806 18.265635
v 5.700100 -10.117865 21.983376
v 5.700100 -8.009988 18.870350
v 5.700100 -8.785058 22.549118
v 5.700100 -6.674147 19.383131
v 5.700100 -7.420803 23.034142
v 5.700100 -5.305790 19.801479
v 5.700100 -6.029983 23.436708
v 5.700100 -3.911584 20.123358
v 5.700100 -4.617578 23.755379
v 5.700000 -2.613585 24.058453
v 5.700000 -3.911584 20.123358
v 5.700000 -2.024187 20.399820
v 5.700000 -4.617578 23.755379
v 5.700000 -0.591259 24.192776
v 5.700000 -0.119263 20.499653
v 5.700000 1.435214 24.157404
v 5.700000 1.786693 20.421991
v 5.700000 3.451620 23.952585
v 5.700000 3.677179 20.167507
v 5.700000 5.443816 23.579756
v 5.700000 5.535827 19.738405
v 5.700000 7.397826 23.041531
v 5.700000 7.346543 19.138399
v 5.700000 9.299947 22.341688
v 5.700000 9.093650 18.372684
v 5.700000 11.136835 21.485132
v 5.700000 10.762020 17.447891
v 5.700000 12.895606 20.477875
v 5.700000 12.337208 16.372028
v 5.700000 14.563924 19.326979
vn 1.000000 0.000000 0.000000
vn 1.000000 0.000000 0.000000
vn 1.000000 0.000000 0.000000
vn 1.000000 0.000000 0.000000
vn 1.000000 0.000000 0.000000
vn 1.000000 0.000000 0.000000
vn 1.000000 0.000000 0.000000
vn 1.000000 0.000000 0.000000
vn 1.000000 0.000000 0.000000
vn 1.000000 0.000000 0.000000
vn 1.000000 0.000000 0.000000
vn 1.000000 0.000000 0.000000
vn 1.000000 0.000000 0.000000
vn 1.000000 0.000000 0.000000
vn 1.000000 0.000000 0.000000
vn 1.000000 0.000000 0.000000
vn 1.000000 0.000000 0.000000
vn 1.000000 0.000000 0.000000
vn 1.000000 0.000000 0.000000
vn 1.000000 0.000000 0.000000
vn 1.000000 0.000000 0.000000
vn 1.000000 0.000000 0.000000
vn 1.000000 0.000000 0.000000
vn 1.000000 0.000000 0.000000
vn 1.000000 0.000000 0.000000
vn 1.000000 0.000000 0.000000
vn 1.000000 0.000000 0.000000
vn 1.000000 0.000000 0.000000
vn 1.000000 0.000000 0.000000
vn 1.000000 0.000000 0.000000
vn 1.000000 0.000000 0.000000
vn 1.000000 0.000000 0.000000
g color_ext_red
f 1//1 2//1 3//1
f 1//2 4//2 2//2
f 5//3 3//3 6//3
f 5//4 1//4 3//4
f 7//5 6//5 8//5
f 7//6 5//6 6//6
f 9//7 8//7 10//7
f 9//8 7//8 8//8
f 11//9 10//9 12//9
f 11//10 9//10 10//10
f 13//11 12//11 14//11
f 13//12 11//12 12//12
f 15//13 13//13 14//13
g color_ext_yellow
f 16//14 17//14 18//14
f 16//15 19//15 17//15
f 20//16 18//16 21//16
f 20//17 16//17 18//17
f 22//18 21//18 23//18
f 22//19 20//19 21//19
f 24//20 23//20 25//20
f 24//21 22//21 23//21
f 26//22 25//22 27//22
f 26//23 24//23 25//23
f 28//24 27//24 29//24
f 28//25 26//25 27//25
f 30//26 29//26 31//26
f 30//27 28//27 29//27
f 32//28 31//28 33//28
f 32//29 30//29 31//29
f 34//30 33//30 35//30
f 34//31 32//31 33//31
f 36//32 34//32 35//32
