<?xml version="1.0" encoding="UTF-8" standalone="no"?>
<!-- Created with Inkscape (http://www.inkscape.org/) -->

<svg
   xmlns:dc="http://purl.org/dc/elements/1.1/"
   xmlns:cc="http://creativecommons.org/ns#"
   xmlns:rdf="http://www.w3.org/1999/02/22-rdf-syntax-ns#"
   xmlns:svg="http://www.w3.org/2000/svg"
   xmlns="http://www.w3.org/2000/svg"
   xmlns:sodipodi="http://sodipodi.sourceforge.net/DTD/sodipodi-0.dtd"
   xmlns:inkscape="http://www.inkscape.org/namespaces/inkscape"
   width="8.2307482mm"
   height="3.2869899mm"
   viewBox="0 0 8.2307482 3.2869899"
   version="1.1"
   id="svg8"
   inkscape:version="0.92.3 (2405546, 2018-03-11)"
   sodipodi:docname="pointer_stop_2A1-02.svg">
  <defs
     id="defs2" />
  <sodipodi:namedview
     id="base"
     pagecolor="#ffffff"
     bordercolor="#666666"
     borderopacity="1.0"
     inkscape:pageopacity="0.0"
     inkscape:pageshadow="2"
     inkscape:zoom="2.8"
     inkscape:cx="-9.3155512"
     inkscape:cy="1.3456703"
     inkscape:document-units="mm"
     inkscape:current-layer="layer1"
     showgrid="false"
     inkscape:window-width="2190"
     inkscape:window-height="1617"
     inkscape:window-x="1476"
     inkscape:window-y="96"
     inkscape:window-maximized="0" />
  <metadata
     id="metadata5">
    <rdf:RDF>
      <cc:Work
         rdf:about="">
        <dc:format>image/svg+xml</dc:format>
        <dc:type
           rdf:resource="http://purl.org/dc/dcmitype/StillImage" />
        <dc:title></dc:title>
      </cc:Work>
    </rdf:RDF>
  </metadata>
  <g
     inkscape:label="Livello 1"
     inkscape:groupmode="layer"
     id="layer1"
     transform="translate(-42.186413,-144.92184)">
    <path
       style="fill:#000000;stroke-width:0.04894027"
       d="m 42.328425,148.15074 c -0.109062,-0.10906 -0.05977,-0.31628 0.210444,-0.88476 0.148044,-0.31145 0.269509,-0.59547 0.269921,-0.63114 3.91e-4,-0.0357 -0.14698,-0.36771 -0.327539,-0.73786 -0.284322,-0.58285 -0.321953,-0.691 -0.280978,-0.80751 0.03934,-0.11187 0.07597,-0.13453 0.217423,-0.13453 0.167063,0 0.175066,0.01 0.446424,0.53694 l 0.276311,0.53694 0.262015,-0.52684 c 0.268962,-0.5408 0.38901,-0.65431 0.570761,-0.53967 0.181782,0.11467 0.157614,0.23547 -0.193001,0.96469 l -0.342539,0.71242 0.29694,0.62076 c 0.163317,0.34141 0.29694,0.65822 0.29694,0.70402 0,0.13655 -0.174593,0.26119 -0.316114,0.22567 -0.09676,-0.0243 -0.174428,-0.13101 -0.350628,-0.48185 l -0.226333,-0.45065 -0.195104,0.3904 c -0.107308,0.21473 -0.229115,0.42895 -0.270682,0.47605 -0.08722,0.0988 -0.25891,0.11227 -0.344261,0.0269 z m 2.713974,-0.0308 c -0.07318,-0.0809 -0.07787,-0.23254 -0.04853,-1.57058 0.03475,-1.58512 0.04071,-1.61891 0.28566,-1.61891 0.06345,0 0.150518,0.0352 0.19349,0.0781 0.06956,0.0696 0.0746,0.24007 0.04599,1.55385 -0.02655,1.21888 -0.04511,1.49063 -0.10669,1.56137 -0.09671,0.11111 -0.267483,0.10933 -0.369915,-0.004 z m 1.994633,-0.003 c -0.389817,-0.2377 -0.5741,-0.69874 -0.579213,-1.44907 -0.005,-0.73228 0.122043,-1.1503 0.454335,-1.49505 0.222882,-0.23124 0.245575,-0.24233 0.495663,-0.24233 0.246576,0 0.274527,0.013 0.47225,0.21934 0.318642,0.33255 0.428029,0.74054 0.398164,1.48506 -0.01585,0.39508 -0.05045,0.63926 -0.112164,0.79155 -0.270689,0.66798 -0.717678,0.94135 -1.129035,0.6905 z m 0.601959,-0.77273 c 0.245445,-0.53612 0.187232,-1.54888 -0.104798,-1.82323 -0.141396,-0.13283 -0.250245,-0.092 -0.367447,0.13769 -0.233906,0.45849 -0.277756,1.21045 -0.09852,1.68949 0.171728,0.45899 0.359423,0.45769 0.570767,-0.004 z m 1.496537,0.76913 c -0.653577,-0.39851 -0.777455,-2.04909 -0.212334,-2.82922 0.174298,-0.24061 0.371296,-0.35363 0.616387,-0.35363 0.332689,0 0.563131,0.22268 0.766915,0.74108 0.135376,0.34437 0.149407,1.2032 0.02627,1.60805 -0.23013,0.75664 -0.740622,1.11213 -1.197238,0.83372 z m 0.491123,-0.53883 c 0.199242,-0.23679 0.253258,-0.46669 0.253258,-1.07793 0,-0.47651 -0.0165,-0.59855 -0.107619,-0.79586 -0.05919,-0.12817 -0.145219,-0.24747 -0.191173,-0.26511 -0.110091,-0.0422 -0.336799,0.20998 -0.412422,0.45884 -0.08822,0.29033 -0.113918,0.94222 -0.04939,1.25306 0.05324,0.25645 0.2435,0.57258 0.34461,0.57258 0.02213,0 0.09536,-0.0655 0.162734,-0.14558 z"
       id="path826"
       inkscape:connector-curvature="0" />
  </g>
</svg>
