<?xml version="1.0" encoding="UTF-8" standalone="no"?>
<!-- Created with Inkscape (http://www.inkscape.org/) -->

<svg
   xmlns:dc="http://purl.org/dc/elements/1.1/"
   xmlns:cc="http://creativecommons.org/ns#"
   xmlns:rdf="http://www.w3.org/1999/02/22-rdf-syntax-ns#"
   xmlns:svg="http://www.w3.org/2000/svg"
   xmlns="http://www.w3.org/2000/svg"
   xmlns:sodipodi="http://sodipodi.sourceforge.net/DTD/sodipodi-0.dtd"
   xmlns:inkscape="http://www.inkscape.org/namespaces/inkscape"
   width="24.815405mm"
   height="40.340622mm"
   viewBox="0 0 24.815405 40.340622"
   version="1.1"
   id="svg8"
   inkscape:version="0.92.3 (2405546, 2018-03-11)"
   sodipodi:docname="back_plane_2A2.svg">
  <defs
     id="defs2" />
  <sodipodi:namedview
     id="base"
     pagecolor="#ffffff"
     bordercolor="#666666"
     borderopacity="1.0"
     inkscape:pageopacity="0.0"
     inkscape:pageshadow="2"
     inkscape:zoom="1.4"
     inkscape:cx="-83.164663"
     inkscape:cy="187.55945"
     inkscape:document-units="mm"
     inkscape:current-layer="layer1"
     showgrid="false"
     inkscape:window-width="3840"
     inkscape:window-height="2040"
     inkscape:window-x="0"
     inkscape:window-y="0"
     inkscape:window-maximized="1" />
  <metadata
     id="metadata5">
    <rdf:RDF>
      <cc:Work
         rdf:about="">
        <dc:format>image/svg+xml</dc:format>
        <dc:type
           rdf:resource="http://purl.org/dc/dcmitype/StillImage" />
        <dc:title></dc:title>
      </cc:Work>
    </rdf:RDF>
  </metadata>
  <g
     inkscape:label="Livello 1"
     inkscape:groupmode="layer"
     id="layer1"
     transform="translate(-88.200172,-159.94949)">
    <path
       style="fill:#000000;stroke-width:0.0508"
       d="m 99.507126,200.21028 c -0.15406,-0.15406 -0.0426,-0.42817 0.17417,-0.42817 0.12121,0 0.254,0.13279 0.254,0.254 0,0.12121 -0.13279,0.254 -0.254,0.254 -0.0519,0 -0.13027,-0.0359 -0.17417,-0.0798 z m -9.92307,-0.0264 c -0.19919,-0.0752 -0.22071,-0.24597 -0.20481,-1.62522 0.0138,-1.20095 0.0228,-1.31466 0.11182,-1.4129 0.12159,-0.13423 0.25503,-0.13604 0.38583,-0.005 0.0881,0.0881 0.1016,0.16933 0.1016,0.6096 v 0.508 h 0.3048 0.3048 v -0.45481 c 0,-0.51378 0.0618,-0.70167 0.24601,-0.7479 0.0983,-0.0247 0.15378,-7.5e-4 0.2453,0.10565 0.11726,0.13633 0.11828,0.14885 0.11754,1.44279 -8.3e-4,1.45353 -0.0182,1.54847 -0.28763,1.57482 -0.2584,0.0253 -0.32122,-0.11907 -0.32122,-0.73805 v -0.5221 h -0.3048 -0.3048 v 0.51134 c 0,0.28124 -0.0234,0.55503 -0.052,0.60843 -0.0745,0.13924 -0.20848,0.19618 -0.34248,0.14559 z m 3.1567,0.003 c -0.16179,-0.0612 -0.22226,-0.30945 -0.22226,-0.91236 v -0.54358 l -0.30851,-0.6498 c -0.31713,-0.66795 -0.33931,-0.79321 -0.17039,-0.96214 0.0861,-0.0861 0.21311,-0.10182 0.31247,-0.0387 0.0342,0.0217 0.15673,0.23283 0.2723,0.46913 l 0.21014,0.42962 0.22306,-0.44355 c 0.24632,-0.48978 0.3884,-0.59212 0.58058,-0.4182 0.1578,0.14281 0.1203,0.33202 -0.20525,1.03543 l -0.3048,0.65859 v 0.60469 c 0,0.51295 -0.0135,0.61628 -0.0889,0.68104 -0.14028,0.12047 -0.18327,0.13341 -0.29844,0.0898 z m 4.52623,-0.0107 c -0.0552,-0.0302 -0.11709,-0.0797 -0.13761,-0.11 -0.0205,-0.0303 -0.0377,-0.67453 -0.0381,-1.43156 -9.4e-4,-1.66139 -0.0416,-1.56441 0.64393,-1.53704 0.51835,0.0207 0.7867,0.13103 0.96819,0.39809 0.20818,0.30634 0.11917,0.97406 -0.1701,1.27599 l -0.12805,0.13366 0.23866,0.48045 c 0.22561,0.45417 0.23479,0.48859 0.16776,0.62907 -0.0826,0.17316 -0.30881,0.22663 -0.4434,0.10483 -0.0467,-0.0422 -0.19804,-0.30684 -0.33639,-0.58801 -0.13834,-0.28117 -0.28101,-0.51122 -0.31705,-0.51122 -0.049,0 -0.0657,0.12516 -0.0663,0.4953 -4e-4,0.27241 -0.0176,0.52045 -0.0381,0.55119 -0.0766,0.11474 -0.23896,0.16638 -0.34343,0.10924 z m 0.85045,-1.87964 c 0.0446,-0.0349 0.0957,-0.13415 0.11357,-0.22051 0.0412,-0.1997 -0.0478,-0.27863 -0.35314,-0.31304 l -0.22857,-0.0258 v 0.3114 0.31141 h 0.19349 c 0.10642,0 0.23001,-0.0286 0.27465,-0.0635 z m 7.978894,1.88854 c -0.076,-0.0288 -0.20442,-0.22538 -0.39413,-0.60364 -0.15474,-0.30855 -0.30402,-0.561 -0.33172,-0.561 -0.0294,0 -0.0507,0.18503 -0.0511,0.4445 -9e-4,0.53491 -0.0643,0.69221 -0.28763,0.71405 -0.30373,0.0297 -0.32122,-0.0522 -0.32122,-1.50339 0,-1.26486 0.0201,-1.44478 0.1727,-1.54668 0.11757,-0.0785 0.86307,-0.0392 1.074,0.0566 0.2423,0.11006 0.45874,0.35018 0.50484,0.56008 0.0544,0.24755 -0.0596,0.71913 -0.23378,0.96763 l -0.15859,0.2262 0.20942,0.42225 c 0.22953,0.46281 0.25523,0.61965 0.12051,0.73535 -0.14105,0.12113 -0.1833,0.13339 -0.30327,0.088 z m -0.31033,-1.90911 c 0.0537,-0.0486 0.0929,-0.15374 0.0929,-0.24903 0,-0.13935 -0.0248,-0.17362 -0.15998,-0.22073 -0.088,-0.0307 -0.21372,-0.0558 -0.2794,-0.0558 -0.11209,0 -0.11942,0.0187 -0.11942,0.3048 v 0.3048 h 0.1865 c 0.10257,0 0.2283,-0.0378 0.2794,-0.0841 z m 4.5379,1.89167 c -0.22997,-0.10265 -0.41852,-0.33257 -0.48877,-0.59601 -0.0549,-0.20597 -0.0519,-0.25313 0.0236,-0.3683 0.15133,-0.23096 0.44761,-0.14329 0.52237,0.15457 0.0423,0.16853 0.23942,0.243 0.41743,0.15768 0.10748,-0.0515 0.13501,-0.10038 0.13501,-0.23965 0,-0.16093 -0.0244,-0.18865 -0.3048,-0.34611 -0.63823,-0.35842 -0.7874,-0.55542 -0.7874,-1.03985 0,-0.48387 0.30559,-0.80468 0.79942,-0.83924 0.24481,-0.0171 0.32171,-8.2e-4 0.46937,0.0995 0.37191,0.25274 0.51172,0.64848 0.30289,0.85731 -0.14193,0.14193 -0.30431,0.10714 -0.42788,-0.0916 -0.0563,-0.0906 -0.15552,-0.17923 -0.22045,-0.19695 -0.15713,-0.0429 -0.36455,0.0566 -0.36455,0.17492 0,0.11793 0.10289,0.20815 0.44722,0.39212 0.50182,0.26812 0.76956,0.70416 0.69679,1.13484 -0.10248,0.60659 -0.70634,0.97617 -1.22021,0.7468 z m -15.621924,-0.0709 -0.12608,-0.10209 v -1.34536 c 0,-1.2517 0.007,-1.3528 0.0968,-1.45229 0.1901,-0.21005 0.74856,-0.0772 1.09275,0.25993 0.61575,0.60313 0.69052,1.68161 0.1585,2.28602 -0.22095,0.25101 -0.46368,0.37202 -0.84864,0.42309 -0.20347,0.027 -0.26953,0.0147 -0.3733,-0.0693 z m 0.80848,-0.84947 c 0.17864,-0.20346 0.23596,-0.49383 0.15646,-0.79258 -0.0647,-0.24319 -0.25182,-0.52052 -0.40729,-0.60373 -0.097,-0.0519 -0.0995,-0.0318 -0.0995,0.78197 0,0.81 0.003,0.83443 0.10152,0.80868 0.0558,-0.0146 0.16782,-0.10205 0.24884,-0.19434 z m 6.690324,0.83155 c -0.069,-0.0986 -0.0811,-0.3061 -0.0811,-1.39746 0,-1.36709 0.0231,-1.51885 0.23918,-1.57309 0.0661,-0.0166 0.33163,-0.0209 0.59008,-0.01 0.37906,0.0166 0.50669,0.0433 0.66011,0.13809 0.32376,0.2001 0.47935,0.63483 0.38487,1.07537 -0.0992,0.46261 -0.45299,0.70739 -1.02334,0.70806 l -0.2413,2.8e-4 -7.5e-4,0.4445 c -9e-4,0.53491 -0.0643,0.69221 -0.28763,0.71405 -0.11889,0.0116 -0.17953,-0.0137 -0.24014,-0.1002 z m 1.16044,-1.8178 c 0.11842,-0.0983 0.0997,-0.33806 -0.0336,-0.43147 -0.0639,-0.0448 -0.21816,-0.0791 -0.3556,-0.0791 h -0.2427 v 0.31109 0.31109 l 0.27632,-0.0229 c 0.15198,-0.0126 0.312,-0.0525 0.3556,-0.0887 z m 4.04168,1.82625 c -0.0965,-0.0965 -0.1016,-0.16933 -0.1016,-1.4365 0,-1.12597 0.0124,-1.35257 0.0791,-1.4478 0.0755,-0.10777 0.11228,-0.1129 0.80992,-0.1129 0.69764,0 0.73443,0.005 0.80992,0.1129 0.10374,0.14811 0.10017,0.30777 -0.01,0.43957 -0.0778,0.0932 -0.15259,0.10821 -0.5969,0.11993 l -0.508,0.0134 -0.0154,0.21058 -0.0154,0.21058 0.43267,0.018 c 0.48775,0.0203 0.60558,0.0875 0.60558,0.34514 0,0.28275 -0.12893,0.35868 -0.609,0.35868 h -0.42393 v 0.2794 0.2794 h 0.47575 c 0.40438,0 0.49583,0.0158 0.6096,0.10529 0.16842,0.13248 0.17856,0.3571 0.0227,0.50233 -0.10034,0.0935 -0.17709,0.10358 -0.7874,0.10358 -0.60849,0 -0.6864,-0.0102 -0.77782,-0.1016 z m 4.55023,0.0218 c -0.0439,-0.0439 -0.0798,-0.12228 -0.0798,-0.17417 0,-0.0519 0.0359,-0.13027 0.0798,-0.17417 0.0439,-0.0439 0.12228,-0.0798 0.17417,-0.0798 0.0519,0 0.13027,0.0359 0.17417,0.0798 0.0439,0.0439 0.0798,0.12228 0.0798,0.17417 0,0.0519 -0.0359,0.13027 -0.0798,0.17417 -0.0439,0.0439 -0.12228,0.0798 -0.17417,0.0798 -0.0519,0 -0.13027,-0.0359 -0.17417,-0.0798 z M 88.302096,163.6637 c -0.0972,-0.0972 -0.1016,-0.16933 -0.1016,-1.651 0,-1.85297 -0.0341,-1.75277 0.5969,-1.75232 0.47965,3.6e-4 0.72096,0.0627 0.93275,0.24087 0.44699,0.37612 0.4733,1.22225 0.0511,1.64443 -0.20072,0.20071 -0.46363,0.29809 -0.80608,0.29854 l -0.2159,2.8e-4 v 0.5588 c 0,0.49107 -0.0123,0.57111 -0.1016,0.6604 -0.0559,0.0559 -0.13589,0.1016 -0.1778,0.1016 -0.0419,0 -0.12192,-0.0457 -0.1778,-0.1016 z m 1.06964,-2.07488 c 0.14623,-0.11842 0.15819,-0.39763 0.0213,-0.49771 -0.0519,-0.038 -0.21574,-0.069 -0.36407,-0.069 h -0.26969 v 0.3302 0.3302 h 0.24837 c 0.16569,0 0.28689,-0.0312 0.36407,-0.0937 z m 1.8457,2.08271 c -0.34684,-0.21806 -0.5351,-0.68469 -0.40341,-0.99988 0.0682,-0.16332 0.0941,-0.18125 0.24118,-0.16696 0.16199,0.0157 0.18127,0.0378 0.34632,0.39701 0.0447,0.0972 0.3381,0.12804 0.43706,0.0459 0.0476,-0.0395 0.0698,-0.12987 0.0602,-0.24476 -0.0136,-0.1617 -0.0518,-0.20613 -0.34028,-0.39574 -0.63197,-0.41532 -0.79722,-0.68303 -0.75782,-1.22771 0.0624,-0.8624 1.02638,-1.17871 1.53128,-0.50245 0.13799,0.18482 0.17393,0.60291 0.0615,0.71534 -0.16836,0.16836 -0.36904,0.095 -0.50924,-0.18626 -0.0868,-0.17407 -0.43665,-0.1772 -0.50292,-0.004 -0.052,0.13551 0.0615,0.27114 0.41859,0.5 0.18821,0.12064 0.40343,0.29212 0.47827,0.38106 0.37165,0.44168 0.27877,1.31356 -0.17428,1.63616 -0.22787,0.16226 -0.67038,0.1886 -0.88643,0.0528 z m 7.26474,-0.0342 c -0.11816,-0.18035 -0.0709,-0.38357 0.20046,-0.86262 l 0.23024,-0.4064 -0.22539,-0.41422 c -0.23926,-0.43971 -0.27437,-0.63625 -0.14631,-0.81908 0.16777,-0.23953 0.40265,-0.10825 0.60359,0.33737 0.0521,0.11557 0.11382,0.21013 0.13711,0.21013 0.0233,0 0.11212,-0.13821 0.19739,-0.30713 0.16603,-0.32889 0.23378,-0.38181 0.4268,-0.33337 0.084,0.0211 0.142214,0.0893 0.183864,0.21546 0.0577,0.17492 0.0482,0.20921 -0.181044,0.65302 l -0.24197,0.46841 0.24061,0.42651 c 0.264394,0.46868 0.304754,0.69257 0.154724,0.85835 -0.179454,0.1983 -0.330924,0.11956 -0.565564,-0.29399 l -0.21001,-0.37015 -0.16422,0.29395 c -0.0903,0.16167 -0.19938,0.33394 -0.24236,0.38284 -0.11372,0.12937 -0.2995,0.11113 -0.39792,-0.0391 z m 5.872724,0.0264 c -0.0961,-0.0961 -0.1016,-0.16933 -0.1016,-1.35617 V 161.053 l -0.17162,0.16634 c -0.21611,0.20946 -0.42777,0.20606 -0.53014,-0.009 -0.10775,-0.22583 -0.0319,-0.38975 0.38722,-0.83639 0.42675,-0.45482 0.57389,-0.51535 0.77174,-0.3175 0.0976,0.0976 0.1016,0.16933 0.1016,1.8034 0,1.63407 -0.004,1.70584 -0.1016,1.8034 -0.0559,0.0559 -0.13589,0.1016 -0.1778,0.1016 -0.0419,0 -0.12192,-0.0457 -0.1778,-0.1016 z m 2.18541,0.0126 c -0.21739,-0.10922 -0.38273,-0.34899 -0.49695,-0.72063 -0.12478,-0.40598 -0.11969,-1.78185 0.008,-2.21299 0.16067,-0.54175 0.44069,-0.7874 0.89755,-0.7874 0.67757,0 0.95933,0.5385 0.97016,1.8542 0.009,1.07596 -0.13259,1.58435 -0.51194,1.84 -0.21319,0.14367 -0.60999,0.15595 -0.867,0.0268 z m 0.70981,-0.85082 c 0.0587,-0.11682 0.0766,-0.34219 0.0766,-0.9652 0,-0.99003 -0.0385,-1.10925 -0.36569,-1.13307 -0.18445,-0.0134 -0.22467,0.003 -0.30442,0.12476 -0.0796,0.12148 -0.0919,0.25637 -0.0919,1.00831 0,0.75194 0.0123,0.88683 0.0919,1.00831 0.0798,0.12171 0.11997,0.1382 0.30442,0.12476 0.17797,-0.013 0.22499,-0.0403 0.28911,-0.16787 z m 1.84026,0.85813 c -0.33387,-0.1702 -0.49942,-0.52879 -0.57239,-1.23982 -0.0722,-0.70361 0.006,-1.58814 0.172,-1.95124 0.17611,-0.38468 0.37607,-0.51187 0.80468,-0.51187 0.42001,0 0.56919,0.0945 0.76516,0.48487 0.25631,0.51052 0.31167,1.82185 0.10761,2.5491 -0.0532,0.18968 -0.15072,0.37252 -0.27083,0.50786 -0.17839,0.20102 -0.20379,0.21234 -0.51359,0.22878 -0.23233,0.0123 -0.37379,-0.007 -0.49264,-0.0677 z m 0.68625,-0.8178 c 0.0773,-0.11805 0.0901,-0.26005 0.0901,-1.00553 0,-0.74548 -0.0127,-0.88748 -0.0901,-1.00553 -0.0728,-0.11106 -0.12866,-0.13747 -0.29093,-0.13747 -0.31583,0 -0.36876,0.12487 -0.39622,0.93478 -0.0225,0.66409 0.0335,1.144 0.14988,1.28426 0.0306,0.0368 0.14369,0.067 0.25139,0.067 0.15678,0 0.21376,-0.0274 0.28588,-0.13747 z m 1.84121,0.79605 c -0.41354,-0.24661 -0.55734,-0.6993 -0.55734,-1.75452 0,-1.07044 0.12978,-1.56629 0.47426,-1.81201 0.22383,-0.15965 0.77204,-0.16433 0.98251,-0.008 0.39051,0.28934 0.49932,0.68767 0.4983,1.82413 -8.7e-4,0.97457 -0.0748,1.29126 -0.3769,1.61516 -0.18243,0.19558 -0.21342,0.20906 -0.51781,0.22527 -0.25931,0.0138 -0.35944,-0.004 -0.50302,-0.0896 z m 0.72754,-0.86178 c 0.0788,-0.15381 0.0891,-0.29092 0.0762,-1.016 -0.0179,-1.00755 -0.0445,-1.07855 -0.39548,-1.05604 -0.34231,0.022 -0.38015,0.13213 -0.38014,1.10684 1e-5,0.6338 0.017,0.82514 0.0869,0.98089 0.0832,0.1852 0.0962,0.19281 0.30417,0.1778 0.1904,-0.0137 0.22849,-0.0377 0.30832,-0.19349 z m -18.857994,0.78055 c -0.11876,-0.15097 -0.13233,-0.27865 -0.0469,-0.44099 0.0772,-0.14658 0.14178,-0.18545 0.3099,-0.18638 l 0.1397,-7.8e-4 v -0.9652 -0.9652 h -0.12412 c -0.25884,0 -0.38392,-0.45716 -0.18068,-0.6604 0.088,-0.0881 0.16933,-0.1016 0.6096,-0.1016 0.44027,0 0.52155,0.0135 0.6096,0.1016 0.20835,0.20835 0.0692,0.6604 -0.2032,0.6604 -0.098,0 -0.1016,0.0339 -0.1016,0.9652 v 0.9652 h 0.14453 c 0.19251,0 0.32283,0.15379 0.32283,0.381 0,0.33502 -0.0937,0.381 -0.77635,0.381 -0.58556,0 -0.60023,-0.003 -0.70332,-0.13385 z"
       id="path858"
       inkscape:connector-curvature="0" />
  </g>
</svg>
