<?xml version="1.0" encoding="UTF-8" standalone="no"?>
<!-- Created with Inkscape (http://www.inkscape.org/) -->

<svg
   xmlns:dc="http://purl.org/dc/elements/1.1/"
   xmlns:cc="http://creativecommons.org/ns#"
   xmlns:rdf="http://www.w3.org/1999/02/22-rdf-syntax-ns#"
   xmlns:svg="http://www.w3.org/2000/svg"
   xmlns="http://www.w3.org/2000/svg"
   xmlns:sodipodi="http://sodipodi.sourceforge.net/DTD/sodipodi-0.dtd"
   xmlns:inkscape="http://www.inkscape.org/namespaces/inkscape"
   width="24.359739mm"
   height="31.566858mm"
   viewBox="0 0 24.359739 31.566858"
   version="1.1"
   id="svg8"
   inkscape:version="0.92.3 (2405546, 2018-03-11)"
   sodipodi:docname="back_plane_2A1.svg">
  <defs
     id="defs2" />
  <sodipodi:namedview
     id="base"
     pagecolor="#ffffff"
     bordercolor="#666666"
     borderopacity="1.0"
     inkscape:pageopacity="0.0"
     inkscape:pageshadow="2"
     inkscape:zoom="1.4"
     inkscape:cx="-84.107623"
     inkscape:cy="-121.03024"
     inkscape:document-units="mm"
     inkscape:current-layer="layer1"
     showgrid="false"
     inkscape:window-width="3840"
     inkscape:window-height="2040"
     inkscape:window-x="0"
     inkscape:window-y="0"
     inkscape:window-maximized="1" />
  <metadata
     id="metadata5">
    <rdf:RDF>
      <cc:Work
         rdf:about="">
        <dc:format>image/svg+xml</dc:format>
        <dc:type
           rdf:resource="http://purl.org/dc/dcmitype/StillImage" />
        <dc:title></dc:title>
      </cc:Work>
    </rdf:RDF>
  </metadata>
  <g
     inkscape:label="Livello 1"
     inkscape:groupmode="layer"
     id="layer1"
     transform="translate(-88.449663,-94.635087)">
    <path
       style="fill:#000000;stroke-width:0.0508"
       d="m 106.45942,126.15173 c -0.20092,-0.10034 -1.25804,-1.6568 -1.87576,-2.76179 -1.52362,-2.72546 -2.53116,-5.65776 -3.04587,-8.8646 -0.41813,-2.60511 -0.4007,-5.60325 0.0483,-8.3058 0.62712,-3.77479 2.16782,-7.636014 4.277,-10.718797 0.4689,-0.685346 0.61875,-0.824921 0.82848,-0.771669 0.0844,0.02143 0.54139,0.556033 1.44428,1.689602 1.16554,1.46332 1.3208,1.67935 1.3208,1.83787 0,0.13578 -0.0333,0.20451 -0.13647,0.28152 -0.11775,0.0879 -0.15606,0.0934 -0.2794,0.0401 -0.0902,-0.039 -0.55238,-0.57595 -1.25266,-1.45531 -0.61035,-0.766417 -1.13655,-1.393488 -1.16934,-1.393488 -0.0626,0 -0.59118,0.749998 -0.59115,0.838718 1e-5,0.0282 0.41074,0.48542 0.91274,1.016 0.94283,0.9965 1.0285,1.12954 0.80455,1.24939 -0.10356,0.0554 -0.17696,-0.008 -1.0287,-0.88696 -0.56186,-0.57992 -0.93917,-0.93199 -0.97395,-0.9088 -0.13257,0.0884 -1.0046,1.72631 -1.4679,2.75715 -0.19262,0.428584 -0.22256,0.533154 -0.1677,0.585754 0.0367,0.0352 0.76401,0.50247 1.61618,1.03834 0.85217,0.53587 1.60083,1.02197 1.6637,1.08022 0.21394,0.19822 0.0813,0.59619 -0.19874,0.59619 -0.13542,0 -0.19683,-0.036 -1.94529,-1.13929 -0.77808,-0.49099 -1.43243,-0.89271 -1.45409,-0.89271 -0.0831,0 -0.79856,2.05243 -0.82251,2.35943 -0.0116,0.14911 -0.009,0.15074 0.85193,0.47038 1.83624,0.682 1.81097,0.67052 1.79358,0.81503 -0.032,0.2656 -0.10659,0.25324 -1.41862,-0.23506 -0.6848,-0.25486 -1.28275,-0.46338 -1.32877,-0.46338 -0.0909,0 -0.11683,0.0766 -0.29247,0.8636 -0.1741,0.7801 -0.30312,1.48649 -0.30312,1.65956 0,0.13466 0.023,0.1661 0.1397,0.19122 0.0768,0.0165 0.9398,0.17722 1.9177,0.35709 1.53553,0.28244 1.79012,0.342 1.8669,0.43681 0.0489,0.0604 0.0889,0.16008 0.0889,0.22156 0,0.1539 -0.18061,0.33415 -0.33481,0.33415 -0.0702,0 -0.94263,-0.14853 -1.93871,-0.33008 -0.99607,-0.18154 -1.83004,-0.31108 -1.85326,-0.28786 -0.0695,0.0695 -0.19569,1.5978 -0.18022,2.18239 l 0.0144,0.54375 0.98676,0.0138 c 1.00971,0.0142 1.12144,0.036 1.12144,0.21921 0,0.16982 -0.16965,0.19876 -1.16506,0.19876 -0.73801,0 -0.96986,0.0151 -0.97408,0.0635 -0.0421,0.48252 0.0849,2.52165 0.16199,2.60106 0.0296,0.0305 0.76866,-0.0902 1.99819,-0.32626 1.88062,-0.36106 1.95601,-0.3715 2.0827,-0.28849 0.17881,0.11716 0.18904,0.45125 0.0172,0.5605 -0.0629,0.04 -0.97155,0.23646 -2.0193,0.43668 -1.04775,0.20021 -1.92672,0.38522 -1.95327,0.41113 -0.0305,0.0297 -0.0248,0.211 0.0153,0.4916 0.0879,0.6143 0.4111,2.1103 0.46875,2.1694 0.0455,0.0466 0.27221,-0.0393 2.09347,-0.79278 0.6851,-0.28344 0.80395,-0.29107 0.83937,-0.0538 0.0218,0.14585 -0.0311,0.17313 -1.50674,0.77816 l -1.28773,0.52796 0.0289,0.21198 c 0.0282,0.20704 0.60024,1.97812 0.69762,2.16008 0.027,0.0504 0.0786,0.0917 0.1147,0.0917 0.0361,0 0.6925,-0.40243 1.45871,-0.89429 2.01301,-1.29222 1.88768,-1.23195 2.10662,-1.01302 0.15546,0.15546 0.15938,0.33355 0.0104,0.47122 -0.0629,0.0581 -0.8001,0.54403 -1.6383,1.07985 -0.8382,0.53582 -1.56524,1.01421 -1.61565,1.0631 -0.0882,0.0855 -0.084,0.10616 0.10834,0.54334 0.44665,1.01498 1.34857,2.71103 1.46131,2.74798 0.0306,0.01 0.42259,-0.37683 0.87113,-0.85968 1.09852,-1.18251 1.09544,-1.17973 1.2271,-1.10926 0.21904,0.11723 0.12937,0.25488 -0.8598,1.31977 -0.53011,0.57069 -0.96383,1.0664 -0.96383,1.10157 0,0.0772 0.57238,0.94168 0.68589,1.03589 0.0481,0.0399 0.0988,0.0482 0.12622,0.0206 0.0252,-0.0254 0.55731,-0.70905 1.1825,-1.51931 1.08881,-1.41112 1.14446,-1.47385 1.32075,-1.48879 0.24512,-0.0208 0.41663,0.13897 0.37464,0.34892 -0.0279,0.13938 -2.4521,3.35322 -2.7087,3.59097 -0.13233,0.12261 -0.23558,0.13735 -0.3971,0.0567 z m -12.124952,-0.18369 c -0.312623,-0.33657 -2.574796,-3.21308 -2.607233,-3.31528 -0.05549,-0.17483 0.120628,-0.37683 0.345277,-0.39601 l 0.182597,-0.0156 1.133156,1.42257 c 0.623235,0.78242 1.167446,1.42351 1.209356,1.42464 0.06085,0.002 0.388243,-0.44762 0.580894,-0.79715 0.02237,-0.0406 -0.287647,-0.4024 -0.848775,-0.9906 -0.486207,-0.50967 -0.908648,-0.97298 -0.938758,-1.02958 -0.07277,-0.13679 0.0083,-0.27809 0.159459,-0.27809 0.08491,0 0.347335,0.24607 0.975202,0.9144 0.472468,0.50292 0.883305,0.9144 0.912974,0.9144 0.143321,0 1.700983,-3.01836 1.698061,-3.29042 -6.4e-4,-0.0597 -0.527727,-0.41886 -1.646124,-1.12176 -0.904851,-0.56869 -1.670236,-1.05904 -1.700858,-1.08966 -0.07798,-0.078 -0.06942,-0.35275 0.01457,-0.46761 0.161115,-0.22034 0.328252,-0.14405 2.00352,0.91449 1.346476,0.85079 1.601533,0.99453 1.658575,0.93468 0.144175,-0.15126 0.807701,-2.14854 0.779288,-2.34573 -0.01351,-0.0937 -0.204941,-0.18092 -1.303874,-0.59383 -1.361254,-0.51146 -1.480463,-0.58283 -1.29066,-0.77263 0.09898,-0.099 0.107834,-0.0966 1.346844,0.36122 0.685964,0.25347 1.292955,0.46085 1.348868,0.46085 0.08779,0 0.119746,-0.0779 0.234288,-0.5715 0.172671,-0.74403 0.382606,-1.81132 0.384116,-1.9528 6.55e-4,-0.0612 -0.02027,-0.12457 -0.04651,-0.14078 -0.02623,-0.0162 -0.866338,-0.17893 -1.8669,-0.3616 -1.24105,-0.22657 -1.859566,-0.36101 -1.946204,-0.42304 -0.223659,-0.16013 -0.178962,-0.52937 0.0717,-0.59229 0.06576,-0.0165 0.95795,0.12365 1.982645,0.31145 1.085823,0.19901 1.881305,0.32254 1.906763,0.29611 0.07907,-0.0821 0.270464,-2.69042 0.199684,-2.72134 -0.01132,-0.005 -0.489218,-0.0221 -1.061988,-0.0381 l -1.0414,-0.0291 -0.01607,-0.13967 c -0.02422,-0.21051 0.128469,-0.24133 1.195804,-0.24133 h 0.944518 l -0.03588,-0.9525 c -0.04185,-1.11081 -0.09143,-1.61748 -0.165535,-1.69158 -0.0369,-0.0369 -0.623202,0.0568 -1.923672,0.30745 -1.028829,0.19828 -1.927324,0.35366 -1.996655,0.34528 -0.06933,-0.008 -0.172752,-0.0781 -0.229823,-0.15484 -0.127644,-0.17173 -0.07333,-0.38737 0.1203,-0.4776 0.0692,-0.0322 0.969951,-0.22035 2.001667,-0.41801 1.031716,-0.19766 1.898903,-0.38243 1.927082,-0.41061 0.08614,-0.0861 -0.370293,-2.49249 -0.499452,-2.63312 -0.04872,-0.053 -0.309581,0.0379 -1.351726,0.47148 -0.742181,0.30876 -1.345361,0.53114 -1.418352,0.52293 -0.09562,-0.0108 -0.130902,-0.0481 -0.142795,-0.15107 -0.01951,-0.16903 -0.0688,-0.14287 1.463595,-0.7765 0.65659,-0.27149 1.2258,-0.52421 1.264912,-0.56159 0.08149,-0.0779 0.03682,-0.26926 -0.302384,-1.29533 -0.337219,-1.02008 -0.405449,-1.17819 -0.497972,-1.15396 -0.04596,0.012 -0.785708,0.47127 -1.643893,1.02052 -0.975928,0.62462 -1.608564,0.99866 -1.6891,0.99866 -0.296731,0 -0.440096,-0.39163 -0.217663,-0.59459 0.06287,-0.0574 0.78867,-0.53362 1.6129,-1.05835 0.82423,-0.52474 1.54256,-0.99501 1.596289,-1.04507 0.08626,-0.0803 0.09081,-0.11396 0.03887,-0.28732 -0.07114,-0.237464 -1.163606,-2.428814 -1.379823,-2.767774 -0.08466,-0.13272 -0.184936,-0.2413 -0.222842,-0.2413 -0.03791,0 -0.413012,0.37147 -0.833568,0.8255 -1.024727,1.10627 -1.096558,1.17294 -1.221148,1.1334 -0.140235,-0.0445 -0.17904,-0.17413 -0.09052,-0.30236 0.04068,-0.0589 0.486969,-0.55237 0.991752,-1.09653 0.504784,-0.54416 0.917789,-1.00846 0.917789,-1.03177 0,-0.0763 -0.667745,-1.044191 -0.739302,-1.07165 -0.04597,-0.01764 -0.469525,0.491812 -1.242593,1.4946 -1.255047,1.62798 -1.307349,1.6776 -1.565827,1.4855 -0.300656,-0.22345 -0.288807,-0.2449 1.206077,-2.18401 0.845022,-1.096124 1.413948,-1.790641 1.481261,-1.808243 0.206189,-0.05392 0.344066,0.06138 0.759186,0.634888 2.44453,3.377215 4.18432,8.050519 4.601447,12.360069 0.170275,1.75917 0.146655,4.15506 -0.05714,5.79794 -0.514661,4.14877 -2.017179,8.24176 -4.270789,11.63398 -0.262613,0.3953 -0.54372,0.78964 -0.62468,0.8763 -0.19054,0.20398 -0.394036,0.21033 -0.572791,0.0179 z m -5.303591,-2.24631 c -0.347092,-0.14042 -0.506564,-0.641 -0.465086,-1.45991 0.04368,-0.86249 0.246647,-1.13248 0.851344,-1.13248 0.297006,0 0.326884,0.0112 0.506133,0.1905 0.16563,0.16564 0.198879,0.24021 0.25473,0.57135 0.0856,0.5075 0.03991,1.20647 -0.09739,1.4901 -0.057,0.11774 -0.170507,0.25358 -0.252246,0.30186 -0.158183,0.0934 -0.608066,0.1152 -0.797485,0.0386 z m 0.641958,-0.25709 c 0.175019,-0.0937 0.265358,-0.35438 0.290705,-0.83895 0.02808,-0.53693 -0.0485,-0.96269 -0.202699,-1.12682 -0.15207,-0.16187 -0.53956,-0.16253 -0.723486,-10e-4 -0.169648,0.14878 -0.250349,0.57689 -0.218174,1.15738 0.02479,0.44722 0.116508,0.71222 0.279339,0.80705 0.11606,0.0676 0.45001,0.0691 0.574315,0.003 z m 21.953405,0.25848 c -0.3411,-0.0853 -0.53673,-0.40398 -0.59428,-0.96818 -0.0404,-0.3965 0.0418,-1.10791 0.15286,-1.32273 0.13309,-0.25736 0.3545,-0.36205 0.72202,-0.34137 0.26767,0.0151 0.3406,0.0408 0.47176,0.16644 0.2366,0.22668 0.31776,0.57957 0.29605,1.28722 -0.0197,0.64278 -0.1036,0.90121 -0.35132,1.08245 -0.14913,0.10911 -0.46885,0.15322 -0.69709,0.0962 z m 0.59737,-0.36855 c 0.0572,-0.0614 0.12651,-0.19281 0.15409,-0.2921 0.0658,-0.23677 0.0644,-1.09436 -0.002,-1.33392 -0.0939,-0.33809 -0.44594,-0.49062 -0.78053,-0.33817 -0.2199,0.10019 -0.28699,0.3306 -0.28956,0.99441 -0.003,0.88073 0.0976,1.08135 0.54462,1.08135 0.21216,0 0.29168,-0.0238 0.37349,-0.11157 z m -2.8832,-4.11435 c -0.0443,-0.0443 -0.0616,-0.35809 -0.0616,-1.11824 0,-0.72933 -0.0172,-1.05664 -0.0554,-1.05664 -0.0305,0 -0.14889,0.08 -0.26314,0.1778 -0.23091,0.19765 -0.39263,0.23149 -0.39263,0.0821 0,-0.14889 0.635,-0.66635 0.81772,-0.66635 h 0.14919 l -0.0136,1.30389 c -0.0134,1.28931 -0.0326,1.42532 -0.18056,1.27739 z m -17.403171,-0.15558 c -0.01685,-0.0629 -0.03094,-0.553 -0.03133,-1.0892 -4.06e-4,-0.53619 -0.01959,-0.98658 -0.04268,-1.00085 -0.02309,-0.0143 -0.149932,0.0632 -0.281859,0.17226 -0.239253,0.19771 -0.388251,0.22013 -0.386391,0.0582 0.0013,-0.11172 0.671186,-0.66767 0.804528,-0.66767 0.05794,0 0.129004,0.0442 0.157927,0.0983 0.05628,0.10516 0.07426,2.2287 0.02057,2.42904 -0.01711,0.0639 -0.07025,0.1143 -0.120381,0.1143 -0.05013,0 -0.103272,-0.0504 -0.120382,-0.1143 z m 16.045271,-4.89767 c -0.0661,-0.0661 -0.0768,-0.13476 -0.0495,-0.31683 0.0592,-0.39491 0.23179,-0.61792 0.74507,-0.96282 0.39539,-0.26569 0.52468,-0.51157 0.4168,-0.7927 -0.0808,-0.21059 -0.49322,-0.28891 -0.81448,-0.15468 -0.25634,0.10711 -0.37317,0.0984 -0.37317,-0.0279 0,-0.23898 0.78404,-0.39861 1.11564,-0.22713 0.24547,0.12693 0.35756,0.31465 0.35756,0.59877 0,0.3481 -0.12606,0.53003 -0.58906,0.8501 -0.39001,0.26961 -0.5788,0.49537 -0.57915,0.69252 -2.5e-4,0.14127 0.11485,0.16947 0.69531,0.17033 0.48559,7.2e-4 0.62152,0.0575 0.44555,0.1862 -0.066,0.0482 -0.26992,0.0685 -0.68993,0.0685 -0.48794,0 -0.61159,-0.0153 -0.68063,-0.0844 z m -15.563339,-0.0117 c -0.105861,-0.0683 -0.05018,-0.55701 0.08915,-0.78244 0.06242,-0.101 0.29466,-0.31058 0.51608,-0.46574 0.543089,-0.38055 0.669298,-0.63319 0.453419,-0.90764 -0.145305,-0.18472 -0.406944,-0.22391 -0.739732,-0.11079 -0.146456,0.0498 -0.304226,0.076 -0.3506,0.0582 -0.222048,-0.0852 0.141249,-0.33015 0.552657,-0.37262 0.517385,-0.0534 0.895477,0.24587 0.895477,0.70878 0,0.22184 -0.164704,0.46819 -0.45778,0.68471 -0.475798,0.35151 -0.622922,0.49169 -0.693596,0.66083 -0.117628,0.28153 -0.04855,0.31799 0.602329,0.31799 0.547653,0 0.555866,0.002 0.53988,0.1143 -0.01578,0.11108 -0.03487,0.11466 -0.676633,0.12703 -0.36322,0.007 -0.692013,-0.008 -0.73065,-0.0326 z m 15.395269,-5.36613 c -0.11624,-0.0505 -0.16337,-0.10139 -0.15101,-0.16311 0.0191,-0.0952 0.0782,-0.0995 0.50447,-0.0365 0.59981,0.0887 1.03589,-0.38468 0.76018,-0.8252 -0.0975,-0.15582 -0.20903,-0.20822 -0.62156,-0.29212 -0.22548,-0.0459 -0.20185,-0.15019 0.11305,-0.49909 0.16525,-0.18309 0.30045,-0.35533 0.30045,-0.38274 0,-0.0842 -0.14315,-0.11152 -0.58536,-0.11152 -0.43253,0 -0.54056,-0.0453 -0.42879,-0.18002 0.0477,-0.0574 0.20112,-0.074 0.68602,-0.074 0.34354,0 0.66078,0.0139 0.70497,0.0308 0.15962,0.0613 0.0876,0.27532 -0.19904,0.59213 -0.15367,0.16981 -0.2794,0.32741 -0.2794,0.35021 0,0.0228 0.0754,0.0729 0.16747,0.11143 0.34613,0.14462 0.54396,0.53243 0.47074,0.92274 -0.0427,0.22749 -0.32268,0.51079 -0.57375,0.58052 -0.26745,0.0743 -0.66812,0.0634 -0.86844,-0.0236 z m -15.484814,-0.006 c -0.158809,-0.0354 -0.304454,-0.20968 -0.234041,-0.28009 0.04065,-0.0406 0.145846,-0.038 0.385796,0.01 0.293357,0.0583 0.355821,0.0557 0.563757,-0.0237 0.385211,-0.14711 0.504353,-0.53895 0.254249,-0.83618 -0.10011,-0.11897 -0.198967,-0.1679 -0.4318,-0.21371 -0.334307,-0.0658 -0.387666,-0.15632 -0.194711,-0.33041 0.05899,-0.0532 0.199963,-0.20737 0.313271,-0.34254 0.258618,-0.30852 0.224398,-0.33661 -0.411359,-0.33766 -0.461721,-7.6e-4 -0.473032,-0.004 -0.4572,-0.11508 0.01582,-0.11137 0.03404,-0.11466 0.712187,-0.12841 0.663387,-0.0135 0.698639,-0.009 0.753319,0.0931 0.04764,0.089 0.03499,0.13946 -0.07461,0.29763 -0.07259,0.10474 -0.200126,0.25573 -0.283419,0.33553 -0.08329,0.0798 -0.15144,0.17464 -0.15144,0.21076 0,0.0361 0.09234,0.11277 0.205193,0.17034 0.546296,0.2787 0.54996,1.07017 0.0064,1.38761 -0.16745,0.0978 -0.714563,0.15687 -0.955611,0.10318 z m -0.245131,-4.80275 c -0.01299,-0.037 -0.03007,-0.17012 -0.03795,-0.29585 l -0.01433,-0.2286 -0.454555,-0.0148 c -0.467994,-0.0153 -0.586845,-0.0588 -0.586845,-0.21482 0,-0.0496 0.180283,-0.47543 0.40063,-0.94628 0.31491,-0.67291 0.423603,-0.85955 0.508,-0.87231 0.172004,-0.026 0.137029,0.11042 -0.228116,0.88981 -0.189188,0.40382 -0.324545,0.75591 -0.307587,0.8001 0.03731,0.0972 0.539397,0.11148 0.632913,0.018 0.03353,-0.0335 0.06096,-0.15681 0.06096,-0.27396 0,-0.13411 0.02593,-0.22296 0.07001,-0.23987 0.11381,-0.0437 0.183991,0.0723 0.183991,0.3041 0,0.20216 0.01128,0.21991 0.1651,0.25977 0.222088,0.0575 0.230235,0.22735 0.0127,0.26467 -0.143621,0.0246 -0.153863,0.0422 -0.1778,0.30486 -0.0194,0.21293 -0.04642,0.2827 -0.114454,0.29561 -0.04898,0.009 -0.09968,-0.0134 -0.112672,-0.0504 z m 17.931105,-0.15615 c -0.0121,-0.0349 -0.0285,-0.15494 -0.0365,-0.2667 l -0.0145,-0.2032 -0.4659,-0.0254 c -0.25625,-0.014 -0.48262,-0.0422 -0.50305,-0.0628 -0.0912,-0.0918 -0.003,-0.37354 0.35477,-1.13102 0.28998,-0.61431 0.40872,-0.81676 0.48623,-0.82903 0.1689,-0.0267 0.1268,0.13856 -0.22765,0.89387 -0.18161,0.387 -0.3302,0.72972 -0.3302,0.7616 0,0.0785 0.31464,0.13235 0.5334,0.0913 0.16955,-0.0318 0.17784,-0.0433 0.17858,-0.24696 9.2e-4,-0.25232 0.0605,-0.36695 0.169,-0.3253 0.0522,0.02 0.0837,0.11171 0.094,0.2741 0.0145,0.22639 0.0275,0.24751 0.1807,0.29261 0.10553,0.0311 0.1651,0.081 0.1651,0.13825 0,0.0585 -0.0573,0.10441 -0.1651,0.13219 -0.15668,0.0404 -0.16589,0.056 -0.18046,0.30626 -0.013,0.22373 -0.0306,0.2637 -0.11589,0.2637 -0.0553,0 -0.11045,-0.0286 -0.12257,-0.0635 z M 88.506918,99.800146 c -0.13699,-0.0915 -0.01919,-0.19861 0.257788,-0.23444 0.583616,-0.0755 0.8924,-0.35164 0.838931,-0.75028 -0.04592,-0.34239 -0.297259,-0.49105 -0.835316,-0.49407 -0.1346,-7.6e-4 -0.218384,-0.0251 -0.222496,-0.0647 -0.02348,-0.226 0.02599,-0.93814 0.06881,-0.9906 0.03558,-0.0436 0.221814,-0.0635 0.594244,-0.0635 0.544434,0 0.684437,0.0409 0.629535,0.18399 -0.02,0.0521 -0.140742,0.07 -0.47241,0.07 -0.517128,0 -0.573684,0.0371 -0.54999,0.3608 l 0.01581,0.2159 0.284754,0.0566 c 0.496189,0.0986 0.756096,0.36594 0.756456,0.77804 3.55e-4,0.39915 -0.226149,0.71929 -0.612941,0.86635 -0.20284,0.0771 -0.674571,0.1184 -0.753172,0.0659 z m 22.913732,-0.16471 c 0.0151,-0.10667 0.0524,-0.12578 0.30794,-0.15755 0.51901,-0.0645 0.80143,-0.2971 0.80143,-0.65993 0,-0.38696 -0.14475,-0.5021 -0.6858,-0.54549 l -0.3556,-0.0285 0.001,-0.4572 c 0.002,-0.66867 -0.0331,-0.635 0.65911,-0.635 0.49172,0 0.59248,0.0132 0.6186,0.0813 0.0499,0.13011 -0.0809,0.17106 -0.54917,0.17189 -0.41156,7.4e-4 -0.44046,0.008 -0.46921,0.11508 -0.0885,0.33026 -0.007,0.4946 0.24484,0.49642 0.21,10e-4 0.55455,0.16443 0.65747,0.31088 0.14007,0.19931 0.19356,0.47715 0.13426,0.69737 -0.11513,0.42756 -0.46443,0.66624 -1.03496,0.70719 -0.34291,0.0246 -0.34715,0.0234 -0.3302,-0.0965 z"
       id="path826"
       inkscape:connector-curvature="0" />
  </g>
</svg>
