<?xml version="1.0" encoding="UTF-8" standalone="no"?>
<!-- Created with Inkscape (http://www.inkscape.org/) -->

<svg
   xmlns:dc="http://purl.org/dc/elements/1.1/"
   xmlns:cc="http://creativecommons.org/ns#"
   xmlns:rdf="http://www.w3.org/1999/02/22-rdf-syntax-ns#"
   xmlns:svg="http://www.w3.org/2000/svg"
   xmlns="http://www.w3.org/2000/svg"
   xmlns:sodipodi="http://sodipodi.sourceforge.net/DTD/sodipodi-0.dtd"
   xmlns:inkscape="http://www.inkscape.org/namespaces/inkscape"
   width="47.483582mm"
   height="2.23422mm"
   viewBox="0 0 47.483582 2.23422"
   version="1.1"
   id="svg8"
   inkscape:version="0.92.3 (2405546, 2018-03-11)"
   sodipodi:docname="frontal_internal_A_A.svg">
  <defs
     id="defs2" />
  <sodipodi:namedview
     id="base"
     pagecolor="#ffffff"
     bordercolor="#666666"
     borderopacity="1.0"
     inkscape:pageopacity="0.0"
     inkscape:pageshadow="2"
     inkscape:zoom="1.4"
     inkscape:cx="-31.299597"
     inkscape:cy="293.68699"
     inkscape:document-units="mm"
     inkscape:current-layer="layer1"
     showgrid="false"
     inkscape:window-width="3840"
     inkscape:window-height="2040"
     inkscape:window-x="0"
     inkscape:window-y="0"
     inkscape:window-maximized="1" />
  <metadata
     id="metadata5">
    <rdf:RDF>
      <cc:Work
         rdf:about="">
        <dc:format>image/svg+xml</dc:format>
        <dc:type
           rdf:resource="http://purl.org/dc/dcmitype/StillImage" />
        <dc:title></dc:title>
      </cc:Work>
    </rdf:RDF>
  </metadata>
  <g
     inkscape:label="Livello 1"
     inkscape:groupmode="layer"
     id="layer1"
     transform="translate(-74.47754,-226.13547)">
    <path
       style="fill:#000000;stroke-width:0.0526971"
       d="m 120.22318,228.27889 c -0.25017,-0.12821 -0.40863,-0.38518 -0.45211,-0.73317 -0.0953,-0.76265 0.20022,-1.33656 0.6882,-1.33656 0.35687,0 0.67712,0.37266 0.48519,0.56459 -0.0814,0.0814 -0.10562,0.0771 -0.35011,-0.063 -0.26368,-0.15107 -0.44505,0.0919 -0.44089,0.59065 0.003,0.4082 0.10756,0.59369 0.33337,0.59369 0.13741,0 0.15688,-0.0187 0.15688,-0.15047 0,-0.12459 -0.0294,-0.15887 -0.17127,-0.19937 -0.1872,-0.0535 -0.25555,-0.22826 -0.14251,-0.36447 0.0776,-0.0935 0.52937,-0.10296 0.61942,-0.0129 0.0396,0.0396 0.0632,0.23628 0.0632,0.52576 0,0.42189 -0.0104,0.46922 -0.11857,0.53888 -0.20441,0.13164 -0.46883,0.14993 -0.67084,0.0464 z m 1.29379,0.008 c -0.0455,-0.0455 -0.0828,-0.12685 -0.0828,-0.18068 0,-0.0538 0.0373,-0.13513 0.0828,-0.18068 0.0455,-0.0455 0.12685,-0.0828 0.18068,-0.0828 0.0538,0 0.13513,0.0373 0.18067,0.0828 0.0455,0.0456 0.0828,0.12685 0.0828,0.18068 0,0.0538 -0.0373,0.13513 -0.0828,0.18068 -0.0455,0.0455 -0.12684,0.0828 -0.18067,0.0828 -0.0538,0 -0.13513,-0.0373 -0.18068,-0.0828 z m -8.51434,-0.0214 c -0.0639,-0.0403 -0.0823,-0.2166 -0.0957,-0.9183 -0.011,-0.57125 0.004,-0.90618 0.0423,-0.97873 0.0549,-0.1025 0.097,-0.10923 0.59635,-0.0953 0.51578,0.0144 0.53801,0.0199 0.55454,0.13646 0.0295,0.20798 -0.0775,0.27376 -0.44525,0.27376 h -0.33608 v 0.15809 c 0,0.15577 0.004,0.15809 0.2793,0.15809 0.30407,0 0.40576,0.0616 0.40576,0.24582 0,0.15431 -0.14425,0.22845 -0.44446,0.22845 -0.23984,0 -0.2406,5.9e-4 -0.2406,0.18444 v 0.18444 h 0.2933 c 0.16131,0 0.33917,0.0246 0.39523,0.0546 0.11394,0.061 0.1355,0.25968 0.0387,0.35649 -0.0761,0.0761 -0.92617,0.0857 -1.0434,0.0118 z m 1.59347,-0.01 c -0.0908,-0.0908 -0.0927,-1.89279 -0.002,-1.98343 0.083,-0.083 0.38324,-0.0813 0.45253,0.003 0.0299,0.0362 0.0772,0.14886 0.10498,0.25031 l 0.0506,0.18444 0.0595,-0.15809 c 0.10286,-0.27312 0.14451,-0.31572 0.32607,-0.33351 0.28825,-0.0282 0.3132,0.054 0.3132,1.0321 0,0.89426 -0.0341,1.06676 -0.21079,1.06676 -0.15204,0 -0.21046,-0.16108 -0.21376,-0.58938 -0.003,-0.36786 -0.006,-0.3771 -0.0659,-0.20172 -0.0671,0.19619 -0.20319,0.26098 -0.32892,0.15663 -0.0421,-0.0349 -0.0765,-0.10802 -0.0765,-0.16244 0,-0.0544 -0.0228,-0.0989 -0.0506,-0.0989 -0.0278,0 -0.0575,0.19564 -0.0659,0.43475 -0.0137,0.38939 -0.0264,0.43633 -0.12131,0.44994 -0.0583,0.008 -0.13538,-0.0142 -0.17127,-0.0501 z m 1.84238,-0.002 c -0.0443,-0.0443 -0.0632,-0.33375 -0.0632,-0.96436 0,-0.6306 0.019,-0.9201 0.0632,-0.96435 0.0406,-0.0406 0.24804,-0.0632 0.57866,-0.0632 0.50655,0 0.516,0.002 0.54867,0.13243 0.053,0.21128 -0.0528,0.28277 -0.44417,0.30002 -0.33951,0.015 -0.35172,0.0203 -0.36784,0.16039 -0.0164,0.14254 -0.0119,0.14492 0.27289,0.14492 0.19298,0 0.31719,0.0276 0.37238,0.0828 0.20401,0.20401 0.0274,0.39146 -0.36888,0.39146 h -0.28607 v 0.18444 0.18444 h 0.33877 c 0.35555,0 0.50439,0.0757 0.50439,0.25671 0,0.17667 -0.11394,0.21757 -0.60602,0.21757 -0.30272,0 -0.50286,-0.0233 -0.54278,-0.0632 z m 1.6992,-0.004 c -0.0143,-0.0372 -0.0195,-0.4937 -0.0115,-1.01442 l 0.0144,-0.94678 0.34253,-0.0169 c 0.40456,-0.02 0.64432,0.0812 0.74004,0.31228 0.0829,0.20023 0.0232,0.58017 -0.11972,0.76192 l -0.11209,0.1425 0.14454,0.25714 c 0.18028,0.3207 0.17147,0.53856 -0.0227,0.56119 -0.11834,0.0138 -0.15842,-0.0308 -0.34253,-0.38148 -0.11468,-0.21841 -0.22629,-0.39737 -0.24803,-0.39768 -0.0217,-3.2e-4 -0.0395,0.14883 -0.0395,0.33142 0,0.18796 -0.0274,0.35943 -0.0632,0.39523 -0.0834,0.0834 -0.2495,0.0808 -0.28221,-0.004 z m 0.64135,-1.18472 c 0.0323,-0.0213 0.075,-0.0906 0.0948,-0.15408 0.0397,-0.12718 -0.0844,-0.22717 -0.2818,-0.22717 -0.0919,0 -0.10885,0.0329 -0.10885,0.21079 0,0.1837 0.0152,0.21068 0.11856,0.20998 0.0652,-4.2e-4 0.14502,-0.0182 0.17734,-0.0395 z m -44.23474,1.13642 c -0.089,-0.089 -0.089,-1.89245 0,-1.98141 0.0348,-0.0348 0.12748,-0.0632 0.206,-0.0632 0.13057,0 0.16231,0.0452 0.37152,0.52944 l 0.22874,0.52943 0.0264,-0.48441 c 0.0275,-0.50573 0.0913,-0.63161 0.28267,-0.55815 0.0755,0.029 0.0862,0.15365 0.0862,1.00317 0,1.05041 -0.022,1.13398 -0.28155,1.06884 -0.0979,-0.0246 -0.16805,-0.1344 -0.32485,-0.50833 -0.11002,-0.26236 -0.22015,-0.48944 -0.24474,-0.50464 -0.0246,-0.0152 -0.0447,0.18245 -0.0447,0.43921 0,0.45263 -0.0437,0.59332 -0.18444,0.59332 -0.0319,0 -0.0864,-0.0285 -0.1212,-0.0632 z m 1.96689,-0.11621 c -0.2168,-0.22987 -0.30911,-0.56327 -0.28151,-1.01673 0.0364,-0.5981 0.2715,-0.93278 0.65522,-0.93278 0.39142,0 0.69438,0.56483 0.63778,1.18905 -0.072,0.79446 -0.60296,1.19362 -1.01149,0.76046 z m 0.60998,-0.66097 c 0.081,-0.36038 -0.0542,-0.84589 -0.23544,-0.84589 -0.30083,0 -0.39997,0.89806 -0.12904,1.16899 0.10675,0.10675 0.10813,0.10678 0.21082,0.004 0.0569,-0.0568 0.126,-0.20408 0.15366,-0.32718 z m 0.99599,0.78894 c -0.0639,-0.0403 -0.0823,-0.21743 -0.0958,-0.92516 -0.0203,-1.05936 0.005,-1.13192 0.40003,-1.13009 0.29921,0.001 0.66472,0.1562 0.75146,0.31827 0.089,0.16635 0.0323,0.55719 -0.1085,0.74765 l -0.11848,0.16025 0.13897,0.28336 c 0.15828,0.32273 0.17257,0.45101 0.0606,0.54395 -0.12672,0.10516 -0.21414,0.0306 -0.42753,-0.36444 -0.11074,-0.20502 -0.22006,-0.37277 -0.24295,-0.37277 -0.0229,0 -0.0416,0.14059 -0.0416,0.31242 0,0.39172 -0.11834,0.55137 -0.31618,0.42656 z m 0.68069,-1.33182 c 0.059,-0.15583 -0.0213,-0.25031 -0.21287,-0.25031 -0.13817,0 -0.15164,0.0164 -0.15164,0.18444 0,0.17024 0.0123,0.18444 0.15979,0.18444 0.11727,0 0.17175,-0.0316 0.20472,-0.11857 z m 0.95816,1.31057 c -0.0417,-0.0503 -0.0559,-0.37142 -0.046,-1.04077 l 0.0144,-0.96803 h 0.23564 c 0.2305,0 0.23751,0.005 0.32161,0.23273 l 0.086,0.23274 0.0736,-0.23274 c 0.0727,-0.2298 0.0766,-0.23273 0.31076,-0.23273 h 0.23713 l 0.0143,0.98067 c 0.0124,0.84755 0.003,0.99021 -0.0703,1.05089 -0.0614,0.0509 -0.10869,0.0551 -0.1724,0.015 -0.068,-0.0428 -0.0916,-0.15472 -0.1048,-0.49756 l -0.017,-0.44238 -0.0889,0.18444 c -0.0573,0.11882 -0.12605,0.18444 -0.1933,0.18444 -0.067,0 -0.13671,-0.0661 -0.19459,-0.18444 l -0.0902,-0.18444 -0.003,0.42422 c -0.002,0.41268 -0.0504,0.55068 -0.19106,0.55068 -0.0341,0 -0.0892,-0.0327 -0.12242,-0.0727 z m 1.73094,-0.01 c -0.057,-0.0686 -0.0347,-0.22985 0.13266,-0.96172 0.1106,-0.4836 0.22232,-0.92077 0.24827,-0.97149 0.0558,-0.10899 0.37137,-0.12739 0.45205,-0.0264 0.0552,0.0692 0.43458,1.66591 0.43458,1.82917 0,0.052 -0.0376,0.12571 -0.0835,0.16381 -0.12618,0.10473 -0.24964,-0.002 -0.31591,-0.27221 -0.0528,-0.21555 -0.0703,-0.23322 -0.24549,-0.24815 -0.1756,-0.0149 -0.19116,-0.004 -0.22499,0.15809 -0.0746,0.35734 -0.25218,0.5042 -0.3977,0.32885 z m 0.68789,-1.02108 c 0,-0.0562 -0.0237,-0.11694 -0.0527,-0.13485 -0.029,-0.0179 -0.0527,-0.009 -0.0527,0.0189 0,0.0283 -0.0144,0.089 -0.032,0.13485 -0.021,0.0547 -0.003,0.0834 0.0527,0.0834 0.0487,0 0.0847,-0.0435 0.0847,-0.10229 z m 1.11718,0.9876 c -0.0443,-0.0443 -0.0632,-0.33375 -0.0632,-0.96436 0,-0.92988 0.0209,-1.02759 0.21947,-1.02759 0.16162,0 0.20211,0.18406 0.20211,0.91873 v 0.71488 h 0.39337 c 0.33944,0 0.40111,0.0144 0.44978,0.10539 0.0401,0.0749 0.0401,0.13591 0,0.21079 -0.0508,0.0949 -0.11034,0.10539 -0.59733,0.10539 -0.35046,0 -0.56319,-0.0223 -0.60416,-0.0632 z"
       id="path890"
       inkscape:connector-curvature="0" />
  </g>
</svg>
