<?xml version="1.0" encoding="UTF-8" standalone="no"?>
<!-- Created with Inkscape (http://www.inkscape.org/) -->

<svg
   xmlns:dc="http://purl.org/dc/elements/1.1/"
   xmlns:cc="http://creativecommons.org/ns#"
   xmlns:rdf="http://www.w3.org/1999/02/22-rdf-syntax-ns#"
   xmlns:svg="http://www.w3.org/2000/svg"
   xmlns="http://www.w3.org/2000/svg"
   xmlns:sodipodi="http://sodipodi.sourceforge.net/DTD/sodipodi-0.dtd"
   xmlns:inkscape="http://www.inkscape.org/namespaces/inkscape"
   width="7.8028407mm"
   height="2.4701965mm"
   viewBox="0 0 7.8028407 2.4701965"
   version="1.1"
   id="svg8"
   inkscape:version="0.92.3 (2405546, 2018-03-11)"
   sodipodi:docname="back_plane_2A2_Blue.svg">
  <defs
     id="defs2" />
  <sodipodi:namedview
     id="base"
     pagecolor="#ffffff"
     bordercolor="#666666"
     borderopacity="1.0"
     inkscape:pageopacity="0.0"
     inkscape:pageshadow="2"
     inkscape:zoom="5.6"
     inkscape:cx="-21.887502"
     inkscape:cy="-27.099794"
     inkscape:document-units="mm"
     inkscape:current-layer="layer1"
     showgrid="false"
     inkscape:window-width="2560"
     inkscape:window-height="1380"
     inkscape:window-x="3840"
     inkscape:window-y="0"
     inkscape:window-maximized="1" />
  <metadata
     id="metadata5">
    <rdf:RDF>
      <cc:Work
         rdf:about="">
        <dc:format>image/svg+xml</dc:format>
        <dc:type
           rdf:resource="http://purl.org/dc/dcmitype/StillImage" />
        <dc:title></dc:title>
      </cc:Work>
    </rdf:RDF>
  </metadata>
  <g
     inkscape:label="Livello 1"
     inkscape:groupmode="layer"
     id="layer1"
     transform="translate(-60.271989,-90.20124)">
    <path
       style="fill:#000000;stroke-width:0.04729981"
       d=""
       id="path837"
       inkscape:connector-curvature="0" />
    <path
       style="fill:#000000;stroke-width:0.04729981"
       d="m 60.27203,92.199575 c -9.7e-4,-0.3134 0.0154,-0.47717 0.0458,-0.45839 0.026,0.0161 0.0473,0.0628 0.0473,0.10373 0,0.16209 0.11654,0.44926 0.22723,0.55995 0.301,0.301 0.6514,-0.0587 0.52018,-0.53393 -0.0361,-0.13063 -0.0883,-0.17687 -0.311,-0.27536 -0.1472,-0.0651 -0.3057,-0.15281 -0.35222,-0.19491 -0.21504,-0.1946 -0.21753,-0.80341 -0.004,-1.05679 0.14455,-0.17179 0.37927,-0.19132 0.51372,-0.0427 l 0.088,0.0972 0.0839,-0.10901 c 0.0821,-0.10674 0.0839,-0.0999 0.0849,0.32851 10e-4,0.44452 -0.0576,0.58265 -0.11057,0.26015 -0.098,-0.59711 -0.64518,-0.72749 -0.64518,-0.15372 0,0.25805 0.0665,0.33634 0.44129,0.51921 0.14633,0.0714 0.2684,0.16961 0.30392,0.24451 0.15882,0.33492 0.10675,0.84821 -0.1078,1.06276 -0.1524,0.1524 -0.39316,0.15103 -0.55955,-0.003 -0.0688,-0.0638 -0.12516,-0.0998 -0.12516,-0.08 0,0.0198 -0.0312,0.0773 -0.0694,0.12781 -0.0625,0.0827 -0.0696,0.0433 -0.071,-0.39579 z m 6.76237,-0.009 c 0,-0.26015 0.0179,-0.473 0.0398,-0.473 0.0219,0 0.0669,0.12115 0.10002,0.26921 0.0995,0.44456 0.39842,0.65887 0.6158,0.44149 0.12498,-0.12498 0.16568,-0.30862 0.11439,-0.51616 -0.0359,-0.14509 -0.0814,-0.18996 -0.3017,-0.29726 -0.14271,-0.0695 -0.31831,-0.19223 -0.39023,-0.27272 -0.1121,-0.12547 -0.13075,-0.18694 -0.13075,-0.43092 0,-0.32437 0.0899,-0.58146 0.22938,-0.65612 0.1475,-0.0789 0.32858,-0.0608 0.43281,0.0435 0.11827,0.11827 0.12336,0.11791 0.16516,-0.0118 0.0326,-0.10115 0.0361,-0.0994 0.0709,0.0355 0.0544,0.21092 0.0552,0.73315 0.001,0.73315 -0.0256,0 -0.0712,-0.0977 -0.1013,-0.2172 -0.0637,-0.25278 -0.24687,-0.4923 -0.37658,-0.4923 -0.15096,0 -0.27959,0.16992 -0.27959,0.36936 0,0.23654 0.0669,0.31891 0.40462,0.49825 0.33536,0.17808 0.44659,0.35993 0.4467,0.73028 1.9e-4,0.59671 -0.38534,0.90679 -0.74799,0.60164 l -0.14042,-0.11816 -0.0297,0.11816 c -0.066,0.26306 -0.12245,0.0995 -0.12245,-0.35484 z m -5.62868,0.35794 c 0,-0.0373 0.0403,-0.0806 0.0895,-0.0962 0.13169,-0.0418 0.14565,-0.14957 0.14636,-1.12942 6.2e-4,-0.8518 -0.004,-0.89239 -0.094,-0.91604 -0.052,-0.0136 -0.0946,-0.0553 -0.0946,-0.0926 0,-0.0522 0.0574,-0.0646 0.24832,-0.0536 l 0.24833,0.0143 0.16606,0.78885 c 0.0913,0.43386 0.17737,0.80014 0.19117,0.81395 0.0138,0.0138 0.0999,-0.34118 0.19127,-0.78885 l 0.16617,-0.81395 0.24574,-0.0143 c 0.19671,-0.0114 0.24573,3.3e-4 0.24573,0.0591 0,0.0419 -0.0406,0.0734 -0.0946,0.0734 -0.0917,0 -0.0946,0.0315 -0.0946,1.02137 0,0.9816 0.004,1.02234 0.0946,1.04612 0.052,0.0136 0.0946,0.0542 0.0946,0.0902 0,0.049 -0.0772,0.0654 -0.30745,0.0654 -0.23023,0 -0.30745,-0.0164 -0.30745,-0.0654 0,-0.036 0.0426,-0.0766 0.0946,-0.0902 0.0908,-0.0238 0.0944,-0.0625 0.0899,-0.96334 l -0.005,-0.9386 -0.20752,1.01235 c -0.2002,0.97667 -0.22985,1.08722 -0.27857,1.0385 -0.0123,-0.0124 -0.11834,-0.466 -0.23553,-1.0081 -0.11719,-0.5421 -0.22656,-0.99849 -0.24304,-1.01419 -0.0165,-0.0157 -0.0212,0.37323 -0.0105,0.8643 0.0185,0.85134 0.0242,0.89679 0.12359,0.97723 0.17252,0.1397 0.12677,0.18745 -0.17961,0.18745 -0.2148,0 -0.2838,-0.0165 -0.2838,-0.0678 z m 1.89199,0.002 c 0,-0.036 0.0426,-0.0766 0.0946,-0.0902 0.0909,-0.0238 0.0946,-0.0645 0.0946,-1.04611 0,-0.98984 -0.003,-1.02137 -0.0946,-1.02137 -0.0525,0 -0.0946,-0.0315 -0.0946,-0.0709 0,-0.0563 0.0683,-0.071 0.3311,-0.071 0.25562,0 0.3311,0.0154 0.3311,0.0677 0,0.0372 -0.0479,0.0745 -0.10643,0.0828 l -0.10642,0.0151 v 1.01694 1.01695 l 0.10642,0.0151 c 0.0585,0.008 0.10643,0.0456 0.10643,0.0828 0,0.0522 -0.0755,0.0677 -0.3311,0.0677 -0.25037,0 -0.3311,-0.016 -0.3311,-0.0654 z m 1.0406,0 c 0,-0.036 0.0426,-0.0766 0.0946,-0.0902 0.0909,-0.0238 0.0946,-0.0645 0.0946,-1.04611 0,-0.85365 -0.0111,-1.02137 -0.0676,-1.02137 -0.15478,0 -0.30993,0.3131 -0.31057,0.62672 -1.4e-4,0.0715 -0.0215,0.13008 -0.0476,0.13008 -0.0282,0 -0.0473,-0.18132 -0.0473,-0.44935 v -0.44935 h 0.59125 0.59124 l 4.3e-4,0.20102 c 2.4e-4,0.11057 0.0138,0.31277 0.0302,0.44935 0.0201,0.16773 0.0129,0.24833 -0.0224,0.24833 -0.0288,0 -0.0662,-0.10499 -0.0832,-0.23331 -0.0381,-0.2868 -0.17995,-0.53599 -0.29285,-0.51424 -0.0741,0.0143 -0.0815,0.10771 -0.0815,1.03199 v 1.0163 l 0.10642,0.0151 c 0.0585,0.008 0.10643,0.0456 0.10643,0.0828 0,0.0522 -0.0755,0.0677 -0.3311,0.0677 -0.25037,0 -0.3311,-0.016 -0.3311,-0.0654 z m 1.04059,0 c 0,-0.036 0.0426,-0.0766 0.0946,-0.0902 0.0908,-0.0238 0.0946,-0.0645 0.0946,-1.02689 0,-0.96237 -0.004,-1.00313 -0.0946,-1.02689 -0.052,-0.0136 -0.0946,-0.0542 -0.0946,-0.0902 0,-0.049 0.0772,-0.0654 0.30745,-0.0654 0.23024,0 0.30745,0.0164 0.30745,0.0654 0,0.036 -0.0426,0.0766 -0.0946,0.0902 -0.0858,0.0225 -0.0946,0.0645 -0.0946,0.45487 v 0.43012 h 0.3311 0.3311 v -0.37453 c 0,-0.4362 -0.0247,-0.52416 -0.14696,-0.52416 -0.0493,0 -0.0895,-0.0319 -0.0895,-0.0709 0,-0.0563 0.0683,-0.071 0.3311,-0.071 0.25562,0 0.3311,0.0154 0.3311,0.0677 0,0.0372 -0.0479,0.0745 -0.10643,0.0828 l -0.10642,0.0151 v 1.01694 1.01695 l 0.10642,0.0151 c 0.0585,0.008 0.10643,0.0456 0.10643,0.0828 0,0.0522 -0.0755,0.0677 -0.3311,0.0677 -0.26278,0 -0.3311,-0.0146 -0.3311,-0.071 0,-0.039 0.0403,-0.0709 0.0895,-0.0709 0.12448,0 0.14696,-0.0874 0.14696,-0.57147 v -0.42183 h -0.3311 -0.3311 v 0.47743 c 0,0.43765 0.008,0.47949 0.0946,0.50217 0.052,0.0136 0.0946,0.0542 0.0946,0.0902 0,0.049 -0.0772,0.0654 -0.30745,0.0654 -0.23023,0 -0.30745,-0.0164 -0.30745,-0.0654 z"
       id="path850"
       inkscape:connector-curvature="0" />
  </g>
</svg>
