<?xml version="1.0" encoding="UTF-8" standalone="no"?>
<!-- Created with Inkscape (http://www.inkscape.org/) -->

<svg
   xmlns:dc="http://purl.org/dc/elements/1.1/"
   xmlns:cc="http://creativecommons.org/ns#"
   xmlns:rdf="http://www.w3.org/1999/02/22-rdf-syntax-ns#"
   xmlns:svg="http://www.w3.org/2000/svg"
   xmlns="http://www.w3.org/2000/svg"
   xmlns:sodipodi="http://sodipodi.sourceforge.net/DTD/sodipodi-0.dtd"
   xmlns:inkscape="http://www.inkscape.org/namespaces/inkscape"
   width="36.532059mm"
   height="24.974075mm"
   viewBox="0 0 36.532059 24.974076"
   version="1.1"
   id="svg8"
   inkscape:version="0.92.3 (2405546, 2018-03-11)"
   sodipodi:docname="back_plane_2A1.svg">
  <defs
     id="defs2" />
  <sodipodi:namedview
     id="base"
     pagecolor="#ffffff"
     bordercolor="#666666"
     borderopacity="1.0"
     inkscape:pageopacity="0.0"
     inkscape:pageshadow="2"
     inkscape:zoom="1.4"
     inkscape:cx="111.6878"
     inkscape:cy="20.560985"
     inkscape:document-units="mm"
     inkscape:current-layer="layer1"
     showgrid="false"
     inkscape:window-width="2122"
     inkscape:window-height="1889"
     inkscape:window-x="647"
     inkscape:window-y="103"
     inkscape:window-maximized="0" />
  <metadata
     id="metadata5">
    <rdf:RDF>
      <cc:Work
         rdf:about="">
        <dc:format>image/svg+xml</dc:format>
        <dc:type
           rdf:resource="http://purl.org/dc/dcmitype/StillImage" />
        <dc:title></dc:title>
      </cc:Work>
    </rdf:RDF>
  </metadata>
  <g
     inkscape:label="Livello 1"
     inkscape:groupmode="layer"
     id="layer1"
     transform="translate(-76.519022,-132.33758)">
    <path
       style="fill:#000000;stroke-width:0.04729981"
       d="m 77.542312,157.21363 c -0.0796,-0.0626 -0.12447,-0.14385 -0.12419,-0.22468 7.6e-4,-0.21545 0.2629,-0.59815 0.64205,-0.93732 0.19952,-0.17848 0.4485,-0.40091 0.55328,-0.49427 0.17117,-0.15252 0.19277,-0.19687 0.21265,-0.43649 0.0211,-0.25463 0.0146,-0.27427 -0.14448,-0.43331 -0.30211,-0.30211 -0.62095,-0.20693 -0.82084,0.24506 -0.10163,0.2298 -0.12707,0.25513 -0.24284,0.24179 -0.12071,-0.0139 -0.12913,-0.0296 -0.12661,-0.23528 0.003,-0.24461 0.16933,-0.54744 0.37454,-0.6819 0.63424,-0.41557 1.49374,0.1951 1.35096,0.95986 -0.0634,0.33971 -0.21788,0.55503 -0.63561,0.88607 -0.56348,0.44654 -0.76238,0.72696 -0.56843,0.80139 0.0411,0.0158 0.28518,0.0287 0.54229,0.0287 0.41905,0 0.47271,0.01 0.51809,0.0946 0.036,0.0672 0.036,0.12199 0,0.1892 -0.047,0.0878 -0.099,0.0946 -0.72843,0.0946 -0.6141,0 -0.68952,-0.009 -0.80243,-0.098 z m 33.872108,-5.58174 c -0.0476,-0.0277 -0.0828,-0.10441 -0.0828,-0.18066 0,-0.10314 0.0637,-0.18787 0.28776,-0.38274 0.32449,-0.28223 0.63672,-0.7164 0.59443,-0.82659 -0.0191,-0.0497 -0.0923,-0.0725 -0.23287,-0.0725 -0.47321,0 -0.96674,-0.42006 -1.07808,-0.91758 -0.0466,-0.20836 -0.043,-0.29219 0.0223,-0.51675 0.28198,-0.96998 1.49693,-1.07239 1.99002,-0.16773 0.11457,0.21019 0.13799,0.30754 0.13576,0.56428 -0.003,0.3782 -0.22576,1.08435 -0.47048,1.49321 -0.18187,0.30387 -0.7245,0.88369 -0.92718,0.99072 -0.14916,0.0788 -0.13353,0.0777 -0.23884,0.0163 z m 0.82926,-1.99992 c 0.32889,-0.1392 0.43794,-0.44058 0.29493,-0.81507 -0.10112,-0.26476 -0.29595,-0.39718 -0.58477,-0.39743 -0.25795,-2.3e-4 -0.44736,0.10939 -0.54582,0.31587 -0.15646,0.3281 -0.043,0.71341 0.25764,0.87462 0.19187,0.1029 0.3708,0.10972 0.57802,0.022 z m -34.413758,1.11628 c -0.0445,-0.0491 -0.0814,-0.18994 -0.0901,-0.34292 l -0.0147,-0.25959 -0.51723,-0.0293 c -0.45944,-0.026 -0.52682,-0.0411 -0.60307,-0.13531 -0.0472,-0.0583 -0.0858,-0.15154 -0.0858,-0.20718 0,-0.1555 0.80313,-2.52942 0.88264,-2.60892 0.1042,-0.10421 0.24057,-0.0851 0.32631,0.0458 0.0726,0.11078 0.0603,0.16326 -0.27899,1.18834 -0.1952,0.58984 -0.34367,1.10174 -0.32993,1.13755 0.03,0.0783 0.55999,0.0924 0.60709,0.0162 0.0166,-0.0269 0.0424,-0.20948 0.0572,-0.40578 0.028,-0.36949 0.0899,-0.49134 0.24997,-0.49134 0.1578,0 0.2358,0.18234 0.2358,0.55126 0,0.3249 0.007,0.34577 0.1419,0.44204 0.19452,0.13851 0.1972,0.34737 0.006,0.44638 -0.15843,0.0819 -0.19493,0.15712 -0.19493,0.40156 0,0.28435 -0.22901,0.43117 -0.39186,0.25122 z m 3.35867,-7.50957 c -0.40712,-0.14946 -0.77078,-0.51106 -0.91192,-0.90678 -0.10169,-0.28509 -0.0858,-0.98788 0.031,-1.36917 0.14147,-0.46188 0.41979,-0.97496 0.76713,-1.41423 0.33227,-0.42019 0.9642,-0.99767 1.14005,-1.0418 0.21357,-0.0536 0.42512,0.15561 0.3701,0.36601 -0.0119,0.0453 -0.21309,0.25751 -0.44719,0.47146 -0.47135,0.4308 -0.81818,0.85619 -0.77974,0.95636 0.0172,0.0449 0.14052,0.0721 0.39549,0.0873 0.5881,0.0351 1.02865,0.32239 1.27897,0.83402 0.17688,0.36152 0.18194,0.86112 0.0123,1.21401 -0.16366,0.34046 -0.49322,0.6518 -0.81895,0.77367 -0.31375,0.11739 -0.76254,0.13 -1.03727,0.0291 z m 0.73293,-0.59204 c 0.36484,-0.10133 0.60454,-0.41932 0.60454,-0.80202 0,-0.68957 -0.74895,-1.07001 -1.33993,-0.68065 -0.20406,0.13444 -0.36022,0.42687 -0.36183,0.67754 -0.001,0.21762 0.16394,0.54702 0.33608,0.66959 0.24736,0.17614 0.47134,0.21602 0.76114,0.13554 z m 25.720428,-0.32591 c -0.37627,-0.11446 -0.75176,-0.42747 -0.93635,-0.78056 -0.1029,-0.19682 -0.12524,-0.3027 -0.12542,-0.59424 -2.4e-4,-0.41551 0.10206,-0.6836 0.37703,-0.98796 l 0.17701,-0.19592 -0.17824,-0.35117 c -0.16772,-0.33043 -0.17685,-0.37067 -0.1546,-0.68161 0.0945,-1.32135 1.85276,-1.63819 2.39806,-0.43213 0.15481,0.3424 0.13486,0.76723 -0.0531,1.13177 -0.10381,0.20128 -0.13729,0.31278 -0.10643,0.35446 0.0248,0.0334 0.12355,0.16502 0.21952,0.2924 0.58259,0.77331 0.26129,1.85047 -0.65413,2.19297 -0.26312,0.0984 -0.72808,0.12354 -0.96331,0.052 z m 0.83731,-0.80513 c 0.61494,-0.37495 0.32045,-1.28114 -0.41546,-1.27839 -0.73553,0.003 -1.02446,0.90202 -0.41015,1.27657 0.2079,0.12676 0.61922,0.12767 0.82561,0.002 z m -0.12307,-2.15651 c 0.29669,-0.15342 0.4174,-0.58631 0.24492,-0.87829 -0.11167,-0.18904 -0.44126,-0.34446 -0.64816,-0.30564 -0.20837,0.0391 -0.40077,0.19419 -0.48197,0.38855 -0.0854,0.20429 -0.0823,0.32173 0.0138,0.52413 0.1478,0.31147 0.55098,0.43696 0.87144,0.27125 z m -14.352598,-2.28365 c -0.0431,-0.0476 -0.0783,-0.14219 -0.0783,-0.21027 0,-0.0681 0.29811,-0.93675 0.66246,-1.9304 0.51054,-1.3923 0.65023,-1.82138 0.60911,-1.87092 -0.0412,-0.0497 -0.24072,-0.0643 -0.87842,-0.0643 -0.97709,0 -1.1002,-0.0379 -1.10192,-0.33949 -4.8e-4,-0.0811 0.0441,-0.16193 0.1239,-0.22468 0.11738,-0.0923 0.1841,-0.098 1.14702,-0.0978 0.56244,1.5e-4 1.10216,0.0224 1.19969,0.0495 0.18886,0.0524 0.31935,0.22977 0.31935,0.43398 0,0.1278 -1.43572,4.07428 -1.54025,4.23382 -0.0884,0.13485 -0.34873,0.1464 -0.46266,0.0205 z"
       id="path858"
       inkscape:connector-curvature="0" />
  </g>
</svg>
