<?xml version="1.0" encoding="UTF-8" standalone="no"?>
<!-- Created with Inkscape (http://www.inkscape.org/) -->

<svg
   xmlns:dc="http://purl.org/dc/elements/1.1/"
   xmlns:cc="http://creativecommons.org/ns#"
   xmlns:rdf="http://www.w3.org/1999/02/22-rdf-syntax-ns#"
   xmlns:svg="http://www.w3.org/2000/svg"
   xmlns="http://www.w3.org/2000/svg"
   xmlns:sodipodi="http://sodipodi.sourceforge.net/DTD/sodipodi-0.dtd"
   xmlns:inkscape="http://www.inkscape.org/namespaces/inkscape"
   width="45.975098mm"
   height="34.342461mm"
   viewBox="0 0 45.975098 34.342461"
   version="1.1"
   id="svg8"
   inkscape:version="0.92.3 (2405546, 2018-03-11)"
   sodipodi:docname="back_plane_1A.svg">
  <defs
     id="defs2" />
  <sodipodi:namedview
     id="base"
     pagecolor="#ffffff"
     bordercolor="#666666"
     borderopacity="1.0"
     inkscape:pageopacity="0.0"
     inkscape:pageshadow="2"
     inkscape:zoom="1.4"
     inkscape:cx="-15.804084"
     inkscape:cy="-112.98677"
     inkscape:document-units="mm"
     inkscape:current-layer="layer1"
     showgrid="false"
     inkscape:window-width="2122"
     inkscape:window-height="1889"
     inkscape:window-x="1246"
     inkscape:window-y="69"
     inkscape:window-maximized="0" />
  <metadata
     id="metadata5">
    <rdf:RDF>
      <cc:Work
         rdf:about="">
        <dc:format>image/svg+xml</dc:format>
        <dc:type
           rdf:resource="http://purl.org/dc/dcmitype/StillImage" />
        <dc:title></dc:title>
      </cc:Work>
    </rdf:RDF>
  </metadata>
  <g
     inkscape:label="Livello 1"
     inkscape:groupmode="layer"
     id="layer1"
     transform="translate(-110.25125,-87.634679)">
    <path
       style="fill:#000000;stroke-width:0.04729981"
       d="m 113.13068,121.83855 c -0.17708,-0.17709 -0.18879,-0.41808 -0.0278,-0.573 0.10759,-0.10356 1.05127,-0.64351 1.70479,-0.97545 0.35613,-0.1809 0.48977,-0.18175 0.67984,-0.004 0.074,0.069 0.10642,0.1537 0.10642,0.27765 0,0.11857 -0.0357,0.2177 -0.10642,0.29584 -0.15482,0.17094 -1.91964,1.11755 -2.08354,1.11755 -0.0861,0 -0.18504,-0.05 -0.27327,-0.13826 z m -1.77822,-4.18465 c -0.16925,-0.14559 -0.18537,-0.44746 -0.0321,-0.60075 0.12837,-0.12837 2.16772,-0.76651 2.32648,-0.72798 0.18492,0.0449 0.33885,0.23577 0.33885,0.42022 0,0.30533 -0.11293,0.37168 -1.21212,0.71219 -0.54961,0.17025 -1.06458,0.30955 -1.14439,0.30955 -0.0849,0 -0.19975,-0.047 -0.27674,-0.11323 z m 43.1692,-2.18011 c -0.40323,-0.0862 -0.85866,-0.18236 -1.01207,-0.21362 -0.34715,-0.0707 -0.50152,-0.20948 -0.50152,-0.45077 0,-0.2032 0.21151,-0.44806 0.38658,-0.44753 0.0605,1.9e-4 0.57781,0.0968 1.1495,0.21462 1.09644,0.22605 1.21283,0.27435 1.27698,0.52995 0.0644,0.25654 -0.17983,0.53845 -0.45755,0.52817 -0.0598,-0.002 -0.43869,-0.0746 -0.84192,-0.16082 z m -44.01925,-2.95654 c -0.25931,-0.10465 -0.33783,-0.48785 -0.14042,-0.68527 0.0621,-0.0621 0.18452,-0.12425 0.27198,-0.13804 0.22037,-0.0348 1.61477,-0.12341 1.9382,-0.12324 0.30967,1.9e-4 0.48996,0.11024 0.53787,0.32837 0.035,0.15935 -0.0708,0.4002 -0.20808,0.47366 -0.0492,0.0263 -0.56351,0.0802 -1.14287,0.11966 -1.18952,0.081 -1.12084,0.0797 -1.25668,0.0249 z m 43.00015,-2.95449 c -0.0786,-0.0786 -0.1161,-0.16905 -0.1161,-0.27993 0,-0.40172 0.0837,-0.43505 1.31812,-0.52476 1.28585,-0.0934 1.21924,-0.0966 1.38161,0.0658 0.20979,0.20979 0.17964,0.54244 -0.0608,0.67113 -0.10555,0.0565 -1.51614,0.17992 -2.08528,0.18247 -0.27926,0.001 -0.33666,-0.0138 -0.43753,-0.11466 z m -41.91695,-1.13693 c -1.09535,-0.14356 -1.19468,-0.19071 -1.19468,-0.56705 0,-0.23627 0.1705,-0.40308 0.41172,-0.40282 0.0987,10e-5 0.59458,0.0532 1.10187,0.11806 0.50729,0.0648 0.95059,0.11794 0.98511,0.11805 0.0345,9e-5 0.12498,0.0624 0.20103,0.13846 0.18315,0.18315 0.18846,0.41353 0.0136,0.58843 -0.10921,0.10922 -0.16062,0.12402 -0.41388,0.11923 -0.15904,-0.003 -0.65617,-0.0536 -1.10473,-0.11236 z m 1.26491,-5.08709 c -0.58959,-0.22806 -1.00209,-0.41448 -1.05242,-0.4756 -0.0825,-0.10023 -0.10916,-0.34466 -0.0534,-0.48998 0.035,-0.0912 0.25939,-0.21497 0.38967,-0.21497 0.0857,0 1.44572,0.49957 1.95446,0.7179 0.36336,0.15594 0.45559,0.47294 0.2143,0.73657 -0.16473,0.17997 -0.38807,0.13785 -1.45262,-0.27392 z m 39.02989,-0.54678 c -0.28577,-0.20016 -0.22284,-0.57152 0.12662,-0.74724 0.41806,-0.2102 1.88875,-0.83253 1.96746,-0.83253 0.25486,0 0.4883,0.29051 0.42764,0.53219 -0.0509,0.203 -0.19925,0.29352 -1.17333,0.71622 -0.96245,0.41765 -1.15696,0.46545 -1.34839,0.33136 z m -0.47468,-1.45446 c -0.0301,-0.0363 -0.0433,-0.0959 -0.0293,-0.13246 0.0306,-0.0797 1.26331,-0.70235 1.39051,-0.70235 0.0957,0 0.14572,0.0805 0.1113,0.17934 -0.0199,0.0571 -1.09857,0.62223 -1.31798,0.69047 -0.061,0.019 -0.121,0.005 -0.15454,-0.035 z m -0.65095,-1.14225 c -0.015,-0.039 -0.0167,-0.0976 -0.004,-0.13008 0.0376,-0.0947 1.30478,-0.804795 1.38274,-0.774885 0.088,0.0338 0.0913,0.18998 0.006,0.2612 -0.12235,0.10154 -1.23382,0.714715 -1.29553,0.714715 -0.034,0 -0.074,-0.0319 -0.089,-0.0709 z m -0.74237,-1.143085 c -0.10591,-0.10592 0.006,-0.22384 0.57745,-0.60843 0.61419,-0.41336 0.77304,-0.46871 0.80033,-0.27887 0.0112,0.0777 -0.10949,0.17939 -0.60278,0.50799 -0.59071,0.3935 -0.70491,0.4494 -0.775,0.37931 z m -33.44886,-0.35441 c -0.052,-0.0312 -0.47204,-0.34043 -0.93336,-0.68717 -0.83231,-0.6256 -0.93303,-0.73365 -0.8956,-0.96078 0.0407,-0.24704 0.27759,-0.41594 0.50375,-0.35918 0.15045,0.0378 1.72912,1.20884 1.86859,1.38614 0.12172,0.15474 0.10521,0.40302 -0.0362,0.54444 -0.10977,0.10978 -0.38297,0.15101 -0.50716,0.0766 z m 32.68843,-0.6843 c -0.0162,-0.0423 -0.004,-0.10815 0.028,-0.14628 0.0804,-0.0969 1.16803,-0.91197 1.21691,-0.91197 0.079,0 0.15388,0.13653 0.11394,0.2079 -0.0651,0.11631 -1.15419,0.92729 -1.24529,0.92729 -0.0462,0 -0.0973,-0.0346 -0.11357,-0.0769 z m -0.94604,-0.77808 c -0.13395,-0.1592 -0.15026,-0.262 -0.0696,-0.43899 0.0517,-0.11357 1.4734,-1.41725 1.66897,-1.53047 0.41992,-0.2431 0.85421,0.28573 0.53653,0.65331 -0.11153,0.12904 -1.28516,1.17698 -1.51974,1.35697 -0.20728,0.15905 -0.46217,0.14216 -0.61614,-0.0408 z m -31.17131,-0.37302 c -0.28426,-0.25798 -0.53449,-0.50061 -0.55607,-0.53918 -0.0509,-0.0909 0.0855,-0.23403 0.17517,-0.18382 0.0355,0.0199 0.30099,0.24661 0.58995,0.50386 0.39732,0.35371 0.52192,0.49198 0.51118,0.56723 -0.0298,0.20891 -0.19384,0.12964 -0.72023,-0.34809 z m 0.9733,-1.05857 c -0.54482,-0.54665 -0.62883,-0.69885 -0.40361,-0.73116 0.13742,-0.0197 1.11672,1.00374 1.09631,1.14574 -0.008,0.0535 -0.0459,0.10334 -0.0849,0.11068 -0.039,0.007 -0.31252,-0.22902 -0.60777,-0.52526 z m 29.01919,-0.0626 c -0.0969,-0.0969 0.009,-0.26024 0.47605,-0.73419 0.36058,-0.36591 0.53509,-0.51112 0.60259,-0.5014 0.21005,0.0302 0.12651,0.17951 -0.40483,0.72327 -0.50232,0.51406 -0.59875,0.58738 -0.67381,0.51232 z m -27.36672,-0.57391 c -0.19363,-0.16367 -0.9028,-1.07109 -0.9028,-1.15517 0,-0.12726 0.13044,-0.15633 0.24379,-0.0543 0.22364,0.20123 0.8914,1.05856 0.8914,1.14446 0,0.12839 -0.11829,0.1615 -0.23239,0.065 z m 26.09191,-0.54396 c -0.0348,-0.0908 0.0406,-0.20573 0.50146,-0.7637 0.32716,-0.39612 0.43918,-0.50177 0.51982,-0.49024 0.0565,0.008 0.10937,0.0493 0.11742,0.0915 0.0133,0.0699 -0.45778,0.69146 -0.81114,1.07018 -0.14892,0.1596 -0.2868,0.19842 -0.32756,0.0922 z m -25.38433,-0.86809 c -0.23534,-0.32917 -0.42789,-0.63847 -0.42789,-0.68733 0,-0.11249 0.12153,-0.16166 0.21266,-0.086 0.0773,0.0641 0.72144,0.94798 0.81928,1.12413 0.0678,0.12203 0.0103,0.24773 -0.11319,0.24773 -0.0346,0 -0.25552,-0.26932 -0.49086,-0.5985 z m 1.71298,-0.21578 c -0.13304,-0.0642 -1.24214,-1.84499 -1.27494,-2.04707 -0.0183,-0.11304 0.006,-0.18267 0.10323,-0.29853 0.1608,-0.1911 0.42712,-0.21069 0.60749,-0.0447 0.0969,0.0892 0.97318,1.46382 1.16401,1.82602 0.18915,0.35902 -0.2225,0.74629 -0.59979,0.56426 z m 22.15711,0.0276 c -0.0815,-0.0815 -0.009,-0.2459 0.33859,-0.76429 0.43049,-0.64257 0.49511,-0.7101 0.59789,-0.6248 0.039,0.0324 0.0709,0.0844 0.0709,0.11565 0,0.0954 -0.82533,1.27793 -0.90225,1.29274 -0.0396,0.008 -0.0869,-10e-4 -0.10518,-0.0193 z m -1.44034,-0.85282 c -0.0325,-0.0131 -0.0591,-0.0579 -0.0591,-0.0995 0,-0.095 0.63643,-1.25519 0.73214,-1.33463 0.0897,-0.0744 0.21385,-0.0292 0.21385,0.0779 0,0.0873 -0.57818,1.16641 -0.69912,1.3048 -0.0755,0.0864 -0.0907,0.0906 -0.18775,0.0514 z m -18.44692,-0.54607 c -0.0634,-0.0769 -0.56806,-1.21871 -0.58104,-1.3146 -0.0192,-0.14194 0.003,-0.1892 0.0904,-0.1892 0.0488,0 0.11001,0.0266 0.13592,0.0591 0.10625,0.13335 0.5831,1.28631 0.56994,1.37805 -0.0166,0.1158 -0.14255,0.15478 -0.21523,0.0666 z m 16.8228,-0.004 c -0.10259,-0.0788 -0.1851,-0.24295 -0.1851,-0.36833 0,-0.18362 0.85427,-2.07332 0.98308,-2.17465 0.16135,-0.12692 0.35342,-0.11599 0.52689,0.03 0.22859,0.19235 0.20054,0.33687 -0.27372,1.40994 -0.22878,0.51763 -0.46056,0.99122 -0.51507,1.05242 -0.11087,0.12447 -0.40387,0.15215 -0.53608,0.0506 z m -1.38502,-0.81527 c -0.0247,-0.0644 0.0805,-0.38919 0.39418,-1.21712 0.0864,-0.22813 0.12156,-0.27197 0.21789,-0.27197 0.0887,0 0.11485,0.0251 0.11485,0.11007 0,0.10411 -0.37015,1.16406 -0.47479,1.35957 -0.0582,0.10873 -0.21328,0.12069 -0.25213,0.0195 z m -13.42751,-0.15039 c -0.0392,-0.0989 -0.15007,-0.43287 -0.24628,-0.74211 -0.15548,-0.49973 -0.16705,-0.57015 -0.104,-0.6332 0.039,-0.039 0.10299,-0.0586 0.14218,-0.0436 0.0787,0.0302 0.51923,1.35932 0.49417,1.49085 -0.008,0.0436 -0.06,0.0857 -0.11491,0.0936 -0.0772,0.0111 -0.11596,-0.0264 -0.17116,-0.16555 z m 11.64754,-0.34447 c -0.0618,-0.0391 -0.0533,-0.11353 0.0663,-0.5787 0.21828,-0.84887 0.26057,-0.97139 0.34669,-1.00444 0.0494,-0.019 0.10295,-0.001 0.13686,0.045 0.0443,0.0606 0.0186,0.21672 -0.12571,0.76261 -0.211,0.79831 -0.25655,0.88159 -0.42415,0.77549 z m -9.4528,-0.11057 c -0.0669,-0.0806 -0.35108,-1.44422 -0.31862,-1.52881 0.0409,-0.10657 0.21503,-0.0753 0.26151,0.0469 0.0233,0.0612 0.10019,0.40135 0.17093,0.75588 0.10468,0.52468 0.11752,0.65798 0.069,0.71647 -0.0732,0.0882 -0.11569,0.0904 -0.1828,0.01 z m 7.81045,-0.25545 c -0.0315,-0.082 0.15311,-1.2703 0.22798,-1.46779 0.0451,-0.1191 0.21975,-0.14577 0.26042,-0.0398 0.0304,0.0793 -0.20194,1.37635 -0.26904,1.50174 -0.0587,0.1096 -0.17832,0.11279 -0.21936,0.006 z m -3.41352,-0.0301 c -0.22353,-0.1277 -0.23824,-0.21459 -0.24003,-1.41767 l -0.002,-1.12701 0.13826,-0.13826 c 0.17859,-0.1786 0.40985,-0.18736 0.58798,-0.0223 l 0.12515,0.11599 v 1.18211 c 0,1.15854 -0.002,1.18453 -0.10642,1.30306 -0.12867,0.14621 -0.34954,0.19188 -0.50327,0.10405 z m -2.44192,-0.0791 c -0.0478,-0.0773 -0.18153,-1.44777 -0.14946,-1.53135 0.0377,-0.0983 0.20259,-0.0977 0.2404,8.5e-4 0.0486,0.12657 0.1804,1.43638 0.15201,1.51035 -0.0302,0.0787 -0.19814,0.0927 -0.24295,0.0202 z m 4.07636,-0.11374 c -0.0273,-0.0711 0.0893,-1.35212 0.13665,-1.50127 0.033,-0.10395 0.20225,-0.11524 0.24032,-0.016 0.0364,0.0947 -0.0786,1.39755 -0.13258,1.5022 -0.0514,0.0998 -0.20819,0.10944 -0.24439,0.0151 z"
       id="path826"
       inkscape:connector-curvature="0" />
  </g>
</svg>
