<?xml version="1.0" encoding="UTF-8" standalone="no"?>
<!-- Created with Inkscape (http://www.inkscape.org/) -->

<svg
   xmlns:dc="http://purl.org/dc/elements/1.1/"
   xmlns:cc="http://creativecommons.org/ns#"
   xmlns:rdf="http://www.w3.org/1999/02/22-rdf-syntax-ns#"
   xmlns:svg="http://www.w3.org/2000/svg"
   xmlns="http://www.w3.org/2000/svg"
   xmlns:sodipodi="http://sodipodi.sourceforge.net/DTD/sodipodi-0.dtd"
   xmlns:inkscape="http://www.inkscape.org/namespaces/inkscape"
   width="8.7736626mm"
   height="18.538136mm"
   viewBox="0 0 8.7736626 18.538136"
   version="1.1"
   id="svg8"
   inkscape:version="0.92.3 (2405546, 2018-03-11)"
   sodipodi:docname="pointer_stop_A.svg">
  <defs
     id="defs2" />
  <sodipodi:namedview
     id="base"
     pagecolor="#ffffff"
     bordercolor="#666666"
     borderopacity="1.0"
     inkscape:pageopacity="0.0"
     inkscape:pageshadow="2"
     inkscape:zoom="1.4"
     inkscape:cx="88.502571"
     inkscape:cy="181.16367"
     inkscape:document-units="mm"
     inkscape:current-layer="layer1"
     showgrid="false"
     inkscape:window-width="2122"
     inkscape:window-height="1889"
     inkscape:window-x="464"
     inkscape:window-y="76"
     inkscape:window-maximized="0" />
  <metadata
     id="metadata5">
    <rdf:RDF>
      <cc:Work
         rdf:about="">
        <dc:format>image/svg+xml</dc:format>
        <dc:type
           rdf:resource="http://purl.org/dc/dcmitype/StillImage" />
        <dc:title></dc:title>
      </cc:Work>
    </rdf:RDF>
  </metadata>
  <g
     inkscape:label="Livello 1"
     inkscape:groupmode="layer"
     id="layer1"
     transform="translate(-82.653448,-181.26631)">
    <path
       style="fill:#000000;stroke-width:0.04729981"
       d="m 86.443307,199.72156 c -0.0892,-0.0455 -0.20391,-0.13963 -0.25491,-0.20922 -0.09,-0.12288 -0.0914,-0.17324 -0.0462,-1.75131 0.0307,-1.07153 0.0655,-1.66025 0.10226,-1.72892 0.10098,-0.18867 0.22788,-0.2146 1.16569,-0.23815 l 0.90183,-0.0226 0.13427,0.1155 c 0.14639,0.12592 0.14156,0.28378 -0.0112,0.36552 -0.0438,0.0234 -0.44967,0.054 -0.90194,0.0679 -0.45227,0.0139 -0.84141,0.0444 -0.86474,0.0677 -0.0233,0.0233 -0.0364,0.29607 -0.029,0.60609 l 0.0134,0.56366 0.52512,0.0237 c 0.51799,0.0233 0.68102,0.0739 0.68102,0.21131 0,0.0318 -0.0389,0.0931 -0.0865,0.13611 -0.0681,0.0616 -0.18621,0.0784 -0.55577,0.079 -0.2581,3.8e-4 -0.5012,0.0209 -0.54022,0.0455 -0.0542,0.0342 -0.0747,0.1661 -0.0868,0.5595 -0.0216,0.70394 -0.0671,0.67137 0.93811,0.67137 h 0.79728 l 0.0954,0.12127 c 0.0534,0.0679 0.0832,0.15638 0.0678,0.20103 -0.0627,0.18112 -0.15048,0.198 -1.02856,0.19793 -0.71975,-5e-5 -0.87971,-0.0131 -1.01637,-0.0828 z m 3.45233,0.0153 c -0.0413,-0.0498 -0.0536,-0.5033 -0.0465,-1.72031 0.005,-0.90901 -0.005,-1.67678 -0.0235,-1.70617 -0.0196,-0.0317 -0.17173,-0.0534 -0.37445,-0.0534 -0.36986,0 -0.55168,-0.078 -0.55168,-0.2365 0,-0.20794 0.14607,-0.2365 1.20934,-0.2365 0.90783,0 1.00624,0.008 1.07737,0.0865 0.19682,0.21748 0.01,0.3865 -0.42723,0.3865 -0.23342,0 -0.3042,0.0173 -0.33792,0.0828 -0.0235,0.0455 -0.0545,0.81299 -0.069,1.70547 -0.0188,1.15665 -0.0427,1.6423 -0.0831,1.69097 -0.0728,0.0878 -0.30076,0.0882 -0.37337,7e-4 z m -6.41649,-0.0634 c -0.5767,-0.20582 -1.0289,-0.79616 -0.7317,-0.95522 0.15957,-0.0854 0.23133,-0.0552 0.49483,0.20831 0.39639,0.39639 0.71427,0.43672 1.10331,0.13999 0.0915,-0.0698 0.21154,-0.22494 0.26683,-0.34483 0.0923,-0.20008 0.10249,-0.32207 0.12446,-1.48507 0.0256,-1.35706 0.0253,-1.35562 0.26957,-1.35733 0.22925,-0.002 0.251,0.11771 0.251,1.37651 0,1.03237 -0.0109,1.20223 -0.0944,1.47249 -0.22825,0.739 -1.0186,1.18261 -1.68394,0.94515 z m 0.0429,-4.7236 c -0.0175,-0.0457 0.0606,-0.25904 0.19068,-0.52092 0.1212,-0.24398 0.22036,-0.48627 0.22036,-0.53843 0,-0.0522 -0.10764,-0.30933 -0.2392,-0.57149 -0.24926,-0.49672 -0.28047,-0.68047 -0.11555,-0.68047 0.0702,0 0.14344,0.0946 0.2838,0.36645 0.12578,0.24363 0.21674,0.36649 0.27138,0.36658 0.0542,9e-5 0.13745,-0.10965 0.24433,-0.32188 0.17872,-0.35488 0.27434,-0.45939 0.38238,-0.41793 0.11653,0.0447 0.0847,0.17751 -0.16494,0.68798 -0.13008,0.26599 -0.2365,0.52173 -0.2365,0.56832 0,0.0466 0.0955,0.28905 0.21219,0.5388 0.21878,0.46817 0.23227,0.61647 0.0538,0.591 -0.0678,-0.01 -0.14927,-0.10636 -0.2511,-0.29813 -0.198,-0.37289 -0.27621,-0.37096 -0.47864,0.0118 -0.15964,0.30189 -0.30764,0.38851 -0.37295,0.21829 z m 2.63538,-0.11062 c -0.093,-0.093 -0.0947,-0.13346 -0.0658,-1.5265 0.0246,-1.18307 0.0422,-1.44533 0.10176,-1.51376 0.0963,-0.1107 0.17879,-0.10431 0.26631,0.0206 0.0625,0.0892 0.0689,0.28958 0.047,1.45446 -0.014,0.74309 -0.035,1.39834 -0.0467,1.45612 -0.0117,0.0578 -0.063,0.12745 -0.11416,0.15481 -0.0736,0.0394 -0.11287,0.0298 -0.18847,-0.0458 z m 2.10359,0.0591 c -0.27074,-0.0691 -0.5385,-0.44169 -0.63871,-0.88887 -0.0682,-0.30445 -0.0658,-0.9924 0.005,-1.28326 0.0776,-0.32078 0.31709,-0.76024 0.47603,-0.87342 0.88901,-0.63303 1.60994,1.20342 0.98146,2.5001 -0.20086,0.41443 -0.5167,0.62366 -0.82332,0.54545 z m 0.37178,-0.54521 c 0.47765,-0.63055 0.305,-2.32609 -0.22335,-2.19348 -0.47849,0.12009 -0.62019,1.76648 -0.19183,2.22869 0.14819,0.1599 0.27557,0.14909 0.41518,-0.0352 z m 1.70574,0.51417 c -0.19778,-0.0886 -0.42751,-0.37853 -0.52808,-0.6664 -0.11609,-0.33228 -0.11606,-1.2668 4e-5,-1.64202 0.10048,-0.32474 0.33408,-0.64503 0.55942,-0.767 0.34851,-0.18865 0.73974,0.0503 0.95098,0.58077 0.0905,0.2272 0.10592,0.35527 0.10621,0.88076 2.8e-4,0.51652 -0.0162,0.6592 -0.10292,0.89182 -0.22588,0.60582 -0.6127,0.8892 -0.98565,0.72207 z m 0.39951,-0.47208 c 0.36044,-0.38367 0.43519,-1.45076 0.14206,-2.02793 -0.35706,-0.70304 -0.95682,0.45757 -0.75122,1.45372 0.12511,0.60619 0.36589,0.83316 0.60916,0.57421 z m -3.75412,-8.20727 c -0.36714,-0.0966 -0.7612,-0.40537 -0.92681,-0.72618 -0.30707,-0.59488 -0.35621,-2.26686 -0.0917,-3.11977 0.32238,-1.03947 1.49317,-1.41554 2.26013,-0.72598 0.39489,0.35504 0.57396,0.9356 0.34561,1.1205 -0.23476,0.1901 -0.44197,0.0856 -0.54705,-0.27584 -0.14347,-0.49352 -0.52051,-0.72496 -0.94182,-0.57812 -0.35012,0.12204 -0.51863,0.51609 -0.60153,1.4066 -0.0349,0.37518 -0.035,0.68781 -2.9e-4,1.04059 0.0881,0.89483 0.27405,1.24809 0.68999,1.31046 0.3984,0.0597 0.69097,-0.12382 0.80321,-0.50394 0.10963,-0.37129 0.44229,-0.48314 0.62186,-0.20908 0.0688,0.10499 0.069,0.13795 0.002,0.36884 -0.16081,0.55319 -0.58435,0.88726 -1.15937,0.91448 -0.17168,0.008 -0.37601,-0.002 -0.45406,-0.0226 z m -3.08675,-3.5058 c -0.22057,-0.13448 -0.3421,-0.35818 -0.34231,-0.63008 -5.3e-4,-0.68469 0.73276,-1.01957 1.23635,-0.56461 0.4009,0.3622 0.3248,0.97327 -0.15192,1.21979 -0.19357,0.1001 -0.55694,0.0878 -0.74212,-0.0251 z m 0.65028,-0.16553 c 0.19685,-0.10179 0.28432,-0.2521 0.28432,-0.48852 0,-0.17241 -0.0269,-0.23397 -0.16082,-0.36788 -0.12414,-0.12414 -0.20019,-0.16082 -0.33344,-0.16082 -0.59903,0 -0.82281,0.75135 -0.30046,1.00878 0.19567,0.0964 0.33577,0.0987 0.5104,0.008 z"
       id="path890"
       inkscape:connector-curvature="0" />
  </g>
</svg>
