<?xml version="1.0" encoding="UTF-8" standalone="no"?>
<!-- Created with Inkscape (http://www.inkscape.org/) -->

<svg
   xmlns:dc="http://purl.org/dc/elements/1.1/"
   xmlns:cc="http://creativecommons.org/ns#"
   xmlns:rdf="http://www.w3.org/1999/02/22-rdf-syntax-ns#"
   xmlns:svg="http://www.w3.org/2000/svg"
   xmlns="http://www.w3.org/2000/svg"
   xmlns:sodipodi="http://sodipodi.sourceforge.net/DTD/sodipodi-0.dtd"
   xmlns:inkscape="http://www.inkscape.org/namespaces/inkscape"
   width="210mm"
   height="297mm"
   viewBox="0 0 210 297"
   version="1.1"
   id="svg4716"
   inkscape:version="0.92.3 (2405546, 2018-03-11)"
   sodipodi:docname="start_panel_map_A1.svg">
  <defs
     id="defs4710" />
  <sodipodi:namedview
     id="base"
     pagecolor="#ffffff"
     bordercolor="#666666"
     borderopacity="1.0"
     inkscape:pageopacity="0.0"
     inkscape:pageshadow="2"
     inkscape:zoom="1.4"
     inkscape:cx="621.57345"
     inkscape:cy="347.65194"
     inkscape:document-units="mm"
     inkscape:current-layer="g1170"
     showgrid="false"
     inkscape:window-width="3840"
     inkscape:window-height="2040"
     inkscape:window-x="0"
     inkscape:window-y="0"
     inkscape:window-maximized="1" />
  <metadata
     id="metadata4713">
    <rdf:RDF>
      <cc:Work
         rdf:about="">
        <dc:format>image/svg+xml</dc:format>
        <dc:type
           rdf:resource="http://purl.org/dc/dcmitype/StillImage" />
        <dc:title />
      </cc:Work>
    </rdf:RDF>
  </metadata>
  <g
     inkscape:label="Layer 1"
     inkscape:groupmode="layer"
     id="layer1">
    <g
       id="g1170">
      <g
         aria-label="  DROPPABLE   FUEL TANK  AIR PRESSURE CONTROL VALVE"
         transform="matrix(0.9500966,0,0,1.0525246,-10.708179,-54.995528)"
         style="font-style:normal;font-variant:normal;font-weight:normal;font-stretch:normal;font-size:3.03709888px;line-height:1.25;font-family:OCRB;-inkscape-font-specification:OCRB;letter-spacing:0px;word-spacing:0px;display:inline;fill:#000000;fill-opacity:1;stroke:none;stroke-width:0.22778241"
         id="text863" />
      <g
         aria-label="FUEL  SHUT OFF VALVE"
         transform="matrix(0.95009655,0,0,1.0525246,-10.708179,-54.995528)"
         style="font-style:normal;font-variant:normal;font-weight:normal;font-stretch:normal;font-size:3.03709888px;line-height:1.25;font-family:OCRB;-inkscape-font-specification:OCRB;text-align:center;letter-spacing:0px;word-spacing:0px;text-anchor:middle;display:inline;fill:#000000;fill-opacity:1;stroke:none;stroke-width:0.22778243"
         id="text863-3" />
      <g
         aria-label="FUEL  BOOSTER PUMP"
         transform="matrix(0.95009655,0,0,1.0525246,-10.708179,-54.995528)"
         style="font-style:normal;font-variant:normal;font-weight:normal;font-stretch:normal;font-size:3.03709888px;line-height:1.25;font-family:OCRB;-inkscape-font-specification:OCRB;text-align:center;letter-spacing:0px;word-spacing:0px;text-anchor:middle;display:inline;fill:#000000;fill-opacity:1;stroke:none;stroke-width:0.22778243"
         id="text863-3-5" />
      <g
         aria-label="HE IGNITION"
         transform="matrix(0.8534059,0,0,1.1717754,-10.708179,-54.995528)"
         style="font-style:normal;font-variant:normal;font-weight:normal;font-stretch:normal;font-size:6.62570381px;line-height:1.25;font-family:OCRB;-inkscape-font-specification:OCRB;letter-spacing:-0.04969278px;word-spacing:0px;display:inline;fill:#000000;fill-opacity:1;stroke:none;stroke-width:0.4969278"
         id="text840-1" />
      <g
         aria-label="NORM."
         transform="matrix(0.95009655,0,0,1.0525246,-10.708179,-54.995528)"
         style="font-style:normal;font-variant:normal;font-weight:normal;font-stretch:normal;font-size:3.03709888px;line-height:1.25;font-family:OCRB;-inkscape-font-specification:OCRB;text-align:center;letter-spacing:0px;word-spacing:0px;text-anchor:middle;display:inline;fill:#000000;fill-opacity:1;stroke:none;stroke-width:0.22778243"
         id="text863-3-5-7" />
      <g
         aria-label="INS."
         transform="matrix(0.95009655,0,0,1.0525246,-10.708179,-54.995528)"
         style="font-style:normal;font-variant:normal;font-weight:normal;font-stretch:normal;font-size:3.03709888px;line-height:1.25;font-family:OCRB;-inkscape-font-specification:OCRB;text-align:center;letter-spacing:0px;word-spacing:0px;text-anchor:middle;display:inline;fill:#000000;fill-opacity:1;stroke:none;stroke-width:0.22778243"
         id="text863-3-5-7-6" />
      <g
         aria-label="ON"
         transform="matrix(0.95009655,0,0,1.0525246,-10.708179,-54.995528)"
         style="font-style:normal;font-variant:normal;font-weight:normal;font-stretch:normal;font-size:3.03709888px;line-height:1.25;font-family:OCRB;-inkscape-font-specification:OCRB;text-align:center;letter-spacing:0px;word-spacing:0px;text-anchor:middle;display:inline;fill:#000000;fill-opacity:1;stroke:none;stroke-width:0.22778243"
         id="text863-3-5-7-62" />
      <g
         aria-label="OFF"
         transform="matrix(0.95009655,0,0,1.0525246,-10.708179,-54.995528)"
         style="font-style:normal;font-variant:normal;font-weight:normal;font-stretch:normal;font-size:3.03709888px;line-height:1.25;font-family:OCRB;-inkscape-font-specification:OCRB;text-align:center;letter-spacing:0px;word-spacing:0px;text-anchor:middle;display:inline;fill:#000000;fill-opacity:1;stroke:none;stroke-width:0.22778243"
         id="text863-3-5-7-62-8" />
      <g
         aria-label="ON"
         transform="matrix(0.95009655,0,0,1.0525246,-10.708179,-54.995528)"
         style="font-style:normal;font-variant:normal;font-weight:normal;font-stretch:normal;font-size:3.03709888px;line-height:1.25;font-family:OCRB;-inkscape-font-specification:OCRB;text-align:center;letter-spacing:0px;word-spacing:0px;text-anchor:middle;display:inline;fill:#000000;fill-opacity:1;stroke:none;stroke-width:0.22778243"
         id="text863-3-5-7-62-9" />
      <g
         aria-label="OFF"
         transform="matrix(0.95009655,0,0,1.0525246,-10.708179,-54.995528)"
         style="font-style:normal;font-variant:normal;font-weight:normal;font-stretch:normal;font-size:3.03709888px;line-height:1.25;font-family:OCRB;-inkscape-font-specification:OCRB;text-align:center;letter-spacing:0px;word-spacing:0px;text-anchor:middle;display:inline;fill:#000000;fill-opacity:1;stroke:none;stroke-width:0.22778243"
         id="text863-3-5-7-62-8-0" />
      <g
         aria-label="ON"
         transform="matrix(0.95009655,0,0,1.0525246,-10.708179,-54.995528)"
         style="font-style:normal;font-variant:normal;font-weight:normal;font-stretch:normal;font-size:3.03709888px;line-height:1.25;font-family:OCRB;-inkscape-font-specification:OCRB;text-align:center;letter-spacing:0px;word-spacing:0px;text-anchor:middle;display:inline;fill:#000000;fill-opacity:1;stroke:none;stroke-width:0.22778243"
         id="text863-3-5-7-62-9-3" />
      <g
         aria-label="MUTED"
         transform="matrix(0.88747902,0,0,1.1267872,-10.708179,-54.995528)"
         style="font-style:normal;font-variant:normal;font-weight:normal;font-stretch:normal;font-size:2.83693433px;line-height:1.25;font-family:OCRB;-inkscape-font-specification:OCRB;text-align:center;letter-spacing:0px;word-spacing:0px;text-anchor:middle;display:inline;fill:#000000;fill-opacity:1;stroke:none;stroke-width:0.21277009"
         id="text863-3-5-7-62-8-0-5" />
      <g
         aria-label="ENGINE JPTL"
         transform="matrix(0.85340587,0,0,1.1717754,-10.708179,-54.995528)"
         style="font-style:normal;font-variant:normal;font-weight:normal;font-stretch:normal;font-size:7.75948286px;line-height:1.25;font-family:OCRB;-inkscape-font-specification:OCRB;letter-spacing:-0.05819612px;word-spacing:0px;display:inline;fill:#000000;fill-opacity:1;stroke:none;stroke-width:0.58196127"
         id="text840-1-2" />
      <path
         id="path3110"
         style="font-style:normal;font-variant:normal;font-weight:normal;font-stretch:normal;font-size:2.43236017px;line-height:1.25;font-family:OCRB;-inkscape-font-specification:OCRB;text-align:end;letter-spacing:0px;word-spacing:0px;text-anchor:end;fill:#000000;fill-opacity:1;stroke:none;stroke-width:0.26175541"
         d="m 52.853659,215.33592 c 0,0.0747 0.04918,0.13833 0.106929,0.13833 h 0.305814 c 0.05774,0 0.106928,-0.0609 0.106928,-0.13833 v -0.26836 c 0,-0.0774 -0.04918,-0.13832 -0.106928,-0.13832 h -0.305814 c -0.05774,0 -0.106929,0.0636 -0.106929,0.13832 z m -2.674156,-0.11169 c 0,0.1556 0.09881,0.27786 0.214796,0.27786 0.115991,0 0.214797,-0.12782 0.214797,-0.27786 v -2.99542 l 0.438184,1.86727 c 0.02578,0.11113 0.111695,0.20007 0.206205,0.20007 0.103102,0 0.176133,-0.0945 0.206205,-0.20007 l 0.438184,-1.86727 v 2.99542 c 0,0.1556 0.09881,0.27786 0.214797,0.27786 0.11599,0 0.214796,-0.12782 0.214796,-0.27786 V 211.762 c 0,-0.15005 -0.09881,-0.27787 -0.214796,-0.27787 h -0.330787 c -0.09881,0 -0.184725,0.0889 -0.206204,0.20006 l -0.322195,1.37267 -0.322195,-1.37267 c -0.02578,-0.10555 -0.107398,-0.20006 -0.206204,-0.20006 h -0.330787 c -0.11599,0 -0.214796,0.12226 -0.214796,0.27787 z m -2.472365,0 c 0,0.1556 0.09881,0.27786 0.214796,0.27786 0.11599,0 0.214797,-0.12782 0.214797,-0.27786 v -1.37267 h 0.369449 l 0.704533,1.57273 c 0.03867,0.0556 0.103102,0.0778 0.15895,0.0778 0.115989,0 0.214796,-0.12782 0.214796,-0.27786 0,-0.05 -0.0043,-0.0945 -0.02578,-0.13893 l -0.584247,-1.30043 c 0.421001,-0.20006 0.584247,-0.73912 0.584247,-1.35599 0,-0.54462 -0.528399,-0.8336 -0.932217,-0.87806 H 47.92193 c -0.120286,0 -0.214797,0.12226 -0.214797,0.27786 z m 0.429593,-1.92841 v -1.18926 h 0.46396 c 0.13747,0.0114 0.27494,0.0667 0.395226,0.1556 0.06014,0.0389 0.133173,0.0945 0.133173,0.16672 0,0.27231 -0.0086,0.56685 -0.167541,0.73912 -0.09451,0.10555 -0.227684,0.12782 -0.352266,0.12782 z m -3.232744,0.18339 c 0,0.95032 0.378041,2.03955 1.061093,2.03955 0.691646,0 1.052503,-1.08923 1.061095,-2.03955 0,-0.99476 -0.373745,-2.03954 -1.061095,-2.03954 -0.171837,0 -0.382337,0.0945 -0.511215,0.23341 -0.339378,0.36123 -0.549878,1.02255 -0.549878,1.76167 z m 0.429592,0 v -0.0611 c 0,-0.43348 0.09022,-0.87251 0.262052,-1.15593 h 0.0086 c 0.07303,-0.13338 0.206205,-0.26676 0.360858,-0.26676 0.446777,0 0.631502,0.86139 0.631502,1.48381 0,0.57797 -0.197612,1.48381 -0.631502,1.48381 -0.438185,0 -0.631501,-0.90584 -0.631501,-1.48381 z m -3.02654,1.74502 c 0,0.15004 0.09881,0.27786 0.214796,0.27786 0.115991,0 0.214797,-0.12782 0.214797,-0.27786 v -2.66753 l 1.026727,2.78978 c 0.03437,0.0889 0.107399,0.15561 0.193317,0.15561 h 0.163246 c 0.111693,0 0.214796,-0.12782 0.214796,-0.27786 V 211.762 c 0,-0.15005 -0.103103,-0.27787 -0.214796,-0.27787 -0.115991,0 -0.214797,0.12226 -0.214797,0.27787 v 2.67308 l -1.031023,-2.78979 c -0.03437,-0.0889 -0.107398,-0.16116 -0.193317,-0.16116 h -0.15895 c -0.115989,0 -0.214796,0.12782 -0.214796,0.27787 z m 8.957634,-6.94669 c 0,0.1556 0.09881,0.27787 0.214796,0.27787 0.11599,0 0.214797,-0.12782 0.214797,-0.27787 v -2.99542 l 0.438184,1.86727 c 0.02578,0.11112 0.111695,0.20007 0.206205,0.20007 0.103102,0 0.176133,-0.0945 0.206205,-0.20007 l 0.438185,-1.86727 v 2.99542 c 0,0.1556 0.09881,0.27787 0.214796,0.27787 0.11599,0 0.214797,-0.12782 0.214797,-0.27787 v -3.46223 c 0,-0.15004 -0.09881,-0.27786 -0.214797,-0.27786 h -0.330787 c -0.09881,0 -0.184724,0.0889 -0.206205,0.20006 l -0.322194,1.37266 -0.322195,-1.37266 c -0.02578,-0.10555 -0.107398,-0.20006 -0.206205,-0.20006 h -0.330786 c -0.11599,0 -0.214796,0.12225 -0.214796,0.27786 z m -2.44659,-0.0611 c 0,0.1556 0.09881,0.27786 0.214797,0.27786 h 1.469207 c 0.115991,0 0.214797,-0.12226 0.214797,-0.27786 0,-0.15561 -0.09451,-0.27787 -0.214797,-0.27787 h -1.254411 v -1.19483 h 1.048207 c 0.120286,0 0.214796,-0.12782 0.214796,-0.27788 0,-0.15004 -0.09881,-0.27786 -0.214796,-0.27786 h -1.048207 v -1.02811 h 1.254411 c 0.115991,0 0.214797,-0.12226 0.214797,-0.27786 0,-0.15562 -0.09451,-0.27787 -0.214797,-0.27787 H 49.03288 c -0.120286,0 -0.214797,0.12225 -0.214797,0.27787 z m -2.841815,-3.33441 c 0,0.1556 0.09881,0.27786 0.214796,0.27786 h 0.64439 v 3.11767 c 0,0.15561 0.09881,0.27787 0.214797,0.27787 0.115989,0 0.214796,-0.12781 0.214796,-0.27787 v -3.11767 h 0.644389 c 0.11599,0 0.214797,-0.12782 0.214797,-0.27786 0,-0.15005 -0.09451,-0.27787 -0.214797,-0.27787 h -1.718372 c -0.120285,0 -0.214796,0.12225 -0.214796,0.27787 z m -2.49814,2.76755 c 0.05155,0.54462 0.438184,0.93364 0.889257,0.93364 0.05585,0 0.111694,-0.006 0.171837,-0.0167 0.451073,-0.0834 0.794747,-0.51127 0.794747,-1.11703 0,-0.87806 -0.618614,-1.08923 -1.073982,-1.38377 -0.15895,-0.11671 -0.326491,-0.23341 -0.326491,-0.55018 0,-0.28343 0.25346,-0.42236 0.476849,-0.43903 0.141765,0 0.262051,0.0333 0.34797,0.12782 0.115989,0.12782 0.115989,0.42791 0.322194,0.42791 0.120286,0 0.214796,-0.12782 0.214796,-0.27787 0,-0.0222 -0.0043,-0.05 -0.0086,-0.0722 -0.09881,-0.46126 -0.412409,-0.76135 -0.859186,-0.76135 h -0.02578 c -0.472552,0.0114 -0.897849,0.40013 -0.897849,0.99476 0,0.85027 0.605726,1.06701 1.048207,1.35599 0.176133,0.11671 0.352266,0.23897 0.352266,0.57796 0,0.16117 -0.05155,0.32234 -0.146061,0.42237 -0.103103,0.10009 -0.244869,0.15004 -0.378042,0.15004 -0.227684,0 -0.442482,-0.14449 -0.472553,-0.45014 -0.02148,-0.12782 -0.103102,-0.23896 -0.214796,-0.23896 -0.11599,0 -0.214797,0.12782 -0.214797,0.27786 z m -2.691458,-2.83425 c 0,0.05 0.0086,0.0945 0.02578,0.13338 l 0.734604,1.77835 v 1.5505 c 0,0.15561 0.09881,0.27787 0.214797,0.27787 0.11599,0 0.214796,-0.12781 0.214796,-0.27787 v -1.5505 l 0.734604,-1.77835 c 0.01719,-0.0389 0.02578,-0.0834 0.02578,-0.13338 0,-0.15004 -0.09881,-0.27786 -0.214796,-0.27786 -0.07733,0 -0.163245,0.0667 -0.189021,0.15005 l -0.571359,1.38378 -0.571358,-1.38378 c -0.03867,-0.0834 -0.103103,-0.15005 -0.189021,-0.15005 -0.11599,0 -0.214797,0.12226 -0.214797,0.27786 z m -2.596947,2.83425 c 0.05155,0.54462 0.438185,0.93364 0.889258,0.93364 0.05585,0 0.111693,-0.006 0.171837,-0.0167 0.451072,-0.0834 0.794747,-0.51127 0.794747,-1.11703 0,-0.87806 -0.618614,-1.08923 -1.073983,-1.38377 -0.158949,-0.11671 -0.32649,-0.23341 -0.32649,-0.55018 0,-0.28343 0.25346,-0.42236 0.476848,-0.43903 0.141765,0 0.262052,0.0333 0.34797,0.12782 0.115991,0.12782 0.115991,0.42791 0.322195,0.42791 0.120286,0 0.214797,-0.12782 0.214797,-0.27787 0,-0.0222 -0.0043,-0.05 -0.0086,-0.0722 -0.09881,-0.46126 -0.412408,-0.76135 -0.859185,-0.76135 h -0.02578 c -0.472552,0.0114 -0.897849,0.40013 -0.897849,0.99476 0,0.85027 0.605726,1.06701 1.048206,1.35599 0.176133,0.11671 0.352266,0.23897 0.352266,0.57796 0,0.16117 -0.05155,0.32234 -0.146061,0.42237 -0.103102,0.10009 -0.244868,0.15004 -0.378042,0.15004 -0.227684,0 -0.44248,-0.14449 -0.472552,-0.45014 -0.02148,-0.12782 -0.103102,-0.23896 -0.214797,-0.23896 -0.11599,0 -0.214796,0.12782 -0.214796,0.27786 z m 13.195235,-6.37983 c 0,0.15004 0.09881,0.27787 0.214797,0.27787 h 1.598086 c 0.11599,0 0.214797,-0.12783 0.214797,-0.27787 0,-0.15004 -0.09451,-0.27786 -0.214797,-0.27786 h -1.38329 v -3.12324 c 0,-0.1556 -0.09881,-0.27787 -0.214796,-0.27787 -0.11599,0 -0.214797,0.12782 -0.214797,0.27787 z m -2.566875,0 c 0,0.1556 0.09881,0.27787 0.214797,0.27787 h 1.469208 c 0.115991,0 0.214797,-0.12227 0.214797,-0.27787 0,-0.15561 -0.09451,-0.27786 -0.214797,-0.27786 h -1.254411 v -1.19484 h 1.048206 c 0.120287,0 0.214797,-0.12782 0.214797,-0.27786 0,-0.15006 -0.09881,-0.27788 -0.214797,-0.27788 h -1.048206 v -1.02811 h 1.254411 c 0.115991,0 0.214797,-0.12226 0.214797,-0.27786 0,-0.15561 -0.09451,-0.27787 -0.214797,-0.27787 H 49.03288 c -0.120286,0 -0.214797,0.12226 -0.214797,0.27787 z m -2.781671,-0.88918 c 0,0.41125 0.137469,0.81137 0.403817,1.03922 0.180429,0.15562 0.395225,0.20563 0.610022,0.20563 0.214796,0 0.429593,-0.05 0.610022,-0.20563 0.262052,-0.22785 0.403817,-0.62797 0.403817,-1.03922 v -2.51192 c 0,-0.15005 -0.103102,-0.27787 -0.214796,-0.27787 -0.115991,0 -0.214797,0.12227 -0.214797,0.27787 v 2.51192 c 0,0.42791 -0.227684,0.68911 -0.584246,0.68911 -0.128878,0 -0.266348,-0.0222 -0.373746,-0.11112 -0.146062,-0.12782 -0.2105,-0.35012 -0.2105,-0.57797 v -2.51191 c 0,-0.15006 -0.09881,-0.27788 -0.214797,-0.27788 -0.11599,0 -0.214796,0.12782 -0.214796,0.27788 z m -2.287641,0.95031 c 0,0.15005 0.09881,0.27786 0.214796,0.27786 0.115991,0 0.214797,-0.12781 0.214797,-0.27786 v -1.53383 h 0.768972 c 0.11599,0 0.214797,-0.12782 0.214797,-0.27786 0,-0.15006 -0.103103,-0.27788 -0.214797,-0.27788 h -0.768972 v -1.02811 h 0.962289 c 0.11599,0 0.214796,-0.12226 0.214796,-0.27786 0,-0.15561 -0.09451,-0.27787 -0.214796,-0.27787 h -1.177086 c -0.120285,0 -0.214796,0.12782 -0.214796,0.27787 z m -3.190321,0.11169 c 0,0.0747 0.04919,0.13832 0.106928,0.13832 h 0.305815 c 0.05774,0 0.106929,-0.0608 0.106929,-0.13832 v -0.26835 c 0,-0.0775 -0.04918,-0.13833 -0.106929,-0.13833 h -0.305815 c -0.05774,0 -0.106928,0.0636 -0.106928,0.13833 z m -2.553871,-0.11169 c 0,0.15005 0.09881,0.27786 0.214797,0.27786 0.11599,0 0.214796,-0.12225 0.214796,-0.27786 v -1.37267 h 0.524104 c 0.343674,0 0.700236,-0.10555 0.906441,-0.46126 0.107398,-0.17783 0.15895,-0.40013 0.167541,-0.63353 v -0.0612 c 0,-0.76691 -0.46396,-1.14482 -1.073982,-1.14482 h -0.7389 c -0.120287,0 -0.214797,0.12782 -0.214797,0.27787 z m 0.429593,-1.9284 v -1.18928 h 0.524104 c 0.13747,0 0.279235,0 0.403817,0.0666 0.141765,0.0889 0.240572,0.27786 0.240572,0.52795 v 0.0333 c -0.01719,0.45015 -0.330786,0.56129 -0.644389,0.56129 z m -1.605095,2.04004 c 0,0.0747 0.04919,0.13831 0.106929,0.13831 h 0.305815 c 0.05774,0 0.106928,-0.0608 0.106928,-0.13831 v -0.26836 c 0,-0.0774 -0.04918,-0.13833 -0.106928,-0.13833 h -0.305815 c -0.05774,0 -0.106929,0.0636 -0.106929,0.13833 z m -2.553869,-0.11169 c 0,0.15004 0.09881,0.27786 0.214796,0.27786 0.11599,0 0.214797,-0.12226 0.214797,-0.27786 v -1.50049 h 1.04391 v 1.50049 c 0,0.15004 0.09881,0.27786 0.214797,0.27786 0.11599,0 0.214796,-0.12226 0.214796,-0.27786 v -3.46223 c 0,-0.15561 -0.09881,-0.27788 -0.214796,-0.27788 -0.115991,0 -0.214797,0.12782 -0.214797,0.27788 v 1.406 h -1.04391 v -1.406 c 0,-0.15561 -0.09881,-0.27788 -0.214797,-0.27788 -0.11599,0 -0.214796,0.12782 -0.214796,0.27788 z M 51.462284,194.323 c 0,0.15561 0.09881,0.27787 0.214798,0.27787 h 1.469207 c 0.115991,0 0.214797,-0.12226 0.214797,-0.27787 0,-0.1556 -0.09451,-0.27786 -0.214797,-0.27786 h -1.254411 v -1.19483 h 1.048206 c 0.120287,0 0.214797,-0.12782 0.214797,-0.27787 0,-0.15005 -0.09881,-0.27786 -0.214797,-0.27786 h -1.048206 v -1.02812 h 1.254411 c 0.115991,0 0.214797,-0.12226 0.214797,-0.27787 0,-0.1556 -0.09451,-0.27786 -0.214797,-0.27786 h -1.469207 c -0.120287,0 -0.214798,0.12226 -0.214798,0.27786 z m -2.78167,0.0612 c 0,0.15006 0.09881,0.27787 0.214796,0.27787 0.11599,0 0.214797,-0.12781 0.214797,-0.27787 v -2.66753 l 1.026727,2.7898 c 0.03437,0.0889 0.107398,0.1556 0.193316,0.1556 h 0.163246 c 0.111694,0 0.214796,-0.12781 0.214796,-0.27787 v -3.46223 c 0,-0.15004 -0.103102,-0.27786 -0.214796,-0.27786 -0.115991,0 -0.214797,0.12226 -0.214797,0.27786 v 2.67308 l -1.031023,-2.78978 c -0.03437,-0.089 -0.107398,-0.16116 -0.193317,-0.16116 H 48.89541 c -0.11599,0 -0.214796,0.12782 -0.214796,0.27786 z m -2.459478,-0.0612 c 0,0.15006 0.09881,0.27787 0.214796,0.27787 h 1.228636 c 0.115991,0 0.214797,-0.12781 0.214797,-0.27787 0,-0.15004 -0.09451,-0.27786 -0.214797,-0.27786 h -0.399521 v -2.77868 h 0.313603 c 0.11599,0 0.214796,-0.12781 0.214796,-0.27787 0,-0.15004 -0.09451,-0.27786 -0.214796,-0.27786 h -1.056799 c -0.120286,0 -0.214797,0.12782 -0.214797,0.27786 0,0.15006 0.09881,0.27787 0.214797,0.27787 h 0.313603 v 2.77868 h -0.399522 c -0.120285,0 -0.214796,0.12782 -0.214796,0.27786 z m -2.854703,-1.67832 c 0,0.65022 0.133174,1.30043 0.39093,1.64498 0.18902,0.25564 0.481144,0.40568 0.799043,0.40568 0.128878,0 0.262051,-0.0277 0.399521,-0.0778 0.154654,-0.05 0.451073,-0.16117 0.451073,-0.42237 v -1.41712 c 0,-0.15005 -0.09881,-0.27787 -0.214796,-0.27787 h -0.700238 c -0.11599,0 -0.214796,0.12227 -0.214796,0.27787 0,0.15561 0.09451,0.27787 0.214796,0.27787 h 0.485441 v 0.96697 c -0.146062,0.0667 -0.287827,0.10009 -0.416705,0.10009 -0.300715,0 -0.536992,-0.18339 -0.640094,-0.56128 -0.07733,-0.27788 -0.120286,-0.62798 -0.120286,-0.97254 0,-0.46127 0.07733,-0.90584 0.266347,-1.15037 0.120287,-0.16117 0.283532,-0.23896 0.446778,-0.23896 0.180428,0 0.360857,0.0945 0.476848,0.26675 0.04296,0.0612 0.09451,0.10009 0.163245,0.10009 0.11599,0 0.214797,-0.12782 0.214797,-0.27788 0,-0.0666 -0.01719,-0.12782 -0.05155,-0.17783 -0.158949,-0.25008 -0.386634,-0.4168 -0.635797,-0.46126 -0.06015,-0.0167 -0.120287,-0.0222 -0.18043,-0.0222 -0.309307,0 -0.571359,0.18894 -0.743196,0.41679 -0.262051,0.33901 -0.390929,0.96699 -0.390929,1.60052 z m -2.618427,1.73945 c 0,0.15006 0.09881,0.27788 0.214797,0.27788 0.11599,0 0.214796,-0.12782 0.214796,-0.27788 v -2.66752 l 1.026727,2.78979 c 0.03437,0.089 0.107399,0.15561 0.193318,0.15561 h 0.163245 c 0.111694,0 0.214797,-0.12782 0.214797,-0.27788 v -3.46222 c 0,-0.15005 -0.103103,-0.27786 -0.214797,-0.27786 -0.11599,0 -0.214796,0.12225 -0.214796,0.27786 v 2.67308 L 41.31507,190.8052 c -0.03437,-0.0889 -0.107399,-0.16115 -0.193317,-0.16115 h -0.15895 c -0.11599,0 -0.214797,0.12781 -0.214797,0.27786 z m -2.506732,-0.0612 c 0,0.15561 0.09881,0.27788 0.214797,0.27788 h 1.469208 c 0.115989,0 0.214796,-0.12227 0.214796,-0.27788 0,-0.1556 -0.09451,-0.27786 -0.214796,-0.27786 h -1.254412 v -1.19483 h 1.048207 c 0.120286,0 0.214797,-0.12781 0.214797,-0.27787 0,-0.15004 -0.09881,-0.27786 -0.214797,-0.27786 h -1.048207 v -1.02811 h 1.254412 c 0.115989,0 0.214796,-0.12227 0.214796,-0.27787 0,-0.15561 -0.09451,-0.27787 -0.214796,-0.27787 h -1.469208 c -0.120287,0 -0.214797,0.12226 -0.214797,0.27787 z m 14.612385,-6.77392 c 0,0.0747 0.04918,0.13833 0.106929,0.13833 h 0.305814 c 0.05774,0 0.106928,-0.0608 0.106928,-0.13833 v -0.26834 c 0,-0.0775 -0.04918,-0.13833 -0.106928,-0.13833 h -0.305814 c -0.05774,0 -0.106929,0.0636 -0.106929,0.13833 z m -2.639789,-1.85107 c 0,0.6502 0.133174,1.30041 0.39093,1.64497 0.18902,0.25563 0.481144,0.40569 0.799043,0.40569 0.128878,0 0.262052,-0.0277 0.399521,-0.0778 0.154654,-0.05 0.451073,-0.16117 0.451073,-0.42235 v -1.41713 c 0,-0.15004 -0.09881,-0.27786 -0.214796,-0.27786 h -0.700237 c -0.115991,0 -0.214797,0.12225 -0.214797,0.27786 0,0.1556 0.09451,0.27787 0.214797,0.27787 h 0.48544 v 0.96698 c -0.146062,0.0667 -0.287827,0.1 -0.416705,0.1 -0.300715,0 -0.536992,-0.18339 -0.640094,-0.56129 -0.07733,-0.27786 -0.120286,-0.62798 -0.120286,-0.97254 0,-0.46125 0.07733,-0.90584 0.266348,-1.15037 0.120286,-0.16117 0.283531,-0.23896 0.446777,-0.23896 0.180429,0 0.360857,0.0945 0.476848,0.26675 0.04296,0.0612 0.09451,0.10009 0.163245,0.10009 0.11599,0 0.214797,-0.12782 0.214797,-0.27787 0,-0.0667 -0.01718,-0.12781 -0.05155,-0.17784 -0.158949,-0.25007 -0.386634,-0.4168 -0.635797,-0.46125 -0.06015,-0.0167 -0.120287,-0.0222 -0.18043,-0.0222 -0.309307,0 -0.571358,0.18896 -0.743196,0.41681 -0.262051,0.33899 -0.390929,0.96697 -0.390929,1.60052 z m -2.506733,1.73945 c 0,0.1556 0.09881,0.27786 0.214797,0.27786 0.11599,0 0.214796,-0.12782 0.214796,-0.27786 v -1.37267 h 0.36945 l 0.704533,1.57272 c 0.03867,0.0556 0.103102,0.0778 0.158949,0.0778 0.11599,0 0.214796,-0.12782 0.214796,-0.27786 0,-0.05 -0.0043,-0.0945 -0.02578,-0.13895 l -0.584247,-1.30041 c 0.421001,-0.20006 0.584247,-0.73913 0.584247,-1.35599 0,-0.54462 -0.5284,-0.83361 -0.932217,-0.87807 H 47.92193 c -0.120285,0 -0.214796,0.12227 -0.214796,0.27787 z m 0.429593,-1.9284 v -1.18928 h 0.463961 c 0.13747,0.0114 0.27494,0.0667 0.395226,0.1556 0.06014,0.0389 0.133173,0.0945 0.133173,0.16673 0,0.27231 -0.0086,0.56685 -0.167541,0.73913 -0.09451,0.10555 -0.227685,0.12782 -0.352266,0.12782 z m -3.048019,1.86726 c 0,0.15561 0.09881,0.27787 0.214797,0.27787 h 1.469207 c 0.115991,0 0.214797,-0.12226 0.214797,-0.27787 0,-0.1556 -0.09451,-0.27787 -0.214797,-0.27787 h -1.254411 v -1.19483 h 1.048207 c 0.120286,0 0.214797,-0.12782 0.214797,-0.27786 0,-0.15005 -0.09881,-0.27787 -0.214797,-0.27787 h -1.048207 v -1.02811 h 1.254411 c 0.115991,0 0.214797,-0.12226 0.214797,-0.27786 0,-0.15561 -0.09451,-0.27788 -0.214797,-0.27788 h -1.469207 c -0.120287,0 -0.214797,0.12227 -0.214797,0.27788 z m -2.841815,0.0612 c 0,0.1556 0.09881,0.27786 0.214797,0.27786 0.11599,0 0.214796,-0.12782 0.214796,-0.27786 v -2.99542 l 0.438185,1.86727 c 0.02578,0.11112 0.111694,0.20007 0.206205,0.20007 0.103102,0 0.176133,-0.0945 0.206204,-0.20007 l 0.438185,-1.86727 v 2.99542 c 0,0.1556 0.09881,0.27786 0.214796,0.27786 0.115991,0 0.214797,-0.12782 0.214797,-0.27786 v -3.46224 c 0,-0.15005 -0.09881,-0.27787 -0.214797,-0.27787 h -0.330786 c -0.09881,0 -0.184725,0.0889 -0.206204,0.20007 l -0.322195,1.37267 -0.322195,-1.37267 c -0.02578,-0.10555 -0.107398,-0.20007 -0.206204,-0.20007 h -0.330787 c -0.115991,0 -0.214797,0.12226 -0.214797,0.27787 z m -2.446589,-0.0612 c 0,0.15561 0.09881,0.27787 0.214796,0.27787 h 1.469208 c 0.11599,0 0.214797,-0.12226 0.214797,-0.27787 0,-0.1556 -0.09451,-0.27787 -0.214797,-0.27787 h -1.254412 v -1.19483 h 1.048208 c 0.120286,0 0.214796,-0.12782 0.214796,-0.27786 0,-0.15005 -0.09881,-0.27787 -0.214796,-0.27787 h -1.048208 v -1.02811 h 1.254412 c 0.11599,0 0.214797,-0.12226 0.214797,-0.27786 0,-0.15561 -0.09451,-0.27788 -0.214797,-0.27788 h -1.469208 c -0.120286,0 -0.214796,0.12227 -0.214796,0.27788 z M 133.18945,70.025387 V 159.11719 H 108.46484 V 92.13672 h -0.59961 v 66.98047 H 82.574217 V 92.892576 h -0.599606 v 66.224614 h -43.16797 v 0.5996 h 40.900388 v 61.31055 h 0.599615 v -61.31055 h 62.142576 v 67.16798 h 0.60156 v -67.16798 h 45.4336 v -0.5996 H 133.78906 V 70.025387 Z m 49.35003,101.217993 c 0,0.24549 0.1523,0.45462 0.3311,0.45462 h 2.46338 c 0.17879,0 0.3311,-0.20913 0.3311,-0.45462 0,-0.24549 -0.14569,-0.45461 -0.3311,-0.45461 h -2.13228 v -5.10991 c 0,-0.25459 -0.15231,-0.45464 -0.3311,-0.45464 -0.1788,0 -0.3311,0.20913 -0.3311,0.45464 z m -3.63457,-5.45543 c 0,0.25459 0.15231,0.45464 0.3311,0.45464 h 0.9933 v 5.10081 c 0,0.25458 0.1523,0.45461 0.33109,0.45461 0.1788,0 0.3311,-0.20912 0.3311,-0.45461 v -5.10081 h 0.99331 c 0.17878,0 0.33109,-0.20913 0.33109,-0.45464 0,-0.24548 -0.14569,-0.45461 -0.33109,-0.45461 h -2.6488 c -0.18541,0 -0.3311,0.20003 -0.3311,0.45461 z m -3.26375,5.55545 c 0,0.24549 0.15231,0.45461 0.33111,0.45461 0.17878,0 0.33109,-0.20003 0.33109,-0.45461 v -2.24582 h 0.80788 c 0.52977,0 1.07939,-0.17276 1.39724,-0.75466 0.16556,-0.29097 0.24501,-0.65466 0.25826,-1.03653 v -0.10009 c 0,-1.25476 -0.71517,-1.87303 -1.6555,-1.87303 h -1.13897 c -0.18542,0 -0.33111,0.20913 -0.33111,0.45462 z m 0.6622,-3.15505 v -1.94576 h 0.80788 c 0.2119,0 0.43044,0 0.62247,0.10907 0.21853,0.14548 0.37083,0.45461 0.37083,0.86377 v 0.0546 c -0.0265,0.73648 -0.5099,0.91833 -0.9933,0.91833 z m -4.1842,2.0185 c 0,0.66374 0.29799,1.182 0.6291,1.43659 0.19866,0.14548 0.39731,0.20913 0.58273,0.20913 0.64233,0 1.17872,-0.76376 1.17872,-1.60934 0,-0.0363 -0.007,-0.0818 -0.007,-0.1182 v -4.44617 c 0,-0.24551 -0.15231,-0.45464 -0.33111,-0.45464 -0.17879,0 -0.33109,0.20913 -0.33109,0.45464 v 4.51889 c 0,0.50917 -0.23839,0.72739 -0.48341,0.72739 -0.27812,0 -0.57612,-0.27275 -0.57612,-0.72739 0,-0.0455 0.007,-0.0909 0.0132,-0.14547 v -0.0818 c 0,-0.25458 -0.13906,-0.45463 -0.32447,-0.45463 -0.17218,0 -0.29137,0.15457 -0.32448,0.3637 -0.0199,0.1182 -0.0265,0.21822 -0.0265,0.32733 z m -6.70627,1.03653 c 0,0.25459 0.1523,0.45462 0.3311,0.45462 h 2.26472 c 0.1788,0 0.3311,-0.20003 0.3311,-0.45462 0,-0.25458 -0.14568,-0.45461 -0.3311,-0.45461 h -1.93363 v -1.95487 h 1.61578 c 0.18541,0 0.33109,-0.20912 0.33109,-0.45462 0,-0.24549 -0.1523,-0.45461 -0.33109,-0.45461 h -1.61578 v -1.68208 h 1.93363 c 0.1788,0 0.3311,-0.20005 0.3311,-0.45464 0,-0.25458 -0.14568,-0.45461 -0.3311,-0.45461 h -2.26472 c -0.18542,0 -0.3311,0.20003 -0.3311,0.45461 z m -3.66106,0.1 c 0,0.24549 0.1523,0.45461 0.3311,0.45461 0.17879,0 0.33109,-0.20912 0.33109,-0.45461 v -4.36435 l 1.58266,4.56437 c 0.053,0.14549 0.16555,0.25459 0.29798,0.25459 h 0.25164 c 0.17218,0 0.33111,-0.20912 0.33111,-0.45461 v -5.66455 c 0,-0.2455 -0.15893,-0.45463 -0.33111,-0.45463 -0.17878,0 -0.33109,0.20004 -0.33109,0.45463 v 4.37343 l -1.58929,-4.56437 c -0.053,-0.14548 -0.16553,-0.26369 -0.29798,-0.26369 h -0.24501 c -0.1788,0 -0.3311,0.20913 -0.3311,0.45463 z m -3.16442,-0.1 c 0,0.24549 0.15231,0.45462 0.3311,0.45462 h 1.89389 c 0.1788,0 0.3311,-0.20913 0.3311,-0.45462 0,-0.24549 -0.14568,-0.45461 -0.3311,-0.45461 h -0.61584 v -4.54618 h 0.48341 c 0.17879,0 0.33109,-0.20913 0.33109,-0.45464 0,-0.24548 -0.14567,-0.45461 -0.33109,-0.45461 h -1.62901 c -0.18542,0 -0.3311,0.20913 -0.3311,0.45461 0,0.24551 0.1523,0.45464 0.3311,0.45464 h 0.4834 v 4.54618 h -0.61585 c -0.18541,0 -0.3311,0.20912 -0.3311,0.45461 z m -3.77363,-2.74589 c 0,1.06381 0.20528,2.12761 0.6026,2.69133 0.29137,0.41825 0.74167,0.66375 1.2317,0.66375 0.19865,0 0.40393,-0.0455 0.61584,-0.1273 0.23839,-0.0818 0.6953,-0.26367 0.6953,-0.69102 v -2.31855 c 0,-0.24549 -0.1523,-0.45462 -0.33109,-0.45462 h -1.07938 c -0.1788,0 -0.33111,0.20003 -0.33111,0.45462 0,0.25458 0.14568,0.45463 0.33111,0.45463 h 0.74828 v 1.58207 c -0.22516,0.10907 -0.44368,0.16365 -0.64233,0.16365 -0.46354,0 -0.82776,-0.30004 -0.98668,-0.91833 -0.1192,-0.45461 -0.18541,-1.02744 -0.18541,-1.59117 0,-0.75465 0.11919,-1.48205 0.41055,-1.88211 0.18542,-0.26369 0.43705,-0.39097 0.68869,-0.39097 0.27813,0 0.55625,0.15457 0.73504,0.43643 0.0662,0.10009 0.14568,0.16367 0.25164,0.16367 0.17879,0 0.3311,-0.20913 0.3311,-0.45463 0,-0.10908 -0.0265,-0.20911 -0.0795,-0.29096 -0.24502,-0.40916 -0.59599,-0.68191 -0.98006,-0.75466 -0.0927,-0.0273 -0.18541,-0.0363 -0.27812,-0.0363 -0.47678,0 -0.88073,0.30914 -1.14561,0.68193 -0.40393,0.55463 -0.6026,1.58207 -0.6026,2.6186 z m -3.40943,2.84591 c 0,0.24549 0.15231,0.45461 0.3311,0.45461 0.1788,0 0.33111,-0.20912 0.33111,-0.45461 v -4.36435 l 1.58265,4.56437 c 0.053,0.14549 0.16554,0.25459 0.29799,0.25459 h 0.25163 c 0.17218,0 0.3311,-0.20912 0.3311,-0.45461 v -5.66454 c 0,-0.24551 -0.15892,-0.45464 -0.3311,-0.45464 -0.17879,0 -0.33109,0.20005 -0.33109,0.45464 v 4.37342 l -1.58928,-4.56437 c -0.053,-0.14548 -0.16556,-0.26369 -0.29798,-0.26369 h -0.24503 c -0.17879,0 -0.3311,0.20913 -0.3311,0.45464 z m -3.23725,-0.1 c 0,0.25459 0.1523,0.45462 0.3311,0.45462 h 2.26472 c 0.1788,0 0.33111,-0.20003 0.33111,-0.45462 0,-0.25458 -0.14569,-0.45461 -0.33111,-0.45461 h -1.93362 v -1.95487 h 1.61577 c 0.18541,0 0.33109,-0.20912 0.33109,-0.45463 0,-0.24549 -0.1523,-0.45461 -0.33109,-0.45461 h -1.61577 v -1.68208 h 1.93362 c 0.1788,0 0.33111,-0.20004 0.33111,-0.45463 0,-0.25458 -0.14569,-0.45461 -0.33111,-0.45461 h -2.26472 c -0.18542,0 -0.3311,0.20003 -0.3311,0.45461 z m 41.34051,35.02675 c 0,0.12082 0.0811,0.22375 0.17625,0.22375 0.13394,0 0.26435,0 0.39477,-0.0313 0.52519,-0.12083 0.91997,-0.66234 0.91997,-1.4455 0,-0.39383 -0.10574,-0.73395 -0.24673,-0.97561 -0.22912,-0.38935 -0.5393,-0.68025 -1.06801,-0.68025 -0.0987,0 -0.17625,0.10294 -0.17625,0.22376 z m 0.35248,-0.23272 v -2.21527 c 0.14804,0.0224 0.26436,0.0805 0.36659,0.17455 0.22559,0.20586 0.41944,0.54598 0.41944,1.02036 0,0.64443 -0.31723,0.96666 -0.78603,1.02036 z m -2.53967,0.23272 c 0,0.12529 0.0811,0.22375 0.17624,0.22375 h 1.20549 c 0.0952,0 0.17624,-0.0985 0.17624,-0.22375 0,-0.12531 -0.0775,-0.22377 -0.17624,-0.22377 h -1.02925 v -0.96219 h 0.86006 c 0.0987,0 0.17624,-0.10293 0.17624,-0.22376 0,-0.12083 -0.0812,-0.22377 -0.17624,-0.22377 h -0.86006 v -0.82792 h 1.02925 c 0.0952,0 0.17624,-0.0985 0.17624,-0.22376 0,-0.12531 -0.0775,-0.22376 -0.17624,-0.22376 h -1.20549 c -0.0987,0 -0.17624,0.0985 -0.17624,0.22376 z m -2.33171,-2.68517 c 0,0.12531 0.0812,0.22376 0.17624,0.22376 h 0.52873 v 2.51062 c 0,0.12532 0.0812,0.22377 0.17624,0.22377 0.0952,0 0.17624,-0.10305 0.17624,-0.22377 v -2.51062 h 0.52872 c 0.0952,0 0.17624,-0.10293 0.17624,-0.22376 0,-0.12084 -0.0775,-0.22376 -0.17624,-0.22376 h -1.40993 c -0.0987,0 -0.17624,0.0985 -0.17624,0.22376 z m -2.12021,1.96912 c 0,0.33117 0.11278,0.65339 0.33133,0.83687 0.14804,0.12532 0.32428,0.16559 0.50052,0.16559 0.17625,0 0.35248,-0.0404 0.50052,-0.16559 0.21502,-0.18348 0.33133,-0.5057 0.33133,-0.83687 v -2.02282 c 0,-0.12085 -0.0846,-0.22377 -0.17624,-0.22377 -0.0952,0 -0.17624,0.0985 -0.17624,0.22377 v 2.02282 c 0,0.34459 -0.18681,0.55492 -0.47937,0.55492 -0.10574,0 -0.21853,-0.0179 -0.30666,-0.0895 -0.11985,-0.10304 -0.17272,-0.28194 -0.17272,-0.46542 v -2.02282 c 0,-0.12085 -0.0811,-0.22377 -0.17623,-0.22377 -0.0952,0 -0.17624,0.10293 -0.17624,0.22377 z m -2.21892,0.76526 c 0,0.12532 0.0812,0.22377 0.17624,0.22377 0.0952,0 0.17625,-0.10305 0.17625,-0.22377 v -2.41216 l 0.35952,1.50369 c 0.0211,0.0895 0.0916,0.16111 0.16919,0.16111 0.0846,0 0.14452,-0.0761 0.16919,-0.16111 l 0.35954,-1.50369 v 2.41216 c 0,0.12532 0.0812,0.22377 0.17623,0.22377 0.0952,0 0.17624,-0.10305 0.17624,-0.22377 v -2.78808 c 0,-0.12085 -0.0812,-0.22377 -0.17624,-0.22377 h -0.27141 c -0.0811,0 -0.15156,0.0715 -0.16919,0.16111 l -0.26436,1.1054 -0.26436,-1.1054 c -0.0211,-0.0851 -0.0881,-0.16111 -0.16919,-0.16111 h -0.27141 c -0.0952,0 -0.17624,0.0985 -0.17624,0.22377 z m 2.58629,-27.25479 c 0,0.12083 0.0929,0.22377 0.20199,0.22377 0.10907,0 0.20198,-0.10293 0.20198,-0.22377 v -2.14813 l 0.9655,2.24658 c 0.0323,0.0716 0.10099,0.12532 0.18179,0.12532 h 0.15352 c 0.10503,0 0.20197,-0.10293 0.20197,-0.22377 v -2.78809 c 0,-0.12083 -0.0969,-0.22376 -0.20197,-0.22376 -0.10909,0 -0.20199,0.0984 -0.20199,0.22376 v 2.1526 l -0.96955,-2.24658 c -0.0324,-0.0715 -0.10098,-0.12978 -0.18178,-0.12978 h -0.14947 c -0.10909,0 -0.20199,0.10294 -0.20199,0.22376 z m -2.53097,-1.40523 c 0,0.76526 0.3555,1.64242 0.99782,1.64242 0.6504,0 0.98975,-0.87716 0.99782,-1.64242 0,-0.80107 -0.35146,-1.64243 -0.99782,-1.64243 -0.16159,0 -0.35953,0.0761 -0.48073,0.18796 -0.31913,0.2909 -0.51709,0.82345 -0.51709,1.41867 z m 0.40398,0 v -0.0493 c 0,-0.34907 0.0848,-0.70261 0.24642,-0.93085 h 0.009 c 0.0687,-0.10737 0.1939,-0.21483 0.33933,-0.21483 0.42014,0 0.59385,0.69369 0.59385,1.19491 0,0.46542 -0.18582,1.19489 -0.59385,1.19489 -0.41205,0 -0.59384,-0.72947 -0.59384,-1.19489 z M 131.26201,150.4668 c 0,0.12082 0.0929,0.22375 0.20198,0.22375 0.10909,0 0.20199,-0.10293 0.20199,-0.22375 v -1.23519 h 0.72312 c 0.10908,0 0.20199,-0.10293 0.20199,-0.22376 0,-0.12084 -0.097,-0.22376 -0.20199,-0.22376 h -0.72312 v -0.82793 h 0.90492 c 0.10906,0 0.20197,-0.0984 0.20197,-0.22376 0,-0.1253 -0.0888,-0.22377 -0.20197,-0.22377 h -1.10691 c -0.11311,0 -0.20198,0.10294 -0.20198,0.22377 z m -2.48652,0 c 0,0.12082 0.0929,0.22375 0.20199,0.22375 0.10906,0 0.20199,-0.10293 0.20199,-0.22375 v -1.23519 h 0.72311 c 0.10907,0 0.20199,-0.10293 0.20199,-0.22376 0,-0.12084 -0.097,-0.22376 -0.20199,-0.22376 h -0.72311 v -0.82793 h 0.90489 c 0.10908,0 0.202,-0.0984 0.202,-0.22376 0,-0.1253 -0.0888,-0.22377 -0.202,-0.22377 h -1.10688 c -0.11312,0 -0.20199,0.10294 -0.20199,0.22377 z m -2.86627,-1.40525 c 0,0.76528 0.35551,1.64242 0.99782,1.64242 0.65041,0 0.98975,-0.87714 0.99782,-1.64242 0,-0.80107 -0.35145,-1.64242 -0.99782,-1.64242 -0.16158,0 -0.35953,0.0761 -0.48073,0.18797 -0.31913,0.29088 -0.51709,0.82344 -0.51709,1.41865 z m 0.40398,0 v -0.0492 c 0,-0.34907 0.0849,-0.70262 0.24643,-0.93087 h 0.009 c 0.0687,-0.10737 0.1939,-0.21481 0.33933,-0.21481 0.42015,0 0.59385,0.69367 0.59385,1.1949 0,0.46543 -0.18582,1.19491 -0.59385,1.19491 -0.41204,0 -0.59383,-0.72948 -0.59383,-1.19491 z m 2.18776,-25.1881 c 0,0.12084 0.0929,0.22377 0.20198,0.22377 0.10908,0 0.20199,-0.10293 0.20199,-0.22377 v -2.14813 l 0.9655,2.24658 c 0.0323,0.0715 0.101,0.12532 0.1818,0.12532 h 0.1535 c 0.10503,0 0.20199,-0.10293 0.20199,-0.22377 v -2.78809 c 0,-0.12083 -0.097,-0.22376 -0.20199,-0.22376 -0.10906,0 -0.20198,0.0984 -0.20198,0.22376 v 2.15262 l -0.96955,-2.2466 c -0.0323,-0.0715 -0.10099,-0.12978 -0.18178,-0.12978 h -0.14948 c -0.10906,0 -0.20198,0.10294 -0.20198,0.22376 z M 125.97,122.46822 c 0,0.76526 0.3555,1.64242 0.99782,1.64242 0.6504,0 0.98973,-0.87716 0.99782,-1.64242 0,-0.80107 -0.35145,-1.64242 -0.99782,-1.64242 -0.16159,0 -0.35953,0.0761 -0.48073,0.18795 -0.31914,0.2909 -0.51709,0.82345 -0.51709,1.41867 z m 0.40398,0 v -0.0493 c 0,-0.34907 0.0848,-0.70261 0.24642,-0.93085 h 0.009 c 0.0687,-0.10737 0.19391,-0.21482 0.33934,-0.21482 0.42013,0 0.59384,0.69368 0.59384,1.1949 0,0.46542 -0.18584,1.19489 -0.59384,1.19489 -0.41207,0 -0.59385,-0.72947 -0.59385,-1.19489 z M 79.930798,150.5336 c 0,0.12083 0.09292,0.22376 0.201982,0.22376 0.109075,0 0.201991,-0.10293 0.201991,-0.22376 v -1.23518 h 0.723118 c 0.109067,0 0.201982,-0.10293 0.201982,-0.22376 0,-0.12083 -0.09695,-0.22377 -0.201982,-0.22377 h -0.723118 v -0.82791 h 0.904904 c 0.109076,0 0.201991,-0.0984 0.201991,-0.22377 0,-0.12532 -0.08888,-0.22377 -0.201991,-0.22377 H 80.13278 c -0.113111,0 -0.201982,0.10294 -0.201982,0.22377 z m -2.486524,0 c 0,0.12083 0.09291,0.22376 0.201991,0.22376 0.109067,0 0.201982,-0.10293 0.201982,-0.22376 v -1.23518 h 0.723119 c 0.109075,0 0.20199,-0.10293 0.20199,-0.22376 0,-0.12083 -0.09696,-0.22377 -0.20199,-0.22377 h -0.723119 v -0.82791 h 0.904905 c 0.109075,0 0.201991,-0.0984 0.201991,-0.22377 0,-0.12532 -0.08887,-0.22377 -0.201991,-0.22377 h -1.106887 c -0.11312,0 -0.201991,0.10294 -0.201991,0.22377 z m -2.866259,-1.40524 c 0,0.76528 0.355498,1.64244 0.997819,1.64244 0.6504,0 0.98974,-0.87716 0.997819,-1.64244 0,-0.80106 -0.351459,-1.64242 -0.997819,-1.64242 -0.161591,0 -0.359539,0.0761 -0.480731,0.18795 -0.31914,0.2909 -0.517088,0.82346 -0.517088,1.41867 z m 0.403976,0 v -0.0492 c 0,-0.34908 0.08484,-0.70262 0.246424,-0.93086 h 0.0081 c 0.06867,-0.10737 0.193908,-0.2148 0.33934,-0.2148 0.420134,0 0.593843,0.69366 0.593843,1.19488 0,0.46544 -0.185829,1.1949 -0.593843,1.1949 -0.412056,0 -0.593844,-0.72946 -0.593844,-1.1949 z m 1.998776,-25.1881 c 0,0.12084 0.09291,0.22376 0.201987,0.22376 0.109073,0 0.201989,-0.10293 0.201989,-0.22376 v -2.14812 l 0.9655,2.24658 c 0.03235,0.0716 0.100996,0.1253 0.181787,0.1253 h 0.15351 c 0.10504,0 0.201991,-0.10293 0.201991,-0.22376 v -2.78809 c 0,-0.12082 -0.09695,-0.22377 -0.201991,-0.22377 -0.109075,0 -0.201982,0.0984 -0.201982,0.22377 v 2.1526 l -0.969544,-2.24658 c -0.03236,-0.0715 -0.100996,-0.12979 -0.181787,-0.12979 h -0.149473 c -0.109073,0 -0.201987,0.10294 -0.201987,0.22377 z m -2.53096,-1.40523 c 0,0.76527 0.355499,1.64242 0.997819,1.64242 0.6504,0 0.98974,-0.87715 0.997819,-1.64242 0,-0.80108 -0.351457,-1.64242 -0.997819,-1.64242 -0.16159,0 -0.359538,0.0761 -0.48073,0.18796 -0.319141,0.29089 -0.517089,0.82345 -0.517089,1.41866 z m 0.403976,0 v -0.0493 c 0,-0.34906 0.08483,-0.70261 0.246425,-0.93086 h 0.0081 c 0.06868,-0.10737 0.193908,-0.21481 0.33934,-0.21481 0.420134,0 0.593843,0.69367 0.593843,1.1949 0,0.46542 -0.185828,1.1949 -0.593843,1.1949 -0.412055,0 -0.593845,-0.72948 -0.593845,-1.1949 z m 85.915057,28.14453 c 0,0.0401 0.0309,0.0742 0.0671,0.0742 h 0.19172 c 0.0362,0 0.067,-0.0326 0.067,-0.0742 v -0.14407 c 0,-0.0416 -0.0309,-0.0743 -0.067,-0.0743 h -0.19172 c -0.0362,0 -0.0671,0.0342 -0.0671,0.0743 z m -2.21579,-0.62531 c 0.0484,0.43857 0.41205,0.75185 0.83623,0.75185 0.0526,0 0.10504,-0.005 0.16159,-0.0135 0.42418,-0.0671 0.74736,-0.41172 0.74736,-0.89954 0,-0.70708 -0.58173,-0.87714 -1.00994,-1.11433 -0.14948,-0.0939 -0.30702,-0.18796 -0.30702,-0.44306 0,-0.22823 0.23834,-0.34012 0.4484,-0.35354 0.13333,0 0.24644,0.0268 0.32723,0.10293 0.10907,0.10294 0.10907,0.3446 0.30298,0.3446 0.11312,0 0.20199,-0.10294 0.20199,-0.22377 0,-0.0179 -0.004,-0.0403 -0.008,-0.0582 -0.0929,-0.37144 -0.38781,-0.61311 -0.80794,-0.61311 h -0.0243 c -0.44437,0.009 -0.8443,0.32222 -0.8443,0.80107 0,0.68472 0.5696,0.85925 0.9857,1.09196 0.16562,0.094 0.33126,0.19244 0.33126,0.46543 0,0.12978 -0.0485,0.25957 -0.13736,0.34012 -0.0969,0.0805 -0.23027,0.12083 -0.35549,0.12083 -0.21411,0 -0.4161,-0.11635 -0.44438,-0.36249 -0.0202,-0.10293 -0.097,-0.19244 -0.20199,-0.19244 -0.10907,0 -0.20199,0.10293 -0.20199,0.22376 z m -2.56731,0.5057 c 0,0.12085 0.0929,0.22377 0.20199,0.22377 0.10907,0 0.20198,-0.10294 0.20198,-0.22377 v -2.14812 l 0.96551,2.24658 c 0.0323,0.0715 0.10099,0.12531 0.18178,0.12531 h 0.15352 c 0.10503,0 0.20198,-0.10294 0.20198,-0.22377 v -2.78809 c 0,-0.12084 -0.097,-0.22376 -0.20198,-0.22376 -0.10908,0 -0.20199,0.0984 -0.20199,0.22376 v 2.15261 l -0.96954,-2.24659 c -0.0323,-0.0715 -0.101,-0.12978 -0.1818,-0.12978 h -0.14946 c -0.10909,0 -0.20199,0.10293 -0.20199,0.22376 z m -2.31281,-0.0492 c 0,0.12084 0.0929,0.22377 0.20198,0.22377 h 1.15538 c 0.10906,0 0.20199,-0.10293 0.20199,-0.22377 0,-0.12082 -0.0888,-0.22377 -0.20199,-0.22377 h -0.3757 v -2.23762 h 0.2949 c 0.10907,0 0.20199,-0.10293 0.20199,-0.22377 0,-0.12082 -0.0888,-0.22377 -0.20199,-0.22377 h -0.99379 c -0.1131,0 -0.20198,0.10294 -0.20198,0.22377 0,0.12084 0.0929,0.22377 0.20198,0.22377 h 0.29491 v 2.23762 h -0.3757 c -0.11311,0 -0.20198,0.10293 -0.20198,0.22377 z m 9.65392,-26.93116 c 0,0.0402 0.0308,0.0743 0.067,0.0743 h 0.19172 c 0.0362,0 0.0671,-0.0327 0.0671,-0.0743 v -0.14407 c 0,-0.0416 -0.0309,-0.0742 -0.0671,-0.0742 h -0.19172 c -0.0362,0 -0.067,0.0342 -0.067,0.0742 z M 160.9737,123.46 c 0,0.1253 0.0929,0.22376 0.202,0.22376 0.10907,0 0.20199,-0.10293 0.20199,-0.22376 v -2.41218 l 0.41206,1.50368 c 0.0243,0.0895 0.10503,0.16112 0.1939,0.16112 0.097,0 0.16563,-0.0761 0.1939,-0.16112 l 0.41206,-1.50368 V 123.46 c 0,0.1253 0.0929,0.22376 0.20199,0.22376 0.10907,0 0.20199,-0.10293 0.20199,-0.22376 v -2.78809 c 0,-0.12084 -0.0929,-0.22377 -0.20199,-0.22377 h -0.31106 c -0.0929,0 -0.17372,0.0715 -0.19391,0.16111 l -0.30298,1.10538 -0.30299,-1.10538 c -0.0242,-0.0851 -0.10098,-0.16111 -0.1939,-0.16111 h -0.31106 c -0.10907,0 -0.202,0.0984 -0.202,0.22377 z m -2.32492,0 c 0,0.1253 0.0929,0.22376 0.20198,0.22376 0.10909,0 0.20199,-0.10293 0.20199,-0.22376 v -1.1054 h 0.34742 l 0.66253,1.26651 c 0.0364,0.0447 0.0969,0.0627 0.14946,0.0627 0.10908,0 0.20199,-0.10294 0.20199,-0.22377 0,-0.0403 -0.004,-0.0761 -0.0242,-0.11192 l -0.54941,-1.04721 c 0.3959,-0.16111 0.54941,-0.59521 0.54941,-1.09197 0,-0.43858 -0.4969,-0.6713 -0.87663,-0.70709 h -0.66252 c -0.11312,0 -0.20199,0.0984 -0.20199,0.22376 z m 0.40397,-1.55292 v -0.95771 h 0.4363 c 0.12927,0.008 0.25854,0.0537 0.37166,0.12532 0.0565,0.0314 0.12523,0.0761 0.12523,0.13424 0,0.2193 -0.009,0.45648 -0.15755,0.59521 -0.0888,0.0851 -0.21411,0.10294 -0.33126,0.10294 z m -3.03996,0.14768 c 0,0.76527 0.35549,1.64243 0.99782,1.64243 0.6504,0 0.98973,-0.87716 0.99782,-1.64243 0,-0.80107 -0.35146,-1.64243 -0.99782,-1.64243 -0.1616,0 -0.35954,0.0761 -0.48074,0.18797 -0.31914,0.29089 -0.51708,0.82345 -0.51708,1.41865 z m 0.40397,0 v -0.0492 c 0,-0.34908 0.0848,-0.70263 0.24643,-0.93086 h 0.009 c 0.0687,-0.10737 0.1939,-0.21481 0.33934,-0.21481 0.42014,0 0.59384,0.69366 0.59384,1.19489 0,0.46543 -0.18583,1.1949 -0.59384,1.1949 -0.41206,0 -0.59385,-0.72947 -0.59385,-1.1949 z M 153.5707,123.46 c 0,0.12082 0.0929,0.22376 0.20198,0.22376 0.10909,0 0.202,-0.10293 0.202,-0.22376 v -2.14814 l 0.9655,2.24659 c 0.0323,0.0715 0.10099,0.12531 0.18179,0.12531 h 0.1535 c 0.10503,0 0.20199,-0.10293 0.20199,-0.22376 v -2.78809 c 0,-0.12084 -0.097,-0.22377 -0.20199,-0.22377 -0.10906,0 -0.20198,0.0984 -0.20198,0.22377 v 2.15259 l -0.96954,-2.24658 c -0.0323,-0.0715 -0.101,-0.12978 -0.18179,-0.12978 h -0.14948 c -0.10906,0 -0.20198,0.10293 -0.20198,0.22377 z m 11.0601,-11.34054 c 0,0.20963 0.13005,0.3882 0.28273,0.3882 0.15265,0 0.28271,-0.17857 0.28271,-0.3882 v -3.72663 l 1.35141,3.89744 c 0.0452,0.12422 0.14136,0.21739 0.25445,0.21739 h 0.21486 c 0.14702,0 0.28272,-0.17857 0.28272,-0.3882 v -4.83686 c 0,-0.20962 -0.1357,-0.3882 -0.28272,-0.3882 -0.15266,0 -0.28272,0.17081 -0.28272,0.3882 v 3.7344 l -1.35705,-3.89744 c -0.0453,-0.12423 -0.14137,-0.22516 -0.25446,-0.22516 h -0.2092 c -0.15268,0 -0.28273,0.17858 -0.28273,0.3882 z m -3.00738,-2.43784 c 0,1.32762 0.49759,2.84933 1.39664,2.84933 0.91036,0 1.38532,-1.52171 1.39664,-2.84933 0,-1.38972 -0.49194,-2.84932 -1.39664,-2.84932 -0.22618,0 -0.50325,0.13198 -0.67287,0.32607 -0.44671,0.50466 -0.72377,1.42855 -0.72377,2.46114 z m 0.56544,0 v -0.0854 c 0,-0.60559 0.11874,-1.21893 0.34492,-1.61489 h 0.0113 c 0.0961,-0.18632 0.27141,-0.37266 0.47497,-0.37266 0.58806,0 0.8312,1.20339 0.8312,2.07294 0,0.80745 -0.26011,2.07296 -0.8312,2.07296 -0.57675,0 -0.8312,-1.26551 -0.8312,-2.07296 z m -3.20529,2.35244 c 0,0.20962 0.13005,0.3882 0.28273,0.3882 h 1.61715 c 0.15267,0 0.28272,-0.17858 0.28272,-0.3882 0,-0.20962 -0.12439,-0.38818 -0.28272,-0.38818 h -0.52585 v -3.88193 h 0.41276 c 0.15268,0 0.28273,-0.17857 0.28273,-0.38819 0,-0.20963 -0.1244,-0.3882 -0.28273,-0.3882 h -1.39098 c -0.15833,0 -0.28272,0.17857 -0.28272,0.3882 0,0.20962 0.13005,0.38819 0.28272,0.38819 h 0.41277 v 3.88193 h -0.52585 c -0.15833,0 -0.28273,0.17856 -0.28273,0.38818 z m -3.26749,-4.6583 c 0,0.21739 0.13006,0.38819 0.28273,0.38819 h 0.84815 v 4.35551 c 0,0.21739 0.13006,0.3882 0.28273,0.3882 0.15267,0 0.28272,-0.17857 0.28272,-0.3882 v -4.35551 h 0.84816 c 0.15267,0 0.28273,-0.17857 0.28273,-0.38819 0,-0.20963 -0.1244,-0.3882 -0.28273,-0.3882 h -2.26176 c -0.15833,0 -0.28273,0.17081 -0.28273,0.3882 z m -2.62287,4.6583 c 0,0.20962 0.13005,0.3882 0.28272,0.3882 h 1.61716 c 0.15267,0 0.28273,-0.17858 0.28273,-0.3882 0,-0.20962 -0.1244,-0.38818 -0.28273,-0.38818 h -0.52586 V 107.7639 H 154.88 c 0.15267,0 0.28272,-0.17857 0.28272,-0.38819 0,-0.20963 -0.1244,-0.3882 -0.28272,-0.3882 h -1.39098 c -0.15833,0 -0.28273,0.17857 -0.28273,0.3882 0,0.20962 0.13006,0.38819 0.28273,0.38819 h 0.41277 v 3.88193 h -0.52586 c -0.15833,0 -0.28272,0.17856 -0.28272,0.38818 z m -3.18832,0.0854 c 0,0.20963 0.13004,0.3882 0.28271,0.3882 0.15268,0 0.28273,-0.17857 0.28273,-0.3882 v -3.72663 l 1.3514,3.89745 c 0.0452,0.12421 0.14136,0.21738 0.25445,0.21738 h 0.21487 c 0.147,0 0.28272,-0.17857 0.28272,-0.3882 v -4.83686 c 0,-0.20962 -0.13572,-0.3882 -0.28272,-0.3882 -0.15268,0 -0.28272,0.17081 -0.28272,0.3882 v 3.7344 l -1.35707,-3.89744 c -0.0452,-0.12423 -0.14135,-0.22516 -0.25444,-0.22516 h -0.20922 c -0.15267,0 -0.28271,0.17858 -0.28271,0.3882 z m -2.97911,-2.43007 c 0,0.90837 0.17529,1.81673 0.51455,2.29809 0.24879,0.35714 0.63329,0.56676 1.05171,0.56676 0.16964,0 0.34493,-0.0388 0.52586,-0.10873 0.20357,-0.0698 0.59372,-0.22515 0.59372,-0.59004 v -1.97978 c 0,-0.20963 -0.13005,-0.3882 -0.28271,-0.3882 h -0.92167 c -0.15268,0 -0.28273,0.17081 -0.28273,0.3882 0,0.21737 0.1244,0.38819 0.28273,0.38819 h 0.63894 v 1.35089 c -0.19225,0.0932 -0.37885,0.13977 -0.54847,0.13977 -0.39582,0 -0.70681,-0.25621 -0.84251,-0.78416 -0.10179,-0.3882 -0.15833,-0.87732 -0.15833,-1.35867 0,-0.64439 0.10178,-1.2655 0.35057,-1.60711 0.15833,-0.22515 0.3732,-0.33385 0.58806,-0.33385 0.23749,0 0.47497,0.13198 0.62765,0.37267 0.0565,0.0854 0.12439,0.13975 0.21486,0.13975 0.15267,0 0.28272,-0.17857 0.28272,-0.38819 0,-0.0931 -0.0226,-0.17857 -0.0679,-0.24845 -0.20921,-0.34937 -0.50889,-0.58228 -0.83685,-0.64439 -0.0792,-0.0233 -0.15832,-0.0311 -0.23748,-0.0311 -0.40712,0 -0.75204,0.26397 -0.97822,0.58229 -0.34492,0.47359 -0.51455,1.35091 -0.51455,2.23598 z m -2.66812,2.34467 c 0,0.20962 0.13005,0.3882 0.28271,0.3882 h 1.61717 c 0.15267,0 0.28273,-0.17858 0.28273,-0.3882 0,-0.20962 -0.12441,-0.38818 -0.28273,-0.38818 h -0.52586 v -3.88193 h 0.41277 c 0.15267,0 0.28273,-0.17857 0.28273,-0.38819 0,-0.20963 -0.12441,-0.3882 -0.28273,-0.3882 h -1.39099 c -0.15832,0 -0.28272,0.17857 -0.28272,0.3882 0,0.20962 0.13006,0.38819 0.28272,0.38819 h 0.41278 v 3.88193 h -0.52587 c -0.15832,0 -0.28271,0.17856 -0.28271,0.38818 z m -5.95256,0 c 0,0.2174 0.13004,0.3882 0.28271,0.3882 h 1.93381 c 0.15267,0 0.28272,-0.1708 0.28272,-0.3882 0,-0.21739 -0.1244,-0.38818 -0.28272,-0.38818 h -1.65108 v -1.66923 h 1.37967 c 0.15832,0 0.28273,-0.17857 0.28273,-0.3882 0,-0.20961 -0.13005,-0.38818 -0.28273,-0.38818 h -1.37967 v -1.43632 h 1.65108 c 0.15267,0 0.28272,-0.1708 0.28272,-0.38819 0,-0.21738 -0.1244,-0.3882 -0.28272,-0.3882 h -1.93381 c -0.15832,0 -0.28271,0.17082 -0.28271,0.3882 z m -3.04697,0.0854 c 0,0.20963 0.13005,0.38819 0.28272,0.38819 0.15266,0 0.28272,-0.17081 0.28272,-0.38819 v -2.09624 h 1.37403 v 2.09624 c 0,0.20963 0.13005,0.38819 0.28272,0.38819 0.15266,0 0.28272,-0.17081 0.28272,-0.38819 v -4.83687 c 0,-0.21739 -0.13006,-0.3882 -0.28272,-0.3882 -0.15267,0 -0.28272,0.17858 -0.28272,0.3882 v 1.96424 h -1.37403 v -1.96424 c 0,-0.21739 -0.13006,-0.3882 -0.28272,-0.3882 -0.15267,0 -0.28272,0.17858 -0.28272,0.3882 z m -13.3897,-1.65506 c 0,0.12082 0.0929,0.22377 0.20199,0.22377 0.10908,0 0.20199,-0.0984 0.20199,-0.22377 v -1.1054 h 0.49285 c 0.32319,0 0.65849,-0.0851 0.85239,-0.37144 0.10099,-0.14321 0.14947,-0.32222 0.15755,-0.51019 v -0.0492 c 0,-0.61759 -0.43629,-0.92191 -1.00994,-0.92191 h -0.69484 c -0.11311,0 -0.20199,0.10294 -0.20199,0.22377 z m 0.40398,-1.55292 v -0.95771 h 0.49285 c 0.12927,0 0.26259,0 0.37974,0.0537 0.13331,0.0716 0.22622,0.22376 0.22622,0.42516 v 0.0268 c -0.0162,0.3625 -0.31106,0.452 -0.60596,0.452 z m -3.00361,1.55292 c 0,0.1253 0.0929,0.22377 0.20199,0.22377 0.10907,0 0.20199,-0.10294 0.20199,-0.22377 v -2.41217 l 0.41205,1.50369 c 0.0243,0.0895 0.10503,0.16111 0.19391,0.16111 0.097,0 0.16564,-0.0761 0.19391,-0.16111 l 0.41206,-1.50369 v 2.41217 c 0,0.1253 0.0929,0.22377 0.20198,0.22377 0.10908,0 0.20199,-0.10294 0.20199,-0.22377 v -2.7881 c 0,-0.12083 -0.0929,-0.22376 -0.20199,-0.22376 h -0.31107 c -0.0929,0 -0.1737,0.0715 -0.1939,0.16111 l -0.30298,1.10539 -0.30298,-1.10539 c -0.0242,-0.0851 -0.101,-0.16111 -0.19391,-0.16111 h -0.31106 c -0.10907,0 -0.20199,0.0984 -0.20199,0.22376 z m -2.42997,-0.76528 c 0,0.33117 0.12928,0.65339 0.37975,0.83688 0.16967,0.12531 0.37165,0.16558 0.57364,0.16558 0.20199,0 0.40397,-0.0403 0.57365,-0.16558 0.24641,-0.18349 0.37973,-0.50571 0.37973,-0.83688 v -2.02282 c 0,-0.12083 -0.097,-0.22376 -0.20199,-0.22376 -0.10907,0 -0.20199,0.0984 -0.20199,0.22376 v 2.02282 c 0,0.3446 -0.2141,0.55494 -0.5494,0.55494 -0.1212,0 -0.25046,-0.0179 -0.35146,-0.0895 -0.13735,-0.10293 -0.19794,-0.28194 -0.19794,-0.46543 v -2.02282 c 0,-0.12084 -0.0929,-0.22376 -0.202,-0.22376 -0.10907,0 -0.20199,0.10293 -0.20199,0.22376 z m -2.42995,0.76528 c 0,0.12082 0.0929,0.22377 0.20198,0.22377 0.10907,0 0.20199,-0.0984 0.20199,-0.22377 v -1.1054 h 0.49285 c 0.32318,0 0.65847,-0.0851 0.85238,-0.37144 0.10099,-0.14321 0.14948,-0.32222 0.15755,-0.51019 v -0.0492 c 0,-0.61759 -0.43629,-0.92191 -1.00993,-0.92191 h -0.69484 c -0.11311,0 -0.20198,0.10294 -0.20198,0.22377 z m 0.40397,-1.55292 v -0.95771 h 0.49285 c 0.12928,0 0.26258,0 0.37974,0.0537 0.1333,0.0716 0.22623,0.22376 0.22623,0.42516 v 0.0268 c -0.0162,0.3625 -0.31107,0.452 -0.60597,0.452 z m 12.07711,-4.04117 c 0,0.12531 0.0929,0.22377 0.20198,0.22377 0.10908,0 0.20199,-0.10293 0.20199,-0.22377 v -1.10539 h 0.34742 l 0.66252,1.2665 c 0.0364,0.0447 0.097,0.0627 0.14947,0.0627 0.10908,0 0.20199,-0.10293 0.20199,-0.22377 0,-0.0403 -0.004,-0.0761 -0.0242,-0.11191 l -0.54941,-1.04721 c 0.3959,-0.16111 0.54941,-0.59521 0.54941,-1.09198 0,-0.43857 -0.4969,-0.67129 -0.87663,-0.70708 h -0.66253 c -0.1131,0 -0.20198,0.0984 -0.20198,0.22375 z m 0.40397,-1.55292 v -0.95771 h 0.43629 c 0.12928,0.008 0.25855,0.0537 0.37167,0.12531 0.0565,0.0314 0.12523,0.0761 0.12523,0.13426 0,0.21928 -0.009,0.45647 -0.15755,0.59521 -0.0888,0.0851 -0.21411,0.10293 -0.33127,0.10293 z m -2.86625,1.5037 c 0,0.12529 0.0929,0.22375 0.20199,0.22375 h 1.38159 c 0.10907,0 0.20199,-0.0984 0.20199,-0.22375 0,-0.12532 -0.0888,-0.22377 -0.20199,-0.22377 h -1.1796 v -0.96219 h 0.98569 c 0.11311,0 0.20199,-0.10293 0.20199,-0.22376 0,-0.12083 -0.0929,-0.22376 -0.20199,-0.22376 h -0.98569 v -0.82793 h 1.1796 c 0.10907,0 0.20199,-0.0984 0.20199,-0.22376 0,-0.12531 -0.0888,-0.22376 -0.20199,-0.22376 h -1.38159 c -0.11312,0 -0.20199,0.0984 -0.20199,0.22376 z m -2.67235,-2.68517 c 0,0.1253 0.0929,0.22376 0.20198,0.22376 h 0.60596 v 2.51063 c 0,0.12531 0.0929,0.22377 0.20199,0.22377 0.10907,0 0.20199,-0.10293 0.20199,-0.22377 v -2.51063 h 0.60596 c 0.10908,0 0.20199,-0.10293 0.20199,-0.22376 0,-0.12084 -0.0888,-0.22376 -0.20199,-0.22376 h -1.6159 c -0.11311,0 -0.20198,0.0984 -0.20198,0.22376 z m -2.34917,2.22868 c 0.0484,0.43858 0.41205,0.75185 0.83623,0.75185 0.0526,0 0.10503,-0.005 0.16159,-0.0134 0.42417,-0.0672 0.74735,-0.41173 0.74735,-0.89953 0,-0.7071 -0.58173,-0.87716 -1.00994,-1.11435 -0.14947,-0.0939 -0.30703,-0.18795 -0.30703,-0.44305 0,-0.22823 0.23836,-0.34011 0.44842,-0.35354 0.13331,0 0.24642,0.0268 0.32722,0.10293 0.10908,0.10293 0.10908,0.3446 0.30298,0.3446 0.11311,0 0.20199,-0.10293 0.20199,-0.22377 0,-0.0178 -0.004,-0.0403 -0.009,-0.0582 -0.0929,-0.37144 -0.3878,-0.6131 -0.80794,-0.6131 h -0.0243 c -0.44438,0.008 -0.8443,0.32222 -0.8443,0.80106 0,0.68472 0.5696,0.85926 0.98569,1.09198 0.16563,0.0939 0.33126,0.19243 0.33126,0.46543 0,0.12978 -0.0484,0.25956 -0.13735,0.34012 -0.0969,0.0805 -0.23027,0.12082 -0.3555,0.12082 -0.2141,0 -0.4161,-0.11635 -0.44437,-0.36249 -0.0202,-0.10294 -0.097,-0.19244 -0.20199,-0.19244 -0.10908,0 -0.20198,0.10294 -0.20198,0.22377 z m -2.61176,-0.89953 c 0,0.76527 0.35549,1.64243 0.99782,1.64243 0.6504,0 0.98974,-0.87716 0.99782,-1.64243 0,-0.80107 -0.35146,-1.64242 -0.99782,-1.64242 -0.16159,0 -0.35954,0.0761 -0.48073,0.18796 -0.31914,0.2909 -0.51709,0.82345 -0.51709,1.41865 z m 0.40398,0 v -0.0493 c 0,-0.34907 0.0848,-0.70263 0.24642,-0.93085 h 0.009 c 0.0687,-0.10737 0.19391,-0.21483 0.33934,-0.21483 0.42013,0 0.59385,0.69366 0.59385,1.19491 0,0.46542 -0.18583,1.19489 -0.59385,1.19489 -0.41206,0 -0.59384,-0.72947 -0.59384,-1.19489 z m -2.8905,0 c 0,0.76527 0.3555,1.64243 0.99782,1.64243 0.6504,0 0.98974,-0.87716 0.99782,-1.64243 0,-0.80107 -0.35146,-1.64242 -0.99782,-1.64242 -0.1616,0 -0.35954,0.0761 -0.48074,0.18796 -0.31914,0.2909 -0.51708,0.82345 -0.51708,1.41865 z m 0.40398,0 v -0.0493 c 0,-0.34907 0.0848,-0.70263 0.24642,-0.93085 h 0.008 c 0.0687,-0.10737 0.19392,-0.21483 0.33935,-0.21483 0.42013,0 0.59384,0.69366 0.59384,1.19491 0,0.46542 -0.18584,1.19489 -0.59384,1.19489 -0.41207,0 -0.59385,-0.72947 -0.59385,-1.19489 z m -2.90262,1.35602 c 0,0.12529 0.0929,0.22375 0.20199,0.22375 h 0.69079 c 0.29086,0 0.58981,-0.0268 0.81604,-0.22375 0.20198,-0.17008 0.31106,-0.43859 0.31106,-0.71605 -0.004,-0.273 -0.11312,-0.52809 -0.30299,-0.69367 0.16564,-0.16111 0.24239,-0.38487 0.24239,-0.60864 0,-0.30432 -0.14139,-0.60415 -0.38782,-0.76079 -0.20603,-0.12531 -0.44437,-0.12978 -0.67868,-0.12978 h -0.69079 c -0.11311,0 -0.20199,0.0984 -0.20199,0.22376 z m 0.40397,-0.22377 v -0.96219 h 0.60596 c 0.32319,0 0.59789,0.12532 0.60597,0.46991 0,0.41173 -0.37166,0.49228 -0.72312,0.49228 z m 0,-1.40971 v -0.82793 h 0.48881 c 0.35146,0 0.63424,0.0493 0.66656,0.40278 v 0.0314 c 0,0.31326 -0.27471,0.39383 -0.54941,0.39383 z m 9.65522,-3.96062 c 0,0.120835 0.0929,0.223768 0.20199,0.223768 h 1.50279 c 0.10908,0 0.20199,-0.102933 0.20199,-0.223768 0,-0.120835 -0.0888,-0.223756 -0.20199,-0.223756 h -1.3008 v -2.51511 c 0,-0.125305 -0.0929,-0.223756 -0.20199,-0.223756 -0.10906,0 -0.20199,0.102933 -0.20199,0.223756 z m -2.4138,0 c 0,0.125317 0.0929,0.223768 0.20199,0.223768 h 1.3816 c 0.10906,0 0.20199,-0.09838 0.20199,-0.223768 0,-0.125305 -0.0888,-0.223756 -0.20199,-0.223756 h -1.17962 v -0.962189 h 0.98571 c 0.11311,0 0.20198,-0.102933 0.20198,-0.223768 0,-0.120824 -0.0929,-0.223757 -0.20198,-0.223757 h -0.98571 v -0.827921 h 1.17962 c 0.10906,0 0.20199,-0.09838 0.20199,-0.223767 0,-0.125306 -0.0888,-0.223768 -0.20199,-0.223768 h -1.3816 c -0.11312,0 -0.20199,0.09838 -0.20199,0.223768 z m -2.6158,-0.716048 c 0,0.331182 0.12928,0.653401 0.37975,0.836883 0.16967,0.125305 0.37165,0.165591 0.57364,0.165591 0.20199,0 0.40397,-0.04026 0.57365,-0.165591 0.24641,-0.183482 0.37973,-0.505701 0.37973,-0.836883 v -2.022818 c 0,-0.120835 -0.097,-0.223756 -0.20199,-0.223756 -0.10907,0 -0.20199,0.09838 -0.20199,0.223756 v 2.022818 c 0,0.344603 -0.2141,0.554938 -0.5494,0.554938 -0.1212,0 -0.25046,-0.01786 -0.35146,-0.08951 -0.13735,-0.102933 -0.19794,-0.281945 -0.19794,-0.465439 v -2.022817 c 0,-0.120835 -0.0929,-0.223768 -0.202,-0.223768 -0.10907,0 -0.20199,0.102933 -0.20199,0.223768 z m -2.15121,0.765274 c 0,0.120835 0.0929,0.223768 0.20199,0.223768 0.10906,0 0.20198,-0.102933 0.20198,-0.223768 v -1.235171 h 0.72312 c 0.10906,0 0.20199,-0.102933 0.20199,-0.223768 0,-0.120824 -0.097,-0.223757 -0.20199,-0.223757 h -0.72312 v -0.827921 h 0.9049 c 0.10908,0 0.20199,-0.09838 0.20199,-0.223767 0,-0.125306 -0.0888,-0.223768 -0.20199,-0.223768 h -1.10688 c -0.11312,0 -0.20199,0.102932 -0.20199,0.223768 z M 98.335901,109.70816 c 0,0.12531 0.09292,0.22377 0.201982,0.22377 h 1.381606 c 0.109071,0 0.201981,-0.0984 0.201981,-0.22377 0,-0.12531 -0.0888,-0.22376 -0.201981,-0.22376 h -1.179615 v -0.96219 h 0.985696 c 0.113119,0 0.20199,-0.10293 0.20199,-0.22377 0,-0.12082 -0.09292,-0.22375 -0.20199,-0.22375 h -0.985696 v -0.82792 h 1.179615 c 0.109071,0 0.201981,-0.0985 0.201981,-0.22377 0,-0.12531 -0.0888,-0.22377 -0.201981,-0.22377 h -1.381606 c -0.113111,0 -0.201982,0.0985 -0.201982,0.22377 z m -2.67639,-2.73886 0.67463,2.84627 c 0.02022,0.0851 0.105049,0.16558 0.201991,0.16558 h 0.274701 c 0.09292,0 0.173716,-0.0761 0.19392,-0.16558 l 0.68271,-2.84627 c 0,-0.11636 -0.09695,-0.22376 -0.206018,-0.22376 -0.09696,0 -0.169679,0.0761 -0.197955,0.16557 l -0.609999,2.55539 -0.614052,-2.55539 c -0.02022,-0.0895 -0.100995,-0.16557 -0.193902,-0.16557 -0.109066,0 -0.206026,0.10293 -0.206026,0.22376 z m -2.369368,2.73886 c 0,0.12083 0.09292,0.22377 0.201991,0.22377 h 1.502779 c 0.109075,0 0.201991,-0.10294 0.201991,-0.22377 0,-0.12084 -0.08883,-0.22376 -0.201991,-0.22376 h -1.300789 v -2.5151 c 0,-0.12531 -0.09292,-0.22376 -0.20199,-0.22376 -0.109076,0 -0.201991,0.10293 -0.201991,0.22376 z m -2.575403,0.0492 c 0,0.12531 0.09292,0.22376 0.20199,0.22376 0.09292,0 0.173707,-0.0761 0.193911,-0.16558 l 0.177751,-0.76974 h 0.820069 l 0.181787,0.76974 c 0.02022,0.0895 0.100995,0.16558 0.19391,0.16558 0.109076,0 0.206027,-0.10736 0.206027,-0.22376 l -0.666559,-2.84627 c -0.02022,-0.0805 -0.100996,-0.13874 -0.185831,-0.13874 h -0.274702 c -0.09292,0 -0.177742,0.0761 -0.197946,0.16559 l -0.650407,2.76124 z m 0.678683,-1.1591 0.307021,-1.30676 0.307022,1.30676 z m -3.193474,-1.62898 0.674639,2.84626 c 0.02022,0.0851 0.105031,0.16558 0.201991,0.16558 h 0.274701 c 0.09292,0 0.173707,-0.0761 0.193902,-0.16558 l 0.682719,-2.84626 c 0,-0.11637 -0.09696,-0.22377 -0.206026,-0.22377 -0.09696,0 -0.169671,0.0761 -0.197955,0.16558 l -0.609999,2.55538 -0.614035,-2.55538 c -0.02022,-0.0895 -0.100995,-0.16558 -0.193919,-0.16558 -0.109067,0 -0.206018,0.10293 -0.206018,0.22377 z m 15.315021,-2.80601 c 0,0.12084 0.0929,0.22377 0.20199,0.22377 0.10908,0 0.20199,-0.10293 0.20199,-0.22377 v -1.23517 h 0.72312 c 0.10906,0 0.20198,-0.10293 0.20198,-0.22377 0,-0.12082 -0.0969,-0.22377 -0.20198,-0.22377 h -0.72312 v -0.82792 h 0.90489 c 0.10909,0 0.20199,-0.0984 0.20199,-0.22375 0,-0.12532 -0.0888,-0.22377 -0.20199,-0.22377 h -1.10688 c -0.11311,0 -0.20199,0.10293 -0.20199,0.22377 z m -2.48652,0 c 0,0.12084 0.0929,0.22377 0.20199,0.22377 0.10907,0 0.20199,-0.10293 0.20199,-0.22377 v -1.23517 h 0.72311 c 0.10908,0 0.20199,-0.10293 0.20199,-0.22377 0,-0.12082 -0.097,-0.22377 -0.20199,-0.22377 h -0.72311 v -0.82792 h 0.9049 c 0.10907,0 0.20199,-0.0984 0.20199,-0.22375 0,-0.12532 -0.0888,-0.22377 -0.20199,-0.22377 h -1.10689 c -0.11312,0 -0.20199,0.10293 -0.20199,0.22377 z m -2.866264,-1.40523 c 0,0.76526 0.35551,1.64242 0.99782,1.64242 0.650408,0 0.989754,-0.87716 0.997824,-1.64242 0,-0.80107 -0.351461,-1.64242 -0.997824,-1.64242 -0.161582,0 -0.359537,0.0761 -0.480728,0.18795 -0.319137,0.2909 -0.517092,0.82345 -0.517092,1.41866 z m 0.403981,0 v -0.0493 c 0,-0.34907 0.08484,-0.70262 0.246426,-0.93085 h 0.0079 c 0.06867,-0.10737 0.193902,-0.21482 0.339333,-0.21482 0.420133,0 0.593848,0.69368 0.593848,1.1949 0,0.46542 -0.185831,1.19489 -0.593848,1.19489 -0.412044,0 -0.593839,-0.72947 -0.593839,-1.19489 z m -5.389135,-1.32915 c 0,0.1253 0.09292,0.22375 0.201982,0.22375 h 0.605972 v 2.51063 c 0,0.12532 0.09291,0.22377 0.201982,0.22377 0.109066,0 0.201991,-0.10293 0.201991,-0.22377 v -2.51063 h 0.605954 c 0.109075,0 0.201991,-0.10293 0.201991,-0.22375 0,-0.12084 -0.08883,-0.22377 -0.201991,-0.22377 h -1.615899 c -0.113111,0 -0.201982,0.0984 -0.201982,0.22377 z m -2.429964,1.96911 c 0,0.33117 0.129262,0.65339 0.379733,0.83688 0.169662,0.12531 0.371653,0.16558 0.573643,0.16558 0.201982,0 0.403973,-0.0403 0.573644,-0.16558 0.246426,-0.18349 0.379732,-0.50571 0.379732,-0.83688 v -2.02282 c 0,-0.12084 -0.09694,-0.22376 -0.201982,-0.22376 -0.109066,0 -0.20199,0.0984 -0.20199,0.22376 v 2.02282 c 0,0.3446 -0.214098,0.55494 -0.549404,0.55494 -0.121191,0 -0.250462,-0.0179 -0.351457,-0.0895 -0.137351,-0.10293 -0.197955,-0.28193 -0.197955,-0.46542 v -2.02283 c 0,-0.12083 -0.09292,-0.22376 -0.201973,-0.22376 -0.109084,0 -0.201991,0.10293 -0.201991,0.22376 z m -2.429972,0.76527 c 0,0.12084 0.09292,0.22377 0.20199,0.22377 0.109076,0 0.201991,-0.0984 0.201991,-0.22377 V 102.955 h 0.98166 v 1.20832 c 0,0.12084 0.09292,0.22377 0.201982,0.22377 0.109076,0 0.201991,-0.0984 0.201991,-0.22377 v -2.78809 c 0,-0.12531 -0.09292,-0.22376 -0.201991,-0.22376 -0.109075,0 -0.201982,0.10294 -0.201982,0.22376 v 1.13224 h -0.98166 v -1.13224 c 0,-0.12531 -0.09291,-0.22376 -0.201991,-0.22376 -0.109066,0 -0.20199,0.10294 -0.20199,0.22376 z m -2.462275,-0.5057 c 0.04845,0.43857 0.412052,0.75184 0.836221,0.75184 0.05258,0 0.105039,-0.005 0.161599,-0.0134 0.424168,-0.0671 0.74735,-0.41173 0.74735,-0.89953 0,-0.70709 -0.581723,-0.87716 -1.009945,-1.11434 -0.149466,-0.0939 -0.307021,-0.18796 -0.307021,-0.44305 0,-0.22824 0.238355,-0.34012 0.448416,-0.35356 0.133307,0 0.246427,0.0268 0.327226,0.10294 0.109067,0.10293 0.109067,0.3446 0.302978,0.3446 0.113119,0 0.20199,-0.10293 0.20199,-0.22377 0,-0.0178 -0.0035,-0.0403 -0.0088,-0.0582 -0.09292,-0.37146 -0.387812,-0.61313 -0.807945,-0.61313 h -0.02418 c -0.444373,0.008 -0.84431,0.32222 -0.84431,0.80108 0,0.68471 0.569608,0.85926 0.985705,1.09196 0.165626,0.094 0.331253,0.19244 0.331253,0.46543 0,0.12979 -0.04845,0.25956 -0.137342,0.34012 -0.09696,0.0805 -0.230275,0.12084 -0.355511,0.12084 -0.214097,0 -0.416079,-0.11636 -0.444363,-0.3625 -0.02022,-0.10293 -0.09695,-0.19244 -0.201991,-0.19244 -0.109075,0 -0.201982,0.10293 -0.201982,0.22377 z m 11.165107,-5.137679 c 0,0.120835 0.09292,0.223757 0.201991,0.223757 h 1.502779 c 0.109076,0 0.201991,-0.102933 0.201991,-0.223757 0,-0.120835 -0.08883,-0.223768 -0.201991,-0.223768 h -1.300806 v -2.515097 c 0,-0.125306 -0.09291,-0.223768 -0.201973,-0.223768 -0.109084,0 -0.201991,0.102932 -0.201991,0.223768 z m -2.413812,0 c 0,0.125305 0.09292,0.223757 0.20199,0.223757 h 1.381598 c 0.109066,0 0.20199,-0.09838 0.20199,-0.223757 0,-0.125316 -0.08893,-0.223768 -0.20199,-0.223768 h -1.179616 v -0.962188 h 0.985705 c 0.113111,0 0.201982,-0.102933 0.201982,-0.223757 0,-0.120835 -0.09291,-0.223756 -0.201982,-0.223756 h -0.985705 v -0.827933 h 1.179616 c 0.109066,0 0.20199,-0.09838 0.20199,-0.223768 0,-0.125305 -0.08893,-0.223756 -0.20199,-0.223756 h -1.381598 c -0.113119,0 -0.20199,0.09838 -0.20199,0.223756 z m -2.615795,-0.716037 c 0,0.33116 0.129271,0.653379 0.379733,0.836872 0.169679,0.125294 0.371661,0.16558 0.573652,0.16558 0.201991,0 0.403973,-0.04026 0.573643,-0.16558 0.246427,-0.183493 0.379742,-0.505712 0.379742,-0.836872 v -2.022828 c 0,-0.120836 -0.09696,-0.223768 -0.201991,-0.223768 -0.109075,0 -0.201991,0.0985 -0.201991,0.223768 v 2.022828 c 0,0.344592 -0.214106,0.554928 -0.549403,0.554928 -0.121191,0 -0.250462,-0.01786 -0.351457,-0.08951 -0.137351,-0.102933 -0.197946,-0.281934 -0.197946,-0.465427 v -2.022817 c 0,-0.120836 -0.09292,-0.223768 -0.201991,-0.223768 -0.109067,0 -0.201991,0.102932 -0.201991,0.223768 z m -2.151217,0.765263 c 0,0.120835 0.09292,0.223757 0.201981,0.223757 0.109085,0 0.201991,-0.102933 0.201991,-0.223757 v -1.235182 h 0.723119 c 0.109066,0 0.20199,-0.102933 0.20199,-0.223757 0,-0.120835 -0.09696,-0.223756 -0.20199,-0.223756 h -0.723119 v -0.827933 h 0.904914 c 0.109066,0 0.201973,-0.09838 0.201973,-0.223768 0,-0.125305 -0.08883,-0.223756 -0.201973,-0.223756 h -1.106905 c -0.11311,0 -0.201981,0.102932 -0.201981,0.223756 z M 77.791749,115.7272 c 0,0.12531 0.09291,0.22377 0.201982,0.22377 h 1.381597 c 0.109075,0 0.201991,-0.0985 0.201991,-0.22377 0,-0.1253 -0.08887,-0.22377 -0.201991,-0.22377 h -1.179607 v -0.96217 h 0.985696 c 0.11312,0 0.201991,-0.10294 0.201991,-0.22376 0,-0.12084 -0.09292,-0.22377 -0.201991,-0.22377 h -0.985696 v -0.82793 h 1.179607 c 0.109075,0 0.201991,-0.0984 0.201991,-0.22376 0,-0.12531 -0.08887,-0.22376 -0.201991,-0.22376 h -1.381597 c -0.113111,0 -0.201982,0.0984 -0.201982,0.22376 z m -2.676394,-2.73886 0.674639,2.84628 c 0.0202,0.0851 0.105034,0.16558 0.201988,0.16558 h 0.274702 c 0.09292,0 0.17371,-0.0761 0.19391,-0.16558 l 0.682717,-2.84628 c 0,-0.11636 -0.09695,-0.22376 -0.206028,-0.22376 -0.09695,0 -0.169669,0.0761 -0.197948,0.16558 l -0.610001,2.55538 -0.614044,-2.55538 c -0.02019,-0.0895 -0.100994,-0.16558 -0.193908,-0.16558 -0.109073,0 -0.206027,0.10293 -0.206027,0.22376 z m -2.36937,2.73886 c 0,0.12084 0.09291,0.22377 0.201988,0.22377 h 1.502788 c 0.109072,0 0.201988,-0.10293 0.201988,-0.22377 0,-0.12082 -0.08887,-0.22377 -0.201988,-0.22377 H 73.14996 v -2.51509 c 0,-0.12531 -0.09291,-0.22376 -0.201987,-0.22376 -0.109074,0 -0.201988,0.10293 -0.201988,0.22376 z m -2.575396,0.0493 c 0,0.12532 0.09291,0.22377 0.201987,0.22377 0.09292,0 0.173711,-0.0761 0.193908,-0.16558 l 0.17775,-0.76976 h 0.82007 l 0.181789,0.76976 c 0.0202,0.0895 0.100993,0.16558 0.193909,0.16558 0.109072,0 0.206027,-0.10737 0.206027,-0.22377 l -0.66656,-2.84627 c -0.0202,-0.0805 -0.100994,-0.13872 -0.185829,-0.13872 h -0.274703 c -0.09291,0 -0.177749,0.0761 -0.197948,0.16558 l -0.6504,2.76124 z m 0.678679,-1.15909 0.307021,-1.30678 0.307021,1.30678 z m -3.19348,-1.629 0.674639,2.84628 c 0.0202,0.0851 0.105033,0.16558 0.201987,0.16558 h 0.274703 c 0.09292,0 0.173709,-0.0761 0.193908,-0.16558 l 0.682719,-2.84628 c 0,-0.11636 -0.09695,-0.22376 -0.206027,-0.22376 -0.09695,0 -0.169671,0.0761 -0.197948,0.16558 l -0.610003,2.55539 -0.614043,-2.55539 c -0.0202,-0.0895 -0.100993,-0.16558 -0.193908,-0.16558 -0.109073,0 -0.206027,0.10294 -0.206027,0.22376 z m -4.85589,2.73886 c 0,0.12084 0.09291,0.22377 0.201988,0.22377 h 1.502787 c 0.109073,0 0.201988,-0.10293 0.201988,-0.22377 0,-0.12082 -0.08887,-0.22376 -0.201988,-0.22376 h -1.300801 v -2.5151 c 0,-0.12531 -0.09291,-0.22376 -0.201986,-0.22376 -0.109074,0 -0.201988,0.10294 -0.201988,0.22376 z m -2.587515,-1.356 c 0,0.76526 0.355497,1.64242 0.997817,1.64242 0.650402,0 0.98974,-0.87716 0.99782,-1.64242 0,-0.80107 -0.351458,-1.64242 -0.99782,-1.64242 -0.16159,0 -0.359537,0.0761 -0.48073,0.18795 -0.31914,0.2909 -0.517087,0.82346 -0.517087,1.41868 z m 0.403974,0 v -0.0493 c 0,-0.34907 0.08483,-0.70262 0.246425,-0.93085 h 0.0081 c 0.06867,-0.10737 0.193908,-0.21481 0.339339,-0.21481 0.420134,0 0.593843,0.69367 0.593843,1.19489 0,0.46542 -0.185828,1.19489 -0.593843,1.19489 -0.412054,0 -0.593844,-0.72947 -0.593844,-1.19489 z m -2.741026,1.40523 c 0,0.12532 0.09291,0.22377 0.201988,0.22377 0.109072,0 0.201987,-0.10293 0.201987,-0.22377 v -1.10538 h 0.347418 l 0.66252,1.26649 c 0.03636,0.0447 0.09695,0.0627 0.14947,0.0627 0.109074,0 0.201988,-0.10293 0.201988,-0.22377 0,-0.0403 -0.004,-0.0761 -0.02424,-0.11192 l -0.549406,-1.04718 c 0.395895,-0.16111 0.549405,-0.59521 0.549405,-1.09196 0,-0.43858 -0.496889,-0.6713 -0.876626,-0.7071 h -0.662519 c -0.113114,0 -0.201988,0.0984 -0.201988,0.22377 z m 0.403975,-1.55291 v -0.95772 h 0.436293 c 0.129272,0.009 0.258544,0.0537 0.371656,0.12532 0.05656,0.0314 0.125234,0.0761 0.125234,0.13426 0,0.21928 -0.0081,0.45647 -0.157551,0.5952 -0.08887,0.0851 -0.214107,0.10293 -0.33126,0.10293 z m -3.052087,-1.18147 c 0,0.1253 0.09292,0.22375 0.201987,0.22375 h 0.605963 v 2.51063 c 0,0.12532 0.09291,0.22377 0.201988,0.22377 0.109073,0 0.201988,-0.10293 0.201988,-0.22377 v -2.51063 h 0.605963 c 0.109073,0 0.201987,-0.10293 0.201987,-0.22375 0,-0.12084 -0.08887,-0.22377 -0.201987,-0.22377 h -1.615902 c -0.113113,0 -0.201987,0.0984 -0.201987,0.22377 z m -2.429966,2.73438 c 0,0.12084 0.09291,0.22377 0.201989,0.22377 0.109072,0 0.201987,-0.10293 0.201987,-0.22377 v -2.14812 l 0.9655,2.24657 c 0.03232,0.0715 0.100995,0.12532 0.181789,0.12532 h 0.153511 c 0.105033,0 0.201988,-0.10293 0.201988,-0.22377 v -2.78809 c 0,-0.12084 -0.09696,-0.22376 -0.201988,-0.22376 -0.109073,0 -0.201988,0.0984 -0.201988,0.22376 v 2.15261 l -0.96954,-2.24659 c -0.03232,-0.0715 -0.100994,-0.12978 -0.181789,-0.12978 h -0.14947 c -0.109075,0 -0.201989,0.10294 -0.201989,0.22376 z m -2.530959,-1.40523 c 0,0.76526 0.355498,1.64242 0.997819,1.64242 0.6504,0 0.989739,-0.87716 0.997819,-1.64242 0,-0.80107 -0.351459,-1.64242 -0.997819,-1.64242 -0.16159,0 -0.359537,0.0761 -0.480731,0.18795 -0.31914,0.2909 -0.517088,0.82346 -0.517088,1.41868 z m 0.403976,0 v -0.0493 c 0,-0.34907 0.08483,-0.70262 0.246424,-0.93085 h 0.0081 c 0.06867,-0.10737 0.193908,-0.21481 0.33934,-0.21481 0.420134,0 0.593843,0.69367 0.593843,1.19489 0,0.46542 -0.185828,1.19489 -0.593843,1.19489 -0.412056,0 -0.593845,-0.72947 -0.593845,-1.19489 z m -2.708709,0.0537 c 0.0081,0.80107 0.206028,1.58872 0.953382,1.58872 0.355498,0 0.630201,-0.24166 0.682718,-0.58178 v -0.0403 c 0,-0.12083 -0.08887,-0.22375 -0.197948,-0.22375 -0.09695,0 -0.181788,0.0851 -0.197948,0.18348 -0.02424,0.13874 -0.14139,0.2148 -0.286822,0.2148 -0.484771,0 -0.541327,-0.63995 -0.549406,-1.15014 v -0.0805 c 0,-0.52362 0.08483,-1.1054 0.529207,-1.13673 0.0808,0 0.157551,0.0178 0.222187,0.0715 0.113113,0.0939 0.08483,0.32669 0.282782,0.32669 0.109074,0 0.197948,-0.10294 0.197948,-0.22377 v -0.0447 c -0.06868,-0.34012 -0.351458,-0.57731 -0.710996,-0.57731 -0.719076,0.0224 -0.925104,0.80555 -0.925104,1.62452 z m 29.830188,-4.29178 c 0,0.1253 0.09291,0.22375 0.201982,0.22375 h 1.381597 c 0.109075,0 0.201991,-0.0984 0.201991,-0.22375 0,-0.12531 -0.08887,-0.22377 -0.201991,-0.22377 h -1.179607 v -0.96218 h 0.985696 c 0.11312,0 0.201991,-0.10293 0.201991,-0.22376 0,-0.12084 -0.09292,-0.22376 -0.201991,-0.22376 h -0.985696 v -0.82794 h 1.179607 c 0.109075,0 0.201991,-0.0984 0.201991,-0.22376 0,-0.1253 -0.08887,-0.22376 -0.201991,-0.22376 h -1.381597 c -0.113111,0 -0.201982,0.0984 -0.201982,0.22376 z m -2.510765,0.0492 c 0,0.12531 0.09291,0.22377 0.201988,0.22377 0.109074,0 0.201988,-0.10293 0.201988,-0.22377 v -1.10538 h 0.347419 l 0.662519,1.26649 c 0.03636,0.0447 0.09695,0.0627 0.149472,0.0627 0.109072,0 0.201987,-0.10293 0.201987,-0.22375 0,-0.0403 -0.004,-0.0761 -0.02424,-0.11192 l -0.549407,-1.04721 c 0.395896,-0.16112 0.549407,-0.59521 0.549407,-1.09197 0,-0.43859 -0.49689,-0.6713 -0.876627,-0.70709 h -0.662519 c -0.113113,0 -0.201988,0.0984 -0.201988,0.22376 z m 0.403976,-1.5529 v -0.95772 h 0.436294 c 0.129272,0.008 0.258544,0.0537 0.371657,0.1253 0.05656,0.0314 0.125232,0.0761 0.125232,0.13426 0,0.2193 -0.0081,0.45649 -0.157549,0.59521 -0.08887,0.0851 -0.214108,0.10293 -0.33126,0.10293 z m -2.995531,0.78764 c 0,0.33116 0.129272,0.65338 0.379736,0.83687 0.16967,0.12531 0.371657,0.16558 0.573645,0.16558 0.201987,0 0.403975,-0.0403 0.573644,-0.16558 0.246426,-0.18349 0.379738,-0.50571 0.379738,-0.83687 v -2.02283 c 0,-0.12083 -0.09695,-0.22376 -0.201988,-0.22376 -0.109073,0 -0.201988,0.0984 -0.201988,0.22376 v 2.02283 c 0,0.34459 -0.214107,0.55493 -0.549406,0.55493 -0.121192,0 -0.250464,-0.0179 -0.351459,-0.0895 -0.137351,-0.10294 -0.197948,-0.28194 -0.197948,-0.46543 v -2.02282 c 0,-0.12083 -0.09291,-0.22376 -0.201987,-0.22376 -0.109074,0 -0.201987,0.10293 -0.201987,0.22376 z m -2.405727,0.25956 c 0.04847,0.43858 0.412056,0.75185 0.836229,0.75185 0.05252,0 0.105033,-0.005 0.161591,-0.0135 0.424173,-0.0671 0.747353,-0.41172 0.747353,-0.89953 0,-0.7071 -0.581724,-0.87715 -1.009938,-1.11434 -0.14947,-0.0939 -0.307021,-0.18796 -0.307021,-0.44306 0,-0.22823 0.238346,-0.34011 0.448412,-0.35354 0.133312,0 0.246426,0.0268 0.327221,0.10293 0.109073,0.10293 0.109073,0.34459 0.302981,0.34459 0.113112,0 0.201988,-0.10293 0.201988,-0.22377 0,-0.0179 -0.004,-0.0403 -0.0081,-0.0582 -0.09292,-0.37145 -0.387816,-0.61311 -0.807951,-0.61311 h -0.02424 c -0.444374,0.008 -0.84431,0.32222 -0.84431,0.80107 0,0.68471 0.569606,0.85926 0.9857,1.09196 0.165631,0.0939 0.33126,0.19244 0.33126,0.46543 0,0.12979 -0.04847,0.25957 -0.137351,0.34013 -0.09696,0.0805 -0.230266,0.12083 -0.355498,0.12083 -0.214107,0 -0.416095,-0.11636 -0.444373,-0.3625 -0.02019,-0.10293 -0.09695,-0.19243 -0.201988,-0.19243 -0.109073,0 -0.201987,0.10293 -0.201987,0.22376 z m -2.486523,0 c 0.04847,0.43858 0.412055,0.75185 0.836229,0.75185 0.05253,0 0.105034,-0.005 0.16159,-0.0135 0.424175,-0.0671 0.747354,-0.41172 0.747354,-0.89953 0,-0.7071 -0.581724,-0.87715 -1.009938,-1.11434 -0.149471,-0.0939 -0.307021,-0.18796 -0.307021,-0.44306 0,-0.22823 0.238345,-0.34011 0.448413,-0.35354 0.133311,0 0.246424,0.0268 0.327219,0.10293 0.109073,0.10293 0.109073,0.34459 0.302981,0.34459 0.113115,0 0.201988,-0.10293 0.201988,-0.22377 0,-0.0179 -0.004,-0.0403 -0.0081,-0.0582 -0.09292,-0.37145 -0.387818,-0.61311 -0.807952,-0.61311 h -0.02424 c -0.444372,0.008 -0.844308,0.32222 -0.844308,0.80107 0,0.68471 0.569605,0.85926 0.9857,1.09196 0.165629,0.0939 0.331259,0.19244 0.331259,0.46543 0,0.12979 -0.04847,0.25957 -0.137351,0.34013 -0.09695,0.0805 -0.230266,0.12083 -0.355499,0.12083 -0.214106,0 -0.416094,-0.11636 -0.444372,-0.3625 -0.0202,-0.10293 -0.09695,-0.19243 -0.201988,-0.19243 -0.109073,0 -0.201988,0.10293 -0.201988,0.22376 z m -2.438044,0.45648 c 0,0.1253 0.09292,0.22376 0.201988,0.22376 h 1.381595 c 0.109074,0 0.201988,-0.0984 0.201988,-0.22376 0,-0.12531 -0.08887,-0.22377 -0.201988,-0.22377 H 65.76311 v -0.96218 h 0.9857 c 0.113113,0 0.201988,-0.10293 0.201988,-0.22375 0,-0.12085 -0.09291,-0.22377 -0.201988,-0.22377 h -0.9857 v -0.82793 h 1.179608 c 0.109074,0 0.201988,-0.0984 0.201988,-0.22377 0,-0.12529 -0.08887,-0.22376 -0.201988,-0.22376 h -1.381595 c -0.113112,0 -0.201988,0.0984 -0.201988,0.22376 z m -2.51076,0.0493 c 0,0.1253 0.09291,0.22377 0.201987,0.22377 0.109074,0 0.201988,-0.10294 0.201988,-0.22377 V 109.077 h 0.347418 l 0.66252,1.2665 c 0.03636,0.0447 0.09696,0.0627 0.149471,0.0627 0.109073,0 0.201987,-0.10294 0.201987,-0.22376 0,-0.0403 -0.004,-0.0761 -0.02424,-0.11192 L 64.0401,109.02328 c 0.395896,-0.16112 0.549406,-0.59521 0.549406,-1.09197 0,-0.43859 -0.496889,-0.67129 -0.876626,-0.70709 h -0.662519 c -0.113114,0 -0.201988,0.0984 -0.201988,0.22376 z m 0.403975,-1.55291 v -0.95772 h 0.436293 c 0.129273,0.008 0.258544,0.0537 0.371657,0.1253 0.05656,0.0314 0.125234,0.0761 0.125234,0.13426 0,0.2193 -0.0081,0.45649 -0.157551,0.59521 -0.08887,0.0851 -0.214107,0.10294 -0.33126,0.10294 z m -2.938975,1.55291 c 0,0.12083 0.09292,0.22377 0.201988,0.22377 0.109073,0 0.201988,-0.0984 0.201988,-0.22377 V 109.077 H 61.2102 c 0.323181,0 0.658481,-0.0851 0.852389,-0.37144 0.100993,-0.14321 0.14947,-0.32222 0.15755,-0.51018 v -0.0493 c 0,-0.61759 -0.436294,-0.92191 -1.009939,-0.92191 h -0.694837 c -0.113112,0 -0.201988,0.10294 -0.201988,0.22376 z m 0.403976,-1.55291 v -0.95772 H 61.2102 c 0.129273,0 0.262585,0 0.379737,0.0537 0.133313,0.0715 0.226227,0.22377 0.226227,0.42516 v 0.0268 c -0.01616,0.36249 -0.311061,0.452 -0.605964,0.452 z m -5.328542,1.55291 c 0,0.1253 0.09291,0.22377 0.201988,0.22377 0.109073,0 0.201988,-0.10294 0.201988,-0.22377 V 109.077 h 0.347418 l 0.662519,1.2665 c 0.03636,0.0447 0.09695,0.0627 0.149471,0.0627 0.109073,0 0.201988,-0.10294 0.201988,-0.22376 0,-0.0403 -0.004,-0.0761 -0.02424,-0.11192 l -0.549406,-1.04721 c 0.395896,-0.16112 0.549406,-0.59521 0.549406,-1.09197 0,-0.43859 -0.49689,-0.67129 -0.876626,-0.70709 h -0.662522 c -0.113113,0 -0.201988,0.0984 -0.201988,0.22376 z m 0.403976,-1.55291 v -0.95772 h 0.436292 c 0.129272,0.008 0.258545,0.0537 0.371658,0.1253 0.05656,0.0314 0.125232,0.0761 0.125232,0.13426 0,0.2193 -0.0081,0.45649 -0.157551,0.59521 -0.08887,0.0851 -0.214106,0.10294 -0.331259,0.10294 z m -2.821823,1.50368 c 0,0.12084 0.09292,0.22376 0.201989,0.22376 h 1.155369 c 0.109073,0 0.201988,-0.10293 0.201988,-0.22376 0,-0.12083 -0.08887,-0.22377 -0.201988,-0.22377 h -0.375698 v -2.23763 h 0.294902 c 0.109074,0 0.201989,-0.10293 0.201989,-0.22377 0,-0.12082 -0.08887,-0.22375 -0.201989,-0.22375 h -0.993779 c -0.113113,0 -0.201987,0.10293 -0.201987,0.22375 0,0.12085 0.09292,0.22377 0.201987,0.22377 h 0.294902 v 2.23763 h -0.375696 c -0.113114,0 -0.201989,0.10294 -0.201989,0.22377 z m -2.692549,0.0493 c 0,0.12531 0.09292,0.22377 0.201989,0.22377 0.09291,0 0.173709,-0.0761 0.193908,-0.16559 l 0.177748,-0.76975 h 0.82007 l 0.181789,0.76975 c 0.0202,0.0895 0.100994,0.16559 0.193908,0.16559 0.109074,0 0.206027,-0.10737 0.206027,-0.22377 l -0.666559,-2.84627 c -0.0202,-0.0805 -0.100993,-0.13874 -0.185828,-0.13874 h -0.274704 c -0.09291,0 -0.177749,0.0761 -0.197948,0.1656 l -0.6504,2.76123 z m 0.678679,-1.15909 0.307021,-1.30678 0.307022,1.30678 z m 21.732337,-4.43499 c 0,0.12083 0.09291,0.22375 0.201987,0.22375 0.109074,0 0.201987,-0.10293 0.201987,-0.22375 v -1.23071 l 1.211927,1.38733 c 0.0404,0.0447 0.09292,0.0671 0.145431,0.0671 0.109072,0 0.201988,-0.10293 0.201988,-0.22377 0,-0.0582 -0.02424,-0.11192 -0.0606,-0.15662 l -1.131131,-1.29784 1.038216,-1.17699 c 0.03636,-0.0403 0.06059,-0.0984 0.06059,-0.15663 0,-0.12083 -0.09291,-0.22377 -0.201987,-0.22377 -0.05252,0 -0.105033,0.0268 -0.145432,0.0671 l -1.119011,1.26203 v -1.10539 c 0,-0.12085 -0.09291,-0.22377 -0.201987,-0.22377 -0.109074,0 -0.201987,0.10293 -0.201987,0.22377 z m -2.486522,0 c 0,0.12083 0.09292,0.22375 0.201988,0.22375 0.109073,0 0.201987,-0.10293 0.201987,-0.22375 v -2.14814 l 0.965502,2.2466 c 0.03232,0.0715 0.100993,0.12529 0.181788,0.12529 h 0.15351 c 0.105035,0 0.201989,-0.10293 0.201989,-0.22375 v -2.7881 c 0,-0.12083 -0.09695,-0.22376 -0.201989,-0.22376 -0.109072,0 -0.201987,0.0984 -0.201987,0.22376 v 2.15261 l -0.96954,-2.24659 c -0.03232,-0.0715 -0.100995,-0.12978 -0.181789,-0.12978 h -0.149471 c -0.109073,0 -0.201988,0.10293 -0.201988,0.22376 z m -2.518841,0 c 0,0.1253 0.09291,0.22375 0.201988,0.22375 0.09292,0 0.173709,-0.0761 0.193908,-0.16558 l 0.177748,-0.76974 h 0.820071 l 0.181789,0.76974 c 0.0202,0.0895 0.100994,0.16558 0.193908,0.16558 0.109074,0 0.206027,-0.10737 0.206027,-0.22375 l -0.666559,-2.84627 c -0.0202,-0.0805 -0.100993,-0.13874 -0.185829,-0.13874 h -0.274703 c -0.09291,0 -0.177748,0.0761 -0.197947,0.16558 l -0.650401,2.76125 z m 0.678679,-1.15911 0.307021,-1.30677 0.30702,1.30677 z m -3.189438,-1.57529 c 0,0.1253 0.09291,0.22377 0.201987,0.22377 h 0.605964 v 2.51063 c 0,0.1253 0.09291,0.22375 0.201988,0.22375 0.109072,0 0.201986,-0.10293 0.201986,-0.22375 v -2.51063 h 0.605963 c 0.109074,0 0.201987,-0.10294 0.201987,-0.22377 0,-0.12082 -0.08887,-0.22376 -0.201987,-0.22376 h -1.615901 c -0.113113,0 -0.201987,0.0984 -0.201987,0.22376 z m -4.859932,2.68516 c 0,0.12084 0.09292,0.22377 0.201988,0.22377 h 1.502788 c 0.109074,0 0.201988,-0.10294 0.201988,-0.22377 0,-0.12083 -0.08887,-0.22375 -0.201988,-0.22375 h -1.3008 v -2.51511 c 0,-0.12531 -0.09292,-0.22376 -0.201988,-0.22376 -0.109072,0 -0.201988,0.10293 -0.201988,0.22376 z m -2.413806,0 c 0,0.12531 0.09292,0.22377 0.201987,0.22377 h 1.381596 c 0.109073,0 0.201988,-0.0984 0.201988,-0.22377 0,-0.1253 -0.08887,-0.22375 -0.201988,-0.22375 h -1.179608 v -0.96219 h 0.9857 c 0.113113,0 0.201988,-0.10293 0.201988,-0.22376 0,-0.12084 -0.09291,-0.22376 -0.201988,-0.22376 h -0.9857 v -0.82793 h 1.179608 c 0.109073,0 0.201988,-0.0984 0.201988,-0.22377 0,-0.12529 -0.08887,-0.22376 -0.201988,-0.22376 h -1.381596 c -0.113113,0 -0.201987,0.0984 -0.201987,0.22376 z m -2.615794,-0.71604 c 0,0.33118 0.129272,0.6534 0.379737,0.83688 0.169669,0.12531 0.371657,0.16558 0.573645,0.16558 0.201988,0 0.403976,-0.0403 0.573645,-0.16558 0.246425,-0.18348 0.379737,-0.5057 0.379737,-0.83688 v -2.02282 c 0,-0.12083 -0.09696,-0.22376 -0.201987,-0.22376 -0.109075,0 -0.201988,0.0984 -0.201988,0.22376 v 2.02282 c 0,0.34459 -0.214108,0.55493 -0.549407,0.55493 -0.121192,0 -0.250464,-0.0179 -0.351458,-0.0895 -0.137352,-0.10294 -0.197949,-0.28195 -0.197949,-0.46543 v -2.02282 c 0,-0.12084 -0.09291,-0.22377 -0.201988,-0.22377 -0.109072,0 -0.201987,0.10294 -0.201987,0.22377 z m -2.151222,0.76528 c 0,0.12083 0.09291,0.22375 0.201987,0.22375 0.109074,0 0.201988,-0.10293 0.201988,-0.22375 v -1.23518 h 0.723116 c 0.109073,0 0.201988,-0.10293 0.201988,-0.22376 0,-0.12084 -0.09696,-0.22376 -0.201988,-0.22376 h -0.723116 v -0.82793 h 0.904905 c 0.109073,0 0.201988,-0.0984 0.201988,-0.22377 0,-0.12529 -0.08887,-0.22376 -0.201988,-0.22376 H 53.33454 c -0.113113,0 -0.201987,0.10294 -0.201987,0.22376 z m 19.686148,-5.643316 c 0,0.125294 0.09291,0.223757 0.201988,0.223757 h 1.381595 c 0.109073,0 0.201987,-0.09838 0.201987,-0.223757 0,-0.125305 -0.08887,-0.223768 -0.201987,-0.223768 h -1.179609 v -0.962177 h 0.985701 c 0.113113,0 0.201986,-0.102933 0.201986,-0.223768 0,-0.120835 -0.09291,-0.223768 -0.201986,-0.223768 h -0.985701 v -0.827921 h 1.179609 c 0.109073,0 0.201987,-0.09838 0.201987,-0.223757 0,-0.125316 -0.08887,-0.223768 -0.201987,-0.223768 h -1.381595 c -0.113114,0 -0.201988,0.09838 -0.201988,0.223768 z m -2.559238,0 c 0,0.120824 0.09291,0.223757 0.201988,0.223757 h 1.502788 c 0.109074,0 0.201988,-0.102933 0.201988,-0.223757 0,-0.120835 -0.08887,-0.223768 -0.201988,-0.223768 h -1.3008 v -2.515109 c 0,-0.125305 -0.09291,-0.223757 -0.201988,-0.223757 -0.109072,0 -0.201988,0.102933 -0.201988,0.223757 z m -2.599636,0 c 0,0.125294 0.09292,0.223757 0.201988,0.223757 h 0.690798 c 0.290862,0 0.589804,-0.02684 0.81603,-0.223757 0.201988,-0.170061 0.311061,-0.438585 0.311061,-0.716048 -0.004,-0.272994 -0.113113,-0.528086 -0.302981,-0.693665 0.165629,-0.16111 0.242385,-0.384878 0.242385,-0.608635 0,-0.304328 -0.141391,-0.604164 -0.387816,-0.760792 -0.206027,-0.125317 -0.444374,-0.129787 -0.678679,-0.129787 h -0.690798 c -0.113112,0 -0.201988,0.09838 -0.201988,0.223768 z m 0.403976,-0.223768 v -0.962177 h 0.605963 c 0.32318,0 0.597883,0.125305 0.605963,0.469897 0,0.411731 -0.371657,0.49228 -0.723116,0.49228 z m 0,-1.409713 v -0.827921 h 0.48881 c 0.351459,0 0.634241,0.04925 0.66656,0.40278 v 0.03139 c 0,0.313279 -0.274704,0.393828 -0.549407,0.393828 z m -2.866259,1.682707 c 0,0.125305 0.09291,0.223768 0.201988,0.223768 0.09292,0 0.17371,-0.07609 0.193909,-0.165591 l 0.177749,-0.769756 h 0.820069 l 0.18179,0.769756 c 0.0202,0.08951 0.100994,0.165591 0.193908,0.165591 0.109073,0 0.206028,-0.107369 0.206028,-0.223768 l -0.66656,-2.846269 c -0.02019,-0.08053 -0.100994,-0.138737 -0.185829,-0.138737 h -0.274702 c -0.09291,0 -0.17775,0.07609 -0.197948,0.165579 l -0.650402,2.76125 z m 0.678679,-1.159092 0.307023,-1.306792 0.30702,1.306792 z m -3.076325,1.159092 c 0,0.120824 0.09291,0.223768 0.201988,0.223768 0.109073,0 0.201986,-0.09838 0.201986,-0.223768 v -1.105396 h 0.492851 c 0.32318,0 0.65848,-0.08508 0.852388,-0.371446 0.100994,-0.143207 0.14947,-0.322219 0.15755,-0.510182 v -0.04925 c 0,-0.617585 -0.436294,-0.921902 -1.009938,-0.921902 h -0.694837 c -0.113114,0 -0.201988,0.102932 -0.201988,0.223768 z m 0.403974,-1.552921 v -0.957707 h 0.492851 c 0.129272,0 0.262583,0 0.379736,0.05368 0.133312,0.07154 0.226227,0.223757 0.226227,0.425152 v 0.02684 c -0.01616,0.362505 -0.311061,0.452005 -0.605963,0.452005 z m -2.890497,1.552921 c 0,0.120824 0.09292,0.223768 0.201988,0.223768 0.109073,0 0.201988,-0.09838 0.201988,-0.223768 V 97.888844 H 61.2102 c 0.323181,0 0.658481,-0.08508 0.852389,-0.371446 0.100993,-0.143207 0.14947,-0.322219 0.15755,-0.510182 v -0.04925 c 0,-0.617585 -0.436294,-0.921902 -1.009939,-0.921902 h -0.694837 c -0.113112,0 -0.201988,0.102932 -0.201988,0.223768 z m 0.403976,-1.552921 V 96.483612 H 61.2102 c 0.129273,0 0.262585,0 0.379737,0.05368 0.133313,0.07154 0.226227,0.223757 0.226227,0.425152 v 0.02684 c -0.01616,0.362505 -0.311061,0.452005 -0.605964,0.452005 z m -2.991491,0.147677 c 0,0.765275 0.355498,1.642421 0.997818,1.642421 0.650401,0 0.98974,-0.877146 0.99782,-1.642421 0,-0.801067 -0.351459,-1.64242 -0.99782,-1.64242 -0.16159,0 -0.359538,0.07609 -0.48073,0.187963 -0.31914,0.290896 -0.517088,0.823451 -0.517088,1.418664 z m 0.403975,0 v -0.04925 c 0,-0.349062 0.08483,-0.702605 0.246424,-0.930842 h 0.0081 c 0.06868,-0.107369 0.193908,-0.214829 0.33934,-0.214829 0.420134,0 0.593843,0.693677 0.593843,1.194908 0,0.465416 -0.185828,1.194896 -0.593843,1.194896 -0.412055,0 -0.593843,-0.72948 -0.593843,-1.194896 z m -2.741026,1.405244 c 0,0.125305 0.09291,0.223768 0.201988,0.223768 0.109073,0 0.201988,-0.102933 0.201988,-0.223768 v -1.105396 h 0.347418 l 0.662519,1.266505 c 0.03636,0.0447 0.09695,0.06267 0.149471,0.06267 0.109073,0 0.201988,-0.102933 0.201988,-0.223768 0,-0.04026 -0.004,-0.07609 -0.02424,-0.111918 l -0.549406,-1.047208 c 0.395896,-0.161109 0.549406,-0.595213 0.549406,-1.091963 0,-0.438574 -0.49689,-0.671293 -0.876626,-0.707097 h -0.662522 c -0.113113,0 -0.201988,0.09838 -0.201988,0.223768 z m 0.403976,-1.552921 v -0.957707 h 0.436292 c 0.129272,0.0091 0.258545,0.05368 0.371658,0.125305 0.05656,0.03139 0.125232,0.07609 0.125232,0.134268 0,0.219275 -0.0081,0.456464 -0.157551,0.595201 -0.08887,0.08508 -0.214106,0.102933 -0.331259,0.102933 z m -2.846061,1.503695 c 0,0.120824 0.09291,0.223757 0.201988,0.223757 0.15351,0 0.302981,0 0.452453,-0.03139 0.601923,-0.120835 1.054375,-0.66233 1.054375,-1.445507 0,-0.393828 -0.121193,-0.73395 -0.282783,-0.975621 -0.262584,-0.389336 -0.618082,-0.680232 -1.224045,-0.680232 -0.113113,0 -0.201988,0.102933 -0.201988,0.223768 z m 0.403975,-0.232719 v -2.215262 c 0.16967,0.02241 0.302982,0.08053 0.420135,0.174531 0.258543,0.205865 0.48073,0.545987 0.48073,1.020377 0,0.644439 -0.363578,0.966658 -0.900865,1.020354 z M 112.88687,88.475542 c 0,0.274825 0.19601,0.490756 0.42612,0.490756 0.23011,0 0.42613,-0.225747 0.42613,-0.490756 v -5.290428 l 0.86931,3.297922 c 0.0512,0.196311 0.22158,0.35336 0.40909,0.35336 0.20454,0 0.34942,-0.166864 0.40908,-0.35336 l 0.86931,-3.297922 v 5.290428 c 0,0.274825 0.19601,0.490756 0.42612,0.490756 0.23011,0 0.42613,-0.225747 0.42613,-0.490756 v -6.114914 c 0,-0.26501 -0.19602,-0.490757 -0.42613,-0.490757 h -0.65624 c -0.19602,0 -0.36647,0.157027 -0.40908,0.35335 l -0.63919,2.424358 -0.6392,-2.424358 c -0.0512,-0.186496 -0.21306,-0.35335 -0.40908,-0.35335 h -0.65625 c -0.23011,0 -0.42612,0.215932 -0.42612,0.490757 z m -4.04708,-0.107938 c 0,0.274825 0.19601,0.490768 0.42613,0.490768 h 2.91472 c 0.23012,0 0.42614,-0.215943 0.42614,-0.490768 0,-0.274824 -0.1875,-0.490767 -0.42614,-0.490767 h -2.4886 v -2.110271 h 2.07952 c 0.23863,0 0.42613,-0.225758 0.42613,-0.490767 0,-0.26501 -0.19602,-0.490757 -0.42613,-0.490757 h -2.07952 v -1.815837 h 2.4886 c 0.23012,0 0.42614,-0.215931 0.42614,-0.490756 0,-0.274836 -0.1875,-0.490768 -0.42614,-0.490768 h -2.91472 c -0.23863,0 -0.42613,0.215932 -0.42613,0.490768 z m -4.83116,-5.889258 c 0,0.274825 0.19602,0.490757 0.42613,0.490757 h 1.27839 v 5.50637 c 0,0.274825 0.19602,0.490757 0.42613,0.490757 0.23011,0 0.42613,-0.225747 0.42613,-0.490757 v -5.50637 h 1.27839 c 0.23011,0 0.42613,-0.225747 0.42613,-0.490757 0,-0.26502 -0.1875,-0.490767 -0.42613,-0.490767 h -3.40904 c -0.23864,0 -0.42613,0.215931 -0.42613,0.490767 z m -4.14935,4.888001 c 0.102271,0.961893 0.8693,1.648961 1.76418,1.648961 0.1108,0 0.22159,-0.01024 0.3409,-0.02946 0.89487,-0.147234 1.57668,-0.903011 1.57668,-1.972864 0,-1.550816 -1.22725,-1.923797 -2.13065,-2.444012 -0.31533,-0.206127 -0.64771,-0.412243 -0.64771,-0.971719 0,-0.500572 0.50283,-0.745951 0.94601,-0.775397 0.28124,0 0.51987,0.05892 0.69032,0.225747 0.23012,0.225758 0.23012,0.755777 0.6392,0.755777 0.23863,0 0.42613,-0.225747 0.42613,-0.490757 0,-0.03924 -0.008,-0.08826 -0.0171,-0.127602 -0.19603,-0.814671 -0.81817,-1.344689 -1.70453,-1.344689 h -0.0512 c -0.9375,0.01968 -1.781234,0.706699 -1.781234,1.756921 0,1.501738 1.201694,1.884546 2.079514,2.394933 0.34943,0.206127 0.69886,0.422059 0.69886,1.020798 0,0.284629 -0.10227,0.569281 -0.28978,0.74595 -0.20453,0.176669 -0.48579,0.265021 -0.74999,0.265021 -0.45169,0 -0.87782,-0.255205 -0.93748,-0.79504 -0.0426,-0.225758 -0.20454,-0.422058 -0.42613,-0.422058 -0.23011,0 -0.426129,0.225747 -0.426129,0.490756 z m -4.532868,-5.005788 c 0,0.08837 0.01697,0.166865 0.05117,0.235563 l 1.457368,3.140884 v 2.738467 c 0,0.274825 0.196021,0.490757 0.42612,0.490757 0.230126,0 0.426138,-0.225747 0.426138,-0.490757 v -2.738467 l 1.457377,-3.140884 c 0.03411,-0.0687 0.05117,-0.147222 0.05117,-0.235563 0,-0.265009 -0.196021,-0.490756 -0.426129,-0.490756 -0.153414,0 -0.323858,0.117776 -0.374993,0.264998 l -1.13351,2.444012 -1.133509,-2.444012 c -0.07667,-0.147222 -0.204541,-0.264998 -0.374985,-0.264998 -0.230126,0 -0.426147,0.215932 -0.426147,0.490756 z m -4.345367,5.005788 c 0.102261,0.961893 0.869305,1.648961 1.764187,1.648961 0.11079,0 0.221562,-0.01024 0.340898,-0.02946 0.894855,-0.147234 1.576669,-0.903011 1.576669,-1.972864 0,-1.550816 -1.227252,-1.923797 -2.130653,-2.444012 -0.31533,-0.206127 -0.647709,-0.412243 -0.647709,-0.971719 0,-0.500572 0.502832,-0.745951 0.946009,-0.775397 0.281252,0 0.519879,0.05892 0.690332,0.225747 0.230108,0.225758 0.230108,0.755777 0.639189,0.755777 0.238628,0 0.426129,-0.225747 0.426129,-0.490757 0,-0.03924 -0.0079,-0.08826 -0.01697,-0.127602 -0.196012,-0.814671 -0.81817,-1.344689 -1.704524,-1.344689 h -0.05117 c -0.93748,0.01968 -1.781218,0.706699 -1.781218,1.756921 0,1.501738 1.201684,1.884546 2.079518,2.394933 0.349417,0.206127 0.698852,0.422059 0.698852,1.020798 0,0.284629 -0.10227,0.569281 -0.289771,0.74595 -0.204541,0.176669 -0.485793,0.265021 -0.749997,0.265021 -0.451696,0 -0.877825,-0.255205 -0.93748,-0.79504 -0.04255,-0.225758 -0.204549,-0.422058 -0.426137,-0.422058 -0.230099,0 -0.42612,0.225747 -0.42612,0.490756 z m -8.929371,1.001155 c 0,0.265021 0.196012,0.490768 0.426137,0.490768 h 3.170394 c 0.230117,0 0.426129,-0.225747 0.426129,-0.490768 0,-0.265009 -0.187483,-0.490768 -0.426129,-0.490768 h -2.744274 v -5.516175 c 0,-0.274824 -0.19602,-0.490756 -0.42612,-0.490756 -0.230125,0 -0.426137,0.225747 -0.426137,0.490756 z m -4.285713,0 c 0,0.274825 0.196021,0.490768 0.426129,0.490768 h 2.914727 c 0.230108,0 0.426129,-0.215943 0.426129,-0.490768 0,-0.274825 -0.187501,-0.490768 -0.426129,-0.490768 h -2.488598 v -2.11027 h 2.079518 c 0.238627,0 0.426128,-0.225758 0.426128,-0.490768 0,-0.265009 -0.19602,-0.490756 -0.426128,-0.490756 h -2.079518 v -1.815837 h 2.488598 c 0.230108,0 0.426129,-0.215932 0.426129,-0.490757 0,-0.274836 -0.187501,-0.490767 -0.426129,-0.490767 H 78.19209 c -0.238636,0 -0.426129,0.215931 -0.426129,0.490767 z m -4.71184,-1.570448 c 0,0.726331 0.272722,1.43303 0.801124,1.835469 0.357949,0.274825 0.784079,0.363154 1.210209,0.363154 0.426134,0 0.852264,-0.08837 1.210214,-0.363154 0.51987,-0.402439 0.80112,-1.109138 0.80112,-1.835469 v -4.436495 c 0,-0.265009 -0.20454,-0.490756 -0.42613,-0.490756 -0.23011,0 -0.42613,0.215932 -0.42613,0.490756 v 4.436495 c 0,0.755778 -0.4517,1.217098 -1.159074,1.217098 -0.255677,0 -0.528402,-0.03924 -0.741465,-0.1963 -0.289769,-0.225758 -0.417608,-0.61837 -0.417608,-1.020798 v -4.436495 c 0,-0.265009 -0.196022,-0.490756 -0.42613,-0.490756 -0.230111,0 -0.42613,0.225747 -0.42613,0.490756 z m -3.731742,1.678419 c 0,0.26501 0.19602,0.490757 0.426128,0.490757 0.23011,0 0.426132,-0.225747 0.426132,-0.490757 v -2.709009 h 1.525545 c 0.230109,0 0.42613,-0.225758 0.42613,-0.490768 0,-0.265009 -0.204544,-0.490756 -0.42613,-0.490756 h -1.525545 v -1.815837 h 1.909062 c 0.23011,0 0.42613,-0.215932 0.42613,-0.490757 0,-0.274836 -0.187497,-0.490767 -0.42613,-0.490767 h -2.335194 c -0.238631,0 -0.426128,0.225747 -0.426128,0.490767 z" />
    </g>
  </g>
</svg>
