<?xml version="1.0" encoding="UTF-8" standalone="no"?>
<!-- Created with Inkscape (http://www.inkscape.org/) -->

<svg
   xmlns:dc="http://purl.org/dc/elements/1.1/"
   xmlns:cc="http://creativecommons.org/ns#"
   xmlns:rdf="http://www.w3.org/1999/02/22-rdf-syntax-ns#"
   xmlns:svg="http://www.w3.org/2000/svg"
   xmlns="http://www.w3.org/2000/svg"
   xmlns:sodipodi="http://sodipodi.sourceforge.net/DTD/sodipodi-0.dtd"
   xmlns:inkscape="http://www.inkscape.org/namespaces/inkscape"
   width="75.861374mm"
   height="74.103302mm"
   viewBox="0 0 75.861374 74.103302"
   version="1.1"
   id="svg2295"
   inkscape:version="0.92.3 (2405546, 2018-03-11)"
   sodipodi:docname="I_plate_02A.svg">
  <defs
     id="defs2289" />
  <sodipodi:namedview
     id="base"
     pagecolor="#ffffff"
     bordercolor="#666666"
     borderopacity="1.0"
     inkscape:pageopacity="0.0"
     inkscape:pageshadow="2"
     inkscape:zoom="2.8"
     inkscape:cx="122.56223"
     inkscape:cy="179.012"
     inkscape:document-units="mm"
     inkscape:current-layer="layer1"
     showgrid="false"
     showguides="true"
     inkscape:guide-bbox="true"
     inkscape:window-width="2560"
     inkscape:window-height="1380"
     inkscape:window-x="3840"
     inkscape:window-y="0"
     inkscape:window-maximized="1">
    <sodipodi:guide
       position="1.5837189,81.706348"
       orientation="0,1"
       id="guide2851"
       inkscape:locked="false" />
    <sodipodi:guide
       position="-5.5033341,57.893848"
       orientation="1,0"
       id="guide2853"
       inkscape:locked="false" />
  </sodipodi:namedview>
  <metadata
     id="metadata2292">
    <rdf:RDF>
      <cc:Work
         rdf:about="">
        <dc:format>image/svg+xml</dc:format>
        <dc:type
           rdf:resource="http://purl.org/dc/dcmitype/StillImage" />
        <dc:title></dc:title>
      </cc:Work>
    </rdf:RDF>
  </metadata>
  <g
     inkscape:label="Layer 1"
     inkscape:groupmode="layer"
     id="layer1"
     transform="translate(-52.939345,-104.84263)">
    <g
       id="text2861"
       style="font-style:normal;font-variant:normal;font-weight:normal;font-stretch:normal;font-size:3.52777767px;line-height:1.25;font-family:OCRB;-inkscape-font-specification:OCRB;letter-spacing:0px;word-spacing:0px;fill:#000000;fill-opacity:1;stroke:none;stroke-width:0.26458332"
       aria-label="KNOTS"
       transform="translate(-1.3925321e-6,2.2770748e-6)" />
    <g
       id="text2865"
       style="font-style:normal;font-variant:normal;font-weight:normal;font-stretch:normal;font-size:3.52777767px;line-height:1.25;font-family:OCRB;-inkscape-font-specification:OCRB;letter-spacing:0px;word-spacing:0px;fill:#000000;fill-opacity:1;stroke:none;stroke-width:0.26458332"
       aria-label="x100"
       transform="translate(-1.0565395e-6,2.2614831e-6)">
      <path
         inkscape:connector-curvature="0"
         d="m 93.374868,111.90454 c 0,0.68792 0.176388,1.25589 0.881944,1.25589 0.03528,0 0.06703,0.004 0.102306,0.004 0.01764,0 0.03528,-0.004 0.05292,-0.004 0.5715,-0.0459 0.726722,-0.65616 0.726722,-1.25589 0,-0.81139 -0.07055,-1.51694 -0.881944,-1.51694 -0.818444,0 -0.881944,0.70203 -0.881944,1.51694 z m 0.352777,0 c 0,-0.26811 0,-0.57855 0.05292,-0.79727 0.05997,-0.24342 0.176389,-0.36689 0.47625,-0.36689 0.05644,0 0.134056,0 0.165806,0.007 0.345722,0.067 0.363361,0.56092 0.363361,0.99484 v 0.16227 c 0,0.381 -0.04586,0.90311 -0.451556,0.90311 h -0.07761 c -0.05644,0 -0.134056,0 -0.169333,-0.007 -0.313973,-0.067 -0.359834,-0.53975 -0.359834,-0.89606 z m -2.902148,0 c 0,0.68792 0.176389,1.25589 0.881945,1.25589 0.03528,0 0.06703,0.004 0.102305,0.004 0.01764,0 0.03528,-0.004 0.05292,-0.004 0.5715,-0.0459 0.726722,-0.65616 0.726722,-1.25589 0,-0.81139 -0.07055,-1.51694 -0.881944,-1.51694 -0.818445,0 -0.881945,0.70203 -0.881945,1.51694 z m 0.352778,0 c 0,-0.26811 0,-0.57855 0.05292,-0.79727 0.05997,-0.24342 0.176389,-0.36689 0.47625,-0.36689 0.05644,0 0.134055,0 0.165805,0.007 0.345722,0.067 0.363361,0.56092 0.363361,0.99484 v 0.16227 c 0,0.381 -0.04586,0.90311 -0.451555,0.90311 h -0.07761 c -0.05644,0 -0.134056,0 -0.169334,-0.007 -0.313972,-0.067 -0.359833,-0.53975 -0.359833,-0.89606 z m -2.792787,-0.78669 c 0,0.0952 0.07761,0.17639 0.176389,0.17639 0.04233,0 0.08467,-0.0141 0.116416,-0.0423 l 0.455084,-0.38805 v 2.10961 c 0,0.0988 0.08114,0.17639 0.176389,0.17639 0.09525,0 0.176389,-0.0811 0.176389,-0.17639 v -2.39889 c 0,-0.0952 -0.08114,-0.17639 -0.176389,-0.17639 h -0.112889 c -0.04233,0 -0.08114,0.0141 -0.112889,0.0423 l -0.645583,0.55386 c -0.03528,0.0282 -0.05292,0.0776 -0.05292,0.12347 z m -2.538787,1.86619 c 0,0.0953 0.08114,0.17639 0.176389,0.17639 0.04586,0 0.09525,-0.0141 0.127,-0.0494 l 0.458611,-0.65264 0.455083,0.65264 c 0.03175,0.0423 0.08114,0.0494 0.130528,0.0494 0.09172,0 0.176389,-0.0811 0.176389,-0.17639 0,-0.0353 -0.01411,-0.0705 -0.03528,-0.1023 l -0.493889,-0.70556 0.458611,-0.67733 c 0.01764,-0.0282 0.02822,-0.0635 0.02822,-0.0988 0,-0.0952 -0.08114,-0.17639 -0.176389,-0.17639 -0.04586,0 -0.09525,0.0176 -0.127,0.0494 l -0.416277,0.61736 -0.416278,-0.61736 c -0.0247,-0.0353 -0.08114,-0.0494 -0.127,-0.0494 -0.09525,0 -0.176389,0.0776 -0.176389,0.17639 0,0.0353 0.01058,0.0706 0.02822,0.0988 l 0.455084,0.67733 -0.493889,0.70556 c -0.02117,0.0318 -0.03175,0.067 -0.03175,0.1023 z m 9.158053,-4.37796 c 0.04233,0.34572 0.359833,0.59266 0.73025,0.59266 0.04586,0 0.09172,-0.004 0.141111,-0.0106 0.370417,-0.0529 0.652639,-0.32455 0.652639,-0.70908 0,-0.55739 -0.508,-0.69145 -0.881944,-0.87842 -0.130528,-0.0741 -0.268111,-0.14817 -0.268111,-0.34925 0,-0.17992 0.208138,-0.26811 0.391583,-0.27869 0.116417,0 0.215194,0.0212 0.28575,0.0811 0.09525,0.0811 0.09525,0.27163 0.264583,0.27163 0.09878,0 0.176389,-0.0811 0.176389,-0.17638 0,-0.0141 -0.0035,-0.0317 -0.0071,-0.0459 -0.08114,-0.2928 -0.338666,-0.4833 -0.705555,-0.4833 h -0.02117 c -0.388055,0.007 -0.737305,0.254 -0.737305,0.63147 0,0.53975 0.497416,0.67733 0.860778,0.86078 0.144638,0.0741 0.289277,0.15169 0.289277,0.36689 0,0.1023 -0.04233,0.20461 -0.119944,0.26811 -0.08467,0.0635 -0.201083,0.0952 -0.310445,0.0952 -0.186972,0 -0.363361,-0.0917 -0.388055,-0.28575 -0.01764,-0.0811 -0.08467,-0.1517 -0.176389,-0.1517 -0.09525,0 -0.176389,0.0811 -0.176389,0.17639 z m -2.669315,-1.75684 c 0,0.0988 0.08114,0.17639 0.176389,0.17639 h 0.529166 v 1.97909 c 0,0.0988 0.08114,0.17639 0.176389,0.17639 0.09525,0 0.176389,-0.0811 0.176389,-0.17639 v -1.97909 h 0.529167 c 0.09525,0 0.176389,-0.0811 0.176389,-0.17639 0,-0.0952 -0.07761,-0.17638 -0.176389,-0.17638 h -1.411111 c -0.09878,0 -0.176389,0.0776 -0.176389,0.17638 z m -2.538787,1.04775 c 0,0.60325 0.310444,1.2947 0.871361,1.2947 0.567972,0 0.864306,-0.69145 0.871361,-1.2947 0,-0.63147 -0.306917,-1.29469 -0.871361,-1.29469 -0.141111,0 -0.313972,0.06 -0.419806,0.14817 -0.278694,0.2293 -0.451555,0.64911 -0.451555,1.1183 z m 0.352778,0 v -0.0388 c 0,-0.27517 0.07408,-0.55386 0.215194,-0.73378 h 0.0071 c 0.05997,-0.0847 0.169333,-0.16933 0.296333,-0.16933 0.366889,0 0.518583,0.5468 0.518583,0.94191 0,0.36689 -0.162277,0.94192 -0.518583,0.94192 -0.359833,0 -0.518583,-0.57503 -0.518583,-0.94192 z m -2.863343,1.10773 c 0,0.0952 0.08114,0.17639 0.176389,0.17639 0.09525,0 0.176389,-0.0811 0.176389,-0.17639 v -1.69334 l 0.843139,1.77095 c 0.02822,0.0564 0.08819,0.0988 0.15875,0.0988 h 0.134055 c 0.09172,0 0.176389,-0.0811 0.176389,-0.17639 v -2.19781 c 0,-0.0953 -0.08467,-0.17639 -0.176389,-0.17639 -0.09525,0 -0.176389,0.0776 -0.176389,0.17639 v 1.69686 l -0.846666,-1.77094 c -0.02822,-0.0565 -0.08819,-0.10231 -0.15875,-0.10231 h -0.130528 c -0.09525,0 -0.176389,0.0811 -0.176389,0.17639 z m -2.549371,0 c 0,0.0952 0.08114,0.17639 0.176389,0.17639 0.09525,0 0.176389,-0.0811 0.176389,-0.17639 v -0.97014 l 1.058333,1.09361 c 0.03528,0.0353 0.08114,0.0529 0.127,0.0529 0.09525,0 0.176389,-0.0811 0.176389,-0.17639 0,-0.0459 -0.02117,-0.0882 -0.05292,-0.12348 l -0.987778,-1.02305 0.906639,-0.92781 c 0.03175,-0.0318 0.05292,-0.0776 0.05292,-0.12347 0,-0.0953 -0.08114,-0.17639 -0.176388,-0.17639 -0.04586,0 -0.09172,0.0212 -0.127,0.0529 l -0.977195,0.99483 v -0.87136 c 0,-0.0953 -0.08114,-0.17639 -0.176389,-0.17639 -0.09525,0 -0.176389,0.0811 -0.176389,0.17639 z"
         style="stroke-width:0.26458332"
         id="path2891" />
    </g>
    <path
       style="fill:#000000;stroke-width:0.08466666"
       d="m 92.2784,178.70199 c -0.0903,-0.4513 -0.0623,-1.84082 0.0383,-1.903 0.18205,-0.11251 0.2336,0.10525 0.26106,1.10279 0.0242,0.87945 0.01,1.01722 -0.10889,1.04118 -0.0952,0.0192 -0.1531,-0.054 -0.1905,-0.24097 z m -3.65166,-0.38932 c 0.10085,-1.19555 0.14081,-1.46557 0.22457,-1.51734 0.20331,-0.12565 0.24751,0.13617 0.18153,1.07512 -0.0645,0.91737 -0.0774,0.96646 -0.26133,0.99255 -0.18928,0.0268 -0.19244,0.0148 -0.14477,-0.55033 z m 7.32386,0.24772 c 3.4e-4,-0.0349 -0.0616,-0.49499 -0.13756,-1.02237 -0.10233,-0.71017 -0.11346,-0.98356 -0.0429,-1.0541 0.17229,-0.17229 0.25829,0.0484 0.40141,1.03006 0.11852,0.81291 0.12196,0.97021 0.0227,1.03311 -0.14484,0.0917 -0.24435,0.0972 -0.24357,0.0133 z m -10.92107,-0.21167 c 0.003,-0.40799 0.24847,-1.78669 0.33278,-1.871 0.0623,-0.0623 0.11658,-0.0615 0.18064,0.003 0.0657,0.0657 0.0537,0.3466 -0.0423,0.99316 -0.0737,0.49586 -0.13394,0.93851 -0.13394,0.98367 0,0.0452 -0.0762,0.0821 -0.16933,0.0821 -0.11961,0 -0.16889,-0.0559 -0.16782,-0.1905 z m -3.33305,-0.49238 c -0.55177,-0.13717 -1.05211,-0.27777 -1.11189,-0.31243 -0.0797,-0.0462 0.16552,-0.56504 0.91853,-1.94368 0.56498,-1.03436 1.07041,-1.88209 1.12318,-1.88383 0.0528,-0.002 0.11893,0.0825 0.14701,0.18732 0.0744,0.27769 0.0649,4.21309 -0.0101,4.20709 -0.0349,-0.003 -0.51494,-0.1173 -1.0667,-0.25447 z m 17.60655,0.0558 c 0.0196,-0.051 -0.13486,-0.83559 -0.34315,-1.74361 -0.33224,-1.44841 -0.36352,-1.66617 -0.25495,-1.77493 0.10866,-0.10886 0.13736,-0.10886 0.23541,0 0.12873,0.14293 0.85477,3.34301 0.78433,3.45699 -0.0708,0.11454 -0.464,0.17193 -0.42164,0.0616 z m -20.19079,-0.80371 c -0.0948,-0.06 -0.0586,-0.24626 0.19722,-1.01386 0.31694,-0.95116 0.41439,-1.11536 0.56975,-0.96 0.0579,0.0579 -0.0192,0.40467 -0.23746,1.06789 -0.17778,0.54016 -0.34352,0.98153 -0.36832,0.98082 -0.0248,-6.8e-4 -0.0973,-0.0344 -0.16119,-0.0748 z m 23.1515,-1.00237 c -0.23232,-0.70586 -0.29398,-0.99577 -0.22622,-1.06353 0.062,-0.062 0.12143,-0.0649 0.17767,-0.009 0.0765,0.0765 0.67749,1.76495 0.67749,1.90344 0,0.032 -0.0697,0.0764 -0.15478,0.0986 -0.13118,0.0343 -0.20349,-0.10752 -0.47416,-0.92991 z m -25.5544,0.12601 c -0.12583,-0.0962 -0.10883,-0.18527 0.18772,-0.98283 0.35702,-0.96019 0.45566,-1.11716 0.60695,-0.96586 0.0716,0.0716 0.004,0.34533 -0.26688,1.07526 -0.1996,0.5386 -0.36886,0.97927 -0.37616,0.97927 -0.007,0 -0.0755,-0.0476 -0.15163,-0.10584 z m 28.88291,-1.38839 c -0.39753,-0.84915 -0.45768,-1.13044 -0.24174,-1.13044 0.14532,0 1.00711,1.89311 0.89552,1.9672 -0.18368,0.12196 -0.23681,0.054 -0.65378,-0.83676 z m -31.37337,0.33983 c -0.0652,-0.0266 0.0399,-0.32973 0.30839,-0.89014 0.46691,-0.97439 0.54849,-1.08358 0.69792,-0.93415 0.0811,0.0811 0.009,0.29283 -0.33816,0.9906 -0.24274,0.48808 -0.47014,0.88441 -0.50535,0.88074 -0.0352,-0.004 -0.10846,-0.0249 -0.1628,-0.0471 z m -2.22011,-1.20865 c -0.0936,-0.0593 -0.0154,-0.25281 0.38461,-0.9512 0.45457,-0.79365 0.74896,-1.08835 0.74896,-0.74975 0,0.14206 -0.89112,1.77873 -0.96736,1.7767 -0.0268,-6.8e-4 -0.10154,-0.0348 -0.16621,-0.0757 z m 36.86127,-0.73375 c -0.44196,-0.75095 -0.53988,-1.11949 -0.2739,-1.03083 0.058,0.0193 0.32367,0.41137 0.59048,0.87121 0.45815,0.78964 0.49735,0.96296 0.21916,0.96912 -0.0322,6.8e-4 -0.27329,-0.36356 -0.53574,-0.8095 z m -24.79513,0.34775 c -0.39322,-0.14017 -0.83662,-0.54897 -1.12497,-1.0372 -0.23726,-0.40172 -0.21152,-0.6328 0.0927,-0.83211 0.26426,-0.17315 0.48906,-0.0721 0.80243,0.3608 0.37323,0.51556 0.61068,0.64729 1.07291,0.59519 0.4484,-0.0505 0.74816,-0.29221 0.888,-0.71593 0.19899,-0.60294 -0.1581,-1.27753 -0.8387,-1.58443 -0.33658,-0.15178 -0.5219,-0.41578 -0.5219,-0.74348 0,-0.0984 0.1905,-0.53228 0.42334,-0.96418 0.23283,-0.43191 0.42333,-0.80681 0.42333,-0.83312 0,-0.0263 -0.4513,-0.0478 -1.00288,-0.0478 -0.86405,0 -1.02227,-0.0214 -1.143,-0.15483 -0.18686,-0.20648 -0.17705,-0.46283 0.0247,-0.64541 0.1422,-0.12869 0.35802,-0.15082 1.5728,-0.16129 l 1.40798,-0.0121 0.2052,0.23755 c 0.11286,0.13066 0.20521,0.31643 0.20521,0.41283 0,0.0964 -0.22733,0.60144 -0.50517,1.12231 l -0.50518,0.94705 0.41196,0.30756 c 0.67556,0.50435 1.05798,1.50083 0.85924,2.23891 -0.33316,1.23728 -1.58415,1.92457 -2.74796,1.50974 z m -14.21886,-0.92881 c -0.14334,-0.10867 -0.0894,-0.21322 0.80433,-1.56048 0.52688,-0.79421 1.01042,-1.46514 1.07453,-1.49096 0.16309,-0.0657 0.36698,0.12504 0.30682,0.28703 -0.10074,0.27126 -1.86536,2.88252 -1.94739,2.88172 -0.0466,-4.3e-4 -0.1538,-0.0532 -0.23829,-0.11731 z m 41.9794,-1.28391 c -0.33019,-0.4769 -0.54254,-0.86424 -0.51424,-0.938 0.0841,-0.21908 0.23533,-0.0794 0.82353,0.76029 0.52796,0.75372 0.56073,0.82544 0.41329,0.90435 -0.14004,0.075 -0.23071,-0.0162 -0.72258,-0.72664 z m -44.06361,-0.19751 c -0.0967,-0.0612 0.003,-0.24187 0.49234,-0.89292 0.56433,-0.75079 0.83137,-0.95345 0.80293,-0.60935 -0.0114,0.13751 -1.04294,1.58264 -1.12802,1.58025 -0.0253,-6.8e-4 -0.10061,-0.0358 -0.16725,-0.078 z m 46.78797,-0.91132 c -0.0661,-0.13039 -0.43517,-0.92287 -0.82008,-1.76107 -0.38491,-0.8382 -0.73102,-1.55841 -0.76915,-1.60047 -0.0381,-0.0421 -0.0329,-0.14447 0.0116,-0.22759 0.0713,-0.13326 0.28115,-0.009 1.77555,1.05014 l 1.69468,1.20125 -0.44977,0.42334 c -0.24737,0.23283 -0.64613,0.58716 -0.88615,0.7874 l -0.43638,0.36406 z M 65.7383,169.53944 c -0.0694,-0.0837 0.075,-0.28872 0.60752,-0.86224 0.44404,-0.47825 0.73572,-0.72954 0.80041,-0.68955 0.056,0.0346 0.10178,0.0971 0.10178,0.13892 0,0.0939 -1.27428,1.52265 -1.35806,1.52265 -0.0333,0 -0.10154,-0.0494 -0.15165,-0.10978 z m -1.863494,-1.779 c -0.07072,-0.0852 0.07142,-0.27329 0.615764,-0.81481 0.63646,-0.63315 0.89477,-0.77721 0.89477,-0.49902 0,0.0992 -1.264368,1.42461 -1.358978,1.42461 -0.03279,0 -0.10099,-0.0499 -0.151556,-0.11078 z m -1.742727,-1.89274 c -0.03906,-0.10178 0.114489,-0.29551 0.553626,-0.6985 0.739323,-0.67846 0.824441,-0.73221 0.950966,-0.60057 0.07479,0.0778 -0.07021,0.25843 -0.618785,0.77078 -0.394051,0.36803 -0.742401,0.66914 -0.774108,0.66914 -0.03171,0 -0.08197,-0.0634 -0.111699,-0.14085 z m 46.557321,0.0603 c -0.27559,-0.11171 -0.40115,-0.32184 -0.40115,-0.67135 0,-0.67434 0.78834,-1.70411 2.00543,-2.61962 0.66232,-0.49821 0.80563,-0.67133 0.89922,-1.0863 0.14914,-0.66127 -0.31056,-1.2995 -0.936,-1.2995 -0.42778,0 -0.72066,0.25732 -0.9141,0.80309 -0.19458,0.549 -0.4848,0.73653 -0.81004,0.52342 -0.25793,-0.16901 -0.27713,-0.37083 -0.0881,-0.92573 0.18192,-0.53389 0.71218,-1.11601 1.179,-1.29429 0.81703,-0.31202 1.79087,0.0492 2.28374,0.84716 0.22645,0.36663 0.25614,0.48938 0.25539,1.0561 -0.001,0.91583 -0.26037,1.35861 -1.26813,2.16652 -0.79639,0.63846 -1.10945,0.94584 -1.35011,1.32557 l -0.14333,0.22617 1.15538,0.0278 c 1.02747,0.0247 1.16867,0.046 1.27537,0.19218 0.16475,0.22564 0.15039,0.50157 -0.0348,0.66919 -0.13141,0.11892 -0.36523,0.13931 -1.54517,0.13476 -0.76468,-0.003 -1.46786,-0.0368 -1.56261,-0.0752 z m 9.72415,-1.47217 c -0.70701,-0.61285 -1.31251,-1.14192 -1.34557,-1.17572 -0.0812,-0.0831 0.12376,-0.31955 0.27699,-0.31955 0.1225,0 2.64935,2.11026 2.65002,2.21312 1.7e-4,0.0298 -0.0663,0.13114 -0.14782,0.22527 -0.14593,0.16856 -0.16749,0.15438 -1.43362,-0.94312 z m -57.893445,-0.55985 c -0.350952,-0.46342 -0.637962,-0.87299 -0.637802,-0.91016 3.38e-4,-0.0731 3.613993,-1.55179 3.788541,-1.55021 0.05821,5.1e-4 0.105731,0.0486 0.105606,0.10679 -2.54e-4,0.12975 -2.441527,3.19616 -2.544548,3.19616 -0.04054,0 -0.360845,-0.37916 -0.711797,-0.84258 z m 6.785795,-1.53097 c -0.1824,-0.14348 -0.22317,-0.253 -0.24425,-0.65617 l -0.0253,-0.48394 -1.17046,-0.0156 c -1.27081,-0.0169 -1.53128,-0.0947 -1.629712,-0.48689 -0.06998,-0.27881 1.467802,-5.10262 1.693772,-5.31314 0.33448,-0.31162 1.06407,-0.0869 1.06407,0.32779 0,0.12838 -1.2412,4.12866 -1.32839,4.2813 -0.02,0.0349 0.27615,0.0635 0.65799,0.0635 h 0.69427 l -0.0449,-0.72013 c -0.0392,-0.62884 -0.0239,-0.74689 0.12121,-0.93133 0.12466,-0.15848 0.24587,-0.21121 0.48553,-0.21121 0.50038,0 0.63601,0.2141 0.67154,1.06009 0.0286,0.6807 0.0369,0.7056 0.254,0.75977 0.32674,0.0815 0.52077,0.28986 0.52077,0.55913 0,0.25206 -0.26108,0.49968 -0.52684,0.49968 -0.1286,0 -0.15049,0.0791 -0.15049,0.54419 0,0.48705 -0.0234,0.56261 -0.22308,0.71966 -0.28188,0.22173 -0.54065,0.22276 -0.8197,0.003 z m 54.82819,-3.16627 c -0.80111,-0.47397 -1.48213,-0.88733 -1.51338,-0.91859 -0.0782,-0.0782 0.13008,-0.31492 0.27709,-0.31492 0.18161,0 2.90794,1.62154 2.90485,1.72772 -0.001,0.0509 -0.0498,0.15448 -0.10735,0.23009 -0.0931,0.12223 -0.26613,0.0419 -1.56121,-0.7243 z m -66.352129,-3.49133 c -0.02979,-0.0776 -0.02434,-0.16957 0.01211,-0.20428 0.03645,-0.0347 0.752076,-0.34931 1.590276,-0.6991 1.323385,-0.55225 1.540319,-0.6201 1.647976,-0.51538 0.108857,0.10588 0.108857,0.13463 0,0.23581 -0.123572,0.11485 -2.971915,1.3241 -3.118869,1.3241 -0.04253,0 -0.101699,-0.0635 -0.131491,-0.14115 z m 69.081709,-2.51723 c -1.07197,-0.3747 -1.53213,-0.57435 -1.55142,-0.67309 -0.0151,-0.0772 0.0316,-0.16301 0.10371,-0.19069 0.10484,-0.0402 2.93642,0.87187 3.1865,1.02642 0.0958,0.0592 -0.006,0.37987 -0.11883,0.37457 -0.0528,-0.002 -0.78176,-0.24422 -1.61996,-0.53721 z m -66.505659,-4.81663 c -0.26077,-0.13122 -0.33131,-0.56358 -0.125524,-0.76936 0.111685,-0.11169 0.328183,-0.13762 1.148815,-0.13762 h 1.011196 l 0.308134,-0.28239 c 0.269188,-0.24669 0.313141,-0.34277 0.347753,-0.76014 0.03783,-0.45617 0.02615,-0.49121 -0.258577,-0.77594 -0.296731,-0.29674 -0.301922,-0.2982 -1.056029,-0.2982 -1.441085,0 -1.545101,-0.12549 -1.545101,-1.86403 0,-0.65776 0.0392,-1.26834 0.08718,-1.35799 0.184217,-0.34422 0.510843,-0.41865 1.837114,-0.41865 1.41198,0 1.63171,0.0684 1.63171,0.508 0,0.42678 -0.233141,0.508 -1.458173,0.508 h -1.081827 v 0.80434 0.80433 h 0.70635 c 0.847405,0 1.302009,0.19684 1.721308,0.74533 0.794455,1.03923 0.447861,2.5545 -0.724374,3.16688 -0.417096,0.2179 -0.526621,0.23636 -1.395452,0.23521 -0.586452,-7.6e-4 -1.022839,-0.0415 -1.154499,-0.10777 z m -4.995333,-0.76764 c 0,-0.0165 -0.07753,-0.53585 -0.172299,-1.15414 -0.09476,-0.61829 -0.161439,-1.13089 -0.148166,-1.13912 0.01327,-0.008 0.908435,0.0825 1.98925,0.20165 1.953429,0.21531 2.401717,0.33001 1.964502,0.50263 -0.112357,0.0444 -0.964414,0.42678 -1.893458,0.84981 -1.719305,0.78288 -1.739829,0.7916 -1.739829,0.73917 z m 72.941402,-0.59383 c -1.17636,-0.21689 -1.44346,-0.29221 -1.46676,-0.4136 -0.0157,-0.0816 0.0344,-0.17256 0.11126,-0.20205 0.0769,-0.0295 0.86073,0.0726 1.74192,0.22682 1.53974,0.26952 1.60217,0.28811 1.60217,0.47721 0,0.25778 -0.14645,0.25127 -1.98859,-0.0884 z m -8.51007,-2.95778 -0.21167,-0.10777 0.0205,-3.12209 c 0.0182,-2.77386 0.0362,-3.13945 0.16129,-3.27765 0.20345,-0.2248 0.58914,-0.20057 0.7515,0.0472 0.11733,0.17907 0.12586,0.55227 0.0729,3.19253 -0.0595,2.96632 -0.0615,2.99127 -0.25406,3.18389 -0.22412,0.22412 -0.25548,0.22899 -0.5405,0.0839 z m 1.49376,-0.1014 c -0.16256,-0.16257 -0.18359,-0.55664 -0.0375,-0.70273 0.0674,-0.0674 0.43373,-0.1016 1.08815,-0.1016 0.88673,0 1.01553,-0.0195 1.273,-0.19305 0.34873,-0.23501 0.49769,-0.51043 0.49934,-0.92328 0.003,-0.82617 -0.3629,-1.08424 -1.5392,-1.08469 -0.74505,-2.6e-4 -0.84269,-0.0191 -1.05833,-0.20445 l -0.23756,-0.20414 -0.0271,-1.32041 -0.0271,-1.32041 0.25345,-0.25345 0.25346,-0.25346 h 1.39039 c 1.23946,0 1.4056,0.0168 1.53051,0.15484 0.16801,0.18565 0.18344,0.55048 0.0287,0.6789 -0.0648,0.0538 -0.58701,0.10239 -1.24883,0.1162 l -1.13742,0.0237 -0.0242,0.8255 -0.0242,0.8255 h 0.72611 c 0.80407,0 1.17882,0.13392 1.57752,0.56375 0.40062,0.43188 0.53419,0.78683 0.5366,1.42592 0.002,0.50746 -0.035,0.6583 -0.25675,1.04924 -0.14424,0.25428 -0.41976,0.57316 -0.62182,0.71967 -0.35997,0.26102 -0.37231,0.2633 -1.57041,0.2903 -1.03129,0.0232 -1.2279,0.007 -1.34669,-0.11188 z m 6.07178,-2.87975 c -0.027,-0.0704 -0.002,-0.18474 0.0554,-0.254 0.0859,-0.10352 0.39633,-0.12592 1.74514,-0.12592 h 1.64063 v 0.254 0.254 h -1.69599 c -1.43578,0 -1.70353,-0.0196 -1.74513,-0.12808 z m -70.811538,-3.21999 c -0.76835,-0.0586 -1.444625,-0.11029 -1.502834,-0.11489 -0.05821,-0.005 -0.105833,-0.10888 -0.105833,-0.23172 v -0.22334 l 0.613833,0.0522 c 0.337609,0.0287 1.099562,0.0776 1.69323,0.10871 1.101315,0.0577 1.325525,0.13343 1.218733,0.41173 -0.05548,0.14457 0.01496,0.14466 -1.917129,-0.003 z m 70.387228,-2.11654 c -0.0284,-0.0741 -0.007,-0.17983 0.0472,-0.23491 0.0544,-0.0551 0.84052,-0.21707 1.74691,-0.35997 l 1.64798,-0.25983 v 0.23866 c 0,0.13126 -0.0414,0.23866 -0.092,0.23866 -0.11601,0 -2.84678,0.41324 -3.10605,0.47003 -0.1264,0.0277 -0.2101,-0.004 -0.24408,-0.0926 z m -64.862279,-2.32728 c -1.055663,-0.52753 -1.426928,-1.53334 -1.072738,-2.90622 0.326183,-1.26432 1.457417,-2.76913 2.67681,-3.56079 0.271129,-0.17603 0.525901,-0.11973 0.706671,0.15616 0.182574,0.27865 0.08012,0.45515 -0.605372,1.0429 -0.517925,0.44408 -0.979534,0.94366 -1.155233,1.25025 -0.03087,0.0539 0.130137,0.0872 0.430292,0.089 0.651875,0.004 1.07166,0.16308 1.522443,0.57694 0.479693,0.4404 0.688829,0.8924 0.690157,1.49163 0.0036,1.60599 -1.707184,2.60259 -3.19303,1.86011 z m 1.584509,-0.86776 c 0.30841,-0.15605 0.595258,-0.63038 0.594891,-0.9837 -8.46e-4,-0.81207 -0.951587,-1.36572 -1.689745,-0.98401 -1.09313,0.56528 -0.725206,2.07747 0.504729,2.07446 0.20955,-5e-4 0.475106,-0.0486 0.590125,-0.10675 z m -5.2993,-2.62566 -1.957508,-0.17305 0.3598,-1.06532 c 0.208601,-0.61763 0.400995,-1.05598 0.457828,-1.0431 0.239763,0.0543 3.401201,2.24136 3.371021,2.332 -0.04729,0.14203 -0.05467,0.14187 -2.231141,-0.0505 z m 67.13997,-0.1848 c -0.03,-0.0783 -0.002,-0.19285 0.0628,-0.25458 0.11308,-0.10809 3.11535,-1.09952 3.16323,-1.04458 0.0129,0.0148 0.0476,0.10569 0.0771,0.20193 0.0495,0.16149 -0.0652,0.21278 -1.48601,0.66453 -0.84681,0.26925 -1.58979,0.50878 -1.65107,0.53229 -0.0613,0.0235 -0.136,-0.0213 -0.16605,-0.0996 z m -2.79485,-5.84423 c -0.0824,-0.2147 0.13661,-0.3751 1.66272,-1.21776 1.24907,-0.68969 1.40792,-0.75663 1.50012,-0.63216 0.0567,0.0766 0.0856,0.16759 0.0641,0.20229 -0.033,0.0533 -2.89513,1.67754 -3.10238,1.76051 -0.0387,0.0155 -0.0948,-0.0353 -0.1246,-0.11288 z m -61.441801,-1.13702 c -0.783671,-0.4562 -1.423288,-0.85452 -1.421371,-0.88517 0.0019,-0.0306 0.03757,-0.11662 0.07922,-0.19105 0.06436,-0.115 0.290482,-0.0124 1.505455,0.68278 0.786347,0.44996 1.464565,0.85295 1.507149,0.89553 0.07565,0.0756 -0.07998,0.3449 -0.192463,0.33298 -0.02922,-0.003 -0.694318,-0.37888 -1.47799,-0.83507 z m 7.787981,0.43186 c -0.0771,-0.0852 -0.14013,-0.22477 -0.14013,-0.31026 0,-0.11503 1.13073,-3.29146 1.75581,-4.9324 0.031,-0.0814 -0.22121,-0.10613 -1.09058,-0.10708 -1.34183,-0.001 -1.55423,-0.0707 -1.55423,-0.50676 0,-0.44287 0.20531,-0.50564 1.651,-0.50473 1.68964,0.001 1.9522,0.0726 2.08424,0.56813 0.0556,0.2086 -1.84508,5.53559 -2.06936,5.79977 -0.16322,0.19226 -0.45953,0.18916 -0.63675,-0.007 z m 43.67566,-2.04562 c -0.14336,-0.15841 -0.14875,-0.34903 -0.0904,-3.19437 0.0341,-1.66425 0.0968,-3.09081 0.13924,-3.17014 0.16544,-0.30912 0.67649,-0.29071 0.84843,0.0306 0.0667,0.12459 0.0756,1.03815 0.031,3.18048 -0.0577,2.77377 -0.0747,3.01789 -0.22063,3.16381 -0.20591,0.2059 -0.51607,0.20137 -0.70767,-0.0103 z m 6.78165,-2.19215 c -0.17956,-0.19841 -0.25085,-0.12376 1.35503,-1.41902 l 1.23776,-0.99836 0.16293,0.20121 c 0.0896,0.11067 0.13284,0.22746 0.096,0.25953 -0.25578,0.223 -2.64876,2.11591 -2.67489,2.11591 -0.018,0 -0.0976,-0.0717 -0.17688,-0.15927 z m -54.143904,-1.61296 -1.8108,-0.90718 0.736688,-0.84046 c 0.405179,-0.46225 0.762839,-0.84903 0.794801,-0.85951 0.0731,-0.024 2.217115,3.20535 2.217115,3.33941 0,0.0543 -0.0286,0.11581 -0.0635,0.13679 -0.0349,0.021 -0.87836,-0.3701 -1.874304,-0.86905 z m 13.527404,-0.71524 c -1.32463,-0.47337 -1.72296,-2.01647 -0.78082,-3.02479 l 0.20613,-0.22061 -0.21579,-0.40584 c -0.3334,-0.62704 -0.25343,-1.44178 0.18961,-1.9317 0.42771,-0.47297 1.3818,-0.65564 1.93373,-0.37023 0.88006,0.4551 1.19937,1.59374 0.66696,2.3783 l -0.19674,0.28991 0.21223,0.19805 c 0.55658,0.51939 0.71039,1.43207 0.36247,2.15079 -0.40379,0.83412 -1.47885,1.25736 -2.37778,0.93612 z m 1.29295,-1.20819 c 0.33883,-0.32462 0.33606,-0.79408 -0.007,-1.13685 -0.55041,-0.55041 -1.53409,-0.18245 -1.52782,0.5715 0.003,0.37178 0.1223,0.56142 0.47099,0.74924 0.33081,0.17819 0.76373,0.10334 1.06353,-0.18389 z m -0.32515,-2.5835 c 0.28461,-0.15159 0.39096,-0.33753 0.39391,-0.68871 0.005,-0.6501 -0.73415,-0.9688 -1.2395,-0.53411 -0.18836,0.16202 -0.23563,0.27423 -0.23563,0.55932 0,0.58963 0.56682,0.93747 1.08122,0.6635 z m 35.24502,2.48225 c -0.0382,-0.0617 1.79703,-3.65925 1.94566,-3.81406 0.0176,-0.0183 0.32309,0.22933 0.67889,0.55033 0.3558,0.32101 0.73698,0.65984 0.84707,0.75298 l 0.20016,0.16933 -1.74205,1.18533 c -0.95814,0.65194 -1.77309,1.19687 -1.81102,1.21097 -0.0379,0.0141 -0.0913,-0.0106 -0.11871,-0.0549 z m -44.74461,-3.07574 c -0.96925,-1.29415 -1.01786,-1.37781 -0.88556,-1.524 0.077,-0.0851 0.1675,-0.15469 0.20113,-0.15469 0.0519,0 1.86819,2.37072 2.06231,2.69188 0.0753,0.1245 -0.0843,0.35612 -0.24538,0.35612 -0.0588,0 -0.56845,-0.61619 -1.1325,-1.36931 z m 41.10058,-0.5728 c -0.1297,-0.14332 -0.0821,-0.2389 0.77521,-1.55734 0.50237,-0.77257 0.9515,-1.40492 0.99806,-1.40525 0.0466,-3.3e-4 0.15283,0.0511 0.23614,0.11431 0.14056,0.10662 0.0857,0.21582 -0.762,1.51554 -0.50241,0.77036 -0.95752,1.41973 -1.01135,1.44304 -0.0538,0.0233 -0.16006,-0.0263 -0.23606,-0.1103 z m -35.64265,-2.62753 c -0.73195,-0.83383 -1.33167,-1.54398 -1.33272,-1.57811 -0.003,-0.11031 1.88667,-1.07266 1.95619,-0.99603 0.0723,0.0797 0.85474,3.61982 0.85269,3.85795 -6.8e-4,0.0787 -0.0337,0.16321 -0.0733,0.1877 -0.0396,0.0245 -0.67092,-0.63769 -1.40287,-1.47151 z m 30.22681,-0.15947 c -0.0246,-0.0398 0.25031,-0.79633 0.61097,-1.68108 0.62137,-1.52434 0.66561,-1.60498 0.8441,-1.53895 0.10361,0.0383 0.18838,0.0847 0.18838,0.103 0,0.0889 -1.2129,2.99164 -1.28847,3.08364 -0.1,0.12173 -0.28937,0.13955 -0.35498,0.0334 z m -24.978,-0.71072 c -0.0169,-0.0582 -0.28768,-0.80228 -0.60163,-1.6535 -0.31396,-0.85121 -0.55607,-1.56085 -0.53804,-1.57698 0.018,-0.0161 0.10898,-0.0523 0.20212,-0.0803 0.15245,-0.0459 0.22965,0.11127 0.77454,1.57699 0.60289,1.6217 0.63998,1.83964 0.3131,1.83964 -0.0656,0 -0.13315,-0.0476 -0.15009,-0.10583 z"
       id="path2910"
       inkscape:connector-curvature="0" />
  </g>
</svg>
