<?xml version="1.0" encoding="UTF-8" standalone="no"?>
<!-- Created with Inkscape (http://www.inkscape.org/) -->

<svg
   xmlns:dc="http://purl.org/dc/elements/1.1/"
   xmlns:cc="http://creativecommons.org/ns#"
   xmlns:rdf="http://www.w3.org/1999/02/22-rdf-syntax-ns#"
   xmlns:svg="http://www.w3.org/2000/svg"
   xmlns="http://www.w3.org/2000/svg"
   xmlns:sodipodi="http://sodipodi.sourceforge.net/DTD/sodipodi-0.dtd"
   xmlns:inkscape="http://www.inkscape.org/namespaces/inkscape"
   width="34.745541mm"
   height="16.769831mm"
   viewBox="0 0 34.745541 16.769831"
   version="1.1"
   id="svg8"
   inkscape:version="0.92.3 (2405546, 2018-03-11)"
   sodipodi:docname="label_back.svg">
  <defs
     id="defs2" />
  <sodipodi:namedview
     id="base"
     pagecolor="#ffffff"
     bordercolor="#666666"
     borderopacity="1.0"
     inkscape:pageopacity="0.0"
     inkscape:pageshadow="2"
     inkscape:zoom="1.4"
     inkscape:cx="95.842314"
     inkscape:cy="236.26591"
     inkscape:document-units="mm"
     inkscape:current-layer="text825"
     showgrid="false"
     inkscape:window-width="2560"
     inkscape:window-height="1380"
     inkscape:window-x="3840"
     inkscape:window-y="0"
     inkscape:window-maximized="1" />
  <metadata
     id="metadata5">
    <rdf:RDF>
      <cc:Work
         rdf:about="">
        <dc:format>image/svg+xml</dc:format>
        <dc:type
           rdf:resource="http://purl.org/dc/dcmitype/StillImage" />
        <dc:title></dc:title>
      </cc:Work>
    </rdf:RDF>
  </metadata>
  <g
     inkscape:label="Layer 1"
     inkscape:groupmode="layer"
     id="layer1"
     transform="translate(0.15173246,-280.69131)">
    <flowRoot
       xml:space="preserve"
       id="flowRoot815"
       style="font-style:normal;font-variant:normal;font-weight:normal;font-stretch:normal;font-size:13.33333302px;line-height:1.25;font-family:Dingbats;-inkscape-font-specification:Dingbats;letter-spacing:0px;word-spacing:0px;fill:#000000;fill-opacity:1;stroke:none"
       transform="scale(0.26458333)"><flowRegion
         id="flowRegion817"
         style="font-style:normal;font-variant:normal;font-weight:normal;font-stretch:normal;font-family:Dingbats;-inkscape-font-specification:Dingbats"><rect
           id="rect819"
           width="555.58392"
           height="468.71078"
           x="47.477169"
           y="93.17424"
           style="font-style:normal;font-variant:normal;font-weight:normal;font-stretch:normal;font-family:Dingbats;-inkscape-font-specification:Dingbats" /></flowRegion><flowPara
         id="flowPara821" /></flowRoot>    <g
       aria-label="
 
COMPAS:MAGNETIC
PILOT'S STANDBY
AN 5760-T3
STOCK NO. 6201-8870-1
MPR'S. PART NO. 8870-1
CONTRACT NO. AF 33 (800) 15374
MFR's. SERIAL NO. 4F63
WHITE RODGERSELEC.CO
U.S. PROPERTY
MFC'O UNDER LICENSE FROM KOLLSMAN INST. CORP."
       transform="matrix(1.2493048,0,0,0.80044518,-1.7008929,-15.686012)"
       style="font-style:normal;font-variant:normal;font-weight:normal;font-stretch:normal;font-size:1.73170137px;line-height:1.25;font-family:KacstQurn;-inkscape-font-specification:KacstQurn;letter-spacing:0px;word-spacing:0px;fill:#000000;fill-opacity:1;stroke:none;stroke-width:0.12987761"
       id="text825">
      <g
         id="g1539"
         transform="translate(-3.3280414,317.08731)">
        <path
           id="path1327"
           style="stroke-width:0.12987761"
           d="m 32.201547,73.899225 h 0.178412 v 0.21477 h -0.178412 z m -0.607787,-0.45846 v 0.28462 h 0.128863 q 0.07153,0 0.110599,-0.037 0.03906,-0.037 0.03906,-0.10553 0,-0.068 -0.03906,-0.10502 -0.03907,-0.037 -0.110599,-0.037 z m -0.102482,-0.0842 h 0.231345 q 0.127341,0 0.19228,0.0578 0.06545,0.0573 0.06545,0.16844 0,0.11212 -0.06545,0.16945 -0.06494,0.0573 -0.19228,0.0573 H 31.59376 v 0.3044 h -0.102482 z m -0.363251,0.4023 q 0.03298,0.0112 0.06392,0.0477 0.03145,0.0365 0.06291,0.10045 l 0.104004,0.20699 h -0.110092 l -0.0969,-0.19431 q -0.03754,-0.0761 -0.07306,-0.10095 -0.03501,-0.0249 -0.09589,-0.0249 h -0.111614 v 0.32012 h -0.102481 v -0.75745 h 0.231344 q 0.129878,0 0.193802,0.0543 0.06392,0.0543 0.06392,0.16387 0,0.0715 -0.03348,0.11872 -0.03298,0.0472 -0.09639,0.0654 z m -0.256712,-0.3181 v 0.26889 h 0.128863 q 0.07407,0 0.111614,-0.034 0.03805,-0.0345 0.03805,-0.10096 0,-0.0665 -0.03805,-0.0999 -0.03754,-0.034 -0.111614,-0.034 z m -0.612858,-0.01471 q -0.111614,0 -0.177567,0.0832 -0.06545,0.0832 -0.06545,0.22678 0,0.14307 0.06545,0.22627 0.06595,0.0832 0.177567,0.0832 0.111614,0 0.176552,-0.0832 0.06545,-0.0832 0.06545,-0.22627 0,-0.14358 -0.06545,-0.22678 -0.06494,-0.0832 -0.176552,-0.0832 z m 0,-0.0832 q 0.159303,0 0.254682,0.10705 0.09538,0.10654 0.09538,0.28613 0,0.17909 -0.09538,0.28614 -0.09538,0.10654 -0.254682,0.10654 -0.15981,0 -0.255697,-0.10654 -0.09538,-0.10654 -0.09538,-0.28614 0,-0.17959 0.09538,-0.28613 0.09589,-0.10705 0.255697,-0.10705 z m -0.466748,0.07204 v 0.10806 q -0.05175,-0.0482 -0.110599,-0.072 -0.05834,-0.0238 -0.124297,-0.0238 -0.129878,0 -0.198875,0.0797 -0.069,0.0791 -0.069,0.22931 0,0.14967 0.069,0.22932 0.069,0.0791 0.198875,0.0791 0.06595,0 0.124297,-0.0238 0.05885,-0.0239 0.110599,-0.072 v 0.10705 q -0.05378,0.0365 -0.11415,0.0548 -0.05987,0.0183 -0.126834,0.0183 -0.171986,0 -0.270917,-0.10502 -0.09893,-0.10553 -0.09893,-0.28766 0,-0.18264 0.09893,-0.28766 0.09893,-0.10552 0.270917,-0.10552 0.06798,0 0.127848,0.0183 0.06037,0.0178 0.113136,0.0538 z m -1.219632,0.57024 h 0.107048 v 0.12886 h -0.107048 z m -0.625543,-0.62859 h 0.640764 v 0.0863 H 28.31841 v 0.67121 h -0.102989 v -0.67121 h -0.268887 z m -0.100454,0.02486 v 0.0999 q -0.05834,-0.0279 -0.110091,-0.0416 -0.05175,-0.0137 -0.09995,-0.0137 -0.08371,0 -0.12937,0.0325 -0.04515,0.0325 -0.04515,0.0923 0,0.0502 0.02993,0.0761 0.03044,0.0254 0.114657,0.0411 l 0.06189,0.0127 q 0.114658,0.0218 0.168942,0.0771 0.05479,0.0548 0.05479,0.14713 0,0.11009 -0.07407,0.16691 -0.07356,0.0568 -0.216125,0.0568 -0.05378,0 -0.114657,-0.0122 -0.06037,-0.0122 -0.125312,-0.036 v -0.10552 q 0.0624,0.035 0.122268,0.0528 0.05986,0.0178 0.117701,0.0178 0.08777,0 0.135458,-0.0345 0.04769,-0.0345 0.04769,-0.0984 0,-0.0558 -0.0345,-0.0873 -0.03399,-0.0315 -0.112121,-0.0472 l -0.0624,-0.0122 q -0.114657,-0.0228 -0.165898,-0.0715 -0.05124,-0.0487 -0.05124,-0.13546 0,-0.10045 0.07052,-0.15829 0.07103,-0.0578 0.195323,-0.0578 0.05327,0 0.10857,0.01 0.0553,0.01 0.113135,0.0289 z m -1.231299,-0.02486 h 0.137995 l 0.335855,0.63366 v -0.63366 h 0.09944 v 0.75745 h -0.137995 l -0.335855,-0.63366 v 0.63366 h -0.09944 z m -0.306431,0 h 0.102482 v 0.75745 H 26.30835 Z m -1.108017,0 h 0.137995 l 0.335856,0.63366 v -0.63366 h 0.09944 v 0.75745 h -0.137995 l -0.335855,-0.63366 v 0.63366 h -0.09944 z m -0.457108,0.10096 -0.139009,0.37695 h 0.278526 z m -0.05784,-0.10096 h 0.11618 l 0.288673,0.75745 h -0.10654 l -0.069,-0.19431 h -0.341436 l -0.069,0.19431 h -0.108063 z m -1.092289,0 h 0.152708 l 0.193294,0.51546 0.19431,-0.51546 h 0.152707 v 0.75745 h -0.09994 v -0.66511 l -0.195323,0.51951 h -0.102989 l -0.195324,-0.51951 v 0.66511 h -0.09944 z m -0.20547,0.02486 v 0.0999 q -0.05834,-0.0279 -0.110091,-0.0416 -0.05175,-0.0137 -0.09994,-0.0137 -0.08371,0 -0.12937,0.0325 -0.04515,0.0325 -0.04515,0.0923 0,0.0502 0.02993,0.0761 0.03044,0.0254 0.114657,0.0411 l 0.06189,0.0127 q 0.114657,0.0218 0.168942,0.0771 0.05479,0.0548 0.05479,0.14713 0,0.11009 -0.07407,0.16691 -0.07356,0.0568 -0.216125,0.0568 -0.05378,0 -0.114657,-0.0122 -0.06037,-0.0122 -0.125312,-0.036 v -0.10552 q 0.0624,0.035 0.122268,0.0528 0.05987,0.0178 0.117701,0.0178 0.08777,0 0.135458,-0.0345 0.04769,-0.0345 0.04769,-0.0984 0,-0.0558 -0.0345,-0.0873 -0.03399,-0.0315 -0.112121,-0.0472 l -0.0624,-0.0122 q -0.114658,-0.0228 -0.165898,-0.0715 -0.05124,-0.0487 -0.05124,-0.13546 0,-0.10045 0.07052,-0.15829 0.07103,-0.0578 0.195324,-0.0578 0.05327,0 0.10857,0.01 0.0553,0.01 0.113135,0.0289 z M 22.3552,73.356545 h 0.102482 v 0.67121 h 0.368832 v 0.0863 H 22.3552 Z m -0.578359,0 h 0.102481 v 0.67121 h 0.368832 v 0.0863 h -0.471313 z m -0.510379,0.06951 q -0.111613,0 -0.177567,0.0832 -0.06545,0.0832 -0.06545,0.22678 0,0.14307 0.06545,0.22627 0.06595,0.0832 0.177567,0.0832 0.111614,0 0.176552,-0.0832 0.06545,-0.0832 0.06545,-0.22627 0,-0.14358 -0.06545,-0.22678 -0.06494,-0.0832 -0.176552,-0.0832 z m 0,-0.0832 q 0.159303,0 0.254682,0.10705 0.09538,0.10654 0.09538,0.28613 0,0.17909 -0.09538,0.28614 -0.09538,0.10654 -0.254682,0.10654 -0.15981,0 -0.255696,-0.10654 -0.09538,-0.10654 -0.09538,-0.28614 0,-0.17959 0.09538,-0.28613 0.09589,-0.10705 0.255696,-0.10705 z m -0.932481,0.01369 h 0.102482 v 0.32013 l 0.339914,-0.32013 h 0.131907 l -0.375935,0.35311 0.402823,0.40434 h -0.134951 l -0.363758,-0.36477 v 0.36477 h -0.102482 z m -1.227749,0 h 0.152708 l 0.193294,0.51546 0.194309,-0.51546 h 0.152708 v 0.75745 h -0.09994 v -0.66511 l -0.195324,0.51951 h -0.102988 l -0.195324,-0.51951 v 0.66511 h -0.09944 z m -0.510378,0.06951 q -0.111614,0 -0.177567,0.0832 -0.06545,0.0832 -0.06545,0.22678 0,0.14307 0.06545,0.22627 0.06595,0.0832 0.177567,0.0832 0.111613,0 0.176552,-0.0832 0.06545,-0.0832 0.06545,-0.22627 0,-0.14358 -0.06545,-0.22678 -0.06494,-0.0832 -0.176552,-0.0832 z m 0,-0.0832 q 0.159303,0 0.254681,0.10705 0.09538,0.10654 0.09538,0.28613 0,0.17909 -0.09538,0.28614 -0.09538,0.10654 -0.254681,0.10654 -0.159811,0 -0.255697,-0.10654 -0.09538,-0.10654 -0.09538,-0.28614 0,-0.17959 0.09538,-0.28613 0.09589,-0.10705 0.255697,-0.10705 z m -0.670696,0.41601 q 0.03298,0.0112 0.06392,0.0477 0.03146,0.0365 0.06291,0.10045 l 0.104003,0.20699 H 18.0459 l -0.0969,-0.19431 q -0.03754,-0.0761 -0.07306,-0.10095 -0.03501,-0.0249 -0.09589,-0.0249 h -0.111603 v 0.32012 h -0.102482 v -0.75745 h 0.231345 q 0.129877,0 0.193802,0.0543 0.06392,0.0543 0.06392,0.16387 0,0.0715 -0.03348,0.11872 -0.03298,0.0472 -0.09639,0.0654 z m -0.256711,-0.3181 v 0.26889 h 0.128863 q 0.07407,0 0.111613,-0.034 0.03805,-0.0345 0.03805,-0.10096 0,-0.0665 -0.03805,-0.0999 -0.03754,-0.034 -0.111613,-0.034 z m -0.701136,-0.08422 h 0.435292 v 0.0863 h -0.332811 v 0.22323 h 0.300342 v 0.0862 h -0.300342 v 0.36173 h -0.102481 z m -0.988288,0 h 0.478923 v 0.0863 h -0.376442 v 0.22425 h 0.360715 v 0.0862 h -0.360715 v 0.27446 h 0.385574 v 0.0863 h -0.488055 z m -0.205471,0.02486 v 0.0999 q -0.05834,-0.0279 -0.110091,-0.0416 -0.05175,-0.0137 -0.09995,-0.0137 -0.08371,0 -0.12937,0.0325 -0.04515,0.0325 -0.04515,0.0923 0,0.0502 0.02993,0.0761 0.03044,0.0254 0.114657,0.0411 l 0.06189,0.0127 q 0.114658,0.0218 0.168942,0.0771 0.05479,0.0548 0.05479,0.14713 0,0.11009 -0.07407,0.16691 -0.07356,0.0568 -0.216125,0.0568 -0.05378,0 -0.114657,-0.0122 -0.06037,-0.0122 -0.125312,-0.036 v -0.10552 q 0.0624,0.035 0.122268,0.0528 0.05986,0.0178 0.117701,0.0178 0.08777,0 0.135459,-0.0345 0.04769,-0.0345 0.04769,-0.0984 0,-0.0558 -0.0345,-0.0873 -0.03399,-0.0315 -0.112121,-0.0472 l -0.0624,-0.0122 q -0.114657,-0.0228 -0.165898,-0.0715 -0.05124,-0.0487 -0.05124,-0.13546 0,-0.10045 0.07052,-0.15829 0.07103,-0.0578 0.195323,-0.0578 0.05327,0 0.10857,0.01 0.0553,0.01 0.113135,0.0289 z m -1.2313,-0.02486 h 0.137995 l 0.335856,0.63366 v -0.63366 h 0.09944 v 0.75745 h -0.137995 l -0.335855,-0.63366 v 0.63366 h -0.09944 z m -0.657505,0 h 0.478924 v 0.0863 h -0.376442 v 0.22425 h 0.360714 v 0.0862 h -0.360714 v 0.27446 h 0.385574 v 0.0863 h -0.488056 z m -0.159303,0.05835 v 0.10806 q -0.05175,-0.0482 -0.110599,-0.072 -0.05834,-0.0238 -0.124297,-0.0238 -0.129878,0 -0.198875,0.0797 -0.069,0.0791 -0.069,0.22931 0,0.14967 0.069,0.22932 0.069,0.0791 0.198875,0.0791 0.06595,0 0.124297,-0.0238 0.05885,-0.0239 0.110599,-0.072 v 0.10705 q -0.05378,0.0365 -0.114151,0.0548 -0.05986,0.0183 -0.126833,0.0183 -0.171987,0 -0.270917,-0.10502 -0.09893,-0.10553 -0.09893,-0.28766 0,-0.18264 0.09893,-0.28766 0.09893,-0.10552 0.270917,-0.10552 0.06798,0 0.127848,0.0183 0.06037,0.0178 0.113136,0.0538 z m -0.87363,-0.05835 h 0.102482 v 0.75745 h -0.102482 z m -0.578361,0 h 0.102481 v 0.67121 h 0.368833 v 0.0863 h -0.471314 z m -0.694033,0.40232 q 0.03298,0.0112 0.06392,0.0477 0.03145,0.0365 0.06291,0.10045 l 0.104004,0.20699 h -0.110092 l -0.0969,-0.19431 q -0.03754,-0.0761 -0.07306,-0.10095 -0.03501,-0.0249 -0.09589,-0.0249 h -0.111614 v 0.32012 h -0.102471 v -0.75745 h 0.231344 q 0.129878,0 0.193802,0.0543 0.06392,0.0543 0.06392,0.16387 0,0.0715 -0.03348,0.11872 -0.03298,0.0472 -0.09639,0.0654 z m -0.256712,-0.3181 v 0.26889 h 0.128863 q 0.07407,0 0.111614,-0.034 0.03805,-0.0345 0.03805,-0.10096 0,-0.0665 -0.03805,-0.0999 -0.03754,-0.034 -0.111614,-0.034 z m -0.759987,-0.08422 h 0.478924 v 0.0863 h -0.376442 v 0.22425 h 0.360715 v 0.0862 h -0.360715 v 0.27446 h 0.385574 v 0.0863 h -0.488056 z m -0.6970766,0.08422 v 0.58902 h 0.123789 q 0.1567666,0 0.2293156,-0.071 0.07306,-0.071 0.07306,-0.22425 0,-0.1522 -0.07306,-0.22272 -0.07255,-0.071 -0.2293156,-0.071 z m -0.102482,-0.0842 h 0.210544 q 0.2201826,0 0.3231716,0.0918 0.102989,0.0913 0.102989,0.28614 0,0.19583 -0.103496,0.28766 -0.103496,0.0918 -0.3226646,0.0918 h -0.210544 z m -0.777236,-2e-5 h 0.137995 l 0.335856,0.63366 v -0.63366 h 0.09944 v 0.75745 h -0.137995 l -0.335855,-0.63366 v 0.63366 h -0.09944 z m -0.77267,0 h 0.102989 v 0.46016 q 0,0.12176 0.04414,0.17553 0.04414,0.0533 0.143068,0.0533 0.09842,0 0.142561,-0.0533 0.04414,-0.0538 0.04414,-0.17553 v -0.46016 h 0.102989 v 0.47284 q 0,0.14814 -0.07356,0.22373 -0.07306,0.0756 -0.216125,0.0756 -0.143575,0 -0.217139,-0.0756 -0.07306,-0.0756 -0.07306,-0.22373 z m -0.829491,0.06951 q -0.111614,0 -0.177568,0.0832 -0.06545,0.0832 -0.06545,0.22678 0,0.14307 0.06545,0.22627 0.06595,0.0832 0.177568,0.0832 0.111613,0 0.176552,-0.0832 0.06545,-0.0832 0.06545,-0.22627 0,-0.14358 -0.06545,-0.22678 -0.06494,-0.0832 -0.176552,-0.0832 z m 0,-0.0832 q 0.159302,0 0.254681,0.10705 0.09538,0.10654 0.09538,0.28613 0,0.17909 -0.09538,0.28614 -0.09538,0.10654 -0.254681,0.10654 -0.159811,0 -0.255697,-0.10654 -0.09538,-0.10654 -0.09538,-0.28614 0,-0.17959 0.09538,-0.28613 0.09589,-0.10705 0.255697,-0.10705 z m -0.509364,0.01369 v 0.28157 h -0.08625 v -0.28157 z m -0.243521,0.05835 v 0.10806 q -0.05175,-0.0482 -0.110599,-0.072 -0.05834,-0.0238 -0.124297,-0.0238 -0.129877,0 -0.198875,0.0797 -0.069,0.0791 -0.069,0.22931 0,0.14967 0.069,0.22932 0.069,0.0791 0.198875,0.0791 0.06595,0 0.124297,-0.0238 0.05885,-0.0239 0.110599,-0.072 v 0.10705 q -0.05378,0.0365 -0.11415,0.0548 -0.05987,0.0183 -0.126834,0.0183 -0.171986,0 -0.270916,-0.10502 -0.09893,-0.10553 -0.09893,-0.28766 0,-0.18264 0.09893,-0.28766 0.09893,-0.10552 0.270916,-0.10552 0.06798,0 0.127849,0.0183 0.06037,0.0178 0.113135,0.0538 z m -1.165854,-0.05835 h 0.435293 v 0.0863 h -0.332812 v 0.22323 h 0.300342 v 0.0862 h -0.300342 v 0.36173 h -0.102481 z m -0.896967,0 h 0.152707 l 0.193295,0.51546 0.194309,-0.51546 h 0.152707 v 0.75745 h -0.09994 v -0.66511 l -0.195324,0.51951 h -0.102989 l -0.195324,-0.51951 v 0.66511 h -0.09944 z M 21.91491,71.102137 h 0.114964 l 0.21933,0.325287 0.217741,-0.325287 h 0.114963 l -0.279726,0.414291 v 0.376676 h -0.107546 v -0.376676 z m -0.664348,0 h 0.669116 v 0.09006 h -0.280785 v 0.700904 h -0.107546 v -0.700904 h -0.280785 z m -0.191252,0.420118 q 0.03444,0.01166 0.06675,0.0498 0.03285,0.03814 0.06569,0.104897 l 0.108605,0.216152 H 21.185398 L 21.08421,71.690197 q -0.0392,-0.07947 -0.07629,-0.105427 -0.03655,-0.02596 -0.100129,-0.02596 h -0.116553 v 0.334294 h -0.107015 v -0.790967 h 0.241581 q 0.135625,0 0.202378,0.05669 0.06675,0.05669 0.06675,0.17112 0,0.0747 -0.03496,0.123969 -0.03444,0.04927 -0.100659,0.06834 z m -0.268071,-0.332174 v 0.280785 h 0.134565 q 0.07735,0 0.116553,-0.03549 0.03973,-0.03603 0.03973,-0.105427 0,-0.0694 -0.03973,-0.104368 -0.0392,-0.03549 -0.116553,-0.03549 z m -0.793615,-0.08794 h 0.500116 v 0.09006 h -0.3931 v 0.234164 h 0.376676 v 0.09006 H 20.10464 v 0.286612 h 0.402636 v 0.09006 h -0.509652 z m -0.547797,0.08794 v 0.297208 h 0.134565 q 0.0747,0 0.115493,-0.03867 0.04079,-0.03867 0.04079,-0.110195 0,-0.07099 -0.04079,-0.109665 -0.04079,-0.03867 -0.115493,-0.03867 z m -0.107016,-0.08794 h 0.241581 q 0.132976,0 0.200788,0.06039 0.06834,0.05987 0.06834,0.175888 0,0.117082 -0.06834,0.176948 -0.06781,0.05987 -0.200788,0.05987 h -0.134565 v 0.317871 h -0.107016 z m -0.532962,0.07258 q -0.116552,0 -0.185424,0.08688 -0.06834,0.08688 -0.06834,0.236813 0,0.149399 0.06834,0.236283 0.06887,0.08689 0.185424,0.08689 0.116552,0 0.184365,-0.08689 0.06834,-0.08688 0.06834,-0.236283 0,-0.149929 -0.06834,-0.236813 -0.06781,-0.08688 -0.184365,-0.08688 z m 0,-0.08688 q 0.166352,0 0.265951,0.111784 0.0996,0.111254 0.0996,0.298798 0,0.187013 -0.0996,0.298798 -0.0996,0.111254 -0.265951,0.111254 -0.166882,0 -0.267011,-0.111254 -0.0996,-0.111255 -0.0996,-0.298798 0,-0.187544 0.0996,-0.298798 0.100129,-0.111784 0.267011,-0.111784 z m -0.700374,0.434418 q 0.03444,0.01166 0.06675,0.0498 0.03285,0.03814 0.06569,0.104897 l 0.108606,0.216152 h -0.114957 l -0.101189,-0.202907 q -0.0392,-0.07947 -0.07629,-0.105427 -0.03655,-0.02596 -0.100129,-0.02596 h -0.116552 v 0.334294 h -0.107015 v -0.790967 h 0.241581 q 0.135624,0 0.202377,0.05669 0.06675,0.05669 0.06675,0.17112 0,0.0747 -0.03497,0.123969 -0.03444,0.04927 -0.100659,0.06834 z m -0.26807,-0.332174 v 0.280785 h 0.134565 q 0.07735,0 0.116552,-0.03549 0.03973,-0.03603 0.03973,-0.105427 0,-0.0694 -0.03973,-0.104368 -0.0392,-0.03549 -0.116552,-0.03549 z m -0.654813,0 v 0.297208 h 0.134565 q 0.0747,0 0.115493,-0.03867 0.04079,-0.03867 0.04079,-0.110195 0,-0.07099 -0.04079,-0.109665 -0.04079,-0.03867 -0.115493,-0.03867 z m -0.107016,-0.08794 h 0.241581 q 0.132976,0 0.200788,0.06039 0.06834,0.05987 0.06834,0.175888 0,0.117082 -0.06834,0.176948 -0.06781,0.05987 -0.200788,0.05987 h -0.134565 v 0.317871 h -0.107016 z m -0.681302,0.656398 h 0.111785 v 0.134565 h -0.111785 z m -0.224098,-0.630443 v 0.104368 q -0.06093,-0.02914 -0.114963,-0.04344 -0.05404,-0.0143 -0.104367,-0.0143 -0.08742,0 -0.135095,0.03391 -0.04715,0.03391 -0.04715,0.09642 0,0.05245 0.03126,0.07947 0.03179,0.02649 0.119731,0.04291 l 0.06463,0.01324 q 0.119731,0.02278 0.176418,0.08053 0.05722,0.05722 0.05722,0.153637 0,0.114963 -0.07735,0.174299 -0.07682,0.05934 -0.225688,0.05934 -0.05616,0 -0.119731,-0.01271 -0.06304,-0.01272 -0.130856,-0.03762 v -0.110195 q 0.06516,0.03655 0.127677,0.0551 0.06251,0.01854 0.12291,0.01854 0.09165,0 0.141452,-0.03603 0.0498,-0.03603 0.0498,-0.102778 0,-0.05828 -0.03603,-0.09112 -0.0355,-0.03285 -0.117082,-0.04927 l -0.06516,-0.01272 q -0.119731,-0.02384 -0.173239,-0.0747 -0.05351,-0.05086 -0.05351,-0.141453 0,-0.104897 0.07364,-0.165292 0.07417,-0.06039 0.203967,-0.06039 0.05563,0 0.113373,0.01007 0.05775,0.01006 0.118142,0.0302 z m -0.810039,0.630443 h 0.111784 v 0.134565 H 15.364137 Z M 14.54774,71.102137 h 0.107547 v 0.480513 q 0,0.127149 0.04609,0.183306 0.04609,0.05563 0.149399,0.05563 0.102778,0 0.148869,-0.05563 0.04609,-0.05616 0.04609,-0.183306 v -0.480513 h 0.107546 v 0.493758 q 0,0.154697 -0.07682,0.233635 -0.07629,0.07894 -0.225687,0.07894 -0.149929,0 -0.226748,-0.07894 -0.07629,-0.07894 -0.07629,-0.233635 z m 14.470115,-2.520236 q -0.186023,0 -0.295945,0.138672 -0.109077,0.138671 -0.109077,0.377964 0,0.238447 0.109077,0.377118 0.109922,0.138672 0.295945,0.138672 0.186023,0 0.294254,-0.138672 0.109077,-0.138671 0.109077,-0.377118 0,-0.239293 -0.109077,-0.377964 -0.108231,-0.138672 -0.294254,-0.138672 z m 0,-0.138671 q 0.265505,0 0.42447,0.178412 0.158965,0.177567 0.158965,0.476895 0,0.298481 -0.158965,0.476894 -0.158965,0.177567 -0.42447,0.177567 -0.266351,0 -0.426161,-0.177567 -0.158965,-0.177567 -0.158965,-0.476894 0,-0.299328 0.158965,-0.476895 0.15981,-0.178412 0.426161,-0.178412 z m -0.777913,0.120069 v 0.180104 q -0.08625,-0.08033 -0.184332,-0.12007 -0.09724,-0.03974 -0.207161,-0.03974 -0.216463,0 -0.331459,0.132753 -0.114995,0.131907 -0.114995,0.382192 0,0.249439 0.114995,0.382192 0.114996,0.131907 0.331459,0.131907 0.109922,0 0.207161,-0.03974 0.09808,-0.03974 0.184332,-0.120069 v 0.178413 q -0.08963,0.06088 -0.19025,0.09132 -0.09978,0.03044 -0.21139,0.03044 -0.286644,0 -0.451527,-0.17503 -0.164884,-0.175876 -0.164884,-0.479431 0,-0.304401 0.164884,-0.479431 0.164883,-0.175876 0.451527,-0.175876 0.113305,0 0.213081,0.03044 0.100621,0.02959 0.188559,0.08963 z m -1.481417,0.950406 h 0.178413 v 0.214772 h -0.178413 z m -0.280723,-0.950406 v 0.180104 q -0.08625,-0.08033 -0.184332,-0.12007 -0.09724,-0.03974 -0.207161,-0.03974 -0.216463,0 -0.331459,0.132753 -0.114996,0.131907 -0.114996,0.382192 0,0.249439 0.114996,0.382192 0.114996,0.131907 0.331459,0.131907 0.109922,0 0.207161,-0.03974 0.09809,-0.03974 0.184332,-0.120069 v 0.178413 q -0.08963,0.06088 -0.190251,0.09132 -0.09978,0.03044 -0.211389,0.03044 -0.286644,0 -0.451528,-0.17503 -0.164883,-0.175876 -0.164883,-0.479431 0,-0.304401 0.164883,-0.479431 0.164884,-0.175876 0.451528,-0.175876 0.113305,0 0.21308,0.03044 0.100622,0.02959 0.18856,0.08963 z m -2.041176,-0.09724 h 0.798206 v 0.143745 h -0.627403 v 0.373736 h 0.601191 v 0.143745 h -0.601191 v 0.457446 h 0.642623 v 0.143745 h -0.813426 z m -0.963936,0 h 0.170803 v 1.118672 h 0.61472 v 0.143745 H 23.47269 Z m -1.095842,0 h 0.798206 v 0.143745 h -0.627403 v 0.373736 h 0.601191 v 0.143745 h -0.601191 v 0.457446 h 0.642623 v 0.143745 h -0.813426 z m -0.34245,0.04143 v 0.166575 q -0.09724,-0.04651 -0.183486,-0.06934 -0.08625,-0.02283 -0.166575,-0.02283 -0.139517,0 -0.215617,0.05412 -0.07526,0.05412 -0.07526,0.153891 0,0.08371 0.04989,0.126834 0.05073,0.04228 0.191096,0.06849 l 0.103158,0.02114 q 0.191096,0.03636 0.281571,0.128525 0.09132,0.09132 0.09132,0.245211 0,0.183486 -0.123451,0.278189 -0.122606,0.0947 -0.360208,0.0947 -0.08963,0 -0.191096,-0.02029 -0.100621,-0.02029 -0.208852,-0.06003 v -0.175876 q 0.104003,0.05834 0.203779,0.08794 0.09978,0.0296 0.196169,0.0296 0.146282,0 0.225764,-0.0575 0.07948,-0.0575 0.07948,-0.164038 0,-0.09301 -0.0575,-0.145436 -0.05665,-0.05242 -0.186868,-0.07864 l -0.104003,-0.02029 q -0.191096,-0.03805 -0.276498,-0.119224 -0.0854,-0.08117 -0.0854,-0.225764 0,-0.16742 0.117533,-0.263814 0.118378,-0.09639 0.325539,-0.09639 0.08878,0 0.180949,0.01606 0.09217,0.01607 0.18856,0.0482 z m -1.362193,0.629095 q 0.05496,0.0186 0.10654,0.07948 0.05242,0.06088 0.104849,0.167421 l 0.173339,0.344987 h -0.183486 l -0.161501,-0.323849 q -0.06257,-0.126833 -0.12176,-0.168265 -0.05834,-0.04143 -0.159811,-0.04143 h -0.186022 v 0.533547 H 20.07355 v -1.262417 h 0.385574 q 0.216463,0 0.323003,0.09047 0.10654,0.09047 0.10654,0.273115 0,0.119224 -0.05581,0.197861 -0.05496,0.07864 -0.160656,0.109077 z m -0.427852,-0.530165 v 0.448146 h 0.214771 q 0.123452,0 0.186023,-0.05665 0.06342,-0.0575 0.06342,-0.168266 0,-0.110768 -0.06342,-0.166574 -0.06257,-0.05665 -0.186023,-0.05665 z M 18.977708,68.46606 h 0.798206 v 0.143745 H 19.14851 v 0.373736 h 0.601192 v 0.143745 H 19.14851 v 0.457446 h 0.642624 v 0.143745 h -0.813426 z m -0.481968,1.082313 v -0.339068 h -0.279034 v -0.140363 h 0.448146 v 0.542002 q -0.09893,0.07018 -0.218154,0.106541 -0.119224,0.03551 -0.254513,0.03551 -0.295945,0 -0.463365,-0.172494 -0.166575,-0.173339 -0.166575,-0.481967 0,-0.309474 0.166575,-0.481968 0.16742,-0.173339 0.463365,-0.173339 0.123452,0 0.23422,0.03044 0.111613,0.03044 0.20547,0.08963 v 0.181795 q -0.0947,-0.08033 -0.201243,-0.120915 -0.10654,-0.04059 -0.224072,-0.04059 -0.231683,0 -0.34837,0.129371 -0.115841,0.12937 -0.115841,0.385574 0,0.255358 0.115841,0.384728 0.116687,0.129371 0.34837,0.129371 0.09047,0 0.161501,-0.01522 0.07103,-0.01607 0.127679,-0.04904 z m -2.022573,-0.941951 v 0.981692 h 0.206316 q 0.261277,0 0.382192,-0.118378 0.12176,-0.118378 0.12176,-0.373736 0,-0.253667 -0.12176,-0.3712 -0.120915,-0.118378 -0.382192,-0.118378 z M 16.302364,68.46606 h 0.350906 q 0.366972,0 0.53862,0.153046 0.171649,0.1522 0.171649,0.476894 0,0.326385 -0.172494,0.479431 -0.172494,0.153046 -0.537775,0.153046 h -0.350906 z m -0.850631,0.115841 q -0.186022,0 -0.295945,0.138672 -0.109077,0.138671 -0.109077,0.377964 0,0.238447 0.109077,0.377118 0.109923,0.138672 0.295945,0.138672 0.186023,0 0.294254,-0.138672 0.109077,-0.138671 0.109077,-0.377118 0,-0.239293 -0.109077,-0.377964 -0.108231,-0.138672 -0.294254,-0.138672 z m 0,-0.138671 q 0.265505,0 0.42447,0.178412 0.158965,0.177567 0.158965,0.476895 0,0.298481 -0.158965,0.476894 -0.158965,0.177567 -0.42447,0.177567 -0.26635,0 -0.426161,-0.177567 -0.158964,-0.177567 -0.158964,-0.476894 0,-0.299328 0.158964,-0.476895 0.159811,-0.178412 0.426161,-0.178412 z m -1.117826,0.693357 q 0.05496,0.0186 0.10654,0.07948 0.05242,0.06088 0.104849,0.167421 l 0.173339,0.344987 h -0.183486 l -0.161501,-0.323849 q -0.06257,-0.126833 -0.12176,-0.168265 -0.05834,-0.04143 -0.159811,-0.04143 h -0.186022 v 0.533547 h -0.170803 v -1.262417 h 0.385574 q 0.216463,0 0.323003,0.09047 0.10654,0.09047 0.10654,0.273115 0,0.119224 -0.05581,0.197861 -0.05496,0.07864 -0.160656,0.109077 z m -0.427852,-0.530165 v 0.448146 h 0.214771 q 0.123452,0 0.186023,-0.05665 0.06342,-0.0575 0.06342,-0.168266 0,-0.110768 -0.06342,-0.166574 -0.06257,-0.05665 -0.186023,-0.05665 z M 12.088106,68.46606 h 0.798207 v 0.143745 h -0.627404 v 0.373736 H 12.8601 v 0.143745 h -0.601191 v 0.457446 h 0.642624 v 0.143745 h -0.813427 z m -1.233668,0 h 1.067939 v 0.143745 h -0.448145 v 1.118672 h -0.171648 v -1.118672 h -0.448146 z m -0.335686,0 h 0.170803 v 1.262417 h -0.170803 z m -1.3021576,0 h 0.170803 v 0.517481 H 10.008036 V 68.46606 h 0.170802 v 1.262417 H 10.008036 V 69.127286 H 9.3873974 v 0.601191 h -0.170803 z m -1.823867,0 h 0.172493 l 0.265505,1.067093 0.26466,-1.067093 h 0.191941 l 0.265505,1.067093 0.26466,-1.067093 h 0.173339 l -0.317084,1.262417 h -0.214771 l -0.266351,-1.095842 -0.268887,1.095842 H 7.7089654 Z M 24.777332,67.081106 q 0.07682,0.01642 0.119731,0.06834 0.04344,0.05192 0.04344,0.128208 0,0.117082 -0.08053,0.181186 -0.08053,0.0641 -0.228866,0.0641 -0.0498,0 -0.102778,-0.01007 -0.05245,-0.0095 -0.108606,-0.02914 v -0.103308 q 0.0445,0.02596 0.09748,0.0392 0.05298,0.01324 0.110725,0.01324 0.100659,0 0.153107,-0.03973 0.05298,-0.03973 0.05298,-0.115493 0,-0.06993 -0.04927,-0.109135 -0.04874,-0.03973 -0.136154,-0.03973 h -0.09218 v -0.08794 h 0.09642 q 0.07894,0 0.120791,-0.03126 0.04185,-0.03179 0.04185,-0.09112 0,-0.06092 -0.04344,-0.09324 -0.04291,-0.03285 -0.123439,-0.03285 -0.04397,0 -0.0943,0.0095 -0.05033,0.0095 -0.110725,0.02967 v -0.09536 q 0.06093,-0.01695 0.113904,-0.02543 0.05351,-0.0085 0.100659,-0.0085 0.12185,0 0.192841,0.05563 0.07099,0.0551 0.07099,0.149399 0,0.06569 -0.03761,0.111255 -0.03761,0.04503 -0.107016,0.06251 z m -0.772954,-0.01166 q -0.07205,0 -0.114434,0.04927 -0.04185,0.04927 -0.04185,0.135095 0,0.0853 0.04185,0.135095 0.04238,0.04927 0.114434,0.04927 0.07205,0 0.113903,-0.04927 0.04238,-0.0498 0.04238,-0.135095 0,-0.08582 -0.04238,-0.135095 -0.04185,-0.04927 -0.113903,-0.04927 z m 0.212443,-0.335353 v 0.09748 q -0.04026,-0.01907 -0.08159,-0.02914 -0.04079,-0.01007 -0.08106,-0.01007 -0.105956,0 -0.162113,0.07152 -0.05563,0.07152 -0.06357,0.216152 0.03126,-0.04609 0.07841,-0.07046 0.04715,-0.0249 0.103838,-0.0249 0.119201,0 0.188073,0.07258 0.0694,0.07205 0.0694,0.19655 0,0.12185 -0.07205,0.19549 -0.07205,0.07364 -0.191781,0.07364 -0.137214,0 -0.209795,-0.104897 -0.07258,-0.105427 -0.07258,-0.305156 0,-0.187543 0.089,-0.298798 0.089,-0.111784 0.238932,-0.111784 0.04026,0 0.08106,0.0079 0.04132,0.0079 0.08582,0.02384 z m -1.089235,-0.01748 h 0.454554 v 0.09006 h -0.347538 v 0.233105 h 0.313632 v 0.09006 h -0.313632 v 0.377736 h -0.107016 z m -0.387272,0.09324 -0.27019,0.422238 h 0.27019 z m -0.02808,-0.09324 h 0.134565 v 0.51548 h 0.112844 v 0.089 h -0.112844 v 0.186484 H 22.740313 V 67.321097 H 22.383239 V 67.21779 Z m -0.956788,0.6564 h 0.111784 v 0.134565 h -0.111784 z m -0.497997,-0.583821 q -0.116552,0 -0.185424,0.08688 -0.06834,0.08688 -0.06834,0.236813 0,0.149399 0.06834,0.236284 0.06887,0.08688 0.185424,0.08688 0.116553,0 0.184365,-0.08688 0.06834,-0.08688 0.06834,-0.236284 0,-0.149928 -0.06834,-0.236813 -0.06781,-0.08688 -0.184365,-0.08688 z m 0,-0.08689 q 0.166352,0 0.265952,0.111784 0.0996,0.111255 0.0996,0.298798 0,0.187014 -0.0996,0.298798 -0.0996,0.111255 -0.265952,0.111255 -0.166881,0 -0.267011,-0.111255 -0.0996,-0.111254 -0.0996,-0.298798 0,-0.187543 0.0996,-0.298798 0.10013,-0.111784 0.267011,-0.111784 z m -1.132677,0.01431 h 0.144101 l 0.350717,0.6617 v -0.6617 h 0.103838 v 0.790967 h -0.144102 l -0.350716,-0.6617 v 0.6617 h -0.103838 z m -0.949372,0 h 0.107016 v 0.700904 h 0.385153 v 0.09006 H 19.1754 Z m -0.477335,0.105427 -0.145161,0.393629 h 0.290852 z m -0.06039,-0.105427 h 0.12132 l 0.301447,0.790967 h -0.111255 l -0.07205,-0.202907 h -0.356544 l -0.07205,0.202907 h -0.112844 z m -0.523962,0 h 0.107017 v 0.790967 h -0.107017 z m -0.379325,0.420119 q 0.03444,0.01165 0.06675,0.0498 0.03285,0.03815 0.06569,0.104897 l 0.108606,0.216152 h -0.114957 l -0.101189,-0.202907 q -0.0392,-0.07947 -0.07629,-0.105427 -0.03655,-0.02596 -0.100129,-0.02596 h -0.116552 v 0.334293 h -0.107016 v -0.790967 h 0.241581 q 0.135625,0 0.202377,0.05669 0.06675,0.05669 0.06675,0.17112 0,0.0747 -0.03497,0.12397 -0.03444,0.04927 -0.100659,0.06834 z m -0.26807,-0.332175 v 0.280786 h 0.134565 q 0.07735,0 0.116552,-0.0355 0.03973,-0.03602 0.03973,-0.105427 0,-0.0694 -0.03973,-0.104367 -0.0392,-0.0355 -0.116552,-0.0355 z m -0.793616,-0.08794 h 0.500116 v 0.09006 h -0.3931 v 0.234165 h 0.376676 v 0.09006 h -0.376676 v 0.286613 h 0.402636 v 0.09006 h -0.509652 z m -0.214562,0.02596 v 0.104367 q -0.06092,-0.02914 -0.114963,-0.04344 -0.05404,-0.0143 -0.104368,-0.0143 -0.08741,0 -0.135095,0.03391 -0.04715,0.03391 -0.04715,0.09642 0,0.05245 0.03126,0.07947 0.03179,0.02649 0.119731,0.04291 l 0.06463,0.01324 q 0.119731,0.02278 0.176418,0.08053 0.05722,0.05722 0.05722,0.153637 0,0.114963 -0.07735,0.174299 -0.07682,0.05934 -0.225688,0.05934 -0.05616,0 -0.119731,-0.01272 -0.06304,-0.01272 -0.130857,-0.03762 v -0.110195 q 0.06516,0.03656 0.127678,0.0551 0.06252,0.01854 0.12291,0.01854 0.09165,0 0.141452,-0.03602 0.0498,-0.03602 0.0498,-0.102778 0,-0.05828 -0.03602,-0.09112 -0.0355,-0.03285 -0.117083,-0.04927 l -0.06516,-0.01271 q -0.119731,-0.02384 -0.173239,-0.0747 -0.05351,-0.05086 -0.05351,-0.141452 0,-0.104897 0.07364,-0.165293 0.07417,-0.06039 0.203966,-0.06039 0.05563,0 0.113374,0.01007 0.05775,0.01007 0.118142,0.0302 z m -1.155458,0.630442 h 0.111784 v 0.134565 h -0.111784 z m -0.201318,-0.44131 v 0.09218 q -0.04132,-0.02119 -0.08582,-0.03179 -0.0445,-0.0106 -0.09218,-0.0106 -0.07258,0 -0.109136,0.02225 -0.03602,0.02225 -0.03602,0.06675 0,0.03391 0.02596,0.05351 0.02596,0.01907 0.104368,0.03655 l 0.03338,0.0074 q 0.103838,0.02225 0.14728,0.06304 0.04397,0.04026 0.04397,0.112844 0,0.08265 -0.06569,0.130857 -0.06516,0.04821 -0.179597,0.04821 -0.04768,0 -0.0996,-0.0095 -0.05139,-0.009 -0.108606,-0.02755 v -0.100659 q 0.05404,0.02808 0.106487,0.04238 0.05245,0.01377 0.103837,0.01377 0.06887,0 0.105957,-0.02331 0.03709,-0.02384 0.03709,-0.06675 0,-0.03973 -0.02702,-0.06092 -0.02649,-0.02119 -0.117082,-0.04079 l -0.03391,-0.0079 q -0.09059,-0.01907 -0.130857,-0.05828 -0.04026,-0.03973 -0.04026,-0.108606 0,-0.08371 0.05934,-0.129267 0.05934,-0.04556 0.168471,-0.04556 0.05404,0 0.101719,0.0079 0.04768,0.0079 0.08794,0.02384 z m -0.584881,-0.215092 v 0.29403 h -0.09006 v -0.29403 z m -0.467269,0.420119 q 0.03444,0.01165 0.06675,0.0498 0.03285,0.03815 0.06569,0.104897 l 0.108605,0.216152 h -0.114963 l -0.101188,-0.202907 q -0.0392,-0.07947 -0.07629,-0.105427 -0.03655,-0.02596 -0.100129,-0.02596 h -0.116553 v 0.334293 h -0.107009 v -0.790967 h 0.241581 q 0.135625,0 0.202378,0.05669 0.06675,0.05669 0.06675,0.17112 0,0.0747 -0.03496,0.12397 -0.03444,0.04927 -0.100659,0.06834 z m -0.268071,-0.332175 v 0.280786 h 0.134565 q 0.07735,0 0.116553,-0.0355 0.03973,-0.03602 0.03973,-0.105427 0,-0.0694 -0.03973,-0.104367 -0.0392,-0.0355 -0.116553,-0.0355 z m -0.732161,-0.08794 h 0.454555 v 0.09006 h -0.347538 v 0.233105 h 0.313631 v 0.09006 h -0.313631 v 0.377736 h -0.107017 z m -0.936657,0 h 0.159465 l 0.201847,0.53826 0.202907,-0.53826 h 0.159465 v 0.790967 h -0.104367 v -0.694546 l -0.203967,0.542498 h -0.107546 l -0.203967,-0.542498 v 0.694546 h -0.103837 z m 15.503056,-2.071384 -0.27019,0.422237 h 0.27019 z m -0.02808,-0.09324 h 0.134565 v 0.515479 h 0.112844 v 0.089 h -0.112843 v 0.186483 h -0.106486 v -0.186481 h -0.357074 v -0.103308 z m -0.983807,-2e-6 h 0.508592 v 0.04556 l -0.287142,0.745405 h -0.111785 l 0.27019,-0.700903 h -0.379855 z m -0.339591,0.364491 q 0.07682,0.01642 0.119731,0.06834 0.04344,0.05192 0.04344,0.128207 0,0.117083 -0.08053,0.181186 -0.08053,0.0641 -0.228866,0.0641 -0.0498,0 -0.102778,-0.01007 -0.05245,-0.0095 -0.108606,-0.02914 v -0.103296 q 0.0445,0.02596 0.09748,0.0392 0.05298,0.01325 0.110725,0.01325 0.100659,0 0.153107,-0.03973 0.05298,-0.03973 0.05298,-0.115493 0,-0.06993 -0.04927,-0.109135 -0.04874,-0.03973 -0.136155,-0.03973 h -0.09218 v -0.08794 h 0.09642 q 0.07894,0 0.12079,-0.03126 0.04185,-0.03179 0.04185,-0.09112 0,-0.06093 -0.04344,-0.09324 -0.04291,-0.03285 -0.12344,-0.03285 -0.04397,0 -0.0943,0.0095 -0.05033,0.0095 -0.110725,0.02967 v -0.09536 q 0.06092,-0.01695 0.113904,-0.02543 0.05351,-0.0085 0.100659,-0.0085 0.12185,0 0.192841,0.05563 0.07099,0.0551 0.07099,0.149399 0,0.06569 -0.03762,0.111254 -0.03761,0.04503 -0.107016,0.06252 z m -1.014005,-0.364491 h 0.420118 v 0.09006 h -0.322108 v 0.193901 q 0.02331,-0.0079 0.04662,-0.01166 0.02331,-0.0042 0.04662,-0.0042 0.132446,0 0.209794,0.07258 0.07735,0.07258 0.07735,0.19655 0,0.127678 -0.07947,0.198669 -0.07947,0.07046 -0.224098,0.07046 -0.0498,0 -0.101719,-0.0085 -0.05139,-0.0085 -0.106486,-0.02543 v -0.107552 q 0.04768,0.02596 0.09854,0.03867 0.05086,0.01272 0.107546,0.01272 0.09165,0 0.145161,-0.04821 0.05351,-0.04821 0.05351,-0.130857 0,-0.08265 -0.05351,-0.130856 -0.05351,-0.04821 -0.145161,-0.04821 -0.04291,0 -0.08582,0.0095 -0.04238,0.0095 -0.08689,0.02967 z m -0.673355,0.700903 h 0.174829 v -0.603423 l -0.190193,0.03814 v -0.09748 l 0.189133,-0.03814 h 0.107016 v 0.700903 h 0.174829 v 0.09006 h -0.455614 z m -0.816926,-0.73322 h 0.08477 q 0.07947,0.125029 0.118671,0.24476 0.03973,0.119731 0.03973,0.237873 0,0.118671 -0.03973,0.238932 -0.0392,0.120261 -0.118671,0.24476 h -0.08477 q 0.07046,-0.12132 0.104897,-0.241051 0.03497,-0.120261 0.03497,-0.242641 0,-0.12238 -0.03497,-0.241582 -0.03443,-0.119201 -0.104897,-0.241051 z m -0.432833,0.102778 q -0.08265,0 -0.124499,0.08159 -0.04132,0.08106 -0.04132,0.24423 0,0.162643 0.04132,0.24423 0.04185,0.08106 0.124499,0.08106 0.08318,0 0.124499,-0.08106 0.04185,-0.08159 0.04185,-0.24423 0,-0.163174 -0.04185,-0.24423 -0.04132,-0.08159 -0.124499,-0.08159 z m 0,-0.08477 q 0.132976,0 0.202907,0.105427 0.07046,0.104898 0.07046,0.305156 0,0.199728 -0.07046,0.305155 -0.06993,0.104897 -0.202907,0.104897 -0.132976,0 -0.203437,-0.104897 -0.06993,-0.105427 -0.06993,-0.305155 0,-0.200258 0.06993,-0.305156 0.07046,-0.105427 0.203437,-0.105427 z m -0.690838,0.08477 q -0.08265,0 -0.124499,0.08159 -0.04132,0.08106 -0.04132,0.24423 0,0.162643 0.04132,0.24423 0.04185,0.08106 0.124499,0.08106 0.08318,0 0.124499,-0.08106 0.04185,-0.08159 0.04185,-0.24423 0,-0.163174 -0.04185,-0.24423 -0.04132,-0.08159 -0.124499,-0.08159 z m 0,-0.08477 q 0.132976,0 0.202907,0.105427 0.07046,0.104898 0.07046,0.305156 0,0.199728 -0.07046,0.305155 -0.06993,0.104897 -0.202907,0.104897 -0.132975,0 -0.203437,-0.104897 -0.06993,-0.105427 -0.06993,-0.305155 0,-0.200258 0.06993,-0.305156 0.07046,-0.105427 0.203437,-0.105427 z m -0.690838,0.429659 q -0.07629,0 -0.120261,0.04079 -0.04344,0.04079 -0.04344,0.112314 0,0.07152 0.04344,0.112314 0.04397,0.04079 0.120261,0.04079 0.07629,0 0.120261,-0.04079 0.04397,-0.04132 0.04397,-0.112314 0,-0.07152 -0.04397,-0.112314 -0.04344,-0.04079 -0.120261,-0.04079 z m -0.107016,-0.04556 q -0.06887,-0.01695 -0.107546,-0.0641 -0.03814,-0.04715 -0.03814,-0.114963 0,-0.09483 0.06728,-0.149929 0.06781,-0.0551 0.185424,-0.0551 0.118142,0 0.185425,0.0551 0.06728,0.0551 0.06728,0.149929 0,0.06781 -0.03867,0.114963 -0.03815,0.04715 -0.106487,0.0641 0.07735,0.01801 0.120261,0.07046 0.04344,0.05245 0.04344,0.128207 0,0.114963 -0.07046,0.176418 -0.06993,0.06145 -0.200788,0.06145 -0.130856,0 -0.201317,-0.06145 -0.06993,-0.06145 -0.06993,-0.176418 0,-0.07576 0.04344,-0.128207 0.04344,-0.05245 0.120791,-0.07046 z m -0.0392,-0.169001 q 0,0.06145 0.03815,0.09589 0.03867,0.03444 0.108075,0.03444 0.06887,0 0.107546,-0.03444 0.0392,-0.03444 0.0392,-0.09589 0,-0.06145 -0.0392,-0.09589 -0.03867,-0.03444 -0.107546,-0.03444 -0.0694,0 -0.108075,0.03444 -0.03815,0.03444 -0.03815,0.09589 z m -0.286087,-0.233106 q -0.07099,0.12185 -0.105427,0.241051 -0.03444,0.119202 -0.03444,0.241582 0,0.12238 0.03444,0.242641 0.03496,0.119731 0.105427,0.241051 h -0.08477 q -0.07947,-0.124499 -0.119201,-0.24476 -0.0392,-0.120261 -0.0392,-0.238932 0,-0.118142 0.0392,-0.237873 0.0392,-0.119731 0.119201,-0.24476 z m -0.93242,0.396808 q 0.07682,0.01642 0.119732,0.06834 0.04344,0.05192 0.04344,0.128207 0,0.117083 -0.08053,0.181186 -0.08053,0.0641 -0.228867,0.0641 -0.0498,0 -0.102778,-0.01007 -0.05245,-0.0095 -0.108605,-0.02914 v -0.103296 q 0.0445,0.02596 0.09748,0.0392 0.05298,0.01325 0.110724,0.01325 0.100659,0 0.153108,-0.03973 0.05298,-0.03973 0.05298,-0.115493 0,-0.06993 -0.04927,-0.109135 -0.04874,-0.03973 -0.136154,-0.03973 h -0.09218 v -0.08794 h 0.09642 q 0.07894,0 0.120791,-0.03126 0.04185,-0.03179 0.04185,-0.09112 0,-0.06093 -0.04344,-0.09324 -0.04291,-0.03285 -0.12344,-0.03285 -0.04397,0 -0.0943,0.0095 -0.05033,0.0095 -0.110725,0.02967 v -0.09536 q 0.06092,-0.01695 0.113903,-0.02543 0.05351,-0.0085 0.100659,-0.0085 0.12185,0 0.192841,0.05563 0.07099,0.0551 0.07099,0.149399 0,0.06569 -0.03761,0.111254 -0.03761,0.04503 -0.107017,0.06252 z m -0.690836,0 q 0.07682,0.01642 0.119731,0.06834 0.04344,0.05192 0.04344,0.128207 0,0.117083 -0.08053,0.181186 -0.08053,0.0641 -0.228867,0.0641 -0.0498,0 -0.102778,-0.01007 -0.05245,-0.0095 -0.108605,-0.02914 v -0.103296 q 0.0445,0.02596 0.09748,0.0392 0.05298,0.01325 0.110725,0.01325 0.100658,0 0.153107,-0.03973 0.05298,-0.03973 0.05298,-0.115493 0,-0.06993 -0.04927,-0.109135 -0.04874,-0.03973 -0.136155,-0.03973 h -0.09218 v -0.08794 h 0.09642 q 0.07894,0 0.120791,-0.03126 0.04185,-0.03179 0.04185,-0.09112 0,-0.06093 -0.04344,-0.09324 -0.04291,-0.03285 -0.12344,-0.03285 -0.04397,0 -0.0943,0.0095 -0.05033,0.0095 -0.110725,0.02967 v -0.09536 q 0.06093,-0.01695 0.113903,-0.02543 0.05351,-0.0085 0.100659,-0.0085 0.12185,0 0.192841,0.05563 0.07099,0.0551 0.07099,0.149399 0,0.06569 -0.03761,0.111254 -0.03762,0.04503 -0.107016,0.06252 z m -1.304328,-0.364491 h 0.454554 v 0.09006 h -0.347538 v 0.233105 h 0.313632 v 0.09006 h -0.313632 v 0.377735 h -0.107016 z m -0.477335,0.105427 -0.145161,0.393629 h 0.290851 z m -0.0604,-0.105427 h 0.121321 l 0.301447,0.790966 h -0.111255 l -0.07205,-0.202907 h -0.356545 l -0.07205,0.202907 H 17.74551 Z m -0.885264,0.656401 h 0.111785 v 0.134565 h -0.111785 z m -0.497996,-0.583821 q -0.116553,0 -0.185424,0.08688 -0.06834,0.08688 -0.06834,0.236814 0,0.149399 0.06834,0.236283 0.06887,0.08688 0.185424,0.08688 0.116552,0 0.184365,-0.08688 0.06834,-0.08688 0.06834,-0.236283 0,-0.149929 -0.06834,-0.236814 -0.06781,-0.08688 -0.184365,-0.08688 z m 0,-0.08689 q 0.166352,0 0.265951,0.111785 0.0996,0.111254 0.0996,0.298798 0,0.187013 -0.0996,0.298798 -0.0996,0.111254 -0.265951,0.111254 -0.166882,0 -0.267011,-0.111254 -0.0996,-0.111255 -0.0996,-0.298798 0,-0.187544 0.0996,-0.298798 0.100129,-0.111785 0.267011,-0.111785 z m -1.132677,0.01431 h 0.144101 l 0.350717,0.661699 v -0.661699 h 0.103837 v 0.790966 h -0.144101 l -0.350717,-0.661699 v 0.661699 h -0.103837 z m -1.118373,0 h 0.669116 v 0.09006 h -0.280785 v 0.700903 h -0.107546 v -0.700903 h -0.280785 z m -0.05669,0.06092 v 0.112844 q -0.05404,-0.05033 -0.115493,-0.07523 -0.06093,-0.0249 -0.129797,-0.0249 -0.135624,0 -0.207675,0.08318 -0.07205,0.08265 -0.07205,0.239462 0,0.156286 0.07205,0.239462 0.07205,0.08265 0.207675,0.08265 0.06887,0 0.129797,-0.0249 0.06145,-0.0249 0.115493,-0.07523 v 0.111784 q -0.05616,0.03815 -0.119201,0.05722 -0.06252,0.01907 -0.132446,0.01907 -0.179597,0 -0.282905,-0.109665 -0.103308,-0.110195 -0.103308,-0.300387 0,-0.190722 0.103308,-0.300388 0.103308,-0.110195 0.282905,-0.110195 0.07099,0 0.133505,0.01907 0.06304,0.01854 0.118142,0.05616 z m -1.050561,0.0445 -0.145161,0.393629 h 0.290851 z m -0.06039,-0.105427 h 0.12132 l 0.301447,0.790966 H 13.55705 L 13.485,65.140048 h -0.356545 l -0.07205,0.202907 h -0.112844 z m -0.538795,0.420118 q 0.03444,0.01166 0.06675,0.0498 0.03285,0.03814 0.06569,0.104897 l 0.108605,0.216151 h -0.114963 l -0.101188,-0.202907 q -0.0392,-0.07947 -0.07629,-0.105427 -0.03655,-0.02596 -0.100129,-0.02596 h -0.116553 v 0.334293 h -0.107009 v -0.790965 h 0.241581 q 0.135625,0 0.202378,0.05669 0.06675,0.05669 0.06675,0.171121 0,0.0747 -0.03497,0.123969 -0.03444,0.04927 -0.100659,0.06834 z m -0.268071,-0.332174 v 0.280785 h 0.134565 q 0.07735,0 0.116553,-0.0355 0.03973,-0.03602 0.03973,-0.105426 0,-0.0694 -0.03973,-0.104368 -0.0392,-0.03549 -0.116553,-0.03549 z m -0.87997,-0.08794 h 0.669116 v 0.09006 h -0.280785 v 0.700903 h -0.107546 v -0.700903 h -0.280785 z m -0.701963,0 h 0.144101 l 0.350716,0.661699 v -0.661699 h 0.103838 v 0.790966 h -0.144101 l -0.350717,-0.661699 v 0.661699 h -0.103837 z m -0.532963,0.07258 q -0.116552,0 -0.185424,0.08688 -0.06834,0.08688 -0.06834,0.236814 0,0.149399 0.06834,0.236283 0.06887,0.08688 0.185424,0.08688 0.116553,0 0.184365,-0.08688 0.06834,-0.08688 0.06834,-0.236283 0,-0.149929 -0.06834,-0.236814 -0.06781,-0.08688 -0.184365,-0.08688 z m 0,-0.08689 q 0.166352,0 0.265952,0.111785 0.0996,0.111254 0.0996,0.298798 0,0.187013 -0.0996,0.298798 -0.0996,0.111254 -0.265952,0.111254 -0.166882,0 -0.267011,-0.111254 -0.0996,-0.111255 -0.0996,-0.298798 0,-0.187544 0.0996,-0.298798 0.100129,-0.111785 0.267011,-0.111785 z m -0.4874006,0.07524 v 0.112844 q -0.05404,-0.05033 -0.115492,-0.07523 -0.06093,-0.0249 -0.129797,-0.0249 -0.135625,0 -0.207676,0.08318 -0.07205,0.08265 -0.07205,0.239462 0,0.156286 0.07205,0.239462 0.07205,0.08265 0.207676,0.08265 0.06887,0 0.129797,-0.0249 0.06145,-0.0249 0.115492,-0.07523 v 0.111784 q -0.05616,0.03815 -0.119201,0.05722 -0.06251,0.01907 -0.132446,0.01907 -0.179596,0 -0.282904,-0.109665 -0.103308,-0.110195 -0.103308,-0.300387 0,-0.190722 0.103308,-0.300388 0.103308,-0.110195 0.282904,-0.110195 0.07099,0 0.133506,0.01907 0.06304,0.01854 0.118141,0.05616 z M 24.557471,63.088266 h 0.174828 v -0.603424 l -0.190192,0.03815 v -0.09748 l 0.189133,-0.03814 h 0.107016 v 0.700904 h 0.174828 v 0.09006 h -0.455613 z m -0.473626,-0.250588 h 0.285553 v 0.08688 h -0.285553 z m -0.398927,-0.379855 q -0.08265,0 -0.1245,0.08159 -0.04132,0.08106 -0.04132,0.24423 0,0.162644 0.04132,0.24423 0.04185,0.08106 0.1245,0.08106 0.08318,0 0.124499,-0.08106 0.04185,-0.08159 0.04185,-0.24423 0,-0.163173 -0.04185,-0.24423 -0.04132,-0.08159 -0.124499,-0.08159 z m 0,-0.08477 q 0.132975,0 0.202907,0.105427 0.07046,0.104897 0.07046,0.305155 0,0.199728 -0.07046,0.305155 -0.06993,0.104897 -0.202907,0.104897 -0.132976,0 -0.203437,-0.104897 -0.06993,-0.105427 -0.06993,-0.305155 0,-0.200258 0.06993,-0.305155 0.07046,-0.105427 0.203437,-0.105427 z m -0.946724,0.01431 h 0.508592 v 0.04556 l -0.287142,0.745406 h -0.111785 l 0.27019,-0.700904 h -0.379855 z m -0.434952,0.41535 q -0.07629,0 -0.120261,0.04079 -0.04344,0.04079 -0.04344,0.112314 0,0.07152 0.04344,0.112314 0.04397,0.04079 0.120261,0.04079 0.07629,0 0.120261,-0.04079 0.04397,-0.04132 0.04397,-0.112314 0,-0.07152 -0.04397,-0.112314 -0.04344,-0.04079 -0.120261,-0.04079 z m -0.107016,-0.04556 q -0.06887,-0.01695 -0.107546,-0.0641 -0.03815,-0.04715 -0.03815,-0.114963 0,-0.09483 0.06728,-0.149929 0.06781,-0.0551 0.185424,-0.0551 0.118142,0 0.185424,0.0551 0.06728,0.0551 0.06728,0.149929 0,0.06781 -0.03867,0.114963 -0.03814,0.04715 -0.106486,0.0641 0.07735,0.01801 0.120261,0.07046 0.04344,0.05245 0.04344,0.128208 0,0.114963 -0.07046,0.176418 -0.06993,0.06145 -0.200788,0.06145 -0.130857,0 -0.201318,-0.06145 -0.06993,-0.06145 -0.06993,-0.176418 0,-0.07576 0.04344,-0.128208 0.04344,-0.05245 0.120791,-0.07046 z m -0.0392,-0.169001 q 0,0.06145 0.03814,0.09589 0.03867,0.03444 0.108076,0.03444 0.06887,0 0.107546,-0.03444 0.0392,-0.03444 0.0392,-0.09589 0,-0.06145 -0.0392,-0.09589 -0.03867,-0.03444 -0.107546,-0.03444 -0.0694,0 -0.108076,0.03444 -0.03814,0.03444 -0.03814,0.09589 z m -0.544622,0.214561 q -0.07629,0 -0.120261,0.04079 -0.04344,0.04079 -0.04344,0.112314 0,0.07152 0.04344,0.112314 0.04397,0.04079 0.120261,0.04079 0.07629,0 0.120261,-0.04079 0.04397,-0.04132 0.04397,-0.112314 0,-0.07152 -0.04397,-0.112314 -0.04344,-0.04079 -0.120261,-0.04079 z m -0.107016,-0.04556 q -0.06887,-0.01695 -0.107546,-0.0641 -0.03815,-0.04715 -0.03815,-0.114963 0,-0.09483 0.06728,-0.149929 0.06781,-0.0551 0.185424,-0.0551 0.118142,0 0.185424,0.0551 0.06728,0.0551 0.06728,0.149929 0,0.06781 -0.03867,0.114963 -0.03815,0.04715 -0.106487,0.0641 0.07735,0.01801 0.120261,0.07046 0.04344,0.05245 0.04344,0.128208 0,0.114963 -0.07046,0.176418 -0.06993,0.06145 -0.200788,0.06145 -0.130857,0 -0.201318,-0.06145 -0.06993,-0.06145 -0.06993,-0.176418 0,-0.07576 0.04344,-0.128208 0.04344,-0.05245 0.120791,-0.07046 z m -0.0392,-0.169001 q 0,0.06145 0.03814,0.09589 0.03867,0.03444 0.108076,0.03444 0.06887,0 0.107546,-0.03444 0.0392,-0.03444 0.0392,-0.09589 0,-0.06145 -0.0392,-0.09589 -0.03867,-0.03444 -0.107546,-0.03444 -0.0694,0 -0.108076,0.03444 -0.03814,0.03444 -0.03814,0.09589 z M 20.6927,63.043764 h 0.111784 v 0.134565 H 20.6927 Z m -0.497997,-0.583822 q -0.116552,0 -0.185424,0.08689 -0.06834,0.08688 -0.06834,0.236813 0,0.149399 0.06834,0.236283 0.06887,0.08688 0.185424,0.08688 0.116552,0 0.184365,-0.08688 0.06834,-0.08688 0.06834,-0.236283 0,-0.149929 -0.06834,-0.236813 -0.06781,-0.08689 -0.184365,-0.08689 z m 0,-0.08688 q 0.166352,0 0.265951,0.111784 0.0996,0.111255 0.0996,0.298798 0,0.187014 -0.0996,0.298798 -0.0996,0.111254 -0.265951,0.111254 -0.166882,0 -0.267011,-0.111254 -0.0996,-0.111255 -0.0996,-0.298798 0,-0.187543 0.0996,-0.298798 0.100129,-0.111784 0.267011,-0.111784 z m -1.132677,0.0143 h 0.144101 l 0.350717,0.6617 v -0.6617 h 0.103837 v 0.790967 H 19.51658 l -0.350717,-0.6617 v 0.6617 h -0.103837 z m -1.118373,0 h 0.669116 v 0.09006 h -0.280785 v 0.700904 h -0.107546 v -0.700904 h -0.280785 z m -0.191252,0.420118 q 0.03444,0.01166 0.06675,0.0498 0.03285,0.03814 0.06569,0.104897 l 0.108606,0.216152 h -0.114963 l -0.101189,-0.202907 q -0.0392,-0.07947 -0.07629,-0.105427 -0.03655,-0.02596 -0.100129,-0.02596 h -0.116552 v 0.334294 h -0.107017 v -0.790967 h 0.241582 q 0.135624,0 0.202377,0.05669 0.06675,0.05669 0.06675,0.17112 0,0.0747 -0.03497,0.123969 -0.03444,0.04927 -0.100659,0.06834 z m -0.26807,-0.332174 v 0.280785 h 0.134565 q 0.07735,0 0.116552,-0.03549 0.03973,-0.03603 0.03973,-0.105427 0,-0.0694 -0.03973,-0.104368 -0.0392,-0.03549 -0.116552,-0.03549 z m -0.584352,0.01748 -0.145161,0.393629 h 0.290852 z m -0.06039,-0.105427 h 0.12132 l 0.301447,0.790967 h -0.111259 l -0.07205,-0.202907 h -0.356544 l -0.07205,0.202907 h -0.112846 z m -0.681836,0.08794 v 0.297209 h 0.134565 q 0.0747,0 0.115492,-0.03867 0.04079,-0.03867 0.04079,-0.110195 0,-0.07099 -0.04079,-0.109665 -0.04079,-0.03867 -0.115492,-0.03867 z m -0.107017,-0.08794 h 0.241582 q 0.132975,0 0.200788,0.06039 0.06834,0.05987 0.06834,0.175888 0,0.117083 -0.06834,0.176948 -0.06781,0.05987 -0.200788,0.05987 h -0.134565 v 0.31787 h -0.107017 z m -0.681301,0.656398 h 0.111784 v 0.134565 h -0.111784 z m -0.224099,-0.630443 v 0.104368 q -0.06092,-0.02914 -0.114963,-0.04344 -0.05404,-0.0143 -0.104367,-0.0143 -0.08741,0 -0.135095,0.03391 -0.04715,0.03391 -0.04715,0.09642 0,0.05245 0.03126,0.07947 0.03179,0.02649 0.119731,0.04291 l 0.06463,0.01324 q 0.119731,0.02278 0.176418,0.08053 0.05722,0.05722 0.05722,0.153637 0,0.114963 -0.07735,0.174299 -0.07682,0.05934 -0.225688,0.05934 -0.05616,0 -0.119731,-0.01271 -0.06304,-0.01272 -0.130857,-0.03761 V 63.03319 q 0.06516,0.03655 0.127678,0.0551 0.06251,0.01854 0.12291,0.01854 0.09165,0 0.141452,-0.03602 0.0498,-0.03603 0.0498,-0.102778 0,-0.05828 -0.03603,-0.09112 -0.0355,-0.03285 -0.117082,-0.04927 l -0.06516,-0.01272 q -0.119731,-0.02384 -0.173239,-0.0747 -0.05351,-0.05086 -0.05351,-0.141452 0,-0.104898 0.07364,-0.165293 0.07417,-0.06039 0.203967,-0.06039 0.05563,0 0.113374,0.01007 0.05775,0.01007 0.118141,0.0302 z m -0.68501,-0.02596 v 0.29403 h -0.09006 v -0.29403 z m -0.467269,0.420118 q 0.03444,0.01166 0.06675,0.0498 0.03285,0.03814 0.06569,0.104897 l 0.108606,0.216152 h -0.114957 l -0.101189,-0.202907 q -0.0392,-0.07947 -0.07629,-0.105427 -0.03655,-0.02596 -0.100129,-0.02596 h -0.116551 v 0.334294 H 13.61797 v -0.790967 h 0.241582 q 0.135624,0 0.202377,0.05669 0.06675,0.05669 0.06675,0.17112 0,0.0747 -0.03497,0.123969 -0.03444,0.04927 -0.100659,0.06834 z m -0.26807,-0.332174 v 0.280785 h 0.134565 q 0.07735,0 0.116552,-0.03549 0.03973,-0.03603 0.03973,-0.105427 0,-0.0694 -0.03973,-0.104368 -0.0392,-0.03549 -0.116552,-0.03549 z m -0.654813,0 v 0.297209 h 0.134565 q 0.0747,0 0.115493,-0.03867 0.04079,-0.03867 0.04079,-0.110195 0,-0.07099 -0.04079,-0.109665 -0.04079,-0.03867 -0.115493,-0.03867 z m -0.107016,-0.08794 h 0.241581 q 0.132976,0 0.200788,0.06039 0.06834,0.05987 0.06834,0.175888 0,0.117083 -0.06834,0.176948 -0.06781,0.05987 -0.200788,0.05987 h -0.134565 v 0.31787 h -0.107016 z m -0.936657,-4e-6 h 0.159464 l 0.201848,0.53826 0.202907,-0.53826 h 0.159465 v 0.790967 h -0.104367 v -0.694546 l -0.203967,0.542498 h -0.107546 l -0.203967,-0.542498 v 0.694546 h -0.103837 z m 12.601961,-1.463723 h 0.174828 v -0.603424 l -0.190192,0.03815 v -0.09748 l 0.189133,-0.03815 h 0.107016 v 0.700904 h 0.174829 v 0.09006 h -0.455614 z m -0.473626,-0.250588 h 0.285553 v 0.08688 h -0.285553 z m -0.398927,-0.379855 q -0.08265,0 -0.124499,0.08159 -0.04132,0.08106 -0.04132,0.24423 0,0.162644 0.04132,0.244231 0.04185,0.08106 0.124499,0.08106 0.08318,0 0.124499,-0.08106 0.04185,-0.08159 0.04185,-0.244231 0,-0.163173 -0.04185,-0.24423 -0.04132,-0.08159 -0.124499,-0.08159 z m 0,-0.08476 q 0.132975,0 0.202907,0.105427 0.07046,0.104897 0.07046,0.305155 0,0.199729 -0.07046,0.305156 -0.06993,0.104897 -0.202907,0.104897 -0.132976,0 -0.203437,-0.104897 -0.06993,-0.105427 -0.06993,-0.305156 0,-0.200258 0.06993,-0.305155 0.07046,-0.105427 0.203437,-0.105427 z m -0.946724,0.0143 h 0.508593 v 0.04556 L 23.030635,61.0137 h -0.111784 l 0.270189,-0.700904 h -0.379855 z m -0.434952,0.41535 q -0.07629,0 -0.120261,0.04079 -0.04344,0.04079 -0.04344,0.112314 0,0.07152 0.04344,0.112314 0.04397,0.04079 0.120261,0.04079 0.07629,0 0.120261,-0.04079 0.04397,-0.04132 0.04397,-0.112314 0,-0.07152 -0.04397,-0.112314 -0.04344,-0.04079 -0.120261,-0.04079 z m -0.107016,-0.04556 q -0.06887,-0.01695 -0.107546,-0.0641 -0.03815,-0.04715 -0.03815,-0.114963 0,-0.09483 0.06728,-0.149928 0.06781,-0.0551 0.185424,-0.0551 0.118142,0 0.185424,0.0551 0.06728,0.0551 0.06728,0.149928 0,0.06781 -0.03868,0.114963 -0.03814,0.04715 -0.106486,0.0641 0.07735,0.01801 0.120261,0.07046 0.04344,0.05245 0.04344,0.128208 0,0.114963 -0.07046,0.176418 -0.06993,0.06145 -0.200788,0.06145 -0.130857,0 -0.201318,-0.06145 -0.06993,-0.06146 -0.06993,-0.176418 0,-0.07576 0.04344,-0.128208 0.04344,-0.05245 0.120791,-0.07046 z m -0.0392,-0.169001 q 0,0.06145 0.03814,0.09589 0.03867,0.03444 0.108076,0.03444 0.06887,0 0.107546,-0.03444 0.0392,-0.03444 0.0392,-0.09589 0,-0.06145 -0.0392,-0.09589 -0.03867,-0.03444 -0.107546,-0.03444 -0.0694,0 -0.108076,0.03444 -0.03814,0.03444 -0.03814,0.09589 z m -0.544622,0.214561 q -0.07629,0 -0.120261,0.04079 -0.04344,0.04079 -0.04344,0.112314 0,0.07152 0.04344,0.112314 0.04397,0.04079 0.120261,0.04079 0.07629,0 0.120261,-0.04079 0.04397,-0.04132 0.04397,-0.112314 0,-0.07152 -0.04397,-0.112314 -0.04344,-0.04079 -0.120261,-0.04079 z m -0.107016,-0.04556 q -0.06887,-0.01695 -0.107546,-0.0641 -0.03815,-0.04715 -0.03815,-0.114963 0,-0.09483 0.06728,-0.149928 0.06781,-0.0551 0.185424,-0.0551 0.118142,0 0.185424,0.0551 0.06728,0.0551 0.06728,0.149928 0,0.06781 -0.03867,0.114963 -0.03814,0.04715 -0.106487,0.0641 0.07735,0.01801 0.120261,0.07046 0.04344,0.05245 0.04344,0.128208 0,0.114963 -0.07046,0.176418 -0.06993,0.06145 -0.200788,0.06145 -0.130856,0 -0.201318,-0.06145 -0.06993,-0.06146 -0.06993,-0.176418 0,-0.07576 0.04344,-0.128208 0.04344,-0.05245 0.120791,-0.07046 z m -0.0392,-0.169001 q 0,0.06145 0.03814,0.09589 0.03867,0.03444 0.108076,0.03444 0.06887,0 0.107546,-0.03444 0.0392,-0.03444 0.0392,-0.09589 0,-0.06145 -0.0392,-0.09589 -0.03867,-0.03444 -0.107546,-0.03444 -0.0694,0 -0.108076,0.03444 -0.03814,0.03444 -0.03814,0.09589 z m -0.537735,0.249527 h 0.285553 v 0.08688 h -0.285553 z m -0.60925,0.250588 h 0.174828 v -0.603424 l -0.190192,0.03815 v -0.09748 l 0.189133,-0.03815 h 0.107016 v 0.700904 h 0.174829 v 0.09006 H 20.390194 Z M 19.90968,60.293196 q -0.08265,0 -0.124499,0.08159 -0.04132,0.08106 -0.04132,0.24423 0,0.162644 0.04132,0.244231 0.04185,0.08106 0.124499,0.08106 0.08318,0 0.124499,-0.08106 0.04185,-0.08159 0.04185,-0.244231 0,-0.163173 -0.04185,-0.24423 -0.04132,-0.08159 -0.124499,-0.08159 z m 0,-0.08476 q 0.132976,0 0.202907,0.105427 0.07046,0.104897 0.07046,0.305155 0,0.199729 -0.07046,0.305156 -0.06993,0.104897 -0.202907,0.104897 -0.132976,0 -0.203437,-0.104897 -0.06993,-0.105427 -0.06993,-0.305156 0,-0.200258 0.06993,-0.305155 0.07046,-0.105427 0.203437,-0.105427 z m -0.827522,0.715203 h 0.373497 v 0.09006 h -0.502234 v -0.09006 q 0.06093,-0.06304 0.165822,-0.169001 0.105427,-0.106487 0.132446,-0.137214 0.05139,-0.05775 0.07152,-0.09748 0.02066,-0.04026 0.02066,-0.07894 0,-0.06304 -0.0445,-0.102778 -0.04397,-0.03973 -0.114963,-0.03973 -0.05033,0 -0.106486,0.01748 -0.05563,0.01748 -0.119202,0.05298 v -0.108075 q 0.06463,-0.02596 0.120791,-0.0392 0.05616,-0.01324 0.102778,-0.01324 0.12291,0 0.19602,0.06145 0.07311,0.06145 0.07311,0.164233 0,0.04874 -0.01854,0.09271 -0.01801,0.04344 -0.06622,0.102778 -0.01324,0.01536 -0.08424,0.089 -0.07099,0.07311 -0.200258,0.205026 z m -0.540909,-0.348068 q -0.07205,0 -0.114433,0.04927 -0.04185,0.04927 -0.04185,0.135095 0,0.0853 0.04185,0.135095 0.04238,0.04927 0.114433,0.04927 0.07205,0 0.113903,-0.04927 0.04238,-0.0498 0.04238,-0.135095 0,-0.08582 -0.04238,-0.135095 -0.04185,-0.04927 -0.113903,-0.04927 z m 0.212443,-0.335353 v 0.09748 q -0.04026,-0.01907 -0.08159,-0.02914 -0.04079,-0.01007 -0.08106,-0.01007 -0.105957,0 -0.162114,0.07152 -0.05563,0.07152 -0.06357,0.216152 0.03126,-0.04609 0.07841,-0.07046 0.04715,-0.0249 0.103837,-0.0249 0.119202,0 0.188073,0.07258 0.0694,0.07205 0.0694,0.19655 0,0.12185 -0.07205,0.19549 -0.07205,0.07364 -0.191782,0.07364 -0.137214,0 -0.209794,-0.104897 -0.07258,-0.105427 -0.07258,-0.305156 0,-0.187543 0.089,-0.298798 0.089,-0.111784 0.238932,-0.111784 0.04026,0 0.08106,0.0079 0.04132,0.0079 0.08582,0.02384 z M 17.6083,60.879137 h 0.111784 v 0.134565 H 17.6083 Z m -0.497997,-0.583821 q -0.116552,0 -0.185424,0.08688 -0.06834,0.08689 -0.06834,0.236813 0,0.149399 0.06834,0.236284 0.06887,0.08688 0.185424,0.08688 0.116553,0 0.184365,-0.08688 0.06834,-0.08689 0.06834,-0.236284 0,-0.149928 -0.06834,-0.236813 -0.06781,-0.08688 -0.184365,-0.08688 z m 0,-0.08688 q 0.166352,0 0.265952,0.111784 0.0996,0.111255 0.0996,0.298798 0,0.187014 -0.0996,0.298798 -0.0996,0.111255 -0.265952,0.111255 -0.166881,0 -0.26701,-0.111255 -0.0996,-0.111254 -0.0996,-0.298798 0,-0.187543 0.0996,-0.298798 0.100129,-0.111784 0.26701,-0.111784 z m -1.132677,0.0143 h 0.144101 l 0.350717,0.6617 v -0.6617 h 0.103838 v 0.790967 h -0.144101 l -0.350717,-0.6617 v 0.6617 h -0.103838 z m -1.057448,0 h 0.107017 v 0.334294 l 0.354955,-0.334294 h 0.137743 l -0.392569,0.36873 0.420648,0.422237 h -0.140923 l -0.379854,-0.380914 v 0.380914 h -0.107017 z m -0.166352,0.06092 v 0.112844 q -0.05404,-0.05033 -0.115493,-0.07523 -0.06093,-0.0249 -0.129797,-0.0249 -0.135624,0 -0.207675,0.08318 -0.07205,0.08265 -0.07205,0.239462 0,0.156286 0.07205,0.239462 0.07205,0.08265 0.207675,0.08265 0.06887,0 0.129797,-0.0249 0.06145,-0.0249 0.115493,-0.07523 v 0.111784 q -0.05616,0.03814 -0.119201,0.05722 -0.06251,0.01907 -0.132446,0.01907 -0.179597,0 -0.282904,-0.109665 -0.103308,-0.110195 -0.103308,-0.300388 0,-0.190722 0.103308,-0.300387 0.103307,-0.110195 0.282904,-0.110195 0.07099,0 0.133506,0.01907 0.06304,0.01854 0.118141,0.05616 z m -1.12526,0.01166 q -0.116552,0 -0.185424,0.08688 -0.06834,0.08689 -0.06834,0.236813 0,0.149399 0.06834,0.236284 0.06887,0.08688 0.185424,0.08688 0.116552,0 0.184365,-0.08688 0.06834,-0.08689 0.06834,-0.236284 0,-0.149928 -0.06834,-0.236813 -0.06781,-0.08688 -0.184365,-0.08688 z m 0,-0.08688 q 0.166352,0 0.265951,0.111784 0.0996,0.111255 0.0996,0.298798 0,0.187014 -0.0996,0.298798 -0.0996,0.111255 -0.265951,0.111255 -0.166882,0 -0.267011,-0.111255 -0.0996,-0.111254 -0.0996,-0.298798 0,-0.187543 0.0996,-0.298798 0.100129,-0.111784 0.267011,-0.111784 z m -1.094003,0.0143 h 0.669117 v 0.09006 h -0.280786 v 0.700904 h -0.107546 v -0.700904 h -0.280785 z m -0.104897,0.02596 v 0.104367 q -0.06093,-0.02914 -0.114963,-0.04344 -0.05404,-0.0143 -0.104368,-0.0143 -0.08741,0 -0.135094,0.03391 -0.04715,0.03391 -0.04715,0.09642 0,0.05245 0.03126,0.07947 0.03179,0.02649 0.119731,0.04291 l 0.06463,0.01324 q 0.119731,0.02278 0.176418,0.08053 0.05722,0.05722 0.05722,0.153637 0,0.114963 -0.07735,0.174299 -0.07682,0.05934 -0.225688,0.05934 -0.05616,0 -0.119731,-0.01272 -0.06304,-0.01272 -0.130856,-0.03762 v -0.110195 q 0.06516,0.03655 0.127677,0.0551 0.06252,0.01854 0.12291,0.01854 0.09165,0 0.141452,-0.03603 0.0498,-0.03602 0.0498,-0.102778 0,-0.05828 -0.03602,-0.09112 -0.0355,-0.03285 -0.117082,-0.04927 l -0.06516,-0.01271 q -0.119731,-0.02384 -0.173239,-0.0747 -0.05351,-0.05086 -0.05351,-0.141452 0,-0.104897 0.07364,-0.165293 0.07417,-0.06039 0.203966,-0.06039 0.05563,0 0.113374,0.01007 0.05775,0.01007 0.118142,0.0302 z M 21.420623,58.4226 q 0.07682,0.01642 0.119731,0.06834 0.04344,0.05192 0.04344,0.128207 0,0.117082 -0.08053,0.181186 -0.08053,0.0641 -0.228866,0.0641 -0.0498,0 -0.102778,-0.01007 -0.05245,-0.0095 -0.108606,-0.02914 v -0.103296 q 0.0445,0.02596 0.09748,0.0392 0.05298,0.01324 0.110725,0.01324 0.100659,0 0.153107,-0.03973 0.05298,-0.03973 0.05298,-0.115493 0,-0.06993 -0.04927,-0.109135 -0.04874,-0.03973 -0.136155,-0.03973 h -0.09218 v -0.08794 h 0.09642 q 0.07894,0 0.12079,-0.03126 0.04185,-0.03179 0.04185,-0.09112 0,-0.06092 -0.04344,-0.09324 -0.04291,-0.03285 -0.12344,-0.03285 -0.04397,0 -0.0943,0.0095 -0.05033,0.0095 -0.110725,0.02967 v -0.09536 q 0.06092,-0.01695 0.113904,-0.02543 0.05351,-0.0085 0.100659,-0.0085 0.12185,0 0.192841,0.05563 0.07099,0.0551 0.07099,0.149398 0,0.06569 -0.03762,0.111255 -0.03761,0.04503 -0.107016,0.06252 z m -1.106718,-0.364492 h 0.669117 v 0.09006 h -0.280786 v 0.700903 H 20.59469 v -0.700903 h -0.280785 z m -0.236284,0.450316 h 0.285553 v 0.08688 H 20.077621 Z M 19.678694,58.12857 q -0.08265,0 -0.124499,0.08159 -0.04132,0.08106 -0.04132,0.244231 0,0.162643 0.04132,0.24423 0.04185,0.08106 0.124499,0.08106 0.08318,0 0.124499,-0.08106 0.04185,-0.08159 0.04185,-0.24423 0,-0.163174 -0.04185,-0.244231 -0.04132,-0.08159 -0.124499,-0.08159 z m 0,-0.08477 q 0.132976,0 0.202907,0.105427 0.07046,0.104897 0.07046,0.305156 0,0.199728 -0.07046,0.305155 -0.06993,0.104897 -0.202907,0.104897 -0.132975,0 -0.203437,-0.104897 -0.06993,-0.105427 -0.06993,-0.305155 0,-0.200259 0.06993,-0.305156 0.07046,-0.105427 0.203437,-0.105427 z m -0.677593,0.367144 q -0.07205,0 -0.114433,0.04927 -0.04185,0.04927 -0.04185,0.135095 0,0.0853 0.04185,0.135095 0.04238,0.04927 0.114433,0.04927 0.07205,0 0.113903,-0.04927 0.04238,-0.0498 0.04238,-0.135095 0,-0.08582 -0.04238,-0.135095 -0.04185,-0.04927 -0.113903,-0.04927 z m 0.212443,-0.335353 v 0.09748 q -0.04026,-0.01907 -0.08159,-0.02914 -0.04079,-0.01007 -0.08106,-0.01007 -0.105957,0 -0.162114,0.07152 -0.05563,0.07152 -0.06357,0.216152 0.03126,-0.04609 0.07841,-0.07046 0.04715,-0.0249 0.103837,-0.0249 0.119202,0 0.188074,0.07258 0.0694,0.07205 0.0694,0.19655 0,0.12185 -0.07205,0.19549 -0.07205,0.07364 -0.191782,0.07364 -0.137214,0 -0.209794,-0.104897 -0.07258,-0.105427 -0.07258,-0.305155 0,-0.187544 0.089,-0.298798 0.089,-0.111785 0.238932,-0.111785 0.04026,0 0.08106,0.0079 0.04132,0.0079 0.08582,0.02384 z m -1.172411,-0.01748 h 0.508592 v 0.04556 l -0.287142,0.745405 h -0.111785 l 0.27019,-0.700903 h -0.379855 z m -0.662759,0 h 0.420118 v 0.09006 h -0.322108 v 0.1939 q 0.02331,-0.0079 0.04662,-0.01166 0.02331,-0.0042 0.04662,-0.0042 0.132446,0 0.209794,0.07258 0.07735,0.07258 0.07735,0.19655 0,0.127678 -0.07947,0.198669 -0.07947,0.07046 -0.224099,0.07046 -0.0498,0 -0.101718,-0.0085 -0.05139,-0.0085 -0.106487,-0.02543 v -0.10755 q 0.04768,0.02596 0.09854,0.03867 0.05086,0.01272 0.107546,0.01272 0.09165,0 0.145161,-0.04821 0.05351,-0.04821 0.05351,-0.130857 0,-0.08265 -0.05351,-0.130857 -0.05351,-0.04821 -0.145161,-0.04821 -0.04291,0 -0.08582,0.0095 -0.04238,0.0095 -0.08688,0.02967 z m -1.167643,0 h 0.144101 l 0.350717,0.6617 v -0.6617 h 0.103837 v 0.790967 h -0.144101 l -0.350717,-0.661699 v 0.661699 h -0.103837 z m -0.477335,0.105427 -0.145161,0.39363 h 0.290851 z m -0.0604,-0.105427 h 0.121321 l 0.301447,0.790967 h -0.111255 l -0.07205,-0.202907 h -0.356545 l -0.07205,0.202907 H 15.37102 Z m 9.278573,-2.636076 h 0.183486 l 0.350061,0.519172 0.347524,-0.519172 h 0.183486 l -0.446454,0.661225 v 0.601192 h -0.171648 v -0.601192 z m -0.748317,0.659534 v 0.46252 h 0.27396 q 0.137826,0 0.203779,-0.05665 0.0668,-0.0575 0.0668,-0.175031 0,-0.118378 -0.0668,-0.174184 -0.06595,-0.05665 -0.203779,-0.05665 z m 0,-0.519172 v 0.380501 h 0.252821 q 0.125143,0 0.186023,-0.04651 0.06173,-0.04735 0.06173,-0.143745 0,-0.09555 -0.06173,-0.142899 -0.06088,-0.04735 -0.186023,-0.04735 z m -0.170803,-0.140362 h 0.436308 q 0.195323,0 0.301018,0.08117 0.105695,0.08117 0.105695,0.230837 0,0.115842 -0.05412,0.184332 -0.05412,0.06849 -0.158965,0.0854 0.125988,0.02706 0.195324,0.113305 0.07018,0.0854 0.07018,0.213926 0,0.169111 -0.114996,0.261277 -0.114995,0.09217 -0.32723,0.09217 h -0.453219 z m -1.161796,0.140362 v 0.981692 h 0.206316 q 0.261277,0 0.382192,-0.118378 0.12176,-0.118378 0.12176,-0.373736 0,-0.253667 -0.12176,-0.3712 -0.120915,-0.118378 -0.382192,-0.118378 z M 22.69985,55.422032 h 0.350907 q 0.366971,0 0.53862,0.153045 0.171648,0.152201 0.171648,0.476895 0,0.326385 -0.172494,0.479431 -0.172494,0.153046 -0.537774,0.153046 H 22.69985 Z m -1.295393,0 h 0.229992 l 0.559759,1.056101 v -1.056101 h 0.165729 v 1.262417 h -0.229992 l -0.559759,-1.056101 v 1.056101 h -0.165729 z m -0.761847,0.168265 -0.231683,0.62825 h 0.464211 z m -0.09639,-0.168265 h 0.193633 l 0.481122,1.262417 H 21.043408 L 20.928412,56.3606 h -0.56906 l -0.114996,0.323849 h -0.180104 z m -1.423922,0 h 1.067939 v 0.143744 h -0.448146 v 1.118673 h -0.171648 v -1.118673 h -0.448145 z m -0.167421,0.04143 v 0.166575 q -0.09724,-0.04651 -0.183486,-0.06934 -0.08625,-0.02283 -0.166574,-0.02283 -0.139517,0 -0.215617,0.05412 -0.07525,0.05411 -0.07525,0.153891 0,0.08371 0.04989,0.126834 0.05073,0.04228 0.191096,0.06849 l 0.103158,0.02114 q 0.191096,0.03636 0.28157,0.128524 0.09132,0.09132 0.09132,0.245212 0,0.183486 -0.123452,0.278188 -0.122606,0.0947 -0.360207,0.0947 -0.08963,0 -0.191096,-0.02029 -0.100622,-0.02029 -0.208853,-0.06003 v -0.175876 q 0.104004,0.05834 0.203779,0.08794 0.09978,0.02959 0.19617,0.02959 0.146281,0 0.225764,-0.0575 0.07948,-0.0575 0.07948,-0.164038 0,-0.09301 -0.0575,-0.145436 -0.05665,-0.05242 -0.186868,-0.07864 l -0.104004,-0.02029 q -0.191096,-0.03805 -0.276497,-0.119223 -0.0854,-0.08117 -0.0854,-0.225764 0,-0.16742 0.117532,-0.263814 0.118378,-0.09639 0.32554,-0.09639 0.08878,0 0.180949,0.01607 0.09217,0.01607 0.188559,0.0482 z m -1.650528,0 v 0.166575 q -0.09724,-0.04651 -0.183485,-0.06934 -0.08625,-0.02283 -0.166575,-0.02283 -0.139517,0 -0.215617,0.05412 -0.07525,0.05411 -0.07525,0.153891 0,0.08371 0.04989,0.126834 0.05073,0.04228 0.191096,0.06849 l 0.103158,0.02114 q 0.191096,0.03636 0.28157,0.128524 0.09132,0.09132 0.09132,0.245212 0,0.183486 -0.123452,0.278188 -0.122606,0.0947 -0.360207,0.0947 -0.08963,0 -0.191096,-0.02029 -0.100621,-0.02029 -0.208853,-0.06003 v -0.175876 q 0.104004,0.05834 0.20378,0.08794 0.09977,0.02959 0.196169,0.02959 0.146281,0 0.225764,-0.0575 0.07948,-0.0575 0.07948,-0.164038 0,-0.09301 -0.0575,-0.145436 -0.05665,-0.05242 -0.186868,-0.07864 l -0.104004,-0.02029 q -0.191096,-0.03805 -0.276497,-0.119223 -0.0854,-0.08117 -0.0854,-0.225764 0,-0.16742 0.117532,-0.263814 0.118378,-0.09639 0.32554,-0.09639 0.08878,0 0.180949,0.01607 0.09217,0.01607 0.188559,0.0482 z m -1.093305,-0.04143 v 0.469284 h -0.143745 v -0.469284 z m -1.374031,0 h 1.067939 v 0.143744 h -0.448145 v 1.118673 h -0.171648 v -1.118673 h -0.448146 z m -0.6756,0.115841 q -0.186023,0 -0.295945,0.138671 -0.109077,0.138672 -0.109077,0.377964 0,0.238448 0.109077,0.377119 0.109922,0.138671 0.295945,0.138671 0.186023,0 0.294254,-0.138671 0.109077,-0.138671 0.109077,-0.377119 0,-0.239292 -0.109077,-0.377964 -0.108231,-0.138671 -0.294254,-0.138671 z m 0,-0.138672 q 0.265505,0 0.42447,0.178413 0.158965,0.177567 0.158965,0.476894 0,0.298482 -0.158965,0.476895 -0.158965,0.177567 -0.42447,0.177567 -0.26635,0 -0.426161,-0.177567 -0.158965,-0.177567 -0.158965,-0.476895 0,-0.299327 0.158965,-0.476894 0.159811,-0.178413 0.426161,-0.178413 z m -1.415463,0.02283 h 0.170803 v 1.118672 h 0.61472 v 0.143745 H 12.74595 Z m -0.510717,0 h 0.170803 v 1.262417 h -0.170803 z m -0.874306,0.140362 v 0.474358 h 0.214772 q 0.119223,0 0.184331,-0.06173 0.06511,-0.06173 0.06511,-0.175876 0,-0.113305 -0.06511,-0.17503 -0.06511,-0.06173 -0.184331,-0.06173 z m -0.170802,-0.140362 h 0.385574 q 0.212235,0 0.320466,0.09639 0.109077,0.09555 0.109077,0.280725 0,0.186868 -0.109077,0.282416 -0.108231,0.09555 -0.320466,0.09555 h -0.214772 v 0.507335 h -0.170802 z m 15.747659,-2.123656 v 0.180104 q -0.08625,-0.08033 -0.184332,-0.12007 -0.09724,-0.03974 -0.207161,-0.03974 -0.216463,0 -0.331459,0.132753 -0.114995,0.131907 -0.114995,0.382192 0,0.249439 0.114995,0.382192 0.114996,0.131907 0.331459,0.131907 0.109922,0 0.207161,-0.03974 0.09808,-0.03974 0.184332,-0.120069 v 0.178413 q -0.08963,0.06088 -0.190251,0.09132 -0.09978,0.03044 -0.211389,0.03044 -0.286644,0 -0.451527,-0.17503 -0.164884,-0.175876 -0.164884,-0.479431 0,-0.304401 0.164884,-0.479431 0.164883,-0.175876 0.451527,-0.175876 0.113305,0 0.213081,0.03044 0.100621,0.02959 0.188559,0.08963 z m -1.45605,-0.09724 h 0.170803 v 1.262417 h -0.170803 z m -1.233668,0 h 1.067939 v 0.143745 H 24.86786 v 1.118672 h -0.171648 v -1.118672 h -0.448146 z m -0.920812,0 h 0.798206 v 0.143745 h -0.627403 v 0.373736 h 0.601191 v 0.143745 h -0.601191 v 0.457446 h 0.642623 v 0.143745 h -0.813426 z m -1.295394,0 h 0.229992 l 0.559759,1.056101 v -1.056101 h 0.165729 v 1.262417 H 22.757349 L 22.19759,53.407453 v 1.056101 h -0.16573 z m -0.481967,1.082313 v -0.339068 h -0.279034 v -0.140363 h 0.448145 v 0.542002 q -0.09893,0.07018 -0.218153,0.106541 -0.119224,0.03551 -0.254513,0.03551 -0.295945,0 -0.463366,-0.172494 -0.166574,-0.173339 -0.166574,-0.481967 0,-0.309474 0.166574,-0.481968 0.167421,-0.173339 0.463366,-0.173339 0.123451,0 0.234219,0.03044 0.111614,0.03044 0.205471,0.08963 v 0.181795 q -0.0947,-0.08033 -0.201243,-0.120915 -0.10654,-0.04059 -0.224073,-0.04059 -0.231682,0 -0.348369,0.129371 -0.115842,0.12937 -0.115842,0.385574 0,0.255358 0.115842,0.384728 0.116687,0.129371 0.348369,0.129371 0.09048,0 0.161502,-0.01522 0.07103,-0.01606 0.127679,-0.04904 z m -1.592185,-0.914047 -0.231682,0.628249 h 0.464211 z m -0.09639,-0.168266 h 0.193632 l 0.481123,1.262417 h -0.17757 l -0.114996,-0.323849 h -0.56906 l -0.114996,0.323849 h -0.180104 z m -1.820488,0 h 0.254512 l 0.322158,0.859086 0.323848,-0.859086 h 0.254513 v 1.262417 h -0.166575 v -1.108526 l -0.325539,0.865851 h -0.171648 l -0.32554,-0.865851 v 1.108526 H 18.04083 Z m -0.552149,1.047645 h 0.178413 v 0.214772 h -0.178413 z m 0,-0.680673 h 0.178413 v 0.214771 h -0.178413 z m -0.375427,-0.32554 v 0.166575 q -0.09724,-0.04651 -0.183486,-0.06934 -0.08625,-0.02283 -0.166575,-0.02283 -0.139517,0 -0.215617,0.05412 -0.07526,0.05412 -0.07526,0.153891 0,0.08371 0.04989,0.126834 0.05073,0.04228 0.191096,0.06849 l 0.103158,0.02114 q 0.191096,0.03636 0.28157,0.128525 0.09132,0.09132 0.09132,0.245211 0,0.183486 -0.123452,0.278189 -0.122606,0.0947 -0.360207,0.0947 -0.08963,0 -0.191096,-0.02029 -0.100621,-0.02029 -0.208853,-0.06003 v -0.175876 q 0.104004,0.05834 0.20378,0.08794 0.09978,0.0296 0.196169,0.0296 0.146281,0 0.225764,-0.0575 0.07948,-0.0575 0.07948,-0.164038 0,-0.09301 -0.0575,-0.145436 -0.05665,-0.05242 -0.186868,-0.07864 l -0.104004,-0.02029 q -0.191095,-0.03805 -0.276497,-0.119224 -0.0854,-0.08117 -0.0854,-0.225764 0,-0.16742 0.117532,-0.263814 0.118378,-0.09639 0.32554,-0.09639 0.08878,0 0.180949,0.01606 0.09217,0.01607 0.18856,0.0482 z m -1.518621,0.126834 -0.231683,0.628249 h 0.464211 z m -0.09639,-0.168266 h 0.193633 l 0.481122,1.262417 h -0.177571 l -0.114996,-0.323849 h -0.56906 l -0.114996,0.323849 h -0.180104 z m -1.088236,0.140362 v 0.474358 h 0.214772 q 0.119223,0 0.184331,-0.06173 0.06511,-0.06172 0.06511,-0.175876 0,-0.113304 -0.06511,-0.17503 -0.06511,-0.06173 -0.184331,-0.06173 z m -0.170803,-0.140362 h 0.385575 q 0.212234,0 0.320466,0.09639 0.109077,0.09555 0.109077,0.280725 0,0.186869 -0.109077,0.282417 -0.108232,0.09555 -0.320466,0.09555 h -0.214772 v 0.507335 h -0.170803 z m -1.494945,0 h 0.254513 l 0.322157,0.859086 0.323848,-0.859086 h 0.254513 v 1.262417 h -0.166575 v -1.108526 l -0.325539,0.865851 h -0.171648 l -0.32554,-0.865851 v 1.108526 h -0.165729 z m -0.850631,0.115841 q -0.186022,0 -0.295945,0.138672 -0.109077,0.138671 -0.109077,0.377964 0,0.238447 0.109077,0.377118 0.109923,0.138672 0.295945,0.138672 0.186023,0 0.294254,-0.138672 0.109077,-0.138671 0.109077,-0.377118 0,-0.239293 -0.109077,-0.377964 -0.108231,-0.138672 -0.294254,-0.138672 z m 0,-0.138671 q 0.265505,0 0.42447,0.178412 0.158965,0.177567 0.158965,0.476895 0,0.298481 -0.158965,0.476894 -0.158965,0.177567 -0.42447,0.177567 -0.26635,0 -0.426161,-0.177567 -0.158964,-0.177567 -0.158964,-0.476894 0,-0.299328 0.158964,-0.476895 0.159811,-0.178412 0.426161,-0.178412 z m -0.777912,0.120069 v 0.180104 q -0.08625,-0.08033 -0.184332,-0.12007 -0.09724,-0.03974 -0.207161,-0.03974 -0.216463,0 -0.331459,0.132753 -0.114996,0.131907 -0.114996,0.382192 0,0.249439 0.114996,0.382192 0.114996,0.131907 0.331459,0.131907 0.109922,0 0.207161,-0.03974 0.09809,-0.03974 0.184332,-0.120069 v 0.178413 q -0.08963,0.06088 -0.190251,0.09132 -0.09978,0.03044 -0.211389,0.03044 -0.286644,0 -0.451528,-0.17503 -0.164883,-0.175876 -0.164883,-0.479431 0,-0.304401 0.164883,-0.479431 0.164884,-0.175876 0.451528,-0.175876 0.113305,0 0.21308,0.03044 0.100622,0.02959 0.18856,0.08963 z" />
      </g>
    </g>
  </g>
</svg>
