<?xml version="1.0" encoding="UTF-8" standalone="no"?>
<!-- Created with Inkscape (http://www.inkscape.org/) -->

<svg
   xmlns:dc="http://purl.org/dc/elements/1.1/"
   xmlns:cc="http://creativecommons.org/ns#"
   xmlns:rdf="http://www.w3.org/1999/02/22-rdf-syntax-ns#"
   xmlns:svg="http://www.w3.org/2000/svg"
   xmlns="http://www.w3.org/2000/svg"
   xmlns:sodipodi="http://sodipodi.sourceforge.net/DTD/sodipodi-0.dtd"
   xmlns:inkscape="http://www.inkscape.org/namespaces/inkscape"
   width="70.131981mm"
   height="70.348129mm"
   viewBox="0 0 70.131981 70.348129"
   version="1.1"
   id="svg1477"
   inkscape:version="0.92.3 (2405546, 2018-03-11)"
   sodipodi:docname="I_Plate.001A_I1.svg">
  <defs
     id="defs1471" />
  <sodipodi:namedview
     id="base"
     pagecolor="#ffffff"
     bordercolor="#666666"
     borderopacity="1.0"
     inkscape:pageopacity="0.0"
     inkscape:pageshadow="2"
     inkscape:zoom="1.4"
     inkscape:cx="154.08438"
     inkscape:cy="165.99469"
     inkscape:document-units="mm"
     inkscape:current-layer="layer1"
     showgrid="false"
     inkscape:window-width="1260"
     inkscape:window-height="1103"
     inkscape:window-x="5042"
     inkscape:window-y="110"
     inkscape:window-maximized="0" />
  <metadata
     id="metadata1474">
    <rdf:RDF>
      <cc:Work
         rdf:about="">
        <dc:format>image/svg+xml</dc:format>
        <dc:type
           rdf:resource="http://purl.org/dc/dcmitype/StillImage" />
        <dc:title></dc:title>
      </cc:Work>
    </rdf:RDF>
  </metadata>
  <g
     inkscape:label="Layer 1"
     inkscape:groupmode="layer"
     id="layer1"
     transform="translate(-129.33471,-98.502261)">
    <path
       style="fill:#000000;stroke-width:0.07207032"
       d="m 164.00053,166.83242 v -2.01797 h 0.39639 0.39638 v 2.01797 2.01797 h -0.39638 -0.39639 z m 4.51072,1.49546 c -0.0179,-0.0892 -0.10106,-0.72972 -0.18492,-1.42339 -0.0839,-0.69368 -0.17009,-1.36295 -0.19162,-1.48727 -0.038,-0.21965 -0.0308,-0.22684 0.25562,-0.25415 0.17089,-0.0163 0.2958,0.003 0.29723,0.0459 0.001,0.0407 0.0948,0.77126 0.20756,1.62349 0.11282,0.85223 0.19088,1.57383 0.17347,1.60356 -0.0174,0.0297 -0.14262,0.054 -0.27826,0.054 -0.1981,0 -0.25301,-0.0319 -0.27908,-0.16215 z m -9.39348,0.0392 c -0.0892,-0.0172 -0.16296,-0.0533 -0.16392,-0.0803 -9.7e-4,-0.027 0.10341,-0.77065 0.23195,-1.65261 l 0.23372,-1.60356 0.18245,0.001 c 0.39169,0.002 0.39129,-0.003 0.13524,1.7541 -0.25265,1.73348 -0.22293,1.65761 -0.61944,1.58124 z m 13.72864,-0.71663 c -0.0316,-0.0534 -0.77318,-2.90932 -0.79996,-3.08065 -0.0107,-0.0684 0.45185,-0.21834 0.5061,-0.16409 0.0575,0.0575 0.83841,3.15012 0.80406,3.18447 -0.0707,0.0707 -0.47573,0.11857 -0.5102,0.0603 z m -18.0889,-0.21783 c -0.0694,-0.0188 -0.12612,-0.0742 -0.12612,-0.12296 0,-0.0488 0.17821,-0.71938 0.39603,-1.49018 0.21782,-0.77079 0.39619,-1.44006 0.39639,-1.48727 5.7e-4,-0.13274 0.10902,-0.16991 0.3533,-0.12105 0.14078,0.0282 0.2232,0.0881 0.22249,0.16184 -6.4e-4,0.0644 -0.19083,0.78196 -0.4227,1.59455 -0.44181,1.54834 -0.45113,1.565 -0.81939,1.46507 z m 22.18558,-1.0951 c -0.064,-0.10348 -1.19519,-2.98894 -1.17644,-3.00075 0.0929,-0.0585 0.49593,-0.193 0.51431,-0.17164 0.0489,0.0569 1.20238,3.03684 1.18196,3.05366 -0.0711,0.0586 -0.34771,0.18119 -0.40867,0.18119 -0.0399,0 -0.0899,-0.0281 -0.11116,-0.0625 z m -26.22152,-0.33929 c -0.109,-0.059 -0.19819,-0.11663 -0.19819,-0.12798 0,-0.0113 0.26231,-0.63461 0.58291,-1.38505 0.3206,-0.75043 0.61158,-1.43711 0.64661,-1.52596 0.0574,-0.14544 0.0837,-0.15305 0.26392,-0.0764 0.11012,0.0468 0.22505,0.10544 0.25542,0.13025 0.0645,0.0527 -1.18783,3.0452 -1.28617,3.07345 -0.0365,0.0105 -0.15549,-0.0293 -0.2645,-0.0883 z m 30.04738,-1.48787 c -0.14218,-0.22851 -1.48951,-2.72741 -1.48951,-2.76261 0,-0.073 0.45549,-0.25386 0.5052,-0.20064 0.0899,0.0963 1.51277,2.74081 1.51277,2.81169 0,0.0353 -0.0959,0.12084 -0.21309,0.19007 -0.20849,0.12316 -0.2153,0.12233 -0.31537,-0.0385 z m -33.99218,-0.4854 -0.17913,-0.13763 0.1431,-0.24619 c 0.0787,-0.13541 0.45077,-0.78206 0.82683,-1.437 l 0.68375,-1.1908 0.23764,0.11332 c 0.1307,0.0623 0.22841,0.15084 0.21713,0.19669 -0.0474,0.19261 -1.61224,2.84119 -1.67812,2.84026 -0.0396,-5.8e-4 -0.15268,-0.063 -0.2512,-0.13865 z m 15.31062,-0.90091 c -0.23612,-0.23612 -0.23745,-0.60945 -0.003,-0.88212 l 0.17377,-0.20221 1.32169,-0.036 c 0.87128,-0.0238 1.37595,-0.0671 1.48092,-0.1271 0.44334,-0.25353 0.71803,-0.9567 0.59251,-1.5168 -0.0932,-0.41588 -0.22674,-0.60403 -0.56272,-0.79286 -0.2512,-0.14119 -0.38577,-0.1578 -1.27989,-0.15805 -0.86323,-2.1e-4 -1.03051,-0.0194 -1.22948,-0.1407 -0.46102,-0.28109 -0.48788,-0.38464 -0.51422,-1.98168 -0.027,-1.63634 0.0137,-1.86659 0.38758,-2.19488 l 0.25386,-0.2229 h 1.76649 1.76649 l 0.1769,0.1769 c 0.23613,0.23614 0.23745,0.60946 0.003,0.88212 l -0.17379,0.20222 -1.41175,0.0223 -1.41176,0.0223 v 0.96142 0.96143 l 0.9189,0.0276 c 0.78492,0.0236 0.9646,0.0517 1.23236,0.19253 0.73619,0.38732 1.23815,1.0859 1.38685,1.93009 0.19569,1.11097 -0.42891,2.35668 -1.43805,2.86805 -0.35653,0.18067 -0.4014,0.18525 -1.81266,0.18525 -1.44031,0 -1.4479,-8.3e-4 -1.62398,-0.1769 z m 21.2105,-2.21487 c -1.24024,-1.74676 -1.20848,-1.65979 -0.71271,-1.95179 l 0.21638,-0.12744 0.99103,1.38867 c 0.54506,0.76378 1.06781,1.49132 1.16166,1.61678 l 0.17064,0.2281 -0.32316,0.22234 c -0.17774,0.12228 -0.33354,0.22211 -0.34622,0.22182 -0.0127,-2.9e-4 -0.53361,-0.7196 -1.15762,-1.59848 z m -40.00965,0.87522 c -0.15364,-0.11456 -0.29585,-0.2248 -0.31603,-0.24497 -0.0257,-0.0257 1.92661,-2.70546 2.33169,-3.20038 0.0113,-0.0138 0.16522,0.0854 0.34204,0.22039 l 0.3215,0.24548 -1.18096,1.57491 c -0.64952,0.8662 -1.18949,1.58345 -1.19992,1.59388 -0.0104,0.0104 -0.14468,-0.0748 -0.29832,-0.18931 z m 43.58624,-3.31961 c -0.58997,-0.63832 -1.08141,-1.18342 -1.09208,-1.21133 -0.0107,-0.0279 0.0658,-0.12997 0.16996,-0.22678 l 0.18936,-0.17602 0.57725,0.6126 c 0.31749,0.33692 0.82148,0.88106 1.11997,1.20918 l 0.54271,0.59659 -0.16738,0.17817 c -0.0921,0.098 -0.18982,0.17817 -0.21724,0.17817 -0.0274,0 -0.53257,-0.52226 -1.12255,-1.16058 z m -46.94228,0.40719 -0.17067,-0.18167 1.14679,-1.17207 c 0.63074,-0.64464 1.18066,-1.18127 1.22204,-1.19252 0.0414,-0.0112 0.15191,0.0612 0.24561,0.16089 l 0.17035,0.18134 -1.14524,1.17241 c -0.62988,0.64482 -1.17966,1.18161 -1.22172,1.19285 -0.0421,0.0112 -0.15329,-0.0613 -0.24716,-0.16123 z m 38.733,-0.4189 c -0.16848,-0.14493 -0.19448,-0.23074 -0.23091,-0.76235 l -0.0411,-0.59904 -1.08839,0.0206 c -0.76463,0.0145 -1.13641,-0.006 -1.2498,-0.0686 -0.19881,-0.10987 -0.37912,-0.44483 -0.37912,-0.70426 0,-0.19294 1.36917,-5.28715 1.52452,-5.67221 0.0857,-0.21247 0.3893,-0.41101 0.62848,-0.41101 0.0782,0 0.24198,0.084 0.36393,0.18659 0.16757,0.141 0.22174,0.24646 0.22174,0.4317 0,0.19236 -1.11236,4.40909 -1.27471,4.83216 -0.0304,0.0792 0.086,0.099 0.58233,0.099 h 0.62031 v -0.89036 c 0,-0.84519 0.009,-0.90002 0.17674,-1.08105 0.13251,-0.14299 0.24521,-0.19013 0.45044,-0.18841 0.50004,0.004 0.66974,0.26219 0.67088,1.01997 4.3e-4,0.28999 0.0209,0.64887 0.0455,0.79751 0.0372,0.22536 0.0736,0.27027 0.21869,0.27027 0.26629,0 0.52782,0.30466 0.52782,0.61486 0,0.30096 -0.31968,0.6824 -0.5719,0.6824 -0.14249,0 -0.14956,0.0332 -0.13167,0.61831 0.0183,0.59844 0.0124,0.62391 -0.18331,0.79277 -0.26195,0.22601 -0.62535,0.23062 -0.88048,0.0112 z m -31.14934,-0.48923 c -0.79402,-0.15671 -1.59236,-0.77371 -1.94284,-1.50152 -0.27558,-0.57228 -0.31875,-1.60233 -0.10337,-2.46596 0.30925,-1.23999 1.18949,-2.63829 2.33348,-3.70684 0.83241,-0.77751 1.06955,-0.92641 1.38199,-0.8678 0.30395,0.057 0.54549,0.33981 0.54549,0.63864 0,0.184 -0.14019,0.35163 -0.9189,1.09879 -0.50539,0.48491 -1.02992,1.03649 -1.16562,1.22572 l -0.24673,0.34407 0.31116,-0.0417 c 0.72941,-0.0978 1.6515,0.22359 2.192,0.76408 1.53847,1.53848 0.72176,4.112 -1.43126,4.51001 -0.47408,0.0876 -0.52362,0.0878 -0.9554,0.003 z m 1.03891,-1.37002 c 0.24855,-0.0939 0.5773,-0.39718 0.71381,-0.65849 0.0559,-0.10704 0.10168,-0.37621 0.10168,-0.59816 0,-0.4485 -0.10321,-0.69803 -0.40797,-0.98638 -0.26754,-0.25313 -0.5295,-0.34692 -0.96893,-0.34692 -0.58875,0 -1.03214,0.28751 -1.25092,0.81111 -0.37719,0.90273 0.25135,1.84501 1.23577,1.85261 0.20552,0.002 0.46498,-0.0316 0.57656,-0.0738 z m 41.22891,-1.15595 c -0.66394,-0.55839 -1.20717,-1.0428 -1.20717,-1.07647 0,-0.0337 0.073,-0.14233 0.16216,-0.24148 l 0.16215,-0.18026 1.15313,0.97274 c 1.5154,1.27833 1.39581,1.14171 1.19055,1.3602 -0.0939,0.0999 -0.18933,0.1814 -0.21215,0.18109 -0.0228,-2.9e-4 -0.58472,-0.45744 -1.24867,-1.01582 z m -52.8046,0.15845 -0.15407,-0.21637 1.31228,-1.05191 1.31227,-1.05191 0.16508,0.20171 c 0.0908,0.11094 0.16463,0.21793 0.16408,0.23775 -0.001,0.0377 -2.49932,2.038 -2.59225,2.07555 -0.0293,0.0119 -0.12265,-0.0758 -0.20739,-0.19482 z m 55.30331,-3.45013 c -0.71666,-0.46473 -1.30659,-0.87739 -1.31096,-0.91703 -0.004,-0.0396 0.0475,-0.15969 0.11535,-0.26678 l 0.12328,-0.19472 1.33181,0.86925 c 0.73249,0.47809 1.34663,0.88323 1.36475,0.90032 0.0418,0.0394 -0.18157,0.41174 -0.26148,0.43587 -0.0329,0.01 -0.6461,-0.36219 -1.36275,-0.82691 z m -57.78703,-0.0947 c -0.0724,-0.12249 -0.10367,-0.24775 -0.0696,-0.27835 0.12403,-0.11137 2.69661,-1.66105 2.75747,-1.66105 0.0909,0 0.30834,0.3532 0.2628,0.4269 -0.0372,0.0602 -2.73017,1.73521 -2.78979,1.73521 -0.0161,0 -0.0885,-0.10022 -0.16089,-0.22271 z m 52.15921,-2.71706 c -0.37204,-0.13294 -0.80953,-0.42244 -1.05475,-0.69796 -0.33001,-0.3708 -0.65511,-0.95167 -0.65538,-1.17099 -5.7e-4,-0.45645 0.56727,-0.80444 0.92749,-0.56841 0.0948,0.0621 0.29128,0.29208 0.43661,0.51102 0.43763,0.65932 0.8504,0.85428 1.46073,0.68993 0.80233,-0.21605 1.17077,-1.06309 0.80904,-1.86001 -0.17673,-0.38934 -0.44563,-0.63962 -0.90789,-0.84501 -0.4839,-0.21501 -0.67946,-0.46976 -0.67946,-0.88513 0,-0.26202 0.097,-0.50721 0.50928,-1.28755 l 0.50927,-0.96389 h -1.16264 c -0.69502,0 -1.22118,-0.0313 -1.30816,-0.0779 -0.19137,-0.10242 -0.34616,-0.48371 -0.29821,-0.73456 0.021,-0.10989 0.11973,-0.26393 0.21938,-0.34232 0.16879,-0.13277 0.29672,-0.14252 1.86985,-0.14252 1.10174,0 1.74339,0.028 1.8461,0.0805 0.27868,0.14252 0.40637,0.36879 0.40806,0.7231 0.001,0.28326 -0.0896,0.50565 -0.58744,1.4363 l -0.58903,1.10114 0.17463,0.11259 c 0.43711,0.2818 0.94605,0.84668 1.16678,1.29502 0.21048,0.42752 0.23305,0.53632 0.23305,1.12353 0,0.5614 -0.0278,0.71031 -0.20352,1.09055 -0.54363,1.17631 -1.97433,1.82325 -3.12379,1.41253 z m 7.76422,-0.85445 c -0.77043,-0.37234 -1.41532,-0.69151 -1.43309,-0.70928 -0.0544,-0.0544 0.14373,-0.46935 0.22407,-0.46935 0.0642,0 2.77502,1.27389 2.85373,1.34106 0.0347,0.0296 -0.1385,0.45465 -0.19926,0.48917 -0.0246,0.014 -0.67502,-0.27926 -1.44545,-0.6516 z m -61.98602,-0.3161 c -0.0498,-0.12018 -0.0697,-0.23931 -0.0443,-0.26472 0.0254,-0.0254 0.70273,-0.34379 1.50516,-0.70751 l 1.45896,-0.66131 0.13133,0.24817 c 0.0722,0.13649 0.12088,0.25691 0.10811,0.26759 -0.0569,0.0476 -2.96193,1.33631 -3.01233,1.33631 -0.031,0 -0.0971,-0.0983 -0.14692,-0.21853 z m 6.99178,-2.35483 c -0.24487,-0.0895 -0.43242,-0.33787 -0.43242,-0.5726 0,-0.17448 1.45788,-4.3131 2.2874,-6.49345 0.0268,-0.0703 -0.30805,-0.0901 -1.52849,-0.0901 h -1.56277 l -0.21067,-0.21066 c -0.27533,-0.27533 -0.28939,-0.65408 -0.0338,-0.9097 l 0.1769,-0.1769 h 2.02483 c 1.63165,0 2.06422,0.0204 2.22774,0.10493 0.21231,0.10979 0.43856,0.49647 0.43856,0.74955 0,0.13953 -2.30906,6.54141 -2.59681,7.19967 -0.16274,0.37228 -0.45729,0.52105 -0.7905,0.39925 z m 56.28692,-1.29796 c -1.01079,-0.33923 -1.84921,-0.62645 -1.86315,-0.63828 -0.0408,-0.0346 0.21231,-0.75154 0.26535,-0.75154 0.0265,0 0.88456,0.27877 1.90674,0.61949 1.75164,0.58386 1.85579,0.62841 1.81117,0.77475 -0.0714,0.23403 -0.23601,0.6245 -0.26062,0.61804 -0.0119,-0.003 -0.84871,-0.28324 -1.85949,-0.62246 z m -64.75243,0.0324 c -0.16108,-0.51434 -0.19232,-0.64403 -0.16235,-0.674 0.0358,-0.0358 3.65183,-1.1806 3.72901,-1.1806 0.0645,0 0.28012,0.71612 0.22563,0.74923 -0.0261,0.0158 -0.84196,0.27695 -1.81311,0.58027 -0.97114,0.30332 -1.80749,0.56555 -1.85854,0.58273 -0.051,0.0172 -0.10534,-0.009 -0.12064,-0.0576 z m 66.10973,-3.89921 c -0.77957,-0.16372 -1.4402,-0.32049 -1.46807,-0.34837 -0.0279,-0.0279 -0.0304,-0.1588 -0.006,-0.29095 l 0.0451,-0.24025 1.56715,0.31683 c 0.86192,0.17425 1.57734,0.32619 1.5898,0.33763 0.0125,0.0114 7.5e-4,0.13764 -0.026,0.28042 -0.0335,0.17848 -0.0856,0.25692 -0.1668,0.25099 -0.065,-0.005 -0.75593,-0.14258 -1.5355,-0.3063 z m -67.19262,-0.64741 c -0.0137,-0.0455 -0.0443,-0.17115 -0.0679,-0.27926 -0.0508,-0.23227 -0.19085,-0.18896 1.58049,-0.48882 0.7135,-0.12078 1.38458,-0.23705 1.49129,-0.25839 0.1761,-0.0352 0.19854,-0.0147 0.24288,0.22163 0.0269,0.14323 0.0369,0.27174 0.0222,0.28559 -0.0147,0.0138 -0.51315,0.10958 -1.10773,0.21276 -0.59458,0.10318 -1.31848,0.23296 -1.60866,0.28839 -0.38996,0.0745 -0.53411,0.0792 -0.55253,0.0181 z m 67.81725,-3.49942 -1.51347,-0.11471 -0.0224,-0.27027 -0.0224,-0.27026 0.38272,7.4e-4 c 0.37948,7.4e-4 1.75948,0.10273 2.49479,0.18438 l 0.38238,0.0425 -0.022,0.25901 c -0.0121,0.14245 -0.0545,0.26449 -0.0941,0.27118 -0.0396,0.007 -0.75314,-0.0394 -1.58555,-0.10253 z m -68.35869,-1.10964 c 0,-0.18248 0.0364,-0.26709 0.12612,-0.29294 0.0694,-0.02 0.69368,-0.0562 1.38735,-0.0804 0.69368,-0.0242 1.37923,-0.0609 1.52345,-0.0816 0.26062,-0.0373 0.26239,-0.0358 0.2896,0.24947 l 0.0274,0.28704 -0.36166,0.0397 c -0.19892,0.0218 -0.95354,0.0612 -1.67695,0.0875 l -1.31528,0.0478 z m 66.88125,-3.20669 v -0.28984 l 0.59458,-0.0461 c 0.32702,-0.0253 1.04862,-0.0526 1.60357,-0.0605 l 1.00898,-0.0145 0.0218,0.26092 0.0218,0.26093 -1.39114,0.0495 c -0.76514,0.0272 -1.49656,0.0675 -1.62538,0.0894 -0.23205,0.0396 -0.23423,0.0372 -0.23423,-0.2499 z m -65.22363,-0.7382 c -0.85224,-0.0688 -1.55762,-0.1287 -1.56753,-0.13312 -0.01,-0.004 -0.018,-0.13571 -0.018,-0.29177 0,-0.27811 0.005,-0.28316 0.23423,-0.25435 0.12882,0.0162 0.7207,0.0636 1.31528,0.10552 0.59458,0.0419 1.23687,0.0948 1.4273,0.11752 l 0.34625,0.0414 -0.0219,0.25739 c -0.0121,0.14157 -0.0544,0.26305 -0.094,0.26996 -0.0396,0.007 -0.76935,-0.0437 -1.62158,-0.11253 z m 8.77912,-1.79343 c -0.50763,-0.19849 -0.81077,-0.40743 -1.1687,-0.80552 -0.47206,-0.52505 -0.64102,-1.02762 -0.60325,-1.79434 0.0349,-0.70924 0.22696,-1.16447 0.70169,-1.66351 l 0.287,-0.3017 -0.13276,-0.18854 c -0.37605,-0.53403 -0.47028,-0.82293 -0.47288,-1.44976 -0.002,-0.56953 0.0156,-0.64554 0.25514,-1.08106 0.55917,-1.01652 1.65048,-1.45322 2.78767,-1.11551 0.49056,0.14569 1.09718,0.69948 1.36434,1.24554 0.35909,0.73395 0.22945,1.82888 -0.28085,2.37208 l -0.15183,0.16161 0.34056,0.3641 c 0.64794,0.69269 0.87846,1.52283 0.66092,2.38007 -0.21908,0.86336 -0.8764,1.57524 -1.73222,1.87604 -0.52041,0.18291 -1.38772,0.18314 -1.85483,5.1e-4 z m 1.52192,-1.48018 c 0.53308,-0.27566 0.75462,-0.83448 0.54669,-1.37894 -0.29911,-0.7832 -1.32553,-0.9889 -1.99039,-0.39889 -0.28388,0.25192 -0.30807,0.30226 -0.33586,0.69904 -0.0252,0.36023 -0.003,0.46614 0.13859,0.67249 0.0927,0.13471 0.28154,0.30498 0.41966,0.37837 0.30555,0.16237 0.93356,0.17673 1.22131,0.0279 z m -0.089,-3.85518 c 0.33507,-0.20431 0.47098,-0.45342 0.47098,-0.86327 0,-1.28185 -1.8533,-1.37187 -2.00883,-0.0976 -0.0962,0.78804 0.85085,1.37974 1.53785,0.96085 z m 54.55501,3.83981 c -0.0239,-0.14736 -0.0363,-0.2751 -0.0275,-0.28387 0.009,-0.009 0.70783,-0.13762 1.55347,-0.28633 1.66075,-0.29205 1.69415,-0.28978 1.65195,0.11216 -0.0181,0.1724 -0.0593,0.1849 -1.35197,0.41023 -0.73332,0.12782 -1.43436,0.25116 -1.55787,0.27408 -0.21336,0.0396 -0.22673,0.0283 -0.26804,-0.22627 z m -63.10945,-0.64268 c -0.25765,-0.0553 -0.96639,-0.20343 -1.57498,-0.32927 l -1.10653,-0.22879 0.0404,-0.24899 c 0.0222,-0.13695 0.0533,-0.26189 0.0691,-0.27765 0.0276,-0.0276 3.15413,0.60456 3.19575,0.64619 0.0385,0.0384 -0.0659,0.55347 -0.11062,0.54621 -0.0245,-0.004 -0.25543,-0.0525 -0.51308,-0.1077 z m 53.58428,-1.96751 c -0.70229,-0.0472 -0.9595,-0.15897 -1.10598,-0.48045 -0.22224,-0.48777 0.015,-1.24002 0.65775,-2.08564 0.43669,-0.57451 0.71849,-0.83966 1.74033,-1.63747 0.99206,-0.77456 1.19433,-1.06102 1.19433,-1.69141 0,-0.52193 -0.14515,-0.83485 -0.50976,-1.09898 -0.34818,-0.25221 -0.79368,-0.29572 -1.14864,-0.11217 -0.24042,0.12433 -0.50473,0.55039 -0.68154,1.09863 -0.18128,0.5621 -0.5096,0.72734 -0.97106,0.48871 -0.29409,-0.15208 -0.37696,-0.44638 -0.25542,-0.90709 0.24791,-0.9398 0.90652,-1.74076 1.62858,-1.98059 0.53931,-0.17913 1.34774,-0.11906 1.85021,0.13748 1.43327,0.73177 1.82267,2.41899 0.9099,3.94243 -0.1809,0.30193 -0.4247,0.54255 -0.9819,0.96911 -0.85633,0.65555 -1.71137,1.48011 -1.88556,1.81835 l -0.12062,0.23423 h 1.26539 c 1.34695,0 1.67832,0.0632 1.83153,0.34951 0.12971,0.24236 0.0901,0.56514 -0.0959,0.78158 l -0.17378,0.20221 -1.24961,0.008 c -0.68729,0.004 -1.5415,-0.012 -1.89825,-0.036 z m 7.86204,-1.21077 c -0.0634,-0.18608 -0.0908,-0.36088 -0.0608,-0.38844 0.0439,-0.0404 1.80779,-0.61052 3.45573,-1.11692 l 0.30224,-0.0929 0.10878,0.37107 c 0.0598,0.2041 0.0978,0.38201 0.0845,0.39536 -0.0349,0.0349 -3.63596,1.17013 -3.7118,1.17013 -0.0348,0 -0.11522,-0.15225 -0.17862,-0.33833 z m -61.32415,-0.70466 c -0.98324,-0.32918 -1.80254,-0.61336 -1.82069,-0.63151 -0.0181,-0.0181 0.0198,-0.19643 0.0843,-0.39619 l 0.1173,-0.3632 1.81149,0.60423 c 0.99633,0.33232 1.84967,0.61857 1.89633,0.6361 0.10671,0.0401 -0.10879,0.76426 -0.22471,0.75512 -0.042,-0.003 -0.8808,-0.27536 -1.86403,-0.60455 z m 60.65424,-3.10186 c -0.0655,-0.13729 -0.10512,-0.26039 -0.0881,-0.27354 0.0811,-0.0627 2.80736,-1.27516 2.86719,-1.27516 0.0745,0 0.24799,0.43518 0.19473,0.48845 -0.0294,0.0294 -1.77083,0.83224 -2.54649,1.17404 l -0.30829,0.13584 z m -59.31789,-1.12145 -1.46033,-0.70684 0.12053,-0.25275 c 0.11818,-0.24783 0.12486,-0.25086 0.34324,-0.15585 0.30544,0.1329 2.66642,1.27525 2.70082,1.30679 0.0344,0.0316 -0.13811,0.45633 -0.19926,0.49052 -0.0246,0.0137 -0.70182,-0.2931 -1.505,-0.68187 z m 14.30011,-1.44579 c -0.17193,-0.0999 -0.34763,-0.52167 -0.28709,-0.6891 0.0259,-0.0716 0.42763,-0.50312 0.89279,-0.95896 0.50828,-0.49811 0.93468,-0.98698 1.06864,-1.2252 0.1226,-0.21801 0.22321,-0.41593 0.22358,-0.43981 3.6e-4,-0.0239 -0.23445,-0.0405 -0.52183,-0.037 -0.44987,0.006 -0.58905,-0.026 -1.00118,-0.2268 -0.60988,-0.29711 -1.20817,-0.92461 -1.43974,-1.51003 -0.22755,-0.57523 -0.22474,-1.40119 0.007,-1.99739 0.48888,-1.25893 1.97083,-1.8994 3.26543,-1.41126 0.57972,0.21859 1.20521,0.81076 1.50971,1.42929 0.22287,0.45271 0.23549,0.521 0.2352,1.27267 -2.9e-4,0.75931 -0.0155,0.83858 -0.34446,1.80015 -0.39502,1.15452 -0.67978,1.69985 -1.27197,2.43585 -0.39035,0.48514 -1.17318,1.23289 -1.58841,1.51722 -0.20072,0.13745 -0.5482,0.15623 -0.74746,0.0404 z m 1.99835,-4.8228 c 0.50667,-0.23816 0.64629,-0.43486 0.67687,-0.95362 0.0533,-0.9042 -0.52581,-1.5652 -1.37133,-1.5652 -0.74299,0 -1.23142,0.51293 -1.2307,1.29242 9.8e-4,1.05667 0.97127,1.67478 1.92516,1.2264 z m 41.13203,3.83399 -0.15291,-0.21475 1.35192,-0.8341 1.35193,-0.83411 0.1618,0.19745 c 0.089,0.1086 0.16196,0.21415 0.16215,0.23456 3.6e-4,0.0406 -2.44418,1.55909 -2.61605,1.62505 -0.0652,0.025 -0.16478,-0.042 -0.25884,-0.1741 z m -55.37991,-1.28017 -1.35564,-0.89419 0.15337,-0.2154 c 0.0844,-0.11846 0.16557,-0.21539 0.18047,-0.21539 0.07,0 2.65959,1.71141 2.67894,1.77046 0.0121,0.037 -0.0507,0.15314 -0.13972,0.25802 l -0.16177,0.19069 z m 41.63007,0.24696 c -0.32192,-0.15563 -0.32844,-0.26028 -0.25503,-4.0952 0.0653,-3.41007 0.0772,-3.62627 0.20948,-3.80347 0.27838,-0.37286 0.90305,-0.31841 1.09148,0.0952 0.11304,0.24808 -0.0256,7.40342 -0.14717,7.59815 -0.16599,0.2658 -0.57871,0.3601 -0.89876,0.20537 z m 11.48035,-2.182 c -0.064,-0.0977 -0.11639,-0.19442 -0.11639,-0.21493 0,-0.0505 2.45123,-2.01209 2.47087,-1.97728 0.009,0.0152 0.0914,0.11383 0.18419,0.21928 l 0.16864,0.19171 -1.22223,0.97943 c -0.67222,0.53868 -1.25518,0.97943 -1.29545,0.97943 -0.0403,0 -0.12561,-0.0799 -0.18963,-0.17764 z m -50.62823,-1.37276 c -0.63534,-0.53561 -1.17705,-1.00924 -1.20379,-1.05252 -0.0267,-0.0433 0.0335,-0.16084 0.13396,-0.26126 l 0.18258,-0.18259 1.14159,0.9586 c 0.62787,0.52723 1.1884,1.00127 1.24563,1.05344 0.0898,0.0819 0.0807,0.11964 -0.0666,0.2765 -0.0939,0.0999 -0.19485,0.18166 -0.22442,0.18166 -0.0296,0 -0.57359,-0.43822 -1.20893,-0.97383 z m 24.82708,-0.15329 c -0.71862,-0.22066 -1.34331,-1.0834 -1.71552,-2.36925 -0.14843,-0.51277 -0.1661,-0.72113 -0.16191,-1.9089 0.004,-1.24165 0.0183,-1.37778 0.20264,-1.98035 0.32963,-1.07755 0.76808,-1.73734 1.40227,-2.11015 0.47876,-0.28144 1.13134,-0.28107 1.61104,9.1e-4 0.62359,0.36658 1.14152,1.19192 1.44308,2.29961 0.2205,0.80991 0.23669,2.76697 0.0294,3.5557 -0.34942,1.32964 -1.03618,2.29659 -1.79017,2.5205 -0.44679,0.13268 -0.56551,0.13174 -1.02084,-0.008 z m 0.87036,-1.48543 c 0.40581,-0.42761 0.62937,-1.05972 0.74684,-2.11159 0.16348,-1.46387 -0.29459,-3.23737 -0.92304,-3.5737 -0.25521,-0.13659 -0.49654,0.0301 -0.77602,0.53602 -0.78802,1.42647 -0.62696,4.29316 0.29289,5.213 0.23048,0.23049 0.39525,0.21456 0.65933,-0.0637 z m 22.23447,0.0696 c -0.0873,-0.0929 -0.15713,-0.19932 -0.15516,-0.2364 0.002,-0.0371 0.48728,-0.57012 1.07846,-1.18451 l 1.0749,-1.11709 0.19418,0.19323 0.19419,0.19324 -0.36665,0.41936 c -0.20165,0.23065 -0.70291,0.75276 -1.11391,1.16026 l -0.74726,0.74089 z m -44.98648,-1.39963 c -1.2638,-1.3711 -1.20782,-1.28708 -1.00283,-1.50528 0.0911,-0.097 0.18884,-0.16766 0.2171,-0.15699 0.0829,0.0313 2.15507,2.29544 2.15507,2.35469 0,0.0571 -0.31155,0.36883 -0.365,0.36524 -0.0173,-0.001 -0.46922,-0.4771 -1.00434,-1.05766 z m 41.54043,-0.60591 c -0.15409,-0.12336 -0.27185,-0.25373 -0.26167,-0.28973 0.0102,-0.036 0.54098,-0.76179 1.17957,-1.61289 l 1.16108,-1.54745 0.29786,0.22949 c 0.16383,0.12622 0.30862,0.23669 0.32175,0.24548 0.0265,0.0177 -2.35384,3.19937 -2.39354,3.19937 -0.0137,0 -0.15095,-0.10092 -0.30505,-0.22427 z m -8.00186,-0.24468 c -0.0229,-0.0597 0.0475,-0.31841 0.15649,-0.57485 l 0.19817,-0.46627 -0.15382,-0.12782 c -0.10653,-0.0885 -0.1339,-0.15895 -0.089,-0.22907 0.0543,-0.0849 0.12964,-0.0749 0.46521,0.0613 0.22023,0.0894 0.43692,0.2065 0.48153,0.26025 0.12253,0.14765 0.009,0.26238 -0.21148,0.21392 -0.18285,-0.0402 -0.20774,-0.0126 -0.41962,0.46424 -0.22134,0.49817 -0.34495,0.61335 -0.42746,0.39833 z m -30.25937,-1.55746 c -0.59458,-0.83529 -1.10541,-1.56145 -1.13517,-1.61369 -0.0582,-0.10213 0.49686,-0.56437 0.60066,-0.50022 0.031,0.0192 0.48575,0.64236 1.01055,1.38489 0.5248,0.74254 1.03076,1.45185 1.12437,1.57627 l 0.17018,0.2262 -0.30491,0.22424 c -0.1677,0.12333 -0.32285,0.22351 -0.34477,0.22263 -0.0219,-8.9e-4 -0.52633,-0.68503 -1.12091,-1.52032 z m 28.27836,0.80081 c -0.14382,-0.076 -0.27847,-0.18244 -0.29924,-0.23655 -0.0347,-0.0905 0.39558,-1.16994 0.51619,-1.29494 0.0696,-0.0722 0.69628,0.14415 0.80817,0.27898 0.15332,0.18473 -0.0242,0.27307 -0.32799,0.16322 -0.22526,-0.0815 -0.27303,-0.0799 -0.33037,0.0108 -0.0984,0.15564 -0.0874,0.18266 0.11094,0.27305 0.25798,0.11755 0.24455,0.33318 -0.0167,0.26762 -0.32708,-0.0821 -0.33944,-0.0796 -0.36305,0.073 -0.0168,0.10841 0.0442,0.17931 0.23098,0.26836 0.17497,0.0834 0.24067,0.15519 0.21157,0.23103 -0.0556,0.14498 -0.22075,0.13443 -0.54052,-0.0345 z m -18.53511,-0.30589 c -0.30516,-0.74235 -0.5086,-1.42583 -0.44372,-1.49071 0.0389,-0.0389 0.10468,-0.0478 0.14606,-0.0198 0.094,0.0637 0.60822,1.42406 0.60822,1.60883 0,0.22059 -0.20631,0.15525 -0.31056,-0.0983 z m 1.30082,-0.46846 c -0.41121,-0.4293 -0.55497,-1.24608 -0.26956,-1.53149 0.18293,-0.18292 0.29341,-0.18151 0.53282,0.007 0.60513,0.47599 0.66454,1.72287 0.0821,1.72287 -0.0855,0 -0.24094,-0.0892 -0.34535,-0.19819 z m 0.45115,-0.41727 c 0,-0.48281 -0.35592,-1.09464 -0.53348,-0.91707 -0.15234,0.15233 0.0596,0.97498 0.29735,1.15417 0.19572,0.14751 0.23613,0.10694 0.23613,-0.2371 z m 14.8331,0.42027 c -0.1461,-0.06 -0.27922,-0.14605 -0.29583,-0.19119 -0.0166,-0.0451 0.0551,-0.35774 0.15945,-0.69467 0.21134,-0.68268 0.26338,-0.72062 0.79281,-0.57806 0.22016,0.0593 0.29387,0.11549 0.29387,0.2241 0,0.12781 -0.0402,0.14241 -0.33983,0.12334 -0.26781,-0.017 -0.34496,0.003 -0.36403,0.0962 -0.016,0.0781 0.0522,0.14441 0.20218,0.19671 0.30755,0.10721 0.24033,0.26835 -0.1005,0.24092 -0.22079,-0.0178 -0.26267,0.002 -0.26267,0.12146 0,0.0975 0.0797,0.17141 0.25225,0.23381 0.16101,0.0582 0.25224,0.13811 0.25224,0.22087 0,0.15903 -0.21298,0.16139 -0.58994,0.007 z m -13.4487,-0.49423 c -0.21313,-0.14929 -0.44028,-0.6053 -0.49113,-0.98598 -0.11565,-0.86562 0.58694,-1.04567 0.997,-0.2555 0.4222,0.81355 0.0805,1.65217 -0.50587,1.24148 z m 0.3894,-0.36212 c 0.0816,-0.32528 -0.25806,-1.11056 -0.4804,-1.11056 -0.22047,0 -0.11413,0.76747 0.15348,1.10768 0.18764,0.23855 0.26759,0.23925 0.32692,0.003 z m 10.8889,0.28078 c -0.0506,-0.0837 0.16592,-1.19422 0.25371,-1.30126 0.14911,-0.18179 0.96875,-0.0504 0.90222,0.14459 -0.0181,0.053 -0.15831,0.0896 -0.34295,0.0896 -0.28145,0 -0.31775,0.02 -0.36656,0.20242 -0.036,0.13457 -0.0257,0.21076 0.0308,0.22731 0.28984,0.0849 0.34612,0.1203 0.31965,0.20093 -0.0163,0.0495 -0.13046,0.10006 -0.25378,0.1123 -0.16683,0.0165 -0.22997,0.0625 -0.2467,0.17944 -0.0223,0.15568 -0.22875,0.25645 -0.29639,0.14463 z m 11.28266,-0.39825 c -0.0892,-0.043 -0.16216,-0.10766 -0.16216,-0.14365 0,-0.0636 1.41249,-2.55487 1.51685,-2.67535 0.0511,-0.059 0.50112,0.13235 0.50112,0.21313 0,0.12123 -1.54031,2.69307 -1.61046,2.68895 -0.0457,-0.003 -0.15616,-0.0401 -0.24535,-0.0831 z m -32.08898,-1.62275 c -0.40282,-0.74269 -0.73795,-1.3797 -0.74474,-1.41556 -0.007,-0.0359 0.089,-0.12609 0.21284,-0.2005 l 0.22517,-0.13529 0.7658,1.4065 c 0.42119,0.77358 0.7658,1.42198 0.7658,1.4409 0,0.0346 -0.39634,0.25431 -0.45886,0.25431 -0.0185,0 -0.36318,-0.60766 -0.76601,-1.35036 z m 28.48546,-0.1645 c -0.0892,-0.0363 -0.16216,-0.0966 -0.16216,-0.13396 0,-0.057 1.14126,-2.811 1.19255,-2.87781 0.009,-0.0122 0.13346,0.0264 0.27571,0.0858 l 0.25864,0.10807 -0.22443,0.52677 c -0.12344,0.28972 -0.39515,0.93217 -0.60381,1.42765 -0.20866,0.49548 -0.42324,0.90732 -0.47686,0.91519 -0.0536,0.008 -0.17045,-0.0154 -0.25964,-0.0517 z m -24.26431,-0.20615 c -0.0589,-0.0953 -1.12246,-2.83314 -1.12246,-2.88944 0,-0.0929 0.43472,-0.24556 0.49735,-0.17461 0.0504,0.0571 1.04918,2.55745 1.13588,2.8436 0.024,0.0792 -0.0421,0.13592 -0.22293,0.19142 -0.14137,0.0434 -0.2709,0.0564 -0.28784,0.029 z m 20.60674,-1.0695 c -0.0793,-0.0188 -0.17107,-0.0596 -0.20399,-0.0907 -0.0329,-0.0311 0.0865,-0.57114 0.26547,-1.20018 0.17893,-0.62905 0.36464,-1.30125 0.41269,-1.49378 0.0867,-0.347479 0.0892,-0.349759 0.33804,-0.309379 0.13787,0.0224 0.26582,0.0558 0.28433,0.0743 0.0563,0.0563 -0.80303,3.022899 -0.88032,3.038949 -0.0396,0.008 -0.13694,-4.4e-4 -0.21622,-0.0193 z m -17.25743,-1.59663 c -0.20849,-0.81762 -0.38373,-1.515599 -0.38943,-1.551049 -0.0115,-0.0716 0.4528,-0.2171 0.51002,-0.15989 0.0404,0.0404 0.8164,3.020479 0.79223,3.042239 -0.008,0.008 -0.13199,0.0457 -0.27455,0.0846 l -0.2592,0.0707 z m 8.21261,-0.87776 v -2.021739 l 0.37837,0.0218 0.37837,0.0218 0.0192,1.999949 0.0192,1.99996 h -0.39752 -0.39753 z m 4.99087,1.61052 c -0.0892,-0.0172 -0.16216,-0.0708 -0.16216,-0.11918 0,-0.14088 0.4414,-3.034059 0.46677,-3.059419 0.0127,-0.0127 0.14231,-6.1e-4 0.28814,0.0267 0.22307,0.0418 0.25966,0.074 0.23052,0.20284 -0.019,0.0842 -0.12613,0.79362 -0.23797,1.576489 -0.21581,1.51072 -0.18939,1.44878 -0.5853,1.37252 z m -8.91532,-0.11255 c -0.0149,-0.0489 -0.0469,-0.25099 -0.0711,-0.44918 -0.0241,-0.1982 -0.10742,-0.8589 -0.18511,-1.46823 -0.0777,-0.609329 -0.12364,-1.136349 -0.10213,-1.171139 0.0475,-0.0769 0.53515,-0.0853 0.53492,-0.009 -7e-5,0.0297 0.084,0.72943 0.1868,1.554889 0.10283,0.82547 0.17588,1.50998 0.16232,1.52114 -0.0135,0.0112 -0.13128,0.0406 -0.26161,0.0654 -0.15863,0.0302 -0.24596,0.0158 -0.26414,-0.0437 z"
       id="path2033"
       inkscape:connector-curvature="0" />
  </g>
</svg>
