<?xml version="1.0" encoding="UTF-8" standalone="no"?>
<!-- Created with Inkscape (http://www.inkscape.org/) -->

<svg
   xmlns:dc="http://purl.org/dc/elements/1.1/"
   xmlns:cc="http://creativecommons.org/ns#"
   xmlns:rdf="http://www.w3.org/1999/02/22-rdf-syntax-ns#"
   xmlns:svg="http://www.w3.org/2000/svg"
   xmlns="http://www.w3.org/2000/svg"
   xmlns:sodipodi="http://sodipodi.sourceforge.net/DTD/sodipodi-0.dtd"
   xmlns:inkscape="http://www.inkscape.org/namespaces/inkscape"
   width="41.025871mm"
   height="41.025871mm"
   viewBox="0 0 41.025871 41.025871"
   version="1.1"
   id="svg1477"
   sodipodi:docname="I_Plate.000A.svg"
   inkscape:version="0.92.3 (2405546, 2018-03-11)">
  <defs
     id="defs1471" />
  <sodipodi:namedview
     id="base"
     pagecolor="#ffffff"
     bordercolor="#666666"
     borderopacity="1.0"
     inkscape:pageopacity="0.0"
     inkscape:pageshadow="2"
     inkscape:zoom="1.979899"
     inkscape:cx="81.766121"
     inkscape:cy="82.02567"
     inkscape:document-units="mm"
     inkscape:current-layer="layer1"
     showgrid="false"
     inkscape:window-width="1542"
     inkscape:window-height="1103"
     inkscape:window-x="4760"
     inkscape:window-y="110"
     inkscape:window-maximized="0"
     showguides="true"
     inkscape:guide-bbox="true">
    <sodipodi:guide
       position="20.446119,-12.561678"
       orientation="1,0"
       id="guide2247"
       inkscape:locked="false" />
    <sodipodi:guide
       position="-9.2207986,20.579743"
       orientation="0,1"
       id="guide2249"
       inkscape:locked="false" />
    <sodipodi:guide
       position="-7.0716052e-08,21.782458"
       orientation="1,0"
       id="guide2251"
       inkscape:locked="false" />
    <sodipodi:guide
       position="41.025872,8.1517097"
       orientation="1,0"
       id="guide2253"
       inkscape:locked="false" />
    <sodipodi:guide
       position="-13.363476,41.025862"
       orientation="0,1"
       id="guide2255"
       inkscape:locked="false" />
    <sodipodi:guide
       position="21.64883,-1.0231163e-05"
       orientation="0,1"
       id="guide2257"
       inkscape:locked="false" />
  </sodipodi:namedview>
  <metadata
     id="metadata1474">
    <rdf:RDF>
      <cc:Work
         rdf:about="">
        <dc:format>image/svg+xml</dc:format>
        <dc:type
           rdf:resource="http://purl.org/dc/dcmitype/StillImage" />
        <dc:title></dc:title>
      </cc:Work>
    </rdf:RDF>
  </metadata>
  <g
     inkscape:label="Layer 1"
     inkscape:groupmode="layer"
     id="layer1"
     transform="translate(-3.6081386,-246.21878)">
    <path
       style="fill:#000000;stroke-width:0.04003906"
       d="m 23.519718,267.33305 c -0.371561,-0.18392 -0.582768,-0.61596 -0.490053,-1.00244 0.158162,-0.65929 0.939482,-0.93512 1.451314,-0.51236 0.427904,0.35344 0.437977,1.02758 0.02061,1.3795 -0.280551,0.23655 -0.669142,0.2901 -0.981875,0.1353 z M 7.6676959,263.73367 c -0.106437,-0.0429 -0.2144893,-0.19244 -0.2144893,-0.29675 0,-0.0431 0.088978,-0.39496 0.1977285,-0.78186 1.1777939,-4.19023 1.1363206,-4.05744 1.3186713,-4.22235 0.1058104,-0.0957 0.3556174,-0.0991 0.4964914,-0.007 0.06355,0.0416 0.130009,0.14442 0.1686918,0.26088 0.0528,0.15897 0.4379364,1.72735 1.0497634,4.27494 0.125796,0.52381 0.10993,0.62862 -0.113353,0.74884 -0.126456,0.0681 -0.158792,0.071 -0.270994,0.0245 -0.143538,-0.0595 -0.197272,-0.14135 -0.263706,-0.40192 l -0.046,-0.1804 -0.862767,-0.0108 -0.8627669,-0.0108 -0.067162,0.23936 c -0.096149,0.34267 -0.2757998,0.46572 -0.5301123,0.36309 z m 2.1478155,-1.29235 c 0,-0.0479 -0.6002249,-2.36452 -0.6169712,-2.38127 -0.011973,-0.012 -0.030746,0.003 -0.041719,0.034 -0.051162,0.14305 -0.6625993,2.28143 -0.6625993,2.31731 0,0.026 0.2396086,0.0407 0.6606446,0.0407 0.3633543,0 0.6606439,-0.005 0.6606439,-0.0108 z m 8.1079096,1.29572 c -0.04404,-0.0189 -0.116113,-0.0743 -0.160156,-0.1233 -0.077,-0.0856 -0.07969,-0.13777 -0.0699,-1.35604 0.0056,-0.69687 0.02151,-1.69339 0.03535,-2.21449 l 0.02517,-0.94745 -0.484992,-0.0135 c -0.467477,-0.013 -0.488964,-0.0175 -0.594989,-0.12359 -0.152824,-0.15298 -0.153466,-0.38695 -0.0015,-0.53894 l 0.108519,-0.10852 1.119761,-0.0164 c 0.615869,-0.009 1.204008,-0.004 1.306975,0.0116 0.242439,0.0364 0.377354,0.16607 0.377354,0.36281 0,0.31967 -0.171323,0.4196 -0.719417,0.4196 h -0.361638 l -0.0046,0.69067 c -0.0025,0.37987 -0.01605,1.37946 -0.03003,2.22132 l -0.02542,1.53064 -0.100098,0.1 c -0.111222,0.11109 -0.298036,0.15802 -0.42041,0.10562 z m -5.295532,-0.0836 c -0.07177,-0.0438 -0.16653,-0.13829 -0.210574,-0.21006 -0.07807,-0.12722 -0.07982,-0.19113 -0.0697,-2.54633 l 0.01038,-2.41584 0.11234,-0.0966 c 0.157453,-0.13541 0.382172,-0.13171 0.522492,0.009 l 0.105223,0.10522 0.01034,2.22705 0.01034,2.22706 0.960938,0.003 c 0.528515,10e-4 0.993287,0.006 1.032825,0.01 0.03954,0.004 0.116114,0.0517 0.170166,0.10575 0.107142,0.10714 0.132551,0.32342 0.05502,0.46829 -0.0931,0.17396 -0.243926,0.19419 -1.446908,0.19403 -1.059323,-1.2e-4 -1.140809,-0.005 -1.262882,-0.0797 z"
       id="path2259"
       inkscape:connector-curvature="0" />
  </g>
</svg>
