<?xml version="1.0" encoding="UTF-8" standalone="no"?>
<!-- Created with Inkscape (http://www.inkscape.org/) -->

<svg
   xmlns:dc="http://purl.org/dc/elements/1.1/"
   xmlns:cc="http://creativecommons.org/ns#"
   xmlns:rdf="http://www.w3.org/1999/02/22-rdf-syntax-ns#"
   xmlns:svg="http://www.w3.org/2000/svg"
   xmlns="http://www.w3.org/2000/svg"
   xmlns:sodipodi="http://sodipodi.sourceforge.net/DTD/sodipodi-0.dtd"
   xmlns:inkscape="http://www.inkscape.org/namespaces/inkscape"
   width="70.773399mm"
   height="71mm"
   viewBox="0 0 70.773399 71"
   version="1.1"
   id="svg3555"
   inkscape:version="0.92.3 (2405546, 2018-03-11)"
   sodipodi:docname="I_plate_02A.svg">
  <defs
     id="defs3549" />
  <sodipodi:namedview
     id="base"
     pagecolor="#ffffff"
     bordercolor="#666666"
     borderopacity="1.0"
     inkscape:pageopacity="0.0"
     inkscape:pageshadow="2"
     inkscape:zoom="2"
     inkscape:cx="8.6301544"
     inkscape:cy="225.46354"
     inkscape:document-units="mm"
     inkscape:current-layer="layer1"
     showgrid="false"
     showguides="true"
     inkscape:guide-bbox="true"
     inkscape:window-width="2560"
     inkscape:window-height="1380"
     inkscape:window-x="3840"
     inkscape:window-y="0"
     inkscape:window-maximized="1">
    <sodipodi:guide
       position="-8.686257,70.999999"
       orientation="0,1"
       id="guide4123"
       inkscape:locked="false" />
    <sodipodi:guide
       position="-0.13363334,39.72947"
       orientation="1,0"
       id="guide4127"
       inkscape:locked="false" />
    <sodipodi:guide
       position="70.7734,-0.093678287"
       orientation="1,0"
       id="guide4129"
       inkscape:locked="false" />
    <sodipodi:guide
       position="57.596582,-0.093688287"
       orientation="0,1"
       id="guide4131"
       inkscape:locked="false" />
    <sodipodi:guide
       position="14.833458,35.413211"
       orientation="0,1"
       id="guide4148"
       inkscape:locked="false" />
    <sodipodi:guide
       position="35.279577,7.750816"
       orientation="1,0"
       id="guide4150"
       inkscape:locked="false" />
  </sodipodi:namedview>
  <metadata
     id="metadata3552">
    <rdf:RDF>
      <cc:Work
         rdf:about="">
        <dc:format>image/svg+xml</dc:format>
        <dc:type
           rdf:resource="http://purl.org/dc/dcmitype/StillImage" />
        <dc:title></dc:title>
      </cc:Work>
    </rdf:RDF>
  </metadata>
  <g
     inkscape:label="Layer 1"
     inkscape:groupmode="layer"
     id="layer1"
     transform="translate(-24.722429,-85.723442)">
    <text
       xml:space="preserve"
       style="font-style:normal;font-variant:normal;font-weight:normal;font-stretch:normal;font-size:3.52777767px;line-height:1.25;font-family:OCRB;-inkscape-font-specification:OCRB;text-align:center;letter-spacing:0px;word-spacing:0px;text-anchor:middle;fill:#000000;fill-opacity:1;stroke:none;stroke-width:0.26458332"
       x="61.354443"
       y="91.614105"
       id="text4113"><tspan
         sodipodi:role="line"
         id="tspan4111"
         x="61.354443"
         y="91.614105"
         style="text-align:center;text-anchor:middle;stroke-width:0.26458332">KNOTS</tspan><tspan
         sodipodi:role="line"
         x="61.354443"
         y="96.023827"
         style="text-align:center;text-anchor:middle;stroke-width:0.26458332"
         id="tspan4115">X100</tspan></text>
    <path
       style="fill:#000000;stroke-width:0.07879404"
       d="m 61.332856,156.34169 c -0.084,-0.41999 -0.05795,-1.71313 0.03567,-1.77099 0.169429,-0.10471 0.217399,0.0979 0.242949,1.02629 0.0225,0.81845 0.009,0.94666 -0.101329,0.96897 -0.08862,0.0179 -0.142482,-0.0503 -0.177287,-0.22427 z m -3.398368,-0.36231 c 0.09385,-1.11262 0.131043,-1.36391 0.208994,-1.41209 0.189203,-0.11693 0.230342,0.12672 0.168932,1.00054 -0.06,0.85374 -0.07203,0.89943 -0.243201,0.92371 -0.176147,0.025 -0.17909,0.0138 -0.134725,-0.51216 z m 6.815867,0.23054 c 3.1e-4,-0.0325 -0.0573,-0.46066 -0.12803,-0.95146 -0.0952,-0.66091 -0.10559,-0.91534 -0.04,-0.98098 0.16034,-0.16034 0.24038,0.045 0.37357,0.95861 0.1103,0.75652 0.11351,0.90292 0.0211,0.96146 -0.13479,0.0854 -0.2274,0.0904 -0.22667,0.0124 z m -10.163572,-0.19699 c 0.003,-0.37969 0.23124,-1.66276 0.309703,-1.74123 0.05794,-0.0579 0.108486,-0.0572 0.168105,0.002 0.06114,0.0611 0.05,0.32256 -0.0394,0.92428 -0.06856,0.46146 -0.124648,0.8734 -0.124648,0.91543 0,0.042 -0.07092,0.0764 -0.157588,0.0764 -0.111314,0 -0.157173,-0.0521 -0.156175,-0.17729 z m -3.101867,-0.45823 c -0.51349,-0.12766 -0.979134,-0.2585 -1.034765,-0.29075 -0.07415,-0.043 0.154039,-0.52585 0.854824,-1.80887 0.525784,-0.96261 0.996157,-1.75154 1.045273,-1.75317 0.04912,-0.002 0.110683,0.0768 0.136814,0.17433 0.06925,0.25843 0.06043,3.92087 -0.0094,3.91529 -0.0325,-0.003 -0.479224,-0.10917 -0.992713,-0.23683 z m 16.385329,0.0519 c 0.0182,-0.0474 -0.1255,-0.77764 -0.31934,-1.62268 -0.3092,-1.34794 -0.33831,-1.55059 -0.23727,-1.65182 0.10112,-0.1013 0.12784,-0.1013 0.21908,0 0.11981,0.13302 0.79549,3.11114 0.72993,3.21722 -0.0659,0.10659 -0.43182,0.16 -0.3924,0.0573 z m -18.79032,-0.74797 c -0.08821,-0.0559 -0.0545,-0.22917 0.18354,-0.94353 0.294958,-0.8852 0.385648,-1.038 0.530234,-0.89342 0.05391,0.0539 -0.01785,0.3766 -0.220989,0.99382 -0.165448,0.5027 -0.319697,0.91345 -0.342773,0.91279 -0.02308,-6.3e-4 -0.09058,-0.032 -0.150012,-0.0697 z m 21.54568,-0.93284 c -0.21621,-0.65691 -0.2736,-0.9267 -0.21053,-0.98977 0.0577,-0.0577 0.113,-0.0604 0.16534,-0.008 0.0712,0.0712 0.6305,1.64254 0.6305,1.77142 0,0.0298 -0.0648,0.0711 -0.14405,0.0918 -0.12207,0.0319 -0.18937,-0.10005 -0.44126,-0.8654 z m -23.781906,0.11727 c -0.117106,-0.0896 -0.101281,-0.17242 0.174695,-0.91466 0.332254,-0.89359 0.424053,-1.03967 0.564857,-0.89887 0.0666,0.0666 0.0034,0.32138 -0.248377,1.00068 -0.185748,0.50124 -0.343276,0.91134 -0.350064,0.91134 -0.0068,0 -0.07029,-0.0443 -0.141111,-0.0985 z m 26.879536,-1.29207 c -0.36995,-0.79025 -0.42593,-1.05203 -0.22497,-1.05203 0.13524,0 0.93726,1.7618 0.8334,1.83075 -0.17093,0.1135 -0.22038,0.0502 -0.60843,-0.77872 z m -29.197258,0.31626 c -0.06064,-0.0248 0.0371,-0.30687 0.287005,-0.8284 0.434516,-0.90681 0.510438,-1.00843 0.649511,-0.86935 0.0755,0.0755 0.0083,0.27251 -0.314705,0.92189 -0.225902,0.45422 -0.437536,0.82306 -0.470298,0.81964 -0.03276,-0.003 -0.100943,-0.0231 -0.151513,-0.0438 z m -2.066113,-1.12482 c -0.08716,-0.0552 -0.01434,-0.23528 0.357926,-0.88522 0.423046,-0.7386 0.697017,-1.01286 0.697017,-0.69775 0,0.13221 -0.829311,1.65536 -0.900266,1.65347 -0.02489,-6.3e-4 -0.0945,-0.0324 -0.154677,-0.0705 z m 34.304501,-0.68286 c -0.4113,-0.69886 -0.50243,-1.04183 -0.2549,-0.95932 0.0539,0.018 0.30122,0.38283 0.54952,0.81078 0.42638,0.73487 0.46286,0.89617 0.20397,0.9019 -0.03,6.3e-4 -0.25434,-0.33835 -0.49859,-0.75336 z m -23.075296,0.32363 c -0.365947,-0.13044 -0.778586,-0.51088 -1.046934,-0.96525 -0.220803,-0.37386 -0.196855,-0.58891 0.08623,-0.7744 0.245929,-0.16114 0.455136,-0.0671 0.746771,0.33578 0.347337,0.4798 0.568323,0.60239 0.998488,0.5539 0.417304,-0.047 0.696266,-0.27194 0.826407,-0.66627 0.185185,-0.56112 -0.147129,-1.18891 -0.780522,-1.47453 -0.313236,-0.14125 -0.485702,-0.38694 -0.485702,-0.69191 0,-0.0916 0.177287,-0.49536 0.393971,-0.89731 0.216683,-0.40194 0.39397,-0.75084 0.39397,-0.77532 0,-0.0245 -0.419993,-0.0445 -0.933316,-0.0445 -0.804115,0 -0.951369,-0.0199 -1.06372,-0.1441 -0.173898,-0.19215 -0.164771,-0.43073 0.02298,-0.60064 0.132335,-0.11976 0.333188,-0.14036 1.463703,-0.1501 l 1.31032,-0.0113 0.190972,0.22108 c 0.105034,0.12159 0.190971,0.29448 0.190971,0.38419 0,0.0897 -0.211558,0.55972 -0.47013,1.04447 l -0.470132,0.88136 0.383385,0.28623 c 0.628698,0.46936 0.984597,1.39673 0.799639,2.08361 -0.310057,1.15146 -1.474269,1.79109 -2.557355,1.40502 z m -13.232618,-0.86438 c -0.133397,-0.10113 -0.08324,-0.19843 0.748544,-1.45224 0.490336,-0.73912 0.940335,-1.36352 0.999999,-1.38755 0.151777,-0.0611 0.341524,0.11637 0.285539,0.26712 -0.09375,0.25245 -1.735974,2.68259 -1.812311,2.68184 -0.04334,-4e-4 -0.143134,-0.0496 -0.221771,-0.10917 z m 39.067644,-1.19486 c -0.30729,-0.44382 -0.50491,-0.80429 -0.47857,-0.87294 0.0782,-0.20388 0.219,-0.0739 0.76641,0.70756 0.49133,0.70144 0.52183,0.76819 0.38462,0.84162 -0.13033,0.0697 -0.21471,-0.0151 -0.67246,-0.67624 z m -41.007289,-0.18381 c -0.08995,-0.0569 0.0028,-0.2251 0.458197,-0.83098 0.525183,-0.69871 0.773706,-0.88732 0.747237,-0.56709 -0.01058,0.12797 -0.9706,1.47287 -1.04978,1.47064 -0.02359,-6.3e-4 -0.09363,-0.0333 -0.155654,-0.0726 z m 43.542689,-0.84811 c -0.0615,-0.12134 -0.405,-0.85885 -0.7632,-1.63892 -0.35821,-0.78006 -0.68032,-1.45031 -0.7158,-1.48945 -0.0355,-0.0392 -0.0306,-0.13446 0.0108,-0.21181 0.0664,-0.12401 0.26165,-0.009 1.65239,0.9773 l 1.57713,1.11793 -0.41857,0.39398 c -0.23021,0.21668 -0.60132,0.54643 -0.82468,0.73278 l -0.40612,0.33881 z m -45.425868,-0.67736 c -0.06463,-0.0779 0.06982,-0.26869 0.565382,-0.80244 0.413238,-0.44507 0.684691,-0.67893 0.744893,-0.64172 0.0521,0.0322 0.09472,0.0904 0.09472,0.12928 0,0.0874 -1.185897,1.41704 -1.263862,1.41704 -0.03099,0 -0.0945,-0.046 -0.141133,-0.10216 z m -1.73424,-1.65561 c -0.06581,-0.0793 0.06647,-0.25433 0.573056,-0.75829 0.59231,-0.58923 0.832709,-0.72331 0.832709,-0.46441 0,0.0923 -1.176673,1.3258 -1.26472,1.3258 -0.03052,0 -0.09399,-0.0464 -0.141045,-0.1031 z m -1.621848,-1.76145 c -0.03635,-0.0947 0.106548,-0.27502 0.515225,-0.65005 0.688043,-0.6314 0.767257,-0.68143 0.885006,-0.55892 0.0696,0.0724 -0.06534,0.2405 -0.575865,0.71732 -0.366719,0.3425 -0.690906,0.62273 -0.720415,0.62273 -0.02951,0 -0.07629,-0.059 -0.103951,-0.13108 z m 43.328026,0.0561 c -0.25647,-0.10396 -0.37332,-0.29952 -0.37332,-0.62479 0,-0.62757 0.73365,-1.58591 1.86632,-2.43792 0.61639,-0.46365 0.74976,-0.62477 0.83686,-1.01095 0.13879,-0.6154 -0.28903,-1.20936 -0.87108,-1.20936 -0.39811,0 -0.67068,0.23946 -0.8507,0.74738 -0.18109,0.51092 -0.45117,0.68544 -0.75385,0.48712 -0.24005,-0.15729 -0.25792,-0.34511 -0.082,-0.86152 0.1693,-0.49687 0.66278,-1.0386 1.09722,-1.20452 0.76036,-0.29038 1.66665,0.0458 2.12533,0.7884 0.21075,0.3412 0.23838,0.45544 0.23769,0.98285 -0.001,0.8523 -0.24231,1.26437 -1.18017,2.01624 -0.74116,0.59418 -1.03251,0.88024 -1.25647,1.23363 l -0.13339,0.21049 1.07524,0.0259 c 0.9562,0.023 1.08761,0.0428 1.18691,0.17885 0.15332,0.20999 0.13995,0.46678 -0.0324,0.62278 -0.12228,0.11067 -0.33989,0.12964 -1.43799,0.12541 -0.71164,-0.003 -1.36604,-0.0342 -1.45422,-0.07 z m 9.04966,-1.37007 c -0.65796,-0.57033 -1.22147,-1.06271 -1.25223,-1.09416 -0.0756,-0.0773 0.11517,-0.29739 0.25778,-0.29739 0.114,0 2.46558,1.96389 2.4662,2.05962 1.6e-4,0.0277 -0.0617,0.12204 -0.13756,0.20964 -0.13581,0.15687 -0.15588,0.14367 -1.33419,-0.87771 z m -53.877851,-0.52101 c -0.326609,-0.43127 -0.593712,-0.81244 -0.593563,-0.84703 3.15e-4,-0.0681 3.36332,-1.44416 3.525762,-1.44269 0.05417,4.7e-4 0.0984,0.0452 0.09828,0.0994 -2.37e-4,0.12076 -2.272179,2.97448 -2.368054,2.97448 -0.03773,0 -0.335817,-0.35286 -0.662426,-0.78414 z m 6.315122,-1.42478 c -0.169751,-0.13353 -0.207689,-0.23545 -0.227309,-0.61066 l -0.02355,-0.45037 -1.089278,-0.0145 c -1.18266,-0.0157 -1.425064,-0.0881 -1.516669,-0.45312 -0.06512,-0.25947 1.365992,-4.7487 1.576289,-4.94462 0.311284,-0.29 0.990261,-0.0808 0.990261,0.30506 0,0.11948 -1.155101,3.84229 -1.236247,3.98434 -0.01857,0.0325 0.256991,0.0591 0.612351,0.0591 h 0.646109 l -0.04181,-0.67018 c -0.03651,-0.58522 -0.02221,-0.69509 0.112803,-0.86673 0.116016,-0.14749 0.228818,-0.19656 0.451859,-0.19656 0.465668,0 0.591888,0.19925 0.624963,0.98656 0.02661,0.63348 0.03436,0.65666 0.236382,0.70707 0.304068,0.0759 0.484647,0.26975 0.484647,0.52035 0,0.23457 -0.242973,0.46502 -0.490296,0.46502 -0.119685,0 -0.140056,0.0737 -0.140056,0.50644 0,0.45327 -0.0218,0.52359 -0.207611,0.66975 -0.262328,0.20635 -0.503144,0.2073 -0.762837,0.003 z m 51.025209,-2.94665 c -0.74554,-0.4411 -1.37932,-0.82579 -1.40841,-0.85488 -0.0728,-0.0728 0.12106,-0.29307 0.25788,-0.29307 0.16901,0 2.70623,1.50907 2.70336,1.60788 -0.001,0.0474 -0.0463,0.14376 -0.0999,0.21413 -0.0866,0.11375 -0.24767,0.039 -1.45293,-0.67406 z m -61.749829,-3.24917 c -0.02773,-0.0723 -0.02266,-0.1578 0.01127,-0.19011 0.03392,-0.0323 0.699911,-0.32508 1.479972,-0.6506 1.231592,-0.51396 1.43348,-0.57709 1.53367,-0.47964 0.101306,0.0985 0.101306,0.12529 0,0.21945 -0.115001,0.10689 -2.765778,1.23227 -2.902539,1.23227 -0.03958,0 -0.09464,-0.0591 -0.122371,-0.13137 z m 64.290089,-2.34263 c -0.99762,-0.34871 -1.42586,-0.53451 -1.44381,-0.6264 -0.014,-0.0719 0.0294,-0.15171 0.0965,-0.17747 0.0976,-0.0374 2.73274,0.8114 2.96547,0.95523 0.0892,0.0551 -0.006,0.35353 -0.11058,0.34859 -0.0491,-0.002 -0.72753,-0.22728 -1.5076,-0.49995 z m -61.892718,-4.48253 c -0.242682,-0.12212 -0.30833,-0.52449 -0.116818,-0.716 0.103938,-0.10394 0.30542,-0.12807 1.069132,-0.12807 h 0.941057 l 0.286762,-0.2628 c 0.250516,-0.22958 0.291421,-0.319 0.323632,-0.70741 0.03521,-0.42454 0.02434,-0.45715 -0.240642,-0.72213 -0.276149,-0.27615 -0.28098,-0.27752 -0.982781,-0.27752 -1.341128,0 -1.43793,-0.11678 -1.43793,-1.73473 0,-0.61214 0.03648,-1.18037 0.08113,-1.2638 0.171439,-0.32034 0.475409,-0.38961 1.709688,-0.38961 1.314042,0 1.518532,0.0637 1.518532,0.47277 0,0.39717 -0.21697,0.47276 -1.357031,0.47276 h -1.00679 v 0.74854 0.74855 h 0.657356 c 0.788628,0 1.2117,0.18319 1.601915,0.69363 0.73935,0.96715 0.416796,2.37732 -0.67413,2.94722 -0.388165,0.20278 -0.490093,0.21996 -1.298661,0.21889 -0.545775,-7.1e-4 -0.951894,-0.0386 -1.074421,-0.10029 z m -4.648848,-0.71439 c 0,-0.0153 -0.07216,-0.49869 -0.160348,-1.07409 -0.08819,-0.57541 -0.150242,-1.05245 -0.13789,-1.06011 0.01235,-0.008 0.845425,0.0768 1.851273,0.18766 1.817935,0.20038 2.235129,0.30712 1.828241,0.46777 -0.104565,0.0413 -0.897521,0.39717 -1.762125,0.79087 -1.600051,0.72857 -1.619151,0.73669 -1.619151,0.6879 z m 67.882056,-0.55264 c -1.09476,-0.20185 -1.34333,-0.27195 -1.36502,-0.38492 -0.0146,-0.076 0.032,-0.16059 0.10354,-0.18804 0.0715,-0.0275 0.80103,0.0675 1.62111,0.21109 1.43294,0.25083 1.49104,0.26813 1.49104,0.44412 0,0.2399 -0.13629,0.23384 -1.85067,-0.0822 z m -7.91979,-2.75263 -0.19699,-0.10029 0.0191,-2.90554 c 0.017,-2.58146 0.0337,-2.92169 0.1501,-3.05031 0.18934,-0.20921 0.54828,-0.18665 0.69937,0.044 0.1092,0.16665 0.11713,0.51396 0.0679,2.97109 -0.0553,2.76057 -0.0572,2.78379 -0.23644,2.96305 -0.20858,0.20857 -0.23776,0.2131 -0.50301,0.078 z m 1.39015,-0.0944 c -0.15129,-0.15129 -0.17086,-0.51803 -0.0349,-0.65399 0.0627,-0.0627 0.40364,-0.0945 1.01267,-0.0945 0.82522,0 0.94509,-0.0182 1.1847,-0.17965 0.32455,-0.21871 0.46317,-0.47503 0.46471,-0.85924 0.003,-0.76887 -0.33773,-1.00904 -1.43244,-1.00946 -0.69337,-2.4e-4 -0.78425,-0.0178 -0.98493,-0.19027 l -0.22107,-0.18998 -0.0252,-1.22882 -0.0252,-1.22882 0.23587,-0.23588 0.23588,-0.23588 h 1.29395 c 1.15349,0 1.3081,0.0156 1.42435,0.1441 0.15636,0.17277 0.17072,0.5123 0.0267,0.63181 -0.0603,0.0501 -0.5463,0.0953 -1.16221,0.10814 l -1.05852,0.0221 -0.0226,0.76824 -0.0225,0.76824 h 0.67574 c 0.7483,0 1.09705,0.12463 1.4681,0.52464 0.37283,0.40193 0.49714,0.73226 0.49938,1.32702 0.002,0.47227 -0.0326,0.61264 -0.23894,0.97647 -0.13423,0.23664 -0.39064,0.5334 -0.57868,0.66975 -0.33501,0.24291 -0.34649,0.24504 -1.46149,0.27016 -0.95976,0.0216 -1.14273,0.006 -1.25328,-0.10412 z m 5.65063,-2.68 c -0.0252,-0.0656 -0.002,-0.17193 0.0515,-0.23638 0.08,-0.0963 0.36884,-0.11719 1.62409,-0.11719 h 1.52683 v 0.23638 0.23639 h -1.57835 c -1.3362,0 -1.58537,-0.0183 -1.62409,-0.1192 z m -65.89993,-2.99665 c -0.715056,-0.0545 -1.344423,-0.10264 -1.398594,-0.10692 -0.05417,-0.004 -0.09849,-0.10132 -0.09849,-0.21564 v -0.20786 l 0.571256,0.0486 c 0.314192,0.0267 1.023294,0.0722 1.575784,0.10117 1.024926,0.0537 1.233586,0.12418 1.1342,0.38317 -0.05163,0.13454 0.01392,0.13463 -1.784154,-0.002 z m 65.50505,-1.96973 c -0.0265,-0.069 -0.007,-0.16736 0.0439,-0.21862 0.0506,-0.0513 0.78222,-0.20201 1.62574,-0.335 l 1.53368,-0.24181 v 0.22211 c 0,0.12216 -0.0385,0.22211 -0.0856,0.22211 -0.10797,0 -2.64933,0.38457 -2.89061,0.43742 -0.11763,0.0258 -0.19553,-0.004 -0.22715,-0.0862 z m -60.36332,-2.16586 c -0.98244,-0.49093 -1.327954,-1.42698 -0.998331,-2.70464 0.303558,-1.17662 1.356328,-2.57705 2.491141,-3.31381 0.252323,-0.16381 0.489424,-0.11142 0.657656,0.14534 0.16991,0.25932 0.07456,0.42357 -0.563382,0.97056 -0.482001,0.41328 -0.911592,0.8782 -1.075105,1.16353 -0.02873,0.0501 0.121111,0.0811 0.400446,0.0829 0.606661,0.004 0.997329,0.15176 1.416845,0.53692 0.44642,0.40985 0.64105,0.8305 0.642286,1.38817 0.0033,1.49459 -1.588771,2.42207 -2.971556,1.73108 z m 1.474604,-0.80756 c 0.287019,-0.14524 0.55397,-0.58666 0.553629,-0.91548 -7.88e-4,-0.75574 -0.885583,-1.27099 -1.572541,-0.91575 -1.017309,0.52607 -0.674905,1.93337 0.469719,1.93057 0.195016,-4.7e-4 0.442152,-0.0452 0.549193,-0.0993 z m -4.93173,-2.44355 -1.821733,-0.16104 0.334844,-0.99143 c 0.194132,-0.5748 0.373181,-0.98274 0.426072,-0.97075 0.223133,0.0506 3.165288,2.08589 3.137202,2.17025 -0.04401,0.13218 -0.05088,0.13202 -2.076385,-0.047 z m 62.483036,-0.17198 c -0.028,-0.0729 -0.002,-0.17948 0.0584,-0.23692 0.10523,-0.10059 2.89926,-1.02325 2.94382,-0.97213 0.012,0.0138 0.0443,0.0984 0.0718,0.18793 0.0461,0.15028 -0.0607,0.19802 -1.38295,0.61843 -0.78807,0.25057 -1.47952,0.47349 -1.53655,0.49538 -0.057,0.0219 -0.12656,-0.0198 -0.15452,-0.0927 z m -2.601,-5.43886 c -0.0767,-0.19982 0.12713,-0.34908 1.54739,-1.1333 1.16243,-0.64185 1.31026,-0.70415 1.39607,-0.58831 0.0528,0.0712 0.0796,0.15597 0.0597,0.18826 -0.0307,0.0496 -2.69432,1.56118 -2.8872,1.6384 -0.0361,0.0144 -0.0882,-0.0328 -0.11595,-0.10505 z m -57.180097,-1.05816 c -0.729314,-0.42455 -1.324566,-0.79525 -1.322782,-0.82377 0.0018,-0.0285 0.03496,-0.10853 0.07372,-0.1778 0.05989,-0.10702 0.270335,-0.0116 1.401035,0.63542 0.731805,0.41875 1.36298,0.79379 1.402611,0.83342 0.0704,0.0704 -0.07443,0.32097 -0.179114,0.30988 -0.0272,-0.003 -0.646159,-0.3526 -1.375473,-0.77715 z m 7.247791,0.40191 c -0.07172,-0.0793 -0.130404,-0.20919 -0.130404,-0.28875 0,-0.10704 1.052295,-3.06315 1.634017,-4.59025 0.02884,-0.0757 -0.205861,-0.0988 -1.014933,-0.0996 -1.248755,-0.001 -1.446421,-0.0658 -1.446421,-0.4716 0,-0.41215 0.191069,-0.47057 1.536484,-0.46972 1.572441,9.8e-4 1.816784,0.0676 1.939667,0.52872 0.05173,0.19413 -1.717103,5.1516 -1.925823,5.39745 -0.1519,0.17893 -0.42766,0.17604 -0.592587,-0.006 z m 40.646246,-1.90374 c -0.13341,-0.14742 -0.13843,-0.32481 -0.0841,-2.97277 0.0318,-1.54881 0.0901,-2.87642 0.12959,-2.95025 0.15395,-0.28768 0.62957,-0.27054 0.78958,0.0284 0.062,0.11595 0.0703,0.96614 0.0289,2.95988 -0.0537,2.58134 -0.0695,2.80853 -0.20534,2.94432 -0.19162,0.19163 -0.48027,0.18741 -0.65857,-0.01 z m 6.31126,-2.04009 c -0.1671,-0.18464 -0.23345,-0.11517 1.26104,-1.32057 l 1.15191,-0.92911 0.15163,0.18726 c 0.0834,0.10299 0.12363,0.21167 0.0894,0.24152 -0.23804,0.20753 -2.46504,1.96912 -2.48936,1.96912 -0.0168,0 -0.0908,-0.0667 -0.16461,-0.14822 z m -50.388389,-1.50105 -1.6852,-0.84426 0.68559,-0.78217 c 0.377075,-0.43019 0.709928,-0.79014 0.739673,-0.79989 0.06803,-0.0223 2.063329,2.98302 2.063329,3.107775 0,0.0505 -0.02659,0.107785 -0.05909,0.127305 -0.0325,0.0195 -0.817436,-0.34442 -1.744297,-0.80876 z m 12.58912,-0.66564 c -1.232748,-0.4405 -1.603452,-1.87657 -0.726657,-2.81495 l 0.191826,-0.20531 -0.200821,-0.37769 c -0.310274,-0.58354 -0.235849,-1.34178 0.176456,-1.79771 0.398047,-0.44017 1.285962,-0.61017 1.799606,-0.34455 0.819015,0.42353 1.116184,1.48319 0.6207,2.21333 l -0.183095,0.26981 0.197511,0.18431 c 0.517975,0.48336 0.661119,1.33274 0.337325,2.00161 -0.375778,0.77626 -1.376275,1.17014 -2.212851,0.87118 z m 1.203266,-1.12438 c 0.315328,-0.3021 0.312751,-0.73901 -0.0062,-1.058 -0.512231,-0.51223 -1.427679,-0.16979 -1.421848,0.53186 0.0029,0.34599 0.11382,0.52248 0.438322,0.69727 0.307865,0.16583 0.710761,0.0962 0.989765,-0.17113 z m -0.302597,-2.40431 c 0.264876,-0.14107 0.363849,-0.31412 0.366586,-0.64094 0.0051,-0.60501 -0.683221,-0.9016 -1.153522,-0.49706 -0.175294,0.15078 -0.219287,0.25521 -0.219287,0.52052 0,0.54874 0.527508,0.87245 1.006223,0.61748 z m 32.80037,2.31008 c -0.0355,-0.0575 1.67238,-3.40544 1.8107,-3.54951 0.0164,-0.017 0.30068,0.21342 0.6318,0.51216 0.33113,0.29874 0.68587,0.61407 0.78832,0.70075 l 0.18628,0.15758 -1.62122,1.10312 c -0.89168,0.60672 -1.65011,1.11385 -1.6854,1.12698 -0.0353,0.0131 -0.085,-0.01 -0.11048,-0.0511 z M 39.072076,94.48088 c -0.902024,-1.20438 -0.947262,-1.28223 -0.824134,-1.41829 0.07165,-0.0792 0.155882,-0.14396 0.187173,-0.14396 0.04832,0 1.73861,2.20628 1.919273,2.50517 0.07004,0.11587 -0.07849,0.33142 -0.228364,0.33142 -0.05474,0 -0.52902,-0.57345 -1.053948,-1.27434 z m 38.249769,-0.53306 c -0.1207,-0.13338 -0.0764,-0.22233 0.72145,-1.44933 0.46752,-0.71897 0.88549,-1.30747 0.92883,-1.30777 0.0433,-3.1e-4 0.14223,0.0476 0.21976,0.10638 0.13081,0.0992 0.0797,0.20085 -0.70915,1.41042 -0.46756,0.71693 -0.8911,1.32125 -0.9412,1.34295 -0.0501,0.0217 -0.14896,-0.0245 -0.21969,-0.10265 z m -33.17041,-2.44529 c -0.681183,-0.77599 -1.239308,-1.43688 -1.240281,-1.46865 -0.0031,-0.10266 1.755806,-0.99825 1.820508,-0.92693 0.06728,0.0742 0.795449,3.36874 0.79354,3.59035 -6.3e-4,0.0733 -0.03132,0.15189 -0.0682,0.17468 -0.03688,0.0228 -0.624384,-0.59346 -1.305567,-1.36945 z m 28.13023,-0.1484 c -0.0229,-0.0371 0.23294,-0.74109 0.56859,-1.56448 0.57827,-1.41861 0.61944,-1.49365 0.78556,-1.4322 0.0964,0.0357 0.1753,0.0788 0.1753,0.0959 0,0.0827 -1.12876,2.78413 -1.19909,2.86975 -0.0931,0.11329 -0.26931,0.12987 -0.33036,0.0311 z M 49.036173,90.6927 c -0.01577,-0.0542 -0.26772,-0.74663 -0.559897,-1.5388 -0.292177,-0.79217 -0.517502,-1.45259 -0.50072,-1.4676 0.01678,-0.015 0.101426,-0.0486 0.1881,-0.0747 0.141881,-0.0427 0.213725,0.10355 0.720822,1.4676 0.561064,1.50922 0.595583,1.71204 0.291379,1.71204 -0.06106,0 -0.123916,-0.0443 -0.139684,-0.0985 z"
       id="path4144"
       inkscape:connector-curvature="0" />
    <rect
       style="opacity:1;fill:#000000;fill-opacity:0.99226803;stroke:none;stroke-width:2.69424796;stroke-miterlimit:4;stroke-dasharray:none;stroke-opacity:1"
       id="rect4152"
       width="1"
       height="1.1085986"
       x="59.501907"
       y="120.75685" />
  </g>
</svg>
