<?xml version="1.0" encoding="UTF-8" standalone="no"?>
<!-- Created with Inkscape (http://www.inkscape.org/) -->

<svg
   xmlns:dc="http://purl.org/dc/elements/1.1/"
   xmlns:cc="http://creativecommons.org/ns#"
   xmlns:rdf="http://www.w3.org/1999/02/22-rdf-syntax-ns#"
   xmlns:svg="http://www.w3.org/2000/svg"
   xmlns="http://www.w3.org/2000/svg"
   xmlns:sodipodi="http://sodipodi.sourceforge.net/DTD/sodipodi-0.dtd"
   xmlns:inkscape="http://www.inkscape.org/namespaces/inkscape"
   width="47mm"
   height="47mm"
   viewBox="0 0 47 47"
   version="1.1"
   id="svg4190"
   inkscape:version="0.92.3 (2405546, 2018-03-11)"
   sodipodi:docname="I_plate_01A.svg">
  <defs
     id="defs4184" />
  <sodipodi:namedview
     id="base"
     pagecolor="#ffffff"
     bordercolor="#666666"
     borderopacity="1.0"
     inkscape:pageopacity="0.0"
     inkscape:pageshadow="2"
     inkscape:zoom="4"
     inkscape:cx="-45.617327"
     inkscape:cy="174.03059"
     inkscape:document-units="mm"
     inkscape:current-layer="layer1"
     showgrid="false"
     showguides="true"
     inkscape:guide-bbox="true"
     inkscape:window-width="3840"
     inkscape:window-height="2040"
     inkscape:window-x="0"
     inkscape:window-y="0"
     inkscape:window-maximized="1">
    <sodipodi:guide
       position="23.150408,-5.7147042"
       orientation="1,0"
       id="guide4737"
       inkscape:locked="false" />
    <sodipodi:guide
       position="66.715337,23.417675"
       orientation="0,1"
       id="guide4739"
       inkscape:locked="false" />
    <sodipodi:guide
       position="0.16523015,-29.768962"
       orientation="1,0"
       id="guide4741"
       inkscape:locked="false" />
    <sodipodi:guide
       position="46.670128,-53.55595"
       orientation="1,0"
       id="guide4743"
       inkscape:locked="false" />
    <sodipodi:guide
       position="61.369948,46.937394"
       orientation="0,1"
       id="guide4745"
       inkscape:locked="false" />
    <sodipodi:guide
       position="55.757288,-0.10204445"
       orientation="0,1"
       id="guide4747"
       inkscape:locked="false" />
  </sodipodi:namedview>
  <metadata
     id="metadata4187">
    <rdf:RDF>
      <cc:Work
         rdf:about="">
        <dc:format>image/svg+xml</dc:format>
        <dc:type
           rdf:resource="http://purl.org/dc/dcmitype/StillImage" />
        <dc:title />
      </cc:Work>
    </rdf:RDF>
  </metadata>
  <g
     inkscape:label="Layer 1"
     inkscape:groupmode="layer"
     id="layer1"
     transform="translate(-61.03949,-128.82486)">
    <g
       style="font-style:normal;font-variant:normal;font-weight:normal;font-stretch:normal;font-size:medium;line-height:1.25;font-family:OCRB;-inkscape-font-specification:OCRB;letter-spacing:0px;word-spacing:0px;fill:#000000;fill-opacity:1;stroke:none;stroke-width:0.26458332"
       transform="rotate(-45.885802,-4.2649261,-29.728153)"
       id="g4790" />
    <g
       style="font-style:normal;font-variant:normal;font-weight:normal;font-stretch:normal;font-size:medium;line-height:1.25;font-family:OCRB;-inkscape-font-specification:OCRB;letter-spacing:0px;word-spacing:0px;fill:#000000;fill-opacity:1;stroke:none;stroke-width:0.26458332"
       transform="rotate(-10.08525,-70.469068,-788.24899)"
       id="g4808">
      <g
         aria-label="NO"
         transform="rotate(55.08525)"
         style="font-style:normal;font-variant:normal;font-weight:normal;font-stretch:normal;font-size:3.52777767px;line-height:1.25;font-family:OCRB;-inkscape-font-specification:OCRB;letter-spacing:0px;word-spacing:0px;fill:#000000;fill-opacity:1;stroke:#000000;stroke-width:0.2;stroke-miterlimit:4;stroke-dasharray:none;stroke-opacity:1"
         id="text4794" />
    </g>
    <path
       id="rect4810"
       style="opacity:1;fill:#000000;fill-opacity:1;stroke:#000000;stroke-width:0.19039458;stroke-miterlimit:4;stroke-dasharray:none;stroke-opacity:1"
       d="m 99.455788,143.88987 c -0.06524,0.0652 -0.165718,0.0705 -0.224426,0.0118 -0.05872,-0.0587 -0.05343,-0.15919 0.01181,-0.22443 0.06524,-0.0652 0.165726,-0.0705 0.224434,-0.0118 0.05872,0.0587 0.05343,0.15919 -0.01181,0.22443 z m -0.87554,-2.54718 c -0.426562,0.42656 -0.695967,1.135 -0.299338,1.53163 0.401616,0.40162 1.100078,0.12223 1.531629,-0.29934 0.446521,-0.44652 0.698471,-1.13251 0.299341,-1.53164 -0.0998,-0.0998 -0.264433,-0.17958 -0.401615,-0.19207 -0.359206,-0.0349 -0.778288,0.13969 -1.110055,0.47146 z m 0.249452,0.24945 0.02744,-0.0274 c 0.194574,-0.19458 0.44402,-0.33926 0.671026,-0.3667 l 0.005,0.005 c 0.102297,-0.0175 0.239471,0 0.329274,0.0898 0.25943,0.25943 -0.01996,0.75334 -0.299345,1.03273 -0.25943,0.25943 -0.780778,0.55128 -1.032724,0.29934 -0.254441,-0.25445 0.03991,-0.7733 0.299337,-1.03273 z m -2.807966,-1.24141 c -0.06739,0.0674 -0.06735,0.1821 0,0.24945 0.06735,0.0674 0.182072,0.0674 0.249452,0 l 1.197365,-1.19736 -0.656054,1.84843 c -0.01993,0.0598 -0.0075,0.13222 0.04239,0.18211 l 0.09479,0.0948 c 0.06486,0.0648 0.182072,0.0674 0.249453,-1e-5 l 1.554086,-1.55408 c 0.06732,-0.0673 0.06486,-0.1846 1e-6,-0.24945 -0.06735,-0.0674 -0.179598,-0.0699 -0.249453,0 l -1.199861,1.19986 0.65356,-1.85093 c 0.01993,-0.0598 0.01,-0.1347 -0.03991,-0.1846 l -0.0923,-0.0923 c -0.06735,-0.0674 -0.182072,-0.0674 -0.249452,0 z m -23.586421,0.54849 c 0.06835,0.0663 0.183121,0.0645 0.249422,-0.004 0.0663,-0.0684 0.06707,-0.18066 -0.0039,-0.24943 l -0.683851,-0.66302 0.596724,-0.61547 0.683851,0.66303 c 0.06835,0.0663 0.183121,0.0645 0.249423,-0.004 0.0663,-0.0684 0.06707,-0.18065 -0.0039,-0.24942 l -1.577926,-1.52988 c -0.07093,-0.0688 -0.183121,-0.0645 -0.249422,0.004 -0.0663,0.0684 -0.06456,0.18309 0.0039,0.24942 l 0.640795,0.62128 -0.596723,0.61547 -0.640796,-0.62128 c -0.07093,-0.0688 -0.18312,-0.0645 -0.249422,0.004 -0.0663,0.0684 -0.06456,0.1831 0.0039,0.24943 z m -2.490381,1.03807 c 0.458308,0.43446 1.024375,0.74258 1.478671,0.27402 0.216097,-0.22289 0.246312,-0.52772 0.08574,-0.74728 l -0.02283,-0.0221 c -0.06835,-0.0663 -0.180663,-0.0671 -0.246966,10e-4 -0.05894,0.0608 -0.0624,0.16061 -0.01648,0.22479 0.06378,0.0913 0.03562,0.20652 -0.05278,0.2977 -0.294678,0.30393 -0.691243,-0.0118 -0.984894,-0.28665 l -0.04559,-0.0442 c -0.296336,-0.28731 -0.57403,-0.65973 -0.321632,-0.95553 0.04912,-0.0507 0.105893,-0.089 0.175553,-0.10004 0.121961,-0.0193 0.236462,0.12608 0.356791,0.002 0.0663,-0.0684 0.0621,-0.18056 -0.0063,-0.24689 l -0.02534,-0.0246 c -0.234235,-0.14358 -0.540369,-0.0964 -0.758922,0.12899 -0.42447,0.46308 -0.106444,1.02202 0.357053,1.47141 z m -1.11283,2.67831 c 0.07093,0.0688 0.183121,0.0645 0.249423,-0.004 0.05648,-0.0583 0.06252,-0.15068 0.02416,-0.21244 l -0.327591,-0.53381 0.498498,-0.51416 0.546144,0.3084 c 0.06289,0.0364 0.155103,0.0275 0.211586,-0.0307 0.0663,-0.0684 0.06443,-0.18813 -0.0014,-0.25196 l -2.016034,-1.14389 c -0.05787,-0.0315 -0.139903,-0.0128 -0.191475,0.0404 l -0.166985,0.17223 c -0.05648,0.0583 -0.06497,0.1532 -0.02661,0.21496 l 1.167367,1.92292 z m -0.243444,-1.06152 -0.552942,-0.90954 0.926201,0.52455 z m -1.545883,2.90705 c 0.07093,0.0688 0.183121,0.0645 0.249423,-0.004 0.0663,-0.0684 0.06456,-0.18309 -0.0039,-0.24942 l -1.365168,-1.32359 1.101489,0.56675 c 0.06535,0.0339 0.155025,0.0225 0.209051,-0.0332 0.05894,-0.0608 0.05761,-0.14561 0.02669,-0.20998 l -0.600536,-1.08344 1.365168,1.3236 c 0.07093,0.0688 0.18312,0.0645 0.249422,-0.004 0.0663,-0.0684 0.06456,-0.18309 -0.0039,-0.24942 l -1.577926,-1.52988 c -0.06835,-0.0663 -0.183121,-0.0645 -0.249423,0.004 l -0.189085,0.19502 c -0.05648,0.0583 -0.06503,0.14824 -0.02669,0.20998 l 0.441422,0.7965 -0.80977,-0.41658 c -0.06284,-0.0314 -0.152569,-0.0251 -0.209052,0.0332 l -0.189085,0.19502 c -0.0663,0.0684 -0.06707,0.18066 0.0039,0.24942 z"
       inkscape:connector-curvature="0"
       sodipodi:nodetypes="cccccccccscccccccccccccccccccccccccccccccccccccccccccccccccccccccccccccccccccccccccccccccccccccccccccccccccccccc" />
  </g>
</svg>
