<?xml version="1.0" encoding="UTF-8" standalone="no"?>
<!-- Created with Inkscape (http://www.inkscape.org/) -->

<svg
   xmlns:dc="http://purl.org/dc/elements/1.1/"
   xmlns:cc="http://creativecommons.org/ns#"
   xmlns:rdf="http://www.w3.org/1999/02/22-rdf-syntax-ns#"
   xmlns:svg="http://www.w3.org/2000/svg"
   xmlns="http://www.w3.org/2000/svg"
   xmlns:sodipodi="http://sodipodi.sourceforge.net/DTD/sodipodi-0.dtd"
   xmlns:inkscape="http://www.inkscape.org/namespaces/inkscape"
   width="46.223438mm"
   height="46.218601mm"
   viewBox="0 0 46.223438 46.218601"
   version="1.1"
   id="svg4860"
   inkscape:version="0.92.3 (2405546, 2018-03-11)"
   sodipodi:docname="I_plate_03A.svg">
  <defs
     id="defs4854" />
  <sodipodi:namedview
     id="base"
     pagecolor="#ffffff"
     bordercolor="#666666"
     borderopacity="1.0"
     inkscape:pageopacity="0.0"
     inkscape:pageshadow="2"
     inkscape:zoom="2.8"
     inkscape:cx="31.01202"
     inkscape:cy="98.615836"
     inkscape:document-units="mm"
     inkscape:current-layer="layer1"
     showgrid="false"
     showguides="true"
     inkscape:guide-bbox="true"
     inkscape:window-width="3840"
     inkscape:window-height="2040"
     inkscape:window-x="0"
     inkscape:window-y="0"
     inkscape:window-maximized="1">
    <sodipodi:guide
       position="11.628272,23.062051"
       orientation="0,1"
       id="guide5416"
       inkscape:locked="false" />
    <sodipodi:guide
       position="23.440028,6.714581"
       orientation="1,0"
       id="guide5418"
       inkscape:locked="false" />
    <sodipodi:guide
       position="0.09999887,30.810571"
       orientation="1,0"
       id="guide5420"
       inkscape:locked="false" />
    <sodipodi:guide
       position="23.440026,46.118601"
       orientation="0,1"
       id="guide5422"
       inkscape:locked="false" />
    <sodipodi:guide
       position="29.487646,0.10000112"
       orientation="0,1"
       id="guide5424"
       inkscape:locked="false" />
    <sodipodi:guide
       position="46.123438,0.12342112"
       orientation="1,0"
       id="guide5426"
       inkscape:locked="false" />
  </sodipodi:namedview>
  <metadata
     id="metadata4857">
    <rdf:RDF>
      <cc:Work
         rdf:about="">
        <dc:format>image/svg+xml</dc:format>
        <dc:type
           rdf:resource="http://purl.org/dc/dcmitype/StillImage" />
        <dc:title />
      </cc:Work>
    </rdf:RDF>
  </metadata>
  <g
     inkscape:label="Layer 1"
     inkscape:groupmode="layer"
     id="layer1"
     transform="translate(-49.509375,-146.84345)">
    <g
       aria-label="56789101214"
       style="font-style:normal;font-variant:normal;font-weight:normal;font-stretch:normal;font-size:2.82222223px;line-height:1.25;font-family:OCRB;-inkscape-font-specification:OCRB;letter-spacing:0px;word-spacing:0px;fill:#000000;fill-opacity:1;stroke:none;stroke-width:0.26458332"
       id="text5445"
       transform="translate(41.336489,0.47247027)" />
    <path
       id="rect5475"
       style="color:#000000;font-style:normal;font-variant:normal;font-weight:normal;font-stretch:normal;font-size:medium;line-height:normal;font-family:sans-serif;font-variant-ligatures:normal;font-variant-position:normal;font-variant-caps:normal;font-variant-numeric:normal;font-variant-alternates:normal;font-feature-settings:normal;text-indent:0;text-align:start;text-decoration:none;text-decoration-line:none;text-decoration-style:solid;text-decoration-color:#000000;letter-spacing:normal;word-spacing:normal;text-transform:none;writing-mode:lr-tb;direction:ltr;text-orientation:mixed;dominant-baseline:auto;baseline-shift:baseline;text-anchor:start;white-space:normal;shape-padding:0;clip-rule:nonzero;display:inline;overflow:visible;visibility:visible;opacity:1;isolation:auto;mix-blend-mode:normal;color-interpolation:sRGB;color-interpolation-filters:linearRGB;solid-color:#000000;solid-opacity:1;vector-effect:none;fill:#000000;fill-opacity:1;fill-rule:nonzero;stroke:none;stroke-width:0.10938042;stroke-linecap:butt;stroke-linejoin:miter;stroke-miterlimit:4;stroke-dasharray:none;stroke-dashoffset:0;stroke-opacity:1;color-rendering:auto;image-rendering:auto;shape-rendering:auto;text-rendering:auto;enable-background:accumulate"
       d="m 72.447266,169.49219 v 0.0547 0.94531 h 1 v -1 z m 13.557836,-8.92044 c -0.158419,0 -0.289063,0.13065 -0.289063,0.28906 0,0.15842 0.130644,0.28907 0.289063,0.28907 0.158419,0 0.289062,-0.13065 0.289062,-0.28907 0,-0.15841 -0.130643,-0.28906 -0.289062,-0.28906 z m -4.303186,-4.30259 c -0.158419,0 -0.289063,0.13065 -0.289063,0.28906 0,0.15842 0.130644,0.28907 0.289063,0.28907 0.158419,0 0.289062,-0.13065 0.289062,-0.28907 0,-0.15841 -0.130643,-0.28906 -0.289062,-0.28906 z m -8.002343,-2.72224 c -0.158419,0 -0.289063,0.13065 -0.289063,0.28906 0,0.15842 0.130644,0.28907 0.289063,0.28907 0.158419,0 0.289062,-0.13065 0.289062,-0.28907 0,-0.15841 -0.130643,-0.28906 -0.289062,-0.28906 z m -3.808591,-0.96108 c -0.158419,0 -0.289063,0.13065 -0.289063,0.28906 0,0.15842 0.130644,0.28907 0.289063,0.28907 0.158419,0 0.289062,-0.13065 0.289062,-0.28907 0,-0.15841 -0.130643,-0.28906 -0.289062,-0.28906 z m -5.362095,1.30294 c -0.158419,0 -0.289063,0.13065 -0.289063,0.28906 0,0.15842 0.130644,0.28907 0.289063,0.28907 0.158419,0 0.289062,-0.13065 0.289062,-0.28907 0,-0.15841 -0.130643,-0.28906 -0.289062,-0.28906 z m -4.359834,3.842 c -0.158419,0 -0.289063,0.13065 -0.289063,0.28906 0,0.15842 0.130644,0.28907 0.289063,0.28907 0.158419,0 0.289062,-0.13065 0.289062,-0.28907 0,-0.15841 -0.130643,-0.28906 -0.289062,-0.28906 z m -3.658251,4.69392 c -0.158419,0 -0.289063,0.13065 -0.289063,0.28906 0,0.15842 0.130644,0.28907 0.289063,0.28907 0.158419,0 0.289062,-0.13065 0.289062,-0.28907 0,-0.15841 -0.130643,-0.28906 -0.289062,-0.28906 z m -1.588172,8.55202 c -0.158419,0 -0.289063,0.13065 -0.289063,0.28906 0,0.15842 0.130644,0.28907 0.289063,0.28907 0.158419,0 0.289062,-0.13065 0.289062,-0.28907 0,-0.15841 -0.130643,-0.28906 -0.289062,-0.28906 z m 30.987258,-9.66582 c -0.04584,-0.0644 -0.134742,-0.0772 -0.196804,-0.0331 l -0.567751,0.40446 -0.203047,-0.28501 c -0.04421,-0.0621 -0.134748,-0.0773 -0.19681,-0.0331 -0.06206,0.0442 -0.07728,0.13473 -0.03305,0.19681 l 0.203048,0.28502 -0.121825,0.0868 c -0.06206,0.0442 -0.07727,0.13474 -0.03305,0.19681 0.04421,0.0621 0.132445,0.079 0.196805,0.0331 l 0.121825,-0.0868 0.189952,0.26663 c 0.04421,0.0621 0.134742,0.0772 0.196805,0.0331 0.06206,-0.0442 0.07728,-0.13474 0.03305,-0.19681 l -0.189953,-0.26664 0.434432,-0.30949 0.24341,1.33394 c 0.0029,0.0187 0.0098,0.0381 0.02291,0.0564 0.04421,0.0621 0.134741,0.0772 0.196805,0.0331 0.04367,-0.0311 0.06835,-0.0938 0.05592,-0.14039 l -0.259377,-1.41958 c -6.1e-4,-0.0203 -0.0098,-0.0381 -0.02292,-0.0564 z m 1.877593,0.049 c -0.03842,-0.0658 -0.124761,-0.0906 -0.193005,-0.0507 -0.02925,0.0171 -0.0528,0.0439 -0.06334,0.0762 l -0.157915,0.45164 -0.85081,-1.45753 c -0.03983,-0.0682 -0.127201,-0.0891 -0.193011,-0.0507 -0.06581,0.0384 -0.08915,0.12719 -0.05072,0.19302 l 0.967481,1.65739 c 0.03841,0.0658 0.127196,0.0892 0.193006,0.0507 l 0.07799,-0.0455 c 0.02925,-0.0171 0.05036,-0.0425 0.0609,-0.0748 l 0.22266,-0.64303 c 0.01298,-0.0337 0.0053,-0.075 -0.01325,-0.10667 z m -4.977203,-3.53129 c -0.05963,-0.0428 -0.151837,-0.0256 -0.194634,0.034 -0.01646,0.0229 -0.02374,0.0524 -0.0271,0.0813 0.0026,0.15124 -0.04627,0.27251 -0.1549,0.42382 -0.111924,0.15589 -0.302672,0.21351 -0.463155,0.0983 -0.0619,-0.0444 -0.101105,-0.1108 -0.122914,-0.18206 -0.03809,-0.12115 -0.02815,-0.29468 -0.02057,-0.44558 0.01476,-0.26734 0.0026,-0.5505 -0.163179,-0.75989 -0.05626,-0.0717 -0.153195,-0.14473 -0.2426,-0.20891 l -0.04817,-0.0346 c -0.0619,-0.0444 -0.152483,-0.0296 -0.196924,0.0323 l -0.579373,0.80698 c -0.04444,0.0619 -0.02958,0.15248 0.03233,0.19693 0.0619,0.0444 0.150839,0.0319 0.196925,-0.0323 l 0.495429,-0.69005 c 0.256064,0.20468 0.239481,0.41166 0.224079,0.67506 -0.01611,0.28375 -0.04226,0.65409 0.260352,0.87136 0.293452,0.21068 0.647968,0.1282 0.857004,-0.16295 0.151426,-0.21092 0.207271,-0.3758 0.209098,-0.58642 0.0053,-0.0413 -0.02733,-0.0926 -0.06172,-0.11728 z m 0.695058,-1.51632 c -0.06076,-0.046 -0.149991,-0.0356 -0.197673,0.0274 -0.02044,0.027 -0.03186,0.0608 -0.02916,0.0947 l 0.02787,0.47764 -1.345798,-1.01837 c -0.063,-0.0477 -0.1517,-0.0334 -0.197682,0.0274 -0.04598,0.0608 -0.0334,0.15169 0.02738,0.19768 l 1.530346,1.15802 c 0.06076,0.046 0.151692,0.0334 0.197674,-0.0274 l 0.05449,-0.072 c 0.02044,-0.027 0.03016,-0.0586 0.02746,-0.0925 l -0.04169,-0.67921 c -9.93e-4,-0.0361 -0.02398,-0.0712 -0.05324,-0.0934 z m -9.115469,-2.04057 c -0.544779,-0.078 -1.014568,-0.003 -1.094541,0.55608 -0.004,0.0279 -0.01057,0.0527 -0.01456,0.0806 -0.002,0.014 -0.001,0.0284 -0.003,0.0423 -0.02845,0.45779 0.437263,0.64989 0.912203,0.71787 0.642562,0.092 1.209304,0.11607 1.301273,-0.5265 0.09277,-0.64815 -0.455988,-0.77801 -1.101341,-0.87038 z m -0.03999,0.27937 c 0.212327,0.0304 0.458171,0.0656 0.625388,0.13227 0.185968,0.0751 0.270556,0.18128 0.236568,0.41875 -0.0064,0.0447 -0.01519,0.10616 -0.02473,0.13045 -0.09225,0.2662 -0.485399,0.22418 -0.829027,0.175 l -0.128511,-0.0184 c -0.301725,-0.0432 -0.710003,-0.13868 -0.664019,-0.45996 l 0.0088,-0.0615 c 0.0064,-0.0447 0.01519,-0.10616 0.02513,-0.13325 0.08865,-0.24105 0.46823,-0.22378 0.750404,-0.18339 z m 0.958655,-1.74202 c -0.07494,-0.0138 -0.150021,0.0355 -0.164331,0.11322 -0.0061,0.0333 -0.0012,0.0687 0.01647,0.0977 l 0.239379,0.41427 -1.659777,-0.30562 c -0.07769,-0.0143 -0.150542,0.0383 -0.164341,0.11322 -0.0138,0.0749 0.03827,0.15053 0.113234,0.16433 l 1.887381,0.34753 c 0.07494,0.0138 0.150531,-0.0383 0.16433,-0.11322 l 0.01635,-0.0888 c 0.0061,-0.0333 6.42e-4,-0.0659 -0.01699,-0.095 l -0.342238,-0.58816 c -0.01712,-0.0318 -0.05341,-0.0529 -0.0895,-0.0595 z m -4.551308,0.0121 c -0.350089,0.14304 -0.526099,0.51067 -0.362787,0.91039 0.02135,0.0522 0.04654,0.10599 0.07558,0.15509 -0.243492,-0.0438 -0.479386,-0.12115 -0.702903,-0.22804 -0.03677,-0.0155 -0.07457,-0.0183 -0.113725,-0.002 -0.07313,0.0299 -0.106087,0.11346 -0.07727,0.184 0.01281,0.0314 0.03867,0.0574 0.06919,0.0724 0.281929,0.13785 0.58394,0.22786 0.895586,0.27431 0.235541,0.032 0.475767,0.0523 0.750061,-0.0595 0.412788,-0.16866 0.55924,-0.56384 0.409805,-0.9296 -0.149436,-0.36576 -0.575133,-0.5272 -0.943505,-0.3767 z m 0.10674,0.26126 c 0.224681,-0.0918 0.48478,9e-5 0.575508,0.22217 0.095,0.23252 0.0034,0.45594 -0.255289,0.56161 -0.06536,0.0267 -0.132287,0.0419 -0.198773,0.0507 -0.16184,0.0143 -0.264591,-0.13275 -0.329702,-0.29211 -0.09927,-0.24298 -0.0086,-0.4538 0.208262,-0.5424 z m -5.878581,1.45127 c -0.311891,0.1766 -0.37569,0.55651 -0.175444,0.91015 0.01252,0.0221 0.02243,0.0456 0.03355,0.0653 0.0056,0.01 0.01112,0.0197 0.0193,0.028 l 0.01112,0.0196 c 0.191065,0.27452 0.548914,0.35081 0.806774,0.2048 0.240674,-0.13627 0.323998,-0.40724 0.346021,-0.6662 0.181986,0.0981 0.372919,0.14884 0.589035,0.0265 0.257861,-0.146 0.270502,-0.51317 0.124491,-0.77103 -0.147404,-0.26031 -0.464903,-0.4373 -0.725227,-0.28989 -0.216119,0.12237 -0.274288,0.31747 -0.278936,0.52119 -0.234783,-0.11679 -0.507555,-0.18612 -0.750685,-0.0484 z m 0.137669,0.24312 c 0.20384,-0.11542 0.461604,0.0306 0.627801,0.14075 0.0069,0.20694 -0.01522,0.48862 -0.209235,0.59849 -0.152264,0.0862 -0.359554,0.0122 -0.456896,-0.15967 l -0.02921,-0.0515 c -0.114028,-0.20138 -0.114199,-0.42506 0.0675,-0.52797 z m 1.031011,-0.47028 c 0.125246,-0.0709 0.276614,0.0704 0.340583,0.18337 0.06397,0.11297 0.107272,0.31547 -0.01797,0.38639 -0.164542,0.0932 -0.312897,-0.0142 -0.45355,-0.11942 -0.01791,-0.17471 -0.03361,-0.35718 0.130935,-0.45035 z m -4.657852,2.60043 c -0.05194,0.0557 -0.0487,0.14749 0.0071,0.19944 l 0.702058,0.65411 c -0.05694,0.028 -0.12032,0.0422 -0.179723,0.0563 -0.233787,0.0522 -0.475174,0.0587 -0.704261,0.13073 -0.331811,0.10359 -0.611528,0.32515 -0.850082,0.58119 -0.05385,0.0578 -0.04871,0.1475 0.007,0.19945 0.05575,0.0519 0.147484,0.0487 0.199442,-0.007 0.203925,-0.21888 0.440609,-0.41495 0.728969,-0.50502 0.221255,-0.0677 0.456725,-0.0721 0.680608,-0.12191 0.164331,-0.0397 0.325903,-0.10138 0.441332,-0.22527 0.05194,-0.0558 0.05076,-0.14557 -0.0071,-0.19944 l -0.82595,-0.76954 c -0.05782,-0.0539 -0.145577,-0.0508 -0.199437,0.007 z m -4.443922,5.71822 c -0.149095,0.3812 0.0065,0.74224 0.389673,0.90134 0.383144,0.15911 0.758759,0.0126 0.913538,-0.36016 0.169927,-0.4092 0.03164,-0.77528 -0.372357,-0.94305 -0.05734,-0.0238 -0.114378,-0.041 -0.169192,-0.0488 0.214105,-0.14028 0.447141,-0.2452 0.673878,-0.34967 0.03059,-0.0148 0.05663,-0.0407 0.0707,-0.0746 0.02922,-0.0704 -0.0058,-0.15521 -0.0762,-0.18444 -0.03388,-0.0141 -0.07578,-0.0162 -0.110054,1e-4 -0.295298,0.13712 -0.594292,0.27577 -0.8626,0.47299 -0.169396,0.12828 -0.337228,0.29695 -0.445463,0.55759 z m 0.260642,0.10823 c 0.106068,-0.25542 0.309153,-0.35444 0.561976,-0.24946 0.260642,0.10824 0.328186,0.31353 0.219951,0.57417 -0.09525,0.22937 -0.312689,0.30409 -0.54466,0.20776 -0.234578,-0.0974 -0.333598,-0.30049 -0.237267,-0.53247 z m -1.835417,8.60988 c 0,0.079 0.06491,0.14111 0.141111,0.14111 0.301978,0 0.615245,-0.0508 0.843845,-0.254 0.124178,-0.11289 0.239889,-0.29351 0.239889,-0.508 0,-0.48824 -0.341489,-0.72249 -0.835378,-0.72249 h -0.04233 l 0.02258,-0.40922 h 0.697089 c 0.0762,0 0.141111,-0.0677 0.141111,-0.14111 0,-0.0762 -0.06209,-0.14111 -0.141111,-0.14111 h -0.829733 c -0.0762,0 -0.135467,0.0564 -0.141111,0.13264 l -0.03951,0.70838 v 0.008 c 0,0.0734 0.06773,0.13264 0.141111,0.13264 h 0.01129 c 0.05927,-0.006 0.121355,-0.008 0.180622,-0.008 0.183444,0 0.364067,0.031 0.460022,0.14111 0.07338,0.079 0.09313,0.18909 0.09313,0.29915 0,0.0621 -0.01976,0.12136 -0.04798,0.17498 -0.135467,0.23989 -0.4572,0.3048 -0.753534,0.3048 -0.0762,0 -0.141111,0.0621 -0.141111,0.14111 z m -5.781048,-1.62892 v -0.38199 h 2.173532 c 2.130855,0 2.175856,0.002 2.291942,0.0931 0.127443,0.10025 0.161105,0.32733 0.07294,0.49207 -0.08624,0.16114 -0.322118,0.17826 -2.459938,0.17852 l -2.078477,2.5e-4 z m 1.999832,-3.77593 c -0.271887,-0.0606 -0.565121,-0.11931 -0.65163,-0.13045 -0.166435,-0.0214 -0.781348,-0.14755 -0.903953,-0.18542 -0.06601,-0.0204 -0.06663,-0.0517 -0.0069,-0.34713 0.03614,-0.17859 0.0789,-0.33817 0.09503,-0.35461 0.01613,-0.0164 0.292228,0.0279 0.613549,0.0986 0.321322,0.0707 0.674046,0.14081 0.783833,0.15591 0.326023,0.0448 0.811175,0.15404 0.903354,0.20337 0.112863,0.0604 0.178163,0.18786 0.176396,0.3443 -0.0037,0.32739 -0.261145,0.38232 -1.009722,0.21545 z m 2.786283,-4.40664 c -0.642643,-0.30972 -1.49201,-0.71694 -1.887482,-0.90492 -0.395472,-0.18798 -0.73816,-0.35869 -0.761528,-0.37935 -0.04595,-0.0406 0.234927,-0.66714 0.299088,-0.66714 0.02035,0 0.254067,0.10841 0.519364,0.24092 0.265296,0.1325 1.10927,0.53944 1.875498,0.9043 0.766227,0.36486 1.438643,0.7126 1.494256,0.77274 0.203598,0.22019 0.04778,0.60009 -0.245128,0.59763 -0.0691,-5.8e-4 -0.651426,-0.25446 -1.294068,-0.56418 z m 33.457859,-0.64815 c -0.112396,-0.11239 -0.118184,-0.36206 -0.01123,-0.48463 0.07822,-0.0897 3.735,-2.19067 3.759927,-2.16028 0.05189,0.0632 0.3478,0.63017 0.334783,0.6414 -0.009,0.008 -0.259078,0.15136 -0.555682,0.31907 -0.296605,0.16771 -0.59995,0.33925 -0.674101,0.38121 -0.07415,0.0419 -0.651744,0.37256 -1.28354,0.73469 -1.23324,0.70687 -1.379036,0.75966 -1.570152,0.56854 z m -33.237984,-3.35261 c -0.491687,-0.36092 -0.909742,-0.67093 -0.929012,-0.68891 -0.01927,-0.018 0.06162,-0.16519 0.17976,-0.32712 l 0.214796,-0.29442 0.930677,0.67998 c 0.951795,0.69542 1.06333,0.81014 1.006768,1.03549 -0.04268,0.17007 -0.152125,0.25119 -0.338873,0.25119 -0.148309,0 -0.284844,-0.0842 -1.064116,-0.65621 z m 31.315562,0.58625 c -0.0772,-0.0541 -0.09988,-0.11437 -0.09988,-0.2656 0,-0.18639 0.0154,-0.20926 0.325815,-0.48393 0.179199,-0.15856 0.699941,-0.59951 1.157206,-0.97988 0.457265,-0.38037 0.854027,-0.71253 0.881694,-0.73813 0.0652,-0.0603 0.455848,-0.39068 0.725414,-0.61344 0.116224,-0.096 0.221799,-0.17364 0.23461,-0.17244 0.04347,0.004 0.427754,0.49661 0.427754,0.54826 0,0.0282 -0.508904,0.47712 -1.130898,0.99753 -0.621993,0.52041 -1.240189,1.04116 -1.373769,1.15722 -0.623634,0.54183 -0.736821,0.62037 -0.89409,0.62037 -0.08469,0 -0.198923,-0.0315 -0.253856,-0.07 z m 2.48745,-5.9e-4 c -0.102782,-0.10278 -0.133267,-0.27304 -0.07403,-0.41343 0.03515,-0.0833 0.354669,-0.33528 0.99477,-0.78453 l 0.942985,-0.66182 0.221124,0.30114 c 0.121617,0.16562 0.217227,0.304 0.212466,0.30751 -0.0048,0.004 -0.430814,0.30232 -0.946784,0.66403 -0.809103,0.5672 -0.961637,0.65765 -1.109056,0.65765 -0.0954,0 -0.202103,-0.0312 -0.24148,-0.0705 z m -29.240293,-1.53606 c -0.121845,-0.1174 -0.806036,-0.83026 -1.520424,-1.58413 l -1.298888,-1.37067 0.253152,-0.25876 c 0.139233,-0.14232 0.266105,-0.25355 0.281936,-0.24717 0.01583,0.006 0.488906,0.49694 1.051278,1.09015 0.562373,0.59321 1.04536,1.09917 1.073306,1.12437 0.02795,0.0252 0.237873,0.24169 0.466505,0.48109 0.381483,0.39945 0.415695,0.44997 0.415695,0.61379 0,0.13933 -0.02599,0.19896 -0.11841,0.27166 -0.195041,0.15342 -0.352629,0.12203 -0.60415,-0.12033 z m 24.192891,-0.94189 c -0.123044,-0.0235 -0.23633,-0.176 -0.23633,-0.31815 0,-0.18209 -0.04766,-0.11639 1.505491,-2.07541 0.346038,-0.43646 0.750234,-0.949 0.898212,-1.13897 0.147978,-0.18997 0.279428,-0.34521 0.29211,-0.34499 0.01268,2.2e-4 0.148365,0.0977 0.301517,0.21655 l 0.278459,0.21616 -0.795269,1.01533 c -1.652936,2.11033 -1.901418,2.4164 -1.961761,2.4164 -0.0341,0 -0.08894,0.007 -0.121858,0.0162 -0.03292,0.009 -0.105175,0.007 -0.160571,-0.003 z m 2.574893,-0.36987 c -0.08281,-0.0915 -0.105714,-0.3531 -0.04067,-0.46459 0.02101,-0.036 0.387201,-0.42676 0.813758,-0.86834 l 0.775559,-0.80287 0.267203,0.26885 0.267204,0.26885 -0.818063,0.84353 c -0.800895,0.82584 -0.821924,0.84352 -1.002092,0.84263 -0.124176,-6.2e-4 -0.209681,-0.0293 -0.262899,-0.0881 z m -25.535008,-2.08121 c -0.04932,-0.0556 -0.231694,-0.30334 -0.405276,-0.55051 -0.660399,-0.94037 -0.851939,-1.21506 -0.883259,-1.26667 -0.03996,-0.0658 0.543556,-0.49392 0.594144,-0.43587 0.01905,0.0219 0.321072,0.4472 0.671157,0.9452 0.558299,0.79418 0.636519,0.92724 0.636519,1.08283 0,0.22638 -0.105214,0.32614 -0.34399,0.32614 -0.129746,0 -0.204523,-0.0281 -0.269295,-0.10112 z m 4.062402,0.0225 c -0.07086,-0.0795 -0.115712,-0.17593 -0.966289,-2.07848 -0.681342,-1.524 -0.820046,-1.84257 -0.820046,-1.88345 0,-0.02 0.146617,-0.0984 0.325815,-0.17412 l 0.325815,-0.13769 0.07273,0.16512 c 0.04,0.0908 0.429293,0.96043 0.865095,1.93246 0.828829,1.84865 0.88528,2.02197 0.710184,2.18043 -0.111308,0.10073 -0.421965,0.0982 -0.513303,-0.004 z m 14.896419,0.009 c -0.201648,-0.14124 -0.153813,-0.29127 0.746228,-2.34041 0.664437,-1.51273 0.862143,-1.92354 0.920784,-1.91325 0.04107,0.007 0.196054,0.0679 0.344408,0.13482 l 0.269734,0.12172 -0.856964,1.95489 c -0.471331,1.07519 -0.888859,1.99029 -0.927842,2.03354 -0.089,0.0988 -0.360959,0.10352 -0.496348,0.009 z m 2.876162,-0.76398 c -0.07477,-0.0524 -0.09988,-0.11494 -0.09988,-0.24886 0,-0.14632 0.09529,-0.34432 0.523259,-1.08725 0.287792,-0.49959 0.546145,-0.94174 0.574115,-0.98256 0.04568,-0.0667 0.08047,-0.0563 0.341837,0.10186 0.160039,0.0969 0.288419,0.2046 0.285289,0.23944 -0.0065,0.0727 -1.027172,1.84973 -1.130701,1.96868 -0.08607,0.0989 -0.358293,0.10368 -0.49392,0.009 z m -7.729428,-0.61449 c -0.05615,-0.0271 -0.11489,-0.10019 -0.130531,-0.16252 -0.03675,-0.14642 0.03766,-0.79253 0.280259,-2.43366 0.107788,-0.72915 0.208943,-1.45718 0.224789,-1.61784 0.01585,-0.16066 0.03607,-0.29974 0.04495,-0.30907 0.01566,-0.0165 0.699964,0.0756 0.721407,0.097 0.01175,0.0118 -0.113914,0.92589 -0.387877,2.82154 -0.09847,0.68135 -0.179038,1.2839 -0.179038,1.33901 0,0.23943 -0.320468,0.38768 -0.573963,0.26551 z m -4.411875,-0.12197 c -0.04806,-0.0481 -0.0985,-0.15423 -0.112098,-0.23593 -0.04177,-0.25099 -0.289874,-2.5084 -0.31762,-2.88991 -0.01438,-0.19773 -0.04548,-0.52077 -0.06911,-0.71786 -0.07595,-0.63351 -0.09538,-0.5924 0.297432,-0.62921 0.187215,-0.0175 0.346841,-0.025 0.354724,-0.0165 0.0079,0.008 0.09725,0.76363 0.198596,1.67816 0.294598,2.65841 0.296277,2.69117 0.144296,2.81424 -0.136689,0.11068 -0.384045,0.1092 -0.496222,-0.003 z m 7.76826,-1.16504 c -0.07564,-0.0613 -0.10395,-0.13116 -0.104631,-0.2584 -8.63e-4,-0.16138 0.577563,-2.15026 0.649705,-2.23397 0.0492,-0.0571 0.672167,0.14254 0.672167,0.21539 0,0.0341 -0.09205,0.36187 -0.204563,0.72837 -0.11251,0.36651 -0.264624,0.86307 -0.33803,1.10348 -0.08858,0.29008 -0.162376,0.45258 -0.219413,0.48311 -0.133829,0.0716 -0.341258,0.0543 -0.455235,-0.038 z m -10.905499,-0.24059 c -0.102641,-0.0495 -0.142568,-0.15606 -0.366702,-0.9787 -0.222319,-0.81597 -0.356156,-1.36852 -0.338431,-1.3972 0.02236,-0.0362 0.645798,-0.19441 0.669124,-0.16983 0.02432,0.0256 0.568891,2.0933 0.575137,2.18372 0.02231,0.32289 -0.246272,0.50323 -0.539128,0.36201 z m 5.195717,-0.66018 c -0.104051,-0.0843 -0.106269,-0.10223 -0.115238,-0.9325 -0.005,-0.46561 0.0018,-1.01341 0.01527,-1.21732 l 0.02441,-0.37076 h 0.355487 0.355486 l -2.7e-4,1.0898 c -2.7e-4,1.12979 -0.03219,1.39294 -0.178521,1.47125 -0.13388,0.0717 -0.340878,0.0533 -0.456645,-0.0405 z" />
  </g>
</svg>
