<?xml version="1.0" encoding="UTF-8" standalone="no"?>
<!-- Created with Inkscape (http://www.inkscape.org/) -->

<svg
   xmlns:dc="http://purl.org/dc/elements/1.1/"
   xmlns:cc="http://creativecommons.org/ns#"
   xmlns:rdf="http://www.w3.org/1999/02/22-rdf-syntax-ns#"
   xmlns:svg="http://www.w3.org/2000/svg"
   xmlns="http://www.w3.org/2000/svg"
   xmlns:sodipodi="http://sodipodi.sourceforge.net/DTD/sodipodi-0.dtd"
   xmlns:inkscape="http://www.inkscape.org/namespaces/inkscape"
   width="40.014336mm"
   height="20.160862mm"
   viewBox="0 0 40.014336 20.160862"
   version="1.1"
   id="svg8"
   inkscape:version="0.92.3 (2405546, 2018-03-11)"
   sodipodi:docname="back_plane_2A2.svg">
  <defs
     id="defs2" />
  <sodipodi:namedview
     id="base"
     pagecolor="#ffffff"
     bordercolor="#666666"
     borderopacity="1.0"
     inkscape:pageopacity="0.0"
     inkscape:pageshadow="2"
     inkscape:zoom="1.4"
     inkscape:cx="103.79799"
     inkscape:cy="-199.09779"
     inkscape:document-units="mm"
     inkscape:current-layer="layer1"
     showgrid="false"
     inkscape:window-width="2560"
     inkscape:window-height="1380"
     inkscape:window-x="3840"
     inkscape:window-y="0"
     inkscape:window-maximized="1" />
  <metadata
     id="metadata5">
    <rdf:RDF>
      <cc:Work
         rdf:about="">
        <dc:format>image/svg+xml</dc:format>
        <dc:type
           rdf:resource="http://purl.org/dc/dcmitype/StillImage" />
        <dc:title></dc:title>
      </cc:Work>
    </rdf:RDF>
  </metadata>
  <g
     inkscape:label="Livello 1"
     inkscape:groupmode="layer"
     id="layer1"
     transform="translate(-44.443398,-44.021058)">
    <path
       style="fill:#000000;stroke-width:0.04980392"
       d="m 50.723974,64.119961 c -0.989627,-0.3138 -1.990288,-1.4229 -2.16126,-2.39546 -0.05947,-0.3383 -0.01431,-0.61814 0.131984,-0.81792 0.270462,-0.36932 0.889254,-0.40608 1.512163,-0.0898 1.08396,0.55034 1.988204,1.9227 1.788756,2.71479 -0.03156,0.12532 -0.100577,0.28853 -0.153377,0.36268 -0.187775,0.2637 -0.68315,0.3637 -1.118266,0.22573 z m 0.59409,-0.60608 c 0.131223,-0.13122 0.09412,-0.42426 -0.10433,-0.82397 -0.336347,-0.67745 -1.16018,-1.37984 -1.726138,-1.47169 -0.230715,-0.0374 -0.332446,0.043 -0.332446,0.26282 0,0.67751 0.908438,1.7463 1.735377,2.04169 0.242549,0.0866 0.333936,0.0847 0.427537,-0.009 z m 11.113393,0.0996 c -0.0654,-0.0654 -0.0783,-0.22722 -0.0785,-0.98363 -1.5e-4,-0.49795 -0.0147,-1.12388 -0.0324,-1.39095 l -0.0322,-0.48559 h 0.4525 c 0.51983,0 0.66783,0.0435 0.89914,0.26452 0.702859,0.6715 0.533599,2.26606 -0.27669,2.60656 -0.22877,0.0961 -0.83188,0.0891 -0.93186,-0.0109 z m 0.83168,-0.51929 c 0.24765,-0.19481 0.36412,-0.88475 0.23057,-1.36578 -0.074,-0.26671 -0.3016,-0.4885 -0.48014,-0.46797 l -0.13744,0.0158 -0.0153,0.69725 c -0.008,0.3835 -10e-4,0.81492 0.016,0.95873 0.0276,0.23031 0.0449,0.26147 0.14552,0.26147 0.0628,0 0.17114,-0.0448 0.24073,-0.0995 z m 1.928099,0.45526 c -0.12003,-0.064 -0.2196,-0.18189 -0.32295,-0.38246 -0.14443,-0.2803 -0.14941,-0.31251 -0.14941,-0.96584 0,-0.75151 0.0479,-0.95869 0.28374,-1.2273 0.29159,-0.33211 0.78562,-0.33077 1.0786,0.003 0.29906,0.34061 0.29014,0.77263 -0.016,0.77263 -0.12925,0 -0.2756,-0.16396 -0.2756,-0.30876 0,-0.13426 -0.21938,-0.25845 -0.3413,-0.1932 -0.15287,0.0818 -0.21561,0.35705 -0.21418,0.9396 0.002,0.66965 0.0751,0.92542 0.27212,0.94801 0.17425,0.02 0.26742,-0.0542 0.30968,-0.24659 0.0567,-0.25829 0.41576,-0.29815 0.49302,-0.0547 0.0342,0.10769 -0.0361,0.36793 -0.13913,0.51499 -0.20418,0.2915 -0.64044,0.38099 -0.97863,0.20075 z m -17.270019,-2.99737 c -0.06312,-0.0254 -0.154643,-0.13982 -0.206539,-0.25832 -0.06774,-0.15468 -0.521718,-0.63965 -1.662233,-1.77573 -1.050467,-1.04638 -1.577526,-1.60603 -1.594722,-1.69333 -0.04546,-0.23082 0.01805,-0.4029 0.179528,-0.4864 0.302764,-0.15657 0.386269,-0.0927 2.027397,1.55006 0.835292,0.83614 1.542959,1.52025 1.572593,1.52025 0.07131,0 0.270458,-0.21418 0.270458,-0.29086 0,-0.0332 -0.465044,-0.57507 -1.033431,-1.20419 -0.568387,-0.62912 -1.054249,-1.19914 -1.079693,-1.26671 -0.07731,-0.20532 0.03324,-0.37588 0.243624,-0.37588 0.219737,0 0.233199,0.0127 1.401794,1.3198 0.51427,0.57523 0.969961,1.05139 1.012646,1.05812 0.04269,0.007 0.156051,-0.0538 0.251923,-0.13454 0.216834,-0.18258 0.25332,-0.1147 -0.67582,-1.25723 -1.16956,-1.43816 -1.216784,-1.50058 -1.215145,-1.60621 0.0029,-0.18794 0.121607,-0.28439 0.328876,-0.26724 0.183247,0.0152 0.226936,0.0611 1.199356,1.26083 0.692511,0.8544 1.035042,1.23998 1.091597,1.2288 0.136272,-0.0269 0.366822,-0.22085 0.366822,-0.30854 0,-0.0451 -0.140078,-0.2706 -0.311285,-0.50113 -0.171207,-0.23052 -0.391721,-0.53119 -0.49003,-0.66815 -0.09831,-0.13697 -0.372848,-0.51431 -0.610087,-0.83855 -0.333034,-0.45516 -0.431343,-0.62651 -0.431343,-0.75179 0,-0.20877 0.147786,-0.35082 0.320011,-0.3076 0.134797,0.0338 0.17836,0.0844 0.762238,0.88395 1.13683,1.55684 1.314329,1.78595 1.383637,1.78595 0.04157,0 0.154105,-0.0728 0.250085,-0.16187 l 0.174507,-0.16186 -0.604922,-0.92137 c -1.311384,-1.99741 -1.233941,-1.85915 -1.137792,-2.03122 0.08253,-0.14771 0.27836,-0.20005 0.434936,-0.11625 0.05143,0.0275 0.46987,0.63353 0.929869,1.34668 0.459999,0.71316 0.867152,1.3222 0.904785,1.35343 0.05218,0.0433 0.09867,0.037 0.195858,-0.0267 0.245781,-0.16104 0.283185,-0.0726 -0.875452,-2.06985 -0.198634,-0.34241 -0.400093,-0.68979 -0.447687,-0.77196 -0.570322,-0.98473 -0.696347,-1.21824 -0.696347,-1.29028 0,-0.12587 0.134491,-0.36177 0.226349,-0.39702 0.162509,-0.0624 0.368828,-0.0281 0.48898,0.0811 0.06778,0.0616 0.340715,0.49306 0.606521,0.95872 0.265807,0.46567 0.522022,0.91391 0.569367,0.99608 0.814044,1.41293 1.016385,1.75452 1.075306,1.81528 0.05222,0.0539 0.103551,0.0602 0.202535,0.0249 0.277069,-0.0987 0.270855,-0.11893 -0.49889,-1.62231 -0.400299,-0.78182 -0.727815,-1.47778 -0.727815,-1.54657 0,-0.2511 0.346777,-0.38949 0.508103,-0.20278 0.04142,0.0479 0.39452,0.71065 0.784669,1.4727 0.39015,0.76204 0.739167,1.39697 0.775594,1.41095 0.08132,0.0312 0.422266,-0.12497 0.454138,-0.20803 0.01274,-0.0332 -0.257325,-0.68879 -0.600141,-1.45687 -0.342817,-0.76808 -0.637915,-1.45473 -0.655775,-1.52588 -0.07367,-0.29352 0.29283,-0.50859 0.491877,-0.28864 0.04431,0.049 0.269468,0.51401 0.500345,1.03343 0.230876,0.51942 0.475519,1.06767 0.543651,1.21832 0.06813,0.15066 0.170161,0.38038 0.226731,0.51049 0.05657,0.13012 0.126073,0.23657 0.154451,0.23657 0.02838,0 0.141697,-0.0361 0.25182,-0.0801 0.146283,-0.0585 0.200296,-0.10885 0.200491,-0.18677 1.99e-4,-0.0883 -0.153144,-0.52805 -0.349819,-1.00312 -0.02268,-0.0548 -0.156264,-0.40216 -0.296852,-0.77196 -0.140588,-0.36979 -0.29919,-0.7818 -0.352449,-0.91556 -0.05326,-0.13377 -0.09683,-0.30399 -0.09683,-0.37826 0,-0.14943 0.1348,-0.2999 0.268666,-0.2999 0.241092,0 0.262746,0.0437 1.073576,2.16647 0.395004,1.03413 0.389128,1.02098 0.456304,1.02098 0.130949,0 0.439168,-0.11836 0.461798,-0.17733 0.0134,-0.0349 -0.08377,-0.39593 -0.215945,-0.80221 -0.132176,-0.40629 -0.354884,-1.09141 -0.494908,-1.52249 -0.140024,-0.43109 -0.254589,-0.82543 -0.254589,-0.8763 0,-0.22596 0.356931,-0.34119 0.515186,-0.16632 0.0705,0.0779 0.507681,1.33905 0.874839,2.52367 0.182655,0.58932 0.201312,0.62255 0.349636,0.62255 0.07362,0 0.174711,-0.0299 0.224652,-0.0664 0.08697,-0.0636 0.08722,-0.0799 0.006,-0.38598 -0.04666,-0.17577 -0.126303,-0.47647 -0.176975,-0.66821 -0.05067,-0.19175 -0.12588,-0.4719 -0.167127,-0.62255 -0.04125,-0.15066 -0.134004,-0.49804 -0.206124,-0.77196 -0.07212,-0.27392 -0.208221,-0.78038 -0.302448,-1.12547 -0.207615,-0.76034 -0.215986,-0.95106 -0.04907,-1.11797 0.13113,-0.13113 0.245644,-0.15033 0.444871,-0.0746 0.15128,0.0575 0.239071,0.22014 0.350679,0.64959 0.166002,0.63875 0.321329,1.22534 0.402226,1.51902 0.04527,0.16435 0.126926,0.46691 0.18145,0.67235 0.05452,0.20544 0.118449,0.44076 0.142057,0.52294 0.02361,0.0822 0.08605,0.31764 0.138762,0.52325 0.157037,0.61256 0.148786,0.59742 0.325281,0.59658 0.08718,-4e-4 0.190793,-0.0212 0.230253,-0.0462 0.07672,-0.0486 0.05928,-0.16746 -0.197703,-1.34759 -0.316723,-1.45449 -0.397686,-1.89731 -0.3683,-2.0144 0.0361,-0.14383 0.224392,-0.248 0.366647,-0.20285 0.153665,0.0488 0.22639,0.24731 0.401704,1.09666 0.342713,1.66036 0.466591,2.19445 0.523552,2.25721 0.0606,0.0668 0.334089,0.0445 0.467732,-0.0381 0.06384,-0.0395 0.04098,-0.32224 -0.09286,-1.14835 -0.355071,-2.19162 -0.359609,-2.25024 -0.183161,-2.36585 0.08841,-0.0579 0.149763,-0.065 0.245992,-0.0284 0.168298,0.064 0.222369,0.17477 0.285516,0.58496 0.0288,0.18707 0.0728,0.47459 0.09778,0.63894 0.02498,0.16435 0.06721,0.4333 0.09384,0.59765 0.08629,0.5325 0.166528,1.04075 0.200531,1.27022 0.04882,0.32948 0.08015,0.36093 0.320819,0.32213 0.316882,-0.0511 0.340312,-0.0941 0.285722,-0.52421 -0.02589,-0.20399 -0.07259,-0.62862 -0.103777,-0.94363 -0.03119,-0.31501 -0.07768,-0.72963 -0.103311,-0.92137 -0.07814,-0.58449 -0.07933,-1.04538 -0.0029,-1.13765 0.08035,-0.097 0.369678,-0.11027 0.444028,-0.0203 0.0738,0.0893 0.0963,0.24851 0.25913,1.83387 0.0804,0.78265 0.1606,1.4606 0.17825,1.50657 0.0396,0.1032 0.35848,0.11453 0.49124,0.0175 0.0872,-0.0638 0.0874,-0.12299 0.005,-1.64882 -0.0467,-0.87048 -0.0725,-1.6325 -0.0572,-1.69337 0.0364,-0.14511 0.24214,-0.23899 0.39572,-0.1806 0.17946,0.0682 0.22284,0.25965 0.25465,1.12362 0.0678,1.84063 0.0912,2.24565 0.1345,2.32833 0.0302,0.0576 0.10454,0.0872 0.219459,0.0872 0.14073,0 0.18303,-0.0243 0.22236,-0.12775 0.0289,-0.0759 0.0486,-1.01139 0.0486,-2.30649 0,-2.11981 0.003,-2.18167 0.10098,-2.28714 0.19957,-0.2142 0.52065,-0.18379 0.66238,0.0627 0.0413,0.0718 0.0657,0.76687 0.0833,2.36766 l 0.0249,2.26608 0.16819,0.0161 c 0.0925,0.009 0.19215,-0.008 0.22143,-0.0372 0.0317,-0.0317 0.0876,-0.70194 0.13842,-1.65961 0.0468,-0.8835 0.10153,-1.64731 0.12153,-1.69734 0.0912,-0.22807 0.49078,-0.19547 0.55112,0.045 0.0182,0.0725 0.0189,0.38145 0.002,0.68656 -0.12977,2.2843 -0.13492,2.59406 -0.0442,2.66118 0.0479,0.0355 0.17654,0.0579 0.28588,0.0498 l 0.19879,-0.0147 0.0606,-0.47313 c 0.0334,-0.26023 0.0849,-0.70847 0.11444,-0.99608 0.0296,-0.28762 0.0754,-0.70224 0.1017,-0.92138 0.0263,-0.21913 0.0479,-0.48358 0.0478,-0.58766 -3e-5,-0.10409 0.0341,-0.25536 0.0759,-0.33618 0.061,-0.11794 0.10861,-0.14694 0.24131,-0.14694 0.1029,0 0.19987,0.0382 0.25684,0.10114 0.0963,0.10637 0.0883,0.28421 -0.0757,1.6918 -0.10693,0.91785 -0.16021,1.52847 -0.14327,1.64214 0.0151,0.10104 0.0575,0.13083 0.23648,0.16608 0.16275,0.032 0.23371,0.0261 0.27951,-0.0235 0.0562,-0.0609 0.16007,-0.65925 0.43078,-2.48195 0.0549,-0.3698 0.13123,-0.72108 0.16959,-0.78064 0.0984,-0.15282 0.25303,-0.18926 0.39855,-0.0939 0.10474,0.0686 0.12207,0.11836 0.12207,0.35031 0,0.14868 -0.0201,0.37788 -0.0447,0.50934 -0.0432,0.23117 -0.0931,0.53157 -0.20082,1.21019 -0.0283,0.17805 -0.088,0.55372 -0.13265,0.83482 -0.0919,0.57779 -0.0761,0.62912 0.20753,0.67515 0.2307,0.0374 0.32006,-10e-4 0.32006,-0.13826 0,-0.0615 0.0196,-0.17672 0.0436,-0.25614 0.024,-0.0794 0.0675,-0.25645 0.0968,-0.39341 0.0712,-0.33293 0.251,-1.1847 0.31545,-1.49412 0.0285,-0.13696 0.0708,-0.33866 0.094,-0.44823 0.0232,-0.10957 0.0549,-0.26023 0.0705,-0.3348 0.0337,-0.16116 0.20888,-0.33755 0.33532,-0.33755 0.0496,0 0.13766,0.0474 0.19565,0.10543 0.12705,0.12705 0.12049,0.20561 -0.10354,1.23927 -0.42316,1.95242 -0.45755,2.14731 -0.39272,2.22543 0.0355,0.0427 0.12706,0.0647 0.23224,0.0556 0.19211,-0.0166 0.15646,0.06 0.4012,-0.86163 0.0582,-0.21914 0.18187,-0.67858 0.27484,-1.02098 0.093,-0.3424 0.27407,-1.01475 0.40245,-1.49411 0.24857,-0.92815 0.32327,-1.06802 0.59991,-1.12328 0.24014,-0.048 0.42254,0.1257 0.42254,0.40231 0,0.11994 -0.0336,0.34243 -0.0747,0.49442 -0.0898,0.33202 -0.19623,0.72262 -0.30274,1.11056 -0.0432,0.15751 -0.11992,0.44326 -0.1704,0.635 -0.0505,0.19175 -0.12553,0.47189 -0.16677,0.62255 -0.21951,0.80173 -0.3477,1.28148 -0.36813,1.37765 -0.0275,0.12953 0.12771,0.22989 0.3197,0.20669 0.14134,-0.0171 0.0644,0.18292 0.81066,-2.10728 0.16959,-0.52045 0.34378,-0.9855 0.3871,-1.03343 0.10258,-0.11351 0.32469,-0.11148 0.42913,0.004 0.13982,0.1545 0.17725,0.004 -0.56763,2.28547 -0.16292,0.49904 -0.29622,0.95258 -0.29622,1.00787 0,0.0684 0.0576,0.12456 0.1804,0.17589 0.33951,0.14186 0.2889,0.21073 0.76792,-1.04521 0.16716,-0.43828 0.39425,-1.03219 0.50464,-1.31981 0.21532,-0.56096 0.34367,-0.74706 0.51526,-0.74706 0.22176,0 0.3553,0.34478 0.22691,0.58588 -0.0253,0.0476 -0.158,0.37783 -0.29483,0.73393 -0.13682,0.3561 -0.30487,0.79312 -0.37344,0.97117 -0.29819,0.77424 -0.38137,1.01332 -0.38137,1.09621 0,0.10012 0.3502,0.26389 0.46779,0.21876 0.0398,-0.0153 0.10541,-0.11006 0.14585,-0.21067 0.0755,-0.18772 0.65943,-1.48987 0.96069,-2.14216 0.0929,-0.20104 0.16881,-0.38291 0.16881,-0.40417 0,-0.0213 0.0464,-0.0977 0.10322,-0.16988 0.18198,-0.23134 0.54423,-0.12549 0.54423,0.15903 0,0.0594 -0.29515,0.7719 -0.65589,1.58322 l -0.6559,1.47513 0.12051,0.0912 c 0.16935,0.12822 0.34754,0.1646 0.42468,0.0867 0.0355,-0.0358 0.37044,-0.67028 0.74435,-1.40986 0.37392,-0.73959 0.72487,-1.38393 0.7799,-1.43187 0.21861,-0.19043 0.48745,-0.0706 0.48745,0.2173 0,0.0615 -0.32778,0.76156 -0.7284,1.55574 -0.68995,1.36772 -0.72348,1.44757 -0.635,1.51228 0.0985,0.0721 0.30941,0.13854 0.34055,0.10733 0.0101,-0.0101 0.34819,-0.58993 0.75127,-1.28843 0.40308,-0.6985 0.77188,-1.33724 0.81956,-1.41941 0.0477,-0.0822 0.20268,-0.35112 0.34445,-0.59765 0.29176,-0.50735 0.40337,-0.62255 0.60313,-0.62255 0.20865,0 0.29306,0.0464 0.3759,0.20659 0.1201,0.23225 0.0738,0.33579 -0.87552,1.95988 -0.38006,0.65018 -1.03338,1.78699 -1.13973,1.9832 l -0.13013,0.24006 0.13974,0.12102 c 0.0768,0.0666 0.1665,0.12062 0.19921,0.12014 0.0327,-5e-4 0.20832,-0.23021 0.39023,-0.51049 0.18191,-0.28029 0.57025,-0.87941 0.86298,-1.33138 0.29272,-0.45197 0.56839,-0.84978 0.61259,-0.88402 0.17872,-0.13845 0.50956,-0.0142 0.50956,0.19142 0,0.11785 -0.16662,0.39538 -0.9736,1.62164 -0.42325,0.64314 -0.76953,1.20033 -0.76953,1.23821 0,0.0962 0.33234,0.33985 0.41847,0.3068 0.0733,-0.0281 0.34002,-0.37797 1.34647,-1.76584 0.32339,-0.44594 0.62961,-0.83309 0.68049,-0.86032 0.22714,-0.12156 0.4925,0.11672 0.41243,0.37035 -0.0183,0.058 -0.4447,0.66912 -0.94754,1.35801 -0.50283,0.68888 -0.91425,1.28657 -0.91425,1.32819 0,0.0813 0.28955,0.28301 0.40626,0.28301 0.0389,0 0.52579,-0.56029 1.08191,-1.2451 1.00586,-1.23859 1.01214,-1.2451 1.20405,-1.2451 0.13975,0 0.20711,0.0266 0.24446,0.0963 0.11985,0.22394 0.11398,0.23328 -1.01568,1.61583 -0.78088,0.95568 -0.97402,1.20179 -0.97437,1.24152 -6.8e-4,0.0786 0.3248,0.33637 0.40722,0.32254 0.0461,-0.008 0.52431,-0.50713 1.06265,-1.10975 0.53834,-0.60263 1.02417,-1.13491 1.07961,-1.18285 0.0554,-0.0479 0.17725,-0.0871 0.27068,-0.0871 0.13148,0 0.1823,0.0273 0.22492,0.12083 0.0303,0.0665 0.0417,0.17292 0.0254,0.23657 -0.0163,0.0636 -0.50098,0.63943 -1.0771,1.2795 -0.57612,0.64007 -1.0475,1.19085 -1.0475,1.22396 0,0.0695 0.20779,0.27678 0.27744,0.27678 0.0258,0 0.73032,-0.68411 1.56562,-1.52025 1.13676,-1.13791 1.56255,-1.53342 1.69302,-1.57265 0.34265,-0.10303 0.59407,0.11656 0.52923,0.4622 -0.0252,0.13448 -0.32896,0.46332 -1.60208,1.7345 -1.07847,1.07682 -1.59942,1.63215 -1.66176,1.7714 -0.11657,0.2604 -0.31684,0.35639 -0.54433,0.26091 -0.0856,-0.0359 -0.397,-0.29053 -0.69198,-0.56579 -1.08953,-1.01667 -2.31155,-1.94922 -3.61024,-2.75503 -0.40322,-0.25019 -0.74108,-0.4549 -0.7508,-0.4549 -0.01,0 -0.25131,-0.12545 -0.53687,-0.27879 -0.54486,-0.29256 -1.80329,-0.87093 -2.31215,-1.06264 -0.16435,-0.0619 -0.34365,-0.13241 -0.39843,-0.15664 -0.1245,-0.055 -1.1774,-0.39763 -1.64353,-0.53475 -3.15815,-0.92898 -6.73523,-1.12914 -10.035485,-0.56155 -0.82355,0.14163 -0.907518,0.1579 -1.045883,0.20266 -0.06848,0.0221 -0.25898,0.0681 -0.423333,0.10213 -0.164353,0.034 -0.489324,0.11684 -0.722157,0.18404 -0.232833,0.0672 -0.490569,0.14031 -0.572745,0.16248 -0.08218,0.0222 -0.351118,0.10743 -0.597647,0.18949 -3.09533,1.03026 -5.940274,2.71971 -8.317255,4.93914 -0.698695,0.65239 -0.791976,0.70499 -1.05962,0.59751 z m 11.861499,-0.74404 c -0.05785,-0.0234 -0.15315,-0.10348 -0.21178,-0.17802 -0.115825,-0.14725 -1.102452,-3.11837 -1.102452,-3.31992 0,-0.24279 0.293366,-0.38319 0.564209,-0.27003 0.193306,0.0808 0.162578,0.0139 0.547937,1.193 0.141604,0.43329 0.279157,0.78784 0.305672,0.7879 0.02652,5e-5 0.17916,-0.41047 0.339211,-0.9123 0.316285,-0.99168 0.375771,-1.08672 0.680199,-1.08672 0.189182,0 0.401596,0.15652 0.401596,0.29592 0,0.10693 -0.951731,3.05053 -1.048468,3.24279 -0.06896,0.13706 -0.288749,0.31555 -0.360836,0.29303 -0.0056,-0.002 -0.05744,-0.0223 -0.115288,-0.0456 z m 2.419891,-0.0744 c -0.624736,-0.20092 -0.878874,-0.83377 -0.835568,-2.0807 0.02566,-0.73871 0.110251,-1.01667 0.403508,-1.32581 0.34477,-0.36345 0.9644,-0.46981 1.41782,-0.24336 0.547799,0.27359 0.769669,0.80149 0.777719,1.85051 0.008,1.01474 -0.17119,1.49556 -0.641419,1.7232 -0.2956,0.14309 -0.80619,0.17775 -1.12206,0.0762 z m 0.81908,-0.84492 c 0.12284,-0.25168 0.16454,-1.06218 0.0803,-1.56145 -0.075,-0.44482 -0.21955,-0.67697 -0.43457,-0.69805 -0.33207,-0.0326 -0.48816,0.37567 -0.4819,1.26036 0.004,0.5603 0.0657,0.89509 0.20394,1.10607 0.0665,0.10151 0.11164,0.1168 0.30721,0.10411 0.21196,-0.0138 0.23647,-0.0297 0.325,-0.21104 z m 1.243969,0.69918 -0.16933,-0.16934 v -0.86863 c 0,-0.47774 -0.0142,-1.20276 -0.0315,-1.61115 -0.0297,-0.6995 -0.0256,-0.74975 0.0703,-0.86704 0.14342,-0.17536 0.52327,-0.17933 0.66288,-0.007 0.0852,0.10521 0.0952,0.20473 0.0954,0.94627 1e-4,0.45578 0.0148,1.11438 0.0326,1.46354 l 0.0324,0.63485 0.78388,-0.0323 0.78388,-0.0323 0.12982,0.12981 c 0.22147,0.22147 0.13192,0.45835 -0.20262,0.53599 -0.10478,0.0243 -0.60176,0.0447 -1.10441,0.0454 l -0.9139,0.001 z m 3.61577,0.0199 c -0.0951,-0.0951 -0.0996,-0.16601 -0.0996,-1.56883 v -1.46921 h -0.327 c -0.45633,0 -0.61702,-0.0935 -0.61851,-0.35993 -5.2e-4,-0.0931 0.0416,-0.16357 0.13388,-0.22412 0.11579,-0.0759 0.2814,-0.0906 1.18333,-0.10488 1.01139,-0.016 1.05355,-0.0128 1.18516,0.0908 0.34133,0.26849 0.0448,0.59258 -0.5462,0.59697 l -0.15974,10e-4 -0.0146,1.46407 c -0.0135,1.35823 -0.0214,1.47164 -0.10945,1.56882 -0.12909,0.14254 -0.48695,0.14548 -0.62728,0.005 z m 5.22941,-10.47121 c -0.87679,-0.46866 -0.68196,-2.64992 0.33054,-3.70056 0.42009,-0.43591 0.93244,-0.54234 1.31149,-0.27243 0.57274,0.40782 0.59744,1.79953 0.0517,2.91459 -0.45741,0.93464 -1.13414,1.35752 -1.69375,1.0584 z m 0.65228,-0.67167 c 0.24588,-0.20689 0.52929,-0.68184 0.67424,-1.12988 0.22526,-0.69628 0.17553,-1.58219 -0.0946,-1.68586 -0.11483,-0.0441 -0.36145,0.0932 -0.52816,0.29388 -0.39188,0.47184 -0.68281,1.36896 -0.64299,1.98275 0.0414,0.63769 0.24925,0.82713 0.59155,0.53911 z m -18.418294,0.21739 c -0.05493,-0.0698 -0.291847,-0.87187 -0.580049,-1.96364 -0.516736,-1.95748 -0.518931,-1.9743 -0.274823,-2.10494 0.12936,-0.0692 0.325631,-0.023 0.385525,0.0908 0.0665,0.12638 1.003205,3.66587 1.003205,3.79078 0,0.14208 -0.170991,0.305 -0.320111,0.305 -0.06787,0 -0.161621,-0.0518 -0.213747,-0.11804 z m 15.300724,-0.17333 c -0.46567,-0.12912 -0.87697,-0.25359 -0.91401,-0.2766 -0.037,-0.023 -0.0993,-0.11841 -0.13843,-0.212 -0.064,-0.15312 -0.0618,-0.19118 0.0223,-0.3799 0.17925,-0.40265 0.70087,-0.79303 1.51907,-1.13687 0.64081,-0.2693 0.77056,-0.35896 0.88541,-0.61186 0.11263,-0.248 0.11901,-0.43639 0.0212,-0.62555 -0.24347,-0.47083 -0.85356,-0.47208 -1.09651,-0.002 -0.10985,0.21241 -0.21699,0.29914 -0.36954,0.29914 -0.15152,0 -0.30298,-0.13366 -0.30298,-0.26737 0,-0.30097 0.53498,-0.86954 0.91945,-0.97719 0.59948,-0.16784 1.26917,0.20928 1.47406,0.83009 0.0767,0.23253 0.0385,0.74232 -0.073,0.97354 -0.19992,0.41448 -0.43337,0.60442 -1.11088,0.90384 -0.60354,0.26674 -1.12961,0.59452 -1.12917,0.70356 1e-4,0.0274 0.29739,0.13241 0.66062,0.23336 0.36323,0.10096 0.69247,0.21016 0.73164,0.24267 0.15696,0.13026 0.009,0.55241 -0.19024,0.54156 -0.0342,-0.002 -0.44326,-0.10905 -0.90892,-0.23817 z m -13.765555,-0.33787 c -1.020651,-0.50861 -1.59314,-2.7928 -0.940375,-3.75202 0.371298,-0.54562 0.965395,-0.52897 1.493872,0.0418 0.896067,0.96786 1.116327,2.92877 0.404557,3.60167 -0.287847,0.27212 -0.566404,0.30367 -0.958054,0.1085 z m 0.61232,-0.68159 c 0.143186,-0.19227 0.174755,-0.97394 0.05794,-1.43459 -0.183225,-0.72253 -0.642989,-1.41108 -0.920213,-1.37811 -0.302164,0.0359 -0.438069,0.74691 -0.283658,1.48395 0.15182,0.72468 0.659038,1.52637 0.939205,1.48449 0.05617,-0.008 0.149193,-0.0785 0.206726,-0.15574 z"
       id="path826"
       inkscape:connector-curvature="0" />
  </g>
</svg>
